<?xml version="1.0" encoding="utf-8"?>
<!-- Generator: Adobe Illustrator 16.0.0, SVG Export Plug-In . SVG Version: 6.00 Build 0)  -->
<!DOCTYPE svg PUBLIC "-//W3C//DTD SVG 1.1//EN" "http://www.w3.org/Graphics/SVG/1.1/DTD/svg11.dtd">
<svg version="1.1" id="Layer_1" xmlns="http://www.w3.org/2000/svg" xmlns:xlink="http://www.w3.org/1999/xlink" x="0px" y="0px"
	 width="120px" height="120px" viewBox="0 0 120 120" style="enable-background:new 0 0 120 120;" xml:space="preserve">
<g id="facebook">
	<g>
		<path style="fill-rule:evenodd;clip-rule:evenodd;" d="M88.985,9.799c-0.197-0.768-0.688-1.328-1.525-1.473
			c-0.631-0.109-1.262-0.221-1.896-0.297c-2.754-0.336-5.517-0.607-8.262-1.008c-1.289-0.188-2.531-0.15-3.82-0.012
			c-3.711,0.398-7.393,1.19-11.162,0.916c-0.633-0.046-1.306-0.023-1.911,0.145c-2.997,0.832-5.813,1.912-8.22,4.094
			c-3.459,3.137-5.363,6.844-5.375,11.517c-0.01,4.067-0.035,8.136-0.052,12.202c-0.003,0.643,0.024,1.285,0.003,1.926
			c-0.014,0.457-0.227,0.828-0.707,0.924c-1.256,0.248-2.516,0.477-3.777,0.699c-3.146,0.561-6.279,1.082-9.23,2.471
			c-1.548,0.727-2.467,1.617-2.429,3.344c0.052,2.246,0.083,4.495,0.204,6.738c0.041,0.729,0.229,1.494,0.539,2.154
			c0.472,0.996,0.73,2.004,0.664,3.092c-0.07,1.139,0.424,2.051,1.016,2.973c0.697,1.088,1.627,1.696,2.916,1.635
			c1.064-0.051,2.129-0.166,3.186-0.309c1.798-0.242,3.588-0.545,5.386-0.783c0.444-0.059,0.882,0.152,0.954,0.645
			c0.441,2.955,0.964,5.904,1.248,8.875c0.377,3.934,0.684,7.875,0.763,11.838c0.097,4.916,0.443,9.827,0.687,14.74
			c0.02,0.426,0.065,0.853,0.114,1.277c0.403,3.499,0.79,7,1.229,10.496c0.104,0.836,0.288,1.688,0.605,2.463
			c0.531,1.301,1.571,2,3.001,2.02c0.963,0.014,1.928,0.014,2.889-0.039c3.309-0.18,6.615-0.414,9.926-0.568
			c1.324-0.061,2.498-0.496,3.653-1.076c0.915-0.463,1.446-1.18,1.769-2.16c0.523-1.581,0.354-3.18,0.262-4.772
			c-0.104-1.812-0.322-3.616-0.444-5.428c-0.274-4.053-0.494-8.108-0.787-12.159c-0.169-2.344-0.396-4.686-0.673-7.018
			c-0.613-5.205-1.09-10.416-1.072-15.661c0.002-0.64-0.023-1.3,0.129-1.909c0.086-0.348,0.467-0.676,0.793-0.893
			c0.244-0.162,0.613-0.148,0.93-0.181c2.65-0.263,5.304-0.495,7.949-0.788c0.846-0.095,1.67-0.356,2.51-0.51
			c0.588-0.108,0.923-0.411,1.09-0.996c0.235-0.816,0.457-1.658,0.842-2.408c0.693-1.348,1.117-2.768,1.434-4.234
			c0.695-3.234,1.396-6.467,2.075-9.703c0.087-0.414,0.172-0.882,0.06-1.267c-0.105-0.36-0.416-0.806-0.742-0.925
			c-0.584-0.213-1.246-0.279-1.877-0.287c-2.462-0.029-4.924-0.012-7.158-0.012c-2.902,0.094-5.574,0.182-8.246,0.264
			c-0.556,0.016-1.066-0.408-1.064-0.966c0.006-2.675,0.031-5.351,0.086-8.024c0.008-0.414,0.203-0.824,0.316-1.236
			c0.188-0.697,0.621-1.076,1.368-1.104c3.418-0.123,6.81-0.43,10.178-1.092c0.893-0.176,1.915,0.043,2.825,0.283
			c1.599,0.42,2.652,0.379,3.826-1.428c0.514-0.789,0.902-1.699,1.164-2.607c0.648-2.256,1.249-4.525,1.76-6.815
			C89.46,14.871,89.642,12.327,88.985,9.799z M63.677,104.129c-1.85,0.743-2.617,0.924-4.58,0.918
			c-0.182-0.049-0.6-0.123-0.984-0.281c-0.131-0.055-0.28-0.348-0.24-0.475c0.094-0.293,0.256-0.588,0.463-0.812
			c0.654-0.707,1.359-1.365,2.01-2.074c0.359-0.391,0.713-0.811,0.955-1.277c0.365-0.703,0.347-1.448-0.133-2.121
			c-0.469-0.656-1.562-1.037-2.305-0.663c-0.85,0.429-1.608,1.034-2.424,1.532c-0.125,0.078-0.423,0.074-0.497-0.014
			c-0.112-0.133-0.194-0.428-0.122-0.557c1.277-2.236,2.725-4.344,4.75-5.99c0.578-0.471,1.179-0.924,1.697-1.457
			c0.68-0.698,0.872-1.975,0.494-2.683c-0.438-0.819-1.796-1.384-2.793-1.071c-1.014,0.318-2.047,0.619-2.857,1.389
			c-0.463,0.438-0.971,0.832-1.487,1.207c-0.066,0.049-0.403-0.096-0.437-0.207c-0.227-0.734-0.25-1.489,0.172-2.162
			c0.338-0.541,0.714-1.077,1.158-1.531c1.645-1.682,3.315-3.338,4.995-4.984c0.474-0.463,1.137-0.293,1.226,0.297
			c0.252,1.689,0.541,3.377,0.684,5.076c0.329,3.934,0.557,7.875,0.875,11.809c0.12,1.486,0.406,2.957,0.555,4.441
			C64.937,103.285,64.466,103.812,63.677,104.129z M81.267,19.006c-0.037,0.24-0.668,0.545-1.033,0.556
			c-1.604,0.048-3.211,0.03-4.814-0.024c-2.393-0.08-4.661,0.443-6.906,1.211c-1.793,0.611-3.256,1.607-4.187,3.279
			c-1.358,2.443-2.647,4.901-1.728,7.867c0.184,0.596,0.139,1.268,0.168,1.906c0.129,2.771-0.272,5.56,0.377,8.318
			c0.137,0.577-0.178,1.252-0.244,1.885c-0.191,1.82,0.463,2.549,2.364,2.527c2.14-0.023,4.278-0.123,6.417-0.188
			c0.001,0.01,0.002,0.022,0.002,0.033c2.354,0,4.707-0.006,7.061,0.005c0.432,0.001,0.832,0.466,0.735,0.839
			c-0.401,1.547-0.778,3.104-1.261,4.625c-0.104,0.326-0.596,0.553-0.943,0.771c-0.167,0.105-0.428,0.152-0.619,0.109
			c-2.834-0.645-5.5,0.211-8.146,0.98c-1.639,0.476-3.209,1.186-4.965,1.135c-0.105-0.004-0.213,0.02-0.316,0.04
			c-1.373,0.278-2.096,1.409-1.865,2.833c0.135,0.838,0.275,1.686,0.277,2.529c0.012,5.137-0.017,10.274-0.029,15.412
			c-0.003,1.332,0.012,1.41-1.311,1.6c-1.35,0.193-2.393,0.859-3.355,1.738c-0.631,0.574-1.26,1.15-1.904,1.708
			c-0.216,0.188-0.41,0.091-0.42-0.22c-0.085-2.885-0.197-5.771-0.201-8.656c-0.001-0.586,0.302-1.271,0.679-1.736
			c0.871-1.078,1.896-2.03,2.811-3.074c0.415-0.473,0.798-1.004,1.054-1.573c0.354-0.784-0.18-1.79-0.987-2.092
			c-0.837-0.312-1.679-0.329-2.501,0.017c-0.59,0.247-1.146,0.57-1.737,0.814c-0.098,0.039-0.386-0.133-0.429-0.26
			c-0.099-0.295-0.127-0.621-0.137-0.938c-0.034-1.176-0.232-2.386-0.036-3.524c0.419-2.415-1.011-3.55-2.843-4.306
			c-1.462-0.604-3.006-1.031-4.68-0.689c-1.772,0.363-3.581,0.555-5.378,0.789c-0.11,0.014-0.399-0.312-0.37-0.414
			c0.699-2.423,0.152-4.893,0.295-7.333c0.062-1.044,0.335-1.499,1.21-1.573c2.445-0.203,4.81-1.043,7.312-0.85
			c0.724,0.055,1.486-0.141,2.209-0.318c1.632-0.398,2.289-1.235,2.384-2.945c0.023-0.426-0.022-0.855-0.013-1.283
			c0.051-2.123-0.311-4.26,0.434-6.359c0.234-0.664,0.029-1.484,0.038-2.232c0.023-2.246,0.04-4.492,0.085-6.738
			c0.043-2.154,0.653-4.203,1.125-6.288c0.646-2.856,2.652-4.111,5.194-4.536c5.594-0.938,11.243-1.357,16.923-1.238
			c0.32,0.006,0.669-0.061,0.957,0.041c1.369,0.487,3.291,0.035,4.027,1.516C82.737,16.092,81.493,17.545,81.267,19.006z"/>
	</g>
</g>
</svg>
