<?xml version="1.0" encoding="utf-8"?>
<!-- Generator: Adobe Illustrator 16.0.0, SVG Export Plug-In . SVG Version: 6.00 Build 0)  -->
<!DOCTYPE svg PUBLIC "-//W3C//DTD SVG 1.1//EN" "http://www.w3.org/Graphics/SVG/1.1/DTD/svg11.dtd">
<svg version="1.1" id="Layer_1" xmlns="http://www.w3.org/2000/svg" xmlns:xlink="http://www.w3.org/1999/xlink" x="0px" y="0px"
	 width="120px" height="120px" viewBox="0 0 120 120" style="enable-background:new 0 0 120 120;" xml:space="preserve">
<g id="twitter">
	<g>
		<path style="fill-rule:evenodd;clip-rule:evenodd;" d="M115.641,38.842c-0.305-0.291-0.635-0.594-1.008-0.781
			c-2.771-1.383-5.229-3.334-8.166-4.432c-1.512-0.566-1.529-0.855-0.727-2.406c0.346-0.664,0.727-1.309,1.086-1.967
			c1.074-1.971,2.221-3.906,3.191-5.928c0.736-1.535,1.26-3.174,1.855-4.775c0.395-1.059,0.271-2.092-0.215-3.111
			c-0.264-0.551-0.646-0.777-1.246-0.764c-1.73,0.039-3.348,0.402-4.947,1.154c-2.803,1.318-5.713,2.404-8.541,3.67
			c-1.203,0.537-1.969,0.186-2.793-0.719c-1.438-1.582-2.902-3.158-4.502-4.57c-2.354-2.078-5.061-3.561-8.184-4.191
			c-4.609-0.93-9.127-1.008-13.424,1.301c-1.131,0.607-2.318,1.105-3.439,1.727c-1.979,1.094-3.746,2.473-5.277,4.145
			c-3.021,3.293-4.902,7.232-6.439,11.365c-0.146,0.398-0.246,0.82-0.311,1.24c-0.438,2.852-0.832,5.709-0.814,8.604
			c0.004,0.426,0.025,0.881-0.115,1.268c-0.08,0.223-0.479,0.48-0.717,0.463c-0.523-0.037-1.029-0.262-1.553-0.371
			c-5.326-1.105-10.156-3.254-14.369-6.738c-2.473-2.045-4.975-4.053-7.461-6.08c-5.098-4.16-9.572-8.859-12.68-14.73
			c-0.568-1.074-1.443-1.48-2.635-1.438c-1.07,0.041-1.896,0.521-2.385,1.393c-0.939,1.676-1.668,3.471-2.646,5.121
			c-1.951,3.287-3.133,6.773-3.152,10.621c-1.213,6.588,2.586,13.951,7.449,16.994c0.271,0.17,0.541,0.348,0.785,0.551
			c0.324,0.271,0.188,0.578-0.068,0.77c-0.338,0.252-0.729,0.439-1.105,0.633c-1.521,0.781-3.074,1.508-4.566,2.344
			c-1.584,0.889-1.875,2.217-0.883,3.756c1.1,1.709,2.184,3.432,3.369,5.08c1.5,2.084,3.051,4.127,5.334,5.479
			c1.578,0.932,3.186,1.729,5.002,2.08c0.25,0.047,0.471,0.389,0.629,0.641c0.039,0.064-0.18,0.35-0.332,0.467
			c-0.932,0.717-1.889,1.402-2.818,2.125c-1.795,1.393-2.061,2.549-0.926,4.408c1.18,1.93,2.627,3.65,4.393,5.074
			c2.588,2.084,5.518,3.219,8.881,3.096c0.643-0.025,1.285-0.021,1.926-0.01c0.527,0.01,0.73,0.387,0.488,0.822
			c-0.857,1.553-2.141,2.678-3.682,3.48c-2.75,1.432-5.49,2.9-8.322,4.154c-3.127,1.385-6.395,1.631-9.686,0.457
			c-0.705-0.25-1.404-0.518-2.115-0.746c-1.057-0.338-1.955,0.064-2.555,0.871c-1.016,1.369-1.363,2.824-0.4,4.471
			c1.32,2.254,2.994,4.209,5.012,5.797c2.434,1.912,5.023,3.637,7.6,5.361c2.076,1.389,4.422,2.084,6.898,2.4
			c2.965,0.379,5.949,0.684,8.873,1.277c2.857,0.582,5.721,0.738,9.664,0.795c2.855,0.26,6.586-0.527,10.277-1.771
			c2.117-0.711,4.336-1.129,6.498-1.717c1.748-0.475,3.562-0.721,5.208-1.555c2.672-1.357,5.322-2.74,7.686-4.621
			c3.848-3.062,7.766-6.045,11.586-9.143c1.996-1.619,3.777-3.467,5.111-5.715c0.873-1.469,1.871-2.863,2.848-4.268
			c2.205-3.17,4.145-6.5,5.752-10.002c1.918-4.18,3.434-8.52,4.775-12.914c0.248-0.812,0.531-1.656,0.537-2.488
			c0.01-2.078,0.697-3.986,1.201-5.949c0.203-0.793,0.625-1.33,1.299-1.732c2.205-1.314,4.355-2.732,6.623-3.926
			c1.6-0.842,2.533-2.26,3.645-3.533C116.449,40.596,116.244,39.418,115.641,38.842z M13.739,51.49
			c-0.197,0.822-0.402,1.641-0.609,2.461c-0.076,0.301-0.471,0.348-0.729,0.061c-0.424-0.475-0.824-0.969-1.227-1.463
			c-0.062-0.078-0.084-0.193-0.125-0.291c0.137-0.148,0.246-0.352,0.414-0.432c0.576-0.277,1.164-0.527,1.764-0.746
			c0.141-0.051,0.348,0.049,0.508,0.117C13.772,51.213,13.762,51.395,13.739,51.49z M61.975,96.23
			c-0.078,0.098-0.182,0.225-0.285,0.354c-0.086-0.166-0.211-0.328-0.244-0.504c-0.033-0.186,0.004-0.391,0.045-0.58
			c0.018-0.086,0.117-0.152,0.18-0.229c0.102,0.113,0.256,0.215,0.293,0.346C62.014,95.797,61.975,96.004,61.975,96.23z
			 M105.916,41.154c-0.414,0.338-0.83,0.674-1.266,0.982c-0.869,0.621-1.746,1.238-2.637,1.828
			c-1.314,0.871-2.191,1.895-2.174,3.648c0.008,0.895-0.512,1.852-0.967,2.684c-1.65,3.018-2.766,6.252-3.984,9.443
			c-0.498,1.297-0.979,2.602-1.48,3.895c-0.396,1.02-0.822,1.912-2.246,1.711c-0.715-0.1-1.17,0.607-1.244,1.248
			c-0.109,0.945-0.166,1.945,0.023,2.865c0.418,2.045-0.453,3.553-1.883,4.754c-0.615,0.518-1.148,1.014-1.242,1.756
			c-0.193,1.562-1.35,2.367-2.373,3.285c-0.393,0.352-0.758,0.18-1.082-0.18c-0.273-0.307-0.545-0.652-0.893-0.85
			c-0.531-0.299-1.498,0.117-1.572,0.68c-0.123,0.951-0.271,1.922-0.188,2.865c0.115,1.291-0.229,2.311-1.213,3.137
			c-0.244,0.207-0.449,0.459-0.676,0.688c-1.035,1.039-1.26,1.006-1.666-0.287c-0.16-0.508-0.223-1.049-0.406-1.549
			c-0.145-0.395-0.381-0.762-0.617-1.113c-0.361-0.535-1.324-0.588-1.672-0.072c-0.295,0.438-0.613,0.906-0.729,1.406
			c-0.355,1.561-0.525,3.117-0.172,4.744c0.303,1.381-0.555,2.426-1.98,2.77c-0.145,0.033-0.447-0.121-0.496-0.254
			c-0.219-0.602-0.383-1.221-0.549-1.84c-0.109-0.41-0.146-0.846-0.293-1.242c-0.193-0.533-0.594-0.877-1.182-0.938
			c-0.609-0.064-1.061,0.223-1.254,0.768c-0.244,0.695-0.486,1.42-0.555,2.146c-0.098,1.061-0.041,2.137-0.047,3.207
			c-0.004,0.584-0.264,1-0.77,1.301c-0.385,0.23-1.008,0.104-1.043-0.279c-0.096-1.062-0.188-2.127-0.217-3.193
			c-0.023-0.863-0.072-1.695-0.494-2.484c-0.447-0.84-1.441-1.014-2.145-0.346c-0.656,0.625-0.998,1.369-1.006,2.275
			c-0.01,0.963-0.023,1.926-0.066,2.887c-0.006,0.16-0.18,0.311-0.277,0.467c-0.139-0.152-0.279-0.303-0.414-0.461
			c-0.068-0.08-0.109-0.188-0.182-0.262c-0.753-0.75-1.964-0.484-2.24,0.506c-0.113,0.408-0.174,0.836-0.213,1.26
			c-0.057,0.639-0.041,1.285-0.115,1.922c-0.09,0.764-0.971,1.451-1.857,1.465c-0.162,0.002-0.432-0.158-0.475-0.297
			c-0.248-0.811-0.373-1.664-0.689-2.443c-0.129-0.312-0.617-0.604-0.98-0.664c-0.557-0.09-1.135,0.221-1.264,0.768
			c-0.219,0.924-0.264,1.887-0.375,2.836c-0.107,0.938-0.451,1.295-1.438,1.248c-0.424-0.021-0.824-0.201-1.164,0.172
			c-0.547,0.598-1.295,0.688-2.023,0.863c-2.393,0.576-4.801,1.031-7.262,1.145c-0.963,0.041-1.928,0.012-2.889,0.045
			c-6.324,0.227-12.307-1.164-18.002-3.85c-1.15-0.543-2.221-1.254-3.322-1.896c-0.078-0.045-0.162-0.201-0.137-0.268
			c0.055-0.15,0.162-0.387,0.271-0.398c3.326-0.383,6.529-1.225,9.43-2.906c4.357-2.523,8.568-5.27,11.941-9.102
			c0.494-0.561,0.992-1.129,1.551-1.625c2.748-2.445,4.162-5.643,5.174-9.072c0.412-1.404,0.348-2.73-0.482-3.994
			c-0.668-1.02-1.543-1.445-2.74-1.047c-0.689,0.23-1.389,0.592-1.936,1.066c-2.631,2.275-5.764,3.168-9.127,3.508
			c-1.381,0.139-2.758,0.332-4.141,0.455c-1.215,0.107-2.324-0.23-3.33-0.924c-0.486-0.336-0.588-0.922-0.156-1.361
			c2.709-2.738,5.426-5.469,8.146-8.197c0.832-0.836,1.717-1.639,2.055-2.82c0.111-0.389,0.156-0.844,0.068-1.232
			c-0.203-0.904-1.004-1.467-1.883-1.412c-0.32,0.021-0.637,0.074-0.951,0.129c-0.703,0.123-1.336,1.037-2.043,0.455
			c-0.428-0.35-0.496-1.127-0.754-1.699c-0.086-0.188-0.25-0.342-0.393-0.498c-0.393-0.428-1.521-0.254-1.645,0.293
			c-0.164,0.719-0.246,1.461-0.301,2.197c-0.119,1.617-0.104,1.617-1.867,1.881c-0.316,0.047-0.646,0.213-0.939,0.156
			c-0.275-0.053-0.645-0.277-0.732-0.514c-0.217-0.592-0.297-1.232-0.432-1.854c-0.18-0.83-0.318-1.672-0.559-2.484
			c-0.154-0.523-0.539-0.973-1.143-0.922c-0.594,0.051-0.934,0.547-1.096,1.057c-0.191,0.604-0.258,1.248-0.361,1.879
			c-0.068,0.418-0.104,0.844-0.168,1.264c-0.012,0.07-0.125,0.189-0.15,0.18c-0.094-0.037-0.219-0.102-0.25-0.186
			c-0.227-0.592-0.59-1.182-0.611-1.785c-0.053-1.375-0.252-2.779,0.324-4.121c0.344-0.797,0.037-1.387-0.594-1.967
			c-0.541-0.496-0.416-0.852,0.25-1.18c0.957-0.475,1.938-0.904,2.895-1.381c0.574-0.285,1.146-0.584,1.676-0.943
			c1.6-1.09,1.648-2.334,0.068-3.523c-0.695-0.523-1.006-0.982-0.643-1.854c0.191-0.463,0.256-1.053,0.156-1.541
			c-0.07-0.342-0.477-0.793-0.799-0.855c-0.305-0.061-0.789,0.244-1.031,0.527c-0.449,0.523-0.393,1.201-0.223,1.836
			c0.105,0.391-0.059,0.592-0.389,0.699c-0.32,0.104-1.045-0.24-1.059-0.525c-0.021-0.523-0.012-1.051,0.049-1.568
			c0.146-1.266,0.369-2.525,0.484-3.795c0.053-0.568-0.268-1.033-0.855-1.199c-0.551-0.154-1.119-0.07-1.455,0.389
			c-0.367,0.508-0.623,1.104-0.869,1.686c-0.287,0.678-0.504,1.387-0.768,2.074c-0.031,0.076-0.184,0.156-0.27,0.145
			c-0.072-0.008-0.182-0.143-0.184-0.225c-0.014-0.629-0.125-1.285,0.018-1.881c0.447-1.867,1.018-3.703,1.482-5.566
			c0.176-0.707,0.219-1.453,0.264-2.186c0.021-0.373-0.604-0.691-0.969-0.574c-0.965,0.311-1.656,0.93-2.182,1.787
			c-0.217,0.355-0.547,0.643-0.838,0.951c-0.02,0.021-0.16-0.027-0.203-0.08c-0.064-0.076-0.148-0.197-0.129-0.273
			c0.166-0.613,0.34-1.229,0.541-1.832c0.201-0.607,0.496-1.189,0.645-1.809c0.307-1.291-0.004-2.717-1.982-2.068
			c-0.201,0.066-0.393,0.17-0.594,0.238c-0.504,0.176-0.562-0.277-0.514-0.506c0.217-1.039,0.418-2.1,0.797-3.088
			c0.521-1.354,0.92-2.838,2.381-3.59c1.139,0.844,1.914,1.977,2.562,3.211c2.471,4.701,5.715,8.764,9.871,12.092
			c2.588,2.07,5.068,4.287,7.74,6.24c4.348,3.18,9.068,5.682,14.42,6.703c1.77,0.338,3.609,0.305,5.416,0.439
			c0.891,0.066,1.348,0.467,1.514,1.342c0.436,2.301,0.863,4.604,1.311,6.904c0.082,0.41,0.215,0.822,0.387,1.203
			c0.242,0.527,1.182,0.715,1.686,0.383c0.648-0.428,1.148-0.963,1.293-1.754c0.094-0.525,0.148-1.059,0.24-1.584
			c0.221-1.27,0.514-2.502,1.328-3.564c0.32-0.414,0.527-0.93,0.726-1.426c0.441-1.09-0.205-2.057-1.488-2.248
			c-0.207-0.029-0.43,0.055-0.639,0.033c-0.648-0.068-0.871-0.541-0.484-1.107c0.604-0.883,1.258-1.727,1.873-2.602
			c0.43-0.607,0.849-1.227,1.24-1.859c0.301-0.492,0.316-1.016-0.053-1.494c-0.367-0.477-0.833-0.621-1.41-0.398
			c-0.295,0.117-0.621,0.316-0.898,0.271c-0.193-0.031-0.488-0.443-0.455-0.637c0.068-0.396,0.25-0.832,0.525-1.121
			c0.658-0.697,1.389-1.326,2.105-1.965c0.479-0.426,1.02-0.789,1.467-1.24c0.729-0.734,0.455-1.949-0.506-2.393
			c-0.189-0.088-0.41-0.104-0.613-0.162c-0.299-0.088-0.594-0.186-0.892-0.279c0.234-0.33,0.402-0.76,0.714-0.975
			c1.146-0.783,2.34-1.492,3.516-2.229c0.359-0.227,0.74-0.422,1.074-0.682c0.521-0.404,0.525-1.615,0.01-2.029
			c-0.244-0.197-0.541-0.328-0.818-0.475c-0.441-0.23-1.211-0.189-1.168-0.84c0.031-0.479,0.385-1.035,0.764-1.369
			c1.598-1.414,3.162-2.889,5.082-3.887c0.76-0.393,1.537-0.76,2.264-1.207c1.33-0.82,2.738-1.164,4.291-0.951
			c0.42,0.059,0.855,0.01,1.283,0.01c2.039-0.004,4.074-0.01,5.99,0.836c0.682,0.299,1.424,0.559,1.982,1.025
			c1.971,1.643,3.902,3.334,5.789,5.072c0.529,0.49,0.9,1.18,1.252,1.826c0.484,0.885,1.197,1.1,2.141,1.043
			c0.895-0.055,1.672-0.375,2.389-0.848c1.605-1.061,3.23-2.1,4.766-3.256c1.039-0.779,2.119-1.441,3.326-1.896
			c0.148-0.055,0.35,0.029,0.525,0.047c-0.037,0.197-0.018,0.432-0.119,0.582c-2.951,4.346-5.018,9.189-7.738,13.664
			c-0.363,0.6-0.309,0.875,0.367,1.266c1.104,0.637,2.225,1.254,3.375,1.795c1.447,0.682,2.936,1.268,4.398,1.918
			C106.258,40.379,106.301,40.842,105.916,41.154z M77.352,27.906c-0.621,0.74-1.004,1.623-1.031,2.846
			c0.191,1.143,0.314,2.527,1.246,3.658c1.389,1.68,2.572,1.822,4.361,0.365c0.311-0.252,0.553-0.658,0.693-1.043
			c0.793-2.182,0.35-4.158-1.102-5.93C80.363,26.391,78.43,26.621,77.352,27.906z"/>
	</g>
</g>
</svg>
