<?xml version="1.0" encoding="utf-8"?>
<!-- Generator: Adobe Illustrator 16.0.0, SVG Export Plug-In . SVG Version: 6.00 Build 0)  -->
<!DOCTYPE svg PUBLIC "-//W3C//DTD SVG 1.1//EN" "http://www.w3.org/Graphics/SVG/1.1/DTD/svg11.dtd">
<svg version="1.1" id="Layer_1" xmlns="http://www.w3.org/2000/svg" xmlns:xlink="http://www.w3.org/1999/xlink" x="0px" y="0px"
	 width="120px" height="120px" viewBox="0 0 120 120" style="enable-background:new 0 0 120 120;" xml:space="preserve">
<g id="g_x2B_">
	<g>
		<path style="fill-rule:evenodd;clip-rule:evenodd;" d="M65.209,68.167c-1.549-1.307-2.918-2.822-4.391-4.223
			c-0.769-0.73-1.492-1.594-2.406-2.074c-1.201-0.633-1.295-1.557-1.26-2.67c0.029-1.025,0.588-1.814,1.123-2.607
			c3.257-4.809,5.56-10.104,7.841-15.406c0.248-0.582,0.488-1.209,0.541-1.83c0.195-2.344,0.367-4.688-0.574-6.957
			c-0.324-0.775-0.436-1.645-0.635-2.473c-0.246-1.023,0.074-1.84,0.783-2.623c1.146-1.27,2.234-2.594,3.279-3.945
			c1.764-2.281,3.562-4.543,5.18-6.928c1.248-1.842,0.58-3.811-1.455-4.689c-0.764-0.33-1.643-0.527-2.471-0.539
			c-3.531-0.049-7.061-0.006-10.589,0.006c-0.32,0-0.65-0.006-0.959,0.061c-3.594,0.762-7.26,0.225-9.58,0.494
			c-3.965,0-6.643-0.115-9.305,0.025c-4.232,0.225-8.199,1.367-11.676,3.922c-2.588,1.906-5.066,3.934-7.271,6.283
			c-1.33,1.42-2.408,3.006-3.176,4.785c-0.762,1.76-1.445,3.557-2.139,5.348c-0.346,0.895-0.695,1.795-0.949,2.719
			c-0.602,2.203-0.639,4.492-0.17,6.674c0.537,2.5,1.527,4.885,2.953,7.061c1.977,3.014,4.652,5.26,7.621,7.23
			c1.631,1.086,3.385,1.771,5.281,2.203c1.574,0.361,3.162,0.479,4.764,0.547c0.439,0.018,0.807,0.271,0.791,0.809
			c-0.02,0.631-0.09,1.262-0.07,1.891c0.045,1.303-0.059,1.547-1.207,1.816c-5.398,1.264-10.215,3.734-14.568,7.117
			c-1.518,1.18-2.883,2.551-4.387,3.748c-2.039,1.625-3.535,3.717-5.068,5.762c-0.625,0.834-1.08,1.879-1.314,2.896
			c-0.5,2.18-0.875,4.387-0.83,6.658C8.946,90.8,9.321,92.19,9.991,93.56c1.404,2.865,3.652,4.99,6.055,6.967
			c1.648,1.357,3.355,2.645,5.09,3.889c2.443,1.756,5.031,3.252,8.025,3.869c1.041,0.215,2.098,0.465,3.152,0.484
			c2.562,0.051,5.141,0.117,7.691-0.09c2.535-0.207,5.043-0.781,7.572-1.119c4.068-0.545,7.65-2.605,11.562-3.633
			c0.301-0.08,0.596-0.264,0.838-0.467c1.216-1.037,2.47-2.035,3.603-3.158c1.439-1.43,2.73-3.008,4.168-4.441
			c1.24-1.236,2.178-2.65,2.738-4.285c1.189-3.475,1.723-7.033,1.377-10.723C71.377,75.698,69.162,71.509,65.209,68.167z
			 M23.536,35.849c-0.113-1.066,0.348-1.838,1.209-2.438c0.789-0.547,1.566-1.113,2.305-1.725c0.404-0.334,0.793-0.736,1.049-1.186
			c0.326-0.574,0.35-1.229-0.033-1.824c-0.383-0.594-0.945-0.824-1.643-0.742c-0.105,0.012-0.211,0.031-0.316,0.049
			c-0.562,0.109-1.215,0.824-1.656,0.023c-0.197-0.363,0.041-1.018,0.182-1.51c0.402-1.404,1.281-2.18,2.828-2.014
			c0.422,0.045,0.854,0.008,1.875,0.008c2.193,0.029,2.611-0.189,1.812,3.057c-0.564,2.287-0.938,4.594-0.963,6.953
			c-0.004,0.443-0.209,0.857-0.691,0.938c-1.406,0.232-2.582,0.98-3.803,1.631c-0.561,0.299-1.133,0.574-1.699,0.859
			C23.295,37.354,23.612,36.558,23.536,35.849z M24.659,44.511c-0.428-0.678-0.469-1.375-0.082-1.76
			c0.223-0.223,0.457-0.443,0.717-0.619c1.057-0.709,2.123-1.402,3.188-2.102c2.797-1.846,2.412-1.947,3.873,1.234
			c0.035,0.078,0.012,0.184,0.016,0.275c-0.186,0.059-0.383,0.188-0.559,0.162c-1.225-0.18-2.303,0.199-3.279,0.877
			c-0.873,0.602-1.701,1.266-2.545,1.906C25.381,44.944,24.94,44.956,24.659,44.511z M29.77,49.784
			c-0.326,0.342-0.678,0.488-1.041,0.074c-0.568-0.648-0.752-1.33-0.48-1.707c0.123-0.172,0.24-0.359,0.402-0.484
			c1.748-1.35,3.662-2.541,4.416-4.809c0.021-0.062,0.445-0.102,0.523-0.014c0.486,0.551,0.93,1.137,1.381,1.717
			c0.057,0.076,0.068,0.189,0.1,0.285c-0.107,0.18-0.176,0.42-0.334,0.523C32.87,46.604,31.305,48.179,29.77,49.784z M34.731,52.276
			c-0.465,0.75-1.293,0.6-2.029,0.424c-0.115-0.027-0.26-0.295-0.242-0.428c0.027-0.193,0.156-0.406,0.305-0.539
			c1.237-1.102,2.485-2.188,3.73-3.278c0.001-0.06,0.012-0.116,0.01-0.177c0.044,0.001,0.088,0.007,0.132,0.011
			c0.089-0.155,0.167-0.331,0.299-0.398c0.137-0.066,0.359,0.047,0.543,0.08c-0.117,0.109-0.221,0.283-0.357,0.318
			c-0.151,0.039-0.318,0.016-0.485,0c-0.017,0.029-0.033,0.058-0.05,0.084c-0.031,0.027-0.062,0.054-0.092,0.081
			C36.455,49.97,35.473,51.079,34.731,52.276z M37.352,26.442c0.32-0.891,1.004-1.254,1.998-1.27
			c1.025-0.018,1.93,0.303,2.549,1.084c0.652,0.824,1.305,1.705,1.697,2.668c1.246,3.062,2.184,6.215,2.184,9.604
			c-0.166,1.146-0.252,2.314-0.529,3.434c-0.23,0.939-0.992,1.352-1.938,1.32c-1.498-0.051-2.629-0.766-3.498-1.934
			c-1.562-2.1-2.326-4.512-2.664-7.07c-0.152-1.158-0.119-2.348-0.363-3.48C36.454,29.249,36.852,27.845,37.352,26.442z
			 M31.752,99.511c-0.035,0.105-0.359,0.117-0.732,0.225c-0.201-0.197-0.727-0.504-0.688-0.715c0.188-1.113,0.512-2.211,1.395-3.01
			c0.127-0.115,0.402-0.158,0.572-0.109c0.168,0.047,0.441,0.291,0.418,0.383C32.43,97.368,32.108,98.446,31.752,99.511z
			 M38.708,99.438c-0.279,1.189-1.1,1.18-2.232,0.936c-0.209-0.047-0.51-0.479-0.477-0.686c0.133-0.812,0.342-1.619,0.598-2.404
			c0.236-0.717,1.379-1.139,2.09-0.725c0.287,0.166,0.389,0.648,0.533,0.916C39.022,98.231,38.85,98.831,38.708,99.438z
			 M44.149,100.099c-0.039,0.176-0.5,0.375-0.748,0.35c-0.25-0.025-0.691-0.326-0.68-0.48c0.084-1.145,0.223-2.291,0.422-3.422
			c0.076-0.443,0.494-0.689,0.949-0.611c0.262,0.043,0.494,0.271,0.77,0.436C44.627,97.659,44.432,98.888,44.149,100.099z
			 M43.987,91.812c-2.457,1.393-5.168,1.203-7.828,0.844c-1.607-0.217-2.77-1.482-2.826-3.041c-0.057-1.482-0.125-3.053,0.281-4.447
			c1.275-4.357,1.568-4.502,5.367-6.668c2.346-1.34,4.869-1.48,7.457-1.277c1.176,0,2.359-0.082,3.525,0.02
			c1.736,0.154,3.32,0.77,4.635,1.971c1.682,1.537,1.857,3.705,0.322,5.41c-0.705,0.787-1.533,1.512-2.428,2.074
			C49.692,88.456,46.864,90.179,43.987,91.812z M65.508,86.606c-0.238,0.709-0.467,1.422-0.652,2.145
			c-0.572,2.225-1.447,4.217-3.572,5.445c-0.525,0.307-0.802,1.02-1.31,1.387c-1.119,0.811-2.287,1.568-3.484,2.262
			c-0.961,0.555-1.135,0.402-1.303-0.82c-0.072-0.52-0.121-1.061-0.305-1.545c-0.199-0.523-0.674-0.842-1.25-0.859
			c-0.582-0.018-1.111,0.289-1.268,0.809c-0.332,1.111-0.584,2.254-0.744,3.4c-0.062,0.436-0.002,0.816-0.461,1.049
			c-0.576,0.295-1.15,0.609-1.82,0.406c-0.174-0.055-0.393-0.258-0.424-0.426c-0.078-0.414-0.092-0.848-0.07-1.27
			c0.02-0.426,0.096-0.85,0.182-1.268c0.209-1.037,0.213-2.209,0.73-3.064c0.455-0.75,1.533-1.1,2.275-1.701
			c1.904-1.553,3.807-3.109,5.652-4.732c1.619-1.424,2.35-3.389,2.365-5.441c0.023-2.656-1.018-4.986-3.139-6.729
			c-1.596-1.312-3.396-2.268-5.389-2.74c-3.139-0.744-6.316-1.068-9.525-0.365c-0.623,0.137-1.27,0.189-1.908,0.225
			c-2.646,0.15-4.965,1.186-7.115,2.65c-0.971,0.664-1.83,1.502-2.838,2.094c-2.887,1.686-3.855,4.471-4.367,7.48
			c-0.428,2.516,0.115,4.891,1.537,7.037c0.352,0.537,0.715,1.064,1.074,1.596c0.273,0.402,0.234,0.775-0.051,1.17
			c-0.5,0.693-0.963,1.412-1.465,2.105c-0.367,0.506-0.936,0.701-0.971,0.406c-0.037-0.275,0.092-0.574,0.16-0.859
			c0.051-0.201,0.156-0.395,0.18-0.6c0.045-0.396-0.398-0.916-0.758-0.881c-0.943,0.09-1.883,0.244-2.826,0.283
			c-0.221,0.008-0.502-0.318-0.66-0.555c-0.064-0.096,0.07-0.418,0.203-0.541c0.547-0.502,1.168-0.93,1.686-1.459
			c0.477-0.49,0.594-1.125,0.295-1.777c-0.297-0.658-0.877-0.916-1.547-0.949c-1.082-0.057-2.139,0.055-3.086,0.658
			c-0.541,0.344-1.08,0.689-1.645,0.992c-0.125,0.066-0.498-0.051-0.496-0.076c0.006-0.281-0.033-0.703,0.127-0.811
			c0.613-0.416,1.299-0.723,1.949-1.084c0.84-0.465,1.707-0.893,2.5-1.428c0.869-0.592,1.201-1.531,0.912-2.197
			c-0.354-0.809-1.41-1.254-2.48-0.951c-0.82,0.232-1.611,0.568-2.406,0.883c-0.371,0.145-0.609-0.01-0.715-0.322
			c-0.061-0.18-0.045-0.469,0.066-0.607c0.256-0.322,0.553-0.641,0.9-0.861c1.08-0.689,2.221-1.291,3.277-2.01
			c1.047-0.709,1.27-1.467,0.619-2.762c-0.375-0.742-0.297-1.184,0.277-1.629c1.686-1.314,3.365-2.637,5.082-3.91
			c2.164-1.607,4.559-2.77,7.129-3.592c2.742-0.875,5.467-1.814,8.205-2.705c1.691-0.551,2.951-1.688,4.092-2.975
			c0.588-0.664,0.182-1.822-0.676-2.068c-0.305-0.086-0.631-0.1-0.947-0.15c-0.457-0.074-1.096,0.359-1.305-0.297
			c-0.059-0.182,0.506-0.615,0.84-0.859c0.688-0.506,1.434-0.936,2.115-1.451c0.559-0.418,0.736-1.037,0.609-1.715
			c-0.131-0.695-0.574-1.141-1.254-1.299c-0.412-0.098-0.852-0.078-1.27-0.16c-0.379-0.074-0.42-0.301-0.252-0.652
			c0.27-0.564,0.613-1.141,0.689-1.742c0.164-1.293-1.152-2.262-2.324-1.748c-0.58,0.254-1.117,0.619-1.648,0.973
			c-1.172,0.775-1.309,0.77-2.41-0.217c-0.436-0.391-0.621-0.797-0.387-1.402c0.229-0.59,0.369-1.221,0.479-1.844
			c0.102-0.568,0.373-0.709,0.857-0.473c1.695,0.832,3.504,0.871,5.332,0.77c0.32-0.018,0.65-0.035,0.949-0.133
			c0.863-0.275,1.533-0.807,1.719-1.73c0.146-0.721,0.064-1.479,0.574-2.125c1.672-2.127,2.203-4.586,1.986-7.191
			c0.119-2.32-0.396-4.512-0.941-6.686c-0.229-0.908-0.334-1.643,0.471-2.303c0.23-0.189,0.443-0.539,0.451-0.816
			c0.01-0.396-0.053-0.953-0.312-1.16c-0.566-0.457-1.279-0.734-1.926-1.09c-0.689-0.377-0.891-0.885-0.602-1.576
			c0.207-0.494,0.455-0.969,0.684-1.451c0.307-0.658,0.172-1.244-0.293-1.773c-0.566-0.641-1.133-0.779-2.004-0.465
			c-0.301,0.109-0.588,0.26-0.871,0.41c-0.418,0.219-0.795,0.193-1.184-0.088c-1.248-0.9-2.629-1.355-4.188-1.395
			c-1.877-0.045-3.609,0.211-5.082,1.518c-0.385,0.34-0.912,0.531-1.396,0.744c-0.168,0.074-0.484,0.094-0.59-0.01
			c-0.898-0.904-1.799-1.799-2.949-2.4c-0.016-0.008,0.068-0.375,0.166-0.412c1.299-0.482,2.582-1.051,3.92-1.375
			c5.713-1.381,11.49-2.35,17.371-2.707c2.027-0.123,4.018-0.479,6.055-0.049c0.598,0.129,1.266-0.125,1.902-0.135
			c2.671-0.045,5.341-0.068,8.013-0.076c0.162,0,0.408,0.188,0.465,0.342c0.059,0.162-0.002,0.447-0.121,0.578
			c-0.432,0.471-0.879,0.936-1.379,1.33c-0.412,0.326-0.889,0.607-1.471,0.377c-0.803-0.32-1.459,0.104-2.113,0.453
			c-0.594,0.32-0.977,0.824-1.025,1.523c-0.023,0.32-0.006,0.643-0.008,0.961c0,0.758-0.408,1.174-1.123,1.314
			c-0.312,0.061-0.798-0.033-0.921,0.143c-0.658,0.945-1.34,1.906-1.787,2.959c-0.219,0.51-0.033,1.252,0.121,1.852
			c0.566,2.178,0.953,4.381,1.035,6.623c0.08,2.352,0.045,4.707,0.105,7.061c0.049,1.955-0.484,3.807-0.908,5.68
			c-0.289,1.277-1.021,2.322-1.91,3.285c-1.16,1.256-2.244,2.584-3.359,3.879c-0.576,0.67-0.912,1.412-0.947,2.322
			c-0.027,0.734-0.115,1.498-0.352,2.189c-0.465,1.363-0.062,2.52,0.639,3.646c0.506,0.812,1.1,1.584,1.518,2.439
			c0.256,0.527,0.514,0.875,1.098,0.996c1.539,0.32,2.67,1.293,3.723,2.387c1.697,1.768,3.474,3.467,5.072,5.322
			c0.746,0.865,1.367,1.971,1.668,3.068C66.229,79.837,66.645,83.22,65.508,86.606z M111.111,57.097
			c0.002-2.457-0.029-4.914-0.111-7.367c-0.016-0.506-0.215-1.055-0.482-1.488c-0.48-0.787-1.277-1.037-2.189-1.092
			c-2.27-0.135-4.445,0.449-6.656,0.783c-1.047,0.156-2.104,0.277-3.16,0.35c-0.578,0.041-0.969-0.369-1.049-0.965
			c-0.484-3.607-0.553-7.236-0.596-10.867c-0.01-0.854,0.027-1.713-0.045-2.561c-0.145-1.697-1.227-2.84-2.871-2.879
			c-3.436-0.082-6.807,0.346-10.086,1.441c-1.4,0.471-2.053,1.439-2.178,2.842c-0.037,0.424-0.029,0.854-0.035,1.279
			c-0.025,2.459-0.059,4.916-0.072,7.373c-0.012,2.953-0.002,2.963-2.988,3.553c-0.73,0.145-1.492,0.137-2.219,0.295
			c-0.932,0.205-2.064,0.258-2.703,0.83c-0.986,0.885-2.145,1.359-3.234,2c-0.877,0.516-1.387,1.283-1.695,2.236
			c-0.777,2.389-0.787,4.854-0.566,7.297c0.143,1.561,0.957,2.74,2.693,3.182c1.045,0.264,2.053,0.545,3.135,0.51
			c1.389-0.047,2.777-0.102,4.164-0.105c1.281-0.002,2.561,0.045,3.842,0.102c0.479,0.021,0.793,0.338,0.832,0.805
			c0.064,0.742,0.047,1.492,0.086,2.236c0.125,2.236,0.186,4.479,0.42,6.705c0.238,2.264,1.75,3.611,3.973,3.779
			c0.531,0.039,1.094-0.033,1.59,0.119c3.053,0.936,5.91-0.176,8.811-0.797c1.078-0.23,1.553-1.1,1.809-2.045
			c0.162-0.605,0.129-1.268,0.137-1.906c0.02-1.387,0.006-2.775,0.006-4.162h-0.219c0-1.604-0.002-3.205,0-4.809
			c0.002-1.469,0.201-1.787,1.551-1.873c1.699-0.105,3.41-0.072,5.115-0.111c1.17-0.027,2.342-0.053,3.508-0.123
			c0.49-0.029,0.77-0.414,0.732-0.867c-0.062-0.77,0.055-1.461,0.395-2.164C110.979,58.169,111.111,57.612,111.111,57.097z
			 M106.41,52.731c-0.842,3.832,0.447,3.475-4.047,3.463c-1.928-0.004-3.842,0.041-5.736,0.445
			c-2.137,0.453-3.387,1.742-3.543,3.939c-0.145,2.029,0.008,4.049,0.422,6.055c0.348,1.682,0.492,3.387-0.199,5.047
			c-0.312,0.746-0.607,0.908-1.467,0.697c-0.309-0.074-0.619-0.145-0.926-0.225c-1.607-0.432-2.146-1.1-2.127-2.68
			c0.002-0.314,0.174-0.635,0.148-0.941c-0.188-2.127-0.402-4.25-0.617-6.373c-0.035-0.316-0.123-0.629-0.188-0.941
			c-0.254-1.219,0.326-2.561-0.541-3.688c-1.158-0.035-2.324-0.002-3.477-0.123c-1.846-0.195-3.605,0.232-5.395,0.529
			c-1.863,0.309-2.059,0.148-2.814-1.697c-0.324-0.797-0.049-1.6,0.734-1.828c1.83-0.531,3.652-1.148,5.576-1.242
			c0.385-0.018,0.881,0.105,1.162,0.352c1.158,1.02,2.314,0.9,3.529,0.16c1.09-0.664,2.256-1.227,3.26-2
			c1.162-0.895,0.99-1.867-0.309-2.41c-0.389-0.162-0.828-0.205-1.227-0.352c-0.451-0.166-0.672-0.582-0.605-1.01
			c0.061-0.379,0.246-0.818,0.525-1.064c0.393-0.34,0.93-0.51,1.387-0.785c0.363-0.219,0.721-0.459,1.043-0.736
			c0.895-0.771,0.619-2.209-0.541-2.516c-0.774-0.204-1.606-0.212-2.417-0.294c-0.008,0.025-0.021,0.044-0.026,0.072
			c-0.065,0.023-0.131,0.048-0.193,0.077c-0.044,0.064-0.087,0.128-0.131,0.193c0.021-0.059,0.027-0.139,0.068-0.168
			c0.018-0.012,0.042-0.016,0.062-0.025c0.035-0.053,0.071-0.106,0.107-0.159c0.037,0.004,0.075,0.006,0.112,0.01
			c0.21-0.682,0.944-0.702,1.407-1.063c0.332-0.262,0.723-0.453,1.029-0.738c0.814-0.754,0.723-1.848-0.219-2.449
			c-0.35-0.223-0.793-0.291-1.172-0.479c-0.053-0.025-0.037-0.4,0.061-0.486c0.734-0.646,1.59-1.072,2.58-1.059
			c0.225,0.004,0.631,0.359,0.631,0.555c0.012,1.057-0.064,2.115-0.139,3.17c-0.041,0.629-0.348,1.33-0.16,1.865
			c0.549,1.572,0.361,3.17,0.428,4.76c0.023,0.533,0.021,1.068,0.031,1.604c0.072,4.318,0.209,3.926,3.861,3.961
			c1.279,0.014,2.568,0.229,3.838,0.141c1.695-0.117,3.375-0.441,5.064-0.67C106.025,51.522,106.568,52.007,106.41,52.731z"/>
	</g>
</g>
</svg>
