<?xml version="1.0" encoding="utf-8"?>
<!-- Generator: Adobe Illustrator 16.0.0, SVG Export Plug-In . SVG Version: 6.00 Build 0)  -->
<!DOCTYPE svg PUBLIC "-//W3C//DTD SVG 1.1//EN" "http://www.w3.org/Graphics/SVG/1.1/DTD/svg11.dtd">
<svg version="1.1" id="Layer_1" xmlns="http://www.w3.org/2000/svg" xmlns:xlink="http://www.w3.org/1999/xlink" x="0px" y="0px"
	 width="120px" height="120px" viewBox="0 0 120 120" style="enable-background:new 0 0 120 120;" xml:space="preserve">
<g id="linkedin">
	<g>
		<path style="fill-rule:evenodd;clip-rule:evenodd;" d="M107.762,87.075c-0.055-2.131-0.248-4.26-0.379-6.391
			c-0.02-0.319-0.094-0.654-0.029-0.958c0.479-2.237,0.137-4.466,0.014-6.704c-0.066-1.165,0.094-2.343,0.152-3.516
			c0.025-0.533,0.096-1.067,0.072-1.598c-0.096-2.134-0.225-4.266-0.332-6.398c-0.143-2.894-0.676-5.723-1.48-8.495
			c-0.504-1.743-1.211-3.431-1.664-5.185c-0.873-3.371-3.023-5.85-5.471-8.123c-1.186-1.102-2.58-2.008-4.229-2.135
			c-3.416-0.262-6.844-0.281-10.232,0.322c-3.357,0.599-6.506,2.071-9.93,2.438c-0.516,0.055-1,0.369-1.504,0.55
			c-2.021,0.726-3.898,1.733-5.74,2.827c-0.135,0.08-0.664-0.168-0.713-0.346c-0.141-0.502-0.189-1.053-0.16-1.576
			c0.08-1.375-0.527-2.434-1.305-3.512c-1.215-1.69-2.648-2.291-4.705-1.685c-2.352,0.692-4.773,1.138-7.141,1.783
			c-1.438,0.394-2.852,0.903-4.233,1.47c-1.294,0.529-1.997,1.526-1.981,2.999c0.014,1.39,0.084,2.802-0.121,4.165
			c-0.462,3.088-0.4,6.188-0.422,9.284c-0.045,6.634-0.014,13.268-0.014,19.901h-0.006c0,8.773-0.03,17.547,0.015,26.32
			c0.017,3.303,2.124,5.043,5.221,4.229c1.591-0.419,3.157-0.488,4.754-0.517c1.604-0.028,3.21-0.026,4.815-0.007
			c0.986,0.012,1.912-0.188,2.777-0.653c1.129-0.608,2.268-1.134,3.547-1.429c1.092-0.25,1.848-1.09,1.979-2.281
			c0.244-2.238,0.846-4.387,1.502-6.529c0.184-0.594,0.305-1.297,0.166-1.882c-0.75-3.146-0.635-6.38-0.867-9.56
			c-0.395-5.433-0.602-10.877-1.383-16.276c-0.135-0.934,0.072-1.6,0.938-2.152c1.158-0.742,1.889-2.11,3.283-2.509
			c1.977-0.562,3.762-1.428,5.471-2.578c1.438-0.968,3.268-0.416,4.172,1.111c0.594,1.004,1.074,2.096,1.467,3.197
			c0.906,2.537,1.25,5.177,1.256,7.867c0.018,7.49,0.053,14.98,0.074,22.471c0.012,4.161,0.012,4.154,2.961,6.919
			c0.65,0.608,1.369,0.987,2.258,1.096c3.295,0.401,6.6,0.649,9.916,0.491c0.943-0.045,1.904-0.278,2.795-0.599
			c0.992-0.357,1.932-0.881,2.861-1.389c1.006-0.549,1.594-1.411,1.633-2.584c0.029-0.854,0.037-1.712,0.031-2.567
			C107.83,93.281,107.844,90.177,107.762,87.075z M101.252,85.336c-0.088,2.99-0.227,5.979-0.348,8.968
			c-0.033,0.78-0.4,1.141-1.191,1.143c-1.82,0.004-3.639,0-5.459-0.021c-0.799-0.009-1.164-0.355-1.25-1.132
			c-0.248-2.251-0.004-4.488,0.207-6.726c0.141-1.485,0.365-2.968,0.416-4.456c0.148-4.384-0.266-8.774,0.172-13.156
			c0.053-0.524,0.012-1.079-0.104-1.594c-0.088-0.392-0.275-0.945-0.572-1.073c-1.133-0.492-1.426-1.539-1.867-2.495
			c-1.164-2.529-2.398-5.015-4.008-7.301c-1.027-1.458-2.375-2.485-4.055-2.991c-1.672-0.504-3.457-0.495-5.084-0.014
			c-3.672,1.088-7.453,1.994-10.543,4.485c-0.416,0.334-0.844,0.769-1.33,0.878c-1.715,0.387-2.404,1.681-2.902,3.125
			c-0.199,0.578-0.24,1.24-0.217,1.859c0.043,1.168,0.252,2.332,0.271,3.499c0.076,4.602,0.156,9.204,0.137,13.806
			c-0.016,3.75,0.33,7.471,0.672,11.196c0.096,1.045-0.078,1.209-1.209,1.452c-1.043,0.223-2.105,0.373-3.134,0.652
			c-1.098,0.299-1.932,0.369-2.624-0.865c-0.493-0.879-1.468-0.566-2.297-0.152c-0.468,0.233-0.911-0.008-0.921-0.406
			c-0.041-1.926-0.083-3.852-0.08-5.776c0-0.411,0.098-0.872,0.297-1.225c0.969-1.706,1.254-3.618,1.785-5.463
			c0.365-1.267,0.029-2.157-1.08-2.644c-0.836-0.367-1.033-0.885-1.096-1.709c-0.214-2.84,0.311-5.513,1.506-8.094
			c0.537-1.158,0.938-2.387,1.314-3.609c0.475-1.543,0.036-2.242-1.639-2.819c-1.133-0.39-1.387-0.727-1.086-1.794
			c0.67-2.363,1.399-4.709,2.111-7.058c0.218-0.716,0.492-1.415,0.68-2.138c0.213-0.819-0.363-1.729-1.217-1.957
			c-0.305-0.082-0.641-0.031-0.953-0.093c-0.809-0.157-1.131-0.479-1.164-1.253c-0.043-0.961-0.033-1.925-0.021-2.887
			c0.006-0.486,0.303-0.803,0.758-0.893c1.36-0.268,2.722-0.535,4.092-0.739c0.791-0.118,1.301,0.224,1.33,0.992
			c0.09,2.366,1.386,4.239,2.449,6.197c0.697,1.28,1.904,1.576,3.318,0.932c0.971-0.442,1.916-0.954,2.836-1.494
			c2.592-1.519,5.262-2.815,8.213-3.524c2.279-0.547,4.502-1.325,6.764-1.955c3.307-0.919,6.543-0.833,9.672,0.736
			c0.957,0.479,1.945,0.877,3.062,0.834c0.986-0.039,1.572,0.594,1.977,1.391c0.24,0.471,0.371,0.997,0.547,1.5
			c1.26,3.639,2.324,7.328,2.863,11.148c0.148,1.055,0.17,2.135,0.176,3.201c0.021,3.533,0.008,7.064,0.008,10.596
			c0.023,0,0.047,0.002,0.068,0.002C101.422,78.062,101.359,81.699,101.252,85.336z M35.36,42.772
			c-0.199-0.059-0.383-0.193-0.553-0.32c-0.561-0.415-1.188-0.441-1.836-0.328c-3.467,0.605-6.932,1.217-10.396,1.823
			c-1.574,0.274-3.098,0.802-4.729,0.79c-0.62-0.004-1.262,0.22-1.86,0.434c-1.092,0.389-1.798,1.18-1.92,2.348
			c-0.232,2.229-0.508,4.459-0.578,6.695c-0.291,9.189,0.017,18.392-0.639,27.574c-0.273,3.837-0.148,7.688-0.495,11.531
			c-0.384,4.265-0.11,8.549,0.409,12.803c0.263,2.158,1.822,3.299,3.865,2.611c1.378-0.466,2.72-0.418,4.092-0.527
			c1.274-0.102,2.543-0.281,3.814-0.427c0.85-0.097,1.695-0.22,2.547-0.285c2.555-0.192,5.109-0.392,7.669-0.53
			c1.271-0.068,2.224-0.622,3.033-1.561c0.688-0.798,0.774-1.742,0.764-2.711c-0.028-2.889-0.124-5.776-0.112-8.666
			c0.027-7.482-0.213-14.965,0.465-22.443c0.346-3.827,0.23-7.697,0.348-12.584c-0.072-2.816-0.201-6.666-0.263-10.517
			C38.941,45.813,38.229,43.627,35.36,42.772z M19.723,101.618c-0.146-0.025-0.338-0.258-0.354-0.41
			c-0.016-0.154,0.141-0.445,0.262-0.469c0.492-0.098,0.999-0.135,1.501-0.141c0.075-0.002,0.153,0.273,0.224,0.407
			C20.963,101.671,20.358,101.731,19.723,101.618z M32.419,59.03c-0.065,1.277-0.247,2.548-0.366,3.822
			c-0.369,3.928-0.744,7.855-1.096,11.785c-0.087,0.957-0.135,1.921-0.143,2.882c-0.047,6.733-0.079,13.468-0.115,20.202
			c-0.002,0.534,0.027,1.069,0.012,1.604c-0.016,0.605-0.388,1.037-0.924,1.106c-0.211,0.028-0.424,0.063-0.636,0.058
			c-0.843-0.023-1.81,0.189-2.497-0.154c-0.907-0.453-0.307-1.545-0.377-2.35c-0.098-1.104-0.559-1.73-1.688-1.996
			c-0.934-0.22-0.963-0.41-0.78-1.338c0.062-0.314,0.211-0.609,0.263-0.924c0.212-1.309-0.016-1.655-1.49-2.365
			c-0.741-0.357-0.891-0.589-0.684-1.158c0.623-1.703,1.266-3.398,1.885-5.104c0.181-0.496,0.37-1.014-0.089-1.49
			c-0.539-0.561-1.128-0.458-1.753-0.178c-0.238,0.106-0.494,0.174-0.746,0.248c-0.014,0.041-0.029,0.082-0.043,0.123
			c-0.041,0.022-0.065,0.053-0.102,0.077c-0.008,0.459,0.042,0.947-0.541,1.135c0,0.034-0.006,0.065-0.004,0.1
			c-0.03,0.024-0.062,0.047-0.093,0.07c-0.024,0.242-0.042,0.485-0.084,0.724c-0.015,0.078-0.123,0.138-0.188,0.205
			c-0.082-0.168-0.274-0.41-0.223-0.488c0.12-0.178,0.313-0.305,0.495-0.44c0.004-0.047,0.011-0.093,0.016-0.14
			c0.032-0.008,0.053-0.021,0.082-0.03c0.001-0.467,0.138-0.866,0.541-1.135c0.001-0.054,0.002-0.107,0.006-0.159
			c0.046-0.015,0.092-0.027,0.139-0.041c0.366-1.061,0.748-2.115,1.082-3.184c0.229-0.726-0.283-1.443-1.131-1.599
			c-0.307-0.055-0.842,0.156-0.916,0.032c-0.201-0.332-0.273-0.779-0.279-1.182c-0.021-1.316,0.41-2.479,1.104-3.613
			c1.916-3.135,2.818-6.666,3.762-10.17c0.148-0.553-0.037-1.151-0.641-1.285c-1.15-0.253-1.23-0.973-1.051-1.914
			c0.24-1.254,0.5-2.508,0.648-3.773c0.072-0.621-0.035-1.281-0.162-1.902c-0.186-0.92-0.795-1.395-1.832-1.487
			c-0.42-0.037-0.852,0.055-1.273,0.021c-0.116-0.01-0.236-0.247-0.307-0.402c-0.023-0.053,0.08-0.229,0.156-0.254
			c0.606-0.198,1.22-0.375,1.83-0.557c0.607-0.181,1.299-0.232,1.809-0.562c2.346-1.518,5.082-1.479,7.668-2.025
			c0.573-0.121,1.098,0.328,1.08,0.885C32.655,53.483,32.561,56.259,32.419,59.03z M16.721,31.235
			c1.445,0.723,2.664,1.707,3.999,2.553c1.479,0.937,3.099,1.399,4.882,1.251c2.313,0.212,4.465-0.372,6.311-1.767
			c4.289-3.239,6.613-7.42,5.988-12.969c-0.162-1.426-0.615-2.678-1.502-3.801c-2.061-2.605-4.717-4.344-7.922-5.08
			c-2.303-0.527-4.697-0.576-6.869,0.596c-3.834,2.068-6.413,5.17-7.598,9.424c-0.562,2.018-0.582,3.973,0.039,5.963
			C14.54,28.977,15.289,30.519,16.721,31.235z M25.127,21.319c0.112-0.516,0.256-1.023,0.352-1.542
			c0.104-0.559-0.869-1.247,0.041-1.646c0.514-0.227,1.229-0.051,1.844,0.021c1.209,0.14,2.213,0.73,3.092,1.546
			c0.666,0.617,1.005,1.369,0.904,2.312c-0.345,1.678-0.916,3.264-2.252,4.446c-0.2,0.177-0.615,0.255-0.872,0.179
			c-0.245-0.07-0.519-0.371-0.593-0.625c-0.116-0.4-0.074-0.846-0.102-1.271c-0.07-1.077-0.573-1.725-1.667-2.046
			C24.913,22.409,24.921,22.263,25.127,21.319z"/>
	</g>
</g>
</svg>
