<?xml version="1.0" encoding="utf-8"?>
<!-- Generator: Adobe Illustrator 16.0.0, SVG Export Plug-In . SVG Version: 6.00 Build 0)  -->
<!DOCTYPE svg PUBLIC "-//W3C//DTD SVG 1.1//EN" "http://www.w3.org/Graphics/SVG/1.1/DTD/svg11.dtd">
<svg version="1.1" id="Layer_1" xmlns="http://www.w3.org/2000/svg" xmlns:xlink="http://www.w3.org/1999/xlink" x="0px" y="0px"
	 width="120px" height="120px" viewBox="0 0 120 120" style="enable-background:new 0 0 120 120;" xml:space="preserve">
<g id="xing">
	<g>
		<path style="fill-rule:evenodd;clip-rule:evenodd;" d="M109.867,12.865c-0.416-0.561-1.137-0.98-1.805-1.246
			c-2.99-1.195-6.049-2.104-9.336-1.943c-1.064,0.051-2.141,0.008-3.207-0.066c-2.018-0.143-4.018-0.346-5.951-1.049
			c-1.938-0.699-2.973-0.381-4.094,1.393c-1.887,2.975-3.639,6.033-5.461,9.049c-0.771,1.275-1.572,2.535-2.369,3.795
			c-1.256,1.982-2.527,3.955-3.777,5.943c-0.453,0.723-0.816,1.506-1.297,2.209c-2.232,3.264-4.445,6.541-6.752,9.75
			c-4.117,5.727-8.292,11.41-12.449,17.107c-0.315,0.432-0.678,0.826-1.02,1.238c-1.841,2.225-3.734,4.404-5.503,6.684
			c-1.108,1.43-2.114,2.955-3.007,4.527c-0.898,1.58-0.876,3.23,0.082,4.857c2.168,3.682,4.062,7.512,6.322,11.15
			c2.309,3.717,4.494,7.539,6.359,11.492c1.684,3.562,3.523,7.082,4.703,10.873c0.125,0.404,0.336,0.785,0.496,1.182
			c0.348,0.857,0.859,1.387,1.904,1.393c0.945,0.004,1.889,0.266,2.834,0.387c0.633,0.08,1.324,0.297,1.896,0.135
			c1.588-0.451,3.143-0.498,4.793-0.014c0.684-0.119,1.416-0.244,2.146-0.373c2.73-0.482,5.445-1.08,8.191-1.418
			c3.014-0.369,3.146-1.455,3.025-3.818c-0.018-0.318-0.055-0.65-0.162-0.947c-0.514-1.402-0.971-2.834-1.6-4.184
			c-2.486-5.334-5.422-10.418-8.65-15.338c-2.297-3.498-4.195-7.203-5.605-11.145c-0.43-1.199-0.863-2.408-0.836-3.734
			c0.02-0.885,0.148-1.662,0.732-2.379c1.961-2.4,3.82-4.885,5.836-7.24c2.432-2.84,4.947-5.592,7.027-8.729
			c2.418-3.654,4.875-7.305,7.621-10.707c3.027-3.754,5.932-7.564,8.469-11.666c1.518-2.453,3.088-4.928,5.309-6.807
			c2.074-1.752,3.516-3.998,5.213-6.041C111.238,15.631,111.225,14.689,109.867,12.865z M66.145,88.527
			c-0.846,1.602-1.543,3.279-2.33,4.914c-0.068,0.143-0.354,0.275-0.518,0.256c-0.168-0.023-0.346-0.217-0.457-0.379
			c-0.117-0.172-0.17-0.391-0.232-0.596c-0.094-0.303-0.17-0.613-0.193-0.705c0.381-4.281,1.018-8.281,3.006-11.93
			c0.219-0.404,0.838-0.418,1.033-0.006c0.682,1.447,1.34,2.908,2.008,4.361c0.441,0.957,0.369,0.895-0.594,1.812
			C67.186,86.904,66.584,87.695,66.145,88.527z M74.076,96.656c0.023-0.074,0.387-0.121,0.529-0.051
			c0.172,0.082,0.303,0.289,0.41,0.465c1.162,1.914,2.32,3.832,3.471,5.754c0.107,0.176,0.152,0.389,0.227,0.586
			c-0.043,0.088-0.066,0.195-0.133,0.26c-0.045,0.047-0.191,0.076-0.219,0.049c-0.697-0.77-1.545-1.057-2.582-0.957
			c-0.256,0.025-0.6-0.223-0.809-0.438c-0.594-0.607-1.24-0.771-2.033-0.449c-0.064,0.023-0.373-0.271-0.348-0.355
			C73.059,99.891,73.553,98.27,74.076,96.656z M70.002,88.955c0.533-0.238,0.631,0.35,0.859,0.631
			c0.197,0.244,0.289,0.57,0.477,0.822c1.123,1.51,1.584,2.967-0.242,4.305c-0.631,1.332-1.26,2.668-1.893,4
			c-0.27,0.568-0.533,1.141-0.834,1.691c-0.025,0.047-0.412,0.004-0.463-0.09c-0.295-0.541-0.539-1.109-0.793-1.65
			c0.297-1.432,0.518-2.791,0.869-4.113c0.434-1.633,0.961-3.242,1.482-4.85C69.557,89.416,69.756,89.064,70.002,88.955z
			 M99.652,20.596c-0.506,1.064-0.988,2.111-1.729,3.055c-0.92,1.176-1.533,2.617-2.557,3.674c-2.025,2.092-3.506,4.574-5.314,6.814
			c-1.746,2.164-3.574,4.268-5.225,6.504c-3.756,5.08-7.744,9.963-11.922,14.701c-1.059,1.199-1.922,2.568-2.895,3.846
			c-2.072,2.717-4.158,5.426-6.246,8.131c-0.258,0.336-0.553,0.652-0.865,0.939c-0.52,0.479-1.574,0.523-1.486,1.467
			c0.055,0.59,0.488,1.148,0.773,1.711c0.291,0.572,0.631,1.121,0.904,1.699c1.17,2.475,1.678,2.318-0.576,4.67
			c-0.941,0.979-1.547,2.293-2.246,3.488c-0.43,0.734-0.732,1.537-1.134,2.289c-0.082,0.156-0.339,0.229-0.528,0.305
			c-0.036,0.014-0.152-0.137-0.21-0.225c-0.606-0.934-0.849-1.953-0.886-3.102c0.405-1.652,0.795-3.311,1.227-4.957
			c0.136-0.514,0.441-0.982,0.568-1.496c0.138-0.559-0.08-1.055-0.583-1.367c-0.526-0.332-1.068-0.215-1.464,0.186
			c-0.522,0.525-0.98,1.121-1.42,1.723c-1.784,2.428-2.094,2.41-3.89-0.031c-1.801-2.447-2.249-2.25,0.2-4.713
			c1.429-1.438,2.783-2.984,3.947-4.639c2.16-3.072,4.662-5.854,7.054-8.73c0.82-0.986,1.633-1.98,2.451-2.969
			c0.885-1.066,1.707-2.182,3.258-2.387c0.553-0.072,0.902-0.637,0.889-1.199c-0.021-1.062,0.557-1.801,1.152-2.57
			c3.859-4.994,7.59-10.086,11-15.4c2.135-3.324,4.156-6.723,6.229-10.09c0.504-0.818,1.021-1.629,1.498-2.463
			c0.584-1.018,1.197-1.768,2.547-1.039c0.418,0.227,1.064,0.164,1.57,0.059c0.951-0.197,1.871-0.484,1.947-1.75
			c0.029-0.502,0.521-0.674,0.967-0.547c0.611,0.174,1.232,0.377,1.779,0.691C100.104,17.826,100.48,18.859,99.652,20.596z
			 M50.793,49.846c-0.003-0.098,0.08-0.195,0.123-0.295c0.66-1.527,0.162-2.887-0.489-4.295c-2.329-5.043-4.639-10.098-6.864-15.188
			c-0.939-2.146-1.665-4.389-2.461-6.6c-0.414-1.146-1.176-1.723-2.412-1.705c-0.848,0.012-1.7,0.004-2.539-0.094
			c-1.155-0.135-2.299-0.361-3.312-0.525c-1.656,0.201-3.135,0.426-4.621,0.549c-1.49,0.125-2.992,0.148-4.488,0.215
			c-0.106,0.006-0.213,0.014-0.318,0.031c-3.168,0.549-5.146,3.719-4.022,6.727c1.682,4.5,3.317,9.027,5.558,13.299
			c0.786,1.502,1.54,3.02,2.31,4.529c-0.983,1.398-1.963,2.799-2.95,4.193c-0.369,0.523-0.736,1.051-1.139,1.549
			c-4.775,5.922-8.827,12.344-12.969,18.705c-0.176,0.268-0.386,0.518-0.525,0.805c-1.461,3,0.189,4.629,2.648,5.227
			c0.613,0.15,1.277,0.105,1.918,0.131c1.283,0.047,2.566,0.117,3.85,0.111c1.008-0.006,1.879,0.221,2.652,0.912
			c0.866,0.773,1.849,0.916,2.98,0.488c2.812-1.059,5.686-1.789,8.75-1.578c1.313,0.088,2.158-0.74,2.659-1.941
			c0.366-0.879,0.69-1.807,1.228-2.576c1.404-2.016,2.9-3.969,4.391-5.926c2.01-2.635,4.109-5.205,6.055-7.887
			C48.737,56.045,50.888,53.439,50.793,49.846z M30.654,69.766c-0.599-0.123-1.186-0.309-1.769-0.498
			c-0.111-0.037-0.186-0.189-0.277-0.291c0.098-0.031,0.194-0.078,0.295-0.09c0.514-0.062,1.029-0.115,1.158-0.129
			c0.491,0,0.654-0.041,0.688,0.008c0.152,0.215,0.309,0.445,0.367,0.695C31.131,69.527,30.79,69.793,30.654,69.766z M44.895,50.592
			c-0.287,0.447-0.447,0.982-0.766,1.402c-1.456,1.91-2.947,3.792-4.426,5.685c0.005,0.062,0.011,0.123,0.016,0.185
			c-0.084,0-0.153,0.018-0.22,0.037c-0.132,0.128-0.265,0.256-0.397,0.385c-0.025,0.067-0.046,0.138-0.059,0.218
			c-0.047,0.016-0.095,0.032-0.142,0.048c-0.726,1.754-2.173,3.002-3.219,4.536c-0.161,0.236-0.518,0.5-0.773,0.49
			c-3.403-0.143-6.449,1.164-9.555,2.262c-0.197,0.07-0.624-0.174-0.773-0.391s-0.205-0.648-0.086-0.869
			c0.191-0.354,0.508-0.717,0.861-0.896c1.331-0.672,2.661-1.373,4.059-1.879c3.141-1.142,6.321-2.177,9.487-3.253
			c0.018-0.043,0.041-0.083,0.058-0.128c0.047-0.046,0.095-0.092,0.143-0.138c0.07-0.194,0.197-0.328,0.397-0.385
			c0.044-0.043,0.088-0.086,0.132-0.129c0.024-0.031,0.048-0.062,0.072-0.093c-0.004-0.045-0.007-0.09-0.012-0.136
			c-0.228-2.369-0.879-2.945-3.164-3c-1.646-0.039-3.135,0.588-4.693,0.916c-0.125,0.027-0.526-0.426-0.485-0.561
			c0.478-1.559,1.179-3.027,2.68-3.826c0.821-0.438,1.213-1.137,1.7-1.826c0.902-1.277,0.93-2.578,0.178-3.906
			c-1.102-1.949-2.202-3.902-3.352-5.826c-1.539-2.572-2.823-5.26-3.756-8.113c-0.191-0.588,0.154-1.119,0.734-1.121
			c0.746-0.004,1.497-0.006,2.238,0.068c1.592,0.158,3.175,0.402,4.768,0.541c0.943,0.08,1.562,0.381,1.889,1.371
			c1.771,5.379,4.072,10.543,6.533,15.635C45.435,48.875,45.472,49.695,44.895,50.592z M84.244,32.387
			c-0.549-0.172-1.48,0.322-1.889,0.934c-1.096,1.637-0.902,3.186,0.566,4.531c0.68,0.623,1.557,0.518,2.229-0.193
			c0.711-0.754,0.881-1.658,0.885-2.811c-0.014-0.137-0.014-0.459-0.08-0.768C85.754,33.152,85.092,32.652,84.244,32.387z"/>
	</g>
</g>
</svg>
