<?xml version="1.0" encoding="utf-8"?>
<!-- Generator: Adobe Illustrator 16.0.0, SVG Export Plug-In . SVG Version: 6.00 Build 0)  -->
<!DOCTYPE svg PUBLIC "-//W3C//DTD SVG 1.1//EN" "http://www.w3.org/Graphics/SVG/1.1/DTD/svg11.dtd">
<svg version="1.1" id="Layer_1" xmlns="http://www.w3.org/2000/svg" xmlns:xlink="http://www.w3.org/1999/xlink" x="0px" y="0px"
	 width="120px" height="120px" viewBox="0 0 120 120" style="enable-background:new 0 0 120 120;" xml:space="preserve">
<g id="meetup">
	<g>
		<path style="fill-rule:evenodd;clip-rule:evenodd;" d="M110.652,101.1c-0.457-2.303-0.852-4.621-1.428-6.893
			c-1.682-6.617-3.434-13.217-5.17-19.822c-2.684-10.215-5.396-20.423-8.061-30.645c-2.152-8.263-4.469-16.477-7.029-24.624
			c-0.523-1.664-1.416-3.087-2.25-4.565c-0.436-0.775-1.148-1.196-2.029-1.438c-1.25-0.34-2.5-0.509-3.793-0.547
			c-3.75-0.107-7.475,0.211-11.195,0.602c-1.803,0.188-3.602,0.418-5.395,0.698c-1.564,0.245-2.781,1.093-3.568,2.472
			c-1.057,1.852-2.113,3.686-2.719,5.775c-1.508,5.23-3.143,10.424-4.719,15.633c-0.125,0.408-0.184,0.835-0.303,1.245
			c-1.701,5.839-3.4,11.679-5.121,17.513c-0.178,0.607-0.479,1.178-0.748,1.755c-0.131,0.28-0.322,0.261-0.467-0.029
			c-0.615-1.244-1.311-2.459-1.826-3.744c-3.428-8.536-7.586-16.733-11.549-25.022c-0.461-0.964-1.154-1.524-2.131-1.77
			c-0.615-0.152-1.256-0.245-1.889-0.274c-1.068-0.049-2.139-0.023-3.209-0.033c-1.818-0.016-3.643-0.122-5.455-0.027
			c-1.904,0.1-3.797,0.429-5.699,0.584c-1.113,0.091-1.744,0.729-2.164,1.645c-0.174,0.378-0.207,0.823-0.279,1.243
			c-0.326,1.891-0.689,3.777-0.957,5.677c-0.625,4.438-1.385,8.862-1.572,13.353c-0.029,0.748-0.031,1.501-0.117,2.243
			c-0.705,6.08-0.545,12.191-0.225,18.263c0.219,4.164,0.416,8.322,0.471,11.65c0,3.621,0.004,6.402-0.002,9.186
			c-0.006,2.484,0.6,4.863,1.24,7.24c0.207,0.768,0.635,1.42,1.299,1.762c2.199,1.125,4.434,2.145,7.02,1.213
			c0.574-0.207,1.336-0.395,1.85-0.189c1.756,0.705,3.604,0.346,5.385,0.662c1.41,0.252,2.469-0.42,3.311-1.52
			c0.605-0.791,0.914-1.629,0.928-2.656c0.041-2.779,0.078-5.565,0.326-8.33c0.172-1.928,0.213-3.826,0.041-5.75
			c-0.141-1.592-0.119-3.201-0.143-4.802c-0.002-0.116,0.195-0.259,0.328-0.345c0.043-0.027,0.207,0.066,0.266,0.143
			c0.252,0.34,0.518,0.676,0.719,1.047c1.633,3.002,3.377,5.955,4.848,9.035c2.275,4.762,5.229,9.064,8.414,13.232
			c1.234,1.617,2.768,2.582,4.914,2.523c4.17-0.115,8.346-0.061,12.514-0.215c1.803-0.064,3.6-0.439,5.391-0.729
			c1.861-0.299,3.09-1.391,3.645-3.188c0.219-0.707,0.389-1.447,0.455-2.184c0.232-2.553,0.471-5.107,0.594-7.666
			c0.18-3.734,0.139-7.475,0.691-11.193c0.393-2.637,0.523-5.311,0.852-7.959c0.158-1.26,0.508-2.498,0.77-3.746
			c0.455,1.137,0.934,2.264,1.361,3.412c0.445,1.199,0.842,2.42,1.258,3.631c1.01,2.93,1.828,5.9,2.414,8.953
			c1.246,6.498,2.783,12.932,4.682,19.273c0.244,0.818,0.49,1.637,0.783,2.438c0.408,1.123,1.168,1.691,2.439,1.643
			c1.49-0.061,3.02-0.158,4.477,0.09c2.768,0.473,5.539,0.4,8.316,0.424c1.838,0.016,3.586-0.416,5.316-1.014
			c2.146-0.738,2.955-2.609,3.871-4.395C110.756,101.791,110.713,101.404,110.652,101.1z M25.148,95.094
			c-0.047,0.127-0.314,0.174-0.48,0.256c-0.111-0.139-0.34-0.309-0.312-0.406c0.082-0.289,0.244-0.562,0.418-0.811
			c0.076-0.105,0.262-0.135,0.396-0.199c0.035,0.094,0.104,0.191,0.098,0.283C25.25,94.514,25.252,94.824,25.148,95.094z
			 M103.639,98.506c-3.209,0.047-6.418,0.092-9.629,0.115c-0.582,0.004-0.994-0.346-1.252-0.855
			c-0.289-0.57-0.553-1.156-0.836-1.729c-0.457-0.918-0.461-1.809-0.059-2.775c0.494-1.182,0.85-2.418,1.268-3.629
			c0.238-0.689-0.029-1.244-0.459-1.76c-0.48-0.578-1.152-0.66-1.652-0.139c-0.367,0.383-0.648,0.844-0.994,1.246
			c-0.434,0.508-0.848,0.426-1.158-0.23c-0.229-0.482-0.424-0.986-0.699-1.441c-0.557-0.918-0.438-1.744-0.018-2.721
			c1.221-2.846,2.318-5.746,3.451-8.629c0.195-0.492,0.4-0.996,0.473-1.512c0.109-0.77-0.582-1.809-1.26-2.053
			c-0.596-0.215-1.438,0.105-1.867,0.914c-0.906,1.693-1.713,3.439-2.568,5.16c-0.082,0.166-0.225,0.303-0.34,0.453
			c-0.131-0.162-0.301-0.306-0.391-0.488c-0.754-1.51-0.855-3.067-0.318-4.666c0.645-1.926,1.252-3.863,1.953-5.768
			c0.344-0.934,0.482-1.851,0.332-2.824c-0.16-1.043-1.355-1.58-2.201-0.918c-0.572,0.449-1.102,1.01-1.496,1.619
			c-0.4,0.617-0.605,1.357-0.908,2.039c-0.037,0.082-0.166,0.203-0.205,0.186c-0.193-0.076-0.482-0.154-0.531-0.301
			c-0.582-1.713-1.217-3.414-1.658-5.164c-0.992-3.929-2.084-7.837-2.699-11.855c-0.094-0.621-0.324-1.254-0.629-1.803
			c-0.611-1.094-1.521-1.812-2.867-1.656c-1.299,0.15-2.193,0.902-2.541,2.133c-0.377,1.33-0.689,2.695-0.857,4.066
			c-0.311,2.543-0.461,5.104-0.738,7.652c-0.301,2.758-0.684,5.506-1.006,8.262c-0.311,2.65-0.566,5.309-0.891,7.957
			c-0.75,6.16-0.791,12.365-1.268,18.543c-0.033,0.426,0.008,0.898-0.17,1.26c-0.166,0.332-0.555,0.719-0.889,0.766
			c-0.727,0.104-1.492,0.072-2.225-0.025c-0.951-0.125-1.885-0.373-2.828-0.559c-0.59-0.115-0.936-0.438-0.988-1.057
			c-0.025-0.316-0.037-0.648-0.133-0.947c-0.188-0.584-1.133-0.861-1.604-0.447c-0.559,0.49-1.051,1.055-1.584,1.574
			c-0.479,0.469-1.045,0.717-1.736,0.645c-0.381-0.039-0.891-0.514-0.801-0.834c0.141-0.512,0.293-1.023,0.5-1.512
			c0.416-0.984,0.9-1.941,1.303-2.932c0.332-0.816,0.357-1.662,0.004-2.496c-0.24-0.57-0.896-1.02-1.514-0.996
			c-0.58,0.024-1.023,0.297-1.285,0.811c-0.969,1.906-1.912,3.824-2.895,5.721c-0.479,0.924-0.912,1.014-1.762,0.463
			c-0.18-0.117-0.359-0.234-0.529-0.363c-0.654-0.506-0.773-0.838-0.48-1.643c0.873-2.412,1.768-4.812,2.654-7.219
			c0.258-0.701,0.549-1.393,0.766-2.107c0.238-0.777,0.037-1.459-0.559-2.045c-0.74-0.727-1.695-0.75-2.174,0.098
			c-1.207,2.137-2.336,4.318-3.518,6.471c-0.07,0.129-0.346,0.248-0.488,0.213c-0.182-0.045-0.385-0.221-0.473-0.393
			c-0.141-0.275-0.273-0.598-0.258-0.893c0.016-0.301,0.227-0.589,0.328-0.891c0.824-2.428,1.631-4.859,2.463-7.285
			c0.389-1.131,0.592-2.271,0.371-3.465c-0.16-0.861-1.25-1.383-2.006-0.887c-0.436,0.283-0.891,0.654-1.127,1.096
			c-0.707,1.314-1.314,2.686-1.955,4.035c-0.227,0.48-0.424,0.973-0.656,1.449c-0.139,0.287-0.615,0.309-0.771,0.031
			c-0.574-1.025-1.215-2.025-1.66-3.104c-0.227-0.545-0.248-1.291-0.076-1.859c0.371-1.221,0.951-2.377,1.402-3.576
			c0.221-0.59,0.432-1.211,0.492-1.834c0.076-0.793-0.256-1.457-1.01-1.85c-0.676-0.352-1.436-0.238-2.041,0.387
			c-0.443,0.461-0.816,0.99-1.246,1.467c-0.459,0.51-0.5,1.633-1.408,1.422c-0.475-0.109-0.748-0.969-1.176-1.434
			c-0.648-0.701-1.299-1.42-2.045-2.008c-1.152-0.906-2.414-0.793-3.58-0.006c-0.418,0.281-0.896,0.734-0.992,1.186
			c-0.676,3.121-1.586,6.264-1.045,9.475c0.488,2.895,0.242,5.752,0.09,8.627c-0.053,0.953-0.268,1.901-0.436,2.846
			c-0.047,0.264-0.133,0.756-0.506,0.535c-1.396-0.822-2.436-0.254-3.441,0.707c-0.11,0.106-0.294,0.137-0.466,0.18
			c-0.01,0.038-0.019,0.077-0.028,0.115c-0.068,0.024-0.137,0.049-0.202,0.079c-0.046,0.065-0.091,0.132-0.138,0.196
			c0.025-0.059,0.037-0.141,0.08-0.174c0.017-0.011,0.04-0.014,0.058-0.022c0.039-0.056,0.078-0.109,0.116-0.165
			c0.036-0.012,0.076-0.02,0.114-0.029c0.141-0.575,0.286-1.149,0.423-1.727c0.191-0.811-0.076-1.461-0.693-2.002
			c-0.463-0.406-0.98-0.488-1.453-0.188c-0.18,0.116-0.35,0.246-0.531,0.357c-0.473,0.285-0.711,1.348-1.406,0.736
			c-0.35-0.307-0.322-1.213-0.223-1.807c0.1-0.6,0.438-1.189,0.779-1.715c1.158-1.797,2.385-3.551,3.545-5.348
			c0.639-0.986,1.227-2.008,1.779-3.045c0.191-0.361,0.311-0.824,0.277-1.225c-0.031-0.387-0.207-0.895-0.494-1.089
			c-0.283-0.192-0.807-0.13-1.189-0.038c-0.283,0.07-0.529,0.346-0.756,0.566c-0.688,0.674-1.355,1.369-2.035,2.051
			c-0.846,0.848-1.125,0.947-1.174,0.533c-0.059-0.51-0.146-1.111,0.059-1.539c0.414-0.861,1.029-1.621,1.539-2.436
			c1.473-2.357,2.945-4.715,4.395-7.084c0.332-0.545,0.617-1.129,0.852-1.723c0.305-0.77,0.027-1.77-0.514-1.998
			c-0.652-0.275-1.281-0.154-1.797,0.293c-0.482,0.416-0.908,0.902-1.336,1.381c-0.57,0.637-1.096,1.316-1.686,1.936
			c-0.176,0.186-0.5,0.232-0.758,0.344c-0.051-0.309-0.172-0.625-0.141-0.926c0.154-1.488,0.381-2.967,0.518-4.453
			c0.113-1.221,0.652-2.263,1.295-3.245c1.055-1.608,2.182-3.17,3.303-4.733c0.387-0.537,0.664-1.075,0.645-1.76
			c-0.023-0.775-0.957-1.434-1.588-1.032c-0.627,0.396-1.168,0.927-1.783,1.344c-0.232,0.157-0.686,0.312-0.828,0.2
			c-0.201-0.156-0.256-0.559-0.283-0.864c-0.143-1.577,0.443-2.939,1.33-4.189c1.361-1.919,2.752-3.815,4.111-5.735
			c0.305-0.43,0.611-0.887,0.779-1.379c0.211-0.629,0.123-1.274-0.402-1.769c-0.516-0.488-1.164-0.621-1.777-0.332
			c-0.664,0.314-1.262,0.774-1.873,1.194c-0.348,0.237-0.658,0.527-0.998,0.777c-0.061,0.045-0.205,0.047-0.264,0.005
			c-0.078-0.055-0.17-0.188-0.152-0.264c0.398-1.765,0.256-3.631,1.045-5.327c0.361-0.773,0.934-1.187,1.723-1.234
			c0.74-0.045,1.496,0.016,2.236,0.107c0.895,0.112,1.605,0.603,2.096,1.346c0.412,0.623,0.766,1.286,1.104,1.953
			c2.99,5.914,6.006,11.814,8.941,17.756c1.799,3.641,3.756,7.203,5.234,11.001c0.703,1.809,2.043,3.26,3.383,4.641
			c1.082,1.113,3.047,1.014,3.988-0.262c1.436-1.939,2.918-3.787,3.555-6.295c0.969-3.818,2.359-7.538,3.699-11.251
			c2.795-7.745,4.84-15.707,6.979-23.644c0.609-2.265,1.172-4.542,1.74-6.818c0.207-0.83,0.699-1.183,1.559-1.321
			c4.037-0.648,8.105-0.477,12.164-0.493c0.523-0.002,1.055,0.152,1.564,0.298c1.123,0.319,2.234,0.678,3.35,1.021
			c0.334,1.115,0.701,2.22,0.992,3.346c1.82,7.024,3.635,14.052,5.43,21.084c2.244,8.789,4.449,17.587,6.707,26.372
			c1.779,6.926,3.619,13.836,5.424,20.756c0.324,1.238,0.617,2.482,0.906,3.73C104.365,97.99,104.018,98.5,103.639,98.506z"/>
	</g>
</g>
</svg>
