<?xml version="1.0" encoding="utf-8"?>
<!-- Generator: Adobe Illustrator 16.0.0, SVG Export Plug-In . SVG Version: 6.00 Build 0)  -->
<!DOCTYPE svg PUBLIC "-//W3C//DTD SVG 1.1//EN" "http://www.w3.org/Graphics/SVG/1.1/DTD/svg11.dtd">
<svg version="1.1" id="Layer_1" xmlns="http://www.w3.org/2000/svg" xmlns:xlink="http://www.w3.org/1999/xlink" x="0px" y="0px"
	 width="120px" height="120px" viewBox="0 0 120 120" style="enable-background:new 0 0 120 120;" xml:space="preserve">
<g id="myspace">
	<g>
		<path style="fill-rule:evenodd;clip-rule:evenodd;" d="M110.574,97.291c-0.168-0.271-0.296-0.584-0.516-0.805
			c-0.53-0.528-0.401-1.084-0.324-1.757c0.514-4.485,0.581-8.976-0.554-13.384c-0.379-1.471-0.485-2.94-0.638-4.428
			c-0.249-2.438-0.54-4.877-0.935-7.296c-0.557-3.403-1.855-6.587-3.328-9.669c-1.825-3.82-4.431-7.047-8.012-9.418
			c-1.084-0.719-2.226-1.2-3.502-1.504c-2.021-0.48-3.988-0.485-6.028-0.099c-3.813,0.724-7.503,1.737-10.708,4.021
			c-1.377,0.982-2.658,2.096-3.982,3.149c-1.336-1.333-1.282-3.268-2.103-4.843c-2.421-4.649-6.181-7.332-11.364-7.752
			c-3.986-0.322-7.879,0.385-11.554,2.052c-0.778,0.353-1.554,0.724-2.288,1.159c-0.527,0.314-0.984,0.389-1.412-0.08
			c-2.338-2.562-5.262-4.348-8.162-6.164c-3.006-1.883-6.242-2.151-9.559-1.154c-7.59,2.279-12.553,7.464-15.688,14.554
			c-0.604,1.364-0.834,2.851-0.844,4.378c-0.021,3.537,0.096,7.062,0.671,10.557c0.349,2.119,0.935,4.172,2.005,6.057
			c0.324,0.572,0.75,1.088,1.43,1.191c1.791,0.274,3.587,0.686,5.385,0.701c4.699,0.043,9.414,0.228,14.089-0.52
			c1.094-0.174,1.489,0.186,1.53,1.436c0.082,2.475,0.656,4.863,1.152,7.27c0.156,0.758,0.352,1.58,1,1.943
			c1.299,0.728,1.896,2.002,2.688,3.107c0.965,1.346,2.271,1.892,3.823,2.023c0.53,0.045,1.073,0.025,1.603-0.038
			c1.271-0.149,2.553-0.273,3.805-0.53c1.975-0.406,4.05-0.564,5.709-1.916c0.729-0.592,1.584-0.548,2.439-0.576
			c2.341-0.08,4.707,0.219,7.004-0.535c0.412-0.135,0.863,0.076,0.968,0.582c0.386,1.883,0.782,3.766,1.097,5.662
			c0.121,0.729,0.259,1.588-0.006,2.225c-0.726,1.749-0.006,3.365,0.211,5.023c0.209,1.592,1.17,2.709,2.526,3.518
			c1.669,0.994,3.471,0.999,5.292,0.679c1.893-0.332,3.775-0.724,5.652-1.135c0.727-0.159,1.486-0.333,2.125-0.692
			c1.557-0.873,3.23-1.07,4.955-1.08c2.141-0.013,4.28-0.004,6.42-0.004c0.001-0.009,0.001-0.02,0.001-0.028
			c2.14,0,4.278-0.009,6.419,0.003c1.283,0.006,2.533,0.035,3.759-0.565c0.624-0.307,1.462-0.323,2.183-0.257
			c1.327,0.121,2.555-0.236,3.781-0.584C110.202,101.367,111.659,99.039,110.574,97.291z M38.688,53.256
			c-1.523,2.702-2.656,5.563-3.517,8.543c-0.624,2.162-1.051,4.34-1.048,6.6c0,0.812-0.385,1.143-1.182,1.164
			c-2.025,0.051-4.051,0.094-6.076,0.129c-1.812,0.033-3.62,0.059-5.396,0.521c-0.363,0.095-0.955,0.053-1.176-0.18
			c-0.477-0.504,0.115-0.926,0.354-1.352c0.522-0.926,1.093-1.828,1.573-2.775c0.182-0.359,0.359-0.908,0.213-1.213
			c-0.561-1.166-0.378-2.185,0.178-3.299c0.332-0.668,0.178-1.475-0.273-2.131c-0.408-0.596-1.083-0.59-1.706-0.709
			c-0.549-0.104-0.296-0.51-0.134-0.691c0.495-0.554,1.076-1.027,1.58-1.574c0.43-0.466,0.844-0.961,1.188-1.491
			c0.693-1.067,0.871-2.075-0.511-3.011c-0.437-0.295-0.536-0.547-0.312-1.012c0.762-1.58,1.971-2.78,3.324-3.83
			c0.947-0.736,2.07-1.082,3.229-1.027c0.957-0.077,1.753,0.199,2.446,0.744c1.675,1.314,3.339,2.646,5.001,3.977
			c0.664,0.532,1.283,1.128,1.98,1.609C38.864,52.553,38.949,52.794,38.688,53.256z M66.476,65.994
			c-0.912,2.164-1.7,4.379-2.586,6.553c-0.747,1.831-0.842,3.738-0.821,5.671c0.007,0.534-0.013,1.069-0.043,1.603
			c-0.024,0.449-0.435,0.812-0.847,0.727c-0.834-0.174-1.668-0.354-2.488-0.58c-2.521-0.7-5.061-0.721-7.625-0.291
			c-1.265,0.211-2.536,0.377-3.808,0.538c-0.175,0.022-0.442-0.059-0.536-0.187c-0.104-0.139-0.135-0.431-0.058-0.584
			c0.239-0.475,0.562-0.904,0.821-1.369c0.311-0.559,0.625-1.121,0.869-1.711c0.379-0.911-0.263-1.622-1.326-1.509
			c-0.104,0.011-0.199,0.083-0.303,0.101c-0.178,0.03-0.449,0.117-0.518,0.039c-0.107-0.123-0.17-0.422-0.092-0.547
			c0.793-1.267,1.596-2.527,2.437-3.76c0.843-1.236,1.755-2.424,2.589-3.664c0.293-0.433,0.503-0.943,0.637-1.449
			c0.141-0.531,0.031-1.068-0.437-1.445c-0.348-0.281-1.067-0.224-1.479,0.152c-1.107,1.006-2.19,2.041-3.303,3.041
			c-0.082,0.074-0.336-0.008-0.492-0.066c-0.064-0.025-0.105-0.18-0.109-0.277c-0.01-0.211-0.047-0.451,0.035-0.629
			c0.176-0.385,0.393-0.758,0.639-1.103c1.494-2.085,3.018-4.149,4.492-6.247c0.483-0.689,0.92-1.433,1.244-2.209
			c0.314-0.756-0.702-1.793-1.492-1.592c-1.063,0.273-1.945,0.854-2.727,1.616c-0.174,0.168-0.456,0.581-0.714,0.167
			c-0.136-0.217-0.089-0.628,0.015-0.898c0.307-0.797,0.852-1.538,0.994-2.355c0.291-1.658,1.335-2.333,2.826-2.57
			c1.267-0.203,2.538-0.375,3.811-0.542c0.422-0.056,0.854-0.056,1.318-0.085c2.498,0.143,4.537,1.117,5.586,3.55
			c0.547,1.268,0.945,2.606,1.326,3.937c0.321,1.128,0.441,2.316,0.801,3.43c0.257,0.794,0.637,1.622,1.188,2.23
			C67.031,64.486,66.835,65.14,66.476,65.994z M99.56,92.939c-0.037,0.315-0.065,0.662-0.217,0.926
			c-0.146,0.252-0.469,0.612-0.674,0.588c-5.008-0.592-10.035-0.221-15.051-0.34c-0.213-0.005-0.432-0.007-0.639-0.055
			c-0.456-0.107-0.713-0.377-0.668-0.885c0.049-0.531,0.129-1.068,0.092-1.595c-0.098-1.396-1.043-2.419-2.399-2.576
			c-0.694-0.081-1.4-0.062-2.102-0.078c-0.021,0.026-0.043,0.048-0.062,0.075c-0.033,0-0.064,0.005-0.097,0.006
			c-0.171,0.618-0.691,0.496-1.14,0.525c-0.024,0.04-0.057,0.064-0.077,0.111c-0.062,0.01-0.122,0.021-0.184,0.03
			c-0.13,0.164-0.255,0.334-0.422,0.445c-0.078,0.053-0.304-0.114-0.463-0.181c0.076-0.055,0.145-0.139,0.229-0.157
			c0.217-0.046,0.437-0.075,0.656-0.107c0.033-0.042,0.065-0.084,0.1-0.124c0.052-0.01,0.106-0.015,0.161-0.018
			c0.256-0.428,0.68-0.513,1.14-0.525c0.008-0.029,0.02-0.051,0.026-0.083c0.044,0.001,0.089,0.001,0.133,0.002
			c0.816-1.076,2.146-1.558,3.008-2.601c0.578-0.699,0.922-1.414,0.853-2.326c-0.09-1.188-0.844-2.032-1.992-2.133
			c-1.297-0.112-2.551,0.041-3.748,0.606c-0.399,0.188-0.869-0.169-0.871-0.604c-0.002-0.641,0.018-1.281,0.055-1.92
			c0.032-0.58,0.378-0.929,0.852-1.256c1.756-1.211,3.492-2.449,5.206-3.719c0.716-0.531,1.091-1.291,1.112-2.213
			c0.02-0.893-0.189-1.668-0.835-2.337c-0.653-0.677-1.468-0.812-2.329-0.901c-0.126-0.014-0.255-0.201-0.333-0.337
			c-0.029-0.05,0.069-0.194,0.136-0.274c0.136-0.162,0.275-0.324,0.439-0.457c0.249-0.201,0.504-0.403,0.783-0.559
			c1.165-0.649,1.66-1.658,1.477-2.944c-0.129-0.915,0.059-1.604,0.701-2.32c1.352-1.507,1.227-2.46,0.07-3.972
			c-0.13-0.169-0.318-0.291-0.449-0.459c-0.302-0.39-0.215-0.807,0.264-0.96c1.723-0.552,3.442-1.123,5.195-1.562
			c0.814-0.203,1.704-0.086,2.555-0.172c1.68-0.168,2.871,0.562,3.773,1.92c2.328,3.495,4.113,7.232,5.139,11.32
			c0.965,3.854,1.4,7.752,1.379,11.734C100.319,84.654,100.034,88.8,99.56,92.939z M80.206,39.981
			c2.71,2.563,5.896,4.063,9.762,4.269c4.05,0.215,7.338-0.998,9.863-4.141c2.221-2.764,3.395-5.911,3.123-9.401
			c0.04-2.709-0.508-5.207-1.35-7.644c-1.133-3.271-3.107-5.887-6.332-7.293c-4.866-2.123-9.534-2.135-13.71,1.695
			c-0.704,0.645-1.498,1.201-2.297,1.73c-1.106,0.732-1.823,1.75-2.485,2.877c-0.846,1.44-0.98,3.041-1.259,4.609
			C74.585,31.985,76.397,36.381,80.206,39.981z M87.747,30.141c0.43-1.859,1.045-3.682,1.673-5.488
			c0.325-0.936,0.587-1.806,0.202-2.787c-0.075-0.189,0.158-0.715,0.316-0.746c3.088-0.604,5.473,1.26,5.871,3.559
			c0.128,0.73,0.141,1.482,0.24,2.618c-0.273,1.415-0.5,3.222-1.002,4.947c-0.287,0.983-0.936,1.908-1.586,2.728
			c-0.682,0.857-1.678,1.279-2.82,1.279c-1.668,0-2.956-0.988-3.086-2.618C87.464,32.477,87.487,31.262,87.747,30.141z
			 M47.37,34.105c1.309,3.651,7.283,6.032,10.74,5.123c2.807-0.739,5.18-1.957,7.053-4.1c2.5-2.863,4.463-5.996,4.328-10.01
			c0-0.533,0.04-1.07-0.006-1.6c-0.252-2.917-1.451-5.268-3.937-6.968c-2.64-1.807-5.536-2.643-8.692-2.831
			c-3.119-0.188-5.615,1.014-7.66,3.262c-2.71,2.979-3.812,6.601-4.031,10.53c-0.04,0.722,0.104,1.503,0.357,2.184
			C46.077,31.189,46.833,32.607,47.37,34.105z M58.21,20.482c0.287-0.248,0.775-0.384,1.164-0.367
			c1.217,0.051,2.291,0.563,3.092,1.459c0.396,0.443,0.549,1.104,0.684,1.392c0.086,2.344-0.84,4.024-1.838,5.667
			c-0.329,0.541-0.781,1.009-1.19,1.498c-0.949,1.135-1.322,1.236-2.753,0.745c-0.4-0.139-0.809-0.279-1.18-0.479
			c-0.796-0.43-1.371-1.105-1.387-2.011C54.745,25.252,55.808,22.559,58.21,20.482z M14.243,26.664
			c0.527,2.776,1.867,4.809,4.634,6.029c3.3,1.458,6.616,1.666,9.995,0.85c3.578-0.864,6.04-2.705,5.788-7.248
			c-0.252-4.562-2.467-8.111-6.503-10.396c-1.516-0.859-3.215-1.301-4.92-1.205c-5.67,0.314-9.54,5.582-9.201,9.018
			C14.132,25.174,14.104,25.935,14.243,26.664z M21.913,23.461c0.277-2.051,1.693-2.6,3.393-1.449
			c0.754,0.512,1.358,1.307,1.896,2.068c0.871,1.236,0.483,2.006-0.963,2.073c-0.524,0.024-1.051,0.005-1.576,0.005v0.016
			c-0.211,0-0.421-0.002-0.631,0C21.892,26.188,21.595,25.824,21.913,23.461z"/>
	</g>
</g>
</svg>
