<?xml version="1.0" encoding="utf-8"?>
<!-- Generator: Adobe Illustrator 16.0.0, SVG Export Plug-In . SVG Version: 6.00 Build 0)  -->
<!DOCTYPE svg PUBLIC "-//W3C//DTD SVG 1.1//EN" "http://www.w3.org/Graphics/SVG/1.1/DTD/svg11.dtd">
<svg version="1.1" id="Layer_1" xmlns="http://www.w3.org/2000/svg" xmlns:xlink="http://www.w3.org/1999/xlink" x="0px" y="0px"
	 width="120px" height="120px" viewBox="0 0 120 120" style="enable-background:new 0 0 120 120;" xml:space="preserve">
<g id="friendster">
	<g>
		<path style="fill-rule:evenodd;clip-rule:evenodd;" d="M102.629,15.46c-0.744-0.07-1.498-0.039-2.246-0.064
			c-1.283-0.042-2.596,0.067-3.844-0.169c-4.039-0.763-8.102-0.569-12.158-0.429c-3.033,0.104-5.896,0.903-8.504,2.523
			c-2.516,1.563-4.605,3.549-5.621,6.378c-1.697,4.735-3.156,9.538-2.914,14.67c0.031,0.64-0.004,1.284-0.035,1.925
			c-0.025,0.473-0.299,0.778-0.756,0.896c-2.104,0.548-4.258,0.551-6.377,0.296c-2.146-0.258-4.246-0.264-6.383,0.025
			c-1.156,0.157-2.348,0.065-3.523,0.054c-0.48-0.004-0.832-0.31-0.857-0.778c-0.061-1.173-0.072-2.35-0.07-3.524
			c0.002-2.298,0.5-2.565,2.77-3.201c0.404-0.113,0.85-0.105,1.275-0.101c2.016,0.021,4.025-0.155,5.875,1.077
			c0.943,0.628,2.521-0.149,2.896-1.259c0.307-0.901,0.48-1.858,0.611-2.805c0.225-1.585,0.438-3.177,0.529-4.773
			c0.121-2.134,0.174-4.275,0.158-6.413c-0.01-1.142-0.674-1.759-1.771-1.926c-3.07-0.468-6.158-0.86-9.256-0.521
			c-2.541,0.279-5.051,0.834-7.584,1.191c-5.129,0.725-9.578,2.879-13.441,6.289c-2.869,2.532-4.385,5.754-4.541,9.549
			c-0.094,2.24,0.072,4.491,0.109,6.737c0.018,1.011-0.256,1.26-1.35,1.269c-0.535,0.006-1.072-0.004-1.605-0.025
			c-2.576-0.105-5.115,0.081-7.625,0.727c-1.443,0.372-2.168,1.227-2.109,2.726c0.131,3.31,0.262,6.619,0.4,9.929
			c0.041,0.961,0.023,1.938,0.193,2.878c0.195,1.091,0.729,1.955,1.941,2.307c1.227,0.356,2.402,0.814,3.717,0.854
			c1.598,0.05,3.191,0.271,4.785,0.419c1.371,0.127,1.574,0.409,1.463,1.862c-0.174,2.235-0.416,4.471-0.463,6.71
			c-0.186,9.094-0.16,18.185,0.559,27.261c0.074,0.959,0.045,1.926,0.123,2.886c0.164,2.023,2.027,3.853,4.008,3.843
			c2.246-0.013,4.496-0.252,6.738-0.179c2.26,0.076,4.408-0.729,6.676-0.609c0.893,0.047,1.842-0.473,2.725-0.83
			c0.854-0.345,1.393-1.054,1.4-1.98c0.008-1.602-0.096-3.204-0.139-4.806c-0.027-1.06-0.055-2.12-0.043-3.181
			c0.035-3.42,0.156-6.841,0.113-10.26c-0.029-2.347-0.35-4.688-0.402-7.035c-0.078-3.423-0.045-6.85-0.033-10.274
			c0.006-1.071,0.291-1.354,1.322-1.349c3.531,0.015,7.064,0.03,10.596,0.099c1.062,0.021,2.125,0.194,3.186,0.324
			c0.588,0.071,0.914,0.457,0.949,1.071c0.025,0.428,0.029,0.856,0.029,1.284c0.002,4.815,0.002,9.631,0.002,13.733
			c0.158,7.875-0.131,15.046,0.596,22.192c0.146,1.446,0.268,1.632,1.711,1.688c2.133,0.084,4.252,0.13,6.385,0.444
			c2.098,0.309,4.281,0.237,6.406,0.079c1.24-0.093,2.361-0.564,3.68,0.021c1.068,0.474,2.041-0.261,2.58-1.333
			c0.457-0.911,0.4-1.868,0.4-2.827c0-9.311,0.02-18.622-0.027-27.934c-0.012-2.238-0.256-4.476-0.383-6.715
			c-0.049-0.854-0.055-1.712-0.104-2.566c-0.129-2.223,0.242-2.265,2.412-2.05c1.592,0.157,3.188,0.306,4.783,0.381
			c2.021,0.097,4.035-0.108,6.047,0.478c1.391,0.406,2.762-0.849,2.812-2.324c0.059-1.71-0.094-3.438,0.102-5.131
			c0.393-3.39,0.959-6.759,1.455-10.137c0.061-0.421,0.17-0.843,0.166-1.263c-0.004-0.853-0.691-2.014-1.613-2.148
			c-1.053-0.153-2.096-0.394-3.154-0.506c-1.062-0.112-2.17,0.037-3.197-0.192c-2.43-0.541-4.891-0.563-7.342-0.596
			c-2.826-0.037-2.713-0.036-2.471-3c0.086-1.053,0.412-2.093,0.684-3.124c0.293-1.118,1.021-1.773,2.146-2.154
			c3.039-1.026,6.16-0.819,9.215-0.438c1.705,0.213,3.393,0.287,5.092,0.338c1.17,0.036,1.826-0.538,1.896-1.639
			c0.061-0.948-0.029-1.905,0.029-2.853c0.17-2.671,0.709-5.286,1.242-7.904C106.088,17.511,104.664,15.652,102.629,15.46z
			 M21.76,50.845c-0.039,0.071-0.182,0.112-0.277,0.116c-0.057,0.002-0.162-0.091-0.17-0.15c-0.066-0.511-0.117-1.022-0.176-1.546
			c0.059-0.508,0.084-1.023,0.18-1.528c0.102-0.548,0.936-0.884,1.529-0.577c0.232,0.12,0.555,0.551,0.494,0.68
			C22.863,48.863,22.307,49.853,21.76,50.845z M25.957,55.337c-0.213,0.352-0.467,0.768-0.809,0.926
			c-0.322,0.152-0.818,0.094-1.174-0.042c-0.189-0.074-0.408-0.567-0.334-0.764c0.9-2.363,1.832-4.717,2.82-7.045
			c0.141-0.33,0.592-0.638,0.961-0.743c1.076-0.304,2.179-0.51,3.271-0.751c0-0.032-0.003-0.065-0.001-0.096
			c0.027-0.026,0.078-0.035,0.133-0.04c0.05-0.113,0.1-0.227,0.15-0.34c0.268,0.35,0.029,0.323-0.15,0.34
			c-0.018,0.04-0.035,0.08-0.053,0.119c-0.026,0.006-0.053,0.011-0.079,0.017c0.002,0.186,0.028,0.385-0.052,0.521
			C29.094,50.081,27.533,52.713,25.957,55.337z M80.221,100.158c-0.182-0.228-0.385-0.434-0.361-0.461
			c0.178-0.224,0.396-0.415,0.604-0.615c0.08,0.154,0.26,0.347,0.219,0.457C80.598,99.761,80.395,99.938,80.221,100.158z
			 M101.164,22.234c-0.35,1.452-0.709,2.902-1.082,4.349c-0.209,0.815-0.473,0.978-1.375,0.979c-2.352,0.003-4.705-0.01-7.057,0.032
			c-1.947,0.034-3.783,0.61-5.596,1.264c-1.619,0.582-2.719,1.683-3.232,3.316c-0.641,2.035-1.352,4.072-1.27,6.244
			c0.029,0.836,0.229,1.681,0.455,2.491c0.375,1.34,1.338,2.169,2.627,2.588c0.91,0.297,1.842,0.595,2.785,0.703
			c2.758,0.315,5.525,0.536,8.291,0.791c0.318,0.029,0.643,0.023,0.961,0.057c1.137,0.12,1.537,0.622,1.365,1.68
			c-0.188,1.157-0.406,2.312-0.539,3.475c-0.238,2.12-0.422,4.247-0.635,6.37c-0.057,0.561-0.533,0.932-1.113,0.898
			c-1.6-0.09-3.199-0.199-4.799-0.263c-1.297-0.053-1.297-0.028-1.238-1.551c0.039-1.011-0.416-1.531-1.529-1.518
			c-0.477,0.006-0.854,0.106-0.682-0.521c0.16-0.577,0.047-1.039-0.312-1.484c-0.387-0.479-0.963-0.697-1.4-0.391
			c-0.6,0.421-1.283,0.84-1.666,1.431c-0.982,1.523-1.832,3.134-2.705,4.726c-0.314,0.573-0.273,1.185-0.223,1.852
			c0.131,1.695,0.123,3.406,0.082,5.109c-0.031,1.276-0.279,2.55-0.293,3.825c-0.068,7.382-0.096,14.764-0.139,22.146
			c-0.006,0.855,0.039,1.718-0.057,2.564c-0.041,0.362-0.311,0.772-0.598,1.022c-1.5,1.304-2.631,2.784-2.695,4.877
			c-0.014,0.514-0.383,0.734-0.834,0.789c-0.535,0.065-1.088,0.074-1.486-0.366c-0.125-0.137-0.213-0.412-0.166-0.58
			c0.115-0.404,0.283-0.806,0.498-1.167c0.49-0.827,1.045-1.616,1.529-2.446c0.896-1.538,0.781-2.025-0.744-3.12
			c-0.385-0.277-0.662-0.521-0.436-1.02c0.305-0.682,0.688-1.34,0.908-2.048c0.225-0.722,0.264-1.497-0.355-2.1
			c-0.711-0.692-1.564-0.644-2.383-0.28c-0.777,0.345-1.496,0.819-2.26,1.199c-0.121,0.061-0.412-0.024-0.504-0.139
			c-0.117-0.145-0.197-0.423-0.137-0.586c0.145-0.385,0.314-0.803,0.594-1.089c0.672-0.687,1.457-1.264,2.113-1.964
			c0.428-0.456,0.76-1.025,1.035-1.592c0.303-0.621-0.234-1.677-0.918-1.792c-0.73-0.124-1.482-0.1-2.225-0.158
			c-0.449-0.037-0.861-0.842-0.609-1.248c0.275-0.444,0.582-0.888,0.953-1.247c1.387-1.338,2.805-2.643,4.215-3.954
			c0.713-0.665,1.297-1.406,1.643-2.338c0.361-0.98-0.301-1.973-1.355-2.034c-0.912-0.053-1.688,0.293-2.4,0.77
			c-0.885,0.592-1.709,1.278-2.576,1.901c-0.162,0.116-0.4,0.128-0.604,0.188c-0.047-0.292-0.199-0.616-0.121-0.868
			c0.285-0.915,0.607-1.824,0.992-2.702c0.557-1.272,1.188-2.512,1.773-3.772c0.361-0.773,0.709-1.555,1.037-2.345
			c0.16-0.392,0.309-0.8,0.373-1.214c0.086-0.547,0.002-1.167-0.523-1.4c-0.445-0.198-1.09-0.282-1.516-0.104
			c-0.561,0.232-1.006,0.758-1.477,1.184c-0.604,0.546-0.713,0.213-1.023-0.361c-0.746-1.382-1.908-2.211-3.59-2.207
			c-1.371,0.004-2.721,0.046-4.092-0.475c-1.064-0.404-2.062-0.466-1.609-1.992c0.066-0.223-0.234-0.574-0.402-0.843
			c-0.223-0.354-0.836-0.469-1.129-0.203c-0.633,0.572-1.203,1.218-1.875,1.734c-0.301,0.232-0.787,0.312-1.182,0.298
			c-0.203-0.008-0.596-0.426-0.559-0.562c0.143-0.502,0.484-0.946,0.641-1.445c0.156-0.495,0.221-1.029,0.246-1.55
			c0.023-0.497-0.795-0.907-1.211-0.621c-0.346,0.238-0.699,0.492-0.973,0.808c-0.49,0.563-0.975,1.145-1.367,1.778
			c-0.729,1.176-1.789,1.407-3.047,1.236c-0.516-0.069-0.811-0.417-0.602-0.832c0.48-0.952,0.988-1.89,1.492-2.83
			c0.199-0.374,0.457-0.724,0.617-1.112c0.289-0.697,0.092-1.701-0.359-2.095c-0.564-0.491-1.789-0.645-2.396-0.129
			c-0.637,0.538-1.227,1.192-1.648,1.907c-0.705,1.193-1.291,2.462-1.869,3.725c-0.635,1.39-1.404,2.638-2.824,3.359
			c-0.873,0.444-1.125,1.225-1.127,2.14c0,1.498-0.018,2.996-0.018,4.494c-0.004,4.387-0.002,8.773-0.002,13.16h0.168
			c0,5.669,0.014,11.338-0.016,17.007c-0.002,0.622-0.166,1.266-0.367,1.86c-0.514,1.509-0.711,1.615-2.314,1.567
			c-1.029-0.03-1.188-0.268-0.924-1.39c0.221-0.936,0.477-1.862,0.658-2.804c0.129-0.672-0.174-1.246-0.59-1.762
			c-0.232-0.289-0.893-0.361-1.16-0.113c-1.113,1.035-1.9,2.296-2.547,3.661c-0.045,0.097-0.281,0.103-0.43,0.15
			c-0.051-0.2-0.205-0.446-0.139-0.593c0.93-2.04,1.926-4.051,2.834-6.101c0.559-1.263,1.029-2.568,1.475-3.877
			c0.186-0.547-0.104-1.052-0.521-1.427c-0.34-0.304-0.801-0.459-1.154-0.128c-1.09,1.02-2.127,2.1-3.201,3.137
			c-0.092,0.089-0.32,0.036-0.486,0.049c-0.014-0.199-0.107-0.439-0.029-0.591c1.645-3.238,3.303-6.469,4.975-9.693
			c0.453-0.878,0.729-1.769,0.566-2.771c-0.102-0.635-0.947-1.078-1.48-0.721c-0.352,0.235-0.729,0.477-0.98,0.804
			c-0.979,1.266-1.914,2.565-2.861,3.854c-0.24,0.323-0.699,0.414-0.77,0.144c-0.053-0.194-0.17-0.434-0.104-0.586
			c0.973-2.256,1.988-4.493,2.957-6.75c0.42-0.979,0.807-1.979,1.121-2.997c0.15-0.495,0.162-1.06,0.111-1.58
			c-0.027-0.271-0.297-0.545-0.516-0.76c-0.303-0.3-0.588-0.062-0.822,0.141c-0.646,0.555-1.273,1.131-1.918,1.688
			c-0.035,0.031-0.176-0.003-0.221-0.051c-0.066-0.07-0.15-0.202-0.125-0.271c0.752-2.109,1.514-4.217,2.283-6.32
			c0.146-0.401,0.361-0.775,0.52-1.173c0.381-0.96,0.318-1.787-0.156-2.065c-0.65-0.38-1.227-0.094-1.791,0.235
			c-0.09,0.053-0.199,0.133-0.287,0.121c-0.18-0.025-0.42-0.055-0.506-0.175c-0.102-0.144-0.156-0.437-0.078-0.574
			c0.75-1.294,1.557-2.556,2.295-3.854c0.309-0.544,0.527-1.145,0.732-1.739c0.127-0.37-0.256-1.054-0.541-1.017
			c-0.289,0.037-0.67,0.116-0.826,0.319c-0.912,1.185-1.746,2.427-2.656,3.612c-0.311,0.404-0.725,0.763-1.164,1.017
			c-0.211,0.121-0.664,0.045-0.869-0.117c-0.18-0.143-0.316-0.607-0.219-0.795c1.537-2.916,2.533-6.133,4.811-8.644
			c0.273-0.303,0.305-0.896-0.121-1.149c-1.354-0.805-0.84-2.031-0.781-3.151c0.031-0.623,0.416-0.938,1.035-0.979
			c0.318-0.021,0.646-0.022,0.953-0.099c0.559-0.141,0.92-0.517,1.047-1.086c0.143-0.637-0.133-1.258-0.77-1.611
			c-0.369-0.205-0.799-0.297-1.188-0.471c-0.562-0.25-0.713-0.737-0.691-1.308c0.023-0.592,0.26-1.008,0.887-1.142
			c0.311-0.066,0.639-0.128,0.916-0.272c1.666-0.867,1.678-1.822,0.086-3.031c-0.324-0.246-0.76-0.562-0.812-0.898
			c-0.109-0.661,1.369-2.043,2.17-2.101c0.854-0.061,1.713,0.001,2.564-0.057c1.57-0.104,1.992-0.627,1.803-2.278
			c-0.053-0.455-0.176-0.812,0.402-0.975c2.977-0.84,5.744-2.329,8.84-2.806c2.1-0.323,4.184-0.739,6.281-1.081
			c0.297-0.05,0.633,0.06,0.939,0.137c0.656,0.166,1.123,0.814,1.01,1.433c-0.23,1.259-0.48,2.513-0.738,3.766
			c-0.111,0.54-0.529,0.779-1.223,0.637c-2.012-0.413-4.037-0.401-6.072-0.301c-2.562,0.127-4.504,1.341-5.766,3.516
			c-1.861,3.21-2.689,6.725-2.666,10.427c0.004,0.625,0.176,1.265,0.363,1.87c0.318,1.027,1.037,1.579,2.146,1.58
			c0.855,0,1.711,0.029,2.566,0.03c6.953,0.014,13.908,0.013,20.861,0.045c1.238,0.006,2.316-0.154,3.086-1.292
			c0.174-0.257,0.738-0.26,1.125-0.363c1.217-0.325,1.705-0.793,1.756-1.917c0.064-1.389,0.062-2.782,0.039-4.172
			c-0.027-1.613,0.117-3.191,0.572-4.752c0.746-2.56,1.418-5.142,2.143-7.708c0.279-0.986,0.926-1.575,1.902-1.999
			c4.629-2.006,9.395-2.734,14.391-1.843c0.836,0.149,1.703,0.193,2.553,0.174c0.51-0.011,1.174-0.08,1.494-0.398
			c0.967-0.958,1.938-0.594,2.951-0.247C101.215,21.365,101.332,21.534,101.164,22.234z"/>
	</g>
</g>
</svg>
