<?xml version="1.0" encoding="utf-8"?>
<!-- Generator: Adobe Illustrator 16.0.0, SVG Export Plug-In . SVG Version: 6.00 Build 0)  -->
<!DOCTYPE svg PUBLIC "-//W3C//DTD SVG 1.1//EN" "http://www.w3.org/Graphics/SVG/1.1/DTD/svg11.dtd">
<svg version="1.1" id="Layer_1" xmlns="http://www.w3.org/2000/svg" xmlns:xlink="http://www.w3.org/1999/xlink" x="0px" y="0px"
	 width="120px" height="120px" viewBox="0 0 120 120" style="enable-background:new 0 0 120 120;" xml:space="preserve">
<g id="bebo">
	<g>
		<path style="fill-rule:evenodd;clip-rule:evenodd;" d="M106.562,63.861c-0.025-1.938-0.434-3.833-1.287-5.58
			c-1.74-3.551-3.516-7.084-5.332-10.597c-1.297-2.51-3.201-4.588-5.352-6.336c-2.23-1.812-4.646-3.436-7.141-4.867
			c-3.432-1.97-6.84-3.968-10.115-6.191c-0.719-0.488-1.393-0.709-2.355-0.595c-1.684,0.199-3.441,0.232-5.115-0.019
			c-3.959-0.593-7.852-0.452-11.793,0.185c-3.604,0.583-5.748,3.017-7.965,5.511c-1.607,1.812-1.385,3.941-1.354,6.069
			c0.004,0.214,0.008,0.43,0.037,0.641c0.242,1.614,0.803,3.063,1.912,4.322c1.848,2.098,4.195,3.338,6.857,3.853
			c1.578,0.304,3.109,0.723,4.66,1.098c2.484,0.602,4.9,1.499,7.486,1.681c0.725,0.051,1.469,0.304,2.137,0.61
			c2.68,1.222,4.996,2.878,6.359,5.609c0.332,0.67,0.707,1.319,1.064,1.977c1.096,2.01,1.736,4.145,1.596,6.447
			c-0.123,2.021-0.459,4.034-0.475,6.052c-0.018,1.821-0.547,3.304-1.775,4.638c-0.654,0.711-1.309,1.375-2.092,1.954
			c-2.172,1.602-4.555,2.703-7.07,3.682c-2.85,1.11-5.746,1.485-8.748,1.647c-3.785,0.203-7.441-0.642-11.121-1.233
			c-1.984-0.319-3.92-1.068-5.363-2.664c-2.111-2.333-3.766-4.913-4.477-8.027c-0.643-2.813-1.117-5.649-1.242-8.538
			c-0.047-1.068,0.031-2.173-0.217-3.195c-0.516-2.113-0.508-4.245-0.484-6.379c0.064-5.552-0.219-11.105,0.539-16.653
			c0.402-2.952,0.244-5.98,0.34-8.973c-0.051-0.001-0.1-0.001-0.15-0.002c0-2.567-0.037-5.136,0.012-7.702
			c0.037-1.952-0.389-3.837-0.854-5.69c-0.637-2.528-1.932-4.75-3.9-6.516c-1.418-1.271-3.152-1.986-5.002-1.754
			c-6.971,0.875-11.889,4.457-14.156,11.275c-0.742,2.235-1.178,4.559-1.223,6.909c-0.082,4.385-0.117,8.773-0.033,13.156
			c0.137,6.946,0.477,13.889,0.562,20.834c0.074,6.12,0.738,12.151,2.17,18.092c0.75,3.11,1.723,6.17,2.383,9.299
			c1.055,5.016,3.734,9.027,7.295,12.555c0.379,0.375,0.77,0.764,1.221,1.032c2.666,1.58,5.332,3.155,8.035,4.665
			c0.83,0.464,1.752,0.906,2.678,1.035c2.705,0.373,5.072,1.581,7.475,2.73c0.191,0.091,0.402,0.143,0.605,0.211
			c2.344,0.785,4.746,1.189,7.225,1.209c4.6,0.036,9.209-0.028,13.795,0.262c2.252,0.143,4.453,0.264,6.668-0.15
			c1.465-0.273,2.908-0.597,4.416-0.688c1.025-0.062,2.049-0.557,3.027-0.974c2.27-0.969,4.379-2.228,6.344-3.726
			c1.697-1.293,3.328-2.695,5.123-3.84c2.201-1.407,4.088-3.132,5.621-5.198c2.357-3.177,4.357-6.585,6.152-10.119
			c1.529-3.018,2.174-6.295,2.389-9.559C106.849,72.863,106.622,68.354,106.562,63.861z M44.173,91.338
			c-0.836,1.607-1.65,3.229-2.506,4.826c-0.221,0.416-0.617,0.543-1.076,0.29c-1.312-0.722-2.609-1.401-3.139-3.007
			c-0.234-0.709-0.98-0.973-1.801-1.11c-2.172-0.364-3.355-1.755-3.469-3.835c-0.018-0.319,0.004-0.643-0.018-0.962
			c-0.053-0.816-0.379-1.491-1.238-1.65c-0.887-0.165-1.217-0.749-1.447-1.507c-0.311-1.021-0.537-2.09-1.01-3.031
			c-0.5-0.989,0.27-1.923-0.055-2.795c-0.328-0.878-1.012-1.621-1.371-2.492c-0.32-0.778-0.418-1.65-0.602-2.482
			c-0.123-0.562-0.055-1.06,0.543-1.336c1.109-0.514,1.854-1.428,2.57-2.363c0.719-0.937,0.775-2.002,0.328-3.033
			c-0.457-1.053-1.314-1.662-2.52-1.657c-0.32,0.001-0.643,0.004-0.959,0.042c-0.547,0.066-1.137,0.12-1.346-0.506
			c-0.236-0.709-0.375-1.495,0.223-2.114c0.67-0.69,1.477-1.257,2.078-1.995c0.529-0.643,0.961-1.411,1.25-2.193
			c0.318-0.854-0.496-2.062-1.389-2.17c-0.701-0.084-1.416-0.057-2.126-0.07c-0.011,0.026-0.021,0.054-0.032,0.081
			c-0.07,0.012-0.141,0.019-0.209,0.033c-0.069,0.062-0.138,0.124-0.205,0.185c0.039-0.057,0.07-0.141,0.125-0.165
			c0.025-0.011,0.053-0.014,0.08-0.02c0.042-0.038,0.085-0.077,0.127-0.115c0.038,0.001,0.076,0,0.114,0.001
			c0.146-0.348,0.259-0.72,0.47-1.022c0.615-0.872,1.312-1.686,1.912-2.568c0.658-0.968,0.684-1.999,0.043-3.004
			c-0.627-0.984-1.52-1.459-2.699-1.306c-0.316,0.041-0.627,0.145-0.943,0.17c-0.547,0.043-0.883-0.419-0.889-1.045
			c-0.008-0.693,0.232-1.252,0.73-1.705c0.947-0.863,1.857-1.777,2.873-2.551c1.154-0.881,1.791-2.079,2.467-3.302
			c0.771-1.405,0.082-3.443-1.945-3.999c-0.104-0.027-0.211-0.032-0.314-0.053c-0.711-0.153-1.514,0.206-2.146-0.384
			c0.309-0.554,0.652-1.094,0.914-1.668c0.127-0.28,0.129-0.626,0.156-0.944c0.105-1.246-0.084-2.377-1.373-2.964
			c-1.035-0.471-1.336-1.263-1.219-2.34c0.361-3.287,0.715-6.577,1.391-9.814c0.238-1.141,0.646-2.207,1.973-2.701
			c2.039-0.76,3.166-0.645,3.916,1.693c0.49,1.532,1.018,3.049,1.014,4.671c-0.014,5.56,0.279,11.146-0.182,16.67
			c-0.445,5.341-0.514,10.665-0.598,16.003c-0.104,6.432,0.557,12.803,1.549,19.135c0.852,5.423,3.266,10.118,7.201,14.001
			c1.312,1.292,2.83,2.266,4.434,3.134C44.241,90.516,44.427,90.857,44.173,91.338z M97.786,74.633
			c-0.162,0.946-0.287,1.9-0.482,2.84c-1.678,8.101-6.205,14.428-12.352,19.725c-1.293,1.115-2.678,2.126-4.055,3.139
			c-1.324,0.976-2.859,1.429-4.48,1.582c-0.527,0.051-1.152,0.18-1.582-0.033c-1.693-0.836-3.064-0.648-4.207,0.93
			c-0.156,0.216-0.566,0.262-0.869,0.354c-2.545,0.77-3.092,0.438-3.098-2.146c-0.004-1.297-0.404-2.275-1.418-3.044
			c-0.664-0.5-1.846-0.264-2.209,0.478c-0.094,0.188-0.146,0.396-0.203,0.601c-0.518,1.836-0.516,1.834-2.184,1.496
			c-0.42-0.086-0.846-0.137-1.262-0.236c-1.162-0.277-1.232-0.429-1.148-1.71c0.047-0.74,0.078-1.499-0.029-2.228
			c-0.096-0.643-0.502-1.176-1.117-1.479c-0.906-0.444-2.105-0.068-2.43,0.857c-0.352,1.002-0.568,2.051-0.828,3.083
			c-0.203,0.81-0.545,1.165-1.316,1.069c-1.691-0.211-3.381-0.462-5.053-0.799c-0.291-0.059-0.666-0.604-0.688-0.943
			c-0.078-1.281-0.023-2.57,0.498-3.783c0.369-0.862-0.215-1.955,0.654-2.696c0.836,0.138,1.678,0.251,2.51,0.415
			c4.756,0.945,9.568,0.777,14.377,0.743c1.957-0.014,3.777-0.613,5.611-1.19c3.797-1.197,7.355-2.842,10.555-5.262
			c2.439-1.842,4.406-4.012,5.672-6.822c0.768-1.703,0.875-3.52,1.09-5.312c0.189-1.59,0.193-3.202,0.273-4.699
			c0.039-2.994,0.127-5.875-0.922-8.661c-1.377-3.654-3.309-7.042-6.037-9.747c-2.732-2.713-6.109-4.66-10.074-5.253
			c-0.734-0.11-1.461-0.299-2.191-0.45c-0.211-0.043-0.43-0.057-0.629-0.128c-1.773-0.643-2.732-2.332-4.246-3.323
			c-0.73-0.476-1.055-1.314-1.275-2.169c-0.184-0.72-0.004-1.279,0.699-1.546c2.719-1.031,5.428-1.83,8.42-0.958
			c1.418,0.412,2.92,0.589,4.338,1.071c1.938,0.659,3.652,1.578,5.135,3.107c1.396,1.443,3.203,2.483,4.777,3.761
			c3.33,2.702,6.486,5.58,8.951,9.135c0.43,0.617,0.945,1.207,0.857,2.017c-0.146,1.342,0.377,2.532,0.84,3.713
			C98.519,64.855,98.632,69.703,97.786,74.633z"/>
	</g>
</g>
</svg>
