<?xml version="1.0" encoding="utf-8"?>
<!-- Generator: Adobe Illustrator 16.0.0, SVG Export Plug-In . SVG Version: 6.00 Build 0)  -->
<!DOCTYPE svg PUBLIC "-//W3C//DTD SVG 1.1//EN" "http://www.w3.org/Graphics/SVG/1.1/DTD/svg11.dtd">
<svg version="1.1" id="Layer_1" xmlns="http://www.w3.org/2000/svg" xmlns:xlink="http://www.w3.org/1999/xlink" x="0px" y="0px"
	 width="120px" height="120px" viewBox="0 0 120 120" style="enable-background:new 0 0 120 120;" xml:space="preserve">
<g id="badoo">
	<g>
		<path style="fill-rule:evenodd;clip-rule:evenodd;" d="M103.279,61.549c-0.408-1.653-0.668-3.342-1.008-5.012
			c-0.301-1.47-0.637-2.938-1.686-4.093c-0.89-0.979-1.367-2.133-1.728-3.388c-0.625-2.175-1.68-4.155-2.961-6.016
			c-2.274-3.302-5.177-5.951-8.473-8.204c-4.796-3.282-10.049-5.648-15.448-7.71c-0.881-0.336-1.865-0.528-2.808-0.55
			c-2.022-0.045-4.03-0.051-6.063,0.313c-2.615,0.469-5.249,0.992-7.945,0.883c-0.734-0.03-1.48,0.16-2.215,0.287
			c-3.532,0.611-6.742,2.043-9.715,3.989c-2.047,1.341-4.197,2.553-5.965,4.297c-0.178,0.177-0.65,0.298-0.814,0.189
			c-0.21-0.141-0.256-0.539-0.354-0.833c-0.032-0.096-0.008-0.211-0.008-0.319c-0.047-4.711,0.379-9.397,0.977-14.058
			c0.275-2.144,0.348-4.277,0.203-6.392c-0.152-2.223-0.377-4.473-1.175-6.601c-0.875-2.331-2.343-3.808-5.765-3.493
			c-1.899,0.174-3.775,0.691-5.637,1.15c-0.708,0.175-1.46,0.495-1.999,0.968c-2.11,1.853-3.962,3.957-4.536,6.8
			c-0.484,2.397-0.881,4.834-1.041,7.272c-0.322,4.903-0.459,9.82-0.667,14.73c-0.104,2.458-0.168,4.917-0.308,7.372
			c-0.084,1.49-0.361,2.971-0.402,4.46c-0.068,2.565-0.018,5.134-0.018,7.701c-0.033,4.377-0.236,8.758,0.493,13.117
			c0.423,2.521,0.499,5.1,0.801,7.645c0.275,2.329,0.562,4.662,0.988,6.967c0.585,3.169,1.92,6.088,3.101,9.07
			c1.809,4.567,4.707,8.348,7.822,12.035c4.303,5.094,10.178,7.652,16.126,10.102c0.291,0.119,0.636,0.102,0.938,0.197
			c2.289,0.724,4.646,0.613,6.997,0.608c3.103-0.007,6.221-0.172,9.298,0.104c2.072,0.188,3.961-0.045,5.951-0.533
			c5.551-1.364,10.675-3.699,15.689-6.362c5.318-2.824,5.337-2.788,9.375-7.061c0.072-0.079,0.148-0.154,0.219-0.235
			c1.948-2.268,3.898-4.502,5.127-7.313c1.504-3.44,2.666-6.989,3.633-10.592c0.801-2.982,1.507-6.022,1.856-9.082
			C104.612,69.803,104.287,65.641,103.279,61.549z M97.407,76.547c-0.515,1.51-0.781,3.103-1.227,4.639
			c-1.474,5.088-3.948,9.678-7.051,13.941c-1.142,1.567-2.509,2.942-4.105,4.035c-5.698,3.903-11.802,6.881-18.695,8.002
			c-0.526,0.086-1.063,0.146-1.596,0.161c-5.565,0.146-11.116,0.054-16.581-1.184c-1.039-0.234-2.089-0.473-3.078-0.854
			c-1.033-0.397-1.986-0.604-3.1-0.234c-0.805,0.269-1.701-0.698-1.521-1.509c0.208-0.938,0.549-1.85,0.703-2.795
			c0.081-0.492-0.045-1.054-0.201-1.543c-0.204-0.636-1.182-0.883-1.572-0.418c-0.548,0.652-1.031,1.356-1.549,2.035
			c-0.333,0.435-0.74,0.503-1.068,0.145c-0.506-0.547-0.984-1.121-1.464-1.693c-0.542-0.645-0.554-1.394-0.263-2.119
			c0.477-1.188,1.079-2.33,1.524-3.53c0.213-0.574,0.25-1.239,0.236-1.859c-0.005-0.237-0.335-0.576-0.589-0.666
			c-0.229-0.079-0.674,0.026-0.818,0.212c-0.852,1.092-1.645,2.231-2.457,3.354c-0.264,0.365-0.785,0.363-1.072-0.004
			c-0.064-0.083-0.117-0.178-0.178-0.264c-0.246-0.352-0.473-0.717-0.742-1.047c-0.811-0.999-1.148-2.004-0.306-3.187
			c0.367-0.515,0.599-1.134,0.843-1.728c0.117-0.286,0.229-0.654,0.146-0.924c-0.114-0.37-0.358-0.757-0.66-0.992
			c-0.192-0.149-0.651-0.147-0.882-0.018c-0.553,0.308-1.032,0.749-1.566,1.096c-0.121,0.08-0.408,0.061-0.515-0.032
			c-0.144-0.126-0.271-0.376-0.251-0.558c0.042-0.416,0.104-0.859,0.284-1.23c1.306-2.688,2.642-5.361,3.968-8.039
			c0.094-0.191,0.182-0.386,0.258-0.584c0.314-0.814-0.305-1.801-1.173-1.917c-1.056-0.142-1.933,0.236-2.556,1.034
			c-0.654,0.838-1.195,1.768-1.752,2.678c-0.275,0.451-0.451,0.963-0.719,1.419c-0.087,0.149-0.322,0.216-0.5,0.296
			c-0.014,0.007-0.135-0.16-0.164-0.258c-0.438-1.467-0.559-2.856,0.322-4.286c0.893-1.45,1.578-3.031,2.3-4.582
			c0.165-0.354,0.208-0.835,0.133-1.223c-0.229-1.188-1.55-1.702-2.454-0.959c-0.656,0.54-1.227,1.181-1.861,1.747
			c-0.063,0.057-0.411-0.057-0.467-0.17c-0.186-0.38-0.334-0.789-0.431-1.202c-0.104-0.45,0.013-0.87,0.53-0.974
			c3.379-0.679,4.291-3.535,5.432-6.168c0.238-0.553-0.369-1.434-1.084-1.795c-0.561-0.284-1.081-0.097-1.469,0.279
			c-0.607,0.59-1.168,1.236-1.685,1.908c-0.519,0.674-0.956,1.41-1.44,2.112c-0.049,0.071-0.172,0.093-0.262,0.137
			c-0.047-0.096-0.127-0.19-0.135-0.289c-0.047-0.745-0.057-1.493-0.123-2.236c-0.086-0.978,0.232-1.592,1.234-1.941
			c1.643-0.573,2.432-2.03,3.135-3.479c0.279-0.573,0.281-1.307-0.244-1.8c-0.476-0.447-1.061-0.694-1.752-0.32
			c-0.266,0.145-0.6,0.183-0.908,0.221c-0.318,0.039-0.818-0.641-0.67-0.93c0.289-0.565,0.566-1.151,0.956-1.645
			c0.729-0.923,1.562-1.763,2.296-2.681c0.396-0.496,0.719-1.062,1.006-1.629c0.279-0.555,0.07-1.362-0.377-1.769
			c-0.436-0.398-1.205-0.411-1.768,0.036c-0.412,0.328-0.775,0.72-1.145,1.099c-0.371,0.382-0.717,0.788-1.086,1.172
			c-0.068,0.07-0.264,0.136-0.284,0.111c-0.118-0.149-0.258-0.317-0.288-0.496c-0.131-0.759-0.041-1.435,0.498-2.087
			c1.566-1.892,3.08-3.827,4.578-5.774c0.314-0.408,0.554-0.915,0.686-1.414c0.241-0.906-0.16-1.703-0.93-2.18
			c-0.732-0.455-1.414-0.385-2.082,0.115c-0.766,0.575-1.527,1.158-2.297,1.728c-0.066,0.049-0.252,0.062-0.268,0.029
			c-0.099-0.181-0.264-0.408-0.219-0.568c0.139-0.503,0.275-1.044,0.567-1.46c1.169-1.661,2.416-3.265,3.591-4.92
			c0.614-0.867,1.223-1.755,1.684-2.707c0.637-1.314-0.396-2.566-1.887-2.453c-1.26,0.095-2.162,0.846-3.111,1.539
			c-0.165,0.12-0.389,0.16-0.586,0.238c-0.093-0.295-0.236-0.584-0.27-0.885c-0.1-0.913,0.343-1.678,0.828-2.375
			c0.916-1.315,1.911-2.575,2.863-3.865c0.634-0.859,1.311-1.696,1.857-2.608c0.609-1.02-0.207-2.242-1.432-2.171
			c-0.516,0.03-1.04,0.193-1.525,0.385c-0.391,0.154-0.714,0.474-1.097,0.659c-0.3,0.145-0.733,0.082-0.72-0.285
			c0.084-2.122,0.252-4.217,1.352-6.143c0.539-0.945,1.355-1.351,2.283-1.595c0.717-0.188,1.48-0.222,2.227-0.268
			c2.048-0.126,2.548-0.105,2.893,2.407c0.214,1.564,0.029,3.204-0.125,4.795c-0.309,3.185-0.684,6.365-1.098,9.539
			c-0.764,5.852-0.717,11.736-0.803,17.616c-0.01,0.744-0.146,1.486-0.232,2.228c-0.141,1.201,0.07,2.341,0.57,3.435
			c0.173,0.378,0.838,0.498,1.072,0.173c0.251-0.344,0.48-0.704,0.713-1.062c0.464-0.718,0.871-1.478,1.393-2.151
			c1.639-2.118,3.351-4.166,5.771-5.473c0.461-0.249,0.863-0.63,1.251-0.994c2.294-2.158,4.966-3.722,7.888-4.822
			c4.8-1.809,9.656-3.397,14.812-3.935c2.275-0.237,4.51-0.098,6.637,0.522c7.217,2.104,13.566,5.708,18.652,11.356
			c1.521,1.689,2.615,3.555,3.301,5.766c0.822,2.644,2.067,5.151,3.021,7.757c0.769,2.101,1.39,4.257,2.044,6.398
			c0.182,0.597-0.174,1.107-0.79,1.062c-1.964-0.143-3.503,0.785-4.995,1.857c-0.52,0.373-0.992,0.815-1.518,1.182
			c-0.113,0.078-0.366-0.021-0.545-0.075c-0.042-0.013-0.08-0.183-0.055-0.257c0.348-1.01,0.752-2.003,1.05-3.026
			c0.235-0.809,0.442-1.648,0.483-2.484c0.053-1.077-0.752-1.734-1.913-1.495c-0.724,0.149-1.129,0.272-1.405-0.616
			c-0.6-1.934-1.344-3.824-1.979-5.749c-0.121-0.366-0.078-0.829,0.019-1.214c0.183-0.723,0.484-1.414,0.685-2.133
			c0.082-0.3,0.067-0.641,0.033-0.956c-0.062-0.584-0.431-0.94-0.957-1.174c-0.445-0.198-0.84-0.116-1.178,0.184
			c-0.316,0.281-0.568,0.639-0.889,0.917c-0.129,0.111-0.471,0.194-0.537,0.123c-0.497-0.536-0.998-1.083-1.389-1.696
			c-0.126-0.198,0.027-0.62,0.129-0.912c0.246-0.706,0.623-1.379,0.779-2.102c0.106-0.486,0.021-1.064-0.139-1.55
			c-0.408-1.25-1.566-1.539-2.493-0.646c-0.459,0.443-0.93,0.907-1.261,1.444c-0.77,1.253-0.908,1.485-2.429,0.233
			c-1.068-0.88-2.22-1.672-3.394-2.413c-3.516-2.219-7.409-2.603-11.428-2.158c-4.371,0.484-8.572,1.705-12.734,3.073
			c-0.938,0.308-1.719,0.834-2.4,1.545c-2.516,2.622-5.182,5.093-7.492,7.925c-1.258,1.542-2.195,3.166-2.633,5.057
			c-1.231,5.312-2.455,10.629-2.145,15.478c0,1.525,0.021,2.382-0.004,3.237c-0.128,4.274,1.023,8.243,2.881,12.035
			c0.752,1.534,1.568,3.04,2.412,4.526c0.932,1.641,2.324,2.765,4.1,3.415c0.602,0.221,1.224,0.417,1.779,0.726
			c5.364,2.988,11.064,3.73,17.056,2.621c0.419-0.077,0.853-0.117,1.278-0.107c3.555,0.08,6.992-0.85,10.496-1.182
			c3.52-0.334,6.238-2.139,8.637-4.488c1.523-1.493,2.823-3.217,3.695-5.209c0.215-0.489,0.447-0.972,0.7-1.443
			c1.308-2.44,2.546-4.892,5.536-5.808c0.84-0.257,1.559-1.103,2.187-1.809c0.745-0.84,0.161-2.298-0.94-2.542
			c-1.068-0.235-2.117-0.121-3.172,0.16c-0.625,0.167-0.879-0.146-0.871-0.885c0.006-0.654,0.037-1.301,0.602-1.749
			c2.344-1.861,4.692-3.72,7.049-5.565c0.405-0.317,0.822-0.109,0.856,0.418C98.086,71.483,98.263,74.033,97.407,76.547z
			 M41.43,76.867c-0.035-4.868,0.456-10.078,1.256-15.251c0.326-2.097,0.982-4.149,1.578-6.196c0.202-0.697,0.555-1.429,1.047-1.95
			c1.832-1.941,3.645-3.94,6.027-5.24c3.447-1.879,7.066-2.898,11.054-2.146c1.774,0.334,3.603,0.164,5.392,0.673
			c1.773,0.506,3.402,1.247,4.976,2.158c1.034,0.599,1.917,1.362,2.346,2.536c0.073,0.2,0.131,0.441,0.276,0.574
			c1.932,1.777,2.867,4.21,4.234,6.358c0.278,0.439,0.662,0.981,1.105,1.114c1.605,0.474,1.902,1.907,2.481,3.127
			c0.595,1.251,1.08,2.514,0.818,3.988c-0.224,1.257-0.229,2.553-0.291,3.834c-0.196,4.142-1.409,8.004-3.491,11.541
			c-1.404,2.384-3.135,4.579-4.742,6.844c-0.766,1.079-1.846,1.765-3.062,2.242c-1.902,0.748-3.896,1.238-5.91,1.358
			c-5.026,0.3-10.029,0.111-14.959-1.127c-3.945-0.991-6.85-3.37-9.178-6.571c-0.637-0.877-0.988-1.877-0.965-2.998
			C41.454,80.239,41.43,78.741,41.43,76.867z M49.715,82.338c2.852,2.387,6.189,3.771,9.99,3.772
			c2.665,0.001,4.689-1.159,6.188-3.37c1.315-1.939,1.884-4.049,1.782-6.24c0.176-3.561-0.714-5.884-2.836-8.754
			c-0.972-1.314-2.24-2.262-3.812-2.816c-5.686-2.006-11.186,0.732-13.438,5.616C45.708,74.624,46.519,79.662,49.715,82.338z
			 M56.236,74.659c0.355-1.428,1.678-2.521,3.195-2.636c0.211-0.017,0.425-0.002,0.637-0.002c1.337-0.04,1.616,0.156,2.055,1.464
			c0.745,2.219,0.748,4.37-0.6,6.394c-0.309,0.463-0.959,0.596-1.385,0.282c-0.852-0.623-1.695-1.253-2.547-1.875
			C56.361,77.391,55.877,76.102,56.236,74.659z"/>
	</g>
</g>
</svg>
