<?xml version="1.0" encoding="utf-8"?>
<!-- Generator: Adobe Illustrator 16.0.0, SVG Export Plug-In . SVG Version: 6.00 Build 0)  -->
<!DOCTYPE svg PUBLIC "-//W3C//DTD SVG 1.1//EN" "http://www.w3.org/Graphics/SVG/1.1/DTD/svg11.dtd">
<svg version="1.1" id="Layer_1" xmlns="http://www.w3.org/2000/svg" xmlns:xlink="http://www.w3.org/1999/xlink" x="0px" y="0px"
	 width="120px" height="120px" viewBox="0 0 120 120" style="enable-background:new 0 0 120 120;" xml:space="preserve">
<g id="app.net">
	<g>
		<path style="fill-rule:evenodd;clip-rule:evenodd;" d="M111.906,96.586c-0.859-1.834-1.633-3.732-2.695-5.445
			c-2.139-3.453-4.48-6.779-6.68-10.197c-1.27-1.976-2.414-4.031-3.627-6.045c-0.936-1.556-1.85-3.127-2.838-4.648
			c-1.982-3.045-4.16-5.973-5.986-9.107c-2.486-4.26-5.289-8.294-8.146-12.297c-2.668-3.742-5.4-7.433-8.426-10.916
			c-4.207-4.847-8.182-9.887-11.266-15.563c-0.881-1.625-2.55-2.529-3.763-3.856c-0.068-0.076-0.176-0.12-0.271-0.167
			c-1.365-0.68-2.498-0.355-3.252,0.964c-0.529,0.925-0.979,1.895-1.527,2.807c-2.588,4.308-5.195,8.604-7.801,12.899
			c-0.332,0.548-0.674,1.095-1.055,1.607c-1.926,2.578-3.523,5.354-5.078,8.163c-1.293,2.338-2.658,4.639-4.059,6.913
			c-2.186,3.551-4.457,7.051-6.646,10.599c-3.539,5.734-7.008,11.508-10.562,17.23c-2.65,4.269-5.379,8.49-8.094,12.72
			c-0.988,1.54-1.834,3.142-2.287,4.922c-0.367,1.437,0.461,2.864,1.939,3.155c3.35,0.661,6.707,1.266,10.158,1.211
			c1.66-0.027,2.879-0.59,3.723-2.023c1.189-2.028,2.383-4.053,3.621-6.051c1.461-2.361,2.975-4.689,4.457-7.039
			c0.379-0.604,0.896-0.835,1.605-0.828c5.67,0.049,11.344,0.076,17.018,0.121c0.637,0.006,1.277,0.069,1.916,0.115
			c1.385,0.1,2.768,0.287,4.152,0.293c7.386,0.024,14.771,0.01,22.158-0.005c0.961-0.003,1.951,0.048,2.877-0.159
			c1.807-0.404,3.623-0.249,5.432-0.344c1.078-0.057,1.867,0.346,2.412,1.26c0.221,0.367,0.436,0.736,0.658,1.102
			c2.537,4.207,5.461,8.179,7.586,12.637c0.635,1.33,1.525,1.701,2.893,1.127c2.652-1.117,5.482-0.668,8.125-1.18
			c0.176,0.049,0.277,0.089,0.381,0.105C111.605,101.062,112.959,98.836,111.906,96.586z M57.495,28.449
			c0.215,0.146,0.432,0.294,0.785,0.538c-0.34,0.244-0.531,0.446-0.76,0.513c-0.1,0.029-0.418-0.253-0.398-0.334
			C57.186,28.911,57.362,28.686,57.495,28.449z M47.333,45.005c0.613-1.094,1.416-1.83,2.758-1.816
			c0.527,0.005,1.068-0.037,1.586-0.145c1.217-0.256,2.176-0.728,2.193-2.255c0.01-0.753,0.871-1.276,1.832-1.365
			c0.082-0.008,0.193,0.072,0.256,0.144c0.049,0.056,0.082,0.183,0.053,0.241c-0.986,1.876-1.887,3.807-3.01,5.596
			c-0.602,0.958-1.588,1.674-2.408,2.492c-0.068,0.069-0.195,0.08-0.293,0.118c-0.078-0.067-0.178-0.122-0.227-0.206
			c-0.469-0.795-1.254-1.074-2.07-1.353C46.893,46.078,46.846,45.87,47.333,45.005z M44.266,50.258
			c1.555-0.142,3.115-0.25,4.709-0.369c0.064,0.097,0.281,0.289,0.248,0.412c-0.107,0.396-0.299,0.771-0.473,1.148
			c-0.197,0.423-0.547,0.723-0.984,0.478c-1.129-0.635-2.334-0.949-3.609-1.067c-0.082-0.009-0.229-0.185-0.215-0.207
			C44.03,50.504,44.143,50.27,44.266,50.258z M19.596,95.164c-0.275-0.094-0.555-0.186-0.834-0.279
			c0.283-0.072,0.568-0.188,0.854-0.197c0.168-0.006,0.342,0.16,0.514,0.248C19.952,95.012,19.776,95.088,19.596,95.164z
			 M22.106,90.732c-0.102-0.008-0.211-0.004-0.307-0.031c-0.707-0.203-1.422-0.385-2.111-0.635
			c-0.355-0.129-0.328-0.461-0.162-0.754c0.387-0.687,0.918-1.146,2.154-1.074c0.027,0.004,0.48-0.018,0.85,0.143
			c0.346,0.15,0.801,0.457,0.861,0.764C23.506,89.711,22.542,90.768,22.106,90.732z M28.219,81.854
			c-0.275,0.451-0.58,0.887-0.826,1.354c-0.734,1.379-1.859,1.965-2.729,1.812c-0.994-0.074-1.322-0.053-1.623-0.133
			c-0.311-0.084-0.543-0.32-0.334-0.674c0.596-0.998,1.152-2.027,1.852-2.949c0.275-0.363,0.865-0.561,1.348-0.672
			c0.758-0.174,1.451,0.171,2.113,0.516C28.344,81.275,28.413,81.537,28.219,81.854z M32.151,74.158
			c-1.164-0.502-2.012-0.066-2.664,0.977c-0.264,0.426-0.662,0.779-1.045,1.113c-0.107,0.094-0.424,0.072-0.559-0.021
			s-0.277-0.406-0.219-0.512c0.777-1.375,1.582-2.736,2.398-4.088c0.35-0.576,0.873-0.896,1.568-0.893
			c0.947,0.003,1.896-0.018,2.844,0.016c0.162,0.006,0.316,0.225,0.475,0.346c-0.021,0.104-0.014,0.223-0.061,0.311
			c-0.463,0.826-0.922,1.654-1.406,2.469C33.155,74.428,32.709,74.398,32.151,74.158z M36.456,80.379
			c-0.023,0.154-0.291,0.412-0.406,0.395c-0.826-0.131-1.645-0.305-2.451-0.516c-0.111-0.029-0.268-0.399-0.211-0.492
			c0.607-0.977,1.229-1.947,1.914-2.865c0.105-0.143,0.592-0.096,0.854,0c0.277,0.102,0.498,0.361,0.631,0.465
			C36.668,78.498,36.588,79.443,36.456,80.379z M37.784,66.972c-0.082,0.134-0.35,0.153-0.623,0.263
			c-0.975-1.093-2.252-0.846-3.533-0.643c-0.062,0.01-0.18-0.125-0.221-0.215c-0.039-0.088-0.053-0.23-0.006-0.307
			c0.383-0.641,0.748-1.295,1.184-1.895c0.262-0.354,0.645-0.516,1.119-0.277c0.379,0.189,0.793,0.305,1.191,0.453
			c0.648,0.238,1.758-0.246,1.871,0.715C38.833,65.66,38.165,66.352,37.784,66.972z M38.375,58.194
			c0.529-0.916,1.055-1.835,1.623-2.727c0.604-0.949,1.238-1.554,2.594-1.025c0.93,0.363,2.08,0.154,3.131,0.221
			c0.193,0.013,0.545,0.132,0.545,0.198c-0.004,0.267-0.043,0.589-0.199,0.788c-0.916,1.164-1.867,2.298-2.807,3.443
			c-0.43,0.525-0.945,0.844-2.385,0.468c-0.199-0.031-1.137-0.171-2.074-0.317C38.067,59.129,37.967,58.9,38.375,58.194z
			 M42.336,69.275c2.219-3.657,4.562-7.223,7.449-10.412c0.994-1.097,1.756-2.418,2.525-3.697c1.982-3.294,3.906-6.624,5.859-9.935
			c0.215-0.366,0.457-0.722,0.729-1.047c0.258-0.311,0.582-0.188,0.803,0.047c0.363,0.387,0.701,0.804,1.009,1.239
			c0.863,1.221,1.703,2.458,2.555,3.688c4.682,6.764,9.359,13.526,14.039,20.292c0.242,0.35,0.533,0.695,0.656,1.088
			c0.061,0.194-0.166,0.666-0.338,0.711c-0.508,0.129-1.051,0.133-1.582,0.136c-2.246,0.015-4.49,0.011-6.736,0.019
			c-3.639,0.014-7.242,0.336-10.812,1.09c-1.135,0.24-2.334,0.188-3.506,0.217c-1.92,0.049-3.824,0.041-5.736,0.461
			c-1.438,0.316-2.975,0.191-4.467,0.262c-0.002-0.02-0.002-0.039-0.004-0.06c-0.107,0-0.215,0.012-0.32-0.002
			c-1.334-0.165-2.75,0.419-4.008-0.44C40.635,71.484,41.629,70.443,42.336,69.275z M99.746,94.877
			c-0.088,0.059-0.428-0.084-0.52-0.223c-1.059-1.602-2.111-3.207-3.125-4.836c-0.793-1.273-1.582-2.527-2.701-3.562
			c-1.273-1.176-2.143-2.672-2.85-4.228c-0.521-1.142-1.273-1.526-2.494-1.528c-9.729-0.002-19.455-0.049-29.185-0.096
			c-2.346-0.012-4.682-0.057-7.031-0.338c-2.322-0.279-4.697-0.092-7.049-0.107c-0.855-0.006-1.713,0.002-2.566-0.016
			c-0.424-0.008-0.887-0.066-0.979-0.574c-0.086-0.473,0.551-1.494,0.924-1.575c0.311-0.067,0.635-0.144,0.949-0.126
			c2.682,0.157,5.324-0.303,7.986-0.471c1.49-0.095,2.99-0.018,4.65-0.018c3.572-0.195,7.294-0.484,11.023-0.584
			c4.488-0.119,8.98-0.091,13.471-0.091c0.623,0,1.279,0.118,1.865,0.333c1.365,0.504,2.73,0.324,4.104,0.148
			c0.455-0.059,0.75-0.601,0.527-0.928c-4.639-6.787-9.037-13.737-14.027-20.289c-3.557-4.672-6.852-9.542-10.285-14.309
			c-1.184-1.642-2.425-3.24-3.646-4.854c-0.307-0.406-0.545-0.047-0.783,0.106c-0.34,0.219-0.68,0.574-0.986-0.014
			c-0.383-0.73-1.018-1.007-1.783-1.202c-1.629-0.414-1.617-0.448-0.936-1.743c0.25-0.472,0.514-0.938,0.736-1.423
			c0.238-0.519,0.582-0.435,1.039-0.323c0.615,0.15,1.258,0.216,1.895,0.25c0.912,0.048,1.68-0.235,2.123-1.123
			c0.092-0.182,0.334-0.483,0.375-0.463c0.269,0.13,0.574,0.286,0.732,0.523c2.002,3.029,3.982,6.072,5.965,9.115
			c0.932,1.432,1.816,2.896,2.791,4.295c0.549,0.784,1.131,1.625,1.896,2.154c1.459,1.01,2.342,2.435,3.33,3.825
			c3.279,4.614,6.604,9.199,9.939,13.772c0.629,0.859,1.379,1.635,2.115,2.408c1.18,1.244,2.197,2.6,3.211,3.984
			c2.377,3.244,3.703,6.959,5.059,10.662c1.432,3.91,2.756,7.859,4.643,11.586c0.178,0.35,0.258,0.809,0.207,1.193
			C100.32,94.449,99.998,94.703,99.746,94.877z"/>
	</g>
</g>
</svg>
