<?xml version="1.0" encoding="utf-8"?>
<!-- Generator: Adobe Illustrator 16.0.0, SVG Export Plug-In . SVG Version: 6.00 Build 0)  -->
<!DOCTYPE svg PUBLIC "-//W3C//DTD SVG 1.1//EN" "http://www.w3.org/Graphics/SVG/1.1/DTD/svg11.dtd">
<svg version="1.1" id="Layer_1" xmlns="http://www.w3.org/2000/svg" xmlns:xlink="http://www.w3.org/1999/xlink" x="0px" y="0px"
	 width="120px" height="120px" viewBox="0 0 120 120" style="enable-background:new 0 0 120 120;" xml:space="preserve">
<g id="open_id">
	<g>
		<path style="fill-rule:evenodd;clip-rule:evenodd;" d="M113.103,56.938c-0.598-2.047-1.146-4.119-1.529-6.214
			c-0.561-3.074-1.561-5.995-2.783-8.844c-1.475-3.437-2.996-6.854-4.553-10.255c-0.758-1.65-1.584-3.274-2.486-4.849
			c-0.414-0.723-1.035-1.354-1.656-1.924c-0.682-0.629-1.541-0.678-2.408-0.362c-1.605,0.584-2.693,1.705-3.316,3.28
			c-0.549,1.39-1.057,2.798-1.615,4.184c-0.748,1.851-0.979,2.065-2.836,1.728c-2.021-0.367-4.043-0.35-6.072-0.362
			c-0.963-0.005-1.926,0.016-2.891-0.007c-1.312-0.03-1.523-0.215-1.551-1.459c-0.053-2.353-0.07-4.706-0.109-7.06
			c-0.033-2.138-0.125-4.268,0.531-6.363c0.248-0.797,0.211-1.695,0.23-2.549c0.053-2.46,0.076-4.921,0.094-7.38
			c0.004-0.642-0.002-1.289-0.088-1.923c-0.24-1.794-1.658-2.854-3.428-2.465c-0.928,0.203-1.834,0.582-2.689,1.003
			c-3.354,1.654-6.693,3.339-10.02,5.051c-1.422,0.734-2.793,1.57-4.191,2.353c-1.326,0.742-2.402,1.771-3.416,2.885
			c-0.859,0.942-1.734,1.878-2.654,2.762c-0.738,0.709-1.184,1.507-1.131,2.542c0.031,0.639,0.053,1.283,0.15,1.913
			c0.484,3.164,1,6.323,1.49,9.487c0.143,0.93-0.193,1.478-1.055,1.687c-8.912,2.169-17.104,5.989-24.863,10.816
			c-0.812,0.505-1.676,0.983-2.582,1.266c-4.449,1.392-7.832,4.247-10.84,7.671c-3.533,4.023-5.707,8.771-7.213,13.822
			c-1.336,4.479-1.229,9.066-0.383,13.644c0.311,1.679,0.588,3.363,0.854,5.05c0.449,2.85,0.977,5.681,1.852,8.435
			c1.201,3.778,3.256,6.939,6.611,9.17c0.713,0.473,1.43,0.958,2.061,1.529c3.666,3.309,8.014,5.229,12.744,6.446
			c4.232,1.09,8.438,2.29,12.666,3.406c2.07,0.547,4.178,0.87,6.33,0.872c2.994,0.003,5.992-0.031,8.986,0.036
			c2.797,0.062,5.516-0.346,8.258-0.882c3.096-0.606,6.152-1.688,9.439-0.999c1.246,0.262,2.738-0.925,2.918-2.06
			c0.314-1.997,0.637-4.021,0.631-6.032c-0.004-1.906-0.305-3.836-0.691-5.71c-0.5-2.433-0.57-4.88-0.586-7.334
			c-0.033-5.562-0.01-11.125-0.01-16.688h-0.045c0-4.065-0.02-8.131,0.006-12.196c0.02-3.21,0.082-6.419,0.148-9.628
			c0.016-0.806,0.375-1.155,1.217-1.109c1.918,0.107,3.832,0.28,5.748,0.424c1.285,0.097,1.518,0.387,1.324,1.537
			c-0.439,2.631-0.852,5.267-1.283,7.897c-0.121,0.737-0.332,1.463-0.412,2.203c-0.168,1.572,0.848,2.649,2.438,2.655
			c0.85,0.004,1.727-0.126,2.537,0.055c0.775,0.173,1.486,0.162,2.199-0.062c3.049-0.954,6.217-1.543,9.07-3.089
			c1.408-0.764,2.902-1.312,4.494-1.652c1.346-0.288,2.648-0.815,3.939-1.315C113.067,61.051,113.944,59.807,113.103,56.938z
			 M55.394,56.719c0.096,0.63,0.131,1.271,0.148,1.91c0.053,1.921,0.062,3.845,0.129,5.767c0.271,7.786,0.744,15.564,0.779,23.36
			c0.01,1.913,0.299,3.825,0.459,5.738c0.027,0.002,0.053,0.003,0.08,0.004c0,0.854,0.004,1.706-0.004,2.559
			c-0.004,0.44-0.441,0.761-0.873,0.637c-2.867-0.817-5.75-1.588-8.596-2.483c-1.414-0.445-2.809-1.021-4.117-1.716
			c-2.814-1.496-4.875-3.775-6.367-6.579c-1.209-2.267-2.188-4.632-2.986-7.068c-1.053-3.21-1.023-6.524-0.76-9.83
			c0.064-0.806,0.449-1.672,0.924-2.345c2.84-4.036,6.461-7.119,11.287-8.489c2.967-0.844,5.998-1.47,9.006-2.158
			C54.97,55.918,55.327,56.249,55.394,56.719z M73.298,25.438c-0.037,0.96-0.156,1.919-0.166,2.878
			c-0.105,14.88-0.223,29.759-0.283,44.638c-0.02,4.924,0.133,9.847,0.189,14.771c0.027,2.354-0.041,4.686-0.457,7.029
			c-0.328,1.863-0.494,3.801,0.217,5.702c0.285,0.764,0.283,1.692,0.199,2.525c-0.279,2.804-1.346,3.943-4.098,4.571
			c-0.104,0.024-0.205,0.072-0.311,0.082c-2.863,0.267-5.727,0.706-8.596,0.754c-4.918,0.083-9.846-0.033-14.768-0.159
			c-1.594-0.04-3.207-0.248-4.762-0.604c-1.434-0.329-2.93-0.67-3.98-1.907c-0.262-0.311-0.709-0.461-1.064-0.697
			c-1.506-1.01-3.02-2.014-4.518-3.037c-1.852-1.269-3.586-2.762-5.562-3.792c-3.91-2.038-6.24-5.401-8.316-9.062
			c-1.684-2.971-2.191-6.254-2.361-9.565c-0.164-3.195-0.178-6.408,0.42-9.596c0.221-1.18,0.508-2.285,1.137-3.301
			c1.184-1.91,2.326-3.846,3.562-5.72c0.586-0.884,1.236-1.786,2.051-2.438c1.109-0.887,2.004-1.935,2.814-3.054
			c1.545-2.138,3.545-3.693,5.883-4.84c2.221-1.088,4.271-2.416,6.23-3.929c1.002-0.773,2.141-1.441,3.318-1.897
			c3.682-1.428,7.4-2.756,11.121-4.077c1.898-0.674,3.51,0.289,3.668,2.31c0.174,2.236,0.127,4.49,0.15,6.736
			c0.004,0.481-0.297,0.798-0.793,0.805c-1.391,0.021-2.785-0.054-4.17,0.038c-1.164,0.076-2.314,0.345-3.475,0.51
			c-0.879,0.126-1.639,0.508-2.281,1.092c-1.928,1.745-4.168,3.008-6.502,4.078c-2.662,1.222-4.898,3.023-7.129,4.854
			c-1.365,1.121-2.211,2.529-2.658,4.269c-0.828,3.23-1.449,6.475-1.203,9.819c0.5,6.764,2.611,12.962,6.742,18.387
			c1.908,2.506,4.357,4.417,7.199,5.779c3.99,1.912,8.176,3.128,12.623,3.324c2.121,0.094,4.232,0.695,6.365,0.137
			c0.996,0.307,1.893-0.21,2.807-0.405c1.824-0.393,2.062-0.704,2.086-2.633c0.031-2.781,0.014-5.566-0.086-8.347
			c-0.043-1.232,0.115-2.316,0.924-3.287c0.775-0.934,1.135-2.043,1.211-3.255c0.09-1.391-0.195-2.483-1.674-3.098
			c-1.049-0.434-1.176-0.924-0.852-2.053c0.623-2.155,1.307-4.292,1.953-6.44c0.434-1.432,0.848-2.869,1.271-4.303
			c0.092-0.308,0.23-0.604,0.293-0.916c0.301-1.511-0.074-2.152-1.723-2.852c-0.488-0.206-0.666-0.465-0.48-0.956
			c1.018-2.698,2.061-5.389,3.047-8.1c0.438-1.202,0.809-2.434,1.121-3.674c0.213-0.844,0.125-1.686-0.408-2.455
			c-0.543-0.785-1.58-0.96-2.178-0.256c-0.482,0.565-0.869,1.211-1.316,1.811c-0.339,0.459-0.7,0.904-1.054,1.354
			c0,0.066,0.003,0.133,0.001,0.199c-0.064,0.024-0.128,0.05-0.188,0.079c-0.044,0.073-0.089,0.145-0.132,0.218
			c0.02-0.065,0.02-0.155,0.062-0.189c0.02-0.015,0.047-0.019,0.069-0.029c0.033-0.056,0.066-0.111,0.101-0.167
			c0.029-0.037,0.058-0.074,0.087-0.111c-0.002-0.579-0.07-1.176,0.079-1.713c1.338-4.835,1.986-9.836,3.531-14.62
			c0.066-0.202,0.117-0.413,0.145-0.624c0.072-0.555,0.008-1.099-0.486-1.431c-0.484-0.324-1.078-0.299-1.5,0.056
			c-0.648,0.544-1.244,1.167-1.779,1.824c-0.328,0.406-0.461,0.965-0.756,1.405c-0.309,0.458-0.312,1.165-1.02,1.313
			c0.033-0.518,0.006-1.047,0.109-1.548c0.85-4.077,1.734-8.145,2.576-12.222c0.17-0.831,0.246-1.689,0.285-2.539
			c0.033-0.719-0.445-1.161-1.041-1.487c-0.617-0.339-1.396-0.237-1.697,0.355c-0.629,1.234-1.168,2.511-1.756,3.767
			c-0.043,0.09-0.145,0.148-0.221,0.222c-0.104-0.115-0.289-0.226-0.297-0.347c-0.301-5.542-1.039-4.113,3.371-6.727
			c2.301-1.362,4.639-2.661,6.961-3.987c0.557-0.318,1.111-0.643,1.676-0.944c0.469-0.25,0.875-0.035,0.857,0.475
			C73.587,17.956,73.444,21.697,73.298,25.438z M105.181,55.692c-3.273,1.002-6.416,2.286-9.305,4.157
			c-0.529,0.343-1.156,0.549-1.76,0.75c-0.275,0.091-0.777,0.129-0.871-0.011c-0.207-0.313-0.375-0.793-0.289-1.136
			c0.709-2.793,1.5-5.564,2.215-8.354c0.127-0.49,0.131-1.073-0.01-1.556c-0.309-1.073-1.512-1.798-2.527-1.339
			c-1.252,0.564-2.498,0.488-3.771,0.47c-2.674-0.038-5.348-0.103-8.021-0.168c-1.115-0.026-1.371-0.257-1.4-1.26
			c-0.023-0.963-0.004-1.926-0.004-2.89c0-0.855-0.018-1.711,0.004-2.567c0.029-1.234,0.336-1.568,1.488-1.564
			c1.176,0.004,2.352,0.051,3.527,0.107c0.422,0.021,0.938-0.01,1.24,0.214c1.498,1.102,3.223,1.051,4.93,1.075
			c1.248,0.019,2.209,0.71,3.277,1.185c1.322,0.589,2.527-0.025,3.021-1.452c0.141-0.401,0.244-0.817,0.33-1.234
			c0.277-1.358,0.531-2.721,0.816-4.077c0.062-0.306,0.197-0.599,0.322-0.887c0.039-0.088,0.152-0.203,0.227-0.202
			c0.172,0.002,0.459,0.023,0.498,0.119c1.66,4.05,3.336,8.097,4.93,12.174c0.938,2.396,1.354,4.934,1.729,7.47
			C105.841,55.175,105.649,55.549,105.181,55.692z"/>
	</g>
</g>
</svg>
