<?xml version="1.0" encoding="utf-8"?>
<!-- Generator: Adobe Illustrator 16.0.0, SVG Export Plug-In . SVG Version: 6.00 Build 0)  -->
<!DOCTYPE svg PUBLIC "-//W3C//DTD SVG 1.1//EN" "http://www.w3.org/Graphics/SVG/1.1/DTD/svg11.dtd">
<svg version="1.1" id="Layer_1" xmlns="http://www.w3.org/2000/svg" xmlns:xlink="http://www.w3.org/1999/xlink" x="0px" y="0px"
	 width="120px" height="120px" viewBox="0 0 120 120" style="enable-background:new 0 0 120 120;" xml:space="preserve">
<g id="netlog">
	<g>
		<path style="fill-rule:evenodd;clip-rule:evenodd;" d="M108.997,62.081c-0.17-2.867-0.389-6.704-0.637-10.538
			c-0.043-0.633-0.182-1.27-0.357-1.881c-1.461-5.09-3.682-9.839-7.057-13.917c-2.322-2.807-4.4-5.782-6.643-8.64
			c-2.77-3.531-5.645-6.954-9.619-9.303c-1.875-1.108-3.887-1.744-5.883-2.476c-5.357-1.964-10.877-3.068-16.609-2.921
			c-0.428,0.011-0.855,0.033-1.283,0.009c-3.137-0.178-6.16,0.417-9.162,1.243c-1.85,0.507-3.727,0.915-5.586,1.388
			c-0.41,0.104-0.807,0.272-1.195,0.442c-2.742,1.202-5.418,2.507-7.938,4.163c-3.67,2.413-7.16,5.039-10.516,7.871
			c-3.068,2.59-5.518,5.65-7.566,9.063c-0.936,1.557-1.928,3.084-2.76,4.692c-1.178,2.277-2.367,4.565-3.297,6.948
			c-0.691,1.773-0.977,3.705-1.441,5.565c0.215,4.263-0.781,8.48-0.275,12.783c0.334,2.853,0.361,5.746,0.891,8.592
			c0.586,3.154,1.154,6.322,2.543,9.234c1.84,3.855,3.713,7.702,5.758,11.449c1.85,3.388,4.268,6.4,6.918,9.211
			c0.889,0.94,1.885,1.717,3.193,2.044c2.676,0.668,5.268,1.044,7.461-1.249c0.51-0.531,1.234-0.85,1.783-1.352
			c3.658-3.349,7.943-5.78,12.135-8.348c2.43-1.488,5.062-2.244,7.918-2.223c2.674,0.02,5.35,0.009,8.025,0.042
			c2.68,0.033,5.299,0.565,7.93,1.016c1.496,0.256,2.824,0.845,4.148,1.597c2.033,1.155,4.146,2.191,6.303,3.104
			c1.375,0.583,2.744,1.08,3.986,1.978c1.408,1.02,3.09,1.435,4.863,1.251c1.5-0.155,2.65-0.829,3.223-2.273
			c0.395-0.99,0.822-1.984,1.059-3.017c0.809-3.551,2.307-6.871,3.426-10.316c0.723-2.221,2.008-4.254,2.816-6.452
			c0.844-2.299,1.434-4.691,2.105-7.052c0.32-1.125,0.551-2.275,0.857-3.405C109.171,67.983,108.751,65.507,108.997,62.081z
			 M98.063,73.521c-0.176,0.726-0.33,1.474-0.641,2.146c-2.139,4.651-3.828,9.518-6.586,13.874
			c-0.227,0.361-0.406,0.761-0.676,1.086c-0.271,0.325-0.607,0.523-1.113,0.394c-3.098-0.799-6.199-1.575-9.309-2.337
			c-7.434-1.824-15.002-2.306-22.59-1.673c-5.426,0.453-10.77,1.538-15.607,4.342c-1.865,1.08-3.531,2.395-5.18,3.754
			c-0.869,0.717-1.016,0.729-1.846-0.155c-0.727-0.777-1.457-1.575-2.029-2.465c-2.91-4.505-5.15-9.344-7.07-14.344
			c-0.471-1.222-0.701-2.452-0.721-3.747c-0.023-1.49,0.07-2.983-0.412-4.448c-0.193-0.587-0.123-1.271-0.125-1.909
			c-0.014-3.743-0.059-7.486-0.006-11.229c0.062-4.786,1.428-9.27,3.564-13.496c1.25-2.474,2.781-4.816,4.555-6.961
			c1.635-1.976,3.367-3.854,5.596-5.229c2.18-1.347,4.277-2.827,6.408-4.254c0.531-0.355,1.107-0.67,1.561-1.109
			c2.688-2.595,5.977-3.58,9.609-3.644c2.137-0.037,4.277-0.007,6.416-0.007v-0.053c2.137,0,4.275-0.008,6.414,0.002
			c2.959,0.013,5.705,0.587,7.998,2.677c0.938,0.857,2.08,1.496,3.146,2.206c0.441,0.293,0.932,0.732,1.396,0.728
			c1.465-0.017,2.303,0.929,3.262,1.776c2.178,1.925,3.998,4.148,5.701,6.49c0.877,1.206,1.848,2.347,2.807,3.487
			c2.014,2.389,3.59,4.986,4.672,7.958c0.998,2.733,1.598,5.439,1.725,8.361c0.098,2.225,0.369,4.457,0.459,6.7
			C99.595,66.22,98.946,69.882,98.063,73.521z M74.874,55.103c-3.338-4.179-7.512-6.911-12.959-7.426
			c-0.635-0.06-1.264-0.196-1.896-0.287c-3.664-0.527-6.994,0.218-9.938,2.544c-0.664,0.522-1.414,0.95-2.166,1.339
			c-1.918,0.991-3.07,2.567-3.789,4.562c-0.67,1.855-0.705,3.767-0.605,5.692c0,1.069-0.129,2.157,0.029,3.201
			c0.291,1.893,0.734,3.763,1.15,5.634c1.143,5.127,4.5,8.139,9.414,9.427c4.781,1.254,9.303,0.437,13.449-2.312
			c2.24-1.486,4.176-3.28,5.896-5.358c3.002-3.624,3.836-7.795,3.312-12.312C76.575,58.104,75.972,56.476,74.874,55.103z
			 M69.687,65.834c-1.217,2.553-3.268,4.463-5.658,5.978c-0.449,0.284-0.82,0.201-1.027-0.259c-0.084-0.19-0.047-0.456-0.166-0.609
			c-0.721-0.932-0.875-1.832-0.074-2.82c0.254-0.312,0.402-0.765,0.453-1.17c0.072-0.578-0.312-0.988-0.744-1.328
			c-0.359-0.281-0.752-0.364-1.188-0.18c-1.131,0.479-1.805,1.471-2.621,2.308c-0.559,0.574-0.733,1.516-1.627,1.77
			c-0.007,0.025-0.016,0.05-0.023,0.075c-0.026,0.009-0.052,0.018-0.077,0.027c-0.059,0.156-0.116,0.312-0.175,0.47
			c-0.094-0.103-0.191-0.207-0.287-0.31c0.154-0.054,0.308-0.107,0.462-0.16c0.009-0.026,0.019-0.052,0.028-0.077
			c0.026-0.006,0.046-0.019,0.072-0.025c0.802-3.053,2.62-5.479,4.77-7.699c0.295-0.304,0.693-0.562,0.846-0.927
			c0.146-0.346,0.148-0.846,0.014-1.2c-0.201-0.521-0.707-0.84-1.279-0.769c-1.334,0.165-2.363,0.948-3.293,1.843
			c-0.611,0.59-1.121,1.285-1.697,1.911c-0.088,0.096-0.299,0.078-0.453,0.113c-0.012-0.199-0.092-0.429-0.023-0.597
			c0.709-1.723,1.887-3.08,3.367-4.187c0.338-0.253,0.748-0.409,1.08-0.67c0.678-0.535,0.521-1.733-0.258-2.191
			c-0.805-0.472-1.65-0.477-2.453-0.09c-0.566,0.274-1.047,0.728-1.586,1.068c-0.295,0.188-0.604,0.772-0.977,0.158
			c-0.137-0.227-0.078-0.621-0.006-0.915c0.162-0.682,0.623-1.163,1.318-1.216c3.641-0.274,7.26-0.413,10.535,1.689
			C71.589,58.827,71.806,61.385,69.687,65.834z"/>
	</g>
</g>
</svg>
