<?xml version="1.0" encoding="utf-8"?>
<!-- Generator: Adobe Illustrator 16.0.0, SVG Export Plug-In . SVG Version: 6.00 Build 0)  -->
<!DOCTYPE svg PUBLIC "-//W3C//DTD SVG 1.1//EN" "http://www.w3.org/Graphics/SVG/1.1/DTD/svg11.dtd">
<svg version="1.1" id="Layer_1" xmlns="http://www.w3.org/2000/svg" xmlns:xlink="http://www.w3.org/1999/xlink" x="0px" y="0px"
	 width="120px" height="120px" viewBox="0 0 120 120" style="enable-background:new 0 0 120 120;" xml:space="preserve">
<g id="orkut">
	<g>
		<path style="fill-rule:evenodd;clip-rule:evenodd;" d="M109.266,52.631c-0.193-1.587-0.475-3.165-0.77-4.737
			c-0.336-1.779-0.596-3.588-1.125-5.312c-1.965-6.364-5.527-11.764-10.229-16.44c-2.273-2.262-4.557-4.519-6.871-6.74
			c-0.844-0.812-1.762-1.561-2.705-2.255c-2.336-1.716-4.869-3.12-7.529-4.242c-3.641-1.533-7.309-3.025-11.346-3.184
			c-0.418-0.017-0.855-0.123-1.238-0.289c-1.219-0.524-2.494-0.511-3.783-0.542c-5.495-0.134-10.825,0.981-16.161,2.078
			c-1.254,0.258-2.512,0.491-3.762,0.771c-1.668,0.373-3.332,0.77-4.713,1.886c-1.09,0.882-2.375,1.409-3.645,1.987
			c-3.725,1.696-7.15,3.842-9.943,6.906c-1.297,1.422-2.699,2.75-4.01,4.16c-1.6,1.722-3.238,3.418-4.705,5.25
			c-1.473,1.839-2.652,3.881-3.309,6.186c-0.846,2.974-1.762,5.929-2.566,8.914c-0.328,1.228-0.566,2.506-0.641,3.773
			c-0.418,7.448,0.682,14.7,2.945,21.792c1.533,4.798,3.764,9.309,5.695,13.941c1.119,2.687,2.715,5.082,4.406,7.431
			c4.344,6.028,9.762,10.745,16.621,13.721c2.275,0.988,4.631,1.602,7.145,1.511c0.848-0.031,1.773-0.111,2.535,0.176
			c2.129,0.805,4.35,1.021,6.561,1.402c3.654,0.627,7.254,0.373,10.817-0.452c1.549-0.358,3.121-0.883,4.33-1.999
			c0.91-0.842,1.984-1.297,3.125-1.527c3.055-0.615,5.949-1.717,8.861-2.764c2.838-1.02,5.406-2.507,7.723-4.482
			c1.863-1.592,3.93-2.945,5.865-4.457c1.004-0.785,2.029-1.589,2.848-2.553c1.455-1.71,2.678-3.594,3.664-5.633
			c2.482-5.135,4.152-10.527,5.148-16.126c0.693-3.889,1.42-7.782,1.389-11.782C109.689,56.874,109.523,54.747,109.266,52.631z
			 M104.27,60.992c-1.248,6.959-3.234,13.696-5.617,20.33c-0.324,0.901-0.77,1.764-1.221,2.613c-0.494,0.93-0.934,1.857-2.055,2.343
			c-0.607,0.263-1.031,1.04-1.445,1.647c-0.684,1-1.51,1.814-2.652,2.235c-2.244,0.825-4.094,2.295-5.988,3.675
			c-1.225,0.892-2.521,1.564-3.939,2.096c-4.098,1.539-8.209,2.998-12.535,3.803c-2.191,0.406-4.295,1.17-6.553,1.4
			c-1.336,0.137-2.526-0.133-3.764-0.361c-0.457-0.084-0.66-0.545-0.562-1.006c0.109-0.519,0.305-1.02,0.463-1.527
			c0.162-0.51,0.367-1.01,0.482-1.528c0.244-1.085-0.322-2.413-1.137-2.769c-0.957-0.416-2.197-0.152-2.934,0.645
			c-1.041,1.126-1.623,2.492-2.074,3.936c-0.311,0.986-0.617,1.172-1.605,1.113c-0.316-0.02-0.689-0.012-0.932-0.173
			c-0.324-0.218-0.783-0.594-0.775-0.891c0.033-1.167,0.176-2.337,0.373-3.49c0.199-1.141-0.154-2.177-0.736-3.032
			c-0.861-1.266-2.43-1.888-3.74-0.277c-0.393,0.482-0.672,1.088-0.887,1.68c-0.326,0.9-0.547,1.838-0.824,2.758
			c-0.193,0.639-0.615,0.852-1.205,0.592c-0.684-0.3-1.363-0.576-1.541-1.465c-0.104-0.513-0.357-1.012-0.621-1.473
			c-0.611-1.061-1.57-1.314-2.66-0.592c-0.602,0.398-1.074,0.62-1.717,0.178c-0.527-0.363-1.096-0.667-1.637-1.01
			c-1.002-0.637-1.451-1.387-0.998-2.674c0.385-1.092,0.467-2.307,0.088-3.477c-0.377-1.16-1.857-1.555-2.846-0.738
			c-0.244,0.203-0.432,0.472-0.652,0.705c-0.072,0.077-0.158,0.143-0.244,0.205c-0.357,0.253-0.58-0.004-0.779-0.236
			c-0.504-0.596-0.799-1.266-0.617-2.068c0.096-0.416,0.188-0.835,0.33-1.236c0.57-1.609,1.18-3.205,1.73-4.822
			c0.236-0.697,0.445-1.424,0.52-2.152c0.105-1.058-0.383-1.812-1.162-2.055c-0.852-0.266-1.686,0.011-2.221,0.836
			c-0.521,0.807-0.992,1.649-1.438,2.501c-0.395,0.757-0.713,1.554-1.096,2.315c-0.086,0.17-0.293,0.32-0.477,0.391
			c-0.402,0.152-0.529-0.193-0.686-0.457c-0.217-0.368-0.459-0.725-0.637-1.111c-0.221-0.487-0.43-0.967,0.316-1.285
			c0.947-0.408,1.432-1.25,1.75-2.188c1.24-3.652,2.889-7.124,4.633-10.555c0.4-0.793,0.531-1.612,0.383-2.486
			c-0.215-1.232-1.713-1.922-2.725-1.199c-0.514,0.366-0.988,0.824-1.381,1.321c-1.324,1.679-2.615,3.385-3.502,5.354
			c-0.174,0.383-0.418,0.744-0.682,1.074c-0.07,0.09-0.465,0.072-0.477,0.033c-0.326-1.105-0.969-2.174-0.521-3.393
			c0.586-1.603,1.092-3.242,1.805-4.787c1.389-3.012,3.035-5.887,5.002-8.571c0.307-0.416,0.547-0.915,0.68-1.412
			c0.143-0.531-0.039-1.06-0.463-1.452c-0.426-0.396-0.918-0.469-1.479-0.286c-1.053,0.341-1.916,0.952-2.596,1.806
			c-0.998,1.251-1.957,2.532-2.955,3.784c-0.117,0.147-0.371,0.265-0.555,0.252c-0.115-0.007-0.291-0.269-0.311-0.432
			c-0.146-1.295,0.047-2.521,0.551-3.753c1.742-4.273,3.857-8.341,6.531-12.102c0.861-1.213,1.801-2.396,2.854-3.443
			c0.979-0.971,1.34-1.903,0.543-3.098c-0.365-0.548-0.232-1.004,0.182-1.418c2.893-2.897,6.195-5.249,9.787-7.183
			c2.068-1.114,4.205-2.1,6.309-3.152c1.525-0.764,3.062-1.509,4.561-2.324c1.055-0.575,2.123-0.938,3.348-0.911
			c2.246,0.05,4.494,0.015,6.739,0.015v0.214c2.352,0,4.703-0.022,7.053,0.015c0.625,0.01,1.271,0.129,1.867,0.325
			c2.941,0.965,5.883,1.933,8.789,2.991c0.887,0.322,1.744,0.839,2.479,1.433c2.492,2.015,4.926,4.107,7.385,6.164
			c0.738,0.617,1.416,1.353,2.246,1.801c3.262,1.758,5.287,4.66,7.031,7.723c2.217,3.9,4.223,7.959,5.258,12.349
			C104.359,53.316,104.973,57.087,104.27,60.992z M82.523,43.197c-2.178-3.076-4.791-5.729-7.854-7.943
			c-3.127-2.262-6.494-3.566-10.459-3.223c-2.121,0.184-4.327,0.282-6.393-0.113c-2.535-0.485-4.906-0.05-7.27,0.526
			c-2.711,0.661-5.254,1.804-7.357,3.733c-2.684,2.465-5.188,5.074-7.043,8.26c-1.51,2.595-2.732,5.31-3.68,8.151
			c-1.141,3.42-1.293,6.977-0.75,10.462c1.602,10.254,9.436,18.867,17.158,22.173c1.873,0.802,3.809,1.345,5.852,1.524
			c0.84,0.074,1.709,0.164,2.498,0.444c2.26,0.802,4.586,0.95,6.959,1.068c1.586-0.191,3.184-0.308,4.752-0.59
			c3.355-0.603,6.154-2.382,8.754-4.465c1.332-1.065,2.475-2.317,3.199-3.945c0.375-0.844,1.082-1.57,1.738-2.254
			c2.863-2.981,4.59-6.657,6.355-10.31c0.139-0.283,0.205-0.607,0.264-0.92c0.939-4.971,0.422-9.762-1.803-14.333
			C86.037,48.557,84.381,45.815,82.523,43.197z M82.502,59.786c-0.352,2.201-0.324,4.457-0.83,6.665
			c-1.289,5.623-3.986,10.337-8.637,13.828c-0.756,0.567-1.639,1.019-2.529,1.345c-4.668,1.709-9.43,1.601-14.209,0.547
			c-0.619-0.135-1.262-0.35-1.787-0.691c-2.418-1.574-4.824-3.166-7.18-4.828c-2.361-1.666-3.521-4.27-4.893-6.672
			c-2.113-3.711-3.129-7.711-2.85-12.026c0.174-1.912,0.256-3.837,0.541-5.732c0.469-3.123,1.768-5.918,3.654-8.448
			c1.088-1.457,2.146-2.935,3.201-4.415c0.58-0.815,1.332-1.377,2.293-1.655c1.025-0.296,2.031-0.732,3.078-0.857
			c3.701-0.446,7.385-1.149,11.157-0.38c1.293,0.262,2.463,0.614,3.553,1.32c3.691,2.391,7.258,4.906,9.943,8.495
			c1.344,1.792,2.924,3.407,4.344,5.145c0.393,0.478,0.828,1.103,0.844,1.67C82.256,55.322,82.865,57.493,82.502,59.786z"/>
	</g>
</g>
</svg>
