<?xml version="1.0" encoding="utf-8"?>
<!-- Generator: Adobe Illustrator 16.0.0, SVG Export Plug-In . SVG Version: 6.00 Build 0)  -->
<!DOCTYPE svg PUBLIC "-//W3C//DTD SVG 1.1//EN" "http://www.w3.org/Graphics/SVG/1.1/DTD/svg11.dtd">
<svg version="1.1" id="Layer_1" xmlns="http://www.w3.org/2000/svg" xmlns:xlink="http://www.w3.org/1999/xlink" x="0px" y="0px"
	 width="120px" height="120px" viewBox="0 0 120 120" style="enable-background:new 0 0 120 120;" xml:space="preserve">
<g id="vkontakte">
	<g>
		<path style="fill-rule:evenodd;clip-rule:evenodd;" d="M117.869,85.607c-0.377-0.756-0.908-1.441-1.422-2.119
			c-1.166-1.529-2.355-3.039-3.547-4.549c-1.854-2.35-3.604-4.793-5.602-7.012c-2.979-3.307-5.107-7.102-7.004-11.07
			c-0.473-0.99-0.311-1.785,0.322-2.664c1.75-2.428,3.508-4.857,5.105-7.385c3.771-5.962,7.453-11.98,11.162-17.98
			c0.336-0.544,0.678-1.101,0.908-1.691c0.717-1.816,0.035-3.358-1.762-4.224c-0.9-0.435-1.846-0.491-2.814-0.489
			c-6.848,0-13.697-0.041-20.545,0.017c-1.807,0.015-3.609,0.356-5.418,0.499c-1.318,0.102-2.154,0.869-2.787,1.912
			c-0.271,0.449-0.412,0.979-0.605,1.475c-0.967,2.502-2.205,4.869-3.637,7.132c-2.117,3.343-4.264,6.663-6.406,9.987
			c-0.578,0.898-1.172,1.787-1.781,2.663c-0.113,0.161-0.328,0.313-0.512,0.335c-0.104,0.01-0.309-0.246-0.342-0.406
			c-0.213-1.047-0.404-2.098-0.578-3.15c-0.436-2.631-0.877-5.26-1.285-7.894c-0.523-3.372-1.488-6.681-1.434-10.136
			c0.004-0.314-0.047-0.643-0.137-0.947c-0.312-1.075-0.846-1.885-2.062-2.205c-1.35-0.354-2.666-0.704-4.084-0.679
			c-3.532,0.063-7.067-0.028-10.594,0.106c-2.232,0.084-4.469,0.391-6.678,0.75c-0.92,0.15-1.795,0.66-2.654,1.078
			c-0.691,0.336-0.982,1.216-0.691,1.922c0.162,0.389,0.412,0.741,0.611,1.115c1.361,2.561,2.463,5.227,3.01,8.079
			c0.322,1.675,0.525,3.378,0.682,5.076c0.299,3.218-0.037,6.409-0.594,9.573c-0.145,0.827-0.541,1.613-0.85,2.408
			c-0.16,0.408-0.693,0.531-1.045,0.236c-1.883-1.58-3.791-3.131-5.617-4.775c-1.52-1.369-2.693-3.01-3.537-4.908
			c-0.516-1.163-1.227-2.252-1.941-3.312c-2.477-3.672-4.461-7.529-4.918-12.029c-0.111-1.094-0.906-1.68-1.914-1.896
			c-0.617-0.135-1.275-0.113-1.916-0.117c-2.354-0.012-4.709-0.004-7.062-0.004v0.074c-2.033,0-4.078,0.141-6.096-0.037
			c-2.328-0.206-4.412,0.589-6.549,1.203c-1.273,0.365-1.604,1.185-1.186,2.48c0.82,2.537,1.621,5.082,2.432,7.623
			c1.625,5.096,3.547,10.074,5.988,14.842c2.389,4.67,5.164,9.105,8.115,13.441c3.023,4.439,6.412,8.559,10.375,12.188
			c4.709,4.312,9.979,7.66,16.205,9.406c2.688,0.756,5.424,1.184,8.168,1.545c2.797,0.367,5.453,1.021,7.78,2.68
			c0.924,0.658,1.951,0.895,3.037,0.76c0.5-0.062,1.127-0.248,1.422-0.605c1.018-1.23,2.016-2.502,2.816-3.877
			c0.402-0.688,0.619-1.682,0.463-2.445c-0.207-1.023-0.002-1.887,0.275-2.809c0.705-2.35,1.367-4.713,2.109-7.053
			c0.221-0.703,0.625-1.348,0.973-2.006c0.199-0.373,0.814-0.338,1.039,0.041c0.164,0.271,0.346,0.537,0.477,0.824
			c0.346,0.773,0.492,1.719,1.035,2.303c1.527,1.643,2.506,3.398,2.344,5.73c-0.062,0.914,0.549,1.691,1.484,1.85
			c1.926,0.328,2.904,1.619,3.547,3.26c0.537,1.371,1.561,2.383,2.721,3.043c1.061,0.602,2.418,0.6,3.145,1.885
			c0.166,0.291,0.986,0.328,1.49,0.285c1.164-0.098,2.318-0.461,3.475-0.453c2.061,0.016,4.027-0.42,6.002-0.893
			c0.826-0.197,1.654-0.418,2.494-0.529c1.902-0.252,3.842-0.307,5.715-0.689c2.295-0.469,4.629-0.689,6.898-1.367
			c1.723-0.514,2.686-1.652,3.602-2.975C118.219,87.289,118.266,86.408,117.869,85.607z M109.826,84.633
			c-0.104,0.023-0.207,0.053-0.312,0.066c-4.658,0.602-9.262,1.514-13.85,2.504c-0.521,0.113-1.066,0.107-1.592,0.203
			c-1.611,0.287-2.936-0.01-3.742-1.619c-0.182-0.363-0.557-0.654-0.898-0.908c-1.314-0.971-1.99-2.189-1.619-3.865
			c0.043-0.201-0.01-0.426-0.039-0.637c-0.141-1.088-1.254-1.613-2.066-0.854c-0.584,0.545-0.998,0.705-1.619,0.213
			c-0.586-0.465-1.176-0.922-1.766-1.383c-0.633-0.494-0.955-1.109-0.867-1.943c0.055-0.527,0.098-1.09-0.033-1.59
			c-0.09-0.352-0.424-0.721-0.75-0.908c-0.42-0.242-0.83,0.039-1.076,0.408c-0.242,0.363-0.514,0.846-0.939,0.613
			c-0.426-0.23-0.789-0.709-1.002-1.164c-0.166-0.352-0.135-0.846-0.059-1.252c0.117-0.623,0.383-1.219,0.521-1.84
			c0.131-0.582-0.131-1.035-0.639-1.338c-0.498-0.299-1-0.357-1.477,0.035c-0.246,0.203-0.502,0.408-0.697,0.658
			c-0.441,0.562-1.004,0.709-1.693,0.67c-3.951-0.219-3.881,0.189-5.557,3.492c-1.562,3.08-2.234,6.447-3.217,9.715
			c-0.092,0.307-0.102,0.645-0.229,0.932c-0.186,0.422-0.549,0.654-1.02,0.602c-0.422-0.049-0.842-0.139-1.254-0.246
			c-0.814-0.213-1.74-0.279-2.405-0.729c-0.795-0.539-0.328-1.586-0.428-2.408c-0.109-0.908-0.504-1.613-1.256-2.129
			c-0.66-0.449-1.652-0.092-1.791,0.658c-0.039,0.209-0.062,0.42-0.094,0.631c-0.115,0.799,0.361,1.889-0.633,2.281
			c-1,0.396-2.133,0.219-3.1-0.299c-0.312-0.168-0.58-0.664-0.623-1.037c-0.115-0.953-0.041-1.928-0.135-2.883
			c-0.062-0.623-0.229-1.252-0.455-1.838c-0.266-0.695-0.863-1.006-1.516-0.926c-0.643,0.08-1.121,0.596-1.152,1.324
			c-0.047,1.174-0.045,2.35-0.086,3.525c-0.018,0.455-0.465,0.57-0.934,0.359c-0.682-0.307-0.936-0.828-0.951-1.521
			c-0.033-1.818-0.049-3.637-0.111-5.455c-0.021-0.633-0.1-1.277-0.266-1.885c-0.146-0.543-0.586-0.875-1.17-0.951
			c-0.51-0.068-1.006,0.25-1.174,0.871c-0.221,0.818-0.395,1.656-0.51,2.496c-0.119,0.846-0.076,1.717-0.238,2.551
			c-0.064,0.334-0.49,0.602-0.752,0.898c-0.305-0.285-0.668-0.531-0.891-0.871c-0.16-0.244-0.154-0.611-0.178-0.928
			c-0.154-2.129-0.273-4.26-0.453-6.387c-0.053-0.621-0.164-1.277-0.439-1.82c-0.143-0.281-0.695-0.457-1.076-0.48
			c-0.23-0.016-0.613,0.299-0.705,0.547c-0.18,0.488-0.248,1.029-0.283,1.555c-0.107,1.602-0.166,3.205-0.268,4.807
			c-0.033,0.527-0.73,0.83-1.225,0.564c-1.201-0.648-1.969-1.455-1.92-3.02c0.094-2.885-0.049-5.775-0.064-8.664
			c-0.004-0.873-0.062-1.729-0.59-2.447c-0.162-0.219-0.537-0.416-0.795-0.393c-0.271,0.023-0.688,0.279-0.746,0.51
			c-0.338,1.338-0.688,2.688-0.846,4.055c-0.184,1.59-0.15,3.205-0.273,4.803c-0.018,0.223-0.354,0.477-0.6,0.604
			c-0.123,0.062-0.449-0.072-0.557-0.213c-0.312-0.414-0.695-0.846-0.807-1.326c-0.191-0.822-0.258-1.688-0.271-2.535
			c-0.047-3.104-0.049-6.205-0.074-9.306c-0.006-0.533,0.051-1.094-0.096-1.588c-0.102-0.348-0.449-0.701-0.779-0.885
			c-0.453-0.252-0.926,0.119-1.203,0.719c-0.605,1.303-0.574,2.705-0.707,4.086c-0.018,0.193-0.133,0.377-0.203,0.564
			c-0.096-0.183-0.234-0.357-0.277-0.552c-0.721-3.27-0.596-6.574-0.406-9.885c0.029-0.499-0.145-1.028-0.311-1.514
			c-0.137-0.4-0.807-0.469-1.09-0.155c-0.213,0.235-0.516,0.454-0.596,0.732c-0.318,1.122-0.686,2.253-0.816,3.405
			c-0.291,2.545-0.445,5.105-0.676,7.658c-0.016,0.167-0.189,0.431-0.316,0.449c-0.174,0.023-0.416-0.104-0.557-0.238
			c-0.74-0.707-1.016-1.609-1.023-2.609c-0.012-1.926-0.07-3.854-0.02-5.777c0.072-2.77-0.303-5.557,0.404-8.307
			c0.104-0.402-0.26-1.014-0.559-1.412c-0.602-0.799-1.688-0.68-2.094,0.195c-0.543,1.168-0.904,2.379-1.006,3.686
			c-0.148,1.914-0.408,3.82-0.631,5.728c-0.012,0.097-0.123,0.269-0.156,0.262c-0.18-0.04-0.412-0.074-0.514-0.202
			c-0.83-1.033-1.299-2.188-1.207-3.549c0.154-2.236,0.289-4.475,0.404-6.713c0.049-0.957,0.094-1.926,0-2.874
			c-0.033-0.341-0.422-0.804-0.75-0.913c-0.311-0.104-0.863,0.068-1.111,0.317c-0.439,0.442-0.727,1.037-1.09,1.56
			c-0.053,0.074-0.182,0.121-0.281,0.133c-0.051,0.006-0.162-0.09-0.166-0.145c-0.037-0.529-0.113-1.066-0.07-1.592
			c0.137-1.703,0.32-3.401,0.484-5.104c0.096-0.979,0.35-1.221,1.473-1.234c1.926-0.023,3.852-0.01,5.777-0.009
			c0.963,0.001,1.926-0.009,2.889,0.021c0.873,0.027,1.201,0.258,1.359,1.046c0.836,4.16,2.674,7.862,5.059,11.333
			c0.664,0.965,1.301,1.975,1.773,3.041c1.281,2.898,3.215,5.291,5.523,7.398c1.5,1.368,3.043,2.693,4.633,3.955
			c0.658,0.521,1.453,0.916,2.244,1.215c2.123,0.802,4.779-0.104,5.742-2.149c0.523-1.108,1.678-1.759,1.98-2.818
			c0.305-1.069-0.016-2.306,0.027-3.464c0.031-0.85,0.164-1.703,0.326-2.539c0.375-1.938,0.4-1.896,2.344-2.249
			c0.715-0.128,1.416-0.421,2.074-0.743c0.555-0.271,0.49-1.289-0.02-1.652c-0.838-0.598-1.785-0.644-2.76-0.633
			c-0.572,0.008-1.055-0.174-1.174-0.816c-0.211-1.118,0.092-1.98,0.816-2.184c0.611-0.172,1.264-0.191,1.875-0.359
			c0.611-0.166,1.221-0.383,1.775-0.682c0.223-0.119,0.42-0.529,0.398-0.789c-0.021-0.273-0.264-0.619-0.508-0.764
			c-0.354-0.209-0.793-0.348-1.203-0.365c-0.744-0.029-1.492,0.061-2.24,0.086c-0.463,0.016-0.82-0.176-0.965-0.637
			c-0.205-0.66,0-1.605,0.412-1.75c0.906-0.316,1.838-0.562,2.746-0.873c1.344-0.457,1.453-0.758,0.951-2.09
			c-0.18-0.477-0.256-0.992-0.369-1.492c-0.271-1.207-1.176-1.797-2.355-1.471c-0.609,0.17-1.178,0.504-1.791,0.646
			c-0.229,0.053-0.531-0.229-0.803-0.355c0.152-0.246,0.252-0.587,0.473-0.713c0.254-0.143,0.617-0.125,0.934-0.129
			c3.209-0.041,6.418-0.073,9.627-0.104c0.428-0.003,0.859,0,1.283,0.042c1.021,0.103,1.555,0.627,1.676,1.595
			c0.197,1.588,0.367,3.18,0.605,4.76c0.49,3.271,1.043,6.533,1.529,9.805c0.406,2.742,0.756,5.494,1.127,8.24
			c0.045,0.316,0.053,0.643,0.117,0.955c0.273,1.314,1.057,2.098,2.375,2.23c1.994,0.199,3.803-0.191,5.256-1.744
			c1.84-1.967,3.314-4.193,4.668-6.498c1.189-2.027,2.305-4.104,3.334-6.215c0.535-1.1,1.199-1.693,2.463-1.58
			c0.396,0.035,0.816-0.157,1.223-0.264c0.299-0.08,0.396-0.566,0.174-0.795c-0.072-0.076-0.117-0.187-0.201-0.244
			c-0.502-0.35-1.412-0.41-1.359-1.152c0.041-0.572,0.584-1.102,0.873-1.664c0.602-1.168,1.475-1.773,2.848-1.587
			c0.52,0.071,1.068-0.017,1.594-0.091c0.574-0.083,1.033-0.42,1.053-1.021c0.029-0.947,0.541-1.361,1.393-1.387
			c1.209-0.035,2.293-0.262,3.242-1.124c0.334-0.303,1-0.321,1.516-0.331c2.246-0.033,4.494-0.014,6.74-0.014v0.08
			c2.141,0,4.279-0.008,6.42,0.002c1.277,0.006,1.486,0.381,0.756,1.537c-4.848,7.68-9.164,15.701-14.643,22.977
			c-1.719,2.281-1.979,4.659-0.898,7.232c1.703,4.064,3.896,7.828,6.701,11.248c2.303,2.809,4.479,5.723,6.697,8.6
			c0.258,0.334,0.453,0.717,0.66,1.088C110.52,83.941,110.199,84.545,109.826,84.633z"/>
	</g>
</g>
</svg>
