<?xml version="1.0" encoding="utf-8"?>
<!-- Generator: Adobe Illustrator 16.0.0, SVG Export Plug-In . SVG Version: 6.00 Build 0)  -->
<!DOCTYPE svg PUBLIC "-//W3C//DTD SVG 1.1//EN" "http://www.w3.org/Graphics/SVG/1.1/DTD/svg11.dtd">
<svg version="1.1" id="Layer_1" xmlns="http://www.w3.org/2000/svg" xmlns:xlink="http://www.w3.org/1999/xlink" x="0px" y="0px"
	 width="120px" height="120px" viewBox="0 0 120 120" style="enable-background:new 0 0 120 120;" xml:space="preserve">
<g id="odnoklasniki">
	<g>
		<path style="fill-rule:evenodd;clip-rule:evenodd;" d="M96.2,66.683c-0.838-2.779-2.292-5.285-3.733-7.781
			c-0.299-0.516-0.873-1.096-1.412-1.209c-1.773-0.375-3.563-0.588-5.273,0.459c-1.729,1.057-3.549,1.965-5.307,2.977
			c-2.522,1.451-5.15,2.572-8.075,2.924c-1.374,0.166-2.742,0.428-4.095,0.73c-3.938,0.887-7.851,0.58-11.754-0.193
			c-1.463-0.289-2.91-0.658-4.363-0.994c-3.338-0.771-12.625-4.283-16.144-6.105c-2.434-1.26-4.382-0.869-6.416,0.906
			c-2.66,2.322-4.105,5.434-5.733,8.412c-1.29,2.359-0.768,4.809,1.133,6.754c1.27,1.299,2.549,2.598,3.906,3.801
			c2.174,1.93,4.479,3.643,7.549,3.883c0.498,0.039,1.039,0.287,1.447,0.594c1.023,0.764,2,1.596,2.949,2.453
			c0.168,0.152,0.242,0.639,0.127,0.83c-0.436,0.729-0.908,1.455-1.472,2.09c-2.274,2.551-4.597,5.061-6.881,7.604
			c-0.998,1.113-1.944,2.271-2.919,3.404c-0.512,0.594-0.811,1.297-0.75,2.059c0.107,1.379,0.185,2.779,0.512,4.113
			c0.869,3.529,3.225,5.957,6.22,7.812c0.993,0.615,2.078,1.047,2.878,1.975c0.617,0.715,1.537,0.666,2.398,0.58
			c1.657-0.166,3.061-0.992,4.331-1.957c2.043-1.547,3.991-3.219,5.648-5.203c2.535-3.033,5.095-6.045,7.646-9.064
			c0.539-0.639,0.869-0.568,1.455,0.23c1.137,1.549,2.227,3.141,3.461,4.609c2.535,3.025,4.975,6.141,7.947,8.773
			c0.301,0.266,0.471,0.684,0.678,1.043c0.893,1.549,2.043,2.188,3.643,1.865c1.57-0.316,3.09-0.779,4.471-1.672
			c2.359-1.525,4.352-3.438,6.189-5.539c0.727-0.832,1.095-1.82,1.479-2.816c0.37-0.959,0.275-1.842-0.262-2.75
			c-0.816-1.375-1.551-2.799-2.29-4.217c-0.692-1.326-1.415-2.617-2.386-3.783c-1.64-1.969-3.209-3.998-4.756-6.043
			c-0.77-1.016-1.451-2.104-2.118-3.193c-0.255-0.414-0.044-0.881,0.354-1.092c1.609-0.838,3.242-1.627,5.023-2.062
			c4.189-1.025,7.994-2.938,11.736-5.023c1.391-0.775,2.406-1.824,2.915-3.268c0.383-1.084,0.476-2.271,0.683-3.344
			C96.62,68.979,96.535,67.794,96.2,66.683z M88.354,70.188c-5.167,2.787-10.234,5.801-16.021,7.207
			c-0.207,0.051-0.426,0.057-0.631,0.113c-1.248,0.342-2.655,0.65-3.137,1.963c-0.54,1.471-0.951,3.037-0.296,4.666
			c0.887,2.205,2.181,4.164,3.533,6.08c2.218,3.143,4.531,6.217,6.794,9.328c0.504,0.689,0.957,1.416,1.45,2.115
			c0.298,0.42,0.243,0.785-0.124,1.107c-0.48,0.424-0.959,0.855-1.471,1.236c-0.89,0.664-1.455,0.66-2.244-0.166
			c-3.914-4.09-8.133-7.895-11.662-12.354c-0.461-0.58-0.975-1.145-1.552-1.607c-1.119-0.898-2.579-0.971-3.469,0.104
			c-0.851,1.029-1.891,1.578-2.986,2.207c-0.81,0.461-1.452,1.254-2.087,1.971c-2.195,2.482-4.322,5.025-6.541,7.484
			c-1.645,1.824-3.381,3.566-5.104,5.318c-0.189,0.193-0.617,0.371-0.83,0.289c-1.891-0.734-3.822-1.436-5.055-3.205
			c-0.111-0.162-0.132-0.395-0.162-0.6c-0.014-0.098,0.018-0.244,0.085-0.301c0.138-0.113,0.387-0.291,0.46-0.244
			c0.443,0.289,0.832,0.66,1.272,0.953c1.429,0.951,3.106,0.184,3.313-1.521c0.039-0.305-0.033-0.641-0.123-0.943
			c-0.178-0.604,0.152-0.713,0.628-0.717c0.532-0.002,1.067,0.023,1.599-0.008c1.552-0.088,2.904-2.164,1.598-3.9
			c-0.439-0.582-1.061-1.025-1.559-1.57c-0.094-0.104-0.051-0.418,0.035-0.578c0.091-0.168,0.31-0.377,0.473-0.377
			c0.409,0,0.848,0.035,1.223,0.184c1.33,0.535,2.711,0.605,4.103,0.48c1.37-0.123,2.348-1.266,2.345-2.596
			c-0.002-0.941-0.439-1.66-1.193-2.143c-0.624-0.4-1.33-0.668-1.996-1.004c-0.422-0.211-0.658-0.551-0.522-1.025
			c0.196-0.697,0.871-1.232,1.362-1.115c0.31,0.074,0.608,0.188,0.912,0.285c0.609,0.195,1.208,0.432,1.828,0.58
			c1.32,0.318,2.715-0.197,3.393-1.209c0.881-1.311,0.838-2.537-0.165-3.842c-0.191-0.25-0.423-0.516-0.698-0.646
			c-0.757-0.359-0.673-0.791-0.455-1.521c0.418-1.406,0.011-2.262-1.185-2.973c-1.418-0.844-2.949-1.23-4.593-0.957
			c-1.422,0.484-2.593-0.102-3.521-1.016c-1.482-1.461-3.261-2.408-5.084-3.303c-2.418-1.184-4.527-2.824-6.653-4.439
			c-0.745-0.566-0.821-0.982-0.485-1.969c0.24-0.705,0.506-1.402,0.782-2.092c0.16-0.4,0.656-0.512,1.063-0.248
			c0.447,0.291,0.924,0.553,1.316,0.906c3.939,3.551,8.727,5.303,13.785,6.383c3.656,0.781,7.398,0.994,11.127,1.258
			c4.423,0.316,8.725-0.418,13.012-1.367c3.569-0.793,6.978-1.98,10.1-3.926c0.631-0.395,1.299-0.762,2-0.994
			c0.328-0.107,1.008,0.016,1.123,0.242c0.528,1.031,0.947,2.125,1.318,3.229C88.848,69.599,88.583,70.065,88.354,70.188z
			 M37.219,49.81c3.311,3.646,7.246,6.297,11.666,8.289c3.157,1.422,6.438,2.223,9.965,1.547c1.137-0.219,2.343-0.094,3.518-0.107
			c1.496-0.018,2.963-0.098,4.442-0.475c4.675-1.188,8.681-3.553,12.197-6.77c1.574-1.439,2.94-3.105,4.468-4.6
			c1.741-1.701,2.703-3.811,3.438-6.066c0.707-2.172,0.744-4.41,0.665-7.186c0-0.861,0.195-2.285-0.034-3.635
			c-0.947-5.562-3.398-10.523-6.391-15.24c-0.225-0.354-0.583-0.621-0.871-0.936c-2.128-2.326-4.738-3.977-7.537-5.357
			c-1.915-0.945-3.838-1.879-5.757-2.818c-1.846-0.906-3.802-1.412-5.847-1.537c-4.658-0.279-9.149,0.494-13.48,2.225
			c-0.792,0.316-1.58,0.654-2.393,0.908c-4.691,1.463-8.168,4.5-11.035,8.377c-1.486,2.012-2.33,4.281-3.124,6.623
			c-1.11,3.279-1.63,6.664-1.718,10.064c-0.074,2.879,0.676,5.711,1.942,8.357C32.824,44.587,34.895,47.247,37.219,49.81z
			 M40.869,34.481c1.092-0.668,2.268-1.221,3.287-1.984c1.488-1.115,1.413-3.139-0.061-4.408c-0.158-0.137-0.39-0.186-0.557-0.314
			c-0.662-0.51-0.665-0.57-0.117-1.178c0.285-0.314,0.642-0.586,0.85-0.945c0.691-1.193,0.369-2.584-0.76-3.381
			c-0.344-0.242-0.762-0.379-1.105-0.623c-0.096-0.068-0.121-0.457-0.045-0.512c0.692-0.498,1.434-0.926,2.121-1.43
			c0.684-0.5,1.375-1.008,1.967-1.607c0.675-0.684,0.584-1.576-0.176-2.25c-0.393-0.348-0.885-0.582-1.307-0.898
			c-0.038-0.027,0.068-0.395,0.158-0.42c0.498-0.141,1.018-0.328,1.52-0.303c1.172,0.055,2.335,0.285,3.508,0.326
			c1.65,0.061,2.039-0.26,2.539-1.82c0.063-0.201,0.039-0.426,0.082-0.635c0.1-0.477,0.437-0.713,0.889-0.764
			c1.488-0.164,2.959-0.328,4.418,0.307c0.55,0.24,1.318,0.348,1.866,0.162c2.945-1.002,5.415,0.039,7.785,1.631
			c0.62,0.416,1.236,0.852,1.79,1.35c1.204,1.086,2.518,1.979,4.035,2.562c1.392,0.537,2.208,1.576,2.759,2.938
			c0.8,1.979,1.746,3.9,2.55,5.877c1.207,2.977,2.182,6.02,2.293,8.615c-0.143,6.041-2.364,10.383-6.774,13.432
			c-1.641,1.135-3.645,1.746-5.493,2.574c-0.17,0.076-0.432,0.059-0.615-0.01c-1.646-0.621-3.193-0.041-4.684,0.494
			c-2.08,0.75-4.141,0.889-6.268,0.354c-0.518-0.131-1.042-0.346-1.561-0.338c-3.484,0.057-5.926-2.186-8.62-3.865
			c-0.258-0.16-0.489-0.436-0.62-0.713c-0.426-0.898-0.994-1.625-1.902-2.094c-0.197-0.102-0.373-0.508-0.34-0.744
			c0.188-1.342-0.336-2.297-1.49-2.912c-0.481-0.256-0.576-0.525-0.314-0.982c0.562-0.988,0.803-2.027,0.066-3.004
			c-0.364-0.484-0.908-0.857-1.428-1.197c-0.371-0.242-0.833-0.346-1.254-0.512C40.195,34.997,40.51,34.704,40.869,34.481z
			 M47.23,37.96c1.217,4.289,4.619,8.152,11.262,6.891c3.722-0.707,6.74-2.621,9.318-5.275c0.723-0.744,1.322-1.705,1.702-2.674
			c1.714-4.379,0.889-8.385-2.073-11.963c-1.021-1.234-2.154-2.4-3.705-2.988c-4.115-1.562-8.201-1.615-11.986,0.805
			c-3.525,2.252-5.848,5.309-5.419,9.863C46.617,34.401,46.739,36.233,47.23,37.96z M54.844,29.728
			c0.211-1.762,0.844-2.412,2.573-2.736c0.417-0.078,0.84-0.131,1.104-0.17c2.539,0.252,4.804,0.736,6.459,2.689
			c1.091,1.289,1.239,3.131,0.109,4.385c-1.064,1.18-2.247,2.279-3.504,3.252c-1.833,1.414-1.881,1.35-3.615-0.232
			c-0.236-0.215-0.48-0.422-0.735-0.617C55.032,34.62,54.533,32.313,54.844,29.728z"/>
	</g>
</g>
</svg>
