<?xml version="1.0" encoding="utf-8"?>
<!-- Generator: Adobe Illustrator 16.0.0, SVG Export Plug-In . SVG Version: 6.00 Build 0)  -->
<!DOCTYPE svg PUBLIC "-//W3C//DTD SVG 1.1//EN" "http://www.w3.org/Graphics/SVG/1.1/DTD/svg11.dtd">
<svg version="1.1" id="Layer_1" xmlns="http://www.w3.org/2000/svg" xmlns:xlink="http://www.w3.org/1999/xlink" x="0px" y="0px"
	 width="120px" height="120px" viewBox="0 0 120 120" style="enable-background:new 0 0 120 120;" xml:space="preserve">
<g id="weibo">
	<g>
		<path style="fill-rule:evenodd;clip-rule:evenodd;" d="M99.977,58.471c-3.883-2.418-8.168-3.983-12.632-4.983
			c-1.021-0.228-2.106-0.166-3.158-0.271c-0.181-0.018-0.5-0.223-0.493-0.324c0.08-1.154,0.252-2.302,0.318-3.457
			c0.145-2.444-0.037-4.889-0.658-7.244c-0.932-3.533-2.362-4.688-5.943-5.2c-1.031-0.148-2.109,0.001-3.164,0.063
			c-1.05,0.062-2.098,0.275-3.147,0.267c-4.917-0.039-9.682,0.723-14.266,2.545c-1.568,0.625-3.147,1.225-4.728,1.826
			c-0.629,0.239-1.118-0.034-1.079-0.641c0.065-1.052,0.186-2.101,0.304-3.149c0.433-3.852-0.099-7.381-3.181-10.146
			c-0.835-0.749-1.721-1.11-2.843-1.179c-1.835-0.11-3.556,0.435-5.331,0.683c-3.319,0.463-6.292,1.72-9.016,3.656
			c-1.549,1.101-3.171,2.105-4.771,3.137c-4.396,2.838-8.277,6.239-11.352,10.503C10.62,50.406,6.893,56.554,3.894,63.117
			c-1.179,2.589-2.053,5.306-2.556,8.143c-0.72,4.069-1.151,8.157-1.313,12.283c0,1.06,0.029,2.119-0.004,3.177
			c-0.089,2.595,0.515,5.017,1.604,7.364c1.529,3.292,3.521,6.271,5.914,8.974c1.408,1.587,3.056,2.885,4.932,3.946
			c2.694,1.523,5.541,2.624,8.481,3.5c3.644,1.086,7.35,1.961,10.952,3.164c3.699,1.236,7.474,1.536,11.269,1.11
			c2.537-0.286,5.062-0.319,7.598-0.407c1.058-0.037,2.138,0.033,3.165-0.173c3.005-0.603,6.004-1.252,8.835-2.481
			c2.229-0.969,4.416-2.039,6.668-2.948c4.999-2.019,9.941-4.17,14.806-6.487c1.237-0.589,2.443-1.276,3.567-2.059
			c3.725-2.593,7.592-5.037,10.185-8.931c0.231-0.349,0.545-0.649,0.854-0.94c1.247-1.172,2.125-2.617,3.086-4.014
			c1.154-1.678,1.645-3.664,2.648-5.401c1.117-1.942,1.777-4.057,2.496-6.157c0.354-1.031,0.465-2.049,0.426-3.116
			C107.295,65.95,104.803,61.477,99.977,58.471z M16.182,95.323c-0.819,0.649-1.667,1.264-2.514,1.878
			c-0.071,0.051-0.205,0.018-0.312,0.023c-0.176-0.102-0.417-0.159-0.522-0.311c-1.668-2.412-1.552-2.191,0.043-3.969
			c0.853-0.949,1.352-1.383,2.265,0.309c0.294,0.548,0.764,1.002,1.107,1.528C16.328,94.904,16.288,95.24,16.182,95.323z
			 M16.211,73.687c-1.677,1.684-2.205,3.744-2.235,6.062c-0.035,2.633-0.268,5.263-0.373,7.895
			c-0.031,0.693-0.221,1.207-0.866,1.539c-0.844,0.434-1.659,0.925-2.496,1.367c-0.169,0.088-0.391,0.067-0.588,0.098
			c-0.086-0.057-0.188-0.096-0.248-0.168c-0.642-0.781-0.412-1.912,0.479-2.342c0.566-0.275,1.182-0.475,1.71-0.81
			c0.456-0.29,0.67-0.796,0.638-1.366c-0.033-0.625-0.499-1.207-1.115-1.385c-0.101-0.029-0.206-0.041-0.31-0.057
			c-0.503-0.075-1.095-0.011-1.497-0.254c-0.632-0.383-0.318-1.145-0.389-1.748c-0.344-3,0.292-5.867,1.236-8.682
			c0.08-0.239,0.516-0.606,0.587-0.566c1.501,0.857,2.884-0.091,4.31-0.237c0.209-0.022,0.424-0.054,0.631-0.028
			c0.197,0.022,0.436,0.062,0.566,0.189C16.33,73.27,16.306,73.592,16.211,73.687z M99.734,70.529
			c-0.251,1.117,0.188,2.25-0.127,3.438c-1.178,4.433-3.303,8.234-6.925,11.108c-1.9,1.509-3.763,3.052-5.579,4.663
			c-2.053,1.815-4.413,3.283-6.654,4.883c-1.377,0.983-2.771,1.946-4.176,2.891c-0.877,0.59-1.742,1.228-2.695,1.666
			c-2.884,1.326-5.771,2.65-8.721,3.806c-1.458,0.571-3.044,0.937-4.6,1.097c-1.706,0.176-3.332,0.534-4.939,1.092
			c-1.396,0.486-2.803,0.969-4.308,1c-0.63,0.014-1.294,0.117-1.882-0.041c-0.75-0.2-0.5-1.064-0.77-1.602
			c-0.385-0.761-1.216-1.035-1.827-0.537c-0.571,0.466-1.151,0.949-1.612,1.518c-0.659,0.815-1.438,1.15-2.482,1.117
			c-1.317-0.041-1.384-0.062-1.119-1.66c0.11-0.666,0.032-1.253-0.4-1.785c-0.652-0.799-1.515-0.914-2.17-0.191
			c-0.781,0.86-1.479,1.795-2.226,2.687c-0.383,0.456-0.906,0.526-1.442,0.38c-0.278-0.074-0.653-0.183-0.541-0.607
			c0.162-0.606,0.436-1.188,0.541-1.801c0.114-0.672-0.197-1.244-0.754-1.639c-0.576-0.407-1.247-0.439-1.787-0.049
			c-0.939,0.678-1.854,1.408-2.67,2.229c-0.683,0.689-1.417,0.874-2.299,0.658c-0.821-0.199-1.632-0.439-2.443-0.672
			c-0.54-0.156-0.532-0.523-0.415-0.99c0.101-0.403,0.153-0.836,0.134-1.252c-0.037-0.849-1.065-1.46-1.87-1.131
			c-0.389,0.16-0.854,0.282-1.119,0.574c-1.065,1.172-2.163,0.914-3.443,0.363c-2.028-0.87-2.01-1.457-0.485-2.854
			c0.506-0.466,1.088-0.575,1.762-0.385c1.624,0.458,3.277,0.821,4.878,1.344c1.75,0.569,3.534,0.63,5.335,0.612
			c4.341-0.039,8.684-0.12,13.026-0.139c1.727-0.008,3.324-0.559,4.956-0.982c1.33-0.346,2.658-0.689,3.99-1.028
			c2.357-0.601,4.696-1.237,6.941-2.206c1.947-0.842,3.933-1.523,6.124-1.463c0.697,0.02,1.435-0.297,2.107-0.574
			c5.055-2.098,8.987-5.533,11.849-10.174c1.294-2.1,2.006-4.35,1.957-6.912c-0.057-2.988-0.432-5.884-1.184-8.769
			c-0.537-2.06-1.624-3.668-3.368-4.813c-2.823-1.857-5.605-3.814-8.923-4.749c-0.205-0.058-0.43-0.104-0.592-0.225
			c-2.218-1.648-4.763-1.543-7.317-1.377c-0.316,0.021-0.636,0.044-0.953,0.067c0.003,0.016,0.004,0.032,0.004,0.049
			c-4.335,0.194-8.68,0.247-12.999,0.63c-2.931,0.261-5.864,0.829-8.725,1.548c-2.757,0.692-5.487,1.514-8.094,2.752
			c-1.662,0.789-3.102,1.738-4.378,3.053c-1.769,1.821-3.649,3.536-5.483,5.297c-0.34,0.328-0.671,0.48-0.986-0.041
			c-0.556-0.92-1.427-1.146-2.441-1.189c-1.431-0.061-2.697,0.436-3.976,0.959c-0.065,0.027-0.375-0.268-0.35-0.334
			c0.431-1.182,0.827-2.389,1.392-3.51c0.203-0.401,0.797-0.699,1.272-0.852c1.606-0.515,3.245-0.932,4.861-1.408
			c0.706-0.208,1.438-0.389,2.074-0.736c0.487-0.268,0.625-0.895,0.416-1.408c-0.138-0.348-0.479-0.745-0.816-0.857
			c-1.243-0.411-2.554-0.292-3.759,0.066c-0.918,0.273-1.634-0.348-2.471-0.216c-0.066,0.011-0.294-0.35-0.25-0.444
			c0.451-0.954,0.896-1.918,1.454-2.809c0.184-0.291,0.696-0.502,1.071-0.521c1.586-0.076,3.176-0.066,4.763-0.089
			c1.009-0.014,1.866-0.383,2.506-1.16c1.089-1.322,0.888-3.201-0.512-4.206c-0.587-0.419-1.329-0.618-2.002-0.918
			c-0.426-0.19-0.415-0.561-0.052-0.966c0.523-0.587,1.148-0.852,1.938-0.929c1.042-0.103,2.094-0.256,3.1-0.544
			c0.9-0.259,1.388-0.929,1.137-1.95c-0.151-0.606,0.269-0.716,0.697-0.706c1.061,0.023,2.117,0.15,3.174,0.129
			c1.241-0.023,2.316-0.844,2.617-1.951c0.307-1.113-0.009-2.115-0.827-2.904c-0.371-0.357-0.886-0.567-1.33-0.85
			c-0.636-0.401-0.63-0.442-0.201-0.811c1.091-0.94,2.264-1.334,3.771-1.187c2.115,0.207,2.654-0.334,3.076-2.637
			c0.131-0.723,0.428-1.167,1.098-1.366c0.605-0.181,1.213-0.382,1.834-0.474c1.908-0.28,3.009,0.305,3.684,2.143
			c0.355,0.974,0.545,2.054,0.571,3.093c0.113,4.251-0.206,8.459-1.674,12.505c-0.035,0.1-0.079,0.198-0.118,0.296
			c-0.292,0.749-0.309,1.472,0.358,2.025c0.63,0.524,1.407,0.53,2.106,0.232c0.672-0.286,1.285-0.729,1.899-1.135
			c4.083-2.688,8.397-4.92,13.028-6.498c1.092-0.371,2.263-0.515,3.392-0.771c1.03-0.233,2.19-0.251,3.062-0.76
			c1.843-1.075,3.691-0.598,5.559-0.4c0.692,0.073,1.179,0.545,1.396,1.164c0.941,2.646,1.272,5.336,0.404,8.08
			c-0.223,0.706-0.515,1.394-0.679,2.112c-0.199,0.849,0.623,2.107,1.492,2.101c1.807-0.014,3.481,0.989,5.314,0.618
			c5.446,0.937,10.766,2.279,15.533,5.194C98.994,65.18,100.452,67.343,99.734,70.529z M21.529,73.906
			c1.85-2.85,4.212-4.977,7.269-6.348c2.989-1.34,5.909-2.886,9.146-3.57c3.705-0.783,7.361-1.92,11.232-1.683
			c1.478,0.091,2.966,0.015,4.447,0.015v-0.066c0.53-0.028,1.058-0.088,1.588-0.078c2.222,0.038,4.445,0.098,6.667,0.148
			c2.08,1.033,4.176,2.041,6.235,3.113c0.649,0.339,1.212,0.845,1.807,1.282c1.185,0.87,1.778,2.071,1.938,3.504
			c0.07,0.632,0.039,1.281,0.17,1.897c0.173,0.816,0.284,1.729,0.739,2.383c0.827,1.195,0.872,2.43,0.387,3.625
			c-1.002,2.445-2.036,4.899-3.689,7c-0.44,0.561-1.03,1.07-1.657,1.402c-2.525,1.337-5.108,2.562-7.638,3.891
			c-1.62,0.851-3.388,1.177-5.112,1.668c-0.809,0.23-1.74,0.344-2.366,0.831c-1.182,0.921-2.454,1.083-3.861,1.11
			c-1.263,0.022-2.521,0.248-3.78,0.391c-0.315,0.037-0.624,0.139-0.94,0.148c-4.23,0.129-8.481,0.355-12.662-0.457
			c-2.584-0.503-5.114-1.287-7.647-2.023c-1.972-0.574-3.295-1.944-3.877-3.885C18.434,83.229,18.581,78.455,21.529,73.906z
			 M119.97,37.1c-0.319-2.546-0.941-4.988-1.997-7.307c-1.008-2.213-2.034-4.429-3.241-6.534c-2.324-4.052-5.012-7.846-8.496-11.017
			c-5.231-4.759-11.395-7.131-18.44-7.195c-1.06,0-2.119-0.022-3.175,0.005c-1.531,0.041-2.883,0.641-4.146,1.441
			c-1.176,0.742-1.792,1.782-1.502,3.219c0.274,1.368,1.392,1.762,2.518,2.123c0.297,0.096,0.624,0.109,0.939,0.139
			c1.79,0.165,3.581,0.461,5.371,0.454c2.944-0.011,5.621,0.887,8.239,2.063c2.247,1.008,4.236,2.402,5.817,4.312
			c2.91,3.517,5.508,7.251,7.458,11.389c1.214,2.579,2.407,5.182,2.804,8.059c0.072,0.511,0.272,1.027,0.515,1.488
			c1.74,3.329,4.027,3.243,6.241,0.836C119.776,39.598,120.146,38.511,119.97,37.1z M81.299,22.865
			c1.926,0.56,3.836,1.166,5.77,1.698c2.117,0.583,3.795,1.833,5.242,3.412c2.993,3.261,5.044,7.014,5.825,11.412
			c0.149,0.832,0.3,1.672,0.557,2.472c0.485,1.494,1.787,2.215,3.514,2.044c1.407-0.14,2.535-1.189,2.728-2.657
			c0.082-0.617,0.031-1.27-0.063-1.891c-0.7-4.558-2.324-8.742-4.954-12.553c-3.203-4.641-7.509-7.647-12.962-9.024
			c-1.019-0.257-2.06-0.432-3.146-0.658c-1.224,0.231-2.482,0.402-3.702,0.719c-1.06,0.276-1.764,1.319-1.775,2.366
			c-0.014,1.05,0.673,2.032,1.734,2.403C80.457,22.746,80.896,22.749,81.299,22.865z M77.746,33.151
			c0.447,0.263,0.977,0.381,1.456,0.594c1.675,0.75,3.058,1.884,4.09,3.394c0.771,1.127,1.438,2.329,2.138,3.504
			c0.324,0.542,0.565,1.14,0.935,1.648c1.094,1.512,2.947,1.742,4.445,0.604c0.851-0.646,1.013-1.556,1.172-2.583
			c-0.292-1.216-0.437-2.494-0.909-3.636c-1.229-2.97-3.061-5.524-5.779-7.341c-0.609-0.407-1.265-0.77-1.939-1.044
			c-2.017-0.819-3.942-0.497-5.708,0.687C76.021,30.068,76.086,32.176,77.746,33.151z M32.07,87.469
			c1.137,1.003,2.486,1.656,3.934,1.965c1.851,0.394,3.746,0.583,5.589,0.855c1.748-0.24,3.419-0.466,5.087-0.699
			c5.389-0.751,9.266-3.855,12.428-8.04c0.504-0.668,0.877-1.448,1.23-2.216c0.463-1.007,0.578-2.134-0.015-3.059
			c-0.706-1.098-1.054-2.3-1.416-3.5c-0.553-1.841-1.723-3.123-3.331-4.061c-1.387-0.806-2.868-1.379-4.481-1.441
			c-1.795-0.068-3.604-0.162-5.39-0.025c-5.085,0.391-9.309,2.518-12.529,6.534c-3.322,4.146-3.007,4.189-3.155,9.269
			C29.966,84.932,30.739,86.298,32.07,87.469z M38.446,76.473c1.732-1.12,3.634-1.548,5.699-0.965
			c1.662,0.467,2.471,1.472,2.428,3.187c-0.18,3.308-2.61,6.339-6.133,7.088c-2.821,0.599-4.26-1.571-4.579-3.625
			C35.488,79.779,36.408,77.792,38.446,76.473z"/>
	</g>
</g>
</svg>
