<?xml version="1.0" encoding="utf-8"?>
<!-- Generator: Adobe Illustrator 16.0.0, SVG Export Plug-In . SVG Version: 6.00 Build 0)  -->
<!DOCTYPE svg PUBLIC "-//W3C//DTD SVG 1.1//EN" "http://www.w3.org/Graphics/SVG/1.1/DTD/svg11.dtd">
<svg version="1.1" id="Layer_1" xmlns="http://www.w3.org/2000/svg" xmlns:xlink="http://www.w3.org/1999/xlink" x="0px" y="0px"
	 width="120px" height="120px" viewBox="0 0 120 120" style="enable-background:new 0 0 120 120;" xml:space="preserve">
<g id="renren">
	<g>
		<path style="fill-rule:evenodd;clip-rule:evenodd;" d="M71.354,71.02c0.604-0.98,1.137-2.007,1.68-3.023
			c1.178-2.204,2.201-4.507,3.544-6.604c2.124-3.316,3.216-6.957,3.86-10.766c0.828-4.886,0.312-9.78-0.077-14.666
			c-0.075-0.953-0.323-1.892-0.452-2.842c-0.135-0.996-0.607-1.814-1.248-2.55c-0.336-0.387-0.747-0.516-1.285-0.375
			c-2.598,0.678-5.203,1.333-7.81,1.978c-3.395,0.838-6.117,2.723-8.382,5.332c-0.375,0.434-0.729,0.89-1.114,1.316
			c-0.292,0.326-0.703,0.265-0.961-0.13c-0.157-0.241-0.292-0.498-0.433-0.749c-1.596-2.849-3.927-4.962-6.688-6.632
			c-1.139-0.69-2.405-1.167-3.125-2.444c-0.264-0.464-0.967-0.795-1.533-0.562c-0.793,0.326-1.47,0.107-2.232-0.038
			c-0.93-0.178-1.907-0.167-2.862-0.154c-0.65,0.009-1.055,0.487-0.963,1.167c0.076,0.569,0.204,1.071-0.083,1.65
			c-0.293,0.591-0.439,1.266-0.583,1.918c-0.726,3.294-1.201,6.617-1.062,10.004c0.039,2.014,0.093,4.013,0.346,6.032
			c0.458,3.647,1.281,7.181,2.473,10.64c1.318,3.833,2.925,7.522,5.525,10.701c0.791,0.967,1.524,1.986,2.357,2.916
			c1.798,2.003,3.521,4.103,6.022,5.306c0.424,0.203,0.986,0.564,1.31,0.43c0.624-0.258,0.413-0.992,0.346-1.534
			c-0.068-0.563-0.244-1.121-0.434-1.661c-0.288-0.813-0.626-1.611-0.951-2.413c-2.779-6.875-3.085-13.804-0.453-20.799
			c0.406-1.081,0.694-2.181,0.833-3.344c0.137-1.131,0.469-2.251,0.832-3.338c0.269-0.805,0.993-1.112,1.851-1.039
			c0.956,0.081,1.606,0.619,2.081,1.38c0.872,1.393,1.551,2.893,1.953,4.479c1.525,6.007,2.061,12.11,1.624,18.296
			c-0.026,0.379-0.13,0.759-0.116,1.137c0.092,2.633-0.348,5.152-1.549,7.52c-0.172,0.338-0.283,0.714-0.365,1.085
			c-0.039,0.167,0.016,0.396,0.114,0.53c0.055,0.076,0.339,0.083,0.438,0.01c0.846-0.635,1.704-1.259,2.493-1.959
			c0.567-0.504,1.068-1.045,1.924-0.828c0.772-0.613,1.445-1.387,1.637-2.318C70.08,72.891,70.754,71.996,71.354,71.02z
			 M43.937,31.177c0.097-0.03,0.253,0.131,0.381,0.208c-0.16,0.202-0.32,0.404-0.498,0.627c-0.081-0.195-0.206-0.351-0.181-0.479
			C43.666,31.395,43.808,31.217,43.937,31.177z M42.864,40.433c1.31-1.759,2.581-3.545,3.862-5.325
			c0.445-0.617,0.861-1.254,1.322-1.858c0.072-0.094,0.371-0.137,0.459-0.068c0.126,0.1,0.218,0.324,0.211,0.492
			c-0.005,0.174-0.125,0.359-0.23,0.513c-1.724,2.519-3.452,5.036-5.187,7.545c-0.158,0.229-0.381,0.412-0.561,0.601
			c-0.114-0.041-0.2-0.047-0.244-0.093c-0.062-0.066-0.114-0.157-0.134-0.246C42.229,41.378,42.504,40.916,42.864,40.433z
			 M52.014,69.834c-0.134,0-0.323,0-0.394-0.085c-0.427-0.503-0.844-1.015-1.23-1.549c-0.839-1.158-0.668-2.387,0.478-3.501
			c0.045-0.045,0.19-0.02,0.272,0.014c0.072,0.028,0.165,0.109,0.176,0.18c0.265,1.564,0.519,3.132,0.779,4.725
			C52.075,69.676,52.043,69.834,52.014,69.834z M56.415,44.31c-0.722,1.016-1.346,2.107-1.961,3.196
			c-0.612,1.087-1.201,2.192-1.726,3.324c-1.23,2.65-1.997,5.397-1.696,8.372c0.097,0.953,0.054,1.922,0.03,2.884
			c-0.011,0.417-0.276,0.776-0.724,0.565c-0.946-0.444-1.391,0.16-1.932,0.737c-0.478,0.511-0.68,0.407-1-0.276
			c-0.258-0.549-0.403-1.049-0.046-1.627c0.606-0.981,1.174-1.987,1.739-2.993c0.329-0.587,0.64-1.185,0.924-1.794
			c0.535-1.136,0.169-1.795-1.099-2.002c-0.246-0.04-0.498-0.037-0.75-0.044c-0.01,0.021-0.021,0.042-0.031,0.063
			c-0.022,0.014-0.04,0.031-0.061,0.045c0.024,0.157,0.061,0.318,0.017,0.452c-0.431,1.295-1.236,2.325-2.292,3.168
			c-0.058,0.046-0.23,0.058-0.241,0.034c-0.079-0.161-0.229-0.435-0.172-0.491c0.973-0.99,1.485-2.375,2.688-3.163
			c-0.006-0.038-0.014-0.075-0.017-0.112c0.036,0.002,0.072,0.002,0.108,0.003c0.889-2.02,2.458-3.598,3.569-5.474
			c0.441-0.743,0.914-1.467,1.323-2.225c0.125-0.232,0.132-0.555,0.107-0.827c-0.012-0.161-0.165-0.368-0.313-0.441
			c-0.144-0.072-0.432-0.08-0.533,0.016c-0.552,0.525-1.088,1.07-1.585,1.646c-2.013,2.325-4.009,4.665-6.017,6.994
			c-0.206,0.238-0.559,0.147-0.654-0.141c-0.364-1.088-0.791-2.16-1.076-3.268c-0.285-1.11-0.446-2.254-0.627-3.39
			c-0.132-0.839,0.026-1.46,1.056-1.672c0.895-0.185,1.382-0.978,1.867-1.708c1.542-2.323,3.09-4.644,4.662-6.948
			c0.375-0.549,0.814-1.067,1.29-1.528c0.12-0.116,0.559-0.039,0.752,0.095c0.211,0.146,0.36,0.446,0.431,0.707
			c0.035,0.135-0.146,0.341-0.251,0.5c-2.447,3.684-4.904,7.36-7.337,11.052c-0.315,0.476-0.596,1.008-0.729,1.553
			c-0.109,0.436-0.03,0.946,0.077,1.396c0.128,0.551,1.009,0.855,1.41,0.483c0.556-0.515,1.118-1.055,1.533-1.681
			c1.75-2.646,3.441-5.333,5.168-7.996c0.523-0.806,1.083-1.59,1.642-2.371c0.218-0.308,0.786-0.337,1.013-0.057
			c0.481,0.597,0.928,1.224,1.413,1.817C57.211,42.219,57.194,43.213,56.415,44.31z M62.84,42.857
			c-0.045-0.155-0.11-0.31-0.125-0.468c-0.007-0.06,0.103-0.131,0.158-0.198c0.043,0.157,0.086,0.314,0.129,0.472
			C62.947,42.729,62.895,42.793,62.84,42.857z M74.842,34.109c0.443-0.138,0.973-0.468,1.287,0.025
			c0.227,0.358,0.244,0.905,0.207,1.355c-0.029,0.355-0.24,0.725-0.453,1.031c-2.199,3.158-3.909,6.596-5.74,9.964
			c-0.412,0.758-0.821,1.517-1.245,2.269c-0.075,0.134-0.209,0.235-0.319,0.357c-0.047-0.097-0.103-0.178-0.123-0.267
			c-0.023-0.091-0.035-0.199-0.01-0.287c1.352-4.395,2.787-8.758,4.813-12.905C73.615,34.919,74.048,34.356,74.842,34.109z
			 M64.063,39.948c-0.072-0.158-0.161-0.312-0.209-0.477c-0.013-0.042,0.106-0.121,0.165-0.183c0.051,0.067,0.104,0.135,0.154,0.203
			C64.139,39.644,64.102,39.796,64.063,39.948z M65.962,47.786c-0.051,0.118-0.261,0.167-0.437,0.272
			c-0.193-0.216-0.422-0.399-0.555-0.636c-0.485-0.858-0.914-1.733,0.225-2.451c1.352-2.425,2.769-4.825,2.564-7.766
			c-0.037-0.538,0.252-0.905,0.749-1.086c0.72-0.262,1.443-0.506,2.169-0.749c0.07-0.023,0.222-0.01,0.238,0.028
			c0.066,0.16,0.182,0.374,0.128,0.502C69.365,39.869,67.67,43.831,65.962,47.786z M66.871,52.169
			c-0.062-0.073-0.178-0.153-0.169-0.216c0.021-0.167,0.099-0.327,0.153-0.49c0.07,0.024,0.199,0.062,0.198,0.066
			C66.999,51.745,66.934,51.957,66.871,52.169z M68.117,59.696c-0.276-0.129-0.308-0.844-0.385-1.305
			c-0.078-0.478-0.09-1.019,0.321-1.34c1.512-1.177,2.157-2.921,3.017-4.517c1.232-2.285,2.387-4.611,3.582-6.917
			c0.264-0.51,0.536-1.019,0.844-1.503c0.084-0.134,0.318-0.247,0.477-0.236c0.132,0.009,0.348,0.204,0.358,0.331
			c0.075,0.858,0.105,1.719,0.149,2.579c-0.07,2.516-0.431,4.965-1.285,7.341c-0.323,0.9-0.495,1.854-0.813,2.755
			c-0.114,0.326-0.411,0.655-0.882,0.347c-0.157-0.103-0.357-0.136-0.533-0.211c-0.327-0.139-0.723-0.218-0.945-0.456
			c-0.116-0.123,0.082-0.533,0.125-0.815c0.014-0.089,0.014-0.204-0.032-0.271c-0.105-0.149-0.222-0.338-0.376-0.396
			c-0.134-0.05-0.402,0-0.48,0.104c-0.225,0.301-0.381,0.654-0.567,0.984c-0.519,0.917-1.03,1.838-1.562,2.748
			C68.893,59.322,68.613,59.931,68.117,59.696z M68.85,68.042c-0.061,0.087-0.121,0.175-0.181,0.264
			c0.009-0.071-0.005-0.176,0.035-0.209C68.742,68.066,68.795,68.053,68.85,68.042c0.018-0.025,0.035-0.052,0.053-0.077
			c0.018-0.018,0.033-0.036,0.051-0.054c-0.016-0.349-0.104-0.739,0.041-0.999c0.742-1.327,1.556-2.614,2.369-3.9
			c0.059-0.094,0.239-0.111,0.396-0.144c0.01-0.03,0.02-0.058,0.029-0.089c0.027-0.009,0.047-0.021,0.071-0.033
			c-0.018-0.426-0.01-0.842,0.481-1.02c0.003-0.037,0.004-0.074,0.008-0.111c0.062-0.031,0.126-0.06,0.184-0.098
			c0.031-0.055,0.063-0.11,0.096-0.166c-0.021,0.051-0.027,0.118-0.064,0.15c-0.009,0.006-0.021,0.01-0.031,0.016
			c-0.035,0.06-0.069,0.117-0.103,0.176c-0.034,0.008-0.06,0.022-0.089,0.033c-0.025,0.404-0.021,0.824-0.481,1.02
			c0.001,0.033,0.003,0.066,0.005,0.098c-0.032,0.01-0.069,0.018-0.105,0.024c-0.681,2.216-1.545,3.765-2.807,5.043
			c0.002,0.036,0.006,0.073,0.006,0.108C68.924,68.028,68.887,68.034,68.85,68.042z M115.846,57.123
			c-0.564-5.542-2.455-10.654-5.174-15.461c-1.518-2.685-3.459-5.042-5.854-7.063c-2.911-2.459-6.217-4.171-9.65-5.695
			c-1.4-0.623-2.854-1.134-4.301-1.648c-0.645-0.23-1.398,0.052-1.753,0.642c-0.343,0.568-0.459,1.325-0.903,1.768
			c-1.111,1.105-1.439,2.456-1.579,3.916c-0.089,0.953-0.231,1.907-0.247,2.862c-0.034,2.405,0.01,4.811-0.018,7.216
			c-0.01,0.86,0.033,1.779-0.25,2.561c-0.354,0.969-0.086,1.604,0.444,2.373c0.421,0.607,0.675,1.38,0.819,2.115
			c0.802,4.061,2,8,3.359,11.902c0.67,1.922,1.51,3.756,2.566,5.472c1.971,3.199,4.232,6.192,6.935,8.824
			c0.754,0.733,1.595,1.385,2.435,2.022c1.292,0.981,2.658,1.529,4.246,0.597c0.307-0.18,0.811-0.333,1.074-0.198
			c0.518,0.258,0.217,0.849,0.25,1.304c0.014,0.19-0.004,0.417,0.095,0.556c0.153,0.216,0.368,0.471,0.6,0.523
			c0.235,0.053,0.653-0.039,0.758-0.211c0.343-0.562,0.664-1.167,0.842-1.797c0.652-2.32,1.552-4.535,2.608-6.695
			c0.463-0.949,0.892-1.918,1.276-2.902c1.09-2.789,1.888-5.646,1.914-8.701C116.174,59.977,115.989,58.552,115.846,57.123z
			 M89.796,36.736c-0.035-0.477-0.016-0.959-0.016-1.439c-0.022-0.001-0.048-0.001-0.072-0.002c0.057-0.863,0.058-1.735,0.181-2.588
			c0.211-1.446,0.619-1.645,1.863-1.011c0.258,0.131,0.498,0.293,0.758,0.417c0.449,0.218,0.496,0.549,0.261,0.936
			c-0.798,1.309-1.606,2.611-2.423,3.911c-0.042,0.067-0.205,0.14-0.244,0.112C89.979,36.985,89.805,36.858,89.796,36.736z
			 M102.467,59.315c-0.375,0.77-0.823,1.597-0.859,2.417c-0.072,1.56-0.812,2.718-1.758,3.818c-0.41,0.476-0.662,1.155-1.405,1.256
			c-0.003,0.019-0.005,0.04-0.009,0.059c-0.023,0.009-0.047,0.019-0.07,0.028c-0.043,0.122-0.086,0.244-0.127,0.367
			c-0.07-0.079-0.142-0.158-0.211-0.237c0.112-0.044,0.225-0.087,0.338-0.13c0.008-0.025,0.016-0.051,0.025-0.076
			c0.019-0.001,0.035-0.008,0.054-0.011c0.075-0.44,0.082-0.914,0.268-1.3c0.622-1.301,1.272-2.592,1.997-3.836
			c0.552-0.947,0.688-1.985,0.864-3.019c0.116-0.682-0.618-1.277-1.319-1.072c-0.432,0.125-0.833,0.356-1.246,0.546
			c0.006,0.024,0.004,0.046,0.012,0.07c-0.021,0.003-0.035,0.01-0.054,0.014c0.025,0.446-0.038,0.848-0.512,1.04
			c0.003,0.04,0.007,0.079,0.008,0.117c-0.033,0.011-0.076,0.015-0.12,0.017c-0.053,0.111-0.105,0.222-0.157,0.333
			c-0.228-0.333-0.021-0.322,0.157-0.333l0.045-0.096c0.029-0.009,0.041-0.027,0.067-0.038c-0.034-0.444-0.123-0.914,0.512-1.04
			c-0.001-0.021,0.001-0.042-0.001-0.063c0.014-0.007,0.029-0.014,0.043-0.021c-0.155-0.598,0.016-1.138,0.516-1.446
			c1.371-0.842,2.14-2.136,2.881-3.491c1.057-1.928,2.214-3.8,3.267-5.73c0.356-0.656,0.604-1.396,0.761-2.127
			c0.125-0.582-0.146-1.114-0.693-1.455c-0.416-0.258-1.111-0.183-1.271,0.209c-1.166,2.842-3.113,5.251-4.414,8.018
			c-0.325,0.691-0.723,1.276-1.494,1.634c-0.469,0.218-0.768,0.815-1.119,1.26c-0.387,0.488-0.635,1.105-1.27,1.348
			c-0.007,0.042-0.012,0.086-0.02,0.128c-0.055,0.012-0.111,0.02-0.165,0.031c-0.058,0.072-0.114,0.144-0.173,0.216
			c0.025-0.063,0.032-0.156,0.078-0.185c0.027-0.017,0.062-0.023,0.095-0.031c0.028-0.037,0.06-0.074,0.088-0.11
			c0.038-0.011,0.062-0.036,0.097-0.049c0.066-0.425,0.084-0.871,0.255-1.249c0.909-2.013,1.876-4,2.81-6.003
			c0.282-0.608,0.561-1.224,0.771-1.859c0.213-0.645-0.145-1.385-0.777-1.683c-0.367-0.173-0.868-0.179-1.025,0.197
			c-1.233,2.945-3.455,5.301-4.828,8.16c-0.164,0.339-0.38,0.663-0.619,0.953c-0.084,0.104-0.385,0.172-0.462,0.109
			c-0.125-0.105-0.231-0.352-0.198-0.505c0.1-0.46,0.219-0.932,0.424-1.354c1.539-3.202,3.107-6.392,4.659-9.588
			c0.712-1.469,1.45-2.927,2.089-4.429c0.211-0.5,0.178-1.115,0.198-1.68c0.015-0.354-0.606-0.66-0.876-0.449
			c-0.37,0.292-0.762,0.579-1.066,0.935c-1.689,1.984-3.074,4.176-4.317,6.461c-0.644,1.181-1.269,2.37-1.929,3.542
			c-0.073,0.13-0.324,0.241-0.476,0.222c-0.141-0.019-0.341-0.205-0.371-0.347c-0.343-1.637-0.306-3.208,0.519-4.756
			c1.443-2.713,2.771-5.491,4.172-8.228c0.365-0.714,0.697-0.795,1.383-0.465c5.403,2.612,9.375,6.64,11.791,12.137
			c0.848,1.93,1.505,3.943,2.213,5.932c0.226,0.626,0.489,1.303,0.454,1.941c-0.044,0.798-1.06,0.715-1.489,1.197
			c-0.889,1.001-1.78,2.008-2.576,3.082c-0.799,1.073-1.482,2.231-2.225,3.348c-0.038,0.06-0.148,0.07-0.227,0.104
			c-0.064-0.171-0.231-0.389-0.179-0.505c0.279-0.603,0.599-1.189,0.932-1.767c0.527-0.915,1.141-1.789,1.587-2.74
			c0.229-0.487,0.242-1.109,0.23-1.666c-0.014-0.584-0.617-1.12-1.123-1.13c-0.541-0.011-0.925,0.299-1.158,0.727
			C103.953,56.416,103.177,57.85,102.467,59.315z M109.575,71.918c-0.019,0.016-0.042,0.023-0.065,0.035
			c-0.029,0.046-0.057,0.092-0.086,0.139c-0.027,0.006-0.046,0.018-0.07,0.023c0.023,0.441,0.113,0.916-0.509,1.044
			c0.001,0.024,0.003,0.05,0.006,0.075c-0.024,0.006-0.041,0.014-0.063,0.02c0.025,0.455,0.137,0.953-0.531,1.061
			c0.002,0.02,0.002,0.038,0.004,0.058c-0.016,0.003-0.027,0.01-0.043,0.015c0.076,0.482,0.048,0.914-0.531,1.07
			c0.004,0.027,0.007,0.055,0.01,0.082c-0.022,0.012-0.047,0.021-0.071,0.031c-0.005,0.154-0.002,0.312-0.052,0.449
			c-0.038,0.105-0.196,0.165-0.302,0.246c-0.009-0.166-0.081-0.367-0.011-0.485c0.063-0.104,0.225-0.15,0.364-0.21
			c0.001-0.031,0.001-0.063,0.003-0.094c0.022-0.006,0.038-0.014,0.059-0.02c-0.056-0.471-0.076-0.922,0.531-1.07
			c-0.004-0.021-0.006-0.04-0.01-0.061c0.02-0.002,0.031-0.008,0.049-0.012c-0.043-0.467-0.044-0.912,0.531-1.061
			c-0.002-0.026-0.004-0.053-0.005-0.079c0.024-0.003,0.04-0.011,0.062-0.016c-0.038-0.452-0.034-0.882,0.509-1.044
			c-0.002-0.033-0.004-0.066-0.006-0.099c0.055-0.022,0.11-0.04,0.162-0.063c0.041-0.067,0.083-0.135,0.123-0.2
			C109.615,71.811,109.613,71.889,109.575,71.918z M111.818,62.992c-0.016,0.398-0.176,0.778-0.593,0.87
			c-0.608,0.132-0.978,0.399-1.215,1.026c-0.37,0.976-0.853,1.916-1.364,2.828c-1.262,2.248-2.562,4.478-3.859,6.706
			c-0.219,0.374-0.535,0.366-0.936,0.011c-0.213-0.191-0.463-0.373-0.591-0.615c-0.123-0.23-0.239-0.604-0.134-0.791
			c2.57-4.581,5.168-9.146,7.765-13.711c0.048-0.081,0.12-0.153,0.195-0.208c0.075-0.055,0.194-0.136,0.251-0.111
			c0.137,0.063,0.345,0.168,0.359,0.278c0.084,0.661,0.123,1.328,0.126,1.365C111.823,61.844,111.841,62.419,111.818,62.992z
			 M26.242,67.203c2.266-3.218,3.353-6.882,3.962-10.707c0.39-2.448,0.262-4.94,0.508-7.406c0.16-1.624,0.095-3.268,0.185-4.9
			c0.141-2.586,0.327-5.171,0.494-7.757c-0.025-0.001-0.049-0.003-0.076-0.006c0-1.731,0.002-3.462-0.002-5.193
			c0-0.382,0.03-0.774-0.045-1.144c-0.116-0.582-0.404-1.104-0.984-1.331c-0.603-0.235-1.201-0.062-1.522,0.472
			c-0.483,0.805-1.199,1.221-2.028,1.519c-1.354,0.484-2.712,0.954-4.059,1.453c-0.805,0.298-1.647,0.552-2.378,0.984
			c-1.74,1.025-3.403,2.167-4.833,3.62c-1.886,1.919-3.795,3.818-5.683,5.736c-0.335,0.34-0.643,0.714-0.93,1.099
			c-2.754,3.72-4.294,7.894-4.683,12.502c-0.081,0.954-0.246,1.899-0.354,2.852c-0.063,0.569-0.167,1.151-0.114,1.714
			c0.156,1.621,0.283,3.256,0.601,4.851c0.849,4.26,2.19,8.359,4.497,12.081c0.501,0.81,1.12,1.558,1.749,2.276
			c0.306,0.348,0.74,0.6,1.151,0.833c0.54,0.31,1.092,0.332,1.603-0.11c1.522-1.318,3.159-2.528,4.551-3.973
			c2.659-2.764,5.184-5.657,7.752-8.508C25.859,67.881,26.022,67.519,26.242,67.203z M14.959,42.125
			c0.013-0.01,0.03-0.013,0.043-0.02c0.033-0.056,0.065-0.112,0.099-0.168c0.079-0.008,0.147-0.024,0.211-0.047
			c0.11-0.11,0.22-0.221,0.33-0.332c0.021-0.06,0.038-0.122,0.042-0.198c0.039-0.001,0.068-0.012,0.104-0.017
			c0.063-0.25,0.21-0.413,0.474-0.458c0.004-0.032,0.016-0.057,0.017-0.094c0.033,0,0.058-0.009,0.088-0.011
			c0.035-0.292,0.2-0.456,0.493-0.491c0.001-0.027,0.011-0.047,0.009-0.078c0.037-0.004,0.068-0.016,0.104-0.021
			c0.46-1.185,1.507-1.839,2.425-2.597c0.659-0.547,1.385-1.016,2.097-1.496c0.101-0.067,0.294-0.001,0.439,0.023
			c0.011,0.002,0.028,0.194-0.016,0.255c-1.286,1.745-2.575,3.494-4.946,3.815c-0.012,0.029-0.027,0.055-0.038,0.085
			c-0.029,0.001-0.049,0.01-0.076,0.013c-0.016,0.315-0.192,0.466-0.493,0.491c-0.004,0.03-0.014,0.053-0.015,0.085
			c-0.035,0.002-0.06,0.014-0.091,0.019c-0.04,0.277-0.207,0.42-0.474,0.458c-0.008,0.032-0.021,0.06-0.026,0.095
			c-0.04,0.04-0.079,0.08-0.119,0.12c-0.055,0.167-0.167,0.275-0.33,0.332c-0.043,0.043-0.086,0.087-0.129,0.13
			c-0.061,0.027-0.124,0.052-0.182,0.084c-0.033,0.057-0.067,0.113-0.1,0.169C14.92,42.224,14.922,42.153,14.959,42.125z
			 M22.409,65.596c-1.517,2.803-3.488,5.268-5.701,7.551c-0.524,0.542-1.039,0.291-1.561,0.046c-0.269-0.126-0.48-0.345-0.214-0.631
			c2.34-2.534,4.691-5.062,7.049-7.581c0.1-0.105,0.297-0.121,0.446-0.178c0.053,0.09,0.146,0.178,0.136,0.25
			C22.537,65.236,22.497,65.432,22.409,65.596z M24.194,60.183c-0.341,1.076-0.497,2.302-2.158,2.146
			c-0.373-0.035-0.777,0.525-1.208,0.727c-0.281,0.135-0.609,0.173-0.926,0.233c-0.025,0.034-0.05,0.067-0.076,0.101
			c-0.06,0.027-0.12,0.053-0.178,0.083c-0.041,0.062-0.082,0.126-0.123,0.188c0.019-0.057,0.023-0.132,0.062-0.16
			c0.018-0.014,0.041-0.018,0.061-0.028c0.033-0.052,0.067-0.104,0.101-0.154c0.05-0.012,0.102-0.02,0.153-0.029
			c0.949-1.263,1.901-2.526,2.842-3.797c0.457-0.616,0.921-1.231,1.333-1.878c0.412-0.646,0.373-1.301-0.044-1.55
			c-0.483-0.29-0.912-0.1-1.316,0.198c-0.079,0.056-0.151,0.119-0.225,0.182c-1.605,1.379-3.241,2.725-4.81,4.146
			c-2.781,2.519-5.518,5.088-8.281,7.629c-0.592,0.545-0.93,0.436-1.25-0.368c-0.107-0.269-0.202-0.541-0.29-0.815
			c-0.028-0.09-0.056-0.22-0.012-0.281c0.095-0.137,0.223-0.262,0.364-0.355c0.062-0.038,0.201-0.014,0.276,0.03
			c0.955,0.554,1.658,0.093,2.291-0.575c1.654-1.747,3.308-3.5,4.943-5.264c1.505-1.623,2.999-3.257,4.478-4.904
			c1.222-1.359,2.441-2.721,3.607-4.128c0.42-0.507,0.698-1.14,0.991-1.739c0.049-0.1-0.118-0.362-0.246-0.481
			c-0.126-0.115-0.383-0.243-0.498-0.189c-0.431,0.203-0.868,0.432-1.229,0.738c-0.807,0.685-1.564,1.426-2.349,2.139
			c-3.7,3.367-7.407,6.728-11.101,10.102c-0.564,0.516-1.067,1.098-1.624,1.621c-0.044,0.041-0.301-0.117-0.438-0.217
			c-0.065-0.047-0.109-0.166-0.111-0.252c-0.055-2.695-0.114-5.386,0.313-8.063c0.095-0.602,0.297-1.094,0.75-1.502
			c0.858-0.774,1.677-1.591,2.545-2.353c2.313-2.028,4.668-4.006,6.954-6.064c1.285-1.158,2.522-2.382,3.668-3.676
			c1.34-1.511,2.519-3.161,3.837-4.69c0.821-0.954,1.693-1.829,1.54-3.236c-0.009-0.089,0.264-0.256,0.429-0.305
			c0.41-0.121,0.491,0.253,0.531,0.491c0.062,0.374-0.049,0.777,0.016,1.15c0.204,1.167-0.229,2.026-1.084,2.805
			c-0.708,0.644-1.283,1.43-1.927,2.145c-0.515,0.573-0.984,1.203-1.571,1.69c-3.869,3.216-6.965,7.162-10.338,10.848
			c-1.236,1.348-2.543,2.629-3.809,3.949c-0.399,0.416-0.761,0.866-1.148,1.292c-0.358,0.396-0.12,0.716,0.146,0.994
			c0.608,0.639,1.438,0.804,2.062,0.39c0.397-0.264,0.759-0.589,1.109-0.915c0.986-0.919,1.99-1.822,2.932-2.785
			c4.24-4.333,8.458-8.685,12.693-13.022c0.125-0.127,0.321-0.194,0.496-0.255c0.056-0.02,0.164,0.055,0.223,0.112
			c0.063,0.061,0.158,0.177,0.137,0.225c-0.143,0.34-0.225,0.796-0.491,0.981c-1.266,0.879-1.07,2.158-1.009,3.395
			c0.012,0.254,0.187,0.612,0.392,0.724c0.777,0.423,0.726,1.099,0.568,1.754c-0.517,2.146-1.06,4.287-1.64,6.417
			C25.126,57.256,24.657,58.719,24.194,60.183z M50.238,87.547c-1.703-0.779-2.988-2.068-4.261-3.382
			c-3.196-3.289-5.499-7.146-7.163-11.393c-0.579-1.475-1.185-2.848-2.976-3.185c-0.223-0.043-0.364-0.432-0.583-0.607
			c-0.568-0.453-1.021-0.321-1.338,0.371c-0.235,0.519-0.387,1.09-0.694,1.561c-0.893,1.365-1.71,2.816-2.814,3.994
			c-1.139,1.213-1.815,2.632-2.566,4.051c-0.265,0.498-0.655,0.955-1.07,1.348c-1.044,0.99-2.132,1.93-3.203,2.89
			c-0.856,0.771-1.765,1.489-2.556,2.32c-0.778,0.821-0.743,1.802,0.105,2.551c0.558,0.492,1.245,0.984,1.95,1.141
			c3.554,0.795,7.001,2.043,10.629,2.521c1.137,0.151,2.268,0.35,3.424,0.531c0.955-0.147,1.904-0.27,2.84-0.443
			c1.979-0.367,3.952-0.764,5.928-1.146c1.313-0.251,2.629-0.479,3.939-0.751c0.612-0.127,1.013-0.62,1.072-1.197
			C50.957,88.171,50.688,87.752,50.238,87.547z M25.768,86.29c-0.147,0.214-0.68,0.121-0.645-0.108
			c0.012-0.07,0.125-0.176,0.192-0.176c0.154,0,0.311,0.053,0.458,0.084C25.773,86.158,25.799,86.244,25.768,86.29z M29.296,86.791
			c-0.116-0.453-0.232-0.905-0.253-0.988c0-0.675-0.021-0.967,0.009-1.251c0.018-0.183,0.114-0.356,0.176-0.536
			c0.093,0.139,0.234,0.264,0.269,0.414c0.065,0.28,0.107,0.575,0.09,0.86C29.556,85.8,29.888,86.389,29.296,86.791z M32.804,87.27
			c-0.056-0.078-0.139-0.148-0.162-0.236c-0.401-1.561-0.821-3.116-1.174-4.689c-0.121-0.547-0.079-1.132-0.093-1.699
			c-0.001-0.072,0.102-0.162,0.176-0.217c0.023-0.018,0.153,0.042,0.162,0.081c0.455,2.123,1.262,4.173,1.327,6.376
			C33.045,87.011,32.887,87.141,32.804,87.27z M34.509,75.861c-0.058-0.05-0.132-0.09-0.172-0.151
			c-0.053-0.077-0.125-0.185-0.105-0.257c0.201-0.729,0.404-1.455,0.633-2.176c0.093-0.294,0.322-0.484,0.603-0.241
			c0.202,0.174,0.316,0.45,0.473,0.688C35.694,74.625,34.97,75.156,34.509,75.861z M40.268,87.435
			c-0.053-0.07-0.146-0.134-0.155-0.21c-0.025-0.207-0.031-0.416-0.042-0.625c-0.028-0.026-0.058-0.054-0.085-0.081
			c0-0.03-0.002-0.06-0.002-0.091c-0.08-0.02-0.168-0.039-0.179-0.078c-0.675-2.357-1.343-4.716-1.99-7.08
			c-0.042-0.158,0.074-0.36,0.116-0.54c0.123,0.095,0.276,0.169,0.368,0.29c0.288,0.38,0.562,0.769,0.824,1.166
			c0.64,0.967,1.12,1.926,0.896,3.195c-0.174,0.986-0.043,2.028-0.036,3.047c0.028,0.008,0.055,0.016,0.078,0.023
			c0.003,0.05,0.007,0.1,0.009,0.148c0.145,0.137,0.299,0.268,0.393,0.432C40.505,87.105,40.34,87.297,40.268,87.435z
			 M96.972,86.886c-0.505-0.444-1.052-0.847-1.608-1.224c-1.537-1.037-2.793-2.346-3.918-3.805
			c-1.122-1.454-2.192-2.941-2.913-4.635c-1.235-2.903-3.111-5.543-3.593-8.762c-0.072-0.487-0.436-0.848-0.944-0.994
			c-0.552-0.158-1.235,0.027-1.547,0.509c-0.31,0.478-0.552,1.003-0.786,1.524c-1.064,2.367-2.117,4.742-3.172,7.113
			c-1.28,2.879-3.215,5.227-5.699,7.15c-1.141,0.887-2.236,1.832-3.318,2.787c-0.826,0.727-0.804,1.74,0.008,2.51
			c0.28,0.266,0.56,0.561,0.896,0.726c3.114,1.534,6.256,2.992,9.842,2.971c1.54-0.007,3.081,0,4.623,0v0.062
			c1.927,0,3.854-0.021,5.781,0.006c1.388,0.021,2.687-0.287,3.843-1.035c0.814-0.527,1.641-0.955,2.578-1.245
			c1.125-0.349,1.472-1.538,0.843-2.577C97.643,87.568,97.321,87.197,96.972,86.886z M74.628,88.178
			c-0.547,0.107-1.18-0.314-1.034-0.654c0.136-0.317,0.426-0.631,0.73-0.797c0.336-0.184,0.787,0.354,0.824,1.045
			C75.015,87.881,74.842,88.136,74.628,88.178z M80.361,88.876c-1.045,0.137-1.486-0.072-1.741-0.964
			c-0.338-1.178-0.598-2.378-0.881-3.527c-0.058-0.703,0.775-1.821,1.452-1.938c0.137-0.022,0.402,0.127,0.451,0.257
			c0.678,1.763,1.264,3.554,1.421,5.451C81.099,88.591,80.778,88.823,80.361,88.876z M87.001,82.478
			c-0.051,0.073-0.147,0.114-0.216,0.177c-0.201,0.184-0.354,0.15-0.43-0.115c-0.273-0.952-0.854-1.84-0.65-2.892
			c-0.02-0.017-0.031-0.03-0.053-0.048c0-0.035,0.002-0.072,0.002-0.107c-0.13-0.091-0.283-0.173-0.334-0.297
			c-0.058-0.137,0.033-0.336,0.061-0.508c0.086,0.116,0.216,0.22,0.248,0.348c0.038,0.145,0.029,0.301,0.025,0.457
			c0.023,0.016,0.047,0.031,0.067,0.048c-0.009,0.037-0.01,0.071-0.017,0.107c0.994,0.834,1.48,1.532,1.568,2.358
			C87.289,82.154,87.108,82.328,87.001,82.478z M92.07,88.773c-0.653,0.098-1.311,0.162-2.018,0.246
			c-0.519-0.09-1.072-0.176-1.615-0.297c-0.046-0.01-0.074-0.389-0.044-0.398c1.213-0.404,1.358-1.424,1.462-2.48
			c0.028-0.281,0.201-0.332,0.404-0.132c0.736,0.728,1.479,1.454,2.197,2.198C92.709,88.173,92.463,88.718,92.07,88.773z"/>
	</g>
</g>
</svg>
