<?xml version="1.0" encoding="utf-8"?>
<!-- Generator: Adobe Illustrator 16.0.0, SVG Export Plug-In . SVG Version: 6.00 Build 0)  -->
<!DOCTYPE svg PUBLIC "-//W3C//DTD SVG 1.1//EN" "http://www.w3.org/Graphics/SVG/1.1/DTD/svg11.dtd">
<svg version="1.1" id="Layer_1" xmlns="http://www.w3.org/2000/svg" xmlns:xlink="http://www.w3.org/1999/xlink" x="0px" y="0px"
	 width="120px" height="120px" viewBox="0 0 120 120" style="enable-background:new 0 0 120 120;" xml:space="preserve">
<g id="douban">
	<g>
		<path style="fill-rule:evenodd;clip-rule:evenodd;" d="M95.407,34.479c-0.982-1.828-2.299-3.348-4.547-3.658
			c-0.844-0.117-1.678-0.339-2.523-0.379c-5.676-0.267-11.324,0.17-16.945,0.879c-4.029,0.509-8.047,1.021-12.117,0.942
			c-1.604-0.03-3.211,0.001-4.814,0.034c-0.748,0.015-1.537-0.038-2.232,0.179c-1.885,0.588-3.805,0.467-5.727,0.494
			c-1.924,0.028-3.848,0.074-5.77,0.196c-1.701,0.108-3.393,0.439-5.092,0.477c-2.055,0.047-4.027,0.46-6.01,0.897
			c-0.727,0.161-1.449,0.349-2.184,0.448c-2.631,0.356-4.041,1.381-2.719,4.583c0.852,2.062,1.385,4.272,1.502,6.533
			c0.23,4.376,0.504,8.752,0.604,13.132c0.041,1.863,0.621,3.561,1.062,5.31c0.215,0.861,0.75,1.491,1.604,1.883
			c1.062,0.487,2.041,1.169,3.125,1.597c0.98,0.387,2.037,0.678,3.08,0.769c1.271,0.11,2.566-0.004,3.848-0.073
			c2.238-0.122,4.475-0.41,6.713-0.408c6.955,0.008,13.898-0.268,20.842-0.604c0.963-0.046,1.953,0.01,2.877-0.203
			c2.43-0.559,4.893-0.46,7.346-0.52c2.354-0.057,4.707-0.036,7.062-0.034c1.6,0.002,3.199-0.074,4.756,0.497
			c0.836,0.307,1.65,0.1,2.395-0.497c1.863-1.49,1.877-1.468,2.465-3.86c0.15-0.618,0.367-1.221,0.533-1.837
			c0.191-0.715,0.479-1.43,0.518-2.156c0.182-3.307,0.309-6.617,0.418-9.927c0.047-1.391,0.01-2.782,0.01-4.421
			c0.082-2.533,0.195-5.313,0.24-8.095C95.739,35.926,95.733,35.09,95.407,34.479z M34.642,52.926
			c-0.073,0.008-0.15,0.01-0.221,0.024c-0.062,0.059-0.124,0.117-0.187,0.175c0.043-0.057,0.072-0.141,0.127-0.163
			c0.019-0.007,0.04-0.008,0.06-0.012c0.043-0.041,0.087-0.082,0.131-0.123c0.033-0.021,0.068-0.042,0.101-0.062
			c0.048-1.354,1.046-2.095,1.973-2.872c0.051-0.045,0.428,0.137,0.428,0.216c0.004,0.396,0.082,0.972-0.139,1.155
			c-0.694,0.573-1.495,1.017-2.262,1.501C34.651,52.819,34.64,52.869,34.642,52.926z M34.296,46.735
			c0.025-0.053,0.037-0.122,0.078-0.153c0.011-0.008,0.026-0.011,0.039-0.018c0.039-0.058,0.078-0.115,0.118-0.173
			c0.038,0.003,0.077,0.01,0.115,0.014c0.261-0.51,0.505-1.03,0.803-1.517c0.072-0.115,0.379-0.189,0.52-0.132
			c0.152,0.062,0.291,0.282,0.336,0.461c0.201,0.762-0.049,1.128-0.863,1.237c-0.258,0.035-0.529-0.018-0.795-0.049
			c-0.011,0.021-0.021,0.043-0.033,0.065c-0.067,0.03-0.138,0.058-0.2,0.094C34.374,46.621,34.335,46.679,34.296,46.735z
			 M35.062,58.986c-0.051,0.027-0.375-0.235-0.363-0.338c0.045-0.397,0.076-0.854,0.291-1.165c0.654-0.941,1.385-1.832,2.109-2.725
			c0.092-0.113,0.371-0.211,0.469-0.153c0.158,0.095,0.256,0.312,0.346,0.495c0.09,0.186,0.143,0.392,0.211,0.589
			c-0.043,0.201-0.041,0.423-0.131,0.598C37.347,57.542,36.253,58.324,35.062,58.986z M37.601,63.157
			c-0.074,0.05-0.201,0.022-0.418,0.042c-0.152-0.152-0.561-0.394-0.531-0.553c0.201-1.085,0.908-1.896,1.703-2.599
			c0.176-0.153,0.613-0.065,0.906,0.004c0.158,0.037,0.406,0.311,0.379,0.411C39.321,61.624,38.595,62.5,37.601,63.157z
			 M45.022,61.095c-0.771,0.992-1.529,1.996-2.346,2.946c-0.162,0.189-0.588,0.273-0.852,0.216
			c-0.221-0.049-0.578-0.483-0.537-0.559c0.555-0.997,1.102-2.017,1.801-2.914c0.418-0.539,1.137-0.404,1.752-0.166
			c0.09,0.035,0.16,0.132,0.238,0.199C45.062,60.911,45.075,61.028,45.022,61.095z M54.45,64.071
			c-0.131,0.224-0.52,0.384-0.805,0.412c-0.52,0.052-1.053,0-1.576-0.041c-0.551-0.042-0.67-0.323-0.393-0.848
			c0.496-0.944,0.439-1.487-0.225-2.123c-0.375-0.362-1.135-0.417-1.432-0.037c-0.518,0.662-0.959,1.383-1.471,2.053
			c-0.246,0.325-0.568,0.597-0.877,0.871c-0.057,0.051-0.238,0.041-0.303-0.012c-0.137-0.113-0.363-0.326-0.33-0.407
			c0.395-0.976,0.826-1.938,1.258-2.897c0.232-0.516,0.635-0.851,1.199-0.919c0.523-0.062,1.055-0.066,1.836-0.109
			c1.324,0.153,2.896,0.327,4.463,0.537c0.123,0.017,0.332,0.358,0.287,0.445C55.569,62.036,55.042,63.073,54.45,64.071z
			 M65.132,61.324c-0.244,0.593-0.514,1.174-0.766,1.763c-0.322,0.764-0.91,1.169-1.727,1.206c-1.068,0.049-2.135,0.079-3.203,0.086
			c-0.709,0.005-0.857-0.282-0.557-0.986c0.043-0.098,0.084-0.197,0.125-0.295c1.146-2.619,1.146-2.619,3.887-2.551
			c0.531,0,1.066-0.016,1.602,0.004C65.06,60.572,65.312,60.882,65.132,61.324z M61.374,55.469
			c-2.131,0.017-4.273-0.101-6.373,0.462c-0.506,0.136-1.064,0.095-1.598,0.082c-2.797-0.063-5.541,0.22-8.209,1.124
			c-0.623,0.212-0.992-0.008-1.193-0.671c-0.309-1.02-0.668-2.04-0.82-3.087c-0.318-2.212-0.934-4.393-0.791-6.66
			c0.035-0.586,0.41-0.994,1.002-1c3.312-0.03,6.627-0.045,9.941-0.061c1.389-0.007,2.777-0.001,4.168-0.001v0.08
			c3.635,0,7.27,0.012,10.904-0.005c1.812-0.008,3.623,0.044,5.426-0.355c0.92-0.202,1.912-0.104,2.871-0.082
			c0.51,0.011,0.738,0.429,0.717,0.88c-0.127,2.665-0.279,5.329-0.436,7.993c-0.045,0.799-0.393,1.194-1.176,1.219
			c-1.816,0.057-3.635,0.08-5.451,0.086C67.362,55.481,64.368,55.444,61.374,55.469z M89.702,56.949
			c-0.105,1.688-0.432,3.367-0.729,5.037c-0.096,0.531-0.52,0.928-1.076,1.092c-0.201,0.059-0.42,0.08-0.633,0.088
			c-5.77,0.228-11.541,0.452-17.311,0.669c-0.426,0.016-0.865,0.018-1.279-0.065c-0.303-0.062-0.543-0.291-0.361-0.676
			c0.137-0.291,0.311-0.566,0.416-0.867c0.512-1.447,1.547-1.854,3.016-1.749c2.025,0.144,4.062,0.125,6.096,0.178
			c0.779,0.021,1.418-0.11,1.881-0.897c0.711-1.199,1.602-2.278,2.873-2.963c0.637-0.343,0.85-0.933,0.846-1.61
			c-0.014-4.491,0.121-8.987-0.609-13.448c-0.123-0.759-0.545-1.059-1.205-1.281c-1.787-0.604-3.611-0.461-5.406-0.209
			c-5.01,0.702-10.002,0.723-15.01-0.053c-1.475-0.228-2.986-0.327-4.477-0.286c-2.881,0.08-5.783-0.13-8.629,0.537
			c-2.354-0.259-4.682,0.117-7.02,0.242c-3.154,0.17-6.062,1.024-8.607,2.971c-0.16,0.122-0.711,0.055-0.779-0.078
			c-0.629-1.214-0.09-2.713,1.131-3.226c0.078-0.033,0.34,0.172,0.396,0.313c0.287,0.716,0.818,0.704,1.225,0.271
			c0.498-0.531,0.924-1.177,1.217-1.845c0.311-0.711,0.824-0.929,1.498-0.965c0.748-0.04,1.502-0.02,2.246-0.091
			c1.164-0.112,2.352-0.162,3.479-0.444c4.375-1.097,8.818-1.551,13.318-1.558c2.143-0.003,4.256,0.106,6.377,0.527
			c2.637,0.522,5.361,0.452,7.996,0.021c2.871-0.47,5.752-0.446,8.629-0.56c2.027-0.08,4.062,0.114,6.098,0.138
			c1.102,0.014,2.113,0.327,3.074,0.804c0.812,0.403,1.332,1.061,1.363,2.018c0.105,3.101,0.207,6.201,0.27,8.086
			C89.896,51.174,89.878,54.066,89.702,56.949z M99.657,89.426c-1.449-0.331-2.949-0.453-4.434-0.616
			c-2.016-0.222-4.037-0.378-6.053-0.598c-0.467-0.051-0.75-0.409-0.652-0.894c0.146-0.73,0.332-1.456,0.547-2.169
			c0.617-2.044,1.326-4.063,1.877-6.126c0.584-2.177-0.881-3.961-3.02-3.826c-1.922,0.12-3.824-0.071-5.742-0.364
			c-1.672-0.257-3.445-0.26-5.117-0.006c-1.998,0.304-3.793,1.038-5.043,2.976c-1.705,2.639-3.254,5.26-3.602,8.454
			c-0.102,0.925-0.537,1.18-1.562,1.222c-2.029,0.082-4.078,0.022-6.084,0.281c-2.537,0.325-5.039,0.909-7.557,1.384
			c-1.035,0.194-1.295,0.097-1.639-0.926c-0.578-1.72-1.086-3.464-1.627-5.197c-0.602-1.938-1.16-3.89-1.822-5.807
			c-0.529-1.534-1.096-1.932-2.57-1.903c-1.498,0.029-3.002,0.066-4.486,0.252c-1.701,0.212-3.268,0.702-4.666,1.893
			c-1.082,0.92-1.379,1.864-1.045,3.084c0.73,2.673,1.527,5.329,2.301,7.991c0.18,0.621-0.004,1.014-0.697,1.146
			c-3.146,0.598-6.297,1.18-9.52,1.158c-1.283-0.009-2.568-0.025-3.852-0.021c-0.535,0.003-1.076,0.003-1.6,0.093
			c-1.836,0.315-2.842,1.868-2.465,3.749c0.314,1.569,0.455,3.203,0.992,4.692c0.689,1.918,1.305,3.855,1.631,5.846
			c0.283,1.726,1.256,2.648,2.746,3.193c0.59,0.216,1.234,0.39,1.852,0.386c1.498-0.007,3.004-0.032,4.484-0.225
			c5.092-0.658,10.191-1.11,15.328-1.233c2.449-0.059,4.918-0.282,7.328-0.713c1.699-0.306,3.383-0.469,5.092-0.483
			c2.568-0.022,5.137-0.006,7.705-0.006c5.02-0.07,10.027,0.099,15.041-0.595c3.799-0.526,7.668-0.567,11.508-0.773
			c0.879-0.047,1.797-0.065,2.441-0.622c0.934-0.803,1.859-1.233,3.135-1.277c1.268-0.044,2.166-0.973,2.445-2.221
			c0.512-2.288,0.975-4.594,1.326-6.913C102.905,91.589,101.757,89.905,99.657,89.426z M28.28,98.182
			c-0.307,0.017-0.672-0.617-0.549-0.994c0.156-0.482,0.537-0.582,0.99-0.519c0.137,0.116,0.377,0.226,0.385,0.352
			C29.138,97.457,28.593,98.165,28.28,98.182z M96.21,95.544c-0.207,0.828-0.428,1.654-0.674,2.471
			c-0.172,0.569-0.547,0.807-1.186,0.821c-2.029,0.046-4.057,0.165-6.082,0.257v0.09c-1.498,0-2.992-0.017-4.488,0.007
			c-0.855,0.013-1.74-0.039-2.553,0.164c-2.107,0.523-4.24,0.513-6.377,0.521c-3.104,0.012-6.207,0.014-9.307,0.011
			c-0.773-0.001-1.277-0.273-0.756-1.11c0.389-0.621,0.662-1.338,0.857-2.046c0.102-0.371-0.033-0.832-0.145-1.228
			c-0.16-0.561-0.59-0.876-1.166-0.943c-0.559-0.065-1.107,0.053-1.42,0.541c-0.809,1.259-1.578,2.545-2.34,3.832
			c-0.352,0.596-0.844,0.898-1.523,1.033c-0.996,0.197-1.09,0.18-1.568-0.913c-0.125-0.293-0.213-0.608-0.381-0.877
			c-0.5-0.805-1.496-1.019-2.199-0.403c-0.803,0.698-1.52,1.497-2.291,2.231c-0.104,0.099-0.324,0.074-0.49,0.107
			c-0.018-0.193-0.084-0.397-0.043-0.576c0.145-0.612,0.416-1.208,0.469-1.825c0.061-0.68-0.314-1.221-0.939-1.547
			c-0.535-0.279-1.227-0.173-1.736,0.402c-0.709,0.796-1.352,1.65-2,2.497c-0.324,0.423-0.598,0.884-0.896,1.328
			c-0.498,0.741-1.242,0.763-2.004,0.631c-0.27-0.048-0.629-0.178-0.402-0.628c0.287-0.572,0.594-1.141,0.822-1.737
			c0.107-0.283,0.158-0.674,0.047-0.937c-0.154-0.361-0.434-0.72-0.756-0.947c-0.412-0.294-0.85-0.053-1.117,0.293
			c-0.717,0.93-1.455,1.855-2.061,2.858c-0.811,1.343-1.941,1.829-3.473,1.79c-1.646-0.041-1.748-0.096-0.916-1.569
			c0.477-0.846,0.924-1.677,0.943-2.673c0.01-0.436-0.805-1.017-1.176-0.82c-0.281,0.148-0.572,0.297-0.807,0.506
			c-1.283,1.151-2.418,2.442-3.17,3.999c-0.611,1.264-1.717,1.486-2.895,1.633c-0.107,0.014-0.387-0.316-0.357-0.397
			c0.191-0.492,0.441-0.961,0.684-1.433c0.438-0.855,0.949-1.681,1.312-2.567c0.656-1.602,1.602-2.466,3.5-2.709
			c1.914-0.245,3.822-0.327,5.732-0.497c0.771-0.067,1.221-0.492,1.234-1.208c0.02-0.854,0.006-1.712-0.057-2.563
			c-0.117-1.598-0.379-3.191-0.393-4.788c-0.016-1.792-0.512-3.355-1.604-4.754c-0.195-0.251-0.387-0.52-0.504-0.811
			c-0.045-0.11,0.105-0.435,0.191-0.444c1.057-0.119,2.117-0.232,3.182-0.275c0.766-0.031,1.125,0.295,1.277,1.123
			c0.271,1.469,0.494,2.947,0.742,4.421c0.143,0.854,0.322,1.741,1.133,2.205c1.143,0.653,1.492,1.771,1.865,2.881
			c0.236,0.707,0.344,1.457,0.555,2.173c0.312,1.053,0.764,1.396,1.875,1.221c0.643-0.102,1.209-0.155,1.865,0.005
			c1.896,0.463,3.822,0.262,5.734,0.005c0.844-0.113,1.699-0.209,2.523-0.41c2.842-0.691,5.725-0.603,8.611-0.553
			c0.426,0.009,0.855-0.002,1.281-0.041c2.094-0.19,3.105-1.021,3.354-3.176c0.357-3.096,1.16-6.071,2.061-9.032
			c0.344-1.133,0.568-1.339,1.816-1.382c2.141-0.072,4.277-0.088,6.381,0.417c0.402,0.098,0.707,0.638,0.549,0.993
			c-1.082,2.438-2.178,4.871-3.266,7.308c-0.348,0.778-0.754,1.541-0.998,2.351c-0.33,1.092,0.133,2.161,1.086,2.786
			c1.021,0.67,2.15,0.845,3.361,0.833c3.209-0.03,6.414,0.006,9.619,0.018c0.322,0.001,0.643,0.012,0.961,0.033
			C95.956,94.561,96.345,94.997,96.21,95.544z M20.431,27.797c2.119,0.247,4.236,0.562,6.365,0.667
			c2.562,0.128,5.135,0.118,7.703,0.074c1.816-0.032,3.66-0.052,5.434-0.385c1.697-0.318,3.389-0.416,5.096-0.51
			c1.381-0.076,2.76-0.238,4.137-0.378c2.23-0.226,4.457-0.552,6.695-0.68c5.865-0.335,11.752,0.185,17.619-0.599
			c2.631-0.352,5.344-0.146,8.02-0.105c2.883,0.045,5.766-0.021,8.646,0.408c1.561,0.233,3.195,0.236,4.779-0.208
			c1.604-0.45,2.334-1.397,2.207-3c-0.094-1.17-0.189-2.34-0.287-3.51c-0.037-0.002-0.072-0.004-0.109-0.006
			c0-1.175,0.031-2.351-0.014-3.524c-0.021-0.633-0.111-1.28-0.281-1.889c-0.25-0.888-0.838-1.478-1.805-1.592
			c-2.865-0.336-5.717-0.702-8.623-0.689c-7.705,0.032-15.412-0.069-23.117-0.133c-0.961-0.008-1.922-0.098-2.881-0.17
			c-1.275-0.095-2.549-0.286-3.824-0.304c-2.889-0.041-5.783,0.086-8.668-0.015c-4.295-0.152-8.537,0.492-12.811,0.625
			c-0.318,0.01-0.639,0.059-0.957,0.098c-2.752,0.342-5.5,0.865-8.26,0.974c-2.404,0.095-4.633,0.695-6.863,1.436
			c-0.947,0.314-1.297,0.686-1.238,1.604c0.086,1.382,0.189,2.779,0.48,4.128c0.492,2.293,1.137,4.554,1.721,6.827
			C19.708,27.381,19.966,27.741,20.431,27.797z M87.153,20.505c0.574-0.861,1.18-1.703,1.809-2.527
			c0.297-0.39,0.76-0.274,0.918,0.189c0.1,0.295,0.193,0.593,0.273,0.839c-0.082,1.148-0.883,2.531-2.385,2.446
			c-0.197-0.012-0.404-0.081-0.584-0.171C86.745,21.057,87.013,20.716,87.153,20.505z M79.573,19.74
			c0.344-1.131,1.008-2.069,1.75-2.971c0.906-1.103,2.146-1.397,3.627-0.771c0.145,0.061,0.326,0.414,0.271,0.505
			c-0.748,1.267-1.457,2.572-2.355,3.728c-0.309,0.396-1.117,0.402-1.42,0.498c-0.631-0.042-0.947-0.057-1.262-0.086
			C79.798,20.606,79.466,20.093,79.573,19.74z M28.079,18.949c0.818-0.487,1.672-1.03,2.58-1.224
			c1.869-0.399,3.785-0.816,5.684-0.81c5.021,0.019,10.018-0.441,15.008-0.798c7.68-0.549,15.355-0.24,23.033-0.403
			c0.639-0.014,1.279,0.01,1.918,0.047c0.568,0.033,0.883,0.613,0.598,1.175c-2.139,4.242-1.092,3.686-5.584,3.705
			c-3.521,0.015-7.045,0.003-10.568,0.003c0-0.048,0-0.097-0.002-0.146c-4.16,0.115-8.352-0.041-12.473,0.42
			c-4.053,0.452-8.094,0.287-12.135,0.519c-1.809,0.104-3.611,0.309-5.418,0.44c-0.637,0.047-1.279,0.053-1.914,0.009
			c-0.607-0.042-1.207-0.635-1.312-1.232C27.378,19.985,27.472,19.312,28.079,18.949z M87.442,43.395
			c-0.584-0.018-1.031,0.313-1.23,0.817c-0.346,0.873-0.615,1.778-0.865,2.684c-0.08,0.29-0.09,0.667,0.029,0.929
			c0.162,0.354,0.432,0.708,0.748,0.932c0.406,0.288,0.811,0.007,1.115-0.282c0.977-0.929,1.291-2.128,1.328-3.428
			c-0.004-0.104-0.01-0.209-0.014-0.313C88.53,44.084,87.995,43.411,87.442,43.395z M80.606,82.354
			c-0.107-0.284-0.295-0.554-0.5-0.783c-0.295-0.334-0.611-0.11-0.816,0.107c-1.238,1.329-2.33,2.767-2.932,4.504
			c-0.131,0.372-0.066,0.829-0.014,1.236c0.021,0.152,0.268,0.274,0.496,0.493c0.328-0.195,0.807-0.322,1.012-0.632
			c0.938-1.408,1.803-2.865,2.676-4.316C80.628,82.798,80.671,82.525,80.606,82.354z"/>
	</g>
</g>
</svg>
