<?xml version="1.0" encoding="utf-8"?>
<!-- Generator: Adobe Illustrator 16.0.0, SVG Export Plug-In . SVG Version: 6.00 Build 0)  -->
<!DOCTYPE svg PUBLIC "-//W3C//DTD SVG 1.1//EN" "http://www.w3.org/Graphics/SVG/1.1/DTD/svg11.dtd">
<svg version="1.1" id="Layer_1" xmlns="http://www.w3.org/2000/svg" xmlns:xlink="http://www.w3.org/1999/xlink" x="0px" y="0px"
	 width="120px" height="120px" viewBox="0 0 120 120" style="enable-background:new 0 0 120 120;" xml:space="preserve">
<g id="youtube1">
	<g>
		<path style="fill-rule:evenodd;clip-rule:evenodd;" d="M104.576,67.256c-0.057-0.637-0.158-1.27-0.252-1.904
			c-0.488-3.293-1.646-6.396-2.758-9.51c-1.02-2.857-3.113-4.486-5.98-5.26c-1.668-0.451-3.371-0.533-5.08-0.602
			c-7.047-0.279-14.102,0.047-21.152-0.396c-4.262-0.268-8.551-0.094-12.83-0.156c-0.844-0.014-1.726-0.072-2.523-0.326
			c-4.505-1.424-9.062-1.139-13.633-0.51c-1.371,0.188-2.719,0.543-4.09,0.727c-1.9,0.256-3.81,0.475-5.722,0.607
			c-1.43,0.1-2.688,0.6-3.942,1.227c-2.145,1.072-4,2.527-5.414,4.432c-1.589,2.141-3.013,4.408-4.455,6.654
			c-0.338,0.523-0.461,1.186-0.684,1.785c-0.718,1.938-0.51,4.02-0.902,5.996c-0.592,2.988-0.338,5.963-0.19,8.947
			c0.079,1.596,0.304,3.184,0.364,4.779c0.1,2.674,0.037,5.352,0.201,8.018c0.13,2.125,0.369,4.258,0.79,6.34
			c0.442,2.193,1.054,4.367,2.248,6.307c0.896,1.455,1.75,2.934,3.183,3.973c3.632,2.637,7.642,4.307,12.145,4.479
			c3.523,0.137,7.061,0.117,10.584-0.029c2.229-0.092,4.432-0.428,6.678-0.049c0.918,0.156,1.906-0.086,2.86-0.178
			c0.741-0.07,1.483-0.291,2.218-0.266c4.794,0.158,9.617-0.555,14.382,0.475c0.412,0.09,0.852,0.061,1.279,0.082
			c4.174,0.223,8.342,0.262,12.441-0.727c2.277-0.551,4.639-0.762,6.818-1.711c1.955-0.85,3.945-1.631,5.857-2.568
			c1.145-0.561,2.232-1.283,3.232-2.074c2.047-1.617,3.863-3.404,3.301-6.404c-0.055-0.283,0.105-0.621,0.205-0.92
			c1.102-3.277,1.375-6.672,1.398-10.1c0.014-2.031,0.002-4.064,0.002-6.719C105.416,77.266,105.01,72.26,104.576,67.256z
			 M96.375,93.73c-0.348,1.232-0.701,2.465-1.039,3.701c-0.297,1.074-0.846,2.021-1.818,2.551c-2.43,1.324-4.707,2.955-7.449,3.676
			c-1.791,0.469-3.604,0.467-5.414,0.402c-0.588-0.02-1.189-0.422-1.732-0.74c-0.77-0.453-1.57-0.635-2.451-0.598
			c-2.234,0.09-4.477-0.141-6.695,0.471c-1.008,0.277-2.125,0.217-3.193,0.211c-7.705-0.041-15.41-0.059-23.112-0.189
			c-3.093-0.053-6.194-0.252-9.265-0.611c-2.49-0.289-4.682-1.486-6.492-3.223c-0.588-0.564-1.01-1.4-1.268-2.191
			c-0.527-1.617-1.001-3.271-1.293-4.945c-0.367-2.102-0.444-4.252-0.799-6.355c-0.984-5.848-0.525-11.736-0.631-17.607
			c-0.031-1.711,0.203-3.393,0.451-5.094c0.336-2.281,1.457-3.994,3.1-5.43c0.877-0.77,1.905-1.373,2.891-2.012
			c0.354-0.229,0.768-0.449,1.174-0.498c2.328-0.279,4.66-0.674,6.995-0.709c3.63-0.059,7.265-0.123,10.892,0.361
			c1.791,0.24,3.633,0.1,5.452,0.125c3.526,0.053,7.04,0.121,10.563,0.508c3.178,0.352,6.412,0.197,9.623,0.229
			c2.996,0.031,5.996,0.086,8.988-0.01c3.223-0.102,6.398,0.289,9.588,0.6c1.334,0.131,2.178,0.805,2.609,2.027
			c1.434,4.037,2.797,8.072,2.264,12.486c-0.191,1.582-0.031,3.207-0.031,4.812h0.074c0,1.283-0.074,2.572,0.012,3.852
			C98.697,84.408,97.688,89.088,96.375,93.73z M76.738,42.283c1.932,1.535,7.043,2.932,9.408,2.424
			c1.604-0.344,2.969-1.057,3.748-2.684c0.432-0.902,0.65-1.811,0.658-2.768c0.027-3.523,0.01-7.047,0.01-10.57h-0.117
			c0-3.203-0.008-6.406,0.004-9.611c0.004-1.295-0.125-2.574-0.621-3.768c-0.186-0.449-0.6-0.932-1.033-1.135
			c-1.914-0.896-3.793,0.389-3.676,2.469c0.047,0.85,0.225,1.695,0.23,2.545c0.039,5.98,0.057,11.963,0.064,17.943
			c0,0.527-0.088,1.057-0.178,1.58c-0.08,0.471-0.729,0.861-1.232,0.791c-1.195-0.168-1.682-0.682-1.82-1.814
			c-0.17-1.371-0.332-2.748-0.594-4.102c-0.486-2.521-0.805-5.045-0.721-7.621c0.051-1.6-0.004-3.205-0.09-4.805
			c-0.045-0.84-0.217-1.682-0.412-2.504c-0.221-0.928-0.852-1.438-1.826-1.506c-0.736-0.051-1.469-0.127-2.201-0.193
			c-1.094-0.1-2.193,0.572-2.398,1.643c-0.279,1.463-0.508,2.945-0.598,4.43c-0.283,4.703,0.236,9.381,0.586,14.061
			C74.088,39.209,75.051,40.943,76.738,42.283z M51.395,30.104c-0.051,4.35,0.76,8.014,1.419,11.678
			c0.386,2.143,1.916,3.664,4.058,4.121c3.092,0.66,6.177,0.586,8.97-1.227c1.58-1.025,2.82-2.293,2.998-4.305
			c0.084-0.955,0.312-1.906,0.299-2.855c-0.076-4.811-0.465-9.596-1.375-14.324c-0.221-1.145-0.531-2.287-0.941-3.375
			c-0.496-1.316-1.496-2.012-2.965-2.023c-1.303-0.012-2.521,0.18-3.733,0.725c-1.255,0.564-2.571,1.111-3.917,1.328
			c-1.719,0.275-2.641,1.236-3.23,2.727C51.946,25.182,51.299,27.861,51.395,30.104z M58.921,26.885
			c0.063-0.73,0.188-1.457,0.286-2.184c1.024-0.523,2.042-1.057,3.082-1.549c0.094-0.045,0.363,0.16,0.469,0.307
			c0.115,0.162,0.178,0.389,0.193,0.59c0.254,3.289,0.498,6.576,0.744,9.865c-0.049,0.002-0.096,0.006-0.145,0.01
			c0,1.492-0.006,2.984,0.002,4.477c0.006,0.979-0.459,1.617-1.371,1.922c-0.504,0.168-1.018,0.357-1.537,0.393
			c-0.246,0.018-0.55-0.271-0.761-0.488c-0.133-0.137-0.183-0.391-0.197-0.596c-0.266-3.717-0.523-7.432-0.771-11.148
			C58.879,27.951,58.875,27.412,58.921,26.885z M27.813,12.322c0.991,1.389,1.984,2.781,3.068,4.098
			c1.424,1.732,2.91,3.416,4.417,5.078c0.997,1.102,1.405,2.324,1.249,3.812c-0.2,1.908-0.271,3.83-0.419,5.746
			c-0.257,3.324,0.362,6.605,0.499,9.91c0.096,2.334,2.464,3.656,4.664,2.879c1.349-0.477,2.139-1.402,2.344-2.777
			c0.126-0.84,0.128-1.703,0.109-2.555c-0.053-2.352-0.125-4.705-0.23-7.053c-0.048-1.064-0.463-2.191-0.22-3.166
			c0.269-1.076,1.114-2.006,1.681-3.016c0.312-0.559,0.568-1.148,0.844-1.727c1.244-2.621,2.756-5.061,4.744-7.197
			c0.65-0.699,1.178-1.518,1.727-2.303c0.449-0.646,0.512-1.395,0.418-2.156c-0.211-1.709-2.277-2.6-3.666-1.562
			c-0.338,0.25-0.66,0.555-0.897,0.898c-1.882,2.721-4.267,5.078-5.799,8.053c-0.251,0.486-0.69,0.488-1.013,0.107
			c-0.891-1.055-1.709-2.191-2.715-3.125c-2.129-1.975-3.975-4.164-5.621-6.551c-0.598-0.867-1.412-1.59-2.168-2.338
			c-0.21-0.207-0.562-0.27-0.869-0.406c-0.314,0.084-0.674,0.088-0.908,0.26c-0.513,0.377-0.968,0.836-1.435,1.273
			c-0.72,0.672-0.735,1.521-0.487,2.373C27.276,11.385,27.507,11.895,27.813,12.322z M73.637,69.412
			c-0.729-0.061-1.492,0.057-2.215,0.209c-1.041,0.221-2.053,0.582-3.094,0.816c-0.434,0.098-0.824-0.1-0.969-0.596
			c-0.541-1.869-0.641-3.793-0.664-5.717c-0.018-1.518-0.273-2.977-0.801-4.389c-0.34-0.904-0.963-1.383-1.598-1.348
			c-0.863,0.045-1.34,0.629-1.727,1.271c-0.209,0.35-0.242,0.811-0.35,1.221c-0.438,1.668-0.535,3.371-0.527,5.086
			c0.02,5.775-0.012,11.553,0.064,17.328c0.045,3.414,0.236,6.828,0.404,10.238c0.025,0.512,0.135,1.15,0.459,1.486
			c1.031,1.076,2.15,2.086,3.695,2.404c2.615,0.537,5.07-0.311,7.533-0.939c0.543-0.139,1.057-0.725,1.4-1.229
			c0.412-0.605,0.787-1.32,0.902-2.031c0.34-2.102,0.646-4.223,0.775-6.346c0.129-2.131,0.029-4.277,0.029-6.416h0.08
			c0-2.459,0.074-4.922-0.021-7.379C76.936,71.096,75.479,69.568,73.637,69.412z M71.229,89.912
			c-0.133,1.377-0.689,1.775-2.152,1.67c-0.584-0.039-1.047-0.281-1.156-0.879c-0.152-0.838-0.301-1.686-0.322-2.531
			c-0.098-3.727-0.162-7.455-0.209-11.186c-0.012-1.074,0.189-1.311,1.188-1.566c3.361-0.857,3.365-0.609,3.324,2.385
			c-0.014,1.066-0.002,2.131-0.002,3.197c0.043,0.004,0.084,0.008,0.125,0.012C71.762,83.98,71.514,86.947,71.229,89.912z
			 M39.247,68.785c0.623-0.117,1.272-0.107,1.912-0.125c1.391-0.039,2.784-0.012,4.169-0.111c1.05-0.076,1.845-0.711,2.12-1.709
			c0.338-1.223,0.555-2.492,0.688-3.756c0.123-1.164-0.689-2.088-1.85-2.217c-0.74-0.084-1.495-0.082-2.242-0.061
			c-5.021,0.148-10.012,0.895-15.049,0.748c-0.982-0.027-1.906,0.234-2.774,0.689c-0.606,0.32-0.984,0.809-1.065,1.5
			c-0.051,0.422-0.084,0.85-0.111,1.277c-0.102,1.582,0.435,2.408,1.948,2.834c1.128,0.318,2.286,0.527,3.425,0.809
			c0.788,0.191,1.046,0.518,1.064,1.354c0.033,1.498,0,3,0.066,4.494c0.193,4.375,0.423,8.75,0.639,13.125
			c-0.037,0.002-0.074,0.006-0.111,0.01c0,2.459,0.014,4.92-0.006,7.381c-0.007,0.992,0.125,1.953,0.784,2.711
			c0.694,0.803,1.833,1.311,2.81,0.391c0.708-0.67,1.414-1.236,2.411-1.479c0.433-0.105,0.899-0.639,1.079-1.088
			c0.311-0.773,0.547-1.631,0.568-2.459c0.045-1.816,0.114-3.664-0.152-5.447c-0.38-2.557-0.377-5.115-0.47-7.68
			c-0.108-2.988,0.036-5.99-0.483-8.959c-0.09-0.516-0.055-1.074,0.045-1.592C38.709,69.176,39.01,68.83,39.247,68.785z
			 M91.512,71.727c-2.791-2.812-7.59-2.436-9.721,0.918c-0.67,1.059-1.205,2.309-1.404,3.535c-0.41,2.518-0.553,5.08-0.812,7.691
			c0.201,1.758,0.541,3.549,0.58,5.346c0.053,2.459,1.111,4.275,2.998,5.727c0.42,0.324,0.754,0.762,1.17,1.09
			c2.25,1.777,4.473,1.566,6.877,0.322c1.57-0.812,2.166-2.285,1.934-4.061c-0.133-1.012-0.863-1.734-1.891-1.867
			c-0.893-0.115-1.637,0.145-2.396,0.648c-1.096,0.729-1.621,0.533-2.232-0.615c-0.873-1.643-1.172-3.416-1.186-5.254
			c-0.006-0.994,0.311-1.344,1.324-1.355c1.496-0.016,2.992,0.059,4.486,0.008c1.975-0.064,3.027-1.031,3.088-2.924
			c0.039-1.271-0.047-2.564-0.234-3.824C93.785,75.072,93.012,73.24,91.512,71.727z M87.199,78.963c-0.104,0.002-0.209,0-0.453,0
			c-0.172-0.021-0.523,0.016-0.779-0.121c-0.238-0.129-0.451-0.418-0.537-0.682c-0.092-0.281-0.07-0.625-0.02-0.926
			c0.209-1.268,0.936-2.215,1.561-2.031c1.012,0.293,1.484,1.062,1.703,2.047C88.938,78.432,88.51,78.943,87.199,78.963z
			 M59.127,80.828h-0.123c0-2.141,0.07-4.283-0.024-6.42c-0.068-1.51-1.331-2.621-2.454-2.385c-1.064,0.225-1.746,1.34-1.675,2.76
			c0.054,1.064,0.193,2.131,0.157,3.191c-0.064,1.922-0.311,3.838-0.338,5.76c-0.031,2.287-0.57,4.447-1.395,6.545
			c-0.35,0.889-0.816,1.742-1.33,2.547c-0.186,0.291-0.658,0.492-1.02,0.529c-0.174,0.02-0.521-0.41-0.579-0.682
			c-0.333-1.562-0.74-3.127-0.866-4.713c-0.279-3.514-0.515-7.037-0.556-10.561c-0.022-1.965-0.802-3.49-1.923-4.945
			c-0.625-0.811-1.803-0.758-2.516,0.035c-0.527,0.592-0.75,1.271-0.787,2.049c-0.057,1.174-0.035,2.367-0.234,3.521
			c-0.756,4.408-0.169,8.727,0.758,13.023c0.246,1.141,0.568,2.285,1.039,3.35c0.67,1.516,1.824,2.674,3.379,3.271
			c2.604,1.002,5.444,0.857,7.053-1.84c2.055-3.449,3.531-7.072,3.438-11.186C59.103,83.398,59.127,82.113,59.127,80.828z"/>
	</g>
</g>
</svg>
