<?xml version="1.0" encoding="utf-8"?>
<!-- Generator: Adobe Illustrator 16.0.0, SVG Export Plug-In . SVG Version: 6.00 Build 0)  -->
<!DOCTYPE svg PUBLIC "-//W3C//DTD SVG 1.1//EN" "http://www.w3.org/Graphics/SVG/1.1/DTD/svg11.dtd">
<svg version="1.1" id="Layer_1" xmlns="http://www.w3.org/2000/svg" xmlns:xlink="http://www.w3.org/1999/xlink" x="0px" y="0px"
	 width="120px" height="120px" viewBox="0 0 120 120" style="enable-background:new 0 0 120 120;" xml:space="preserve">
<g id="youtube2">
	<g>
		<path style="fill-rule:evenodd;clip-rule:evenodd;" d="M114.607,43.054c0.021-2.493-0.516-4.881-1.324-7.211
			c-1.145-3.298-2.738-6.269-6.047-7.935c-0.473-0.238-0.91-0.562-1.332-0.887c-1.119-0.857-2.418-1.301-3.703-1.842
			c-2.781-1.174-5.73-1.644-8.615-2.398c-1.555-0.407-3.117-0.726-4.736-0.714c-0.639,0.005-1.312,0.021-1.914-0.158
			c-1.572-0.47-3.176-0.397-4.775-0.435c-2.033-0.046-4.107,0.157-6.09-0.184c-4.34-0.747-8.773-0.13-13.084-1.043
			c-5.564,0.005-11.128,0.008-16.693,0.016c-0.318,0-0.641,0.024-0.957,0.062c-2.969,0.349-5.928,0.772-8.9,1.033
			c-3.207,0.28-6.346,0.888-9.42,1.791c-2.658,0.78-5.246,1.801-7.896,2.612c-0.861,0.263-1.529,0.663-2.152,1.286
			c-0.904,0.905-1.771,1.921-2.85,2.563c-3.363,2.006-5.123,5.055-6.039,8.708c-0.416,1.655-0.717,3.338-1.113,4.997
			c-1.025,4.279-1.57,8.609-1.529,13.014c0.029,3.21,0.006,6.42,0.006,9.63c-0.002,0-0.004,0-0.004,0
			c0,3.854-0.059,7.707,0.016,11.558c0.08,4.068,0.691,8.058,1.779,11.999c0.814,2.955,2.812,4.733,5.314,6.076
			c1.494,0.804,3.107,1.423,4.715,1.979c1.303,0.451,2.664,0.786,4.025,0.991c2.109,0.314,4.268,0.35,6.357,0.745
			c1.49,0.281,2.963,0.401,4.459,0.407c7.275,0.024,14.553,0.037,21.83,0.041c0.854,0,1.713-0.037,2.562-0.12
			c3.504-0.341,7-0.751,10.505-1.051c3.938-0.337,7.881-0.577,11.822-0.87c0.424-0.032,0.842-0.15,1.266-0.19
			c3.506-0.328,7.01-0.816,10.525-0.918c3.246-0.094,6.369-0.718,9.443-1.578c2.268-0.635,4.473-1.653,5.934-3.624
			c1.971-2.658,3.818-5.381,4.775-8.645c2.088-7.105,3.367-14.352,3.678-21.73C114.693,55.045,114.557,49.045,114.607,43.054z
			 M107.902,57.463c-1.148,1.766-1.357,3.798-1.518,5.822c-0.287,3.621-0.469,7.252-0.805,10.867
			c-0.27,2.878-0.916,5.696-1.99,8.387c-0.955,2.397-2.641,4.119-5.094,5.022c-2.516,0.926-5.021,1.542-7.801,1.335
			c-4.262-0.318-8.549-0.133-12.801,0.479c-0.633,0.092-1.279,0.099-1.92,0.144c-3.41,0.238-6.854,0.271-10.225,0.773
			c-3.088,0.46-6.166,0.538-9.261,0.661c-1.059,0.042-2.105,0.325-3.164,0.466c-1.006,0.134-1.295-0.081-1.58-1.08
			c-0.146-0.509-0.203-1.069-0.467-1.51c-0.457-0.771-1.164-1.223-2.123-1.195c-0.957,0.026-1.646,0.458-2.023,1.315
			c-0.301,0.682-0.494,1.408-0.777,2.098c-0.262,0.637-0.736,1.046-1.459,1.066c-1.285,0.035-2.566,0.06-3.85,0.078
			c-0.533,0.009-1.186,0.068-1.438-0.448c-0.146-0.298,0.135-0.804,0.217-1.217c0.041-0.209,0.092-0.421,0.096-0.632
			c0.012-0.776-0.5-1.491-1.205-1.705c-0.74-0.224-1.604-0.006-2.012,0.614c-0.465,0.713-0.816,1.5-1.271,2.222
			c-0.217,0.347-0.537,0.646-0.861,0.901c-0.096,0.073-0.377-0.066-0.559-0.143c-0.082-0.035-0.195-0.165-0.184-0.233
			c0.059-0.305,0.121-0.618,0.242-0.902c0.461-1.078,0.988-2.13,1.404-3.224c0.256-0.669-0.07-1.438-0.578-1.665
			c-0.66-0.294-1.318-0.168-1.771,0.326c-0.791,0.864-1.605,1.749-2.191,2.752c-1.965,3.35-1.711,2.33-4.857,1.949
			c-0.639-0.077-0.82-0.561-0.447-1.186c0.768-1.283,1.559-2.556,2.371-3.812c0.643-0.996,1.16-2.035,1.436-3.199
			c0.166-0.701-0.059-1.266-0.527-1.737c-0.463-0.467-1.498-0.483-2.072,0.048c-0.939,0.869-1.881,1.759-2.668,2.76
			c-1.252,1.592-2.369,3.287-3.568,4.922c-0.094,0.127-0.514,0.202-0.543,0.154c-0.141-0.23-0.215-0.506-0.275-0.774
			c-0.016-0.077,0.105-0.179,0.154-0.274c1.826-3.742,3.637-7.492,5.49-11.221c0.492-0.991,0.285-1.863-0.201-2.737
			c-0.559-1.003-1.979-1.209-2.734-0.394c-0.287,0.312-0.535,0.665-0.76,1.025c-1.771,2.8-3.576,5.58-4.928,8.621
			c-0.17,0.384-0.42,0.74-0.686,1.068c-0.053,0.065-0.412,0.006-0.508-0.104c-0.941-1.087-1.045-1.78-0.475-2.878
			c2.461-4.745,4.922-9.489,7.381-14.235c0.543-1.049,1.076-2.095,0.91-3.344c-0.084-0.619-0.748-1.178-1.377-1.002
			c-0.496,0.14-1.057,0.316-1.408,0.659c-0.838,0.815-1.672,1.673-2.326,2.634c-1.262,1.854-2.404,3.789-3.586,5.695
			c-0.395,0.636-0.727,1.312-1.16,1.918c-0.137,0.191-0.508,0.216-0.773,0.316c-0.045-0.198-0.182-0.427-0.127-0.59
			c0.766-2.221,1.49-4.461,2.355-6.644c1.184-2.979,2.484-5.909,3.715-8.869c0.283-0.685,0.559-1.393,0.682-2.117
			c0.062-0.354-0.129-0.863-0.385-1.132c-0.402-0.423-1.041-0.387-1.48-0.081c-0.604,0.42-1.209,0.92-1.621,1.519
			c-1.09,1.583-2.076,3.236-3.102,4.864c-0.283,0.448-0.535,0.919-0.848,1.345c-0.094,0.13-0.344,0.157-0.529,0.195
			c-0.031,0.006-0.143-0.175-0.143-0.269c0.008-0.631-0.127-1.323,0.082-1.883c2.258-6.005,4.65-11.952,8.109-17.399
			c0.057-0.09,0.115-0.181,0.17-0.272c0.449-0.749,0.484-1.336,0.113-1.768c-0.463-0.541-1.098-0.748-1.732-0.587
			c-0.592,0.151-1.246,0.412-1.666,0.831c-0.98,0.977-1.836,2.08-2.746,3.128c-0.07,0.08-0.164,0.136-0.248,0.203
			c-0.074-0.193-0.25-0.419-0.201-0.572c0.584-1.826,1.141-3.665,1.844-5.446c0.26-0.664,0.818-1.245,1.338-1.768
			c2.219-2.231,4.848-3.862,7.758-5.022c3.488-1.391,7.062-2.225,10.867-2.449c4.592-0.27,9.205-0.212,13.77-0.648
			c3.742-0.357,7.459-0.519,11.203-0.393c0.535,0,1.07-0.002,1.603,0.001c6.637,0.039,13.223,0.616,19.768,1.729
			c2.416,0.411,4.881,0.529,7.324,0.764c3.404,0.327,6.809,0.609,10.227,0.771c2.844,0.134,5.463,1.053,7.391,3.325
			c0.26,0.302,0.541,0.782,0.482,1.123c-0.404,2.369,0.133,4.628,0.67,6.896c0.049,0.206,0.057,0.424,0.068,0.637
			c0.252,4.054,0.508,8.106,0.746,12.16C108.297,56.033,108.352,56.772,107.902,57.463z M77.295,53.879
			c-1.504-0.807-3.074-1.489-4.646-2.153c-3.342-1.412-6.678-2.823-9.809-4.692c-2.197-1.312-4.447-2.543-6.72-3.719
			c-1.324-0.684-2.729-1.23-4.414-1.25c-1.361-0.091-2.535,0.444-3.4,1.731c-0.953,1.419-1.951,2.771-1.971,4.614
			c-0.016,1.162-0.389,2.322-0.393,3.483c-0.029,5.877-0.012,11.753,0.045,17.63c0.01,0.943,0.238,1.9,0.486,2.819
			c0.131,0.485,0.422,1.12,0.818,1.309c1.523,0.719,2.041,1.675,1.143,3.204c-0.051,0.084-0.035,0.209-0.037,0.314
			c-0.027,0.793,0.174,1.482,0.891,1.93c0.779,0.484,1.584,0.649,2.387,0.087c0.434-0.305,0.846-0.651,1.217-1.028
			c1.508-1.539,3.23-2.772,5.092-3.857c3.869-2.259,7.724-4.55,11.546-6.891c3.277-2.007,6.531-4.055,9.738-6.174
			c2.092-1.381,2.32-3.688,0.578-5.462C79.111,55.025,78.219,54.376,77.295,53.879z M50.739,46.962
			c-0.125-0.103-0.344-0.197-0.352-0.31c-0.014-0.159,0.129-0.33,0.205-0.496c0.127,0.104,0.254,0.208,0.381,0.311
			C50.897,46.633,50.817,46.798,50.739,46.962z M55.809,50.328c-1.387,1.747-2.785,3.484-4.195,5.212
			c-0.076,0.091-0.42,0.114-0.443,0.068c-0.09-0.175-0.189-0.425-0.127-0.586c0.799-2.096,1.963-3.99,3.293-5.785
			c0.293-0.396,0.98-0.395,1.42-0.012c0.139,0.121,0.184,0.348,0.273,0.527C55.958,49.946,55.93,50.175,55.809,50.328z
			 M58.375,53.874c-0.062-0.179-0.203-0.418-0.137-0.54c0.293-0.53,0.609-1.058,1.002-1.513c0.094-0.107,0.52,0.073,0.752,0.114
			c0,0.287,0.084,0.559-0.014,0.658c-0.424,0.437-0.896,0.828-1.361,1.225C58.559,53.869,58.377,53.884,58.375,53.874z
			 M66.781,55.972c-0.111,0.248-0.438,0.444-0.715,0.551c-0.145,0.056-0.387-0.112-0.57-0.206c-0.629-0.319-1.195-0.265-1.75,0.192
			c-0.889,0.737-1.793,1.459-2.711,2.162c-0.291,0.222-0.627,0.386-0.948,0.567c-0.01,0.045-0.017,0.092-0.028,0.137
			c-0.036,0.008-0.079,0.01-0.123,0.012c-0.065,0.128-0.131,0.257-0.197,0.385c-0.269-0.399-0.018-0.377,0.197-0.385
			c0.016-0.03,0.032-0.061,0.047-0.091c0.034-0.02,0.069-0.038,0.104-0.058c0.095-0.455,0.136-0.938,0.347-1.33
			c0.699-1.294,1.468-2.55,2.232-3.806c0.24-0.394,0.605-0.553,1.066-0.316c0.936,0.479,1.887,0.925,2.797,1.448
			C66.709,55.339,66.861,55.792,66.781,55.972z"/>
	</g>
</g>
</svg>
