<?xml version="1.0" encoding="utf-8"?>
<!-- Generator: Adobe Illustrator 16.0.0, SVG Export Plug-In . SVG Version: 6.00 Build 0)  -->
<!DOCTYPE svg PUBLIC "-//W3C//DTD SVG 1.1//EN" "http://www.w3.org/Graphics/SVG/1.1/DTD/svg11.dtd">
<svg version="1.1" id="Layer_1" xmlns="http://www.w3.org/2000/svg" xmlns:xlink="http://www.w3.org/1999/xlink" x="0px" y="0px"
	 width="120px" height="120px" viewBox="0 0 120 120" style="enable-background:new 0 0 120 120;" xml:space="preserve">
<g id="viddler">
	<g>
		<path style="fill-rule:evenodd;clip-rule:evenodd;" d="M111.012,37.517c-0.912-5.716-3.373-10.69-7.697-14.787
			c-2.973-2.818-6.225-4.831-10.195-5.691c-3.662-0.794-7.371-1.106-11.121-1.178c-4.812-0.089-8.996,1.487-12.783,4.349
			c-3.443,2.604-6.375,5.687-8.831,9.231c-0.365,0.528-0.719,1.063-1.084,1.591c-0.4,0.575-0.729,0.529-1.131-0.17
			c-0.266-0.463-0.504-0.943-0.766-1.408c-1.418-2.515-2.873-5.003-4.605-7.324c-1.506-2.019-3.369-3.588-5.66-4.604
			c-1.852-0.822-3.75-1.552-5.648-2.266c-2.725-1.022-5.424-0.9-8.125,0.196c-2.998,1.217-5.664,2.982-8.322,4.778
			c-3.346,2.262-5.742,5.409-8.006,8.664c-0.484,0.694-0.844,1.494-1.145,2.289c-0.906,2.404-1.533,4.892-1.986,7.417
			c-0.209,1.167-0.17,2.339,0.236,3.482c0.391,1.107,0.68,2.254,1.123,3.338c1.688,4.112,4.627,7.123,8.4,9.382
			c1.371,0.821,2.715,1.688,4.096,2.497c1.471,0.863,2.947,1.728,4.467,2.503c0.947,0.483,1.986,0.78,2.961,1.212
			c0.27,0.12,0.686,0.552,0.646,0.626c-0.479,0.869,0.33,1.595,0.176,2.463c-0.481,2.708-0.816,5.442-1.204,8.166
			c0.017-0.002,0.033-0.005,0.049-0.006c0.009,0.042,0.014,0.087,0.021,0.13c0.076,0.069,0.151,0.139,0.227,0.208
			c-0.064-0.024-0.156-0.032-0.186-0.077c-0.022-0.038-0.033-0.083-0.041-0.131c-0.026-0.023-0.052-0.048-0.078-0.071l0.007-0.053
			c-0.3,0.027-0.618,0.12-0.884,0.041c-2.457-0.722-4.922-1.422-7.348-2.236c-3.543-1.188-7.041-2.504-10.584-3.693
			c-2.049-0.688-4.246,0.772-4.271,2.951c-0.029,2.471-0.389,4.893-0.654,7.332c-0.252,2.334-0.457,4.677-0.779,7.003
			c-0.488,3.485-1.072,6.958-1.584,10.44c-0.094,0.629-0.117,1.291-0.033,1.919c0.182,1.35,0.816,2.459,2.145,2.97
			c2.996,1.156,2.342,1.308,5.463,0.123c0.896-0.339,1.752-0.8,2.59-1.269c1.867-1.044,3.682-2.183,5.568-3.185
			c3.209-1.702,6.457-3.334,9.693-4.979c0.545-0.276,1.133,0.052,1.186,0.623c0.291,3.189,0.617,6.377,0.834,9.572
			c0.082,1.198,0.311,2.338,0.787,3.41c0.35,0.787,0.922,1.521,1.814,1.7c1.348,0.27,2.666,0.667,4.107,0.296
			c2.908-0.75,5.889-0.972,8.893-0.922c0.641,0.012,1.303,0.025,1.92-0.115c2.531-0.574,5.102-0.476,7.663-0.564
			c0.75-0.026,1.516,0.022,2.24-0.125c2.857-0.58,5.748-0.489,8.633-0.493c3.104-0.004,6.207,0.02,9.311-0.008
			c1.689-0.015,1.791-0.184,1.641-1.82c-0.107-1.17-0.223-2.348-0.213-3.521c0.012-1.325-0.32-2.532-0.908-3.695
			c-2.068-4.113-3.672-8.411-5.168-12.761c-1.426-4.14-2.979-8.234-4.453-12.356c-0.088-0.243-0.07-0.683,0.086-0.813
			c0.193-0.166,0.6-0.201,0.875-0.132c1.553,0.391,3.088,0.849,4.639,1.241c0.82,0.207,1.66,0.432,2.498,0.472
			c7,0.336,13.58-1.126,19.688-4.624c2.377-1.361,4.234-3.214,5.641-5.563c1.432-2.395,2.537-4.938,3.635-7.491
			C111.484,47.326,111.793,42.419,111.012,37.517z M104.768,46.683c-0.705,4.022-2.564,7.69-4.98,11.012
			c-0.488,0.672-1.197,1.239-1.912,1.684c-3.115,1.938-6.492,3.234-10.107,3.889c-0.902,0.163-1.234-0.096-1.527-1.118
			c-0.117-0.407-0.184-0.839-0.363-1.215c-0.406-0.845-1.627-0.99-2.121-0.251c-0.293,0.439-0.48,0.949-0.723,1.425
			c-0.24,0.473-0.594,0.478-1.061,0.319c-0.961-0.329-1.697-0.751-1.805-1.943c-0.055-0.595-0.457-1.185-0.787-1.724
			c-0.377-0.618-1.527-0.648-1.973-0.093c-0.199,0.248-0.381,0.52-0.521,0.806c-0.32,0.646-0.459,1.528-1.51,1.237
			c-0.988-0.273-0.752-1.138-0.824-1.847c-0.043-0.425-0.08-0.853-0.172-1.268c-0.162-0.716-0.721-1.276-1.258-1.285
			c-0.59-0.01-1.01,0.305-1.295,0.789c-0.16,0.273-0.252,0.587-0.393,0.872c-0.094,0.187-0.227,0.354-0.34,0.53
			c-0.992-0.739-2.221,0.445-3.273-0.482c-0.676-0.597-1.457-0.334-1.896,0.357c-1.24,1.948-1.568,4.177-1.875,6.395
			c-0.068,0.485,0.215,1.026,0.367,1.532c1.254,4.191,2.521,8.38,3.77,12.573c0.303,1.022,0.541,2.063,0.807,3.097
			c0.775,3.006,1.68,5.961,3.211,8.689c0.416,0.745,0.877,1.505,1.08,2.317c0.273,1.086,1.451,1.905,0.953,3.207
			c-1.033,0.468-2.09-0.01-3.139,0.072c-2.555,0.201-5.115,0.342-7.674,0.465c-0.518,0.025-1.293,0.059-1.52-0.239
			c-1.293-1.692-2.04-0.811-2.883,0.411c-0.197,0.281-0.746,0.371-1.15,0.443c-0.84,0.152-1.691,0.225-2.537,0.348
			c-1.072,0.154-1.145,0.093-1.199-1.17c-0.014-0.317,0.012-0.641-0.035-0.953c-0.096-0.65-0.982-1.009-1.498-0.584
			c-0.404,0.332-0.766,0.729-1.105,1.131c-0.477,0.566-0.896,1.183-1.385,1.739c-0.092,0.106-0.422,0.114-0.568,0.033
			c-0.115-0.064-0.205-0.362-0.158-0.507c0.439-1.313,0.938-2.609,1.344-3.933c0.066-0.224-0.15-0.639-0.361-0.813
			c-0.209-0.173-0.578-0.206-0.875-0.2c-0.188,0.004-0.385,0.173-0.553,0.299c-0.514,0.383-1.014,0.783-1.527,1.165
			c-0.01,0.007-0.197-0.151-0.182-0.193c0.223-0.692,0.479-1.374,0.705-2.066c0.248-0.766,1.037-1.429,0.572-2.335
			c-0.301-0.584-1.148-0.339-2.492,0.667c-0.467,0.35-0.807,0.932-1.487,0.905c-0.009,0.025-0.019,0.05-0.028,0.075
			c-0.06,0.03-0.119,0.062-0.176,0.095c-0.041,0.073-0.082,0.147-0.123,0.22c0.018-0.062,0.014-0.146,0.051-0.181
			c0.021-0.018,0.048-0.025,0.072-0.039c0.032-0.058,0.063-0.114,0.096-0.172c0.039,0.005,0.072,0.001,0.108,0.002
			c0.357-0.967,0.744-1.924,1.054-2.905c0.156-0.497,0.17-1.04,0.23-1.566c0.023-0.222-0.541-0.586-0.707-0.456
			c-0.582,0.452-1.154,0.917-1.723,1.387c-0.479,0.398-0.807,0.358-0.953-0.168c-0.199-0.719-0.35-1.452-0.533-2.175
			c-0.191-0.757-0.541-1.125-1.314-1.153c-1.062-0.039-2.158-0.116-3.191,0.084c-1.982,0.384-4.008,0.634-5.867,1.529
			c-0.672,0.322-1.4,0.524-2.102,0.777c-0.787,0.282-1.471,0.175-1.992-0.532c-0.064-0.086-0.133-0.173-0.215-0.238
			c-1.07-0.854-2.553-0.54-3.168,0.72c-0.363,0.747-0.297,1.712-1.125,2.225c-0.178,0.109-0.375,0.182-0.564,0.271
			c-0.057-0.189-0.211-0.415-0.156-0.564c0.219-0.601,0.562-1.16,0.74-1.771c0.176-0.603,0.283-1.248,0.283-1.875
			c-0.006-1.255-0.729-1.831-2.09-1.773c-0.963,0.04-1.039-0.01-0.76-0.587c0.648-1.347,1.346-2.672,1.99-4.021
			c0.482-0.999-0.244-2.027-1.342-1.878c-0.518,0.071-0.998,0.373-1.516,0.457c-0.227,0.037-0.703-0.191-0.715-0.329
			c-0.064-0.735-0.068-1.486,0.023-2.218c0.025-0.189,0.467-0.463,0.713-0.458c0.406,0.007,0.816,0.188,1.215,0.33
			c1.406,0.504,2.805,1.033,4.215,1.529c0.896,0.315,1.76,0.525,2.789,0.434c1.232-0.11,2.521,0.272,3.77,0.519
			c1.152,0.227,2.27,0.648,3.428,0.812c1.318,0.186,2.375,0.253,2.67,2.045c0.217,1.331,2.203,1.433,3.107,0.324
			c0.133-0.164,0.277-0.33,0.369-0.52c1.4-2.88,3.174-5.578,4.217-8.632c0.104-0.303,0.295-0.609,0.283-0.908
			c-0.014-0.396-0.105-0.838-0.316-1.163c-0.273-0.426-0.721-0.213-1.148-0.138c-0.762,0.135-1.004-0.182-0.688-0.827
			c0.473-0.96,0.891-1.96,1.484-2.84c1.215-1.799,1.215-3.546,0.123-5.384c-0.293-0.494-0.607-0.826-1.162-0.99
			c-0.275-0.082-0.676-0.294-0.721-0.512c-0.344-1.607-1.619-1.981-2.904-2.011c-2.256-0.05-4.123-0.959-5.928-2.159
			c-0.979-0.65-2.014-1.22-2.973-1.897c-3.291-2.327-5.883-5.249-7.562-8.952c-0.451-1-0.719-2.007-0.656-3.099
			c0.078-1.389,0.133-2.779,0.258-4.164c0.176-1.947,0.775-3.71,2.033-5.285c1.602-2.007,3.07-4.123,5.012-5.826
			c0.961-0.843,1.971-1.653,3.051-2.332c2.432-1.525,5.006-1.721,7.639-0.499c2.754,1.277,5.256,2.865,6.863,5.567
			c0.322,0.546,0.77,1.026,1.195,1.506c1.801,2.025,3.076,4.355,4.072,6.859c0.512,1.289,1.004,2.596,1.641,3.823
			c1.012,1.952,3.439,2.206,4.77,0.506c1.182-1.512,2.288-3.088,3.383-4.665c2.83-4.074,6.193-7.629,10.195-10.57
			c3.17-2.331,6.719-3.116,10.598-2.641c1.271,0.155,2.557,0.197,3.84,0.267c2.043,0.112,4,0.633,5.932,1.261
			c1.66,0.538,3.145,1.431,4.344,2.651c1.57,1.598,3.006,3.332,4.43,5.065c0.465,0.565,0.773,1.285,1.041,1.978
			C105.139,37.511,105.568,42.108,104.768,46.683z M91.275,33.307c-2.209-0.487-4.424-0.612-6.469,0.726
			c-1.244,0.815-2.521,1.585-3.816,2.32c-1.709,0.973-2.67,2.482-2.871,4.358c-0.244,2.246,0.141,4.46,1.115,6.516
			c0.561,1.18,1.426,2.17,2.754,2.488c1.541,0.368,3.117,0.594,4.676,0.882c2.824,0.023,4.99-1.035,6.51-3.41
			c0.344-0.536,0.814-0.993,1.139-1.538c2.496-4.195,1.578-8.089-1.219-11.13C92.609,33.991,91.943,33.453,91.275,33.307z
			 M90.674,40.958c-0.264,1.698-0.771,3.314-2.207,4.443c-0.367,0.289-0.762,0.308-1.166,0.038
			c-1.625-1.081-2.025-2.645-1.723-4.458c0.049-0.288,0.232-0.645,0.467-0.794c0.979-0.629,1.998-1.191,2.949-1.745
			c0.293,0.122,0.52,0.165,0.676,0.293C90.365,39.307,90.814,40.06,90.674,40.958z M45.712,36.832c0-0.64,0.102-1.298-0.018-1.913
			c-0.5-2.562-1.73-4.546-4.41-5.342c-4.51-1.339-10.412,2.656-10.916,7.342c-0.336,3.151,1.152,5.305,3.58,6.99
			c1.41,0.98,2.975,1.094,4.584,0.584c1.213-0.384,2.432-0.771,3.615-1.233c2.188-0.854,3.412-2.471,3.596-4.83
			c0.041-0.529,0.006-1.065,0.006-1.598H45.712z M40.744,37.203c-0.01,0.053-0.02,0.382-0.133,0.671
			c-0.068,0.176-0.279,0.385-0.455,0.415c-0.961,0.166-1.918,0.178-2.777-0.392c-0.842-0.557-1.264-2.224,0.115-2.902
			c0.189-0.094,0.371-0.211,0.568-0.293c1.494-0.624,2.521-0.013,2.68,1.597C40.761,36.51,40.744,36.726,40.744,37.203z"/>
	</g>
</g>
</svg>
