<?xml version="1.0" encoding="utf-8"?>
<!-- Generator: Adobe Illustrator 16.0.0, SVG Export Plug-In . SVG Version: 6.00 Build 0)  -->
<!DOCTYPE svg PUBLIC "-//W3C//DTD SVG 1.1//EN" "http://www.w3.org/Graphics/SVG/1.1/DTD/svg11.dtd">
<svg version="1.1" id="Layer_1" xmlns="http://www.w3.org/2000/svg" xmlns:xlink="http://www.w3.org/1999/xlink" x="0px" y="0px"
	 width="120px" height="120px" viewBox="0 0 120 120" style="enable-background:new 0 0 120 120;" xml:space="preserve">
<g id="instagram">
	<g>
		<path style="fill-rule:evenodd;clip-rule:evenodd;" d="M109.234,83.134c-0.166-2.127-0.357-4.26-0.398-6.393
			c-0.066-3.426-0.018-6.852-0.018-10.277h0.031c0-3.746,0.023-7.492-0.01-11.24c-0.016-1.604-0.039-3.219-0.252-4.803
			c-0.584-4.35-1.107-8.697-1.1-13.092c0.004-2.248-0.078-4.502,0.049-6.742c0.174-3.143-0.342-6.158-1.16-9.176
			c-0.484-1.781-1.225-3.406-2.119-4.996c-1.395-2.48-3.51-3.66-6.332-3.588c-2.256,0.055-4.492-0.082-6.709-0.518
			c-0.518-0.102-1.064-0.102-1.596-0.072c-2.027,0.115-4.055,0.26-6.082,0.4c-0.533,0.037-1.105-0.014-1.592,0.162
			c-2.105,0.762-4.227,0.404-6.352,0.201c-0.852-0.08-1.703-0.193-2.557-0.199c-4.709-0.033-9.42-0.039-14.128-0.047
			c-0.535,0-1.086-0.021-1.6,0.098c-2.109,0.494-4.254,0.412-6.391,0.465c-1.498,0.037-3.025-0.061-4.482,0.211
			c-1.916,0.357-3.822,0.418-5.75,0.398c-1.713-0.02-3.4,0.057-5.094,0.461c-1.654,0.396-3.373,0.561-5.072,0.725
			c-2.785,0.264-5.463,0.957-8.125,1.777c-1.051,0.326-1.988,0.828-2.785,1.537c-1.117,0.992-2.174,2.051-3.203,3.133
			c-1.346,1.414-2.275,3.07-2.852,4.957c-1.094,3.59-1.924,7.242-2.236,10.969c-0.35,4.154-0.512,8.328-0.611,12.496
			c-0.117,4.918,0.008,9.832,0.279,14.754c0.271,4.918,0.467,9.84,1.5,14.656c0.684,3.186,0.688,6.361,0.682,9.566
			c0,0.746-0.051,1.525,0.135,2.234c0.844,3.244,2.086,6.307,4.588,8.676c1.242,1.176,2.648,2.197,3.781,3.467
			c1.168,1.311,2.541,2.189,4.068,2.996c1.857,0.979,3.754,1.48,5.838,1.447c4.924-0.08,9.848-0.119,14.771-0.184
			c0.533-0.006,1.078-0.014,1.598-0.117c2.541-0.5,5.109-0.455,7.678-0.453c1.605,0.004,3.213,0.004,4.814-0.072
			c2.23-0.107,4.455-0.352,6.685-0.42c3.314-0.1,6.635-0.086,9.953-0.139c0.854-0.016,1.713-0.057,2.561-0.152
			c3.717-0.416,7.43-0.844,11.143-1.295c1.377-0.168,2.764-0.332,4.113-0.637c2.871-0.652,5.436-1.906,7.496-4.078
			c0.736-0.777,1.529-1.5,2.297-2.244c2.145-2.082,3.289-4.762,4.094-7.52C109.471,88.112,109.43,85.604,109.234,83.134z
			 M42.575,21.735c0.01-0.842,0.334-1.242,1.096-1.293c2.986-0.193,5.949-0.57,8.949-0.686c7.277-0.279,14.552-0.254,21.832-0.209
			c2.889,0.016,5.777,0.119,8.666,0.121c2.025,0.004,4.037-0.068,6.064-0.367c2.42-0.355,4.891-0.293,7.338,0.277
			c1.434,0.334,2.27,1.072,2.691,2.406c0.031,0.102,0.055,0.207,0.08,0.312c0.826,3.438,1.412,6.908,1.277,10.465
			c-0.023,0.631-0.455,1.016-1.039,0.818c-1.357-0.455-2.746-0.4-4.135-0.385c-2.033,0.023-4.066,0.076-6.1,0.109
			c-0.643,0.012-1.303,0.096-1.924-0.018c-5.107-0.938-10.236,0.002-15.35-0.217c-0.746-0.033-1.523,0.086-2.24-0.074
			c-3.604-0.809-7.252-0.504-10.876-0.4c-2.006,0.059-4,0.611-6,0.938c-0.631,0.104-1.264,0.266-1.895,0.264
			c-1.719-0.006-3.42,0.062-5.098,0.496c-0.508,0.131-1.062,0.092-1.596,0.102c-1.264,0.027-1.582-0.227-1.604-1.422
			c-0.033-1.928-0.008-3.854-0.008-5.779h-0.139C42.567,25.374,42.553,23.554,42.575,21.735z M54.661,59.999
			c-0.1-0.338-0.877-0.449-1.102-0.168c-0.648,0.814-0.836,1.984-1.904,2.477c-0.092,0.041-0.203,0.15-0.262,0.125
			c-0.082-0.033-0.174-0.168-0.17-0.254c0.01-0.209,0.057-0.418,0.117-0.619c0.66-2.154,1.596-4.184,2.814-6.082
			c0.229-0.355,0.439-0.729,0.621-1.109c0.217-0.453-0.068-1.035-0.594-1.289c-1.299-0.625-1.346-0.658-0.719-1.562
			c0.602-0.871,1.287-1.686,1.99-2.48c0.891-1.008,0.943-1.355,0.188-2.5c-0.23-0.35-0.506-0.678-0.686-1.051
			c-0.059-0.125,0.064-0.469,0.191-0.531c1.152-0.568,0.445-2.404,1.891-2.748c0.311-0.074,0.621-0.172,0.938-0.203
			c1.59-0.158,3.181-0.299,4.771-0.445c0.004,0.041,0.008,0.082,0.012,0.125c0.641,0,1.281-0.012,1.924,0
			c1.74,0.037,3.395,0.318,4.742,1.572c0.307,0.287,0.701,0.488,1.072,0.699c4.193,2.395,6.012,6.188,6.303,10.834
			c0.234,3.729-0.695,7.207-2.57,10.416c-1.223,2.09-2.9,3.82-5.332,4.295c-2.273,0.445-4.594,0.736-6.908,0.98
			c-0.814,0.086-1.074-0.186-1.285-1.051c-0.102-0.412-0.113-0.852-0.255-1.246c-0.328-0.895-1.043-1.371-1.973-1.096
			c-0.766,0.227-1.471,0.158-2.199,0.043c-0.986-0.158-1.514-0.783-1.488-1.758c0.035-1.385,0.131-2.77,0.146-4.156
			C54.938,60.812,54.778,60.399,54.661,59.999z M33.083,28.747c0.135-2.275,0.223-4.404,0.402-6.525
			c0.078-0.92,1.328-1.482,2.205-1.025c0.225,0.117,0.449,0.523,0.428,0.777c-0.246,2.863-0.555,5.721-0.814,8.584
			c-0.086,0.951-0.109,1.91-0.115,2.865c-0.008,0.93-0.365,1.258-1.334,1.127c-0.479-0.064-0.766-0.34-0.77-0.826
			C33.075,32.017,33.083,30.31,33.083,28.747z M20.293,33.804c0.441-2.623,0.91-5.238,2.098-7.668
			c0.625-1.275,1.531-2.301,2.58-3.219c0.148-0.131,0.396-0.227,0.582-0.205c0.102,0.012,0.23,0.303,0.24,0.475
			c0.043,0.744,0.061,1.492,0.066,2.238c0.01,1.068,0.004,2.135,0.004,3.199h0.145c0,1.814,0.01,3.627-0.004,5.441
			c-0.006,0.789-0.326,1.088-1.197,1.111c-1.066,0.029-2.135,0.039-3.201,0.018C20.69,35.177,20.153,34.642,20.293,33.804z
			 M102.117,82.993c-0.082,1.492-0.277,2.98-0.307,4.475c-0.035,1.789-0.715,3.32-1.658,4.773c-0.174,0.268-0.436,0.479-0.609,0.744
			c-1.441,2.207-3.305,3.387-6.107,3.426c-2.203,0.031-4.451,0.408-6.629,1.023c-1.221,0.344-2.523,0.395-3.791,0.57
			c-1.057,0.145-2.131,0.205-3.17,0.432c-1.098,0.242-2.1,0.314-3.021-0.477c-0.354-0.303-0.805-0.281-1.195-0.041
			c-0.869,0.531-1.738,0.629-2.748,0.352c-0.58-0.158-1.285-0.033-1.891,0.123c-0.877,0.227-1.668,0.062-2.512-0.148
			c-1.35-0.33-1.449-0.305-1.199-1.625c0.16-0.84,0.008-1.461-0.627-1.992c-0.533-0.443-1.348-0.463-1.727,0.051
			c-0.572,0.768-1.111,1.566-1.576,2.404c-0.352,0.635-0.795,0.926-1.521,0.918c-1.283-0.018-2.566,0.01-3.849,0.039
			c-1.1,0.023-1.301-0.16-0.891-1.238c0.414-1.094,0.451-2.061-0.314-3c-0.883-1.086-2.166-1.16-2.996-0.072
			c-0.838,1.104-1.602,2.27-2.355,3.436c-0.453,0.703-1.051,1.008-1.873,0.986c-1.176-0.029-2.354-0.002-3.529-0.031
			c-0.879-0.021-1.006-0.143-1.293-1.068c-0.094-0.305-0.107-0.639-0.225-0.932c-0.232-0.58-1.141-0.77-1.637-0.371
			c-0.082,0.066-0.209,0.109-0.246,0.193c-0.756,1.768-2.227,1.699-3.768,1.492c-0.633-0.084-1.277-0.098-1.908-0.195
			c-0.131-0.02-0.34-0.303-0.316-0.428c0.209-1.047,0.518-2.076,0.676-3.129c0.074-0.494-0.033-1.059-0.205-1.539
			c-0.283-0.781-1.211-0.98-1.83-0.508c-1.145,0.871-1.891,2.074-2.488,3.307c-0.6,1.232-1.467,1.414-2.617,1.221
			c-0.316-0.053-0.639-0.082-0.951-0.143c-0.531-0.104-0.846-0.709-0.611-1.25c0.768-1.764,1.561-3.516,2.342-5.273
			c0.391-0.879,0.807-1.748,1.154-2.645c0.15-0.387,0.195-0.83,0.213-1.248c0.027-0.744-0.523-1.473-1.223-1.703
			c-0.562-0.186-1.201,0.021-1.645,0.691c-1.416,2.139-2.795,4.301-4.176,6.461c-0.402,0.629-0.742,1.295-1.148,1.922
			c-0.086,0.133-0.428,0.273-0.49,0.221c-0.23-0.193-0.584-0.504-0.547-0.705c0.176-0.941,0.391-1.889,0.73-2.783
			c1.631-4.293,3.303-8.57,4.967-12.854c0.311-0.795,0.75-1.553,0.957-2.375c0.178-0.703,0.172-1.473,0.127-2.205
			c-0.037-0.617-0.99-1.094-1.48-0.754c-0.604,0.42-1.273,0.848-1.668,1.438c-1.182,1.775-2.242,3.633-3.352,5.459
			c-0.275,0.453-0.539,0.912-0.822,1.361c-0.033,0.051-0.176,0.098-0.209,0.072c-0.08-0.064-0.166-0.17-0.174-0.262
			c-0.014-0.209-0.025-0.436,0.039-0.629c1.141-3.447,2.25-6.906,3.463-10.326c0.461-1.303,1.174-2.516,1.754-3.777
			c0.525-1.148,0.344-2.088-0.531-2.895c-0.84-0.777-2.34-0.906-3.264-0.186c-0.531,0.413-0.965,0.952-1.433,1.448
			c-0.005,0.067-0.009,0.135-0.017,0.2c-0.059,0.015-0.12,0.025-0.178,0.04c-0.059,0.082-0.118,0.164-0.177,0.245
			c0.023-0.07,0.025-0.174,0.074-0.207c0.029-0.02,0.066-0.028,0.103-0.038c0.031-0.043,0.062-0.085,0.092-0.128
			c0.035-0.036,0.068-0.075,0.103-0.112c0.049-0.566,0.034-1.156,0.231-1.665c1.281-3.279,2.34-6.654,4.191-9.689
			c0.676-1.107-0.07-2.395-1.391-2.564c-0.773-0.1-1.514,0.008-2.104,0.549c-0.551,0.504-1.043,1.068-1.568,1.598
			c-0.068,0.066-0.236,0.135-0.285,0.1c-0.139-0.098-0.291-0.232-0.342-0.385c-0.064-0.195-0.055-0.424-0.043-0.635
			c0.053-1.166-0.137-2.328,0.271-3.492c0.398-1.139-0.59-2.248-0.268-3.439c0.109-0.408,0.045-0.889,0.236-1.242
			c0.184-0.332,0.557-0.643,0.916-0.773c0.381-0.141,0.844-0.066,1.273-0.068c5.348-0.02,10.695-0.037,16.045-0.045
			c0.529,0,1.072,0.014,1.576,0.146c0.176,0.047,0.385,0.498,0.342,0.717c-0.082,0.406-0.332,0.781-0.521,1.164
			c-2.727,5.477-3.744,11.32-3.729,17.383c0.006,2.932,0.662,5.74,1.961,8.352c1.566,3.146,3.814,5.729,7.146,7.066
			c3.359,1.352,6.689,2.797,10.326,3.369c6.115,0.961,11.677-0.156,16.601-4.033c1.092-0.857,2.268-1.609,3.359-2.467
			c4.191-3.287,7.176-7.285,7.479-12.848c0.039-0.74,0.15-1.484,0.303-2.211c0.602-2.891,0.453-5.73-0.443-8.545
			c-0.846-2.666-2.025-5.168-3.523-7.527c-0.365-0.57-0.096-1.041,0.596-1.051c1.924-0.023,3.85-0.01,5.775-0.031
			c3.637-0.037,7.275-0.107,10.912-0.115c0.711,0,1.41-0.547,2.125-0.049c-0.158,0.605-0.383,1.205-0.465,1.822
			c-0.201,1.516,0.059,2.07,1.557,2.719c0.727,0.314,0.98,0.713,0.98,1.416c0,1.283,0.014,2.568,0.016,3.852
			c0.014,7.598-0.004,15.195,0.053,22.791c0.018,2.348,0.25,4.693,0.355,7.043C102.17,81.284,102.164,82.142,102.117,82.993z
			 M84.143,73.608c-0.314-0.047-0.633-0.057-1.092-0.096c-0.285,0.029-0.713,0.041-1.125,0.123
			c-0.561,0.113-0.951,0.477-1.135,1.006c-0.195,0.562,0.004,1.1,0.436,1.426c0.666,0.504,1.371,1.01,2.141,1.311
			c1.035,0.404,2.203-0.383,2.398-1.467C85.977,74.745,85.299,73.774,84.143,73.608z M97.334,57.644
			c-0.836-0.002-1.416,0.703-1.42,1.725c-0.006,0.947,0.637,1.598,1.559,1.58c0.92-0.02,1.645-0.688,1.664-1.537
			C99.158,58.442,98.346,57.646,97.334,57.644z M84.285,31.257c1.271-0.092,2.555-0.018,3.836-0.018v-0.02
			c1.598,0,3.201,0.072,4.795-0.018c2.068-0.117,3.371-1.334,3.605-3.385c0.145-1.264,0.16-2.561,0.068-3.83
			c-0.115-1.633-1.008-2.793-2.609-3.27c-0.705-0.211-1.455-0.324-2.191-0.365c-1.275-0.07-2.564,0.027-3.834-0.084
			c-1.775-0.158-3.354,0.443-4.945,1.049c-1.582,0.604-2.299,1.824-2.381,3.453c-0.047,0.957,0.016,1.92-0.039,2.877
			C80.48,29.538,82.439,31.392,84.285,31.257z"/>
	</g>
</g>
</svg>
