<?xml version="1.0" encoding="utf-8"?>
<!-- Generator: Adobe Illustrator 16.0.0, SVG Export Plug-In . SVG Version: 6.00 Build 0)  -->
<!DOCTYPE svg PUBLIC "-//W3C//DTD SVG 1.1//EN" "http://www.w3.org/Graphics/SVG/1.1/DTD/svg11.dtd">
<svg version="1.1" id="Layer_1" xmlns="http://www.w3.org/2000/svg" xmlns:xlink="http://www.w3.org/1999/xlink" x="0px" y="0px"
	 width="120px" height="120px" viewBox="0 0 120 120" style="enable-background:new 0 0 120 120;" xml:space="preserve">
<g id="vine">
	<g>
		<path style="fill-rule:evenodd;clip-rule:evenodd;" d="M100.404,61.874c-0.426-0.314-0.916-0.571-1.414-0.748
			c-2.205-0.786-4.348-1.732-6.668-2.21c-1.236-0.255-2.445-0.777-3.58-1.351c-1.906-0.962-3.77-2.022-5.604-3.115
			c-1.006-0.598-2.064-1.211-2.85-2.051c-3.805-4.064-6.445-8.766-7.428-14.311c-0.307-1.729-0.27-3.41,0.672-4.974
			c0.221-0.364,0.436-0.749,0.557-1.153c0.514-1.682,1.885-2.187,3.385-2.528c0.738-0.169,1.498,0.348,1.68,1.123
			c0.047,0.207,0.09,0.418,0.119,0.629c0.465,3.284,0.709,6.582,0.662,9.902c-0.023,1.604-0.051,3.208-0.037,4.812
			c0.01,1.319,0.451,1.995,1.744,2.356c1.246,0.348,2.371,0.957,3.564,1.4c2.496,0.93,5.014,1.899,7.787,1.145
			c0.602-0.164,1.277-0.053,1.92-0.083c1.432-0.068,1.783-0.265,2.016-1.522c0.367-1.992,0.74-3.995,0.893-6.011
			c0.15-2.021,0.031-4.062,0.031-6.096h0.09c0-1.283-0.074-2.572,0.016-3.851c0.254-3.727-0.689-7.205-2.062-10.606
			c-0.811-2.006-2.006-3.756-3.475-5.345c-2.137-2.311-4.795-3.917-7.398-5.596c-1.098-0.709-2.352-0.992-3.676-0.945
			c-1.604,0.058-3.207,0.066-4.811,0.132c-0.529,0.021-1.068,0.1-1.574,0.249c-1.43,0.428-2.861,0.857-4.26,1.375
			c-2.207,0.816-4.271,1.903-6.221,3.24c-2.59,1.777-4.699,4.032-6.602,6.479c-2.348,3.023-3.828,6.41-3.764,10.337
			c0.031,1.819,0.082,3.639,0.068,5.457c-0.018,2.146,0.154,4.252,0.602,6.363c0.818,3.859,2.445,7.325,5.078,10.215
			c2.797,3.073,5.445,6.336,8.996,8.642c0.176,0.115,0.326,0.273,0.484,0.418c2.996,2.719,2.77,2.026,1.064,5.555
			c-1.436,2.979-3.123,5.852-4.883,8.656c-1.873,2.986-3.955,5.841-5.963,8.743c-0.273,0.398-0.656,0.423-1.107,0.196
			c-1.68-0.845-2.854-2.236-3.984-3.665c-6.252-7.903-10.627-16.749-13.252-26.474c-1.137-4.226-2.389-8.422-3.453-12.665
			c-0.832-3.312-1.457-6.675-1.529-10.111c-0.037-1.712-0.008-3.429-0.135-5.134c-0.137-1.83-1.623-3.101-3.449-3.086
			c-0.531,0.005-1.066,0.06-1.6,0.116c-3.936,0.425-7.869,0.552-11.816,0.11c-2.371-0.266-4.096,1.246-4.26,3.67
			c-0.043,0.64-0.043,1.283-0.043,1.926c0,4.168-0.086,8.334,0.641,12.475c0.479,2.729,0.809,5.488,1.117,8.244
			c0.334,3.004,1.447,5.793,2.252,8.667c1.559,5.569,3.625,10.938,6.25,16.104c3.316,6.528,7.324,12.549,12.463,17.792
			c2.713,2.77,5.955,4.869,9.012,7.206c3.104,2.375,6.656,3.849,10.367,4.915c1.982,0.57,4.008,0.524,5.926-0.506
			c0.945-0.509,1.721-1.13,2.467-1.934c1.668-1.799,3.654-3.307,5.295-5.128c6.098-6.779,11.5-14.071,15.73-22.181
			c0.555-1.062,1.18-1.623,2.479-1.467c2.648,0.321,5.344-0.073,7.994,0.451c0.617,0.122,1.289,0.08,1.92-0.001
			c3.127-0.397,3.43-1.146,3.963-3.726c0.105-0.517,0.045-1.066,0.061-1.602c0.039-1.284-0.066-2.591,0.146-3.846
			C103.426,64.548,102.102,63.132,100.404,61.874z M21.605,43.017c-0.369-2.521-0.688-5.048-1.014-7.573
			c0.016-3.657-0.4-3.999,3.588-3.098c2.807,0.635,2.789,0.58,3.021,3.379c0.143,1.69,0.4,3.372,0.594,5.059
			c0.059,0.507-0.27,0.863-0.758,0.655c-1.279-0.548-2.277,0.029-3.258,0.681c-0.527,0.351-0.947,0.859-1.473,1.208
			C22.184,43.408,21.627,43.162,21.605,43.017z M97.27,68.97c-0.148,1.04-1.061,1.983-2.131,2.091
			c-0.518,0.052-1.068-0.002-1.576-0.126c-2.283-0.555-4.551-1.154-6.826-1.733c-1.521-0.387-2.189-0.113-2.869,1.189
			c-0.297,0.568-0.604,1.137-0.832,1.733c-2.051,5.357-5.293,10.01-8.752,14.498c-3.59,4.656-7.359,9.176-11.059,13.745
			c-0.404,0.496-0.824,1.009-1.336,1.374c-0.299,0.212-0.797,0.197-1.205,0.188c-0.426-0.01-0.76-0.532-0.643-0.906
			c0.227-0.704,0.574-1.39,0.664-2.109c0.148-1.151-0.809-2.049-1.98-1.972c-0.424,0.028-0.865,0.078-1.25,0.234
			c-0.592,0.239-1.135,0.595-1.711,0.873c-0.932,0.45-1.412,0.156-1.4-0.836c0.002-0.104,0.074-0.209,0.072-0.312
			c-0.066-2.176-1.484-3.08-3.414-2.183c-0.098,0.044-0.191,0.107-0.266,0.183c-0.924,0.926-1.756,0.396-2.564-0.176
			c-0.381-0.269-0.523-0.648-0.221-1.084c0.547-0.786,1.197-1.521,1.609-2.371c0.387-0.799,0.273-1.691-0.383-2.39
			c-0.623-0.664-1.396-1.017-2.314-0.746c-1.016,0.301-2.07,0.516-2.877,1.326c-0.34,0.342-0.711,0.982-1.299,0.64
			c-0.826-0.48-1.543-1.143-1.887-2.083c-0.057-0.151,0.064-0.445,0.199-0.57c0.467-0.434,1.004-0.793,1.463-1.236
			c0.531-0.514,1.08-1.037,1.494-1.643c1.246-1.817-0.453-3.877-2.203-3.868c-1.02,0.006-1.846,0.452-2.709,0.878
			c-0.75,0.368-1.229,1.357-2.18,1.183c-1.076-0.196-1.256-1.359-1.852-2.077c-0.137-0.164-0.252-0.347-0.365-0.529
			c-0.674-1.093-0.588-1.574,0.498-2.42c0.672-0.523,1.396-0.983,2.074-1.504c0.637-0.49,0.914-1.158,0.861-1.969
			c-0.059-0.9-0.697-1.633-1.568-1.766c-0.764-0.116-1.494-0.04-2.16,0.38c-0.725,0.456-1.439,0.925-2.172,1.368
			c-0.463,0.282-0.863,0.049-1.076-0.333c-0.467-0.839-0.883-1.711-1.279-2.588c-0.297-0.656-0.135-1.265,0.395-1.741
			c0.971-0.874,1.721-1.896,2.205-3.112c0.537-1.356-0.402-3.019-1.848-3.056c-1.057-0.028-2.117,0.188-3.178,0.31
			c-0.578,0.068-1.023-0.275-0.947-0.865c0.064-0.507,0.158-1.075,0.439-1.476c0.672-0.959,1.471-1.83,2.205-2.749
			c0.68-0.849,1.182-1.775,1.23-2.898c0.043-1.02-0.703-1.889-1.717-1.942c-0.984-0.054-1.92,0.107-2.742,0.697
			c-0.434,0.311-0.852,0.641-1.307,0.912c-0.098,0.058-0.436-0.061-0.475-0.166c-0.256-0.7-0.477-1.414-0.678-2.132
			c-0.43-1.53-0.246-2.927,0.783-4.22c1.262-1.587,2.439-3.241,3.664-4.86c0.311-0.411,0.539-0.107,0.635,0.158
			c0.404,1.103,0.834,2.201,1.127,3.335c0.695,2.698,1.689,5.283,2.756,7.853c2.791,6.722,5.91,13.284,9.533,19.596
			c1.438,2.501,2.988,4.938,4.521,7.383c1.199,1.914,2.672,3.621,4.338,5.135c1.02,0.927,2.156,1.74,3.307,2.509
			c0.973,0.651,2.049,1.146,3.061,1.748c0.822,0.491,1.611,1.04,2.418,1.562c0.979-0.627,1.979-1.229,2.934-1.894
			c0.525-0.364,0.988-0.822,1.457-1.259c1.188-1.102,7.492-8.357,8.24-9.8c2.307-4.444,4.887-8.749,6.871-13.359
			c0.189-0.445-0.01-0.837-0.41-1.083c-0.729-0.447-1.467-0.875-2.211-1.299c-0.82-0.469-1.264-1.134-1.135-2.107
			c0.131-0.95,0.275-1.898,0.395-2.851c0.096-0.738,0.223-1.479,0.227-2.22c0.004-0.578-0.434-0.924-0.926-1.203
			c-0.562-0.318-1.025-0.112-1.49,0.177c-0.979,0.604-1.211,1.727-1.809,2.594c-0.145,0.208-0.52,0.438-0.713,0.383
			c-0.258-0.071-0.566-0.378-0.629-0.639c-0.121-0.505-0.145-1.053-0.104-1.575c0.074-0.955,0.246-1.902,0.342-2.857
			c0.047-0.472-0.57-1.171-0.98-1.065c-0.375,0.097-0.838,0.323-1.012,0.633c-0.361,0.643-0.539,1.385-0.836,2.066
			c-0.066,0.15-0.336,0.319-0.484,0.299c-0.178-0.024-0.35-0.228-0.486-0.385c-0.471-0.537-0.432-1.196-0.348-1.829
			c0.107-0.844,0.375-1.673,0.422-2.517c0.027-0.493-0.189-1.026-0.398-1.497c-0.211-0.48-1.074-0.569-1.361-0.164
			c-0.24,0.339-0.412,0.729-0.594,1.104c-0.164,0.345-0.111,0.981-0.695,0.809c-0.34-0.1-0.67-0.52-0.826-0.874
			c-0.207-0.467-0.414-1.044-0.322-1.518c0.574-3.039,1.072-6.102,2.328-8.967c0.297-0.677,0.549-1.393,0.68-2.116
			c0.123-0.66-0.141-1.261-0.762-1.632c-0.531-0.315-1.322-0.29-1.803,0.14c-0.557,0.498-1.082,1.035-1.57,1.601
			c-0.416,0.481-0.754,1.027-1.139,1.537c-0.055,0.071-0.203,0.153-0.252,0.128c-0.082-0.043-0.145-0.165-0.164-0.264
			c-0.045-0.206-0.104-0.425-0.074-0.627c0.506-3.75,1.379-7.351,4.014-10.278c0.568-0.629,1.033-1.362,1.467-2.094
			c0.473-0.792-0.178-1.851-1.109-1.789c-0.625,0.041-1.232,0.285-1.85,0.424c-0.08,0.018-0.229-0.029-0.262-0.091
			c-0.082-0.166-0.219-0.395-0.164-0.53c0.562-1.417,1.371-2.684,2.652-3.54c1.947-1.304,3.812-2.72,5.973-3.72
			c3.07-1.42,6.262-2.068,9.613-2.137c1.119-0.021,2.098,0.312,3,0.942c0.699,0.49,1.387,1.003,2.102,1.471
			c4.891,3.204,6.842,8.015,7.348,13.573c0.135,1.485,0.02,2.993,0.02,4.491c0.014,2.993,0.051,5.99-0.627,8.937
			c-0.225,0.978-0.459,1.215-1.52,1.23c-0.535,0.007-1.082,0.05-1.604-0.04c-1.453-0.253-2.896-0.566-4.346-0.856
			c-0.609-1.651-0.609-3.413-0.191-5.019c0.742-2.864,0.516-5.733,0.523-8.606c0.002-2.105-0.824-3.96-2.086-5.612
			c-1.184-1.55-2.744-2.338-4.727-2.191c-1.955,0.145-3.787,0.771-5.436,1.756c-0.779,0.466-1.383,1.327-1.891,2.122
			c-2.334,3.67-2.963,7.716-2.564,11.995c0.162,1.757,0.861,3.322,1.617,4.835c2.109,4.229,4.709,8.143,8.016,11.55
			c0.67,0.69,1.314,1.444,2.1,1.977c4.242,2.877,8.439,5.847,13.371,7.511c0.906,0.306,1.783,0.721,2.643,1.147
			C97.045,67.14,97.426,67.907,97.27,68.97z"/>
	</g>
</g>
</svg>
