<?xml version="1.0" encoding="utf-8"?>
<!-- Generator: Adobe Illustrator 16.0.0, SVG Export Plug-In . SVG Version: 6.00 Build 0)  -->
<!DOCTYPE svg PUBLIC "-//W3C//DTD SVG 1.1//EN" "http://www.w3.org/Graphics/SVG/1.1/DTD/svg11.dtd">
<svg version="1.1" id="Layer_1" xmlns="http://www.w3.org/2000/svg" xmlns:xlink="http://www.w3.org/1999/xlink" x="0px" y="0px"
	 width="120px" height="120px" viewBox="0 0 120 120" style="enable-background:new 0 0 120 120;" xml:space="preserve">
<g id="_x35_00px">
	<g>
		<path style="fill-rule:evenodd;clip-rule:evenodd;" d="M118.377,62.591c-1.521-6.355-5.021-11.264-10.57-14.672
			c-1.543-0.947-3.232-1.661-4.889-2.411c-0.568-0.258-1.229-0.353-1.855-0.435c-3.523-0.459-7.035-0.028-10.549,0.154
			c-0.211,0.012-0.416,0.084-0.629,0.118c-4.303,0.685-8.258,2.138-11.586,5.069c-0.865,0.762-1.027,0.74-1.943,0.033
			c-3.096-2.388-6.607-3.912-10.289-5.111c-0.709-0.231-1.43-0.443-2.117-0.734c-1.838-0.783-3.77-0.812-5.684-0.574
			c-2.775,0.345-5.43,1.122-7.816,2.668c-2.607,1.69-5.219,3.369-7.199,5.831c-0.201,0.25-0.424,0.487-0.664,0.694
			c-0.357,0.306-0.754,0.37-1.146,0.05c-0.91-0.741-1.842-1.459-2.725-2.235c-1.738-1.533-3.795-2.312-6.037-2.779
			c-1.373-0.286-2.729-0.538-4.129-0.457c-1.488,0.086-2.977,0.2-4.463,0.316c-0.762,0.061-1.104-0.338-0.979-1.188
			c0.047-0.317,0.115-0.632,0.168-0.948c0.287-1.728,0.516-2.045,2.223-2.054c2.801-0.017,5.527-0.552,8.277-0.937
			c1.793-0.251,3.559-0.817,5.354-0.913c1.527-0.083,2.906-0.66,4.381-0.857c0.807-0.107,1.324-0.626,1.678-1.344
			c0.385-0.784,0.502-1.606,0.588-2.472c0.279-2.839-0.414-5.519-1.217-8.185c-0.379-1.254-1.293-1.974-2.57-2.091
			c-2.242-0.206-4.502-0.292-6.715,0.213c-3.35,0.765-6.727,1.188-10.168,1.027c-1.176-0.056-2.355-0.009-3.533-0.008
			c-1.711,0.081-3.424,0.274-5.129,0.214c-2.055-0.073-4.047,0.297-6.061,0.543c-0.977,0.12-1.262,0.482-1.283,1.494
			c-0.037,1.819-0.016,3.64-0.088,5.457c-0.074,1.812-0.283,3.619-0.346,5.431c-0.119,3.633-0.092,7.264-0.512,10.893
			c-0.283,2.432-0.256,4.928-0.082,7.375c0.156,2.184,1.449,3.934,4.059,3.069c0.709-0.234,1.414-0.487,2.133-0.687
			c0.715-0.196,1.438-0.414,2.17-0.483c1.275-0.121,2.564-0.225,3.84-0.172c1.604,0.067,3.229,0.271,4.488,1.426
			c2.039,1.866,3.348,4.161,3.729,6.911c0.131,0.941,0.115,1.935-0.027,2.875c-0.131,0.849-0.596,1.592-1.502,1.929
			c-0.799,0.297-1.596,0.607-2.373,0.952c-3.045,1.348-5.828,0.942-8.324-1.255c-0.883-0.777-1.715-1.613-2.551-2.441
			c-0.455-0.452-0.844-0.972-1.309-1.412c-1.014-0.956-1.926-1.044-3.227-0.499c-2.51,1.051-4.594,2.699-6.521,4.562
			c-1.688,1.631-2.131,3.643-1.498,5.865c0.721,2.538,2.154,4.676,4.154,6.356c4.471,3.756,9.553,6.025,15.506,5.979
			c1.393-0.011,2.783-0.033,4.174-0.062c2.072-0.044,4.098-0.489,5.83-1.563c2.9-1.797,6.215-2.904,8.771-5.271
			c0.43-0.398,0.955-0.44,1.475-0.143c1.762,1.008,3.562,1.954,5.271,3.047c2.369,1.52,4.932,2.524,7.637,3.234
			c1.875,0.491,3.807,0.544,5.695,0.854c3.533,0.581,6.783-0.209,9.984-1.53c3.092-1.277,5.912-2.977,8.307-5.353
			c0.91-0.905,0.973-0.899,2.215-0.225c2.346,1.274,4.693,2.554,6.994,3.908c3.926,2.309,8.23,2.915,12.656,2.803
			c2.025-0.052,4.041-0.477,5.844-1.523c1.66-0.966,3.25-2.079,4.971-2.921c1.52-0.743,2.551-1.885,3.508-3.193
			c2.045-2.797,3.359-5.946,4.473-9.189c0.271-0.795,0.445-1.66,0.471-2.5C119.193,69.588,119.211,66.071,118.377,62.591z
			 M12.91,78.905c-0.174,0.378-0.475,0.704-0.754,1.022c-0.387,0.438-0.635,1.279-1.373,0.949c-0.266-0.118-0.215-0.945-0.27-1.251
			c0.223-1.196-0.023-2.097-0.447-2.979c-0.055-0.117,0.094-0.414,0.229-0.52s0.465-0.17,0.557-0.086
			c0.705,0.639,1.398,1.294,2.027,2.004C13.031,78.217,13.02,78.664,12.91,78.905z M15.984,84.923
			c-0.088,0.192-0.609,0.372-0.816,0.284c-0.352-0.148-0.883-0.536-0.861-0.784c0.113-1.393,0.541-2.724,1.516-3.766
			c0.199-0.213,0.785-0.113,1.182-0.065c0.145,0.018,0.258,0.302,0.385,0.465c0.014,0.104,0.068,0.225,0.035,0.311
			C16.961,82.56,16.512,83.76,15.984,84.923z M24.893,81.635c-0.06,0.042-0.143,0.051-0.221,0.062
			c-0.012,0.014-0.024,0.026-0.037,0.039c-0.01,0-0.02-0.001-0.029-0.001c-0.113,1.516-1.175,2.636-1.693,3.985
			c-0.092,0.242-0.473,0.506-0.738,0.524c-0.732,0.052-1.48,0.03-2.207-0.075c-0.201-0.03-0.512-0.479-0.482-0.695
			c0.115-0.829,0.299-1.655,0.543-2.458c0.367-1.22,0.49-1.313,1.77-1.347c0.936-0.025,1.873,0.039,2.809,0.065
			c0-0.01,0.003-0.018,0.004-0.027c0.02-0.005,0.041-0.007,0.062-0.011c0.09-0.094,0.179-0.188,0.268-0.284
			C24.926,81.49,24.938,81.604,24.893,81.635z M112.439,75.092c-0.041,0.099-0.104,0.195-0.117,0.297
			c-0.412,3.542-2.801,5.6-5.539,7.399c-0.445,0.293-0.883,0.603-1.34,0.876c-0.783,0.471-0.916,0.453-1.668-0.16
			c-0.328-0.271-0.625-0.582-0.969-0.824c-0.51-0.358-1.414-0.03-1.553,0.598c-0.139,0.616-0.148,1.26-0.236,1.889
			c-0.062,0.443-0.264,0.799-0.74,0.919c-0.867,0.219-1.736-0.001-2.012-0.554c-0.188-0.377-0.295-0.793-0.443-1.188
			c-0.223-0.595-0.377-1.227-0.686-1.772c-0.605-1.069-1.834-1.148-2.652-0.208c-0.207,0.236-0.324,0.55-0.494,0.819
			c-0.273,0.44-0.635,0.498-1.059,0.213c-0.607-0.408-1.195-0.32-1.795,0.036c-0.457,0.271-0.801,0.094-1.021-0.354
			c-0.285-0.575-0.527-1.172-0.846-1.728c-0.57-0.995-1.084-1.109-2.41-0.609c-0.891,0.336-1.076,0.29-1.527-0.429
			c-0.68-1.084-1.322-2.193-2.035-3.255c-0.412-0.615-0.975-0.622-1.629-0.157c-0.314,0.225-0.637,0.531-0.984,0.576
			c-0.215,0.028-0.459-0.415-0.738-0.557c-0.246-0.125-0.621-0.258-0.824-0.154c-0.396,0.202-0.018,0.541,0.012,0.827
			c0.033,0.295,0.04,0.593,0.058,0.89c0.021-0.005,0.039-0.003,0.06-0.008c0.006,0.04,0.008,0.082,0.011,0.123
			c0.088,0.087,0.176,0.173,0.265,0.259c-0.078-0.024-0.193-0.027-0.223-0.08c-0.029-0.051-0.037-0.113-0.042-0.179
			c-0.022-0.021-0.045-0.043-0.067-0.065l-0.003-0.05c-0.91,0.188-1.503-0.592-2.296-0.794c-0.857-0.219-1.07-0.275-1.48,0.642
			c-0.678,1.525-1.938,2.52-3.059,3.647c-0.373,0.375-0.752,0.248-1.092-0.099c-0.148-0.15-0.309-0.309-0.492-0.408
			c-1.156-0.624-2.449-0.134-2.824,1.114c-0.148,0.498-0.217,1.06-0.158,1.573c0.131,1.133-0.504,1.472-1.555,1.456
			c-0.213-0.004-0.426,0.009-0.641,0.012c-2.297,0.031-2.293,0.03-3.17-2.16c-0.119-0.296-0.258-0.587-0.42-0.86
			c-0.357-0.605-0.898-0.882-1.604-0.824c-0.705,0.059-1.195,0.441-1.473,1.065c-0.127,0.282-0.152,0.615-0.207,0.927
			c-0.104,0.584,0.189,1.383-0.662,1.583c-0.576,0.136-0.957-0.352-1.316-0.749c-0.143-0.158-0.273-0.333-0.436-0.47
			c-0.775-0.655-1.162-0.615-2.15,0.206c-0.746,0.618-1.068,0.576-1.389-0.279c-0.258-0.691-0.436-1.416-0.609-2.135
			c-0.174-0.723-0.303-1.457-0.449-2.187c-0.242-1.22-1.406-1.605-2.49-1.032c-0.461,0.244-0.824,0.667-1.268,0.951
			c-0.086,0.055-0.455-0.124-0.502-0.26c-0.203-0.6-0.291-1.236-0.504-1.832c-0.211-0.589-0.418-1.293-1.158-1.378
			c-0.592-0.068-0.908,0.454-1.203,0.905c-0.115,0.176-0.227,0.357-0.367,0.511c-0.232,0.253-0.666,0.179-0.777-0.145
			c-0.307-0.903-0.594-1.815-0.881-2.725c-0.127-0.403-0.193-0.831-0.361-1.216c-0.447-1.031-2.061-1.208-2.646-0.258
			c-0.666,1.085-1.451,2.173-1.404,3.519c0.041,1.237-0.598,1.853-1.539,2.532c-1.107,0.801-2.01,1.899-2.951,2.918
			c-0.611,0.661-1.115,0.705-1.91,0.218c-0.705-0.435-1.352-0.097-1.371,0.704c-0.031,1.287-0.693,1.929-1.779,2.325
			c-0.5,0.183-0.998,0.389-1.514,0.517c-0.275,0.067-0.68,0.102-0.855-0.05c-0.178-0.153-0.258-0.581-0.188-0.835
			c0.174-0.612,0.506-1.179,0.686-1.789c0.145-0.488,0.289-1.036,0.201-1.517c-0.092-0.514,0.045-0.831,0.42-1.06
			c0.455-0.277,0.979-0.438,1.424-0.726c3.061-1.97,5.006-4.596,4.844-8.423c-0.055-1.282-0.029-2.519,0.498-3.759
			c0.428-1.001,0.182-2.105-0.287-3.108c-0.396-0.853-0.266-1.629,0.219-2.424c0.441-0.728,0.811-1.505,1.15-2.286
			c0.391-0.894,0.172-1.529-0.676-2.229c-0.555-0.459-1.268-0.398-1.689,0.163c-0.189,0.253-0.354,0.528-0.51,0.805
			c-0.885,1.587-0.824,2.019-2.387,0.482c-0.303-0.297-0.709-0.501-0.965-0.829c-0.166-0.211-0.238-0.588-0.182-0.855
			c0.086-0.409,0.287-0.808,0.5-1.174c0.702-1.211,0.51-2.379-0.08-3.541c-0.036,0.006-0.072,0.007-0.108,0.015
			c-0.016-0.014-0.031-0.032-0.047-0.047c-1.181,0.456-2.195,1.117-2.781,2.31c-0.582,1.19-1.367,1.816-2.814,1.292
			c-1.117-0.405-2.309-0.275-3.471,0.012c-0.617,0.153-1.256,0.235-1.889,0.314c-0.555,0.069-1.035-0.017-1.283-0.644
			c-0.506-1.276-1.41-1.464-2.578-0.893c-0.186,0.09-0.426,0.164-0.613,0.123c-0.164-0.038-0.311-0.233-0.424-0.388
			c-0.043-0.062-0.012-0.235,0.047-0.303c0.211-0.235,0.422-0.477,0.674-0.659c0.693-0.497,1.422-0.945,2.107-1.45
			c0.633-0.464,1.096-1.06,0.828-1.903c-0.217-0.689-0.785-0.966-1.477-1.001c-0.213-0.011-0.428,0.006-0.639-0.016
			c-0.479-0.048-0.703-0.248-0.672-0.803c0.094-1.563,0.5-2.904,1.932-3.811c0.769-0.486,1.438-1.134,2.145-1.719
			c-0.007-0.055-0.006-0.11-0.014-0.165c0.03-0.016,0.048-0.038,0.076-0.055c-0.383-1.802-0.603-1.961-2.334-2.018
			c-0.273-0.009-0.738-0.137-0.77-0.282c-0.055-0.258,0.072-0.667,0.271-0.845c0.635-0.563,1.35-1.035,2.01-1.57
			c0.244-0.196,0.443-0.457,0.629-0.712c0.539-0.742,0.166-1.85-0.707-2.048c-0.408-0.093-0.844-0.062-1.264-0.112
			c-0.439-0.053-0.824-0.2-0.896-0.719c-0.1-0.718,0.217-1.482,0.756-1.59c0.723-0.146,1.465-0.255,2.201-0.267
			c2.559-0.042,5.121,0,7.678-0.066c1.053-0.027,2.102-0.262,3.152-0.379c1.057-0.117,2.115-0.241,3.174-0.297
			c1.164-0.06,2.312,0.006,3.461-0.42c1.418-0.524,2.729,0.112,3.924,0.838c0.303,0.185,0.561,0.71,0.559,1.076
			c-0.008,0.729-0.152,1.474-0.357,2.178c-0.154,0.53-0.613,0.856-1.189,0.935c-5.887,0.807-11.721,1.98-17.641,2.561
			c-0.889,0.087-1.246,0.609-1.646,1.28c-0.458,0.775-0.095,1.895-1.01,2.458c0.011,0.05,0.021,0.088,0.031,0.141
			c-0.032,0.026-0.062,0.053-0.093,0.079c0.332,2.596,0.115,5.171-0.315,7.739c-0.203,1.212,0.297,1.914,1.459,1.888
			c1.051-0.022,2.16-0.018,3.141-0.343c1.996-0.662,3.98-0.502,5.982-0.265c0.23,0.027,0.432,0.32,0.641,0.52
			c0.04-0.015,0.075-0.036,0.115-0.05c0.015,0.027,0.025,0.055,0.04,0.083c0.718-0.131,1.405-0.072,2.056,0.319
			c0.912,0.549,1.854,1.052,2.746,1.633c0.338,0.222,0.719,0.558,0.83,0.919c0.424,1.362,1.338,2.424,2.029,3.621
			c0.375,0.646,0.916,1.303,0.988,1.996c0.182,1.716,1.252,2.276,2.701,2.672c0.818,0.223,1.508,0.093,2.119-0.339
			c1.787-1.26,3.248-2.905,3.773-5.008c0.826-3.296,2.887-5.376,5.775-6.839c0.854-0.434,1.783-0.739,2.594-1.239
			c2.389-1.47,5.006-1.786,7.711-1.628c0.725,0.042,1.48,0.25,2.145,0.549c0.969,0.434,1.92,0.948,2.787,1.56
			c1.656,1.17,3.264,2.413,4.859,3.665c1.537,1.205,2.623,2.8,3.676,4.416c0.234,0.357,0.459,0.72,0.711,1.063
			c0.254,0.348,0.789,0.396,1.121,0.065c0.98-0.968,2.154-1.759,2.656-3.147c0.42-1.164,1.346-1.923,2.371-2.52
			c2.4-1.394,4.773-2.854,7.26-4.076c3.152-1.55,6.596-1.694,10.025-1.421c0.906,0.073,1.836,0.576,2.643,1.067
			c3.039,1.851,5.633,4.242,7.916,6.952c1.344,1.594,2.086,3.492,2.014,5.612c-0.053,1.608,0.096,3.176,0.32,4.774
			C113.389,70.047,113.447,72.629,112.439,75.092z M70.113,62.753c-5.133-3.488-10.629-4.679-16.662-2.285
			c-2.273,0.901-3.771,2.38-4.613,4.56c-0.453,1.182-0.838,2.455-0.918,3.707c-0.227,3.585,1.041,6.475,4.348,8.252
			c1.727,0.927,3.547,1.451,6.225,1.398c0.146-0.023,1.006-0.077,1.818-0.303c2.871-0.801,5.729-1.651,8.584-2.502
			c1.232-0.367,1.941-1.25,2.314-2.454c0.25-0.806,0.492-1.623,0.84-2.388C73.393,67.789,72.773,64.561,70.113,62.753z
			 M64.309,69.779c-2.232,2.198-4.982,3.066-8.051,2.921c-2.059-0.098-3.479-1.699-3.512-3.771
			c-0.006-0.424,0.004-0.852,0.057-1.271c0.281-2.265,1.623-3.621,3.914-3.901c0.627-0.076,1.271-0.012,1.906-0.012
			c0.012-0.071,0.023-0.145,0.035-0.217c1.131,0.245,2.262,0.49,3.393,0.734c0.984,0.211,1.705,0.832,2.361,1.537
			C65.498,66.965,65.463,68.645,64.309,69.779z M105.176,62.694c-1.732-3.337-3.543-4.494-7.65-3.118
			c-4.24,1.422-8.168,3.658-11.314,6.996c-0.291,0.309-0.562,0.644-0.797,0.996c-0.422,0.635-0.395,1.495,0.125,2.083
			c0.773,0.876,1.605,1.702,2.406,2.556c3.26,3.473,7.441,4.753,12.029,5.027c0.533,0,1.066-0.023,1.598,0.004
			c1.553,0.081,2.605-0.701,3.477-1.893c1.436-1.964,2.164-4.082,1.926-6.565C106.77,66.615,106.152,64.574,105.176,62.694z
			 M101.266,70.43c-0.18,0.059-0.416-0.037-0.625-0.084c-1.553-0.346-3.137-0.606-4.652-1.076c-1.049-0.325-2.309-0.341-2.986-1.465
			c0.643-0.945,1.75-1.164,2.664-1.667c1.117-0.612,2.273-1.165,3.455-1.634c0.291-0.115,0.943,0.075,1.105,0.329
			c0.982,1.561,1.119,3.383,1.582,4.948C101.521,70.14,101.424,70.377,101.266,70.43z"/>
	</g>
</g>
</svg>
