<?xml version="1.0" encoding="utf-8"?>
<!-- Generator: Adobe Illustrator 16.0.0, SVG Export Plug-In . SVG Version: 6.00 Build 0)  -->
<!DOCTYPE svg PUBLIC "-//W3C//DTD SVG 1.1//EN" "http://www.w3.org/Graphics/SVG/1.1/DTD/svg11.dtd">
<svg version="1.1" id="Layer_1" xmlns="http://www.w3.org/2000/svg" xmlns:xlink="http://www.w3.org/1999/xlink" x="0px" y="0px"
	 width="120px" height="120px" viewBox="0 0 120 120" style="enable-background:new 0 0 120 120;" xml:space="preserve">
<g id="picasa">
	<g>
		<path style="fill-rule:evenodd;clip-rule:evenodd;" d="M105.559,83.842c-0.871-0.467-1.791-0.676-2.777-0.664
			c-1.926,0.027-3.852,0-5.777,0.061c-2.037,0.064-4.047,0.014-6.062-0.406c-1.131-0.234-2.379-0.328-3.496-0.102
			c-1.383,0.281-2.752,0.279-4.135,0.354c-1.703,0.094-3.4,0.281-5.104,0.389c-0.518,0.033-1.051-0.008-1.562-0.098
			c-3.273-0.582-6.564-0.842-9.891-0.729c-1.389,0.047-2.781,0.008-4.172,0.008v-0.045c-2.783,0-5.564-0.014-8.348,0.008
			c-0.852,0.006-1.705,0.1-2.555,0.17c-1.275,0.109-2.545,0.275-3.822,0.34c-1.496,0.076-2.996,0.037-4.49,0.113
			c-0.627,0.031-1.26,0.178-1.863,0.359c-0.531,0.158-0.93,0.527-0.99,1.133c-0.191,1.91-0.436,3.816-0.549,5.732
			c-0.1,1.707-0.045,3.424-0.07,5.135c-0.061,4.061-0.293,8.1-1.266,12.068c-0.148,0.609-0.105,1.277-0.064,1.914
			c0.061,0.906,0.688,1.672,1.602,1.738c1.729,0.121,3.332,0.688,4.977,1.135c0.613,0.168,1.26,0.229,1.895,0.305
			c3.602,0.438,7.184,1.008,10.787,1.438c3.641,0.434,7.26,0.219,10.887,0.275c0.52,0.008,1.051-0.17,1.562-0.312
			c4.109-1.15,8.227-2.271,12.318-3.484c2.07-0.613,3.877-1.783,5.611-3.049c0.689-0.504,1.348-1.057,2.049-1.541
			c3.1-2.146,5.875-4.697,8.26-7.564c2.318-2.789,4.559-5.637,7.061-8.268c0.512-0.537,0.945-1.17,1.309-1.816
			C107.943,86.549,107.426,84.842,105.559,83.842z M46.795,106.787c-0.246,0.062-0.529-0.016-0.797-0.033
			c0.078-0.24,0.109-0.514,0.248-0.709c0.1-0.141,0.338-0.193,0.525-0.256c0.08-0.027,0.252-0.01,0.27,0.033
			c0.062,0.158,0.08,0.336,0.113,0.508C47.035,106.49,46.943,106.748,46.795,106.787z M96.25,90.398
			c-1.734,2.438-3.576,4.777-5.83,6.775c-1.275,1.129-2.502,2.33-3.646,3.592c-1.91,2.109-4.16,3.639-6.889,4.467
			c-3.059,0.928-6.107,1.883-9.162,2.82c-1.135,0.346-1.973,0.107-2.744-0.936c-0.768-1.033-1.475-0.932-2.395,0
			c-0.223,0.227-0.377,0.518-0.586,0.76c-0.484,0.557-1.137,0.498-1.773,0.439c-0.463-0.043-0.797-0.303-0.84-0.779
			c-0.047-0.531,0.008-1.07-0.043-1.6c-0.078-0.826-0.547-1.379-1.346-1.6c-0.762-0.211-1.486-0.111-2.092,0.445
			c-0.744,0.684-1.109,1.545-1.201,2.543c-0.014,0.154-0.193,0.293-0.297,0.439c-0.074-0.195-0.201-0.385-0.213-0.582
			c-0.029-0.531-0.008-1.066-0.008-1.6c0-0.426,0.08-0.875-0.025-1.273c-0.1-0.375-0.32-0.854-0.625-0.998
			c-0.314-0.148-0.936-0.1-1.172,0.127c-0.922,0.879-1.752,1.854-2.596,2.811c-0.273,0.312-0.473,0.693-0.723,1.031
			c-0.057,0.076-0.188,0.094-0.285,0.139c-0.068-0.186-0.236-0.402-0.186-0.547c0.318-0.902,0.732-1.773,1.02-2.686
			c0.254-0.805,0.457-1.639,0.551-2.475c0.082-0.721-0.875-1.4-1.566-1.162c-0.393,0.135-0.746,0.387-1.109,0.598
			c-0.186,0.107-0.348,0.252-0.533,0.354c-0.051,0.029-0.176-0.01-0.227-0.059c-0.068-0.066-0.162-0.197-0.137-0.258
			c0.275-0.688,0.576-1.365,0.859-2.053c0.49-1.18,1.027-2.344,1.438-3.553c0.262-0.77,0.037-1.543-0.762-1.895
			c-0.766-0.336-0.756-0.715-0.562-1.467c0.959-3.705,0.672-3.34,4.533-3.027c0.955,0.078,1.912,0.191,2.869,0.201
			c5.02,0.059,10.039,0.045,15.061,0.148c2.342,0.049,4.68,0.432,7.02,0.422c2.338-0.008,4.674-0.35,7.016-0.477
			c1.699-0.094,3.395,0.012,5.082-0.453c1.234-0.34,2.541-0.18,3.764,0.32C96.293,89.518,96.494,90.055,96.25,90.398z
			 M18.195,66.027c3.965-2.52,7.863-5.152,12.023-7.361c0.941-0.498,1.82-1.125,2.676-1.762c1.973-1.469,3.932-2.957,5.865-4.477
			c3.447-2.707,6.791-5.557,10.338-8.125c2.469-1.789,4.252-4.195,6.385-6.281c0.158-0.154,0.182-0.645,0.057-0.852
			c-0.328-0.545-0.742-1.051-1.178-1.516c-2.783-2.965-5.6-5.895-8.365-8.873c-1.438-1.551-3.244-2.828-3.865-5.025
			c-0.078-0.279-0.381-0.508-0.602-0.736c-1.266-1.305-2.572-2.574-3.801-3.914c-1.391-1.52-3.086-2.586-4.863-3.57
			c-1.344-0.742-2.664-0.719-3.959,0.035c-1.113,0.648-2.109,1.436-2.955,2.438c-1.17,1.389-2.393,2.732-3.654,4.039
			c-3.064,3.174-5.744,6.652-7.793,10.547c-2.688,5.109-4.963,10.422-6.689,15.941c-0.539,1.727-1.062,3.504-1.234,5.293
			c-0.389,4.037-0.555,8.096-0.809,12.145c0.066,0.004,0.135,0.008,0.201,0.012c0,1.713-0.023,3.426,0.008,5.137
			c0.023,1.227,0.432,2.307,1.438,3.092c0.355,0.277,0.746,0.436,1.166,0.174c2.18-1.348,4.514-2.439,6.52-4.072
			C16.096,67.506,17.115,66.715,18.195,66.027z M16.219,49.385c0.389-1.658,0.713-3.332,0.996-5.01
			c0.555-3.285,1.596-6.406,3.035-9.404c0.6-1.25,1.221-2.492,1.809-3.75c1.004-2.15,2.379-4.049,3.982-5.779
			c1.668-1.801,3.396-3.549,5.111-5.307c0.33-0.338,0.723-0.402,1.102-0.031c2.219,2.162,4.447,4.314,6.656,6.486
			c2.283,2.248,4.553,4.512,6.818,6.777c0.479,0.48,0.465,0.891-0.045,1.355c-1.025,0.936-2.01,1.934-3.125,2.752
			c-4.221,3.092-8.281,6.385-12.318,9.709c-0.166,0.135-0.365,0.234-0.51,0.387c-4.135,4.342-9.461,7.33-13.455,11.832
			c-0.07,0.08-0.148,0.18-0.24,0.205c-0.182,0.047-0.41,0.119-0.553,0.047c-0.166-0.082-0.375-0.311-0.371-0.473
			c0.033-1.057,0.117-2.109,0.197-3.367C15.137,53.74,15.705,51.57,16.219,49.385z M11.904,63.508
			c-0.082-0.125-0.162-0.252-0.242-0.377c0.072-0.047,0.145-0.092,0.215-0.139c0.047,0.084,0.094,0.17,0.139,0.254
			C11.979,63.334,11.941,63.422,11.904,63.508z M45.955,17.537c1.855,1.924,3.787,3.783,5.533,5.803
			c4.266,4.932,8.486,9.891,13.184,14.438c2.867,2.777,6.07,5.039,9.361,7.23c1.51,1.004,2.973,2.076,4.424,3.164
			c0.939,0.705,1.361,0.641,1.787-0.557c0.898-2.514,1.715-5.049,2.037-7.721c0.355-2.965,0.777-5.92,1.182-8.877
			c0.117-0.844,0.295-1.678,0.416-2.523c0.334-2.316,0.652-4.637,0.963-6.855c-0.195-1.404-0.328-2.674-0.568-3.926
			c-0.096-0.5-0.324-1.055-0.672-1.41c-1.934-1.99-3.898-3.91-6.369-5.309c-3.469-1.961-7.207-3.256-10.889-4.654
			c-2.055-0.779-4.359-1.057-6.633-0.59c-0.625,0.129-1.268,0.18-1.904,0.229c-4.557,0.344-8.721,1.939-12.742,3.982
			c-0.369,0.188-0.865,0.457-0.965,0.791c-0.367,1.205-0.621,2.449-0.838,3.693c-0.041,0.24,0.229,0.59,0.438,0.812
			C44.434,16.035,45.213,16.77,45.955,17.537z M52.465,12.6c0.07-0.178,0.266-0.367,0.445-0.424c1.018-0.32,2.029-0.701,3.074-0.877
			c1.789-0.301,3.6-0.465,5.4-0.686c1.557-0.133,2.947,0.336,4.354,0.934c3.154,1.34,6.18,2.918,9.168,4.596
			c1.721,0.967,2.926,2.463,4.393,3.686c0.209,0.174,0.316,0.568,0.326,0.867c0.029,0.961,0.1,1.943-0.043,2.885
			c-0.605,4.008-1.281,8.006-1.939,12.006c-0.016,0.1-0.119,0.27-0.158,0.264c-0.189-0.033-0.432-0.059-0.545-0.186
			c-1.271-1.441-2.555-2.875-3.76-4.371c-0.309-0.383-0.445-0.975-0.49-1.484c-0.145-1.635-0.738-3.119-1.449-4.557
			c-0.832-1.678-2.238-1.76-3.49-0.26c-0.066,0.08-0.104,0.189-0.17,0.271c-0.385,0.482-0.701,0.484-0.854-0.021
			c-0.396-1.324-0.74-2.668-1.139-3.994c-0.246-0.814-0.471-1.652-0.85-2.406c-0.822-1.639-2.279-1.738-3.545-0.295
			c-0.137,0.156-0.211,0.361-0.342,0.527c-0.184,0.238-0.342,0.184-0.398-0.145c-0.223-1.26-0.43-2.525-0.654-3.785
			c-0.076-0.418-0.113-0.867-0.297-1.238c-0.664-1.352-2.281-1.924-3.344-0.516c-0.127,0.17-0.199,0.383-0.33,0.547
			c-0.441,0.543-0.885,0.684-1.344,0.402c-0.637-0.393-1.266-0.807-1.871-1.246C52.498,13.01,52.412,12.729,52.465,12.6z
			 M113.656,57.637c0.002-0.316-0.059-0.641-0.139-0.949c-1.307-4.943-2.477-9.922-4.215-14.748
			c-2.057-5.705-5.135-10.721-9.148-15.277c-2.121-2.41-4.654-4.365-6.742-6.791c-0.881-1.021-1.494-0.783-2.359,0.17
			c-1.146,1.266-1.762,2.666-1.738,4.336c0.043,3.082-0.66,6.148-0.172,9.244c0.115,0.73,0.102,1.504,0.014,2.24
			c-0.389,3.174-0.709,6.365-1.277,9.508c-0.734,4.088-1.596,8.158-2.57,12.195c-0.58,2.406-0.537,4.867-0.969,7.279
			c-0.111,0.615,0.01,1.277,0.07,1.914c0.193,2.014,0.41,4.027,0.549,5.381c-0.088,1.953-0.195,3.234-0.191,4.514
			c0.004,1.457,0.855,2.463,2.279,2.623c1.797,0.205,3.615,0.457,5.359-0.342c0.287-0.131,0.611-0.254,0.916-0.25
			c2.773,0.025,5.58-0.166,8.312,0.195c3.199,0.422,6.383,0.43,9.584,0.447c0.783,0.004,1.178-0.287,1.346-1.086
			c0.414-1.979,0.771-3.969,1.125-5.961c0.205-1.15,0.438-2.307,0.514-3.469C114.457,65.068,113.648,61.373,113.656,57.637z
			 M109.135,72.346c-1.826,0.893-3.764,0.273-5.645,0.385c-2.775,0.164-5.557,0.189-8.338,0.258c-0.639,0.016-1.301,0.049-1.91-0.1
			c-0.316-0.076-0.721-0.502-0.775-0.822c-0.141-0.836-0.139-1.701-0.143-2.555c-0.016-2.566-0.006-5.135-0.006-7.701h0.107
			c0-2.246-0.107-4.498,0.025-6.736c0.197-3.301,0.555-6.594,0.861-9.889c0.129-1.379,0.383-2.748,0.451-4.129
			c0.17-3.412,0.719-6.805,0.498-10.236c-0.041-0.629-0.076-1.262-0.09-1.895c-0.002-0.08,0.113-0.195,0.199-0.236
			c0.088-0.041,0.234-0.049,0.312-0.002c0.178,0.111,0.361,0.238,0.492,0.398c4.428,5.432,7.98,11.318,9.963,18.123
			c1.705,5.852,2.982,11.783,3.973,17.787c0.086,0.523,0.092,1.066,0.088,1.6C109.189,68.512,109.158,70.43,109.135,72.346z
			 M34.684,65.189c-0.002-0.521-0.07-1.049-0.172-1.562c-0.025-0.125-0.35-0.322-0.457-0.279c-1.188,0.459-2.465,0.797-3.516,1.479
			c-4.568,2.961-9.338,5.611-13.621,9.014c-1.326,1.053-2.879,1.822-4.334,2.711c-1.545,0.943-1.801,1.467-1.326,3.146
			c0.496,1.746,1.064,3.469,1.604,5.201c0.637,2.049,1.467,4.018,2.598,5.842c2.033,3.279,4.348,6.342,7.113,9.051
			c2.061,2.021,4.605,3.469,6.551,5.637c0.752,0.84,1.84,1.016,2.965,0.889c0.748-0.084,1.23-0.408,1.357-1.113
			c0.205-1.154,0.445-2.314,0.506-3.48c0.248-4.691,0.473-9.385,0.619-14.08c0.09-2.777,0.018-5.559,0.018-8.338h0.104
			C34.691,74.6,34.695,69.895,34.684,65.189z M26.34,88.816c-0.023-0.426-0.047-0.859,0.014-1.277
			c0.107-0.736,0.334-1.459,0.412-2.197c0.146-1.402-1.004-2.451-2.412-2.223c-0.414,0.068-0.82,0.238-1.205,0.416
			c-0.449,0.207-0.607-0.139-0.631-0.393c-0.08-0.848-0.031-1.709-0.119-2.557c-0.078-0.773-0.998-1.088-1.74-0.732
			c-0.725,0.346-1.098,0.977-1.551,1.566c-0.277,0.363-0.578,0.09-0.768-0.141c-0.422-0.514-0.748-0.512-1.283-0.068
			c-0.713,0.594-0.77,0.514-1.105-0.174c-0.52-1.064-0.828-1.406,0.469-2.475c0.248-0.203,0.486-0.418,0.746-0.607
			c3.365-2.457,6.73-4.91,10.105-7.355c0.16-0.115,0.502-0.236,0.574-0.168c0.201,0.197,0.426,0.492,0.428,0.75
			c0.029,2.994,0.02,5.99,0.02,8.984h-0.041c0,2.889,0.006,5.777-0.006,8.666c-0.002,0.389,0.072,0.873-0.441,1.023
			C27.416,89.971,26.363,89.205,26.34,88.816z M28.02,96.365c-0.057,0.09-0.344,0.059-0.518,0.035
			c-0.082-0.012-0.225-0.154-0.213-0.205c0.127-0.48,0.271-0.953,0.428-1.424c0.029-0.088,0.129-0.154,0.195-0.23
			c0.1,0.115,0.242,0.219,0.287,0.354c0.064,0.193,0.059,0.41,0.1,0.758C28.24,95.814,28.178,96.121,28.02,96.365z"/>
	</g>
</g>
</svg>
