<?xml version="1.0" encoding="utf-8"?>
<!-- Generator: Adobe Illustrator 16.0.0, SVG Export Plug-In . SVG Version: 6.00 Build 0)  -->
<!DOCTYPE svg PUBLIC "-//W3C//DTD SVG 1.1//EN" "http://www.w3.org/Graphics/SVG/1.1/DTD/svg11.dtd">
<svg version="1.1" id="Layer_1" xmlns="http://www.w3.org/2000/svg" xmlns:xlink="http://www.w3.org/1999/xlink" x="0px" y="0px"
	 width="120px" height="120px" viewBox="0 0 120 120" style="enable-background:new 0 0 120 120;" xml:space="preserve">
<g id="hipstamatic">
	<g>
		<path style="fill-rule:evenodd;clip-rule:evenodd;" d="M116.121,28.521c-0.225-3.48-3.32-6.636-6.778-6.853
			c-3.204-0.203-6.333,0.169-9.375,1.323c-4.067,1.543-7.769,3.694-11.199,6.348c-2.042,1.579-3.897,3.333-5.436,5.415
			c-3.54,4.797-6.917,9.696-9.382,15.157c-0.213,0.468-0.479,0.91-0.68,1.383c-0.305,0.724-0.834,1.119-1.604,1.273
			c-2.404,0.487-4.803,1.003-7.207,1.499c-0.371,0.078-0.775-0.368-0.703-0.776c0.312-1.726,0.887-3.365,1.678-4.93
			c0.788-1.557,1.654-3.083,2.322-4.69c1.475-3.56,3.905-6.518,6.153-9.545c1.83-2.462,3.757-4.873,5.621-7.321
			c0.617-0.811,1.165-1.693,1.628-2.604c0.671-1.322-0.263-3.09-1.746-3.272c-1.84-0.223-3.682-0.298-5.438,0.546
			c-3.24,1.559-6.5,3.1-9.266,5.436c-2.389,2.017-5.089,3.457-7.939,4.636c-1.511,0.625-3.082,1.128-4.659,1.562
			c-1.583,0.436-2.113,0.007-2.649-1.671c-0.516-1.613-0.471-3.216-0.227-4.867c0.208-1.415,0.365-2.858,0.326-4.284
			c-0.049-1.761-1.309-2.964-3.1-3.255c-0.707-0.115-1.414-0.225-2.113-0.371c-0.949-0.2-1.856-0.072-2.677,0.412
			c-0.877,0.52-1.777,1.041-2.544,1.705c-1.659,1.433-2.811,3.244-3.645,5.269c-1.339,3.254-2.018,6.655-2.393,10.138
			c-0.36,3.357,0.853,6.071,3.364,8.184c3.292,2.77,7.151,3.96,11.438,3.587c1.112-0.097,2.198-0.485,3.294-0.743
			c0.625-0.146,1.024,0.134,0.885,0.696c-0.741,2.979-1.513,5.951-2.272,8.927c-0.246,0.973-0.981,1.334-1.856,1.249
			c-1.672-0.163-3.289,0.13-4.86,0.576c-2.167,0.616-4.316,1.312-6.422,2.111c-3.191,1.212-5.584,3.481-7.314,6.341
			c-1.241,2.049-1.219,4.312,0.024,6.445c0.555,0.952,1.47,1.58,2.541,1.461c1.524-0.17,2.993-0.574,3.938-2.051
			c2.362-3.695,5.855-5.945,9.868-7.482c0.137-0.053,0.414,0.057,0.516,0.182c0.101,0.122,0.143,0.398,0.073,0.54
			c-1.643,3.425-3.257,6.868-5.524,9.943c-1.035,1.403-2.162,2.739-3.189,4.148c-2.152,2.953-5.02,5.108-7.942,7.2
			c-0.58,0.414-1.232,0.771-1.905,0.994c-0.866,0.285-1.781,0.561-2.681,0.574c-1.534,0.024-3.073-0.152-4.608-0.258
			c-1.056-0.072-1.712-0.666-1.958-1.663c-0.171-0.69-0.296-1.403-0.328-2.113c-0.057-1.229,0.021-2.468-0.036-3.696
			c-0.088-1.875,0.2-3.674,0.823-5.439c0.339-0.965,0.606-1.959,0.834-2.957c0.259-1.132,0.12-2.23-0.39-3.297
			c-0.54-1.132-1.359-1.768-2.64-1.75c-0.821,0.011-1.673-0.127-2.458,0.043c-1.479,0.32-3.101,0.314-4.307,1.438
			c-2.525,2.352-4.481,5.062-5.334,8.477c-0.578,2.309-0.782,4.65-0.791,7.02c0,0.615,0.017,1.232-0.004,1.849
			c-0.12,3.741,1.132,7.062,3.193,10.098c1.432,2.115,3.285,3.663,6.009,3.806c0.403,0.021,0.795,0.199,1.2,0.268
			c3.461,0.584,6.97,0.826,10.393,0.06c5.249-1.177,10.129-3.334,14.477-6.545c2.64-1.95,5.141-4.087,7.757-6.073
			c2.792-2.121,4.676-4.841,5.826-8.133c0.506-1.449,1.12-2.865,1.765-4.258c1.766-3.816,3.615-7.591,5.193-11.498
			c1.158-2.87,0.653-3.241,4.524-3.625c1.421-0.141,2.82-0.505,4.27-0.37c0.467,0.044,0.759,0.384,0.65,0.821
			c-0.521,2.087-1.144,4.152-1.567,6.259c-0.887,4.415-1.672,8.852-2.498,13.28c-0.471,2.531-0.612,5.088-0.639,7.658
			c-0.045,4.359,4.209,8.989,8.175,9.58c2.448,0.364,4.879,0.585,7.351,0.577c1.366-0.003,2.67-0.267,3.889-0.804
			c3.307-1.455,6.426-3.276,9.009-5.818c3.801-3.742,6.528-8.209,7.792-13.404c0.822-3.375,1.234-6.85,1.783-10.287
			c0.186-1.146-0.201-2.252-0.584-3.305c-0.503-1.385-2.031-1.852-3.299-1.021c-0.581,0.382-1.168,0.887-1.504,1.477
			c-0.498,0.878-0.883,1.857-1.123,2.842c-0.392,1.609-0.986,3.116-1.738,4.586c-0.652,1.278-1.336,2.565-1.768,3.925
			c-0.861,2.705-2.484,4.961-4.131,7.17c-1.389,1.866-3.322,3.027-5.812,2.945c-0.9-0.029-1.59-0.368-2.128-1.045
			c-0.858-1.078-1.312-2.323-1.307-3.703c0.007-2.053,0.013-4.098,0.595-6.107c0.567-1.967,0.936-3.992,1.529-5.949
			c1.164-3.824,2.432-7.617,3.645-11.425c0.287-0.898,0.888-1.343,1.815-1.374c0.104-0.002,0.206-0.011,0.308-0.029
			c3.648-0.66,7.125-1.73,10.438-3.502c4.018-2.15,7.574-4.907,11.121-7.696c0.872-0.684,1.57-1.616,2.262-2.502
			c2.309-2.957,3.645-6.394,4.847-9.901C116.162,32,116.233,30.266,116.121,28.521z M40.146,31.712
			c-0.036-0.008-0.063-0.168-0.043-0.245c0.461-1.874,1.206-3.638,2.231-5.265c0.22-0.349,0.668-0.555,1.042-0.807
			c0.006-0.049,0.012-0.098,0.018-0.147c0.023-0.015,0.037-0.035,0.059-0.051c-0.104-0.426-0.219-0.849-0.286-1.28
			c-0.019-0.124,0.15-0.39,0.236-0.392c0.158-0.002,0.403,0.106,0.461,0.234c0.264,0.589,0.093,1.073-0.412,1.438
			c0.01,0.042,0.021,0.085,0.031,0.127c-0.034,0.025-0.072,0.047-0.107,0.071c-0.162,1.344-0.314,2.689-0.502,4.028
			c-0.039,0.28-0.168,0.605-0.365,0.793c-0.585,0.553-1.215,1.062-1.853,1.553C40.555,31.846,40.315,31.758,40.146,31.712z
			 M41.241,37.884c-0.013-0.189-0.028-0.38-0.051-0.67c0.497-1.122,1.022-2.331,1.579-3.523c0.062-0.131,0.327-0.26,0.471-0.236
			c0.172,0.027,0.401,0.192,0.458,0.35c0.171,0.469,0.292,0.958,0.388,1.448c0.083,0.429-0.092,0.789-0.44,1.058
			c-0.643,0.49-1.279,0.991-1.933,1.465C41.592,37.862,41.4,37.851,41.241,37.884z M46.491,41.485
			c-0.113,0.8-0.356,1.009-1.459,1.016c-0.154-0.02-0.587-0.006-0.952-0.156c-0.231-0.095-0.551-0.494-0.503-0.656
			c0.327-1.071,0.632-2.175,1.429-3.017c0.171-0.18,0.576-0.34,0.765-0.26c0.433,0.185,1.046,0.341,1.022,0.957
			C46.765,40.077,46.592,40.779,46.491,41.485z M12.968,74.094c0.025-0.014,0.056-0.018,0.083-0.027
			c0.042-0.048,0.083-0.097,0.125-0.145c0.033,0.003,0.067,0.008,0.1,0.014c0.167-0.607,0.595-0.703,1.143-0.566
			c0.001-0.012,0.005-0.02,0.006-0.032c0.03-0.007,0.062-0.011,0.094-0.015c0.077-0.092,0.155-0.186,0.232-0.279
			c-0.011,0.077,0.002,0.193-0.043,0.224c-0.052,0.036-0.12,0.046-0.189,0.056l-0.049,0.059c-0.018-0.004-0.034-0.008-0.051-0.012
			c-0.089,0.811-0.643,0.633-1.143,0.566c-0.006,0.021-0.015,0.039-0.02,0.062c-0.069,0.021-0.138,0.044-0.206,0.068
			c-0.058,0.065-0.115,0.132-0.173,0.199C12.908,74.206,12.921,74.121,12.968,74.094z M13.005,78.301
			c0.242,0.178,0.521,0.316,0.506,0.38c-0.094,0.362-0.232,0.721-0.415,1.048c-0.039,0.07-0.39,0.076-0.478-0.01
			c-0.174-0.176-0.427-0.524-0.362-0.641C12.43,78.769,12.754,78.545,13.005,78.301z M10.17,89.408
			c-0.027,0.021-0.059,0.039-0.088,0.059c-0.008,0.146-0.012,0.293-0.053,0.43c-0.036,0.129-0.154,0.234-0.236,0.348
			c-0.015-0.168-0.096-0.367-0.032-0.498c0.055-0.118,0.193-0.195,0.321-0.279c0.001-0.043,0.003-0.086,0.007-0.129
			c0.021-0.019,0.038-0.04,0.059-0.059c-0.205-1.025,0.341-1.878,0.708-2.762c0.347-0.838,0.701-1.689,1.188-2.447
			c0.263-0.406,0.25-1.234,1.106-1.068c0.071,0.487,0.208,0.977,0.195,1.462c-0.007,0.39-0.109,0.831-0.319,1.149
			c-0.855,1.301-1.692,2.625-2.879,3.666C10.157,89.322,10.159,89.364,10.17,89.408z M13.677,95.338
			c-0.086,0.131-0.39,0.26-0.502,0.205c-0.244-0.119-0.593-0.35-0.604-0.552c-0.032-0.497,0.026-1.032,0.188-1.503
			c0.336-0.969,0.75-1.912,1.165-2.85c0.054-0.12,0.317-0.232,0.459-0.207c0.18,0.031,0.373,0.177,0.485,0.328
			c0.118,0.154,0.146,0.375,0.274,0.736C14.723,92.703,14.478,94.119,13.677,95.338z M19.159,96.494
			c-0.098,0.361-1.146,0.508-1.68,0.199c-0.202-0.117-0.401-0.507-0.364-0.732c0.135-0.8,0.347-1.59,0.582-2.369
			c0.163-0.541,1.47-0.699,1.882-0.256c0.066,0.074,0.131,0.148,0.244,0.275C19.613,94.544,19.42,95.527,19.159,96.494z
			 M27.786,94.541c-0.053,0.076-0.306,0.035-0.459,0.003c-0.088-0.018-0.165-0.113-0.236-0.184
			c-0.356-0.345-0.684-0.822-1.266-0.584c-0.701,0.286-0.728,0.843-0.54,1.509c0.062,0.219-0.144,0.523-0.259,0.775
			c-0.03,0.066-0.17,0.108-0.268,0.119c-0.677,0.078-1.376,0.811-1.987,0.314c-0.767-0.625-0.218-1.498,0.009-2.24
			c0.279-0.908,0.598-1.111,1.53-1.137c0.909-0.024,1.817-0.053,2.724-0.072c0.596-0.012,0.85,0.254,0.898,0.93
			C27.891,94.168,27.893,94.393,27.786,94.541z M36.115,90.104c-1.273,0.979-2.554,1.949-3.864,2.878
			c-0.261,0.185-0.604,0.671-0.979,0.192c-0.165-0.211-0.142-0.566-0.232-0.99c0.094-0.271,0.113-0.795,0.37-0.973
			c0.984-0.684,2.018-1.324,3.099-1.838c0.39-0.186,0.971,0.023,1.463,0.07c0.09,0.01,0.24,0.102,0.242,0.156
			C36.214,89.771,36.22,90.023,36.115,90.104z M38.427,87.955c-0.341-0.121-0.598-0.481-0.895-0.734
			c0.199-0.217,0.362-0.492,0.604-0.641c0.467-0.289,0.958-0.257,1.389,0.111c0.066,0.056,0.083,0.169,0.12,0.256
			C39.683,87.453,38.935,88.135,38.427,87.955z M48.094,77.453c-1.08,1.73-2.152,3.465-3.291,5.156
			c-0.477,0.71-0.885,0.693-1.841,0.154c-0.174-0.098-0.347-0.199-0.508-0.316c-0.289-0.211-0.212-0.858,0.118-1.039
			c0.088-0.047,0.186-0.084,0.283-0.109c1.779-0.471,2.726-1.697,3.118-3.426c0.246-1.08,1.292-0.812,1.967-1.164
			c0.03-0.016,0.139,0.118,0.21,0.182C48.135,77.081,48.184,77.311,48.094,77.453z M51.456,69.836
			c-0.12,0.488-0.266,0.975-0.461,1.437c-0.396,0.927-0.819,1.841-1.258,2.746c-0.081,0.167-0.289,0.272-0.439,0.405
			c-0.084-0.052-0.172-0.098-0.251-0.156c-1.281-0.978-1.371-1.305-0.711-2.75c0.379-0.827,0.78-1.645,1.165-2.469
			c0.189-0.405,0.474-0.641,0.938-0.51C51.117,68.73,51.583,69.311,51.456,69.836z M54.407,63.044
			c-0.24,0.56-0.519,1.104-0.81,1.639c-0.318,0.587-0.753,0.734-1.222,0.453c-0.748-0.447-0.957-0.831-0.758-1.446
			c0.094-0.289,0.221-0.567,0.326-0.854c0.587-1.604,0.585-1.604,2.301-2.004c0.189-0.017,0.529-0.077,0.54-0.041
			c0.077,0.26,0.159,0.557,0.103,0.811C54.779,62.094,54.606,62.579,54.407,63.044z M56.453,56.529
			c-0.285,0.682-0.998,0.886-1.776,0.512c-0.23-0.111-0.527-0.458-0.504-0.668c0.197-1.987,1.258-3.228,3.056-3.618
			c0.104-0.021,0.265,0.222,0.503,0.437C57.313,54.292,56.914,55.424,56.453,56.529z M60.377,47.298
			c-0.3,0.248-0.638,0.553-0.994,0.604c-0.735,0.105-1.485,0.095-2.231,0.117c-0.036,0.031-0.073,0.058-0.107,0.091
			c-0.03,0.025-0.083,0.031-0.142,0.033c-0.049,0.108-0.099,0.217-0.147,0.327c-0.254-0.351-0.031-0.321,0.147-0.327l0.054-0.12
			c0.065-0.003,0.13-0.003,0.195-0.005c0.795-0.705,1.863-0.907,2.747-1.457c0.281-0.176,0.579-0.147,0.679,0.197
			C60.623,46.913,60.51,47.188,60.377,47.298z M61.564,43.042c-0.611-0.01-1.227,0.051-1.838,0.104
			c-0.202,0.017-0.396,0.108-0.592,0.165c-0.186,0.086-0.364,0.208-0.559,0.25c-0.178,0.039-0.415,0.046-0.551-0.044
			c-0.088-0.059-0.105-0.346-0.045-0.484c0.45-1.03,0.964-2.035,1.376-3.078c0.143-0.36,0.088-0.821-0.54-0.808
			c-0.186,0.004-0.384-0.077-0.561-0.157c-1.258-0.577-1.33-0.602-1.751,0.545c-0.242,0.658-0.596,0.954-1.224,1.195
			c-1.566,0.601-3.207,0.641-4.832,0.818c-0.52,0.057-0.731-0.115-0.765-0.618c-0.026-0.406-0.094-0.81-0.168-1.211
			c-0.143-0.765-0.125-0.878,0.647-0.874c0.952,0.007,1.822-0.232,2.683-0.583c2.465-1.003,4.991-1.875,7.237-3.356
			c0.597-0.392,1.255-0.698,1.899-1.01c2.79-1.346,5.342-3.036,7.661-5.096c0.599-0.532,1.354-0.892,2.058-1.299
			c0.129-0.074,0.42-0.061,0.51,0.033c0.1,0.104,0.139,0.399,0.06,0.52c-0.446,0.688-0.915,1.363-1.411,2.016
			c-2.854,3.751-5.75,7.476-7.658,11.836C62.879,42.636,62.404,43.056,61.564,43.042z M73.583,88.957
			c-0.06,0.094-0.096,0.211-0.175,0.256c-0.058,0.033-0.188-0.005-0.253-0.053c-0.899-0.643-1.206-1.619-1.38-2.629
			c-0.172-1.003-0.255-2.021-0.359-3.035c-0.087-0.822,0.447-1.312,0.997-1.781c0.073-0.062,0.234-0.13,0.279-0.096
			c0.135,0.102,0.324,0.248,0.332,0.385c0.039,0.816,0.048,1.633,0.037,2.449c-0.017,1.332-0.009,2.654,0.513,3.918
			C73.643,88.541,73.583,88.766,73.583,88.957z M76.041,71.287c-0.311,0.977-0.594,1.943-0.926,2.895
			c-0.413,1.18-1.559,1.727-2.885,1.379c-0.125-0.031-0.207-0.298-0.27-0.471c-0.025-0.072,0.028-0.202,0.086-0.271
			c1.157-1.394,2.318-2.781,3.486-4.168c0.06-0.07,0.251-0.139,0.257-0.13c0.095,0.153,0.186,0.313,0.245,0.483
			C76.067,71.094,76.041,71.203,76.041,71.287z M80.348,92.615c0.096,0,0.189,0.059,0.283,0.092
			c-0.131,0.086-0.262,0.248-0.396,0.251c-1.095,0.015-2.19,0.007-3.284-0.013c-0.154-0.004-0.305-0.119-0.457-0.183
			c0.189-0.045,0.379-0.122,0.568-0.13c0.498-0.02,0.996-0.007,1.493-0.007v-0.017C79.154,92.609,79.752,92.606,80.348,92.615z
			 M84.189,49.098c-1.354,1.836-2.258,3.839-3.106,5.908c-0.329,0.798-0.372,1.783-1.269,2.266c0.012,0.027,0.018,0.054,0.029,0.082
			c-0.02,0.003-0.039,0.004-0.059,0.007c0.139,1.009,0.016,1.967-0.398,2.926c-0.406,0.934-0.639,1.939-0.984,2.901
			c-0.272,0.758-0.509,1.512-1.404,1.88c-0.419,0.171-0.696,0.708-1.012,1.102c-0.701,0.88-1.383,1.773-2.082,2.653
			c-0.051,0.063-0.258,0.102-0.274,0.074c-0.094-0.141-0.236-0.324-0.204-0.458c0.377-1.608,0.828-3.161,2.289-4.204
			c0.591-0.422,1.011-1.067,0.864-1.859c-0.435-2.375,0.696-3.877,2.685-4.91c0.151-0.079,0.342-0.08,0.521-0.104
			c-0.002-0.022-0.002-0.043-0.006-0.066c0.014-0.007,0.023-0.016,0.035-0.022c-0.617-1.571-0.482-3.004,0.441-4.51
			c0.703-1.142,1.253-2.307,2.509-2.97c0.572-0.3,0.968-0.942,0.812-1.54c-0.524-2.006,0.355-3.584,1.353-5.159
			c0.343-0.54,0.609-1.21,0.275-1.739c-0.712-1.13-0.114-1.859,0.497-2.726c1.549-2.198,3.345-4.137,5.599-5.614
			c2.046-1.343,4.132-2.627,6.204-3.929c0.072-0.044,0.205-0.029,0.293,0.002c0.281,0.099,0.289,0.242,0.112,0.463
			c-1.649,2.083-3.341,4.136-4.918,6.272c-1.457,1.972-2.816,4.015-4.159,6.065C87.265,44.277,85.883,46.802,84.189,49.098z
			 M103.121,38.155c-2.152,3.585-5.09,6.394-8.44,8.812c-0.394,0.284-0.911,0.435-1.396,0.549c-0.791,0.186-1.6,0.31-2.405,0.414
			c-0.155,0.02-0.351-0.157-0.497-0.278c-0.043-0.036-0.015-0.209,0.03-0.292c1.831-3.432,3.753-6.808,6.137-9.898
			c2.313-2.999,4.618-6.007,6.948-8.994c0.213-0.273,0.456-0.838,0.931-0.466c0.283,0.22,0.491,0.665,0.534,1.031
			c0.082,0.707,0.024,1.43,0.024,1.629C105.267,33.743,104.421,35.992,103.121,38.155z M111.029,31.62
			c-0.709,2.012-1.346,4.076-2.592,5.855c-0.037,0.053-0.141,0.06-0.232,0.076c0.004,0.024,0.01,0.048,0.013,0.072
			c-0.026,0.005-0.044,0.014-0.068,0.02c0.021,0.472,0.009,0.928-0.544,1.111c0.002,0.037,0.004,0.074,0.005,0.11
			c-0.036,0.012-0.079,0.018-0.122,0.023c-0.055,0.129-0.105,0.259-0.159,0.388c-0.294-0.365-0.049-0.364,0.159-0.388
			c0.014-0.035,0.027-0.07,0.041-0.104c0.029-0.008,0.051-0.02,0.076-0.028c-0.021-0.47-0.094-0.966,0.544-1.111
			c-0.001-0.028-0.002-0.055-0.003-0.082c0.018-0.005,0.039-0.007,0.059-0.01c-0.032-0.182-0.094-0.373-0.047-0.533
			c0.873-3.133,0.762-6.268,0.063-9.411c-0.043-0.197-0.096-0.466-0.002-0.601c0.153-0.217,0.452-0.52,0.646-0.492
			c1.383,0.208,2.352,1.152,2.375,2.368C111.262,29.798,111.322,30.784,111.029,31.62z"/>
	</g>
</g>
</svg>
