<?xml version="1.0" encoding="utf-8"?>
<!-- Generator: Adobe Illustrator 16.0.0, SVG Export Plug-In . SVG Version: 6.00 Build 0)  -->
<!DOCTYPE svg PUBLIC "-//W3C//DTD SVG 1.1//EN" "http://www.w3.org/Graphics/SVG/1.1/DTD/svg11.dtd">
<svg version="1.1" id="Layer_1" xmlns="http://www.w3.org/2000/svg" xmlns:xlink="http://www.w3.org/1999/xlink" x="0px" y="0px"
	 width="120px" height="120px" viewBox="0 0 120 120" style="enable-background:new 0 0 120 120;" xml:space="preserve">
<g id="foursquare">
	<g>
		<path style="fill-rule:evenodd;clip-rule:evenodd;" d="M115.271,9.173c-0.064-1.298-0.766-2.181-1.928-2.726
			c-1.18-0.557-2.33-0.454-3.305,0.373c-0.891,0.756-1.707,1.615-2.467,2.505c-1.805,2.115-3.537,4.287-5.328,6.413
			c-1.238,1.472-2.578,2.862-3.768,4.369c-1.592,2.008-3.062,4.11-4.623,6.143c-1.824,2.373-3.637,4.758-5.553,7.057
			c-3.15,3.777-6.383,7.485-9.566,11.234c-0.318,0.378-0.596,0.579-1.049,0.247c-1.639-1.203-3.23-2.462-4.525-4.051
			c-1.418-1.739-2.801-3.507-4.256-5.218c-2.285-2.688-4.59-5.358-6.939-7.991c-0.705-0.791-1.539-1.487-2.393-2.123
			c-1.453-1.084-3.02-1.047-4.414,0.077c-0.662,0.535-1.232,1.187-1.842,1.784c-0.688,0.673-1.291,1.468-2.076,1.993
			c-2.338,1.563-4.293,3.521-6.162,5.588c-0.764,0.841-0.838,0.863-1.748-0.072c-1.844-1.895-3.955-3.233-6.639-3.558
			c-0.514-0.062-1.043-0.25-1.5-0.5c-2.727-1.501-5.658-1.838-8.699-1.44c-1.281,0-2.576-0.104-3.846,0.019
			c-5.57,0.537-9.893,3.145-12.881,7.91c-0.623,0.994-1.312,1.949-1.932,2.944c-1.895,3.039-3.309,6.226-3.08,9.933
			c0.096,1.494,0.053,2.996,0.137,4.491c0.162,2.931,0.924,5.703,2.543,8.169c1.113,1.694,2.32,3.332,3.576,4.924
			c0.59,0.746,1.387,1.326,2.1,1.971c0.799,0.724,0.807,0.869,0.016,1.795c-0.068,0.081-0.16,0.143-0.23,0.225
			c-1.533,1.824-1.541,3.221-0.037,5.115c0.598,0.754,1.174,1.523,1.781,2.271c3.031,3.731,5.85,7.65,9.383,10.952
			c2.275,2.127,4.236,4.504,6.051,7.035c3.371,4.703,7.107,9.104,11.379,13.022c0.863,0.792,1.809,1.499,2.754,2.192
			c0.729,0.529,1.604,0.723,2.434,0.365c0.643-0.275,1.15-0.299,1.797-0.016c0.977,0.429,2.035,0.658,3.02,1.068
			c1.27,0.529,2.307,0.113,3.256-0.674c0.404-0.334,0.658-0.84,1.031-1.217c2.865-2.881,5.58-5.938,8.65-8.578
			c5.834-5.02,11.885-9.783,17.814-14.689c1.062-0.88,1.971-1.947,2.947-2.928c1.582-1.592,3.021-3.363,4.781-4.727
			c2.201-1.709,4.326-3.48,6.324-5.417c0.766-0.741,1.697-1.343,1.932-2.486c0.195-0.944-0.67-1.562-0.785-2.364
			c-0.252-1.715-1.264-2.902-2.395-4.061c-0.67-0.69-1.33-1.393-1.979-2.101c-0.307-0.333-0.279-0.899,0.057-1.128
			c0.975-0.66,1.93-1.35,2.949-1.934c5.016-2.888,9.531-6.485,14.113-9.983c0.596-0.454,1.199-0.903,1.744-1.415
			c0.818-0.773,1.197-1.733,1.039-2.881c-0.098-0.737-0.256-1.484-0.225-2.22c0.213-5.018,0.264-10.055,0.777-15.043
			c0.373-3.633,0.494-7.252,0.465-10.882c-0.016-2.055,0.055-4.064,0.834-5.979C115.291,11.727,115.338,10.459,115.271,9.173z
			 M76.57,57.1c0.146-0.606,0.355-1.228,0.674-1.758c1.871-3.11,4.191-5.883,6.619-8.567c0.103-0.114,0.325-0.123,0.513-0.164
			c0.003-0.021,0.004-0.042,0.007-0.062c0.026-0.001,0.052-0.003,0.077-0.005c0.072-0.166,0.145-0.33,0.218-0.495
			c0.374,0.426,0.098,0.472-0.218,0.495c-0.008,0.019-0.017,0.037-0.024,0.056c-0.019,0.005-0.04,0.007-0.06,0.012
			c-0.078,0.596-0.085,1.216-0.267,1.781c-1.229,3.86-2.068,7.797-2.283,11.848c-0.057,1.042-0.365,1.816-1.262,2.402
			c-1.066,0.697-2.061,1.503-3.111,2.225c-0.242,0.166-0.617,0.307-0.875,0.243c-0.488-0.12-0.488-0.614-0.484-1.024
			C76.125,61.746,76.018,59.396,76.57,57.1z M48.381,40.806c0.576-0.454,1.018-1.075,1.533-1.609
			c1.947-2.025,4.174-3.651,6.789-4.713c0.691-0.28,1.297-0.128,1.676,0.49c0.668,1.093,1.277,2.222,1.918,3.333
			c1.975,3.427,3.924,6.87,6.535,9.877c0.281,0.322,0.521,0.679,0.809,0.995c1.209,1.326,2.586,2.25,4.504,1.828
			c0.043-0.411,0.27-0.609,0.68-0.604c0.066-0.297,0.088-0.618,0.223-0.879c0.068-0.13,0.35-0.212,0.529-0.208
			c0.311,0.006,0.389,0.428,0.082,0.734c-0.195,0.198-0.514,0.278-0.775,0.411c0.025,0.428-0.186,0.647-0.605,0.68
			c-0.215,0.353-0.375,0.757-0.654,1.047c-0.965,0.999-1.971,1.96-2.965,2.933c-4.51,4.415-8.809,9.024-12.818,13.902
			c-0.271,0.33-0.549,0.657-0.836,0.972c-0.439,0.477-1.021,0.46-1.326-0.033c-0.113-0.18-0.197-0.377-0.301-0.562
			c-1.725-3.076-3.398-6.18-5.199-9.209c-0.672-1.127-0.748-2.139-0.291-3.318c0.461-1.192,0.914-2.403,1.195-3.645
			c0.691-3.047,0.586-4.54-0.377-7.878c-0.236-0.818-0.572-1.607-0.84-2.418C47.461,41.695,47.166,41.766,48.381,40.806z
			 M69.445,68.539c-0.797-2.293-0.172-4.156,1.59-5.725c0.396-0.354,0.76-0.742,1.152-1.102c0.07-0.064,0.246-0.123,0.289-0.086
			c0.137,0.115,0.326,0.275,0.33,0.424c0.033,0.852,0.018,1.703,0.018,2.555h-0.057c0,0.213,0.004,0.426-0.002,0.639
			c-0.086,3.33-0.086,3.332-2.945,4.979c-0.08,0.045-0.271,0.061-0.295,0.021c-0.088-0.152-0.184-0.334-0.18-0.502
			C69.357,69.338,69.566,68.887,69.445,68.539z M64.979,73.818c-0.449,0.439-0.926,0.863-1.441,1.221
			c-0.205,0.143-0.539,0.102-0.812,0.145c-0.049-0.4-0.287-0.956-0.109-1.17c0.535-0.65,1.291-1.037,2.186-0.98
			c0.076,0.004,0.143,0.148,0.229,0.248C65.02,73.439,65.084,73.715,64.979,73.818z M58.521,75.054
			c-0.414,0.294-0.82,0.624-1.281,0.81c-0.154,0.064-0.492-0.232-0.688-0.424c-0.053-0.049,0.064-0.41,0.184-0.473
			c0.453-0.232,0.936-0.426,1.426-0.575c0.074-0.022,0.244,0.259,0.393,0.429C58.551,74.861,58.576,75.016,58.521,75.054z
			 M55.842,81.021c-0.045,0.047-0.082,0.113-0.135,0.137c-0.009,0.004-0.02,0.003-0.029,0.006c-0.051,0.045-0.103,0.09-0.155,0.135
			c-0.029,0.005-0.054,0.015-0.082,0.021c0.019,0.366-0.169,0.542-0.546,0.548c-0.001,0.021-0.01,0.033-0.011,0.056
			c-0.021,0.002-0.038,0.007-0.058,0.009c-0.064,1.407-1.179,2.055-2.101,2.838c-0.047,0.039-0.225,0.017-0.248-0.027
			c-0.094-0.172-0.25-0.389-0.213-0.547c0.333-1.34,1.166-2.132,2.562-2.264c0-0.021,0.006-0.038,0.007-0.059
			c0.024,0.001,0.039-0.006,0.062-0.006c0.03-0.338,0.246-0.486,0.546-0.548c-0.001-0.038,0.006-0.066,0-0.107
			c0.078-0.015,0.161-0.023,0.237-0.048C55.732,81.116,55.787,81.069,55.842,81.021z M50.309,77.289
			c-0.127,0.25-0.154,0.361-0.225,0.428c-0.051,0.047-0.182,0.074-0.23,0.041c-1.027-0.697-1.486-1.781-1.902-2.879
			c-0.055-0.143,0.125-0.373,0.195-0.562c0.09,0.057,0.209,0.094,0.266,0.176C49.068,75.447,49.717,76.409,50.309,77.289z
			 M45.639,68.951c0.047,0.148-0.08,0.428-0.215,0.536c-0.115,0.091-0.484,0.083-0.521,0.009c-0.668-1.316-1.336-2.635-1.898-3.998
			c-0.07-0.172,0.465-0.594,0.711-0.893c0.283,0.203,0.535,0.285,0.592,0.439C44.777,66.338,45.221,67.641,45.639,68.951z
			 M19.904,48.775c-0.246-0.267-0.389-0.831-0.285-1.173c0.244-0.799,0.549-1.628,1.037-2.293c1.072-1.462,2.271-2.833,3.43-4.232
			c0.27-0.33,0.6-0.613,0.861-0.948c0.578-0.737,0.387-1.696-0.449-2.192c-0.268-0.16-0.602-0.201-0.896-0.322
			c-0.572-0.233-0.658-0.488-0.361-0.84c1.186-1.398,2.611-2.158,4.502-1.806c0.309,0.059,0.639,0.009,1.539,0.009
			c1.602-0.218,3.648,0.435,5.721,0.947c3.096,0.766,5.307,2.673,6.896,5.352c0.543,0.913,1.021,1.842,1.688,2.698
			c1.029,1.323,1.227,2.959,0.941,4.588c-1.111,6.309-4.348,11.29-9.533,15.017c-0.354,0.254-0.576-0.057-0.641-0.365
			c-0.107-0.52-0.074-1.076-0.232-1.575c-0.244-0.763-0.82-1.269-1.623-1.371c-0.711-0.091-1.221,0.372-1.592,0.903
			c-0.424,0.605-0.74,1.287-1.146,1.906c-0.08,0.123-0.389,0.207-0.539,0.154c-0.316-0.113-0.447-0.363-0.273-0.725
			c0.607-1.25,1.199-2.506,1.787-3.766c0.305-0.657,0.072-1.246-0.268-1.814c-0.42-0.707-1.34-0.926-1.922-0.403
			c-0.557,0.498-1.047,1.068-1.58,1.594c-0.607,0.599-1.203,1.216-1.865,1.747c-0.164,0.131-0.625,0.047-0.848-0.098
			c-0.24-0.152-0.535-0.526-0.492-0.744c0.098-0.512,0.352-1.005,0.602-1.474c0.502-0.942,1.025-1.875,1.576-2.791
			c0.576-0.955,0.832-1.986,0.662-3.07c-0.074-0.488-0.334-1.004-0.656-1.381c-0.391-0.452-0.939-0.272-1.484-0.133
			c-0.797,0.202-0.818,0.146-1.004-0.667c-0.07-0.312-0.062-0.644-0.164-0.943c-0.217-0.643-0.953-0.934-1.555-0.617
			c-0.279,0.146-0.527,0.358-0.771,0.563C20.643,48.784,20.26,49.161,19.904,48.775z M28.184,66.805
			c-0.191,0.076-0.383,0.15-0.574,0.225c-0.195-0.059-0.389-0.115-0.582-0.174c0.211-0.117,0.414-0.301,0.637-0.326
			C27.824,66.512,28.01,66.705,28.184,66.805z M21.074,65.6c-0.078-0.168-0.215-0.34-0.211-0.506
			c0.004-0.098,0.232-0.188,0.359-0.283c0.074,0.17,0.15,0.34,0.227,0.51C21.322,65.414,21.197,65.508,21.074,65.6z M89.93,72.082
			c-0.744,1.035-1.508,2.057-2.293,3.061c-0.328,0.418-0.689,0.832-1.107,1.151c-6.445,4.935-12.449,10.405-18.828,15.419
			c-1.773,1.393-3.354,2.965-4.768,4.725c-1.268,1.584-2.59,3.129-3.951,4.633c-0.926,1.023-1.791,2.143-3.1,2.744
			c-0.633,0.29-0.861,0.893-1.195,1.441c-0.264,0.434-0.688,0.803-1.113,1.094c-0.551,0.378-1.18,0.477-1.803,0.09
			c-0.271-0.168-0.586-0.287-0.816-0.498c-2.125-1.941-4.389-3.711-6.232-5.98c-2.557-3.146-5.264-6.16-8.369-8.825
			c-2.51-2.153-4.732-4.638-7.102-6.955c-1.375-1.347-2.664-2.821-4.215-3.933c-1.555-1.121-2.32-2.729-3.295-4.219
			c-0.262-0.4-0.248-1.013-0.26-1.529c-0.016-0.609,0.41-1.016,0.979-1.023c1.068-0.013,2.137-0.004,3.203-0.004
			c2.029,0.102,4.066,0.178,6.016-0.562c1.061-0.4,1.828,0.02,2.518,0.852c1.564,1.893,3.184,3.742,4.781,5.609
			c2.152,2.518,4.301,5.037,6.453,7.553c0.277,0.324,0.564,0.643,0.863,0.949c1.188,1.223,2.439,2.361,3.408,3.807
			c0.875,1.311,2.707,1.516,3.988,0.598c0.689-0.494,1.324-1.09,1.893-1.723c2.152-2.404,4.711-4.301,7.281-6.232
			c6.834-5.137,13.908-9.922,20.879-14.859c0.525-0.371,1.088-0.689,1.582-1.094c0.961-0.781,1.82-0.984,2.758,0.084
			c0.326,0.373,0.953,0.463,1.385,0.766C90.344,69.828,90.561,71.207,89.93,72.082z M106.453,29.701
			c-0.066,0.421-0.117,0.849-0.145,1.274c-0.225,3.517-0.471,7.033-0.646,10.552c-0.047,0.926-0.281,1.582-1.098,2.132
			c-1.223,0.828-2.225,2.001-3.92,1.913c-0.348-0.018-0.74,0.38-1.064,0.646c-0.24,0.196-0.357,0.546-0.604,0.729
			c-2.074,1.557-2.074,1.553-3.049,3.503c-0.057,0.111-0.283,0.151-0.441,0.186c-0.029,0.007-0.139-0.169-0.141-0.264
			c-0.016-0.427,0.047-0.862-0.012-1.281c-0.105-0.727-0.186-1.479-0.447-2.156c-0.367-0.951-1.506-1.335-2.412-0.809
			c-0.418,0.242-0.842,0.72-0.967,1.173c-0.484,1.745-1.123,3.514-1.189,5.292c-0.08,2.116-1.176,3.33-2.715,4.402
			c-0.084,0.057-0.26,0.124-0.295,0.088c-0.135-0.137-0.297-0.301-0.326-0.477c-0.053-0.311-0.014-0.636-0.014-1.547
			c0.242-1.526,0.578-3.632,0.926-5.735c0.086-0.525,0.248-1.039,0.318-1.565c0.098-0.752,0.084-1.494-0.449-2.126
			c-0.553-0.654-1.207-0.813-2-0.498c-0.047,0.019-0.299-0.246-0.275-0.326c0.055-0.195,0.203-0.372,0.342-0.534
			c2.701-3.176,5.287-6.459,8.143-9.488c2.633-2.794,5.539-5.333,8.357-7.948c1.408-1.307,2.889-2.538,4.355-3.782
			c0.098-0.082,0.367,0.005,0.541,0.062c0.076,0.024,0.133,0.163,0.162,0.261c0.029,0.1,0.029,0.215,0.014,0.319
			C107.088,25.698,106.764,27.699,106.453,29.701z"/>
	</g>
</g>
</svg>
