<?xml version="1.0" encoding="utf-8"?>
<!-- Generator: Adobe Illustrator 16.0.0, SVG Export Plug-In . SVG Version: 6.00 Build 0)  -->
<!DOCTYPE svg PUBLIC "-//W3C//DTD SVG 1.1//EN" "http://www.w3.org/Graphics/SVG/1.1/DTD/svg11.dtd">
<svg version="1.1" id="Layer_1" xmlns="http://www.w3.org/2000/svg" xmlns:xlink="http://www.w3.org/1999/xlink" x="0px" y="0px"
	 width="120px" height="120px" viewBox="0 0 120 120" style="enable-background:new 0 0 120 120;" xml:space="preserve">
<g id="path">
	<g>
		<path style="fill-rule:evenodd;clip-rule:evenodd;" d="M106.303,52.979c-0.113-0.627-0.105-1.281-0.096-1.922
			c0.043-2.931-0.539-5.763-1.629-8.446c-1.367-3.362-2.783-6.722-4.447-9.943c-2.975-5.758-7.336-10.185-13.193-13.132
			c-2.088-1.052-4.094-2.343-5.957-3.764c-5.064-3.862-10.975-5.104-17.09-5.655c-2.977-0.269-5.986-0.23-8.982-0.216
			c-2.346,0.01-4.756-0.105-7.027,0.367c-4.605,0.96-8.994,2.695-13.277,4.642c-2.643,1.203-4.875,3.061-7.23,4.732
			c-2.744,1.95-5,4.316-6.904,7.077c-4.225,6.128-6.801,12.798-6.865,20.323c-0.006,0.428-0.002,0.856-0.002,1.275
			c-0.299,3.677,0.332,7.25,1.039,10.826c0.982,4.965,2.943,9.587,4.885,14.217c0.244,0.584,0.555,1.182,0.979,1.636
			c0.557,0.593,0.617,1.157,0.643,1.967c0.061,2.146,1.887,2.971,3.582,1.771c0.262-0.185,0.514-0.391,0.744-0.609
			c3.736-3.526,7.469-7.052,11.193-10.588c0.303-0.29,0.588-0.634,0.775-1.006c0.189-0.368,0.436-0.858,0.334-1.199
			c-0.488-1.637-0.135-3.4-0.945-5.004c-1.58-3.133-1.887-6.521-1.816-9.987c0.035-1.75,0.34-3.397,1.07-4.969
			c0.543-1.162,1.158-2.291,1.699-3.453c0.604-1.3,1.555-2.279,2.67-3.149c1.176-0.922,2.328-1.878,3.463-2.855
			c2.131-1.841,4.406-3.342,7.301-3.736c1.15-0.157,2.248-0.667,3.385-0.947c2.828-0.694,5.652-0.983,8.558-0.304
			c1.863,0.437,3.795,0.596,5.701,0.831c4.084,0.505,7.512,2.274,10.352,5.243c3.828,3.997,5.006,8.828,4.543,14.189
			c-0.018,0.212-0.043,0.437-0.131,0.626c-1.023,2.23-1.982,4.495-3.115,6.671c-1.221,2.34-3.426,3.754-5.367,5.436
			c-2.287,1.979-4.9,2.461-7.752,2.349c-0.764-0.03-1.09-0.4-1.176-1.227c-0.443-4.371-0.365-8.758-0.41-13.142
			c-0.012-1.188,0.123-2.302,0.607-3.425c0.592-1.372-0.385-4.296-1.637-5.187c-0.414-0.295-0.961-0.473-1.469-0.546
			c-0.516-0.074-1.088-0.041-1.59,0.1c-2.943,0.815-5.953,0.446-8.935,0.538c-0.623,0.02-1.305-0.099-1.869-0.352
			c-1.744-0.775-3.074-0.126-4.371,1.007c-0.988,0.859-1.277,1.942-1.273,3.157c0.02,4.28-0.148,8.575,0.15,12.836
			c0.209,2.99,0.297,5.975,0.373,8.964c0.059,2.354-0.113,4.74,0.221,7.054c0.398,2.776,0.369,5.541,0.414,8.316
			c0.01,0.64,0.006,1.291-0.096,1.919c-0.389,2.363-1.223,3.076-3.6,3.123c-0.422,0.008-0.844-0.112-1.27-0.132
			c-2.289-0.105-4.412,0.33-6.363,1.643c-1.258,0.848-2.039,1.871-2.029,3.4c0.01,1.39-0.096,2.811,0.156,4.161
			c0.357,1.913,0.387,3.824,0.439,5.747c0.027,0.963,0,1.932,0.105,2.886c0.16,1.453,1.205,2.539,2.65,2.851
			c0.418,0.09,0.852,0.149,1.275,0.144c3.102-0.045,6.219,0.062,9.297-0.223c2.535-0.235,5.061-0.759,7.479-1.685
			c3.535-1.352,6.048-3.793,7.074-7.361c1.057-3.683,2.533-7.27,2.955-11.125c0.055-0.499,0.426-0.76,0.877-0.752
			c2.471,0.043,4.895-0.338,7.314-0.746c0.945-0.16,1.883-0.468,2.832-0.507c2.957-0.119,5.637-1.113,8.242-2.399
			c3.465-1.71,6.709-3.766,9.752-6.148c1.529-1.199,2.842-2.581,3.875-4.24c0.619-0.993,1.338-1.927,2.043-2.865
			c2.254-3.005,4.328-6.113,5.568-9.693C106.055,59.327,106.893,56.254,106.303,52.979z M99.66,54.561
			c-0.041,1.7-0.297,3.4-0.553,5.086c-0.09,0.611-0.375,1.234-0.711,1.763c-0.973,1.53-2.004,3.024-3.039,4.516
			c-1.836,2.649-4.014,5.016-6.334,7.231c-1.631,1.559-3.732,2.499-5.756,3.424c-4.098,1.873-8.377,3.191-12.938,3.364
			c-0.744,0.028-1.512,0.065-2.225,0.258c-1.695,0.458-3.34,0.455-5.051,0.004c-1.631-0.431-2.558,0.153-3.376,1.611
			c-0.758,1.352-1.139,2.772-1.016,4.3c0.25,3.051-0.461,5.938-1.352,8.809c-0.41,1.323-0.762,2.667-1.094,4.012
			c-0.535,2.152-1.848,3.561-3.941,4.249c-0.912,0.3-1.846,0.54-2.75,0.864c-1.104,0.396-2.059,0.31-2.955-0.532
			c-0.562-0.531-1.191-0.282-1.73,0.16c-0.408,0.337-0.771,0.748-1.221,1.014c-0.225,0.133-0.711,0.137-0.877-0.017
			c-0.275-0.254-0.477-0.669-0.537-1.045c-0.047-0.275,0.176-0.598,0.281-0.898c0.248-0.705,0.496-1.41,0.744-2.113
			c0.537-1.501,0.695-2.924-0.785-4.04c-0.053-0.038,0.021-0.402,0.1-0.428c0.299-0.102,0.621-0.123,0.936-0.179
			c1.572-0.281,3.156-0.515,4.715-0.86c2.342-0.521,3.885-2.168,5.199-4.016c0.625-0.875,0.83-1.953,0.814-3.057
			c-0.027-1.818,0.023-3.639-0.043-5.456c-0.041-1.113,0.107-2.112,0.869-2.98c0.277-0.316,0.475-0.708,0.682-1.081
			c0.23-0.413,0.078-1.137-0.283-1.468c-0.08-0.072-0.172-0.131-0.25-0.202c-0.51-0.468-1.666-0.371-1.504-1.368
			c0.09-0.56,0.639-1.076,1.057-1.547c1.148-1.295,2.023-2.758,2.742-4.317c0.711-1.539,0.172-2.85-1.537-3.061
			c-1.164-0.144-1.898-0.915-2.887-1.248c-0.523-0.176-0.582-0.547-0.395-0.999c0.619-1.477,1.24-2.951,1.867-4.425
			c0.291-0.687,0.691-1.346,0.869-2.059c0.438-1.755-0.322-2.351-1.65-2.396c-0.32-0.012-0.65,0.045-0.959-0.02
			c-0.182-0.037-0.461-0.242-0.469-0.383c-0.047-0.952-0.051-1.909-0.014-2.861c0.006-0.144,0.281-0.32,0.469-0.4
			c0.188-0.081,0.42-0.078,0.633-0.083c2.027-0.048,4.053-0.069,6.041-0.593c0.75-0.197,1.261,0.243,1.273,0.987
			c0.025,1.391,0.008,2.781,0.008,4.173c-0.002,1.177-0.002,2.354-0.002,3.53h-0.139c0,2.14-0.004,4.279,0.002,6.419
			c0.002,0.641-0.02,1.289,0.068,1.921c0.156,1.12,0.705,1.994,1.781,2.487c0.771,0.353,1.506,0.798,2.295,1.099
			c0.684,0.261,1.414,0.474,2.137,0.535c1.062,0.09,2.141-0.024,3.209,0.035c2.832,0.155,5.211-0.97,7.398-2.604
			c1.195-0.895,2.34-1.865,3.492-2.82c1.91-1.586,3.568-3.403,4.689-5.633c1.104-2.195,2.137-4.425,3.15-6.663
			c0.307-0.673,0.572-1.412,0.635-2.139c0.258-2.989,0.33-5.993-0.273-8.948c-1.033-5.046-3.926-8.961-7.82-12.158
			c-3.283-2.695-7.023-4.346-11.324-4.819c-3.387-0.374-6.723-1.135-10.166-1.098c-2.057,0.023-4.037,0.403-6.008,0.867
			c-1.764,0.416-3.469,1.1-5.242,1.448c-2.725,0.536-4.955,1.93-7.041,3.637c-1.654,1.354-3.275,2.747-4.926,4.108
			c-1.08,0.895-1.967,1.926-2.701,3.14c-1.221,2.025-2.221,4.144-2.99,6.371c-0.242,0.699-0.443,1.437-0.508,2.17
			c-0.324,3.757-0.049,7.482,0.83,11.146c0.248,1.027,0.787,1.981,1.156,2.983c0.289,0.783,1.371,1.354,1.01,2.223
			c-0.303,0.736-1.098,1.277-1.697,1.882c-0.676,0.684-1.369,1.353-2.07,2.012c-0.355,0.331-0.895,0.262-0.998-0.241
			c-0.209-1.031-0.961-1.271-1.76-1.634c-1.045-0.476-1.234-1.101-0.74-2.057c0.492-0.949,1.053-1.861,1.576-2.793
			c0.477-0.848,0.84-1.729,0.826-2.729c-0.01-0.79-0.207-1.462-0.939-1.904c-0.807-0.486-1.605-0.594-2.402-0.035
			c-0.434,0.306-0.83,0.669-1.236,1.014c-1.037,0.878-1.115,0.9-1.201,0.505c-0.105-0.505-0.219-1.056-0.119-1.545
			c0.1-0.502,0.432-0.965,0.695-1.426c1.008-1.763,2.061-3.501,3.029-5.285c0.348-0.645,0.574-1.379,0.725-2.1
			c0.135-0.654-0.102-1.28-0.693-1.675c-0.582-0.391-1.307-0.427-1.828-0.075c-0.686,0.466-1.279,1.112-1.801,1.771
			c-0.592,0.745-1.047,1.598-1.6,2.378c-0.082,0.118-0.395,0.163-0.561,0.109c-0.172-0.056-0.373-0.246-0.424-0.418
			c-0.25-0.848-0.193-1.693,0.189-2.495c0.553-1.157,1.135-2.302,1.689-3.46c0.41-0.866,0.834-1.731,1.189-2.622
			c0.516-1.293,0.578-2.483-0.84-3.333c-0.533-0.319-0.516-0.899-0.275-1.425c2.117-4.636,4.877-8.717,9.166-11.701
			c4.975-3.459,10.379-5.951,16.146-7.654c1.807-0.533,3.719-0.944,5.688-0.504c0.924,0.208,1.916,0.137,2.875,0.142
			c2.568,0.015,5.136-0.026,7.705,0.006c3.791,0.05,7.41,0.872,10.826,2.544c0.383,0.188,0.764,0.393,1.164,0.537
			c5.047,1.823,9.105,5.128,12.887,8.778c2.148,2.074,4.125,4.343,6.043,6.637c1.6,1.914,2.432,4.251,3.027,6.656
			c0.127,0.514,0.049,1.093,0.236,1.573C99.414,46.671,99.762,50.591,99.66,54.561z"/>
	</g>
</g>
</svg>
