<?xml version="1.0" encoding="utf-8"?>
<!-- Generator: Adobe Illustrator 16.0.0, SVG Export Plug-In . SVG Version: 6.00 Build 0)  -->
<!DOCTYPE svg PUBLIC "-//W3C//DTD SVG 1.1//EN" "http://www.w3.org/Graphics/SVG/1.1/DTD/svg11.dtd">
<svg version="1.1" id="Layer_1" xmlns="http://www.w3.org/2000/svg" xmlns:xlink="http://www.w3.org/1999/xlink" x="0px" y="0px"
	 width="120px" height="120px" viewBox="0 0 120 120" style="enable-background:new 0 0 120 120;" xml:space="preserve">
<g id="yelp">
	<g>
		<path style="fill-rule:evenodd;clip-rule:evenodd;" d="M66.178,85.66c-0.268-0.787-0.328-1.656-0.408-2.496
			c-0.209-2.24-1.318-3.553-3.469-3.945c-1.791-0.326-3.566-0.297-5.4-0.113c-1.85,0.184-3.188,0.902-4.424,2.197
			c-1.857,1.945-3.414,4.113-4.807,6.385c-2.637,4.305-5.729,8.225-9.283,11.801c-0.744,0.75-1.408,1.611-1.959,2.512
			c-0.889,1.457-0.977,3.033-0.262,4.602c0.354,0.773,0.684,1.592,1.203,2.248c2.928,3.699,6.383,6.592,11.316,7.15
			c0.367,0.041,0.703,0.359,1.053,0.549h3.854c0.248-0.172,0.475-0.432,0.75-0.504c0.822-0.213,1.691-0.266,2.492-0.535
			c3.285-1.102,6.333-2.578,8.308-5.625c1.844-1.24,2.027-3.109,2.002-5.102c-0.057-4.592-0.07-9.186-0.09-13.779
			C67.045,89.176,66.768,87.404,66.178,85.66z M59.502,92.426c-0.115,2.285-0.066,5.047-0.58,7.805
			c-0.309,1.65-0.135,3.402-0.102,5.107c0.016,0.848-0.314,1.357-1.008,1.82c-1.174,0.783-2.451,1.289-3.793,1.648
			c-0.498,0.133-1.143,0.273-1.449-0.264c-0.166-0.291,0.025-0.789,0.061-1.191c0.119-1.381,0.021-1.582-1.547-2.314
			c-0.471-0.219-0.652-0.471-0.561-0.941c0.039-0.207,0.164-0.398,0.205-0.605c0.439-2.217,0.188-2.592-2.016-2.992
			c-0.312-0.057-0.641-0.07-0.938-0.172c-0.117-0.041-0.256-0.281-0.236-0.406c0.031-0.197,0.168-0.389,0.295-0.555
			c1.412-1.873,2.844-3.73,4.242-5.613c0.375-0.504,0.666-1.068,0.975-1.617c1.207-2.141,2.498-4.225,4.242-5.979
			c0.367-0.373,0.812-0.701,1.279-0.926c0.166-0.08,0.654,0.152,0.742,0.35c0.16,0.371,0.178,0.822,0.182,1.24
			C59.514,88.529,59.502,90.236,59.502,92.426z M35.135,21.816c1.322,3.148,2.775,6.244,4.25,9.328
			c1.844,3.854,3.6,7.764,5.695,11.48c2.094,3.713,4.555,7.219,6.869,10.807c0.477,0.738,1.121,1.26,2.027,1.449
			c3.068,0.637,5.725,0.438,8.792-0.607c0.855-0.293,1.693-0.684,2.004-1.479c0.809-2.072,2.09-4.02,2.18-6.312
			c0.248-6.189,1.066-12.357,0.684-18.568c-0.039-0.641,0.035-1.305-0.113-1.918c-0.512-2.102-0.389-4.25-0.549-6.379
			c-0.098-1.275-0.238-2.547-0.33-3.824c-0.076-1.066-0.078-2.139-0.17-3.205c-0.086-1.049-0.453-2.121-0.314-3.129
			c0.148-1.076-0.152-1.896-0.693-2.695c-1.346-1.98-3.26-3.059-5.625-3.248c-1.273-0.102-2.564-0.018-3.658-0.018
			c-2.77-0.174-5.307,0.154-7.822,0.678c-3.906,0.812-7.602,2.133-10.875,4.49c-1.775,1.277-3.129,2.879-4,4.902
			c-0.354,0.818-0.537,1.627-0.266,2.482C33.836,17.98,34.354,19.953,35.135,21.816z M39.26,16.068
			c1.607-1.453,3.48-2.5,5.459-3.314c4.629-1.906,9.479-2.49,14.451-2.158c0.537,0.035,0.916,0.484,0.918,1.086
			c0.008,1.926,0.004,3.852,0.004,5.777c-0.072,0.004-0.143,0.008-0.213,0.012c0.207,2.447,0.441,4.891,0.605,7.342
			c0.078,1.172,0.113,2.359,0.015,3.527c-0.503,5.867-0.433,11.752-0.619,17.629c-0.006,0.213,0.039,0.492-0.076,0.617
			c-0.168,0.186-0.543,0.424-0.68,0.354c-0.562-0.291-1.107-0.65-1.584-1.07c-0.287-0.254-0.594-0.654-0.617-1.008
			c-0.084-1.279-0.016-2.566-0.072-3.85c-0.059-1.359-0.445-2.533-1.982-2.924c-0.469-0.121-0.678-0.527-0.686-0.967
			c-0.029-1.176,0.049-2.357-0.025-3.529c-0.047-0.729-0.203-1.482-0.473-2.16c-0.465-1.166-1.326-1.461-2.58-1.008
			c-0.303,0.109-0.582,0.289-0.889,0.355c-0.107,0.023-0.383-0.201-0.385-0.314c-0.023-1.068,0.01-2.137,0-3.205
			c-0.01-1.283-0.027-2.564-0.084-3.848c-0.012-0.301-0.16-0.615-0.307-0.891c-0.381-0.717-1.553-1.023-2.225-0.561
			c-0.436,0.301-0.803,0.701-1.227,1.023c-0.139,0.105-0.451,0.203-0.52,0.135c-0.135-0.129-0.209-0.379-0.211-0.578
			c-0.01-1.391,0.014-2.781,0.008-4.172c-0.002-0.748,0.016-1.502-0.08-2.24c-0.104-0.793-0.562-1.383-1.381-1.586
			c-0.854-0.211-1.541,0.211-1.906,0.873c-0.506,0.92-0.799,1.957-1.209,2.934c-0.07,0.172-0.25,0.387-0.406,0.41
			c-0.17,0.025-0.424-0.1-0.547-0.242c-0.277-0.32-0.506-0.684-0.734-1.043C38.659,16.934,38.811,16.473,39.26,16.068z
			 M42.805,77.061c1.537-0.736,3.039-1.693,4.666-2.053c2.34-0.516,3.893-2.111,5.686-3.398c0.723-0.518,1.055-1.324,1.057-2.236
			c0-0.32-0.01-0.641,0.012-0.961c0.166-2.414,0.082-4.734-2.334-6.174c-0.949-2.057-2.922-2.705-4.811-3.414
			c-2.793-1.045-5.643-1.945-8.42-3.031c-3.98-1.555-8.16-2.371-12.268-3.451c-1.086-0.285-2.139-0.064-3.018,0.658
			c-0.488,0.402-0.928,0.873-1.326,1.367c-2.658,3.307-3.691,7.146-3.723,11.334c0.084,1.059,0.109,2.129,0.266,3.18
			c0.311,2.105,0.66,4.207,1.055,6.299c0.432,2.305,0.822,4.65,3.082,6.041c0.162,0.1,0.229,0.355,0.342,0.535
			c0.709,1.111,1.754,1.494,3.021,1.389c0.637-0.053,1.309-0.004,1.904-0.193c3.143-1.004,6.4-1.674,9.371-3.189
			C39.17,78.84,40.981,77.934,42.805,77.061z M35.87,70.443c-0.328,0.402-0.645,0.473-0.947-0.045
			c-0.27-0.459-0.525-0.938-0.869-1.338c-0.807-0.939-2.031-0.844-2.686,0.195c-0.166,0.262-0.205,0.602-0.332,0.893
			c-0.072,0.166-0.205,0.309-0.311,0.461c-0.164-0.135-0.404-0.234-0.473-0.406c-0.197-0.486-0.312-1.004-0.479-1.504
			c-0.133-0.396-0.232-0.826-0.463-1.162c-0.154-0.223-0.514-0.305-0.697-0.404c-0.883,0.098-1.131,0.691-1.402,1.281
			c-0.059,0.121-0.279,0.176-0.436,0.234c-0.014,0.006-0.123-0.166-0.146-0.268c-0.047-0.205-0.082-0.418-0.096-0.631
			c-0.021-0.32-0.031-0.641-0.023-0.961c0.02-0.854-0.359-1.389-1.174-1.695c-0.221-0.084-0.492-0.488-0.463-0.709
			c0.158-1.156,0.348-2.32,0.648-3.445c0.16-0.602,0.539-1.158,0.877-1.697c0.588-0.936,0.955-1.066,2.119-0.648
			c2.408,0.865,4.789,1.803,7.197,2.664c3.213,1.148,6.441,2.246,9.658,3.383c0.602,0.211,1.211,0.439,1.754,0.764
			c0.49,0.295,0.672,0.869,0.545,1.4c-0.086,0.371-0.346,0.791-0.656,0.996c-0.43,0.287-0.984,0.385-1.479,0.582
			c-1.287,0.512-2.637,0.91-3.836,1.582c-1.402,0.785-2.566,1.227-3.932-0.137C37.172,69.232,36.383,69.82,35.87,70.443z
			 M81.836,67.389c2.58-0.812,5.184-1.201,8.361-0.955h3.359c0.764,0,1.514-0.123,2.092-0.654c1.41-1.305,2.801-2.631,3.463-4.523
			c1.34-3.832,1.588-7.682,0.332-11.596c-0.662-2.061-1.592-3.984-3.025-5.582c-1.709-1.906-3.562-3.678-5.363-5.498
			c-0.297-0.303-0.611-0.607-0.971-0.824c-1.391-0.836-2.812-1.039-4.17,0.047c-1.24,0.99-2.467,1.949-3.52,3.203
			c-3.289,3.92-6.77,7.682-10.158,11.518c-0.936,1.059-1.988,1.885-3.336,2.385c-1.684,0.625-2.781,1.938-3.621,3.471
			c-0.527,0.963-0.703,1.967-0.389,3.082c0.412,1.463,3.203,6.451,4.246,7.412c0.592,0.547,1.295,0.814,2.059,0.637
			C74.723,68.699,78.373,68.479,81.836,67.389z M74.23,59.852c0.111-0.289,0.303-0.564,0.52-0.789
			c0.891-0.918,1.785-1.834,2.709-2.717c3.553-3.389,6.795-7.051,9.818-10.916c0.514-0.656,0.975-0.617,1.447,0.164
			c1.385,2.291,2.572,4.664,2.852,7.381c0.158,1.512,0.76,2.869,1.361,4.234c0.25,0.57,0.115,0.791-0.488,0.805
			c-1.277,0.027-2.557,0.053-3.836,0.041c-4.625-0.043-9.102,0.707-13.402,2.443c-0.191,0.078-0.408,0.094-0.611,0.139
			c-0.076-0.072-0.186-0.129-0.223-0.217C74.303,60.236,74.172,60.002,74.23,59.852z M101.105,85.701
			c-0.287-0.557-0.49-1.197-0.551-1.818c-0.188-1.867-1.314-2.701-2.984-3.309c-5.418-1.973-10.98-3.441-16.518-5.01
			c-1.324-0.377-2.705-0.559-3.506-0.719c-2.467-0.043-2.736,0.078-4.164,1.564c-0.293,0.307-0.586,0.623-0.928,0.867
			c-1.148,0.82-1.549,2.002-1.623,3.326c-0.064,1.184,0.053,2.354,0.635,3.422c0.562,1.027,1.098,2.076,1.738,3.055
			c3.1,4.75,6.514,9.24,10.564,13.244c1.24,1.225,2.717,2.051,4.074,3.064c0.818,0.613,1.928,0.854,3.039,0.41
			c0.59-0.234,1.242-0.305,1.855-0.482c0.957-0.275,1.701-0.828,2.281-1.658c0.607-0.871,1.297-1.688,1.957-2.52
			c2.078-2.621,3.693-5.465,4.441-8.77C101.783,88.76,101.893,87.229,101.105,85.701z M95.662,88.312
			c-0.414,2.727-1.721,5.02-3.432,7.117c-0.287,0.352-0.688,0.52-1.129,0.266c-1.955-1.121-3.896-2.344-5.33-4.053
			c-2.604-3.104-4.98-6.396-7.438-9.621c-0.092-0.119-0.064-0.352-0.045-0.525c0.008-0.059,0.166-0.1,0.223-0.131
			c1.627,0.58,3.221,1.188,4.838,1.717c3.344,1.09,6.701,2.137,10.049,3.209c0.508,0.162,1.008,0.344,1.5,0.549
			C95.717,87.184,95.799,87.406,95.662,88.312z"/>
	</g>
</g>
</svg>
