<?xml version="1.0" encoding="utf-8"?>
<!-- Generator: Adobe Illustrator 16.0.0, SVG Export Plug-In . SVG Version: 6.00 Build 0)  -->
<!DOCTYPE svg PUBLIC "-//W3C//DTD SVG 1.1//EN" "http://www.w3.org/Graphics/SVG/1.1/DTD/svg11.dtd">
<svg version="1.1" id="Layer_1" xmlns="http://www.w3.org/2000/svg" xmlns:xlink="http://www.w3.org/1999/xlink" x="0px" y="0px"
	 width="120px" height="120px" viewBox="0 0 120 120" style="enable-background:new 0 0 120 120;" xml:space="preserve">
<g id="blogger">
	<g>
		<path style="fill-rule:evenodd;clip-rule:evenodd;" d="M105.217,73.48c-0.107-1.812,0.012-3.638-0.035-5.454
			c-0.02-0.848-0.088-1.719-0.309-2.533c-0.807-2.992-1.854-5.903-3.086-8.75c-0.531-1.223-1.34-2.185-2.494-2.839
			c-1.672-0.947-3.275-2.104-5.061-2.742c-2.959-1.059-5.418-2.996-8.238-4.267c-1.885-0.85-2.775-2.317-2.727-4.312
			c0.082-3.428-0.285-6.82-0.586-10.224c-0.16-1.826-0.5-3.598-1.039-5.328c-0.666-2.14-1.404-4.26-2.189-6.358
			c-1.508-4.022-4.379-6.896-8.248-8.494c-4.555-1.881-9.367-2.918-14.354-2.88c-2.246,0.017-4.494-0.033-6.738,0.035
			c-1.381,0.042-2.764,0.198-4.133,0.391c-3.172,0.443-6.322,1.041-9.502,1.385c-3.771,0.409-7.281,1.556-10.691,3.156
			c-1.773,0.832-3.379,1.874-4.66,3.332c-1.338,1.522-2.648,3.09-3.787,4.762c-0.957,1.405-1.922,2.96-1.996,4.674
			c-0.115,2.765-0.043,5.558,0.225,8.312c0.188,1.932,0.18,3.823,0.029,5.741c-0.301,3.83-0.67,7.658-0.816,11.496
			c-0.082,2.229,0.289,4.472,0.328,6.711c0.061,3.636,0.016,7.274,0.016,10.911c0.055,5.771,0.074,11.529,0.76,17.283
			c0.488,4.084,1.314,7.908,3.586,11.475c1.912,3.003,4.322,5.247,7.379,6.914c2.553,1.394,5.293,2.259,8.125,2.873
			c5.238,1.137,10.586,1.361,15.896,1.781c3.723,0.293,7.484,0.141,11.227,0.062c2.344-0.05,4.68-0.419,7.023-0.486
			c3.543-0.104,7.002-0.743,10.457-1.417c1.357-0.265,2.65-0.884,4.012-1.086c2.682-0.396,5.172-1.293,7.566-2.499
			c1.24-0.624,2.369-1.554,3.668-1.939c1.258-0.374,2.021-1.135,2.719-2.078c0.764-1.028,1.463-2.104,2.195-3.156
			c1.172-1.688,1.975-3.523,2.408-5.546c0.672-3.127,1.539-6.217,2.117-9.36C104.84,79.881,105.41,76.721,105.217,73.48z
			 M99.951,72.519c-0.084,1.708-0.004,3.423-0.014,5.136c-0.006,1.063,0.053,2.121-0.342,3.166
			c-0.217,0.578-0.197,1.259-0.217,1.895c-0.09,3.152-0.977,6.085-2.273,8.939c-1.051,2.318-2.615,4.17-4.717,5.537
			c-2.418,1.573-4.906,3.036-7.373,4.535c-1.396,0.849-2.869,1.309-4.557,1.269c-1.369-0.031-2.748,0.291-4.123,0.448
			c-0.637,0.073-1.275,0.152-1.916,0.186c-5.658,0.288-11.309,0.758-16.98,0.73c-1.068-0.006-2.166-0.062-3.197,0.154
			c-1.537,0.321-2.918,0.396-4.24-0.675c-0.496-0.401-1.232-0.282-1.779,0.188c-0.242,0.206-0.428,0.484-0.688,0.662
			c-0.564,0.39-1.344,0.272-1.695-0.268c-0.287-0.444-0.467-0.957-0.752-1.404c-0.334-0.52-0.969-0.519-1.609-0.033
			c-0.168,0.127-0.301,0.302-0.473,0.423c-0.074,0.053-0.25,0.073-0.303,0.025c-0.143-0.131-0.357-0.313-0.348-0.463
			c0.043-0.632,0.295-1.28,0.201-1.88c-0.072-0.452-0.475-0.958-0.873-1.223c-0.459-0.304-1.098-0.166-1.477,0.242
			c-0.576,0.617-0.994,1.384-1.586,1.979c-0.232,0.233-0.773,0.274-1.141,0.213c-0.186-0.031-0.42-0.484-0.424-0.749
			c-0.008-0.526,0.082-1.066,0.217-1.577c0.213-0.794-0.084-1.491-0.375-2.164c-0.539-1.242-2.156-1.611-3.256-0.788
			c-0.789,0.591-1.375,1.333-1.68,2.289c-0.127,0.402-0.283,0.802-0.49,1.167c-0.09,0.162-0.369,0.361-0.504,0.325
			c-0.287-0.081-0.693-0.248-0.77-0.474c-0.199-0.597-0.213-1.251-0.367-1.866c-0.262-1.042-1.182-1.543-2.23-1.202
			c-0.498,0.161-0.939,0.516-1.439,0.645c-0.875,0.224-2.006-0.988-1.637-1.786c0.773-1.674,1.008-3.484,1.412-5.248
			c0.184-0.812,0.113-1.697,0.064-2.544c-0.035-0.609-0.656-1.158-1.273-1.278c-0.588-0.114-1.074,0.123-1.396,0.574
			c-0.371,0.519-0.641,1.108-0.971,1.657c-0.135,0.227-0.264,0.664-0.607,0.352c-0.188-0.169-0.271-0.613-0.197-0.879
			c0.164-0.605,0.365-1.233,0.705-1.75c2.031-3.077,3.062-6.572,4.229-10.007c0.195-0.576,0.254-1.297,0.1-1.877
			c-0.455-1.702-1.982-2.673-3.648-1.306c-0.49,0.404-0.924,0.878-1.414,1.283c-0.068,0.057-0.43-0.062-0.453-0.152
			c-0.326-1.28-0.213-2.464,0.451-3.682c1.846-3.389,3.053-7.049,4.234-10.707c0.184-0.571,0.156-1.269,0.035-1.867
			c-0.154-0.761-0.705-1.242-1.445-1.592c-1.268-0.599-1.254-0.652-0.99-2.089c0.389-2.098,0.891-4.18,1.162-6.292
			c0.23-1.791,0.248-3.616,0.264-5.426c0.008-0.812-0.604-1.284-1.549-1.143c-0.643,0.096-1.027,0.104-1.066-0.615
			c-0.039-0.747,0.027-1.501-0.037-2.245c-0.148-1.703,0.348-3.024,1.639-4.272c1.367-1.321,2.416-2.979,3.557-4.523
			c0.58-0.787,0.855-1.703,0.848-2.708c-0.014-1.462-0.965-2.348-2.484-2.214c-0.42,0.038-0.828,0.198-1.246,0.269
			c-0.359,0.06-0.639-0.253-0.521-0.564c0.379-0.994,0.771-1.983,1.15-2.979c0.324-0.852,0.979-1.447,1.734-1.825
			c2.666-1.336,5.326-2.576,8.359-3.085c5.4-0.907,10.816-1.234,16.271-1.21c1.391-0.001,2.785,0.062,4.174-0.014
			c3.68-0.198,7.225,0.491,10.74,1.475c2.002,0.561,3.76,1.477,5.154,3.068c0.717,0.815,1.324,1.641,1.65,2.703
			c0.623,2.041,1.348,4.053,2.012,6.082c0.166,0.505,0.357,1.026,0.383,1.548c0.164,3.306,0.875,6.567,0.707,9.904
			c-0.082,1.592,0.031,3.18,0.477,4.763c1.062,3.784,3.307,6.45,7.059,7.675c2.439,0.796,4.873,1.581,7.186,2.706
			c1.346,0.654,2.73,1.243,4.021,1.995c1.908,1.114,3.207,2.666,3.748,4.942C99.494,66.159,100.109,69.274,99.951,72.519z
			 M82.352,68.743c-2.859-1.651-5.938-2.278-9.191-2.283c-8.434-0.017-16.877,0.324-24.822-0.736
			c-2.695,0.019-4.893,0.042-7.131,0.531c-3.66,0.8-5.834,2.893-6.758,6.422c-0.432,1.647-0.908,3.292-1.186,4.968
			c-0.359,2.173,0.014,4.232,1.299,6.108c1.852,2.703,4.115,4.594,7.625,4.458c1.061-0.041,2.166-0.038,3.189,0.2
			c2.551,0.593,5.102,0.343,7.656,0.224c1.275-0.061,2.551-0.169,3.822-0.276c3.938-0.335,7.904,0.068,11.83-0.511
			c0.307-0.045,0.65-0.068,0.936,0.027c2.404,0.807,4.869,0.436,7.314,0.379c2.898-0.066,5.367-1.253,7.572-3.055
			c1.016-0.831,1.693-1.873,2.062-3.161c0.758-2.65,0.586-5.261-0.057-7.899C85.92,71.7,84.508,69.986,82.352,68.743z
			 M80.617,79.228c-0.283,0.535-0.764,1.023-1.268,1.375c-1.791,1.252-3.965,1.512-5.982,2.172c-0.277,0.09-0.637,0.027-0.93-0.061
			c-1.908-0.565-3.846-0.303-5.729-0.039c-1.918,0.269-3.822,0.35-5.746,0.361c-1.174,0.006-2.348,0.065-3.523,0.076
			c-1.594,0.015-3.178,0.202-4.744-0.431c-0.639-0.258-1.494-0.176-2.203-0.021c-2.758,0.6-5.539,0.354-8.307,0.278
			c-2.637-0.069-4.52-2.318-4.312-4.963c0.102-1.272,0.268-2.548,0.525-3.798c0.146-0.718,0.455-1.433,0.834-2.062
			c0.518-0.862,1.291-1.396,2.385-1.335c0.746,0.041,1.494,0.008,1.891,0.008c5.457,0.414,10.553,0.927,15.66,1.148
			c3.723,0.161,7.467,0.374,11.189-0.248c2.35-0.391,4.686-0.091,6.969,0.544c0.383,0.106,0.77,0.365,1.049,0.656
			c0.59,0.612,1.08,1.318,1.66,1.938C81.289,76.165,81.441,77.658,80.617,79.228z M46.059,51.336
			c0.979-0.07,1.896-0.011,2.846,0.101c2.467,0.292,4.932,0.341,7.244-0.744c1.449-0.681,2.861-1.452,4.242-2.263
			c1.812-1.064,2.756-2.798,2.725-4.804c-0.029-1.786-0.5-3.575-0.885-5.341c-0.225-1.033-0.693-1.993-0.674-3.107
			c0.02-1.156-0.656-2.066-1.633-2.603c-2.824-1.553-5.742-2.869-9.061-2.894c-1.178-0.009-2.354-0.002-3.531-0.002v0.024
			c-1.605,0-3.211-0.007-4.814,0.006c-0.318,0.003-0.66,0.017-0.951,0.131c-1.088,0.43-2.158,0.904-3.236,1.357
			c-0.098,0.041-0.207,0.056-0.311,0.081c-1.24,0.293-2.068,1.049-2.562,2.215c-0.209,0.49-0.475,0.958-0.723,1.432
			c-2.027,3.862-1.805,7.588,0.65,11.193C37.955,49.893,41.533,51.663,46.059,51.336z M37.117,38.744
			c0.094-0.372,0.406-0.78,0.734-0.982c0.73-0.449,1.479-0.791,1.811-1.705c0.107-0.294,0.643-0.479,1.02-0.619
			c1.213-0.458,2.479-0.631,3.773-0.595c1.068,0.029,2.143,0.118,3.205,0.045c1.543-0.107,3.004,0.241,4.357,0.849
			c1.746,0.783,3.467,1.675,5.062,2.723c1.445,0.949,1.455,3.64,0.182,4.851c-0.15,0.145-0.34,0.29-0.535,0.341
			c-1.951,0.51-3.752,1.499-5.83,1.639c-1.908,0.129-3.801,0.475-5.701,0.725c-1.65,0.074-3.146-0.451-4.711-0.826
			C37.736,44.529,36.562,40.952,37.117,38.744z"/>
	</g>
</g>
</svg>
