<?xml version="1.0" encoding="utf-8"?>
<!-- Generator: Adobe Illustrator 16.0.0, SVG Export Plug-In . SVG Version: 6.00 Build 0)  -->
<!DOCTYPE svg PUBLIC "-//W3C//DTD SVG 1.1//EN" "http://www.w3.org/Graphics/SVG/1.1/DTD/svg11.dtd">
<svg version="1.1" id="Layer_1" xmlns="http://www.w3.org/2000/svg" xmlns:xlink="http://www.w3.org/1999/xlink" x="0px" y="0px"
	 width="120px" height="120px" viewBox="0 0 120 120" style="enable-background:new 0 0 120 120;" xml:space="preserve">
<g id="tumblr">
	<g>
		<path style="fill-rule:evenodd;clip-rule:evenodd;" d="M93.317,94.799c-1.123-3.803-1.598-7.721-1.949-11.656
			c-0.166-1.884-2.09-3.804-3.982-3.934c-1.246-0.084-2.289,0.237-3.072,1.332c-0.488,0.684-1.1,1.32-1.768,1.834
			c-2.318,1.782-5.057,2.761-7.744,3.789c-1.48,0.565-3.006,0.158-4.207-0.885c-0.713-0.616-1.342-1.391-1.816-2.204
			c-0.754-1.288-1.348-2.671-2.016-4.011c-0.826-1.66-1.232-3.402-1.119-5.268c0.049-0.854,0.045-1.713,0.023-2.568
			c-0.105-4.083,0.545-8.09,1.193-12.099c0.178-1.105,0.537-1.413,1.68-1.561c0.848-0.109,1.717-0.117,2.545-0.301
			c2.715-0.603,5.455-0.984,8.229-1.234c2.854-0.256,5.715-0.548,8.438-1.639c1.236-0.495,1.971-1.25,2.236-2.471
			c0.156-0.724,0.18-1.486,0.189-2.232c0.021-1.711-0.037-3.425,0.01-5.136c0.061-2.34-0.352-4.695,0.289-7.025
			c0.119-0.434-0.113-1.093-0.406-1.479c-0.438-0.58-1.01-1.118-1.637-1.48c-1.221-0.706-2.584-0.991-4.004-0.991
			c-1.498,0-2.998,0.03-4.492-0.047c-2.668-0.137-5.334-0.32-7.996-0.53c-2.02-0.159-4.039-0.358-6.047-0.622
			c-0.307-0.041-0.756-0.512-0.787-0.821c-0.182-1.7-0.104-3.437-0.395-5.112c-0.445-2.553-0.473-5.104-0.42-7.671
			c0.029-1.391,0.035-2.782,0.1-4.171c0.061-1.315-0.287-2.522-0.754-3.733c-0.566-1.472-1.555-2.25-3.145-2.246
			c-1.818,0.005-3.639,0.001-5.455,0.001c0,0.028,0,0.056-0.002,0.084c-1.928,0-3.859-0.104-5.775,0.027
			c-2.162,0.148-3.178,1.666-2.75,3.799c0.143,0.722,0.477,1.486,0.354,2.167c-0.598,3.357-1.264,6.697-2.572,9.886
			c-1.373,3.348-3.547,6.097-6.146,8.509c-0.998,0.924-2.311,1.52-3.514,2.203c-0.549,0.312-1.168,0.588-1.785,0.688
			c-1.908,0.302-2.912,2.109-4.646,2.701c-0.334,0.114-0.568,0.625-0.771,0.995c-0.74,1.357-1.07,2.834-0.746,4.34
			c0.479,2.225,0.373,4.469,0.451,6.71c0.025,0.749-0.025,1.501,0.031,2.247c0.137,1.868,1.07,3.212,2.787,3.97
			c0.482,0.213,1.014,0.443,1.521,0.447c2.141,0.018,4.168,0.955,6.344,0.72c0.67-0.072,1.227,0.52,1.277,1.184
			c0.039,0.529,0.02,1.066-0.014,1.598c-0.1,1.597-0.283,3.191-0.32,4.789c-0.059,2.461-0.014,4.922-0.029,7.385
			c-0.039,4.762,0.891,9.337,2.676,13.74c1.207,2.97,2.379,5.942,3.178,9.062c0.508,1.98,1.533,3.752,2.791,5.376
			c1.779,2.295,3.809,4.342,6.121,6.091c2.502,1.897,5.41,2.975,8.369,3.917c2.666-0.034,5.363,0.426,7.982-0.287
			c4.537-1.236,9.068-2.502,13.021-5.213c0.525-0.361,1.127-0.613,1.689-0.921c4.463-2.438,5.402-3.286,8.205-7.388
			c0.061-0.089,0.131-0.17,0.195-0.256C93.503,96.459,93.587,95.707,93.317,94.799z M84.825,94.467
			c-3.689,2.394-7.539,4.438-11.697,5.917c-2.074,0.737-4.15,1.058-6.291,0.733c-1.088-0.166-2.062-0.162-3.086,0.289
			c-0.557,0.242-1.242,0.246-1.869,0.234c-0.229-0.005-0.617-0.341-0.65-0.568c-0.125-0.84-0.168-1.698-0.176-2.551
			c-0.01-0.987-0.24-1.905-0.695-2.771c-0.488-0.931-1.502-1.197-2.461-0.636c-0.422,0.247-0.814,0.541-1.217,0.817
			c0.001,0.044,0.002,0.088,0.004,0.131c-0.053,0.014-0.107,0.022-0.159,0.035c-0.058,0.081-0.115,0.161-0.173,0.242
			c0.021-0.069,0.021-0.169,0.066-0.201c0.031-0.021,0.068-0.031,0.107-0.041c0.027-0.038,0.055-0.077,0.083-0.115
			c0.024-0.017,0.048-0.034,0.072-0.051c-0.063-1.763-0.089-3.527-0.205-5.287c-0.1-1.484-0.295-2.962-0.48-4.438
			c-0.07-0.575-0.43-0.98-0.994-1.116c-0.664-0.159-1.334-0.04-1.738,0.516c-0.434,0.593-0.826,1.259-1.047,1.952
			c-0.354,1.107-0.547,2.264-0.816,3.396c-0.023,0.093-0.133,0.165-0.201,0.245c-0.104-0.15-0.248-0.289-0.301-0.455
			c-0.059-0.199-0.072-0.426-0.047-0.633c0.35-2.633,0.732-5.262,1.049-7.898c0.125-1.054,0.121-2.127,0.129-3.189
			c0.002-0.303-0.146-0.614-0.258-0.908c-0.172-0.45-1.02-0.703-1.357-0.387c-0.502,0.475-0.976,0.983-1.458,1.481
			c0.009,0.051,0.01,0.101,0.021,0.151c-0.052,0.012-0.084,0.04-0.132,0.055c-0.2,0.621-0.391,1.245-0.616,1.855
			c-0.033,0.09-0.262,0.106-0.4,0.157c-0.055-0.19-0.199-0.406-0.152-0.563c0.196-0.638,0.475-1.229,1.169-1.449
			c0.015-0.046,0.029-0.091,0.044-0.137c0.022-0.023,0.044-0.046,0.067-0.069c-0.415-2.24,0.46-4.342,0.798-6.491
			c0.398-2.523,1.062-5.006,1.564-7.516c0.102-0.508,0.08-1.073-0.027-1.581c-0.244-1.151-1.361-1.737-2.455-1.329
			c-0.398,0.149-0.764,0.383-1.154,0.559c-0.301,0.136-0.584-0.1-0.549-0.435c0.15-1.483,0.334-2.964,0.428-4.451
			c0.031-0.513-0.049-1.101-0.281-1.547c-0.34-0.647-0.998-1.14-1.271-1.802c-0.268-0.66-0.162-1.463-0.338-2.174
			c-0.219-0.886-0.883-1.463-1.686-1.826c-0.969-0.438-1.963-0.823-2.965-1.184c-0.393-0.142-0.834-0.231-1.25-0.216
			c-0.957,0.035-1.914,0.11-2.863,0.238c-1.322,0.18-1.334,0.188-1.545-1.229c-0.111-0.737-0.268-1.468-0.393-2.203
			c-0.135-0.813,0.023-1.185,0.828-1.49c5.84-2.21,9.637-6.544,12.434-11.917c0.838-1.61,1.652-3.233,2.416-4.879
			c1.719-3.708,2.805-7.603,3.322-11.658c0.107-0.833,0.43-1.128,1.225-1.134c0.639-0.005,1.285,0.004,1.908,0.118
			c0.256,0.046,0.543,0.345,0.66,0.6c0.125,0.272,0.09,0.628,0.092,0.949c0.01,0.963,0.039,1.928,0.002,2.89
			c-0.188,4.721,0.66,9.382,0.816,14.083c0.061,1.759,0.934,2.895,2.686,3.569c2.525,0.971,5.062,1.664,7.775,1.703
			c2.244,0.032,4.48,0.081,6.713,0.451c1.361,0.226,2.775,0.174,4.166,0.163c2.447-0.02,2.305,0.275,1.949,2.376
			c-0.229,1.357-0.094,2.774-0.15,4.162c-0.029,0.751-0.426,1.124-1.244,1.13c-3.641,0.031-7.279,0.036-10.918,0.059
			c-1.393,0.009-2.783,0.041-4.176,0.066c-1.385,0.024-2.482,0.511-3.113,1.845c-0.225,0.476-0.521,0.94-0.873,1.33
			c-1.064,1.179-1.498,2.616-1.553,4.122c-0.236,6.517-0.5,13.039-0.527,19.558c-0.012,2.102,0.795,4.195,0.99,6.313
			c0.156,1.749,0.654,3.351,1.373,4.905c1.379,2.98,3.525,5.342,6.137,7.283c2.178,1.618,4.766,1.805,7.334,1.766
			c2.371-0.035,4.646-0.658,6.752-1.805c0.656-0.357,1.32-0.716,2.016-0.985c0.24-0.095,0.699-0.03,0.865,0.144
			C85.714,92.624,85.847,93.805,84.825,94.467z"/>
	</g>
</g>
</svg>
