<?xml version="1.0" encoding="utf-8"?>
<!-- Generator: Adobe Illustrator 16.0.0, SVG Export Plug-In . SVG Version: 6.00 Build 0)  -->
<!DOCTYPE svg PUBLIC "-//W3C//DTD SVG 1.1//EN" "http://www.w3.org/Graphics/SVG/1.1/DTD/svg11.dtd">
<svg version="1.1" id="Layer_1" xmlns="http://www.w3.org/2000/svg" xmlns:xlink="http://www.w3.org/1999/xlink" x="0px" y="0px"
	 width="120px" height="120px" viewBox="0 0 120 120" style="enable-background:new 0 0 120 120;" xml:space="preserve">
<g id="livejournal">
	<g>
		<path style="fill-rule:evenodd;clip-rule:evenodd;" d="M101.672,106.05c-0.11-0.408-0.31-0.797-0.497-1.18
			c-0.525-1.076-0.733-2.209-0.745-3.408c-0.015-1.926,0.058-3.871-0.202-5.768c-0.567-4.133-0.22-8.318-0.957-12.449
			c-0.507-2.826-0.53-5.736-0.771-8.607c-0.132-1.566-0.717-2.857-2.052-3.809c-0.684-0.488-1.268-1.146-1.811-1.796
			c-4.804-5.737-9.479-11.571-13.601-17.833c-3.703-5.623-7.444-11.222-11.249-16.775c-2.293-3.352-4.711-6.617-7.655-9.453
			c-0.931-0.896-2.157-1.416-3.052-2.258c-0.972-0.914-1.352-2.378-2.344-3.395c-1.866-1.911-3.645-3.906-5.486-5.842
			c-1.021-1.076-2.146-2.018-2.492-3.617c-0.217-1.006-1.121-1.562-2.184-1.576c-0.732-0.01-1.611-0.088-2.17,0.268
			c-1.062,0.676-2.008,0.475-3.052,0.156c-1.158-0.352-2.328-0.32-3.457,0.143c-2.171,0.885-4.4,1.654-6.484,2.709
			c-5.219,2.641-9.019,6.768-11.854,11.82c-0.899,1.604-1.523,3.303-1.383,4.975c-0.008,3.156,1.285,5.576,3.061,7.782
			c1.74,2.161,3.544,4.271,5.281,6.433c0.462,0.576,0.838,1.24,1.149,1.912c2.342,5.072,5.393,9.715,8.639,14.229
			c4.862,6.767,9.77,13.505,14.736,20.196c2.288,3.084,4.497,6.253,7.226,8.986c1.899,1.9,3.495,4.033,5.025,6.227
			c1.1,1.578,2.213,3.145,3.325,4.715c0.587,0.83,1.316,1.422,2.412,1.26c0.901-0.135,1.643,0.267,2.446,0.57
			c3.095,1.165,6.205,2.285,9.329,3.367c4.042,1.4,8.019,2.936,11.638,5.271c0.899,0.58,1.801,1.159,2.744,1.662
			c2.235,1.193,3.357,0.986,5.223-0.602C101.82,109.163,102.135,107.737,101.672,106.05z M32.701,39.772
			c-0.143,0.285-0.228,0.637-0.449,0.838c-0.193,0.174-0.594,0.312-0.808,0.228c-0.383-0.152-0.7-0.474-1.032-0.742
			c-1.395-1.126-1.354-1.089,0.018-2.464c1.131-1.133,2.207-2.328,3.208-3.578c2.174-2.713,4.751-4.895,7.887-6.426
			c1.729-0.843,3.431-1.743,5.108-2.684c0.542-0.303,0.992-0.791,1.437-1.242c0.296-0.303,0.055-0.69-0.194-0.804
			c-0.767-0.348-1.558-0.688-2.375-0.86c-0.722-0.155-1.49-0.078-2.239-0.113c-0.578-0.027-0.971-0.271-1.207-0.85
			c-0.237-0.583-0.54-1.16-0.922-1.654c-0.245-0.316-0.661-0.545-1.045-0.695c-1.225-0.473-2.512,0.429-2.415,1.709
			c0.049,0.627,0.281,1.238,0.423,1.859c0.196,0.869,0.122,1.027-0.666,1.578c-1.05,0.734-2.171,1.391-3.129,2.232
			c-2.617,2.293-4.542,5.094-5.755,8.367c-0.186,0.5-0.396,0.99-0.608,1.48c-0.04,0.091-0.158,0.232-0.205,0.219
			c-0.161-0.043-0.375-0.105-0.445-0.23c-0.792-1.4-1.669-2.686-2.958-3.74c-0.683-0.559-0.979-1.615-1.387-2.479
			c-0.125-0.266-0.155-0.684-0.034-0.938c0.548-1.146,1.158-2.263,1.779-3.371c0.046-0.085,0.426-0.11,0.512-0.025
			c0.447,0.455,0.779,1.047,1.283,1.414c0.996,0.727,2.127,1.055,3.303,0.395c1.179-0.661,2.037-1.57,1.977-2.992
			c0.077-1.102-0.332-1.953-1.123-2.594c-0.492-0.398-1.08-0.682-1.608-1.044c-0.371-0.255-0.199-0.558,0.066-0.726
			c1.717-1.082,3.425-2.184,5.187-3.191c1.205-0.689,2.521-1.104,3.904-1.394c1.868-0.394,3.787-0.769,5.268-2.167
			c0.112-0.105,0.428-0.107,0.586-0.029c0.451,0.22,0.15,0.533,0.019,0.793c-0.093,0.188-0.266,0.334-0.372,0.518
			c-0.548,0.935-0.521,1.85,0.222,2.656c0.619,0.672,1.357,1.045,2.287,0.559c0.521-0.271,1.037-0.279,1.455,0.178
			c1.874,2.051,3.74,4.111,5.603,6.174c0.298,0.33,0.117,0.938-0.32,0.99c-2.919,0.354-5.562,1.492-8.116,2.864
			C39.603,30.59,35.382,34.405,32.701,39.772z M37.701,46.5c-0.157,0.155-0.605,0.206-0.789,0.091
			c-0.226-0.141-0.328-0.498-0.451-0.775c-0.033-0.074,0.038-0.207,0.086-0.301c3.457-6.742,8.553-11.637,15.948-13.769
			c1.745-0.503,3.564-1.009,5.446-0.85c0.034-0.027,0.072-0.047,0.105-0.074c0.054-0.024,0.107-0.048,0.161-0.071
			c0.042-0.097,0.083-0.193,0.125-0.289c0.062,0.051,0.121,0.102,0.183,0.152c-0.104,0.046-0.206,0.091-0.308,0.137l-0.069,0.158
			c-0.066-0.007-0.131-0.007-0.197-0.013c-1.038,0.817-2.297,1.262-3.376,2.019c-1.066,0.744-2.39,0.855-3.574,1.291
			c-3.874,1.422-7.188,3.689-9.643,7.066c-0.94,1.291-1.786,2.646-2.683,3.965C38.366,45.677,38.078,46.136,37.701,46.5z
			 M68.562,82.233c-1.13,0.838-2.055,0.271-2.876-0.391c-0.738-0.596-1.282-1.43-1.966-2.105c-0.88-0.873-1.012-2.085-1.529-3.117
			c-0.499-0.99-1.966-0.742-2.531-1.824c-0.35-0.668-0.669-1.158-0.498-2.031c0.303-1.559-0.412-2.374-2.005-2.631
			c-0.628-0.1-1.254-0.027-1.794-0.504c-1.243-1.096-1.359-1.73-0.497-3.312c0.357-0.656,0.779-1.285,1.074-1.97
			c0.422-0.978,0.018-2.146-0.891-2.851c-0.733-0.568-1.958-0.688-2.712-0.164c-0.609,0.424-1.129,0.979-1.721,1.432
			c-0.104,0.08-0.423,0.012-0.544-0.098c-0.132-0.117-0.249-0.405-0.19-0.545c0.245-0.59,0.583-1.141,0.837-1.727
			c0.463-1.07,0.405-2.082-0.43-2.975c-0.835-0.89-1.827-1.025-2.933-0.615c-0.199,0.073-0.387,0.182-0.578,0.277
			c-0.555,0.275-1.029,0.17-1.404-0.319c-0.367-0.483-0.311-1.019-0.055-1.507c0.447-0.849,0.972-1.656,1.417-2.506
			c0.309-0.588,0.337-1.225,0.101-1.863c-0.455-1.225-1.941-1.799-3.209-1.113c-0.738,0.4-1.342,1.039-2.037,1.529
			c-0.11,0.078-0.422,0-0.555-0.109c-0.137-0.113-0.275-0.387-0.229-0.531c0.127-0.398,0.309-0.792,0.54-1.14
			c0.83-1.247,1.729-2.447,2.526-3.714c1.4-2.219,1.904-1.689,2.934,0.281c3.634,6.947,8.082,13.348,13.058,19.391
			c1.358,1.65,2.709,3.32,4.198,4.852c1.868,1.923,3.989,3.555,6.48,4.635c0.179,0.076,0.529,0.108,0.597,0.014
			c0.171-0.234,0.365-0.589,0.304-0.834c-0.863-3.479-2.432-6.586-4.801-9.308c-3.091-3.548-6.164-7.116-8.907-10.947
			c-2.551-3.563-5.058-7.161-7.575-10.751c-0.308-0.436-0.579-0.898-0.843-1.363c-0.494-0.869-0.407-1.455,0.421-1.869
			c2.862-1.428,5.517-3.287,8.655-4.149c0.819-0.226,1.596-0.606,2.399-0.892c0.778-0.275,1.146-0.184,1.638,0.518
			c1.35,1.928,2.696,3.855,3.992,5.818s2.546,3.957,3.78,5.961c0.32,0.521,0.515,1.12,0.762,1.686
			c0.912,0.592,1.285,1.606,1.858,2.453c2.638,3.895,5.175,7.862,7.878,11.713c1.902,2.709,4.018,5.27,6.029,7.902
			c0.406,0.531,0.191,1.085-0.432,1.142c-1.701,0.157-3.4,0.382-5.104,0.431c-1.605,0.047-2.609,0.817-3.214,2.212
			c-0.423,0.978-0.817,1.972-1.175,2.976c-0.285,0.804-0.476,1.641-0.742,2.453c-0.372,1.142-0.576,1.279-1.85,1.332
			c-0.963,0.038-1.926,0.066-2.889,0.091C70.355,81.58,69.359,81.643,68.562,82.233z M91.809,93.267
			c-1.887,1.387-3.562,3.059-5.31,4.627c-0.429,0.383-0.878,0.645-1.437,0.479c-4.188-1.245-8.368-2.502-12.549-3.774
			c-0.701-0.214-0.606-0.685-0.305-1.22c0.391-0.691,0.424-1.412,0.011-2.127c-0.371-0.648-0.746-1.297-1.084-1.963
			c-0.249-0.492-0.386-1.078,0.059-1.475c0.265-0.236,0.783-0.343,1.15-0.285c1.472,0.229,2.942,0.502,4.393,0.844
			c1.365,0.322,2.566-0.174,3.665-0.777c0.977-0.539,1.254-1.633,1.45-2.73c0.317-1.779,0.724-3.547,1.165-5.301
			c0.264-1.047,0.553-1.227,1.586-1.121c1.379,0.139,2.746,0.424,4.127,0.49c1.254,0.059,2.518-0.104,3.776-0.125
			c0.096-0.002,0.269,0.335,0.283,0.523c0.089,1.17,0.101,2.35,0.217,3.518c0.177,1.801,0.418,3.598,0.547,4.689
			c0,1.15-0.011,1.577,0.001,2.004C93.605,91.522,93.853,91.765,91.809,93.267z M66.257,44.097c0.254-0.592,0.071-1.293-0.429-1.744
			c-0.527-0.48-1.133-0.579-1.775-0.297c-1.818,0.801-3.164,2.154-4.271,3.757c-0.156,0.226-0.182,0.618-0.119,0.901
			c0.153,0.701,0.938,1.334,1.745,1.395c0.171-0.023,0.513-0.001,0.796-0.119C64.054,47.218,65.453,45.96,66.257,44.097z
			 M65.399,50.039c-0.187,0.26-0.386,0.511-0.55,0.784c-0.601,1.002,0.013,2.281,1.182,2.381c0.514,0.043,1.077,0.01,1.561-0.158
			c1.988-0.684,3.105-2.091,3.309-4.191C68.247,47.343,67.154,47.58,65.399,50.039z M70.9,48.855
			c0.031,0.018,0.056,0.028,0.087,0.046c-0.007-0.017-0.014-0.034-0.021-0.05c-0.022-0.014-0.036-0.035-0.059-0.048
			C70.906,48.821,70.902,48.837,70.9,48.855z M71.559,58.151c-0.847-0.453-2.037-0.112-2.397,0.721
			c-0.097,0.223,0.007,0.689,0.188,0.836c0.297,0.239,0.75,0.461,1.101,0.416c0.733-0.094,1.363-0.836,1.434-1.461
			C71.778,58.487,71.716,58.233,71.559,58.151z"/>
	</g>
</g>
</svg>
