<?xml version="1.0" encoding="utf-8"?>
<!-- Generator: Adobe Illustrator 16.0.0, SVG Export Plug-In . SVG Version: 6.00 Build 0)  -->
<!DOCTYPE svg PUBLIC "-//W3C//DTD SVG 1.1//EN" "http://www.w3.org/Graphics/SVG/1.1/DTD/svg11.dtd">
<svg version="1.1" id="Layer_1" xmlns="http://www.w3.org/2000/svg" xmlns:xlink="http://www.w3.org/1999/xlink" x="0px" y="0px"
	 width="120px" height="120px" viewBox="0 0 120 120" style="enable-background:new 0 0 120 120;" xml:space="preserve">
<g id="medium">
	<g>
		<path style="fill-rule:evenodd;clip-rule:evenodd;" d="M115.361,18.59c-1.797-0.239-3.598-0.557-5.402-0.604
			c-4.914-0.127-9.805-0.779-14.734-0.558c-2.135,0.095-4.281,0.055-6.419-0.013c-2.346-0.074-4.683-0.147-7.023-0.544
			c-1.983-0.337-4.048-0.204-6.077-0.262c-1.02-0.029-1.912,0.302-2.512,1.16c-0.457,0.657-1.101,0.988-1.815,1.238
			c-1.104,0.384-1.79,1.119-1.991,2.294c-0.145,0.838-0.372,1.664-0.492,2.505c-0.346,2.436-0.883,4.812-1.664,7.157
			c-1.722,5.166-3.311,10.376-4.947,15.569c-1.189,3.768-2.37,7.538-3.553,11.307c-0.032,0.103-0.046,0.21-0.079,0.312
			c-0.13,0.397-0.222,0.912-0.772,0.805c-0.228-0.044-0.473-0.411-0.563-0.681c-1.298-3.844-2.756-7.646-3.807-11.557
			c-1.659-6.181-3.052-12.434-4.535-18.661c-0.669-2.803-1.267-5.622-1.933-8.424c-0.357-1.503-1.183-2.157-2.692-2.262
			c-0.214-0.015-0.429-0.017-0.642-0.011c-1.928,0.056-3.845,0.064-5.727-0.491c-0.498-0.146-1.063-0.073-1.598-0.074
			c-4.279-0.004-8.56-0.002-12.84-0.002v-0.052c-4.172,0-8.347-0.017-12.52,0.012c-1.062,0.008-2.131,0.111-3.186,0.256
			c-1.6,0.221-2.743,0.92-3.181,2.679c-0.226,0.91-0.614,1.786-0.798,2.74c-0.494,2.551-0.389,5.122-0.291,7.678
			c0.094,2.482,1.531,4.036,4.002,4.745c0.514,0.147,1.033,0.269,1.55,0.406c2.229,0.596,2.315,0.729,2.147,3.037
			c-0.056,0.746-0.066,1.496-0.094,2.244c-0.21,5.877-0.286,11.759-0.427,17.635c-0.178,7.473-0.51,14.969,0.216,22.441
			c0.08,0.824-0.307,1.26-1.215,1.613c-1.393,0.539-2.783,1.085-4.149,1.684c-1.401,0.615-2.14,1.676-2.134,3.266
			c0.004,1.389-0.158,2.777-0.162,4.168c-0.004,2.041-0.045,4.045-0.971,5.953c-0.248,0.511-0.25,1.318-0.027,1.85
			c0.67,1.596,1.512,3.103,3.5,3.402c0.521,0.078,1.056,0.217,1.525,0.447c1.839,0.902,3.808-0.67,5.645,0.328
			c0.233,0.127,0.68,0.059,0.934-0.084c1.49-0.848,3.111-0.631,4.703-0.637c2.891-0.01,5.781,0.068,8.668-0.008
			c3.522-0.096,7.043-0.307,10.562-0.486c0.727-0.037,1.244-0.508,1.27-1.194c0.043-1.173,0.217-2.396-0.044-3.511
			c-0.348-1.49-0.327-2.968-0.351-4.457c-0.031-2.033,0.021-4.067-0.043-6.098c-0.043-1.396-0.945-2.422-2.297-2.709
			c-0.621-0.133-1.271-0.143-1.911-0.17c-0.854-0.037-1.711-0.023-2.565-0.061c-0.487-0.022-0.824-0.346-0.838-0.799
			c-0.033-1.066-0.08-2.15,0.059-3.201c0.438-3.301,0.332-6.615,0.377-9.926c0.045-3.531,0.072-7.063,0.215-10.591
			c0.074-1.807,0.377-3.605,0.6-5.404c0.018-0.142,0.215-0.27,0.35-0.378c0.02-0.015,0.192,0.102,0.236,0.187
			c0.346,0.664,0.691,1.328,1.011,2.005c2.928,6.186,5.499,12.524,7.835,18.952c2.341,6.438,4.878,12.777,8.195,18.787
			c0.41,0.74,0.723,1.543,1.003,2.346c0.749,2.145,1.659,2.904,3.978,2.965c2.779,0.074,5.564,0.076,8.346,0.044
			c2.484-0.028,3.668-0.882,4.481-3.312c0.473-1.411,0.87-2.871,1.078-4.34c0.495-3.5,1.272-6.924,2.288-10.305
			c2.182-7.26,4.036-14.604,5.566-22.03c0.627-3.048,1.468-6.019,3.256-8.63c0.299-0.437,0.586-0.881,0.881-1.321
			c0.258,0.565,0.609,1.107,0.746,1.699c0.144,0.614,0.085,1.276,0.104,1.918c0.22,7.48,0.09,14.972,0.713,22.44
			c0.134,1.595,0.047,3.202,0.569,4.759c0.256,0.762-0.132,1.285-0.932,1.262c-2.004-0.055-3.785,0.555-5.457,1.59
			c-1.22,0.754-1.826,1.904-1.527,3.258c0.542,2.443,0.345,4.898,0.398,7.352c0.018,0.855-0.049,1.726,0.088,2.562
			c0.285,1.756,1.492,2.702,3.332,2.844c1.053,0.08,2.1,0.242,3.145,0.404c0.842,0.129,1.67,0.418,2.512,0.457
			c4.057,0.193,8.115,0.433,12.174,0.449c3.732,0.016,7.47-0.191,11.199-0.393c0.936-0.051,1.884-0.373,2.768-0.717
			c1.192-0.467,1.801-1.41,1.913-2.719c0.127-1.486,0.339-2.965,0.536-4.443c0.209-1.586,0.486-3.164,0.651-4.754
			c0.099-0.953,0.093-1.926,0.037-2.885c-0.098-1.698-1.025-2.818-2.673-3.168c-1.35-0.289-2.74-0.504-4.115-0.52
			c-3.188-0.037-3.008,0.043-2.787-3.363c0.02-0.314,0.111-0.637,0.223-0.934c0.352-0.938,0.22-1.877,0.154-2.846
			c-0.318-4.689-0.732-9.379-0.817-14.074c-0.138-7.703-0.048-15.409-0.054-23.113c0-0.428-0.018-0.858,0.021-1.283
			c0.051-0.572,0.336-1.044,0.901-1.198c2.672-0.728,5.337-1.494,8.036-2.1c1.304-0.291,2.094-0.932,2.49-2.167
			c0.752-2.334,1.389-4.695,2.441-6.941C118.439,20.561,117.302,18.847,115.361,18.59z M10.032,28.436
			c-0.17-0.69-0.339-1.378-0.365-1.483c0-0.931-0.015-1.245,0.003-1.557c0.039-0.689,0.427-1.011,1.268-1.039
			c0.311-0.01,0.662-0.052,0.925,0.072c0.224,0.104,0.528,0.482,0.479,0.64c-0.183,0.587-0.431,1.18-0.78,1.682
			C11.129,27.369,11.158,28.443,10.032,28.436z M32.637,89.229c0.453,0.055,0.76,0.337,0.842,0.812
			c0.018,0.105,0.047,0.213,0.045,0.317c-0.21,7.854,1.664,6.412-6.391,6.616c-0.424,0.01-0.879,0.023-1.264-0.119
			c-0.211-0.076-0.448-0.482-0.426-0.719c0.056-0.627,0.307-1.236,0.369-1.863c0.093-0.924-0.9-1.59-1.738-1.189
			c-0.377,0.182-0.76,0.4-1.057,0.689c-0.843,0.816-1.623,1.697-2.469,2.51c-0.293,0.281-0.687,0.508-1.074,0.621
			c-0.265,0.077-0.621-0.031-0.896-0.152c-0.391-0.172-0.264-0.539-0.157-0.83c0.22-0.602,0.515-1.178,0.704-1.787
			c0.157-0.502,0.289-1.041,0.276-1.559c-0.009-0.387-0.204-0.811-0.431-1.139c-0.216-0.311-0.998-0.174-1.43,0.263
			c-0.897,0.909-1.766,1.849-2.621,2.798c-0.428,0.477-0.783,1.014-1.196,1.504c-0.615,0.73-1.353,1.074-1.54,0.752
			c-0.348-0.592,0.184-0.967,0.344-1.42c0.354-0.998,0.888-1.947,1.146-2.967c0.345-1.363-0.275-2.055-1.847-2.18
			c-0.355-0.028-0.607-0.066-0.727-0.381c-0.152-0.396-0.308-0.811-0.344-1.228c-0.023-0.257,0.098-0.667,0.287-0.774
			c0.453-0.256,0.986-0.367,1.483-0.547c0.819-0.297,1.524-0.727,1.983-1.521c0.264-0.457,0.621-0.867,0.975-1.266
			c0.516-0.579,0.881-1.203,0.785-2.012c-0.18-1.504,0.553-2.547,1.482-3.684c2.566-3.137,5.004-6.385,6.877-10.008
			c0.146-0.281,0.328-0.555,0.542-0.785c0.107-0.115,0.323-0.142,0.497-0.173c0.025-0.005,0.127,0.179,0.127,0.276
			c0.008,2.348,0.006,4.697,0.006,6.354c0.089,2.827,0.15,4.964,0.226,7.099c0.065,1.832,0.563,3.563,1.181,5.279
			c0.451,1.253,1.363,1.896,2.574,2.129C30.717,89.125,31.688,89.115,32.637,89.229z M109.974,26.357
			c-0.159,0.235-0.483,0.424-0.768,0.499c-2.269,0.593-4.546,1.153-6.821,1.725c-0.518,0.129-1.059,0.207-1.549,0.405
			c-1.072,0.43-1.695,1.181-1.777,2.414c-0.822,12.394-0.803,24.796-0.426,37.201c0.035,1.172,0.29,2.336,0.32,3.508
			c0.067,2.662,0.305,5.342-0.502,7.955c-0.156,0.508-0.231,1.045-0.3,1.574c-0.239,1.86,0.919,3.115,2.764,3.008
			c0.513-0.029,1.14-0.279,1.518-0.072c1.495,0.82,3.093,0.736,4.692,0.79c0.783,0.026,1.168,0.446,1.06,1.252
			c-0.214,1.584-0.422,3.177-0.786,4.731c-0.789,3.369-0.184,3.064-3.562,3.129c-1.277,0.023-2.549,0.252-3.828,0.303
			c-1.275,0.051-2.556,0.014-3.834-0.021c-0.42-0.013-0.714-0.485-0.608-0.919c0.101-0.414,0.3-0.811,0.356-1.227
			s0.036-0.857-0.033-1.273c-0.112-0.676-0.491-1.26-1.185-1.34c-0.479-0.058-1.15,0.049-1.463,0.357
			c-0.751,0.743-1.363,1.633-1.987,2.495c-0.37,0.513-0.636,1.103-0.995,1.624c-0.083,0.121-0.356,0.131-0.544,0.143
			c-0.056,0.002-0.166-0.158-0.174-0.252c-0.058-0.636-0.043-1.283-0.15-1.908c-0.16-0.947-1.244-1.396-1.949-0.817
			c-0.494,0.404-0.91,0.901-1.396,1.317c-0.219,0.186-0.523,0.271-0.79,0.401c-0.026-0.399-0.171-0.84-0.054-1.192
			c0.336-1.012,0.732-2.012,1.191-2.974c0.418-0.88,0.367-1.626-0.287-2.356c-0.395-0.44-0.17-0.735,0.311-0.915
			c0.6-0.224,1.215-0.419,1.797-0.683c1.117-0.504,1.673-1.771,1.274-2.941c-0.134-0.393-0.346-0.804-0.64-1.084
			c-0.6-0.572-0.709-1.25-0.756-2.027c-0.15-2.449-0.42-4.895-0.533-7.346c-0.114-2.457,0.035-4.932-0.162-7.381
			c-0.399-5.001-0.484-10.031-1.245-15c-0.388-2.532-0.892-5.043-1.804-7.458c-0.439-1.162-1.155-2.02-2.224-2.626
			c-1.56-0.886-2.774-0.758-3.967,0.626c-0.618,0.717-1.108,1.573-1.528,2.429c-1.701,3.468-2.811,7.157-3.822,10.866
			c-1.547,5.663-2.932,11.37-4.493,17.028c-1.163,4.219-2.507,8.387-3.743,12.586c-0.24,0.816-0.562,1.355-1.544,1.164
			c-0.972-0.191-1.595,0.281-2.079,1.111c-1.203,2.07-1.781,4.332-2.206,6.656c-0.197,1.078-0.612,1.312-1.853,1.127
			c-0.322-0.047-0.605-0.283-0.381-0.643c1.323-2.127,1.812-4.549,2.482-6.906c0.145-0.512,0.254-1.041,0.305-1.57
			c0.191-1.975-0.363-2.764-2.411-3.508c-0.86-0.312-1.009-0.498-0.872-1.367c0.132-0.842,0.406-1.666,0.49-2.509
			c0.051-0.503-0.07-1.06-0.246-1.542c-0.229-0.629-0.697-1.052-1.432-1.098c-0.652-0.041-0.969,0.201-1.373,1.064
			c-0.451,0.965-0.925,1.918-1.398,2.871c-0.039,0.076-0.157,0.111-0.239,0.166c-0.05-0.094-0.146-0.189-0.144-0.283
			c0.014-0.637-0.025-1.289,0.092-1.91c0.217-1.152,0.541-2.285,0.797-3.432c0.189-0.846-0.274-1.436-0.866-1.934
			c-0.611-0.518-1.193-0.205-1.767,0.117c-0.069,0.039-0.154,0.049-0.238,0.062c0.007,0.03,0.007,0.06,0.015,0.09
			c-0.032,0.023-0.07,0.045-0.106,0.066c-0.017,0.15-0.033,0.3-0.076,0.441c-0.041,0.131-0.148,0.242-0.226,0.361
			c-0.015-0.18-0.094-0.391-0.026-0.529c0.056-0.116,0.196-0.192,0.328-0.273c0.006-0.048,0.011-0.097,0.018-0.145
			c0.023-0.005,0.048-0.009,0.073-0.012c-0.192-0.825-0.086-1.623,0.183-2.426c0.271-0.809,0.486-1.637,0.699-2.463
			c0.132-0.514,0.258-1.035,0.312-1.562c0.078-0.764-0.012-1.504-0.655-2.047c-0.55-0.465-1.15-0.4-1.81-0.24
			c-0.535,0.129-0.854-0.156-0.764-0.602c0.209-1.042,0.479-2.071,0.708-3.107c0.253-1.142,0.508-2.284,0.722-3.434
			c0.056-0.302-0.014-0.635-0.071-0.946c-0.137-0.751-1.226-1.171-1.772-0.669c-0.471,0.431-0.918,0.895-1.32,1.389
			c-0.404,0.495-0.723,1.06-1.116,1.565c-0.204,0.263-0.488,0.462-0.736,0.69c0.028-0.413-0.022-0.851,0.097-1.236
			c0.604-1.935,1.252-3.855,1.882-5.781c0.165-0.505,0.368-1.003,0.463-1.52c0.053-0.293-0.05-0.628-0.134-0.93
			c-0.178-0.654-1.002-0.905-1.521-0.479c-1.167,0.96-2.166,2.058-2.854,3.42c-0.387,0.762-0.789,1.516-1.219,2.252
			c-0.118,0.2-0.366,0.324-0.555,0.483c-0.024-0.309-0.104-0.625-0.065-0.925c0.138-1.054,0.386-2.098,0.45-3.154
			c0.029-0.492-0.187-1.047-0.432-1.497c-0.535-0.986-1.43-1.21-2.428-0.673c-0.375,0.201-0.715,0.467-1.067,0.706
			c-0.491,0.335-0.882,0.023-1.058-0.329c-1.047-2.093-2.363-4.053-2.929-6.385c-0.345-1.424-1.542-2.155-2.86-2.05
			c-1.247,0.1-2.329,1.116-2.602,2.463c-0.062,0.313-0.082,0.636-0.101,0.956c-0.187,3.41-0.359,6.822-0.552,10.232
			c-0.228,4.051-0.473,8.102-0.705,12.153c-0.045,0.771-0.484,0.711-1.074,0.627c-0.726-0.102-1.154,0.473-1.545,0.974
			c-1.709,2.19-3.396,4.396-5.099,6.589c-0.259,0.334-0.532,0.668-0.847,0.945c-0.126,0.111-0.434,0.154-0.569,0.076
			c-0.15-0.086-0.308-0.375-0.272-0.531c0.164-0.713,0.283-1.473,0.625-2.104c0.76-1.408,1.658-2.738,2.471-4.117
			c1.082-1.842,2.149-3.691,3.195-5.555c0.365-0.65,0.68-1.334,0.957-2.026c0.254-0.635,0.082-1.246-0.232-1.84
			c-0.545-1.031-1.609-1.157-2.307-0.226c-1.343,1.788-2.66,3.596-4.01,5.377c-0.068,0.09-0.484,0.08-0.526,0.002
			c-0.571-1.064-0.378-3.083,0.482-3.841c0.743-0.653,1.309-1.384,1.736-2.261c1.309-2.689,2.656-5.361,3.94-8.062
			c0.412-0.863,0.717-1.783,0.992-2.702c0.189-0.635-0.002-1.255-0.33-1.841c-0.475-0.85-1.443-1.007-2.15-0.407
			c-0.692,0.586-0.798,1.713-1.804,1.991c-0.001,0.037-0.009,0.072-0.009,0.109c-0.036,0.011-0.061,0.027-0.093,0.04
			c-0.01,0.457-0.08,0.883-0.529,1.121c-0.004,0.055-0.009,0.109-0.018,0.163c-0.044,0.014-0.077,0.034-0.115,0.051
			c-0.041,0.429-0.082,0.856-0.514,1.094c-0.003,0.047-0.006,0.094-0.011,0.14c-0.042,0.015-0.076,0.036-0.116,0.053
			c-0.095,1.038-0.524,1.932-1.22,2.707c-0.066,0.075-0.179,0.11-0.27,0.164c-0.08-0.181-0.268-0.4-0.221-0.536
			c0.333-0.951,0.678-1.911,1.71-2.334c0.004-0.046,0.018-0.089,0.021-0.136c0.041-0.017,0.071-0.038,0.106-0.057
			c0.03-0.435,0.041-0.878,0.514-1.094c0.004-0.046,0.009-0.093,0.014-0.14c0.051-0.019,0.076-0.051,0.119-0.074
			c0.038-0.441,0.013-0.911,0.529-1.121c0.001-0.039,0.004-0.076,0.005-0.115c0.036-0.007,0.062-0.024,0.097-0.033
			c0.044-1.516,1.058-2.69,1.479-4.077c0.184-0.606,0.633-1.136,0.797-1.744c0.19-0.707,0.298-1.466,0.268-2.195
			c-0.045-1.143-1.445-1.855-2.384-1.201c-0.687,0.479-1.309,1.095-1.829,1.752c-0.454,0.578-0.72,1.301-1.082,1.954
			c-0.047,0.084-0.167,0.173-0.256,0.175c-0.067,0.001-0.182-0.12-0.201-0.205c-0.533-2.201-0.984-4.364,0.646-6.385
			c0.8-0.991,1.396-2.148,2.071-3.238c0.416-0.672,0.489-1.404,0.296-2.163c-0.228-0.887-1.447-1.31-2.038-0.654
			c-0.782,0.868-1.448,1.84-2.22,2.719c-0.131,0.15-0.608,0.162-0.809,0.043c-0.23-0.137-0.342-0.486-0.477-0.757
			c-0.04-0.079-0.008-0.218,0.033-0.31c0.673-1.454,1.314-2.925,2.06-4.341c0.157-0.299,0.696-0.55,1.064-0.559
			c1.925-0.043,3.854-0.061,5.775,0.024c3.116,0.137,6.173-0.027,9.193-0.938c3.204-0.965,6.534-0.998,9.853-0.99
			c0.658,0.001,1.164,0.423,1.324,1.166c0.5,2.292,1.092,4.576,1.418,6.895c1.055,7.521,2.567,14.937,4.867,22.18
			c0.645,2.029,1.358,4.038,2.102,6.034c1.047,2.805,2.117,5.615,2.637,8.562c0.352,1.988,1.688,2.881,3.254,3.629
			c0.293,0.139,0.881-0.016,1.166-0.244c1.006-0.807,1.826-1.802,2.287-3.023c2.371-6.295,4.988-12.498,6.916-18.958
			c1.711-5.729,3.569-11.414,5.377-17.113c0.941-2.972,1.386-6.027,1.635-9.122c0.082-1.013,0.389-1.323,1.419-1.277
			c1.275,0.058,2.546,0.213,3.818,0.343c3.183,0.327,6.341,0.903,9.557,0.929c5.563,0.043,11.128,0.12,16.692,0.193
			c0.747,0.01,1.5,0.024,2.237,0.128C110.979,23.057,111.447,24.192,109.974,26.357z M19.5,80.631
			c-0.484-0.012-1.121,0.109-1.434,0.424c-0.831,0.838-1.349,1.883-1.26,3.402c0.055,0.141,0.117,0.613,0.384,0.885
			c0.259,0.262,0.791,0.52,1.096,0.426c1.744-0.533,2.743-2.178,2.483-3.905C20.682,81.279,20.141,80.646,19.5,80.631z"/>
	</g>
</g>
</svg>
