<?xml version="1.0" encoding="utf-8"?>
<!-- Generator: Adobe Illustrator 16.0.0, SVG Export Plug-In . SVG Version: 6.00 Build 0)  -->
<!DOCTYPE svg PUBLIC "-//W3C//DTD SVG 1.1//EN" "http://www.w3.org/Graphics/SVG/1.1/DTD/svg11.dtd">
<svg version="1.1" id="Layer_1" xmlns="http://www.w3.org/2000/svg" xmlns:xlink="http://www.w3.org/1999/xlink" x="0px" y="0px"
	 width="120px" height="120px" viewBox="0 0 120 120" style="enable-background:new 0 0 120 120;" xml:space="preserve">
<g id="storify">
	<g>
		<path style="fill-rule:evenodd;clip-rule:evenodd;" d="M59.365,74.848c-1.531-5.84-4.921-10.635-8.835-15.063
			c-1.988-2.251-3.877-4.564-5.567-7.028c-3.729-5.44-5.775-11.393-5.208-18.096c0.213-2.513,1.004-4.747,2.488-6.811
			c2.52-3.501,5.625-6.425,8.785-9.305c0.626-0.572,1.359-1.028,2.056-1.522c1.046-0.742,2.124-1.438,3.148-2.208
			c1.626-1.224,3.245-2.438,5.333-2.768c0.205-0.032,0.406-0.133,0.593-0.232c1.376-0.731,1.715-2.376,0.618-3.504
			c-0.734-0.755-1.572-1.477-2.494-1.972c-2.496-1.342-5.236-1.851-8.044-1.724c-3.22,0.146-6.356,0.968-9.302,2.173
			c-4.141,1.692-8.282,3.464-11.947,6.121c-1.381,1.003-2.881,1.879-4.121,3.033c-4.152,3.865-8.027,8.009-11.395,12.58
			c-3.118,4.234-5.762,8.736-6.846,13.99c-0.172,0.83-0.492,1.633-0.78,2.435C6.865,47.684,6.14,50.46,6.43,52.94
			c-0.001,2.608,0.045,4.724,0.794,6.79c0.354,0.981,0.398,2.086,0.51,3.145c0.531,5.014,1.424,9.926,3.797,14.459
			c0.344,0.656,0.603,1.371,0.801,2.086c1.263,4.574,3.977,8.23,7.248,11.535c0.739,0.746,1.4,1.635,2.74,1.033
			c0.363-0.164,1.037,0.176,1.482,0.432c0.642,0.371,1.244,0.834,1.795,1.332c2.063,1.859,4.115,3.732,6.141,5.633
			c1.209,1.135,2.533,1.922,4.249,1.98c0.737,0.025,1.466,0.266,2.204,0.363c2.762,0.369,5.561,0.748,8.223-0.334
			c1.969-0.799,3.832-1.859,5.721-2.848c0.859-0.451,1.482-1.172,2.082-1.951c1.899-2.471,3.447-5.146,4.79-7.945
			c0.366-0.762,0.61-1.594,0.817-2.418C60.79,82.398,60.349,78.6,59.365,74.848z M24.71,23.384c1.315-1.35,2.643-2.69,4.008-3.99
			c0.155-0.146,0.453-0.143,0.723-0.167c0.025-0.037,0.057-0.068,0.082-0.105c0.041-0.042,0.083-0.084,0.124-0.126
			c0.057-0.201,0.191-0.324,0.383-0.39c0.049-0.05,0.098-0.1,0.147-0.15c0.076-0.023,0.156-0.041,0.229-0.073
			c0.044-0.054,0.088-0.107,0.133-0.162c-0.033,0.053-0.055,0.125-0.102,0.151c-0.009,0.005-0.021,0.005-0.031,0.01
			c-0.046,0.055-0.091,0.11-0.137,0.166c-0.087,0.012-0.166,0.032-0.239,0.057c-0.128,0.13-0.256,0.26-0.383,0.39
			c-0.019,0.064-0.037,0.129-0.037,0.211c-0.053,0.01-0.111,0.015-0.169,0.02c-1.236,1.783-2.938,3.124-4.438,4.656
			c-0.049,0.049-0.155,0.041-0.234,0.059C24.744,23.75,24.627,23.47,24.71,23.384z M53.524,87.979
			c-0.422,0.717-0.916,1.107-1.828,0.791c-0.555-0.193-1.068,0.188-1.363,0.635c-0.584,0.889-1.064,1.846-1.625,2.75
			c-0.157,0.254-0.439,0.436-0.68,0.629c-0.052,0.043-0.191,0.027-0.258-0.016c-0.084-0.055-0.193-0.166-0.189-0.246
			c0.017-0.316,0.045-0.637,0.121-0.941c0.258-1.033,0.579-2.053,0.797-3.094c0.164-0.781-0.333-1.619-0.963-1.816
			c-0.568-0.178-1.215,0.096-1.609,0.756c-0.932,1.562-1.822,3.146-2.756,4.707c-0.27,0.447-0.604,0.867-0.959,1.252
			c-0.106,0.115-0.424,0.15-0.576,0.078c-0.154-0.072-0.351-0.367-0.309-0.488c0.24-0.699,0.517-1.391,0.837-2.059
			c0.787-1.639,1.604-3.262,2.411-4.891c0.391-0.791,0.584-1.607,0.316-2.48c-0.139-0.451-0.48-0.742-0.926-0.729
			c-0.275,0.01-0.637,0.197-0.793,0.42c-0.301,0.434-0.441,0.979-0.734,1.422c-0.289,0.436-0.623,0.896-1.049,1.178
			c-0.536,0.355-0.957-0.234-1.436-0.398c-0.675-0.23-1.312-0.072-1.75,0.453c-0.82,0.982-1.563,2.029-2.346,3.045
			c-0.502,0.648-0.918,0.658-1.582,0.053c-0.938-0.857-0.971-1.02-0.386-2.186c0.622-1.242,1.321-2.453,1.87-3.727
			c0.56-1.299,0.212-2.307-0.882-3.084c-0.462-0.33-1.106-0.316-1.462,0.078c-1.143,1.27-2.261,2.559-3.412,3.818
			c-0.11,0.121-0.385,0.092-0.584,0.133c-0.045-0.268-0.207-0.584-0.117-0.795c0.251-0.586,0.617-1.123,0.914-1.691
			c0.196-0.379,0.402-0.766,0.512-1.174c0.174-0.65,0.074-1.283-0.45-1.768c-0.514-0.473-1.176-0.635-1.786-0.371
			c-0.731,0.317-1.394,0.797-2.082,1.214c0.004,0.046-0.007,0.086,0.002,0.134c-0.06,0.015-0.122,0.024-0.181,0.038
			c-0.063,0.078-0.126,0.157-0.189,0.235c0.025-0.068,0.033-0.17,0.082-0.199c0.032-0.019,0.069-0.027,0.107-0.036
			c0.033-0.041,0.065-0.081,0.098-0.122l0.081-0.05c-0.064-0.637,0.326-1.106,0.63-1.618c0.545-0.918,1.075-1.846,1.565-2.793
			c0.271-0.523,0.083-1.033-0.245-1.494c-0.607-0.854-1.504-0.99-2.16-0.275c-0.648,0.709-1.223,1.484-1.875,2.186
			c-0.817,0.879-1.198,0.746-1.826-0.432c-0.396-0.742-0.41-1.424,0.07-2.092c0.873-1.219,1.8-2.396,2.643-3.633
			c0.477-0.697,0.9-1.449,1.217-2.23c0.202-0.498,0.043-1.068-0.42-1.445c-0.473-0.385-1.029-0.354-1.482-0.029
			c-0.781,0.557-1.518,1.182-2.244,1.809c-0.566,0.488-1.075,1.043-1.641,1.531c-0.325,0.281-0.578,0.033-0.728-0.25
			c-0.311-0.586-0.481-1.193-0.051-1.805c0.737-1.051,1.489-2.092,2.207-3.154c0.478-0.705,0.94-1.424,1.349-2.172
			c0.323-0.592,0.095-1.265-0.474-1.68c-0.542-0.396-1.231-0.375-1.759,0.098c-0.479,0.429-0.892,0.934-1.393,1.329
			c-0.45,0.357-0.918,1.199-1.535,0.605c-0.37-0.355-0.469-1.215-0.363-1.786c0.129-0.705,0.506-1.414,0.938-2.004
			c2.087-2.845,4.226-5.65,6.351-8.467c0.322-0.426,0.698-0.812,1.007-1.247c0.65-0.919,0.712-1.642,0.198-1.997
			c-0.661-0.458-1.229-0.134-1.745,0.271c-1.01,0.789-2.033,1.568-2.982,2.429c-1.107,1.006-2.135,2.101-3.216,3.137
			c-0.126,0.12-0.374,0.112-0.565,0.164c-0.041-0.179-0.175-0.405-0.11-0.528c0.492-0.943,0.929-1.938,1.56-2.783
			c2.553-3.427,4.952-6.992,8.377-9.675c0.723-0.566,0.872-1.564,0.529-2.338c-0.355-0.805-1.461-1.269-2.474-1.021
			c-0.958,0.232-1.798,0.706-2.475,1.416c-0.959,1.004-1.879,2.046-2.812,3.076c-1.005,1.109-1.999,2.229-3.019,3.325
			c-0.092,0.099-0.435,0.138-0.481,0.073c-0.11-0.151-0.213-0.431-0.144-0.572c1.409-2.887,2.854-5.795,4.954-8.219
			c3.29-3.797,6.7-7.506,10.277-11.033c2.58-2.545,5.448-4.817,8.311-7.056c2.198-1.719,4.769-2.84,7.385-3.813
			c0.674-0.251,1.314-0.803,2.091-0.263c-0.448,0.417-0.894,0.84-1.347,1.251c-3.252,2.943-6.421,5.94-9.204,9.375
			c-2.015,2.486-3.392,5.155-4.176,8.197c-0.133,0.516-0.31,1.035-0.339,1.56c-0.266,4.616-0.057,9.145,1.545,13.592
			c1.994,5.537,5.105,10.331,8.99,14.666c2.291,2.557,4.441,5.211,6.242,8.135c2.348,3.814,3.626,7.93,3.613,12.451
			C55.172,84.318,54.567,86.193,53.524,87.979z M113.036,55.181c-0.564-2.609-1.293-5.179-2.737-7.48
			c-0.68-1.082-1.323-2.188-1.943-3.305c-1.724-3.102-3.744-5.967-6.354-8.404c-1.326-1.239-2.561-2.578-3.806-3.901
			c-1.464-1.555-2.822-3.216-4.362-4.688c-1.07-1.022-2.335-1.856-3.574-2.682c-1.588-1.057-3.393-1.396-5.221-0.905
			c-1.801,0.482-3.605,0.34-5.414,0.363c-0.214,0-0.43,0.017-0.642-0.002c-3.837-0.35-7.146,0.872-10.06,3.327
			c-0.734,0.618-1.52,1.189-2.339,1.689c-1.247,0.76-2.152,1.865-2.638,3.148c-1.484,3.926-2.553,7.928-0.935,12.116
			c0.191,0.496,0.345,1.015,0.44,1.536c0.372,2.039,1.225,3.859,2.438,5.523c0.575,0.79,0.968,1.633,1.037,2.643
			c0.045,0.628,0.314,1.238,0.461,1.86c0.627,2.661,1.953,4.876,3.818,6.908c2.016,2.193,3.846,4.59,5.511,7.064
			c1.116,1.658,2.042,3.5,2.427,5.537c0.096,0.512,0.381,0.986,0.58,1.477c0.477,1.182,1.001,2.348,1.424,3.547
			c0.947,2.688,0.604,5.258-0.836,7.693c-0.652,1.104-1.34,2.186-1.99,3.289c-0.541,0.922-1.089,1.84-1.564,2.795
			c-0.362,0.727-0.394,1.432,0.498,1.891c0.443,0.227,0.57,0.633,0.23,1.045c-0.676,0.824-1.308,1.709-2.094,2.418
			c-2.379,2.15-4.736,4.34-7.269,6.299c-2.096,1.623-4.214,3.303-6.86,4.047c-0.385,0.109-0.734,0.436-1.037,0.727
			c-0.773,0.748-0.645,2.311,0.258,2.803c2.287,1.242,4.711,2.125,7.346,1.764c2.424-0.334,4.83-0.844,7.217-1.396
			c1.973-0.459,3.896-1.113,5.852-1.648c3.949-1.078,7.719-2.514,10.844-5.283c0.316-0.281,0.719-0.463,1.057-0.723
			c3.4-2.607,6.752-5.283,9.2-8.861c1.626-2.377,3.104-4.857,4.646-7.291c3.379-5.336,5.321-11.141,5.815-17.443
			c0.176-2.232,0.414-4.467,0.781-6.676C113.845,62.371,113.811,58.763,113.036,55.181z M77.313,108.389
			c-2.158,0.673-4.163,1.896-6.509,1.91c-0.027,0.031-0.059,0.057-0.085,0.088c-0.05,0.024-0.099,0.047-0.147,0.071
			c-0.042,0.103-0.084,0.206-0.127,0.31c-0.067-0.051-0.136-0.1-0.204-0.15c0.11-0.053,0.221-0.106,0.331-0.159
			c0.021-0.051,0.041-0.102,0.062-0.151c0.058,0.001,0.113-0.008,0.171-0.008c1.575-1.818,3.598-3.146,5.323-4.801
			c0.377-0.361,0.877-0.229,1.006,0.219c0.178,0.615,0.381,1.229,0.473,1.855C77.646,107.836,77.487,108.334,77.313,108.389z
			 M83.986,106.229c-0.259,0.176-0.526,0.346-0.808,0.482c-0.473,0.229-0.988,0.516-1.446,0.027
			c-0.628-0.672-0.728-1.656-0.259-2.322c0.094-0.133,0.418-0.268,0.509-0.209c0.699,0.463,1.37,0.971,2.039,1.477
			c0.064,0.049,0.058,0.191,0.083,0.291C84.066,106.062,84.052,106.186,83.986,106.229z M89.757,102.318
			c-0.109,0.139-0.41,0.303-0.514,0.244c-0.953-0.525-2.014-0.49-3.036-0.67c-0.253-0.043-0.493-0.359-0.659-0.604
			c-0.1-0.148-0.108-0.426-0.039-0.596c0.059-0.143,0.293-0.305,0.443-0.299c0.309,0.012,0.615,0.127,0.949,0.205
			c0.295-0.031,0.607-0.07,0.921-0.1c1.204-0.109,1.663,0.158,2.05,1.254C89.929,101.916,89.865,102.182,89.757,102.318z
			 M85.657,96.512l0.228,0.02l-0.131,0.207L85.657,96.512z M107.322,76.5c-0.208,1.152-0.366,2.338-0.759,3.432
			c-2.88,8.002-7.385,14.896-14.024,20.309c-0.079,0.064-0.187,0.096-0.28,0.143c-0.066-0.191-0.222-0.402-0.183-0.566
			c0.098-0.412,0.246-0.824,0.445-1.197s0.474-0.709,0.735-1.047c0.508-0.65,0.617-1.342,0.257-2.094
			c-0.093-0.193-0.202-0.379-0.27-0.58c-0.431-1.275-0.026-2.262,0.976-3.119c1.543-1.322,3.039-2.697,4.54-4.064
			c0.553-0.504,1.104-1.021,1.583-1.59c0.478-0.568,0.904-1.188,1.282-1.826c0.323-0.545,0.692-1.227,0.153-1.756
			c-0.324-0.318-0.947-0.408-1.449-0.455c-0.876-0.082-1.684,0.207-2.418,0.699c-0.798,0.537-1.598,1.07-2.412,1.58
			c-0.154,0.096-0.381,0.076-0.572,0.109c-0.022-0.176-0.117-0.385-0.057-0.523c0.519-1.172,1.053-2.338,1.608-3.492
			c0.425-0.885,0.665-1.801,0.619-2.787c-0.026-0.562-0.173-1.143-0.745-1.271c-0.473-0.105-1.076-0.047-1.504,0.17
			c-0.443,0.229-0.799,0.695-1.101,1.125c-1.042,1.484-2.044,2.998-3.06,4.5c0.043,0.031,0.088,0.061,0.132,0.09
			c-1.149,1.672-2.294,3.348-3.459,5.008c-0.075,0.107-0.302,0.105-0.459,0.154c-0.05-0.199-0.204-0.455-0.133-0.59
			c0.447-0.846,0.944-1.664,1.424-2.492c0.857-1.477,1.75-2.934,2.552-4.441c0.291-0.547,0.421-1.201,0.523-1.822
			c0.092-0.555-0.146-1.062-0.63-1.379c-0.507-0.33-1.021-0.232-1.468,0.148c-0.406,0.344-0.775,0.734-1.195,1.061
			c-0.1,0.078-0.408,0.047-0.492-0.049c-0.121-0.139-0.216-0.408-0.163-0.572c0.194-0.605,0.414-1.209,0.694-1.779
			c0.988-2.014,2.033-4.002,3-6.025c0.459-0.961,0.812-1.973,1.178-2.975c0.252-0.689-0.092-1.246-0.518-1.748
			c-0.545-0.645-1.457-0.664-1.943-0.025c-0.322,0.422-0.59,0.887-0.881,1.334c-0.869,1.346-1.734,2.693-2.611,4.033
			c-0.252,0.383-0.734,0.289-0.986-0.115c-0.486-0.781-0.617-1.58-0.244-2.438c0.723-1.664,1.471-3.32,2.168-4.996
			c0.492-1.182,0.968-2.375,1.357-3.594c0.27-0.845,0.102-1.673-0.434-2.434c-0.625-0.889-1.988-0.932-2.338,0.061
			c-0.719,2.044-2.096,3.715-3.006,5.643c-0.075,0.16-0.372,0.369-0.486,0.328c-0.264-0.092-0.545-0.279-0.699-0.51
			c-0.499-0.736-0.622-1.496-0.368-2.42c1.356-4.938,2.501-9.938,4.681-14.612c0.27-0.579,0.478-1.195,0.632-1.814
			c0.143-0.567-0.126-1.038-0.594-1.372c-0.543-0.387-1.38-0.387-1.759,0.117c-0.961,1.276-1.908,2.57-2.751,3.925
			c-0.618,0.993-1.054,2.099-1.591,3.144c-0.139,0.27-0.361,0.494-0.546,0.738c-0.068-0.408-0.231-0.828-0.183-1.222
			c0.078-0.629,0.309-1.239,0.459-1.86c0.811-3.322,1.629-6.642,3.534-9.559c0.058-0.088,0.14-0.207,0.12-0.291
			c-0.09-0.39-0.121-0.838-0.346-1.139c-0.279-0.375-0.74-0.35-1.128-0.051c-1.197,0.918-2.272,1.947-2.96,3.322
			c-0.766,1.529-1.523,3.061-2.303,4.581c-0.086,0.168-0.289,0.275-0.439,0.41c-0.084-0.191-0.238-0.383-0.242-0.575
			c-0.053-3.455,0.459-6.801,2.038-9.917c0.208-0.412,0.294-0.73,0.054-1.172c-0.766-1.403-0.725-1.572,0.34-2.146
			c2.207-1.189,4.525-1.211,6.797-0.36c1.895,0.71,3.678,1.716,5.541,2.519c1.218,0.524,2.203,1.307,3.018,2.32
			c0.803,0.999,1.682,1.961,2.326,3.058c1.889,3.222,4.026,6.306,5.457,9.784c0.325,0.789,0.686,1.58,1.156,2.284
			c0.344,0.513,0.838,1.16,1.363,1.27c1.444,0.3,1.518,1.276,1.533,2.396c0.014,1.068,0.086,2.138,0.076,3.207
			c-0.018,1.938,0.174,3.826,0.979,5.624c0.553,1.238,0.324,2.561,0.057,3.783c-0.478,2.18-0.943,4.373-2.006,6.395
			c-0.863,1.645-0.066,2.857,1.828,3.027C107.279,75.545,107.467,75.705,107.322,76.5z"/>
	</g>
</g>
</svg>
