<?xml version="1.0" encoding="utf-8"?>
<!-- Generator: Adobe Illustrator 16.0.0, SVG Export Plug-In . SVG Version: 6.00 Build 0)  -->
<!DOCTYPE svg PUBLIC "-//W3C//DTD SVG 1.1//EN" "http://www.w3.org/Graphics/SVG/1.1/DTD/svg11.dtd">
<svg version="1.1" id="Layer_1" xmlns="http://www.w3.org/2000/svg" xmlns:xlink="http://www.w3.org/1999/xlink" x="0px" y="0px"
	 width="120px" height="120px" viewBox="0 0 120 120" style="enable-background:new 0 0 120 120;" xml:space="preserve">
<g id="wordpress">
	<g>
		<path style="fill-rule:evenodd;clip-rule:evenodd;" d="M116.378,53.987c-0.094-1.598-0.379-3.19-0.366-4.783
			c0.025-3.053-0.665-5.93-1.809-8.723c-1.097-2.682-2.485-5.205-4.12-7.6c-0.598-0.877-1.229-1.783-1.568-2.771
			c-1.258-3.663-3.494-6.588-6.494-8.957c-2.014-1.588-4.081-3.107-6.113-4.673c-0.758-0.583-1.617-1.103-2.194-1.837
			c-1.372-1.747-3.171-2.949-5.121-3.768c-5.397-2.264-10.63-5.066-16.604-5.646c-3.735-1.133-7.575-1.259-9.912-1.195
			c-4.729,0.054-8.03-0.273-11.054,0.895c-3.035,1.174-6.264,1.223-9.312,2.158c-0.51,0.156-1.008,0.357-1.5,0.564
			c-2.461,1.035-4.975,1.963-7.363,3.143c-6.674,3.298-12.662,7.556-17.69,13.09c-2.314,2.547-4.421,5.277-5.644,8.51
			c-1.396,3.693-2.642,7.453-3.754,11.242c-1.479,5.039-2.32,10.188-2.234,15.478c0.064,4.063-0.076,8.129-0.094,12.194
			c-0.004,1.174-0.053,2.383,0.189,3.518c1.024,4.84,2.555,9.484,5.567,13.52c0.893,1.197,1.737,2.438,2.511,3.715
			c3.763,6.205,8.618,11.41,14.312,15.875c0.863,0.678,1.752,1.268,2.812,1.455c1.185,0.211,2.202,0.783,3.293,1.211
			c1.883,0.742,3.766,1.59,5.732,1.996c4.178,0.857,8.418,1.404,12.613,2.184c4.854,0.902,9.728,1.32,14.665,1.17
			c1.944-0.059,3.846-0.33,5.684-0.871c1.86-0.549,3.71-0.959,5.653-0.992c2.014-0.035,3.715-0.867,5.195-2.195
			c0.477-0.428,0.908-0.943,1.455-1.246c3.486-1.918,6.598-4.365,9.67-6.852c3.488-2.824,6.906-5.738,10.271-8.711
			c2.581-2.277,4.82-4.922,6.367-7.992c1.873-3.715,3.416-7.596,4.633-11.588c0.998-3.273,1.711-6.605,2.191-9.998
			C116.793,61.662,116.601,57.827,116.378,53.987z M21.884,32.381c0.428-0.611,0.824-1.248,1.307-1.812
			c3.561-4.164,7.545-7.877,11.914-11.18c2.241-1.695,4.709-2.928,7.428-3.666c1.234-0.336,2.451-0.739,3.672-1.121
			c2.562-0.799,5.176-1.311,7.867-1.365c2.459-0.05,4.91-0.14,7.342-0.619c1.143-0.227,2.342-0.166,3.516-0.234
			c3.396-0.139,6.529,1.004,9.697,1.953c5.305,1.59,9.997,4.289,14.175,7.902c0.778,0.673,0.78,0.871,0.013,1.368
			c-0.987,0.638-1.986,1.26-2.996,1.858c-1.702,1.01-2.951,2.385-3.867,4.162c-1.4,2.718-2.245,5.502-2.096,8.607
			c0.106,2.186,0.882,3.979,2.545,5.318c1.575,1.271,2.969,2.789,4.828,3.699c0.549,0.268,0.7,0.803,0.547,1.361
			c-0.453,1.646-0.918,3.289-1.424,4.92c-1.458,4.691-2.938,9.376-4.416,14.062c-0.061,0.191-0.191,0.363-0.29,0.543
			c-0.241-0.193-0.548-0.346-0.709-0.594c-0.229-0.352-0.366-0.77-0.519-1.17c-1.231-3.188-2.48-6.371-3.678-9.574
			c-1.158-3.102-2.25-6.229-3.4-9.334c-0.371-1-0.808-1.981-1.271-2.945c-0.558-1.16-0.569-2.262,0.195-3.326
			c1.06-1.477,2.099-2.967,3.196-4.414c1.099-1.449,2.262-2.848,3.389-4.273c0.332-0.42,0.682-0.832,0.951-1.291
			c0.699-1.186,0.895-2.404,0.015-3.596c-0.83-1.121-1.985-1.65-3.354-1.49c-1.373,0.162-2.722,0.518-4.092,0.712
			c-1.374,0.194-2.761,0.3-4.143,0.435c-4.678,0.461-9.361,0.867-14.031,1.395c-2.33,0.262-4.635,0.75-6.954,1.119
			c-1.024,0.162-1.884,0.652-2.265,1.584c-0.383,0.934-1.035,1.6-1.657,2.324c-0.204,0.24-0.36,0.529-0.5,0.814
			c-0.618,1.266-0.421,2.609,0.737,3.439c1.119,0.802,2.383,1.412,3.614,2.045c0.757,0.39,1.587,0.635,2.357,0.998
			c0.8,0.377,1.343,0.977,1.665,1.848c1.373,3.707,2.793,7.395,4.209,11.085c0.21,0.546,0.102,1.021-0.115,1.534
			c-1.158,2.758-2.114,5.619-3.486,8.265c-1.865,3.6-3.726,7.197-5.36,10.91c-0.081,0.186-0.244,0.369-0.417,0.469
			c-0.129,0.072-0.447,0.072-0.491-0.006c-0.265-0.459-0.507-0.939-0.697-1.436c-3.031-7.881-6.116-15.74-9.774-23.357
			c-0.702-1.463-0.859-2.768-0.08-4.258c0.689-1.318,1.193-2.746,1.678-4.16c0.73-2.133,1.551-4.189,3.093-5.906
			c0.798-0.889,1.267-1.963,1.169-3.232c-0.102-1.334-0.895-2.387-2.178-2.302c-2.115,0.142-4.238-0.196-6.361,0.396
			c-3.282,0.914-6.627,1.611-10.018,2.033c-0.18,0.022-0.384-0.121-0.564-0.21C21.781,32.661,21.825,32.461,21.884,32.381z
			 M32.625,99.734c-0.082,0.043-0.226,0.061-0.298,0.016c-3.015-1.867-5.799-4.008-8.071-6.764
			c-2.617-3.172-4.509-6.754-5.861-10.613c-1.664-4.748-3.03-9.572-3.38-14.629c-0.162-2.346-0.352-4.688-0.535-7.031
			c-0.149-1.916-0.309-3.832-0.51-6.324c0.116-0.379,0.383-1.285,0.676-2.184c0.099-0.303,0.299-0.312,0.482-0.051
			c0.182,0.261,0.404,0.51,0.515,0.799c4.212,11.087,8.404,22.183,12.621,33.269c1.101,2.895,2.235,5.779,3.428,8.639
			c0.623,1.496,0.795,3.082,1.134,4.637C32.839,99.562,32.712,99.689,32.625,99.734z M73.776,104.82
			c-2.72,0.932-5.444,1.85-8.193,2.691c-0.693,0.211-1.481,0.145-2.227,0.154c-1.709,0.02-3.416,0.006-5.125,0.006v-0.182
			c-2.027,0-4.056,0.014-6.083-0.008c-0.687-0.006-0.87-0.404-0.502-1.07c1.241-2.236,2.574-4.428,3.736-6.707
			c2.761-5.414,5.442-10.869,8.162-16.305c0.476-0.949,0.973-1.891,1.495-2.814c0.084-0.146,0.354-0.199,0.55-0.26
			c0.032-0.01,0.144,0.152,0.18,0.248c0.188,0.498,0.376,0.996,0.541,1.504c2.356,7.195,4.974,14.291,8.004,21.232
			C74.653,104.086,74.519,104.564,73.776,104.82z M92.276,76.314c-0.04,0.209-0.047,0.434-0.126,0.627
			c-2.22,5.461-3.066,11.33-5.032,16.869c-0.426,1.201-0.619,2.496-1.633,3.416c-0.15,0.135-0.316,0.369-0.307,0.547
			c0.131,2.152-1.379,2.623-3.01,3.031c-1.195,0.299-1.223,0.338-1.698-0.725c-0.214-0.479-0.317-1.008-0.47-1.514l0.1,0.092
			c-0.002-0.029-0.003-0.059-0.005-0.088c-0.016,0-0.031-0.001-0.047-0.002c-0.396-0.699-0.808-1.392-1.18-2.107
			c-0.405-0.779-0.489-1.566-0.269-2.467c0.326-1.346,0.494-2.732,0.671-4.107c0.095-0.74,0.087-1.496,0.087-2.244
			c-0.001-0.875-0.568-1.35-1.303-1.643c-0.747-0.295-1.207,0.152-1.59,0.709c-0.12,0.176-0.199,0.379-0.323,0.551
			c-0.058,0.078-0.225,0.178-0.266,0.152c-0.141-0.094-0.353-0.238-0.353-0.361c0.012-1.066,0.028-2.135,0.113-3.197
			c0.125-1.568-0.305-2.748-1.984-3.172c-0.486-0.121-0.701-0.5-0.677-0.949c0.064-1.17,0.181-2.338,0.282-3.506
			c0.121-1.383,0.276-2.762,0.358-4.146c0.024-0.406-0.122-0.832-0.243-1.232c-0.137-0.455-1.065-0.658-1.361-0.295
			c-0.533,0.654-1.018,1.352-1.555,2.004c-0.056,0.066-0.467-0.016-0.48-0.076c-0.111-0.518-0.239-1.047-0.229-1.57
			c0.031-1.518-0.373-2.961-0.612-4.436c-0.239-1.461-1.032-2.225-2.399-2.654c-0.529-0.166-0.732-0.098-0.944,0.334
			c-0.841,1.73-1.847,3.398-2.498,5.197c-1.251,3.457-3.188,6.525-5.11,9.605c-3.002,4.811-5.819,9.721-8.459,14.742
			c-2.039,3.873-4.295,7.633-6.484,11.426c-0.119,0.205-0.521,0.297-0.805,0.33c-0.101,0.014-0.301-0.287-0.352-0.475
			c-0.197-0.719-0.23-1.508-0.543-2.168c-1.113-2.35-1.193-4.689-0.241-7.102c0.149-0.379,0.14-0.846,0.111-1.266
			c-0.045-0.674-0.338-1.424-0.978-1.518c-1.51-0.225-1.436-1.191-1.478-2.32c-0.062-1.637-0.308-1.863-2.054-2.297
			c-0.58-0.145-0.979-0.355-1.148-0.932c-0.271-0.914-0.623-1.775-0.221-2.799c0.264-0.668,0.21-1.477,0.217-2.223
			c0.014-1.797-0.324-2.211-2.242-2.924c-0.77-0.285-1.041-0.703-0.846-1.434c0.693-2.578,1.395-5.152,2.115-7.725
			c0.236-0.844-0.137-1.447-0.68-2.004c-0.496-0.512-1.312-0.504-1.684,0.053c-0.473,0.709-0.839,1.492-1.35,2.168
			c-0.258,0.342-0.387,1.219-1.076,0.742c-0.367-0.254-0.623-0.898-0.641-1.377c-0.027-0.729,0.217-1.465,0.307-2.203
			c0.154-1.27,0.32-2.543,0.393-3.818c0.021-0.389-0.213-0.812-0.397-1.186c-0.21-0.422-1.03-0.588-1.407-0.305
			c-0.253,0.189-0.466,0.434-0.707,0.643c-0.193,0.166-0.402,0.312-0.605,0.469c-0.045-0.207-0.154-0.422-0.127-0.617
			c0.284-2.006,0.591-4.009,0.888-6.014c0.062-0.42,0.159-0.845,0.146-1.265c-0.045-1.318-1.004-2.135-2.354-2.02
			c-0.316,0.025-0.636,0.109-0.932,0.225c-0.439,0.17-0.746,0.244-0.961-0.344c-0.174-0.481-0.444-1.164-0.826-1.289
			c-1.41-0.465-1.953-1.604-2.439-2.784c-0.492-1.196-1.339-1.886-2.555-2.212c-0.718-0.191-1.437-0.393-2.133-0.652
			c-0.789-0.293-1.729-0.48-2.281-1.033c-0.629-0.631-1.988-0.529-1.932-1.842c0.795-0.256,1.581-0.542,2.386-0.763
			c1.541-0.425,3.122-0.725,4.633-1.231c3.44-1.154,7.042-1.789,10.374-3.294c0.668-0.302,1.445-0.372,2.182-0.509
			c0.172-0.031,0.441,0.057,0.548,0.188c0.102,0.125,0.129,0.416,0.052,0.564c-0.785,1.518-1.578,3.031-2.413,4.521
			c-0.417,0.746-0.942,1.428-1.388,2.16c-0.605,0.994-0.727,2.121-0.038,3.029c1.199,1.586,1.673,3.449,2.354,5.238
			c2.096,5.489,4.187,10.98,6.254,16.48c2.144,5.701,4.256,11.412,6.385,17.117c0.299,0.801,0.587,1.609,0.943,2.383
			c0.122,0.264,0.428,0.459,0.688,0.623c0.043,0.027,0.331-0.242,0.434-0.418c0.433-0.738,0.835-1.492,1.252-2.238
			c2.292-4.107,4.553-8.232,6.891-12.314c1.009-1.76,2.176-3.43,3.271-5.139c1.16-1.807,2.106-3.707,2.805-5.748
			c0.828-2.426,1.768-4.81,2.67-7.208c0.111-0.295,0.246-0.611,0.458-0.834c1.308-1.38,1.132-2.867,0.446-4.456
			c-0.548-1.274-1.016-2.585-1.488-3.89c-0.885-2.438-2.065-4.691-3.881-6.582c-0.363-0.378-0.848-0.828-0.896-1.285
			c-0.177-1.686-1.438-1.955-2.69-2.271c-1.243-0.313-2.51-0.544-3.737-0.906c-0.594-0.176-1.138-0.545-1.67-0.883
			c-0.121-0.076-0.124-0.375-0.133-0.574c-0.002-0.061,0.153-0.135,0.244-0.191c0.088-0.055,0.182-0.131,0.277-0.141
			c2.871-0.23,5.74-0.527,8.616-0.66c3.092-0.143,6.206,0.125,9.268-0.57c0.513-0.115,1.069-0.092,1.601-0.058
			c0.28,0.019,0.565,0.175,0.81,0.329c0.04,0.025-0.081,0.41-0.205,0.566c-1.351,1.689-2.13,3.695-3.138,5.575
			c-0.33,0.614-0.395,1.221-0.248,1.853c0.312,1.352,0.678,2.691,1.011,4.038c2.083,8.421,5.167,16.499,8.413,24.52
			c1.363,3.367,2.701,6.746,4.045,10.121c0.631,1.584,1.16,3.164,1.331,4.912c0.118,1.205,0.923,2.344,1.447,3.5
			c0.012,0.027,0.423-0.031,0.478-0.137c0.289-0.564,0.557-1.145,0.771-1.74c1.818-5.02,3.631-10.043,5.43-15.07
			c0.576-1.605,1.129-3.221,1.646-4.846c0.193-0.605,0.369-1.252,0.367-1.879c-0.008-3.016,0.824-5.917,1.121-8.886
			c0.298-2.979,0.617-5.949,1.168-8.893c0.02-0.105,0.088-0.207,0.082-0.309c-0.121-2.123-0.231-4.246-0.398-6.365
			c-0.02-0.262-0.291-0.619-0.535-0.725c-0.939-0.406-1.477-1.211-2.098-1.939c-0.34-0.398-0.254-0.549,0.382-0.797
			c0.489-0.189,1.062-0.304,1.422-0.64c0.353-0.329,0.722-0.931,0.66-1.351c-0.11-0.765-0.106-1.375,0.267-2.107
			c0.793-1.555,0.578-2.268-0.738-3.305c-0.244-0.193-0.635-0.221-0.836-0.439c-0.154-0.166-0.248-0.658-0.143-0.754
			c1.909-1.703,4.049-2.284,6.482-1.195c0.293,0.131,0.572,0.307,0.876,0.398c2.468,0.75,3.739,2.723,4.911,4.79
			c0.518,0.915,0.434,1.829-0.111,2.735c-0.658,1.094-1.2,2.264-1.922,3.311c-0.661,0.959-1.416,1.883-2.273,2.664
			c-0.938,0.855-1.34,1.764-1.399,3.061c-0.213,4.689-0.515,9.371-2.056,13.887c-0.512,1.496-0.771,3.125-0.864,4.708
			C94.019,67.734,93.108,72.016,92.276,76.314z M104.674,72.189c-0.45,0.723-0.868,1.479-1.2,2.262
			c-1.973,4.645-4.546,8.953-7.312,13.154c-0.525,0.797-1.184,1.506-1.809,2.232c-0.102,0.119-0.347,0.115-0.525,0.168
			c-0.031-0.201-0.133-0.42-0.084-0.6c0.811-2.988,1.678-5.961,2.457-8.955c2.037-7.85,4.414-15.619,5.966-23.583
			c0.739-3.799,2.103-7.389,3.2-11.066c0.334-1.12,0.738-2.219,1.121-3.324c0.029-0.088,0.141-0.146,0.215-0.22
			c0.074,0.077,0.18,0.142,0.218,0.233c0.202,0.491,0.47,0.975,0.563,1.489c0.79,4.31,1.526,8.626,1.397,13.401
			C109.31,62.58,107.566,67.541,104.674,72.189z M82.542,97.723c0.602-0.803,0.896-1.652,0.777-2.641
			c-0.094-0.777-0.481-1.359-1.145-1.789c-0.716-0.461-1.824-0.125-2.089,0.682c-0.097,0.295-0.188,0.613-0.177,0.916
			c0.041,1.229,0.12,2.453,0.187,3.68C81.017,98.615,81.89,98.593,82.542,97.723z"/>
	</g>
</g>
</svg>
