<?xml version="1.0" encoding="utf-8"?>
<!-- Generator: Adobe Illustrator 16.0.0, SVG Export Plug-In . SVG Version: 6.00 Build 0)  -->
<!DOCTYPE svg PUBLIC "-//W3C//DTD SVG 1.1//EN" "http://www.w3.org/Graphics/SVG/1.1/DTD/svg11.dtd">
<svg version="1.1" id="Layer_1" xmlns="http://www.w3.org/2000/svg" xmlns:xlink="http://www.w3.org/1999/xlink" x="0px" y="0px"
	 width="120px" height="120px" viewBox="0 0 120 120" style="enable-background:new 0 0 120 120;" xml:space="preserve">
<g id="drupal">
	<g>
		<path style="fill-rule:evenodd;clip-rule:evenodd;" d="M105.525,62.258c-0.787-6.26-2.342-12.385-5.562-17.98
			c-1.364-2.373-2.99-4.508-4.624-6.666c-3.461-4.569-7.675-8.246-12.768-10.905c-4.109-2.147-8.037-4.598-11.844-7.237
			c-3.939-2.731-7.212-6.11-9.503-10.377c-0.261-0.484-0.57-1.085-1.016-1.297c-1.335-0.638-2.433-1.588-3.637-2.401
			c-1.422-0.959-3.356-0.072-3.695,1.599c-0.089,0.438-0.095,0.899-0.079,1.349c0.031,0.902,0.127,1.803,0.154,2.707
			c0.076,2.376,0.188,4.753-1.164,6.9c-0.227,0.363-0.306,0.852-0.346,1.293c-0.129,1.434-0.895,2.502-1.829,3.53
			c-3.296,3.621-7.224,6.465-11.22,9.234c-1.67,1.159-3.324,2.339-5.001,3.484c-1.698,1.161-3.119,2.589-4.353,4.229
			c-1.494,1.984-2.988,3.969-4.559,5.892c-4.096,5.015-6.606,10.715-7.667,17.096c-0.295,1.774-0.631,3.594-1.313,5.24
			c-1.628,3.926-1.488,8.013-1.019,12.013c0.51,4.346,1.513,8.642,3.959,12.462c0.849,1.327,1.452,2.707,2.85,3.659
			c0.992,0.676,1.67,1.816,2.479,2.757c4.028,4.675,8.57,8.747,14.377,11.026c3.766,1.479,7.709,2.511,11.572,3.74
			c0.106,0.033,0.227,0.022,0.334,0.054c2.304,0.662,4.678,0.699,7.047,0.811c0.639,0.028,1.38-0.163,1.844,0.53h6.783
			c0.385-0.18,0.753-0.447,1.155-0.518c1.329-0.235,2.68-0.355,4.006-0.601c2.903-0.54,5.607-1.671,8.318-2.81
			c4.781-2.01,8.753-5.127,12.204-8.902c1.512-1.654,2.565-3.721,4.023-5.434c2.144-2.512,3.796-5.322,5.464-8.145
			c0.995-1.682,1.683-3.484,1.934-5.378c0.193-1.479,0.568-2.874,1.062-4.247C105.849,73.53,106.231,67.867,105.525,62.258z
			 M92.881,76.549c-0.347,0.332-0.584,0.029-0.615-0.287c-0.103-1.07-1.099-1.285-1.689-1.89c-0.184-0.188-0.219-0.614-0.171-0.907
			c0.05-0.302,0.28-0.576,0.382-0.768c0.633,0.247,0.959,0.317,1.228,0.488c0.92,0.586,1.161,1.566,1.316,2.542
			C93.371,75.975,93.102,76.334,92.881,76.549z M94.486,67.882c-1.133-0.509-2.243-1.062-3.368-1.589
			c-2.186-1.019-4.403-1.33-6.877-1.15c-4.21,0.303-7.507,2.181-10.543,4.852c-1.44,1.268-2.935,2.477-4.435,3.672
			c-2.521,2.016-5.172,1.928-7.884,0.402c-1.673-0.94-3.388-1.811-5.011-2.832c-3.189-2.008-6.617-2.04-10.136-1.348
			c-2.771,0.547-5.525,1.152-7.872,2.903c-0.523,0.392-1.236,0.534-1.863,0.784c-3.366,1.341-4.919,3.703-4.796,7.325
			c0.054,1.58,0.032,3.171,0.225,4.736c0.15,1.214,0.334,2.536,0.927,3.563c3.129,5.438,7.6,8.854,14.16,8.907
			c1.383,0.011,2.684-0.212,3.932-0.837c3.129-1.562,6.303-3.039,8.974-5.381c2.772-2.43,6.132-3.251,9.715-3.327
			c2.025-0.044,4.06-0.139,6.018,0.657c1.363,0.554,2.741,1.049,3.911,1.975c0.353,0.281,0.747,0.51,1.102,0.788
			c3.129,2.435,6.583,2.696,10.258,1.57c0.364-0.113,0.755-0.137,1.14-0.183c0.026-0.036,0.055-0.07,0.081-0.106
			c0.072-0.03,0.146-0.059,0.215-0.098c0.042-0.062,0.085-0.125,0.127-0.187c-0.025,0.057-0.037,0.136-0.082,0.166
			c-0.014,0.01-0.031,0.013-0.045,0.021l-0.126,0.185c-0.056,0.008-0.113,0.013-0.17,0.02c-5.006,6.785-11.428,11.374-18.572,13.018
			c-1.203,0.277-2.457,0.543-3.534,1.108c-1.823,0.953-3.775,1.081-5.601,0.646c-3.021-0.722-6.047-0.66-9.087-0.705
			c-2.259-0.035-4.521,0.019-6.746-0.452c-1.208-0.256-2.443-0.45-3.603-0.853c-3.976-1.384-7.543-3.548-10.977-5.947
			c-0.499-0.351-0.782-0.775-0.736-1.408c0.039-0.56,0.08-1.127,0.029-1.682c-0.064-0.703-0.774-1.111-1.505-0.924
			c-0.105,0.028-0.211,0.08-0.299,0.145c-0.489,0.356-0.986,0.555-1.485,0.039c-0.48-0.5-0.903-1.051-0.656-1.795
			c0.215-0.643,0.541-1.246,0.743-1.891c0.167-0.529,0.301-1.091,0.312-1.644c0.026-1.384-1.325-2.271-2.589-1.725
			c-0.301,0.132-0.535,0.411-0.826,0.569c-0.336,0.186-0.66,0.792-1.08,0.188c-0.17-0.245-0.219-0.649-0.165-0.953
			c0.079-0.434,0.327-0.833,0.464-1.258c0.656-2.043,0.184-2.854-1.938-3.342c-0.22-0.05-0.452-0.039-0.667-0.104
			c-0.351-0.104-0.617-0.807-0.434-1.155c0.207-0.396,0.415-0.796,0.682-1.153c0.47-0.635,1.024-1.209,1.471-1.856
			c0.641-0.935,0.501-1.86-0.335-2.737c-0.985-1.036-0.985-1.034-0.146-1.908c0.86-0.896,1.712-1.804,2.514-2.75
			c0.381-0.448,0.456-1.016,0.188-1.587c-0.221-0.472-0.425-0.953-0.636-1.434c0.416-0.167,0.855-0.291,1.242-0.507
			c0.877-0.494,1.801-0.941,2.57-1.572c0.88-0.721,0.565-2.051-0.549-2.433c-0.61-0.21-1.33-0.332-1.953-0.221
			c-0.99,0.18-1.938,0.595-2.909,0.892c-0.614,0.188-1.062-0.269-0.913-0.96c0.142-0.657,0.358-1.302,0.523-1.953
			c0.208-0.833,0.739-1.362,1.502-1.715c1.534-0.714,3.059-1.452,4.588-2.18c1.233-0.586,2.391-1.273,3.229-2.397
			c0.406-0.546,0.186-1.392-0.426-1.73c-0.938-0.516-1.955-0.557-2.966-0.487c-0.894,0.063-1.774,0.289-2.665,0.392
			c-0.088,0.01-0.235-0.332-0.32-0.524c-0.037-0.091-0.024-0.239,0.024-0.326c1.24-2.164,2.503-4.281,5.076-5.182
			c0.824-0.289,1.553-0.887,2.277-1.411c0.507-0.365,0.453-0.931-0.087-1.416c-0.246-0.221-0.794-0.379-0.789-0.553
			c0.014-0.386,0.236-0.8,0.467-1.139c0.536-0.792,1.299-1.24,2.275-1.263c1.131-0.024,2.261-0.035,3.39-0.072
			c0.788-0.024,1.599,0.015,2.357-0.157c0.755-0.169,1.593-0.462,1.832-1.324c0.252-0.906-0.401-1.458-1.04-1.945
			c-0.355-0.272-0.765-0.477-1.107-0.766c-0.078-0.066,0-0.357,0.052-0.53c0.028-0.093,0.15-0.163,0.242-0.229
			c2.978-2.144,1.848-2.257,5.788-1.529c0.953,0.175,1.783,0.002,2.65-0.231c0.576-0.157,1.129-0.46,1.217-1.048
			c0.105-0.718-0.323-1.291-0.946-1.652c-0.487-0.283-1.017-0.491-1.513-0.757c-0.499-0.269-0.586-0.667-0.236-1.089
			c0.575-0.695,1.288-1.304,1.736-2.071c0.832-1.423,1.897-1.76,3.412-1.209c0.977,0.355,1.982,0.336,2.945-0.208
			c1.033-0.585,1.273-1.768,0.405-2.506c-0.503-0.431-1.11-0.745-1.694-1.073c-1.043-0.583-1.134-0.825-0.747-1.817
			c0.399-1.025,0.919-1.792,2.21-1.603c0.299,0.045,0.648-0.146,0.951-0.28c0.436-0.194,0.673-1.081,0.393-1.483
			c-0.258-0.367-0.506-0.778-0.856-1.027c-1.029-0.736-0.932-1.702-0.681-2.729c0.112-0.468,0.701-0.654,1.033-0.312
			c1.021,1.054,2.17,2.02,3.014,3.202c1.945,2.728,4.578,4.675,7.194,6.633c2.801,2.098,5.689,4.081,8.563,6.08
			c3.494,2.43,6.306,5.432,8.251,9.256c0.817,1.603,1.832,3.113,2.864,4.592c2.357,3.375,4.047,7.02,4.891,11.065
			c0.506,2.426,1.186,4.817,1.676,7.246c0.243,1.207,0.258,2.463,0.33,3.698C95.66,67.908,95.154,68.186,94.486,67.882z
			 M85.283,76.328c-0.039,0.104-0.124,0.188-0.188,0.28c-0.124-0.134-0.324-0.252-0.357-0.404c-0.25-1.183-0.92-1.97-1.962-2.61
			c-0.974-0.594-1.826-0.498-2.739-0.073c-0.002,0.045-0.004,0.079-0.006,0.126c-0.061,0.022-0.123,0.04-0.182,0.062
			c-0.053,0.082-0.105,0.165-0.159,0.246c0.021-0.07,0.021-0.169,0.067-0.204c0.026-0.02,0.06-0.03,0.092-0.042
			c0.031-0.05,0.062-0.099,0.095-0.147c0.031-0.016,0.062-0.026,0.093-0.041c0.076-2.093,0.281-2.377,1.892-2.891
			c1.558-0.493,3.123-0.297,4.689-0.078c0.401,0.056,0.655,0.623,0.495,1.044C86.504,73.172,85.896,74.752,85.283,76.328z
			 M87.049,88.262c-0.422,0.085-0.844,0.231-1.267,0.24c-0.424,0.006-0.801-0.168-0.987-0.589l-0.138,0.009
			c-0.023-0.04-0.046-0.08-0.069-0.119c-1.021-0.074-1.721-0.801-2.525-1.312c-0.313-0.198-0.448-0.477-0.165-0.788
			c0.145-0.159,0.367-0.353,0.549-0.347c0.287,0.01,0.689,0.088,0.829,0.289c0.483,0.688,0.886,1.43,1.312,2.158
			c0.053,0.003,0.102,0.014,0.156,0.014c0.013,0.038,0.035,0.062,0.051,0.097c0.404-0.03,0.808-0.068,1.212-0.08
			C86.41,87.82,86.859,87.738,87.049,88.262z M75.178,81.667c0.16,0.146,0.254,0.364,0.377,0.553
			c0.568,0.858,1.345,1.083,2.339,0.864c0.363-0.078,0.825-0.64,1.14-0.029c0.191,0.371,0.189,0.863,0.195,1.301
			c0.002,0.127-0.305,0.396-0.406,0.369c-1.081-0.293-2.154-0.615-3.219-0.962c-0.961-0.313-1.07-0.551-0.942-1.806
			c0.028-0.106,0.035-0.288,0.093-0.307C74.886,81.609,75.094,81.592,75.178,81.667z M75.162,77.766
			c0.174-0.825,0.36-1.793,0.605-2.744c0.038-0.148,0.351-0.229,0.537-0.342c0.042,0.104,0.111,0.204,0.122,0.312
			c0.097,1.003,0.151,2.018-0.33,2.938c-0.326,0.627,0.056,1.481-0.659,1.964C75.354,79.24,75.269,78.589,75.162,77.766z
			 M71.061,79.35c-0.129,0.776-0.33,1.539-0.488,2.309c-0.224,1.081-0.629,1.659-1.009,1.428c-0.581-0.357-0.503-0.935-0.479-1.56
			c0.02-0.955-0.01-2.003,1.135-2.537c0.203-0.095,0.416-0.167,0.626-0.25C70.922,78.943,71.093,79.164,71.061,79.35z M65.41,81.289
			c-0.09,0.15-0.348,0.198-0.534,0.291c-0.077-0.198-0.233-0.402-0.212-0.586c0.039-0.359,0.532-0.541,0.699-0.278
			C65.458,80.864,65.493,81.153,65.41,81.289z M61.608,80.536c-0.219,1.548-0.409,2.995-0.64,4.436
			c-0.026,0.169-0.36,0.45-0.391,0.431c-0.251-0.162-0.476-0.375-0.68-0.596c-0.061-0.064-0.049-0.217-0.039-0.324
			c0.127-1.456,0.239-2.914,0.408-4.367c0.03-0.258,0.307-0.488,0.471-0.73c0.289,0.306,0.589,0.603,0.862,0.925
			C61.656,80.373,61.608,80.527,61.608,80.536z M54.172,76.188c-0.066,0.312-0.133,0.621-0.197,0.933
			c-0.116-0.068-0.334-0.138-0.333-0.198c0.011-0.307,0.074-0.615,0.137-0.916c0.008-0.035,0.158-0.086,0.192-0.06
			C54.052,76.006,54.105,76.105,54.172,76.188z M48.016,85.031c-0.168,1.448-0.444,2.885-0.685,4.32
			c-0.016,0.097-0.137,0.175-0.21,0.262c-0.057-0.066-0.153-0.128-0.162-0.2c-0.069-0.553-0.121-1.108-0.195-1.827
			c0.547-4.314,1.002-8.797,2.723-13.02c0.083-0.203,0.196-0.422,0.359-0.551c0.154-0.126,0.423-0.233,0.586-0.182
			c0.166,0.053,0.388,0.33,0.369,0.482c-0.054,0.434-0.163,0.879-0.347,1.277C49.076,78.596,48.398,81.77,48.016,85.031z
			 M48.88,92.691c-0.349,0.248-0.75,0.425-1.056,0.59c-0.322-0.143-0.518-0.229-0.714-0.315c0.097-0.187,0.181-0.38,0.295-0.554
			c0.254-0.392,0.591-0.674,1.091-0.562c0.205,0.045,0.449,0.163,0.553,0.326C49.115,92.276,49.008,92.603,48.88,92.691z
			 M42.611,88.623c0.002,0.675-0.025,1.35-0.058,2.021c-0.017,0.349-0.352,0.412-0.735,0.191c-0.6-0.344-1.159-0.724-1.312-1.451
			c-0.184-0.879-0.338-1.762-0.513-2.695c0.389-2.087,0.739-4.195,1.186-6.281c0.281-1.318,0.75-2.596,1.054-3.909
			c0.464-2.014,0.433-2.032,2.188-2.242c0.321-0.04,0.724-0.072,0.969,0.08c0.555,0.351,0.101,0.803-0.054,1.157
			C43.515,79.684,42.592,84.054,42.611,88.623z M43.695,92.545c-0.14,0.291-0.157,0.395-0.214,0.427
			c-0.081,0.046-0.252,0.081-0.276,0.046c-0.158-0.221-0.447-0.619-0.397-0.671C43.485,91.647,43.147,92.933,43.695,92.545z
			 M58.918,104.66c1.611,0.45,3.291,0.656,4.94,0.97c2.802-0.078,5.39-0.763,7.812-2.057c1.801-0.966,3.443-2.146,4.527-3.94
			c0.169-0.278,0.348-0.629,0.318-0.922c-0.025-0.244-0.334-0.625-0.549-0.648c-0.425-0.045-0.894,0.055-1.309,0.199
			c-2.02,0.692-4.037,1.393-6.035,2.143c-3.541,1.331-7.022,1.391-10.453-0.356c-0.302-0.153-0.613-0.289-0.933-0.392
			c-0.667-0.219-1.474,0.195-1.954,0.988c-0.326,0.54-0.245,1.056,0.094,1.571C56.23,103.512,57.506,104.265,58.918,104.66z
			 M63.432,97.37c1.476-0.736,3.011-0.747,4.578-0.745c1.005,0,2.012,0.039,3.012-0.012c0.667-0.035,1.24-0.627,1.384-1.273
			c0.144-0.644-0.131-1.411-0.742-1.73c-0.685-0.359-1.409-0.814-2.146-0.871c-1.662-0.129-3.35-0.136-5.013-0.004
			c-1.12,0.089-2.116,0.681-2.9,1.541c-0.621,0.677-0.724,1.723-0.238,2.48C61.772,97.393,62.63,97.772,63.432,97.37z"/>
	</g>
</g>
</svg>
