<?xml version="1.0" encoding="utf-8"?>
<!-- Generator: Adobe Illustrator 16.0.0, SVG Export Plug-In . SVG Version: 6.00 Build 0)  -->
<!DOCTYPE svg PUBLIC "-//W3C//DTD SVG 1.1//EN" "http://www.w3.org/Graphics/SVG/1.1/DTD/svg11.dtd">
<svg version="1.1" id="Layer_1" xmlns="http://www.w3.org/2000/svg" xmlns:xlink="http://www.w3.org/1999/xlink" x="0px" y="0px"
	 width="120px" height="120px" viewBox="0 0 120 120" style="enable-background:new 0 0 120 120;" xml:space="preserve">
<g id="gittip">
	<g>
		<path style="fill-rule:evenodd;clip-rule:evenodd;" d="M109.117,32.923c0-1.203,0.125-2.421-0.034-3.601s-0.592-2.322-0.923-3.477
			c-1.421-4.92-4.488-8.723-8.15-12.156c-3.023-2.838-6.652-4.005-10.652-3.617c-3.973,0.386-7.916,1.143-11.762,2.284
			c-1.43,0.424-2.706,1.13-3.818,2.128c-2.385,2.143-4.979,4.095-7.105,6.467c-2.244,2.512-5.401,2.719-8.131,3.99
			c-0.215,0.103-0.542,0.063-0.787-0.009c-1.666-0.505-3.308-1.008-4.333-2.638c-0.633-1.011-1.403-1.96-2.238-2.812
			c-1.776-1.811-3.575-3.607-5.486-5.273c-0.881-0.77-1.991-1.568-3.092-1.732c-2.363-0.354-4.654-1.08-7.102-1.086
			c-3.249-0.007-6.355,0.763-9.498,1.32c-2.378,0.424-4.614,1.372-6.436,3.051c-2.266,2.088-4.382,4.316-6.044,6.931
			c-1.898,2.992-3.124,6.188-2.909,9.816c0.056,0.933,0.056,1.872,0.031,2.804c-0.08,2.902,0.808,5.523,2.281,7.973
			c0.756,1.26,1.559,2.49,2.309,3.754c3.129,5.286,6.204,10.604,9.381,15.861c4.009,6.626,8.2,13.142,12.128,19.817
			c4.609,7.832,9.273,15.611,14.908,22.77c1.169,1.486,2.372,2.878,3.971,3.91c1.115,0.723,2.197,0.801,3.394,0.188
			c2.658-1.359,4.88-3.24,6.771-5.525c0.766-0.924,1.452-1.915,2.234-2.824c2.532-2.942,4.867-6.02,6.768-9.417
			c0.978-1.747,2.021-3.463,3.145-5.12c3.449-5.086,7.16-9.977,11.146-14.66c2.421-2.845,4.646-5.841,6.784-8.913
			c3.588-5.162,6.788-10.556,9.966-15.965c0.736-1.252,1.297-2.639,1.723-4.03c0.465-1.518,0.707-3.104,0.988-4.671
			c0.329-1.829,0.596-3.668,0.891-5.501L109.117,32.923z M101.043,38.532c-0.504,1.232-1.27,2.355-1.823,3.568
			c-0.773,1.699-1.626,3.388-2.144,5.169c-0.912,3.119-2.387,5.958-4.059,8.688c-2.514,4.103-5.277,8.039-8.287,11.805
			c-3.918,4.906-7.9,9.768-11.258,15.09c-1.709,2.712-3.327,5.482-5.094,8.154c-1.47,2.227-3.084,4.359-4.68,6.5
			c-0.195,0.264-0.813,0.551-0.992,0.438c-1.865-1.164-2.966-0.263-3.9,1.299c-0.066,0.109-0.439,0.073-0.659,0.041
			c-0.093-0.015-0.217-0.197-0.227-0.31c-0.044-0.527-0.151-1.076-0.054-1.582c0.151-0.78,0.434-1.537,0.688-2.294
			c0.466-1.391,0.979-2.769,1.419-4.168c0.156-0.495,0.246-1.048,0.206-1.562c-0.056-0.713-0.525-1.314-1.196-1.44
			c-0.43-0.081-1.148,0.161-1.386,0.503c-0.913,1.308-1.671,2.726-2.519,4.082c-0.127,0.203-0.417,0.305-0.632,0.453
			c-0.142-0.311-0.333-0.611-0.41-0.938c-0.056-0.247,0.007-0.533,0.061-0.794c0.374-1.827,0.796-3.648,1.123-5.483
			c0.161-0.912,0.244-1.86,0.181-2.78c-0.032-0.469-0.397-0.969-0.729-1.354c-0.501-0.586-1.806-0.412-2.084,0.266
			c-0.659,1.604-1.253,3.234-1.9,4.845c-0.066,0.164-0.315,0.253-0.478,0.376c-0.097-0.244-0.272-0.488-0.275-0.732
			c-0.025-2.826,0.85-5.518,1.242-8.283c0.149-1.042,0.187-2.111,0.146-3.165c-0.011-0.276-0.466-0.659-0.792-0.762
			c-0.327-0.104-0.872-0.059-1.101,0.159c-0.466,0.439-0.88,0.993-1.145,1.576c-0.606,1.335-1.098,2.721-1.659,4.076
			c-0.22,0.534-0.884,0.558-1.313,0.141c-0.944-0.917-1.302-2.037-1.062-3.287c0.378-1.959,0.881-3.897,1.283-5.854
			c0.184-0.907,0.328-1.835,0.345-2.758c0.016-0.7-0.45-1.208-1.074-1.569c-0.586-0.34-1.518-0.239-1.752,0.317
			c-0.62,1.474-1.175,2.978-1.777,4.459c-0.346,0.854-0.782,0.876-1.389,0.227c-1.306-1.398-1.667-3.021-1.22-4.825
			c0.547-2.201,1.17-4.383,1.757-6.572c0.171-0.639,0.409-1.276,0.462-1.928c0.028-0.347-0.226-0.75-0.435-1.076
			c-0.477-0.75-1.668-0.759-1.978,0c-0.756,1.85-1.431,3.73-2.187,5.579c-0.194,0.476-0.523,0.91-0.862,1.304
			c-0.095,0.109-0.5,0.1-0.656-0.01c-0.888-0.611-1.058-1.531-0.821-2.49c0.321-1.293,0.733-2.565,1.135-3.839
			c0.409-1.293,0.626-2.602,0.312-3.941c-0.051-0.215-0.33-0.493-0.54-0.529c-0.366-0.063-0.905-0.11-1.113,0.097
			c-0.457,0.457-0.818,1.042-1.099,1.633c-0.515,1.079-0.922,2.207-1.428,3.288c-0.069,0.151-0.468,0.266-0.657,0.208
			c-0.211-0.066-0.492-0.337-0.507-0.537c-0.052-0.654-0.111-1.345,0.033-1.974c0.804-3.515,1.724-7,3.198-10.307
			c0.386-0.866,0.832-1.711,0.518-2.672c-0.11-0.337-0.415-0.725-0.725-0.847s-0.876-0.081-1.091,0.132
			c-1.631,1.608-2.946,3.434-3.7,5.638c-0.427,1.252-0.986,2.46-1.503,3.681c-0.039,0.095-0.247,0.212-0.321,0.184
			c-0.201-0.08-0.484-0.197-0.541-0.362c-0.48-1.463-0.215-2.919,0.212-4.332c1.08-3.576,2.226-7.129,3.3-10.705
			c0.142-0.468,0.139-1.059-0.015-1.518c-0.353-1.058-2.028-1.27-2.615-0.31c-0.694,1.132-1.272,2.34-1.833,3.546
			c-0.504,1.088-0.899,2.226-1.38,3.327c-0.149,0.342-0.42,0.632-0.637,0.944c-0.086-0.51-0.361-1.074-0.23-1.521
			c0.638-2.173,1.374-4.317,2.099-6.462c0.213-0.632,0.638-1.22,0.716-1.86c0.055-0.446-0.205-1.044-0.524-1.394
			c-0.37-0.405-1.004-0.405-1.46-0.042c-0.623,0.498-1.173,1.082-1.766,1.613c-0.092,0.083-0.332,0.164-0.359,0.129
			c-0.152-0.189-0.384-0.427-0.362-0.625c0.408-3.922,1.284-7.675,4.481-10.37c1.754-1.479,3.88-2.335,6.011-3.141
			c2.185-0.825,4.293-0.834,6.636-0.215c3.338,0.884,5.818,2.526,7.37,5.601c1.259,2.495,3.192,4.244,5.84,5.207
			c0.623,0.226,1.223,0.553,1.777,0.921c2.169,1.438,4.537,2.03,7.134,2.335c3.709,0.437,6.503-0.852,8.849-3.521
			c0.704-0.804,1.406-1.623,1.992-2.514c1.419-2.155,3.396-3.751,5.236-5.496c1.711-1.623,3.693-2.621,6.017-2.896
			c2.777-0.328,5.489-1.158,8.322-1.102c1.145,0.023,2.052,0.376,2.786,1.291c1.504,1.877,3.141,3.654,4.582,5.578
			c2.375,3.169,3.807,6.722,3.931,11.391C101.828,36.018,101.539,37.317,101.043,38.532z"/>
	</g>
</g>
</svg>
