<?xml version="1.0" encoding="utf-8"?>
<!-- Generator: Adobe Illustrator 16.0.0, SVG Export Plug-In . SVG Version: 6.00 Build 0)  -->
<!DOCTYPE svg PUBLIC "-//W3C//DTD SVG 1.1//EN" "http://www.w3.org/Graphics/SVG/1.1/DTD/svg11.dtd">
<svg version="1.1" id="Layer_1" xmlns="http://www.w3.org/2000/svg" xmlns:xlink="http://www.w3.org/1999/xlink" x="0px" y="0px"
	 width="120px" height="120px" viewBox="0 0 120 120" style="enable-background:new 0 0 120 120;" xml:space="preserve">
<g id="github1">
	<g>
		<path style="fill-rule:evenodd;clip-rule:evenodd;" d="M109.902,67.149c-0.332-3.53-0.906-7.037-2.009-10.42
			c-1.271-3.9-2.528-7.817-4.561-11.407c-0.767-1.354-0.889-2.712-0.562-4.168c0.098-0.432,0.293-0.848,0.344-1.283
			c0.268-2.309,0.665-4.618,0.701-6.933c0.033-2.206-0.322-4.417-0.509-6.625c-0.237-2.83-1.284-5.346-2.979-7.601
			c-0.414-0.549-0.99-1.036-1.684-0.896c-2.381,0.48-4.853,0.628-7.086,1.695c-5.008,2.388-10.057,4.728-14.049,8.747
			c-0.612,0.616-1.312,0.688-2.123,0.68c-6.438-0.064-12.877-0.105-19.316-0.126c-1.997-0.006-3.994,0.093-5.993,0.116
			c-1.541,0.018-3.105,0.195-4.454-0.886c-0.318-0.255-0.835-0.393-1.251-0.373c-1.425,0.075-2.498-0.573-3.637-1.336
			c-1.279-0.857-2.743-1.446-4.146-2.108c-1.504-0.708-3.062-1.308-4.544-2.056c-3.104-1.569-6.383-2.483-9.821-2.929
			c-0.902-0.118-1.543,0.231-2.017,0.845c-0.394,0.509-0.649,1.156-0.848,1.778c-0.433,1.372-0.747,2.781-1.189,4.149
			c-1.774,5.503-1.523,11.167-1.359,16.821c0.019,0.653,0.357,1.298,0.365,1.946c0.008,0.941-1.17,0.912-1.508,1.62
			c-0.384,0.798-0.808,1.579-1.184,2.38c-1.894,4.03-3.187,8.225-3.967,12.63c-0.59,3.332-0.651,6.643-0.254,9.93
			c0.627,5.216,2.599,10.062,4.812,14.788c0.843,1.803,1.868,3.525,2.897,5.233c0.45,0.747,1.056,1.431,1.701,2.026
			c1.8,1.665,3.771,3.094,6.07,4.024c1.849,0.748,3.681,1.543,5.532,2.284c1.444,0.578,2.919,1.038,4.502,1.068
			c0.663,0.013,1.354,0.034,1.979,0.228c1.836,0.572,3.722,0.561,5.605,0.582c3.331,0.036,6.662,0.034,9.993,0.082
			c0.878,0.013,1.801,0.007,2.619,0.27c1.007,0.323,1.912,0.438,2.891-0.021c0.385-0.181,0.855-0.229,1.291-0.242
			c2.551-0.08,5.103-0.133,7.656-0.195v0.076c1.999,0,3.996,0.029,5.994-0.012c1.106-0.021,2.221-0.09,3.314-0.254
			c3.949-0.594,7.775-1.703,11.613-2.796c3.336-0.952,6.412-2.458,9.473-4.015c1.811-0.923,3.203-2.315,4.416-3.958
			c2.197-2.978,3.764-6.267,5.084-9.688C109.397,76.42,110.348,71.875,109.902,67.149z M20.973,62.5
			c0.079-0.146,0.34-0.206,0.531-0.268c0.221-0.07,0.426,0.463,0.256,0.723c-0.345,0.529-0.71,1.048-1.077,1.562
			c-0.057,0.081-0.17,0.124-0.257,0.185c-0.063-0.069-0.145-0.128-0.187-0.206c-0.042-0.088-0.093-0.211-0.061-0.287
			C20.428,63.634,20.673,63.05,20.973,62.5z M21.978,70.961c-0.134,0.201-0.355,0.344-0.556,0.502
			c0.001,0.036,0.003,0.073,0.003,0.109c-0.031,0.012-0.054,0.027-0.083,0.04c-0.056,0.996-0.534,1.777-1.234,2.446
			c0.002,0.064,0.003,0.127,0.007,0.191c-0.042,0.011-0.095,0.015-0.148,0.017c-0.059,0.13-0.119,0.26-0.179,0.39
			c-0.252-0.383-0.028-0.379,0.179-0.39c0.018-0.038,0.036-0.077,0.053-0.115c0.032-0.029,0.057-0.062,0.088-0.093
			c-0.043-1.036,0.105-1.98,1.234-2.446c0.002-0.034,0.013-0.063,0.014-0.099c0.021-0.018,0.044-0.034,0.066-0.051
			c-0.008-0.267-0.029-0.535,0.016-0.795c0.016-0.097,0.253-0.156,0.389-0.232C21.883,70.615,22.043,70.863,21.978,70.961z
			 M25.301,91.683c-0.047,0.089-0.161,0.144-0.243,0.215c-0.093-0.168-0.203-0.328-0.274-0.505
			c-0.038-0.093-0.006-0.215-0.006-0.498c0.22-0.657,0.488-1.479,0.773-2.291c0.031-0.09,0.159-0.145,0.242-0.216
			c0.115,0.177,0.308,0.344,0.334,0.532C26.273,89.959,25.757,90.815,25.301,91.683z M32.137,94.94
			c-0.037,0.081-0.208,0.181-0.262,0.154c-0.154-0.075-0.346-0.183-0.403-0.326c-0.075-0.19-0.039-0.426-0.05-0.653
			c0.04-0.202,0.029-0.447,0.135-0.62c0.095-0.156,0.401-0.369,0.464-0.328c0.236,0.155,0.588,0.421,0.57,0.614
			C32.555,94.18,32.316,94.563,32.137,94.94z M42.993,97.331c-0.067-0.085-0.199-0.179-0.188-0.253
			c0.028-0.197,0.115-0.388,0.179-0.582c0.071,0.031,0.204,0.076,0.201,0.091C43.131,96.838,43.06,97.084,42.993,97.331z
			 M47.056,97.237c-0.052-0.087-0.162-0.194-0.142-0.261c0.075-0.244,0.195-0.473,0.31-0.739c0.228,0.189,0.357,0.298,0.487,0.406
			C47.491,96.842,47.272,97.041,47.056,97.237z M51.891,97.075c-0.087,0.167-0.488,0.196-0.752,0.211
			c-0.051,0.002-0.229-0.43-0.158-0.531c0.16-0.231,0.436-0.381,0.799-0.673C51.844,96.527,51.997,96.871,51.891,97.075z
			 M55.873,97.467c-0.175-0.041-0.453-0.284-0.435-0.394c0.049-0.296,0.166-0.7,0.385-0.813c0.187-0.098,0.553,0.145,0.79,0.222
			C56.713,96.945,56.225,97.55,55.873,97.467z M61.261,96.881c-0.122,0.258-0.325,0.563-0.567,0.665
			c-0.635,0.263-1.257,0.179-1.703-0.414c-0.119-0.155-0.237-0.409-0.191-0.57c0.049-0.169,0.277-0.325,0.462-0.406
			c0.187-0.081,0.416-0.063,0.626-0.089c0.212,0.01,0.423,0.01,0.635,0.029C61.039,96.146,61.425,96.532,61.261,96.881z
			 M65.559,97.651c-0.32,0.017-0.676,0.006-0.96-0.116c-0.426-0.184-0.673-0.598-0.559-1.051c0.069-0.271,0.328-0.568,0.581-0.701
			c0.272-0.141,0.637-0.105,0.867-0.135c0.771,0.026,1.156,0.396,1.123,0.987C66.578,97.201,66.172,97.621,65.559,97.651z
			 M70.643,97.242c-0.053,0.05-0.445-0.11-0.445-0.175c-0.003-0.407-0.01-0.846,0.137-1.21c0.057-0.141,0.519-0.164,0.787-0.143
			c0.088,0.006,0.15,0.33,0.281,0.65C71.184,96.627,70.938,96.96,70.643,97.242z M76.451,97.057
			c-0.248,0.503-1.256,0.725-1.746,0.42c-0.519-0.322-0.152-0.758-0.102-1.148c0.077-0.591,0.381-0.979,0.961-1.191
			c0.627-0.229,1.164,0.051,1.174,0.939C76.693,96.239,76.637,96.68,76.451,97.057z M80.455,96.542
			c-0.107,0.13-0.693,0.096-0.805-0.053c-0.681-0.914-0.262-2.103,0.743-2.261c0.45-0.07,0.919,0.276,0.892,1.022
			C81.125,95.512,80.845,96.074,80.455,96.542z M85.008,95.101c-0.09-0.183-0.21-0.354-0.261-0.547
			c-0.052-0.199-0.046-0.416-0.051-0.624c-0.002-0.104-0.005-0.229,0.047-0.307c0.097-0.143,0.231-0.256,0.353-0.381
			c0.069,0.078,0.183,0.149,0.199,0.238c0.058,0.305,0.08,0.617,0.123,0.982C85.291,94.659,85.149,94.88,85.008,95.101z
			 M90.314,90.931c-0.24,0.832-0.418,1.681-0.672,2.506c-0.051,0.16-0.329,0.312-0.52,0.337c-0.09,0.012-0.26-0.276-0.316-0.453
			c-0.066-0.202-0.045-0.432-0.062-0.649c0.005-0.765-0.047-1.552,0.58-2.138c0.146-0.136,0.381-0.266,0.564-0.253
			C90.252,90.305,90.435,90.512,90.314,90.931z M90.41,82.691c-1.371,3.562-4.005,5.786-7.58,6.899
			c-3.924,1.225-7.914,2.05-12.074,1.971c-1.98-0.039-3.967,0.306-5.951,0.458c-0.773,0.061-1.551,0.087-2.328,0.09
			c-3.107,0.01-6.214,0.006-9.322,0.006v0.033c-3.33,0-6.661,0.045-9.99-0.012c-4.739-0.079-8.82-1.871-12.386-4.938
			c-2.593-2.227-3.787-5.17-4.124-8.446c-0.215-2.088-0.062-4.212-0.073-6.319c-0.008-1.374,0.428-2.623,1.131-3.776
			c0.461-0.758,0.969-1.487,1.496-2.201c3.898-5.279,2.508-4.524,9.5-6.293c1.286-0.326,2.618-0.531,3.852-0.997
			c1.337-0.507,2.6-0.442,3.897-0.032c1.267,0.4,2.541,0.794,3.785,1.258c3.973,1.486,8.068,2.342,12.311,2.533
			c1.212,0.055,2.413,0.329,3.625,0.43c4.339,0.36,8.334-0.842,12.161-2.748c0.793-0.396,1.519-0.947,2.338-1.263
			c0.81-0.312,1.691-0.466,2.557-0.597c0.685-0.103,1.301,0.161,1.806,0.66c0.788,0.782,1.573,1.569,2.382,2.327
			c0.916,0.859,1.533,1.908,1.894,3.086c0.646,2.117,1.257,4.246,1.825,6.385c0.168,0.633,0.189,1.314,0.201,1.975
			c0.029,1.553-0.041,3.11,0.027,4.661C91.45,79.549,91.01,81.133,90.41,82.691z M93.834,91.83
			c-0.439,0.167-0.488-0.271-0.524-0.568c-0.04-0.327-0.009-0.661-0.009-1.312c0.031-0.225,0.097-0.766,0.188-1.303
			c0.016-0.096,0.123-0.179,0.189-0.266c0.076,0.064,0.2,0.12,0.219,0.2c0.197,0.848,0.426,1.692,0.529,2.553
			C94.451,91.349,94.094,91.729,93.834,91.83z M102.636,75.116c-0.169,0.859-0.519,1.685-0.795,2.522
			c-0.022,0.068-0.126,0.111-0.191,0.166c-0.05-0.1-0.132-0.195-0.142-0.299c-0.039-0.33-0.033-0.664-0.071-0.995
			c-0.189-1.601-0.205-1.624-2.005-1.688c-0.001,0.024,0.001,0.049,0,0.072c-0.051,0.017-0.104,0.029-0.155,0.045
			c-0.061,0.092-0.12,0.184-0.181,0.277c0.016-0.076,0.01-0.183,0.057-0.22c0.034-0.027,0.078-0.044,0.124-0.058
			c0.026-0.04,0.053-0.08,0.078-0.12c0.029,0.001,0.049,0.002,0.077,0.003c0.009-0.636-0.079-1.299,0.079-1.895
			c0.263-0.981,0.446-1.886,0.101-2.917c-0.188-0.564,0.074-1.279,0.135-1.926c0.109-1.209,0.249-2.417,0.309-3.627
			c0.016-0.292-0.218-0.604-0.361-0.895c-0.179-0.36-0.959-0.46-1.147-0.123c-0.369,0.667-0.776,1.334-1.003,2.054
			c-0.564,1.796-1.031,3.62-1.545,5.431c-0.029,0.1-0.127,0.181-0.193,0.268c-0.127-0.105-0.32-0.185-0.375-0.319
			c-0.772-1.909-0.799-3.907-0.523-5.897c0.126-0.911,0.15-1.767-0.2-2.6c-0.109-0.26-0.541-0.652-0.642-0.604
			c-1.113,0.533-1.55-0.146-2.062-0.953c-1.326-2.09-3.272-3.622-5.074-5.249c-1.176-1.063-2.802-1.208-4.396-0.985
			c-1.557,0.219-2.998,0.748-4.386,1.484c-1.371,0.726-2.764,1.423-4.188,2.037c-1.541,0.665-3.172,0.991-4.865,0.953
			c-2.886-0.069-5.775-0.073-8.657-0.223c-2.326-0.12-4.6-0.646-6.839-1.295c-0.553-0.16-0.679-0.454-0.433-0.957
			c0.439-0.896,0.891-1.79,1.292-2.702c0.127-0.29,0.157-0.645,0.14-0.966c-0.01-0.189-0.161-0.441-0.323-0.535
			c-0.158-0.092-0.49-0.108-0.612-0.003c-0.492,0.429-1.001,0.869-1.378,1.393c-0.517,0.715-0.904,1.521-1.376,2.269
			c-0.211,0.334-1.113,0.367-1.531,0.055c-0.137-0.102-0.293-0.388-0.243-0.499c0.412-0.906,0.912-1.773,1.3-2.688
			c0.209-0.499,0.283-1.061,0.354-1.604c0.026-0.188-0.087-0.537-0.221-0.586c-0.906-0.336-1.825-0.657-2.764-0.87
			c-0.192-0.045-0.601,0.334-0.723,0.604c-0.545,1.212-0.981,2.453-1.085,3.811c-0.083,1.103-0.48,1.268-1.557,0.864
			c-0.798-0.299-0.922-0.547-0.566-1.178c0.548-0.963,1.139-1.904,1.65-2.885c0.192-0.37,0.31-0.833,0.284-1.243
			c-0.017-0.26-0.334-0.537-0.58-0.722c-0.146-0.109-0.492-0.154-0.614-0.057c-0.517,0.403-1.062,0.812-1.451,1.33
			c-0.8,1.062-1.485,2.21-2.264,3.289c-0.317,0.439-0.735,0.814-1.154,1.163c-0.1,0.083-0.394-0.036-0.584-0.101
			c-0.088-0.033-0.219-0.185-0.202-0.239c0.233-0.74,0.45-1.488,0.748-2.204c0.722-1.741,1.488-3.462,2.224-5.199
			c0.215-0.51,0.48-1.027,0.543-1.562c0.044-0.381-0.128-0.859-0.359-1.184c-0.266-0.375-1.113-0.245-1.482,0.187
			c-0.43,0.505-0.852,1.024-1.21,1.579c-1.69,2.62-3.189,5.348-3.996,8.373c-0.397,1.496-1.358,2.216-2.706,2.617
			c-0.123,0.037-0.455-0.183-0.447-0.221c0.326-1.279,0.557-2.604,1.057-3.815c1.057-2.562,2.26-5.062,3.393-7.592
			c0.225-0.503,0.475-1.014,0.569-1.547c0.102-0.576-0.182-1.066-0.705-1.388c-0.446-0.274-1.168-0.167-1.459,0.35
			c-1.425,2.522-3.177,4.776-5.289,6.763c-0.475,0.448-0.767,1.085-1.18,1.607c-0.352,0.443-0.751,0.814-1.368,0.342
			c-0.26-0.197-0.558-0.362-0.864-0.479c-1.94-0.745-1.948-0.741-1.108-2.36c0.818-1.575,1.68-3.128,2.456-4.722
			c0.379-0.778,0.144-1.538-0.505-2.096c-0.377-0.324-0.896-0.385-1.208-0.059c-0.524,0.549-0.915,1.227-1.37,1.843
			c-0.062,0.087-0.173,0.138-0.262,0.205c-0.067-0.185-0.241-0.414-0.186-0.549c0.581-1.435,1.214-2.85,1.797-4.286
			c0.162-0.401,0.294-0.855,0.264-1.273c-0.018-0.26-0.337-0.54-0.588-0.718c-0.137-0.099-0.501-0.097-0.606,0.012
			c-0.612,0.628-1.178,1.303-1.764,1.956c-0.071,0.081-0.176,0.134-0.265,0.201c-0.065-0.198-0.238-0.438-0.179-0.584
			c1.186-2.984,2.238-6.031,4.109-8.693c0.18-0.255,0.237-0.605,0.318-0.919c0.092-0.348-0.448-0.956-0.807-0.879
			c-0.82,0.177-1.63,0.397-2.443,0.602c0.003,0.032,0.001,0.062,0.007,0.095c-0.025,0.025-0.072,0.038-0.123,0.049
			c-0.044,0.128-0.088,0.255-0.133,0.383c-0.335-0.352-0.059-0.343,0.133-0.383c0.015-0.042,0.029-0.083,0.043-0.125
			c0.024-0.006,0.048-0.012,0.072-0.019c-0.069-0.689,0.417-1.162,0.704-1.716c0.446-0.858,0.134-1.375-0.927-1.533
			c-0.429-0.065-0.875-0.037-1.292-0.135c-0.134-0.031-0.328-0.4-0.276-0.506c0.128-0.26,0.442-0.681,0.58-0.645
			c2.098,0.539,4.371,0.5,6.163,2.062c1.082,0.94,2.323,1.709,3.542,2.481c1.14,0.72,1.438,2.262,2.842,2.739
			c0.518,0.176,0.136,0.744,0.138,1.149c0.004,0.979,0.519,1.539,1.389,1.445c2.202-0.235,4.426-0.401,6.589-0.847
			c2.939-0.606,5.82-1.235,8.873-0.758c1.389,0.215,2.865-0.225,4.298-0.196c5.656,0.119,11.311,0.301,16.964,0.472
			c2.122,0.064,4.166,0.537,6.181,1.188c1.003,0.323,2.01,0.288,2.731-0.634c3.266-4.168,7.748-6.544,12.491-8.544
			c0.817-0.343,1.631-0.702,2.448-1.043c1.313-0.546,1.761-0.292,1.903,1.208c0.209,2.204,0.607,4.377,0.604,6.615
			c-0.006,3.584-0.5,7.063-1.533,10.482c-0.289,0.954-0.518,1.925-0.816,2.878c-0.287,0.918-0.137,1.662,0.453,2.473
			c0.502,0.689,0.742,1.585,1.023,2.417c1.064,3.145,2.35,6.215,3.152,9.451C103.607,64.551,103.677,69.822,102.636,75.116z
			 M61.975,54.272c-0.625-0.215-1.403,0.105-1.612,0.766c-0.162,0.511-0.23,1.071-0.232,1.608c-0.001,0.671,0.854,1.105,1.479,0.809
			c0.789-0.373,1.119-1.02,1.125-1.863C62.766,54.946,62.479,54.446,61.975,54.272z M56.134,55.668
			c-0.194-0.05-0.468,0.222-0.835,0.422c0.28,0.292,0.454,0.628,0.652,0.641c0.212,0.015,0.445-0.272,0.668-0.429
			C56.46,56.078,56.335,55.72,56.134,55.668z M46.532,67.975c-0.899-1.371-2.479-1.88-4.047-1.389
			c-1.312,0.411-2.315,1.148-3.12,2.303c-1.771,2.538-2.67,5.303-2.552,8.391c0,0.663-0.063,1.332,0.012,1.986
			c0.19,1.645,0.419,3.289,1.312,4.74c1.283,2.094,3.136,2.694,5.38,1.745c2.69-1.136,5.119-4.625,5.208-7.529
			c0.093-3.017-0.606-5.909-1.456-8.77C47.114,68.932,46.831,68.435,46.532,67.975z M79.802,66.234
			c-1.168-1.041-2.877-0.875-3.837,0.35c-0.469,0.598-0.846,1.311-1.092,2.031c-0.865,2.52-1.525,5.088-1.402,7.79
			c-0.105,2.249,0.16,4.422,1.283,6.427c0.75,1.34,1.986,1.735,3.373,1.615c0.987-0.085,1.926-0.438,2.692-1.177
			c1.229-1.185,2.144-2.553,2.538-4.212c0.891-3.733,0.075-7.238-1.645-10.557C81.27,67.644,80.533,66.891,79.802,66.234z"/>
	</g>
</g>
</svg>
