<?xml version="1.0" encoding="utf-8"?>
<!-- Generator: Adobe Illustrator 16.0.0, SVG Export Plug-In . SVG Version: 6.00 Build 0)  -->
<!DOCTYPE svg PUBLIC "-//W3C//DTD SVG 1.1//EN" "http://www.w3.org/Graphics/SVG/1.1/DTD/svg11.dtd">
<svg version="1.1" id="Layer_1" xmlns="http://www.w3.org/2000/svg" xmlns:xlink="http://www.w3.org/1999/xlink" x="0px" y="0px"
	 width="120px" height="120px" viewBox="0 0 120 120" style="enable-background:new 0 0 120 120;" xml:space="preserve">
<g id="github2">
	<g>
		<path style="fill-rule:evenodd;clip-rule:evenodd;" d="M103.033,35.658c-0.312-0.906-0.572-1.84-0.752-2.781
			c-0.338-1.76-1.297-3.177-2.506-4.389c-1.115-1.12-2.166-2.335-3.701-3.008c-0.896-0.394-1.236-1.136-1.152-2.328
			c0.27-3.845,0.893-7.612,1.893-11.322c0.424-1.574,0.598-3.149,0.355-4.76c-0.191-1.267-1.496-1.945-2.68-1.36
			c-0.666,0.328-1.32,0.722-1.893,1.192c-2.477,2.035-5.012,4.011-7.344,6.204c-1.543,1.453-3.281,2.388-5.26,2.896
			c-1.543,0.397-3.168,0.475-4.713,0.874c-3.225,0.832-6.592,0.248-9.811,1.069c-0.297,0.077-0.648,0.033-0.955-0.038
			c-0.957-0.226-1.896-0.103-2.861-0.03c-3.417,0.26-6.835,0.254-10.208-0.471c-0.508-0.109-1.027-0.322-1.451-0.614
			c-0.613-0.422-1.238-0.889-1.695-1.464c-0.971-1.22-2.322-1.81-3.621-2.552c-2.209-1.264-4.834-1.731-6.732-3.604
			c-0.537-0.529-1.334-0.528-2.121-0.263c-0.869,0.292-1.562,0.776-1.93,1.577c-0.531,1.158-1.043,2.326-1.039,3.665
			c0.014,3.317-0.09,6.636-0.039,9.952c0.021,1.258-0.238,2.163-1.215,3.093c-2.031,1.934-3.658,4.28-4.266,7.038
			c-1.234,5.604-1.318,11.206,0.818,16.678c0.506,1.292,1.039,2.599,1.314,3.948c0.555,2.731,2.137,4.914,3.762,7.003
			c1.088,1.401,2.383,2.784,4.027,3.621c2.1,1.069,4.281,1.908,6.686,2.086c1.912,0.141,3.812,0.424,5.715,0.68
			c1.057,0.143,2.105,0.358,3.154,0.547c0.51,0.094,0.637,0.477,0.293,0.923c-0.389,0.509-0.736,1.075-1.213,1.487
			c-1.609,1.391-2.547,3.115-2.949,5.191c-0.174,0.891-0.719,1.326-1.6,1.254c-1.912-0.156-3.826-0.361-5.711-0.697
			c-0.939-0.166-1.768-0.707-2.312-1.597c-0.895-1.46-1.791-2.921-2.777-4.317c-0.859-1.217-1.785-2.4-2.789-3.5
			c-0.816-0.896-1.91-1.352-3.17-1.289c-1.922,0.1-3.848,0.139-5.764,0.297c-1.285,0.107-2.479,0.518-3.57,1.295
			c-1.127,0.803-2.357,1.467-3.566,2.15c-0.668,0.379-1.221,0.814-1.594,1.518c-0.475,0.889-0.084,1.776,0.938,1.797
			c0.73,0.016,1.496-0.057,2.189-0.271c0.703-0.221,1.357-0.631,1.996-1.018c1.709-1.029,3.521-1.496,5.518-1.193
			c0.633,0.096,1.281,0.123,1.922,0.129c0.969,0.008,1.619,0.498,2.051,1.302c0.557,1.034,1.127,2.069,1.592,3.146
			c0.824,1.906,2.236,3.381,3.576,4.889c0.771,0.867,1.799,1.457,2.932,1.873c2.646,0.971,5.361,1.406,8.172,1.311
			c1.871-0.064,2.25,0.195,2.973,2.219c0.211,0.591,0.266,1.25,0.318,1.883c0.227,2.771-0.965,5.207-1.891,7.695
			c-1.135,3.049-3.664,4.295-6.617,4.915c-0.4,0.085-0.998,0.132-1.242-0.091c-1.393-1.264-3.58-1.344-4.582-3.217
			c-0.406-0.762-1.77-0.473-2.107,0.354c-0.119,0.293-0.238,0.602-0.275,0.914c-0.293,2.498,0.822,4.57,2.07,6.581
			c0.205,0.331,0.639,0.602,1.023,0.722c0.908,0.285,1.842,0.6,2.781,0.658c1.922,0.119,3.852,0.097,5.777,0.098
			c1.584,0.002,3.023-0.627,3.949-1.812c2.42-3.1,5.197-5.998,6.346-9.924c0.15-0.51,0.344-1.041,0.66-1.453
			c0.305-0.396,0.762-0.715,1.213-0.953c0.367-0.191,0.814,0.436,0.943,1.416c0.111,0.845,0.184,1.703,0.191,2.555
			c0.023,2.461-0.057,4.926,0.023,7.385c0.057,1.752-0.285,3.352-0.957,4.972c-0.43,1.034-0.928,1.563-2.045,1.64
			c-0.5,0.033-0.998,0.35-1.461,0.605c-0.402,0.225-0.594,0.615-0.408,1.084c0.918,2.309,2.008,2.992,4.41,2.736
			c0.525-0.057,1.055-0.17,1.557-0.336c1.595-0.531,2.767-1.473,3.373-3.145c0.771-2.123,1.52-4.213,1.35-6.531
			c-0.092-1.277-0.016-2.567-0.016-3.853h-0.018c0-1.712-0.016-3.425,0.008-5.138c0.01-0.746,0.004-1.518,0.186-2.232
			c0.631-2.492,0.811-5.047,1.168-7.579c0.043-0.311,0.154-0.61,0.232-0.917c0.119,0.328,0.297,0.648,0.34,0.984
			c0.082,0.637,0.139,1.284,0.109,1.922c-0.1,2.188,0.461,4.244,1.252,6.238c0.668,1.686,1.447,3.33,2.229,4.969
			c0.922,1.928,1.893,3.831,2.855,5.738c0.238,0.473,0.449,0.992,0.801,1.37c1.709,1.835,3.691,3.229,6.221,3.722
			c1.547,0.301,3.131-0.459,3.67-1.827c0.686-1.743,0.236-3.307-1.271-4.175c-0.738-0.424-1.553-0.715-2.318-1.095
			c-0.578-0.286-1.035-0.657-1.336-1.302c-0.629-1.353-1.359-2.66-2.096-3.961c-0.74-1.307-1.428-2.625-1.797-4.097
			c-0.209-0.826-0.469-1.655-0.83-2.424c-0.916-1.956-1.352-4.034-1.699-6.142c-0.242-1.475-0.094-2.182,0.506-2.146
			c0.965,0.059,0.979,1.002,1.377,1.582c0.117,0.17,0.168,0.393,0.225,0.6c0.736,2.641,2.334,4.812,3.986,6.897
			c2.068,2.606,4.494,4.892,7.4,6.569c2.242,1.297,4.633,2.158,7.297,2.076c4.09-0.125,7.99-4.773,7.363-8.826
			c-0.16-1.039-1.094-1.639-2.137-1.312c-0.502,0.156-1.008,0.377-1.43,0.684c-0.775,0.562-1.514,1.188-2.23,1.83
			c-1.16,1.043-2.445,1.229-3.83,0.584c-1.064-0.494-2.125-1.017-3.121-1.633c-2.613-1.615-4.518-3.945-6.02-6.559
			c-1.756-3.056-3.352-6.206-4.959-9.344c-1.084-2.116-2.332-4.076-4.283-5.507c-0.146-0.106-0.242-0.282-0.361-0.425
			c0.17-0.123,0.322-0.316,0.51-0.359c2.934-0.662,5.662-1.9,8.457-2.957c0.992-0.375,2.064-0.539,3.088-0.84
			c3.287-0.965,6.537-1.998,9.24-4.262c1.721-1.439,3.48-2.842,5.303-4.152c2.553-1.837,3.84-4.524,5.061-7.255
			c0.342-0.765,0.561-1.649,0.582-2.484C104.16,43.457,104.359,39.491,103.033,35.658z M95.352,33.418
			c0.074-0.19,0.215-0.373,0.371-0.507c0.135-0.119,0.447-0.269,0.49-0.224c0.916,0.971,1.322,2.129,1.125,3.46
			c-0.025,0.16-0.277,0.287-0.443,0.445c-0.068,0.014-0.188,0.079-0.26,0.045C95.572,36.146,94.922,34.521,95.352,33.418z
			 M97.156,43.316c-0.238,0.218-0.502,0.481-0.797,0.701c-0.035,0.026-0.369-0.239-0.355-0.271c0.158-0.338,0.348-0.661,0.553-0.975
			c0.047-0.07,0.25-0.131,0.258-0.119C96.916,42.813,96.994,42.988,97.156,43.316z M92.789,29.354
			c0.004-0.046,0.15-0.112,0.229-0.106c0.582,0.038,1.092,0.78,0.883,1.334c-0.055,0.15-0.295,0.233-0.512,0.394
			c-0.215-0.155-0.59-0.281-0.65-0.497C92.643,30.134,92.748,29.73,92.789,29.354z M92.859,37.918
			c0.074-0.14,0.328-0.184,0.498-0.273c0.92,0.387,1.41,1.688,0.936,2.561c-0.072,0.134-0.383,0.276-0.5,0.225
			C92.736,39.974,92.34,38.896,92.859,37.918z M87.67,15.762c0.107-0.119,0.455-0.223,0.506-0.165
			c0.828,0.949,1.629,1.922,2.424,2.9c0.049,0.061,0.014,0.217-0.023,0.312c-0.039,0.094-0.133,0.167-0.201,0.248
			c-0.195-0.047-0.41-0.061-0.586-0.149c-1.107-0.551-1.77-1.511-2.277-2.588C87.447,16.182,87.551,15.896,87.67,15.762z
			 M85.773,19.567c0.146-0.104,0.457-0.198,0.551-0.122c0.795,0.64,1.646,1.252,1.908,2.251c-0.09,0.292-0.131,0.499-0.217,0.684
			c-0.258,0.557-0.896,0.773-1.246,0.404c-0.502-0.525-0.986-1.071-1.439-1.639C84.943,20.659,85.129,20.025,85.773,19.567z
			 M85.83,34.156c-0.094,0.15-0.324,0.213-0.498,0.313c-0.096-0.165-0.287-0.344-0.264-0.49c0.051-0.33,0.301-0.511,0.619-0.298
			C85.803,33.756,85.891,34.057,85.83,34.156z M83.746,23.905c0.691,0.194,1.197,1.072,1.773,1.658
			c0.062,0.062,0.051,0.198,0.074,0.3c-0.025,0.206,0.004,0.439-0.086,0.612c-0.529,1.032-1.068,2.061-1.639,3.07
			c-0.312,0.555-0.795,0.704-1.326,0.444c-0.473-0.23-0.932-0.493-1.379-0.771c-0.406-0.252-0.533-0.608-0.295-1.06
			c0.49-0.935,0.961-1.881,1.467-2.807C82.68,24.727,82.959,23.685,83.746,23.905z M81.436,33.12
			c-0.092,0.135-0.225,0.306-0.363,0.328c-0.303,0.05-0.617,0.015-0.928,0.015v0.041c-0.309-0.015-0.639,0.032-0.922-0.062
			c-0.246-0.08-0.588-0.293-0.621-0.493c-0.041-0.245,0.127-0.608,0.326-0.788c0.182-0.165,0.574-0.279,0.785-0.195
			c0.57,0.228,1.098,0.568,1.631,0.881C81.41,32.886,81.471,33.07,81.436,33.12z M77.186,25.398
			c0.875-1.694,1.729-3.401,2.666-5.062c0.227-0.403,0.762-0.342,1.115-0.033c0.307,0.266,0.678,0.59,0.381,1.068
			c-1.006,1.623-2.016,3.243-3.072,4.832c-0.096,0.144-0.562,0.114-0.824,0.044c-0.125-0.034-0.178-0.348-0.271-0.551
			C77.18,25.606,77.143,25.481,77.186,25.398z M75.033,20.479c0.436-0.241,0.996-0.271,1.508-0.338
			c0.104-0.014,0.24,0.247,0.449,0.481c-0.629,0.96-1.256,1.943-1.922,2.9c-0.082,0.12-0.395,0.174-0.555,0.122
			c-0.174-0.058-0.375-0.252-0.428-0.428C73.693,21.899,73.945,21.083,75.033,20.479z M76.221,30.123
			c-0.248,1.017-0.592,2.01-0.93,3.003c-0.039,0.117-0.273,0.168-0.41,0.247c-0.57-0.459-1.031-2.24-0.727-2.894
			c0.176-0.376,0.381-0.764,0.668-1.053c0.178-0.182,0.547-0.296,0.801-0.253C76.105,29.254,76.318,29.719,76.221,30.123z
			 M71.703,26.005c0.072-0.121,0.367-0.106,0.691-0.187c0.201,0.299,0.668,0.681,0.615,0.966c-0.238,1.269-0.938,2.344-1.799,3.289
			c-0.119,0.13-0.609,0.046-0.842-0.088c-0.248-0.141-0.611-0.569-0.553-0.682C70.395,28.178,71.041,27.085,71.703,26.005z
			 M66.393,26.375c0.686-1.162,1.385-2.318,2.133-3.439c0.088-0.132,0.609-0.151,0.75-0.023c0.186,0.167,0.352,0.637,0.248,0.795
			c-0.785,1.21-1.637,2.378-2.479,3.551c-0.049,0.068-0.191,0.069-0.309,0.108c-0.119-0.124-0.301-0.235-0.352-0.39
			C66.324,26.793,66.303,26.529,66.393,26.375z M68.6,33.116c-0.129,0.099-0.254,0.271-0.363,0.261
			c-0.143-0.013-0.275-0.169-0.412-0.264c0.074-0.066,0.158-0.197,0.221-0.187C68.227,32.957,68.4,33.042,68.6,33.116z
			 M62.555,23.283c0.199-0.483,0.43-0.956,0.609-1.448c0.451-1.25,0.443-1.253,1.854-1.261c0.186,0.017,0.543-0.04,0.799,0.098
			c0.213,0.114,0.49,0.573,0.424,0.675c-0.68,1.049-1.391,2.082-2.168,3.061c-0.293,0.367-0.795,0.224-1.141-0.034
			C62.588,24.117,62.359,23.753,62.555,23.283z M64.799,32.6c0.025,0.835-0.203,1.066-1.084,1.043
			c-0.303-0.007-0.621-0.073-0.896-0.195c-0.139-0.062-0.314-0.367-0.268-0.459c0.42-0.837,0.871-1.661,1.355-2.464
			c0.074-0.123,0.377-0.188,0.545-0.15c0.168,0.038,0.422,0.242,0.42,0.369c-0.01,0.414-0.119,0.825-0.189,1.248
			C64.721,32.187,64.793,32.392,64.799,32.6z M59.299,20.708c0.402-0.091,0.822-0.119,1.197-0.166
			c0.46,0.039,0.882,0.046,1.291,0.125c0.139,0.027,0.264,0.222,0.352,0.366c0.027,0.044-0.068,0.196-0.141,0.265
			c-1.055,1.004-2.068,0.939-2.886-0.2C59.069,21.038,59.206,20.729,59.299,20.708z M61.666,28.118
			c-0.098,0.844-0.512,1.595-1.294,2.057c-0.086,0.051-0.195,0.062-0.295,0.089c-0.383,0.058-1.006-0.727-0.84-1.144
			c0.232-0.576,0.52-1.143,0.875-1.648c0.133-0.189,0.623-0.349,0.783-0.251C61.227,27.425,61.697,27.841,61.666,28.118z
			 M54.872,25.631c0.215-0.471,0.574-0.877,0.887-1.3c0.805-1.093,1.564-1.048,2.334,0.135c0.057,0.087,0.098,0.186,0.146,0.279
			c-0.049,0.192-0.057,0.41-0.156,0.57c-0.279,0.445-0.59,0.874-0.904,1.296c-0.707,0.947-1.461,0.925-2.162-0.107
			C54.86,26.276,54.768,25.859,54.872,25.631z M58.475,33.256c-0.027,0.14-0.27,0.276-0.445,0.336
			c-0.186,0.063-0.402,0.033-0.746,0.052c-0.154-0.042-0.459-0.084-0.713-0.217c-0.088-0.046-0.137-0.362-0.07-0.479
			c0.449-0.789,0.971-0.852,1.729-0.209C58.368,32.857,58.506,33.104,58.475,33.256z M49.549,20.781c0.623-0.036,1.26-0.088,1.871,0
			c0.926,0.132,1.838,0.368,2.748,0.592c0.127,0.031,0.207,0.257,0.367,0.47c-0.652,0.681-1.275,1.384-1.967,2.011
			c-0.184,0.167-0.621,0.211-0.871,0.119c-1.113-0.409-1.975-1.146-2.561-2.193C48.934,21.414,49.155,20.804,49.549,20.781z
			 M54,30.484c-0.045,0.111-0.127,0.419-0.285,0.682c-0.547,0.902-1.105,1.798-1.689,2.676c-0.254,0.385-0.648,0.501-1.1,0.337
			c-0.553-0.202-0.879-0.713-0.768-1.213c0.045-0.206,0.049-0.439,0.15-0.61c0.604-0.995,1.203-1.992,1.869-2.941
			c0.131-0.187,0.572-0.264,0.842-0.221C53.51,29.272,54.075,29.963,54,30.484z M44.987,18.554c0.006,0.01,0.007,0.024,0.012,0.035
			c0.055,0.042,0.11,0.083,0.166,0.125c0.021,0.031,0.033,0.079,0.042,0.131c0.13,0.042,0.261,0.085,0.391,0.127
			c-0.358,0.338-0.355,0.072-0.391-0.127c-0.044-0.014-0.088-0.029-0.132-0.043c-0.023-0.071-0.043-0.146-0.076-0.213
			c-0.056-0.042-0.112-0.084-0.167-0.126C44.885,18.492,44.958,18.509,44.987,18.554z M45.006,28.215
			c0.824-0.822,1.666-1.628,2.512-2.428c0.143-0.136,0.352-0.201,0.598-0.334c0.389,0.307,0.883,0.571,1.186,0.979
			c0.215,0.288,0.361,0.875,0.211,1.145c-0.67,1.195-1.447,2.33-2.209,3.473c-0.404,0.606-0.984,0.723-1.654,0.389
			C43.573,30.402,43.444,29.774,45.006,28.215z M43.663,21.523c0.094,0.185,0.154,0.386,0.287,0.73
			c-0.125,0.265-0.248,0.665-0.48,0.986c-0.676,0.933-1.385,1.841-2.104,2.742c-0.184,0.229-0.484,0.522-0.762,0.201
			c-0.244-0.284-0.434-0.681-0.477-1.048c-0.031-0.271,0.184-0.59,0.342-0.856c0.586-0.992,1.174-1.983,1.801-2.949
			C42.709,20.649,43.266,20.738,43.663,21.523z M37.874,18.439v-0.638c0-3.239,0-3.239,2.791-1.89
			c0.191,0.092,0.383,0.183,0.572,0.281c0.424,0.223,0.65,0.551,0.406,1.018c-0.344,0.656-0.668,1.334-1.105,1.924
			c-0.773,1.041-1.207,2.353-2.398,3.064c-0.121-1.251-0.24-2.502-0.361-3.753C37.811,18.443,37.842,18.44,37.874,18.439z
			 M35.459,29.697c-0.005-0.019-0.004-0.036-0.009-0.056c0.02-0.003,0.032-0.013,0.051-0.016c-0.052-0.638,0.28-1.083,0.768-1.442
			c0.041-0.03,0.164-0.008,0.203,0.034c0.059,0.066,0.123,0.182,0.104,0.254c-0.161,0.569-0.433,1.043-1.074,1.155
			c0.002,0.021-0.004,0.039-0.002,0.061C35.484,29.689,35.473,29.694,35.459,29.697c0.192,0.815-0.425,1.339-0.75,1.966
			c-0.045,0.087-0.154,0.14-0.234,0.208c-0.078-0.19-0.25-0.398-0.219-0.567C34.393,30.581,34.578,29.863,35.459,29.697z
			 M33.243,45.305c-0.125-0.128-0.275-0.27-0.314-0.432c-0.074-0.308-0.08-0.633-0.133-1.121c0.102-0.469,0.166-1.117,0.389-1.705
			c0.568-1.495,1.199-2.965,1.834-4.432c0.047-0.107,0.336-0.135,0.516-0.146c0.059-0.005,0.203,0.176,0.186,0.235
			c-0.486,1.629-1.014,3.227-0.82,4.994c0.113,1.039-0.951,1.614-1.4,2.447C33.456,45.227,33.258,45.322,33.243,45.305z
			 M38.116,44.042c-1.602,2.384-2.057,5.064-2.039,7.87c0.007,1.325,0.004,2.65,0.004,3.976c0.023,0.026,0.041,0.054,0.064,0.08
			c0.003,0.03,0.004,0.061,0.006,0.091c0.144,0.064,0.311,0.117,0.369,0.227c0.07,0.133-0.004,0.343-0.016,0.52
			c-0.1-0.09-0.25-0.162-0.289-0.273c-0.053-0.146-0.054-0.312-0.064-0.474c-0.023-0.011-0.049-0.02-0.07-0.032v-0.14
			c-1.799-2.064-2.399-4.284-1.66-6.526c0.529-1.607,1.102-3.207,1.779-4.755c0.281-0.646,0.873-1.164,1.359-1.708
			c0.068-0.078,0.387-0.033,0.508,0.06c0.152,0.117,0.299,0.339,0.305,0.521C38.379,43.665,38.231,43.87,38.116,44.042z
			 M39.504,40.44c-0.238,0.33-0.531,0.627-0.834,0.903c-0.096,0.087-0.291,0.088-0.438,0.082c-0.041-0.002-0.1-0.172-0.105-0.268
			c-0.055-0.654,0.092-1.256,0.701-1.579c0.166-0.087,0.492,0.131,0.721,0.201C39.536,40.072,39.598,40.311,39.504,40.44z
			 M37.293,34.475c-0.037,0.052-0.193,0.076-0.25,0.041c-0.082-0.051-0.197-0.186-0.178-0.251c0.402-1.438,0.996-2.774,2.191-3.742
			c0.043-0.035,0.318,0.218,0.486,0.337c0.039,0.099,0.139,0.241,0.104,0.289C38.874,32.265,38.088,33.374,37.293,34.475z
			 M40.079,36.346c0.607-1.104,1.299-2.163,1.975-3.231c0.049-0.077,0.182-0.102,0.275-0.15c0.207,0.041,0.432,0.043,0.615,0.13
			c0.385,0.182,0.762,0.387,1.115,0.622c1.492,0.994,1.467,2.961-0.045,3.91c-0.27,0.169-0.562,0.303-0.834,0.468
			c-0.637,0.385-1.215,0.251-1.773-0.167c-0.342-0.254-0.744-0.445-1.029-0.75C40.186,36.972,39.981,36.521,40.079,36.346z
			 M87.602,54.154c-0.084,0.195-0.113,0.413-0.193,0.612c-1.996,5.088-2.684,5.728-7.779,7.656
			c-2.225,0.842-4.473,1.385-6.871,1.275c-1.389-0.064-2.781-0.012-4.174-0.012c-0.002,0.045-0.006,0.092-0.008,0.138
			c-2.771-0.192-5.543-0.39-8.312-0.571c-0.748-0.051-1.502-0.115-2.246-0.074c-3.553,0.197-7.029-0.525-10.535-0.854
			c-1.441-0.135-2.682-0.717-3.578-1.891c-0.775-1.017-1.557-2.032-2.254-3.102c-0.904-1.383-1.266-2.919-1.137-4.585
			c0.146-1.915-0.061-3.869,0.562-5.728c0.266-0.797,0.535-1.672,1.066-2.285c1.254-1.453,2.643-2.795,4.027-4.127
			c0.367-0.352,0.9-0.581,1.396-0.738c2.035-0.642,4.066-1.233,6.256-1.19c2.561,0.05,5.109-0.142,7.669-0.479
			c2.639-0.347,5.34-0.247,8.012-0.312c1.066-0.027,2.102-0.004,3.162-0.343c0.889-0.283,1.9-0.18,2.859-0.242
			c1.912-0.125,3.828,0.184,5.752-0.237c0.752-0.165,1.852,0.005,2.412,0.477c1.082,0.913,2.498,1.578,2.787,3.303
			c0.207,1.244,0.848,2.413,1.275,3.622C88.9,47.712,88.992,50.944,87.602,54.154z M88.1,30.737
			c-0.379,0.39-0.348,1.302-1.219,1.108c-0.568-0.126-0.664-0.939-0.23-1.859c0.355-0.752,0.701-1.513,1.133-2.219
			c0.111-0.181,0.564-0.298,0.791-0.226c0.25,0.081,0.422,0.412,0.6,0.604C89.131,29.189,88.764,30.055,88.1,30.737z M90.48,35.682
			c-0.059,0.047-0.166,0.037-0.391,0.081c-0.188-0.272-0.514-0.565-0.602-0.917c-0.164-0.65,0.223-1.168,0.643-1.638
			c0.297-0.332,0.586-0.13,0.76,0.081C91.49,34.007,91.301,35.03,90.48,35.682z M91.26,43.596c-0.119-0.156-0.34-0.32-0.328-0.466
			c0.023-0.295,0.129-0.608,0.285-0.862c0.092-0.147,0.381-0.303,0.514-0.258c0.143,0.049,0.266,0.32,0.293,0.51
			C92.115,43.156,91.689,43.724,91.26,43.596z M91.629,14.906c-0.164,0.448-0.646,0.508-1.016,0.152
			c-0.635-0.62-0.701-1.122-0.191-1.614c0.23-0.22,0.479-0.422,0.74-0.604c0.17-0.119,0.52-0.293,0.543-0.26
			c0.174,0.232,0.283,0.513,0.416,0.78C91.951,13.904,91.812,14.414,91.629,14.906z M93.938,47.016
			c0.039,0.824-0.488,1.338-1.027,1.836c-0.061,0.056-0.262,0.062-0.297,0.017c-0.1-0.136-0.254-0.364-0.203-0.458
			c0.34-0.631,0.623-1.347,1.5-1.419c-0.113-0.689,0.15-1.185,0.779-1.481c0.059-0.028,0.18,0.001,0.234,0.048
			c0.066,0.061,0.145,0.169,0.137,0.251C94.996,46.492,94.607,46.889,93.938,47.016z M97.858,47.585
			c-0.017,0.036-0.034,0.071-0.052,0.107c-0.025,0.035-0.052,0.07-0.077,0.105c0.209,1.836-1.068,2.96-2.128,4.185
			c-0.055,0.064-0.193,0.075-0.293,0.075c-0.098,0-0.205-0.028-0.289-0.075c-0.086-0.048-0.217-0.188-0.209-0.2
			c0.967-1.333,1.943-2.659,2.919-3.984c-0.008-0.069-0.003-0.132-0.015-0.203C97.757,47.587,97.808,47.586,97.858,47.585
			c0.06-0.121,0.12-0.243,0.179-0.365C98.271,47.594,98.059,47.584,97.858,47.585z M81.699,45.449
			c-0.072-0.785-0.488-1.405-1.076-1.907c-0.635-0.543-1.801-0.722-2.398-0.292c-1.326,0.949-2.555,2.085-2.861,3.726
			c-0.424,2.271-0.135,4.461,1.57,6.263c0.826,0.874,2.236,1.063,3.188,0.297c0.943-0.76,1.639-1.695,1.697-2.964
			c0.037-0.746,0.008-1.496,0.008-2.244c0.02,0,0.041-0.002,0.061-0.002C81.826,47.367,81.785,46.405,81.699,45.449z M50.772,45.112
			c-0.906,0.154-1.555,0.669-2.057,1.388c-0.895,1.277-1.131,2.732-1.201,4.274c0.17,1.042,0.281,2.101,0.533,3.122
			c0.154,0.621,0.592,1.126,1.252,1.354c2.49,0.857,4.24-0.144,4.67-2.685c0.053-0.314,0.057-0.636,0.076-0.955
			c0.105-1.844-0.344-3.591-0.988-5.291C52.659,45.263,51.907,44.919,50.772,45.112z M68.916,56.876
			c-0.648,0.363-1.232,0.853-1.9,1.166c-1.719,0.805-3.436,1.066-5.098-0.212c-0.5-0.385-1.055-0.721-1.626-0.984
			c-0.43-0.198-0.814,0.068-1.115,0.398c-0.311,0.338-0.426,0.691-0.219,1.154c1.137,2.545,3.503,2.855,5.964,3.277
			c0.91-0.229,2-0.348,2.945-0.781c1.047-0.48,2.078-1.118,2.617-2.25c0.248-0.52,0.254-1.02-0.133-1.486
			C70.002,56.738,69.424,56.591,68.916,56.876z M65.01,54.988c0.934-0.083,1.426-0.669,1.441-1.723
			c0.02-1.105-0.467-1.726-1.354-1.733c-1.07-0.008-1.971,0.769-1.908,1.645C63.26,54.134,64.191,55.061,65.01,54.988z"/>
	</g>
</g>
</svg>
