<?xml version="1.0" encoding="utf-8"?>
<!-- Generator: Adobe Illustrator 16.0.0, SVG Export Plug-In . SVG Version: 6.00 Build 0)  -->
<!DOCTYPE svg PUBLIC "-//W3C//DTD SVG 1.1//EN" "http://www.w3.org/Graphics/SVG/1.1/DTD/svg11.dtd">
<svg version="1.1" id="Layer_1" xmlns="http://www.w3.org/2000/svg" xmlns:xlink="http://www.w3.org/1999/xlink" x="0px" y="0px"
	 width="120px" height="120px" viewBox="0 0 120 120" style="enable-background:new 0 0 120 120;" xml:space="preserve">
<g id="github3">
	<g>
		<path style="fill-rule:evenodd;clip-rule:evenodd;" d="M114.197,60.795c0.014,0,0.027-0.001,0.043-0.002
			c-0.096-2.137,0.016-4.309-0.344-6.4c-0.346-2.021-0.512-4.02-0.473-6.052c0.045-2.373-0.416-4.688-0.992-6.955
			c-1.197-4.717-3.348-9-6.33-12.85c-1.242-1.605-2.635-3.095-3.857-4.714c-2.008-2.662-4.328-5.029-6.795-7.242
			c-2.062-1.851-4.189-3.659-6.82-4.725c-0.48-0.195-0.965-0.48-1.334-0.842c-1.938-1.909-4.436-2.632-6.969-2.946
			c-4.125-0.51-8.182-1.457-12.365-1.652c-3.193-0.149-6.361-0.852-9.496,0.316c-3.209,0.097-6.354,0.722-9.512,1.211
			c-3.596,0.557-7.131,1.328-10.443,2.903c-0.58,0.276-1.15,0.588-1.756,0.786c-3.672,1.196-7.217,2.648-10.301,5.044
			c-6.006,3.225-9.861,8.37-12.801,14.33c-0.426,0.862-0.803,1.748-1.227,2.61c-2.035,4.134-3.602,8.449-4.777,12.893
			c-0.598,2.263-1.119,4.58-1.33,6.904c-0.34,3.719-0.461,7.463-0.535,11.199c-0.037,1.912,0.268,3.828,0.35,5.746
			c0.139,3.228,0.836,6.333,1.846,9.391c0.736,2.228,1.402,4.479,2.062,6.731c0.938,3.207,2.346,6.186,4.213,8.951
			c0.896,1.329,1.857,2.618,2.695,3.982c1.199,1.956,2.818,3.476,4.643,4.813c5.07,3.72,10.742,6.116,16.799,7.67
			c0.721,0.185,1.48,0.298,2.137,0.618c1.094,0.532,2.211,0.697,3.41,0.701c2.455,0.005,4.893,0.11,7.344,0.467
			c2.096,0.306,4.318,0.352,6.395-0.006c2.959-0.508,5.953-0.442,8.906-0.929c1.674-0.276,3.389-0.313,5.057-0.743
			c2.891-0.746,5.807-1.388,8.701-2.115c0.719-0.181,1.422-0.475,2.088-0.802c3.264-1.6,6.529-3.195,9.76-4.856
			c3.51-1.802,6.203-4.562,8.389-7.764c1.865-2.729,3.451-5.648,5.146-8.492c0.385-0.642,0.793-1.287,1.045-1.983
			c1.207-3.32,2.861-6.438,4.285-9.659c2.047-4.631,3.467-9.422,3.146-14.576C114.18,61.438,114.197,61.116,114.197,60.795z
			 M50.598,105.355c-0.809,0.35-1.695,0.105-2.383-0.475c-0.203-0.172-0.281-0.572-0.293-0.874
			c-0.109-2.802,0.621-5.464,1.408-8.112c0.027-0.092,0.139-0.158,0.209-0.236c0.09,0.147,0.234,0.287,0.258,0.444
			c0.322,2.096,0.629,4.193,0.939,6.292c-0.029,0.004-0.059,0.008-0.088,0.014c0.078,0.417,0.143,0.836,0.236,1.25
			C51.021,104.275,51.332,105.037,50.598,105.355z M56.084,106.185c-0.549-0.23-0.824-0.714-0.881-1.242
			c-0.262-2.431-0.975-4.811-0.805-7.292c0.059-0.849,0.01-1.705,0.01-2.558h-0.027c0-1.811-0.008-3.621,0.01-5.431
			c0.002-0.197,0.148-0.392,0.227-0.587c0.27,0.132,0.631,0.194,0.787,0.407c0.371,0.505,0.783,1.047,0.93,1.637
			c0.281,1.131,0.502,2.3,0.543,3.461c0.1,2.781,0.545,5.5,1.148,8.207c0.139,0.619,0.174,1.265,0.221,1.901
			C58.383,106.567,57.852,106.931,56.084,106.185z M58.705,77.315c-2.816,0.201-5.844-0.364-8.857-1.114
			c-0.824-0.205-1.705-0.18-2.539-0.357c-2.807-0.601-5.215-1.854-6.865-4.318c-0.982-1.463-1.529-3.056-1.529-4.816
			c0-5.428-0.131-5.303,4.047-9.117c1.355-1.238,2.855-2.241,4.828-2.252c0.512-0.003,1.018-0.304,1.537-0.421
			c1.879-0.424,3.764-0.703,5.711-0.688c3.531,0.024,7.062-0.128,10.594-0.149c2.025-0.012,4.053-0.1,6.045,0.537
			c0.787,0.252,1.705,0.072,2.551,0.184c4.898,0.649,5.473,1.629,6.441,5.79c0.893,3.84-0.121,7.41-2.768,10.453
			c-1.43,1.642-3.104,2.771-5.16,3.596C68.312,76.418,63.797,77.49,58.705,77.315z M38.389,55.254
			c0.016,1.117-0.654,1.752-1.473,2.302c-0.061,0.041-0.379-0.129-0.408-0.243c-0.16-0.641-0.16-1.303,0.289-1.828
			c0.752-0.881,0.811-1.908,0.869-2.998c0.092-1.7,0.363-3.391,0.494-5.09c0.082-1.057,0.061-2.123,0.051-3.183
			c-0.006-0.67-0.219-1.352-0.809-1.662c-1.113-0.589-0.75-1.338-0.406-2.148c0.207-0.49,0.408-0.987,0.566-1.496
			c0.199-0.64-0.156-1.387-0.887-1.425c-1.047-0.056-1.586-0.38-1.639-1.475c-0.025-0.522-0.248-1.033-0.367-1.553
			c-0.02-0.091,0.014-0.275,0.055-0.286c0.158-0.039,0.404-0.099,0.484-0.018c1.5,1.525,3.484,2.449,4.922,4.08
			c0.627,0.712,0.537,1.187,0.236,1.912c-0.229,0.553,0.184,1.155,0.711,1.168c0.633,0.016,1.312,0.086,1.895-0.102
			c2.672-0.863,5.436-1.034,8.197-1.338c2.645-0.292,5.324-0.303,7.936-0.972c0.906-0.233,1.912-0.118,2.873-0.117
			c4.596,0.005,9.193,0.022,13.791,0.043c0.607,0.002,1.023-0.255,1.215-0.819c0.914-2.687,3.094-3.949,5.525-4.924
			c0.717-0.287,1.361,0.06,1.359,0.791c-0.004,1.492,0.041,3.001-0.16,4.472c-0.236,1.722,0.166,3.385,0.273,5.065
			c0.062,0.997,0.768,1.955,1.186,2.93c0.631,1.469,1.305,2.923,1.889,4.413c1.273,3.26,0.797,6.501-0.219,9.717
			c-0.053,0.17-0.285,0.332-0.467,0.391c-0.1,0.031-0.328-0.139-0.396-0.271c-0.094-0.182-0.062-0.423-0.133-0.623
			c-0.451-1.31-0.863-2.635-1.385-3.918c-0.926-2.286-2.486-3.961-4.875-4.772c-0.305-0.102-0.611-0.207-0.893-0.357
			c-0.348-0.187-0.287-0.485-0.139-0.782c0.211-0.424,0.223-0.863-0.264-1.029c-0.164-0.055-0.49,0.297-0.709,0.502
			c-0.223,0.208-0.363,0.517-0.607,0.685c-0.35,0.239-1.289-0.117-1.354-0.502c-0.07-0.418-0.008-0.858-0.082-1.273
			c-0.123-0.677-0.961-0.957-1.486-0.507c-0.324,0.274-0.619,0.583-0.898,0.901c-0.389,0.442-0.58,1.396-1.359,0.989
			c-0.879-0.459-0.064-1.061,0.148-1.588c0.158-0.393,0.332-0.785,0.432-1.192c0.154-0.624-0.164-1.459-0.715-1.628
			c-0.473-0.145-1.113-0.229-1.516-0.022c-0.805,0.415-1.507,1.033-2.246,1.573c0.009,0.034,0.017,0.069,0.025,0.103
			c-0.028,0.006-0.048,0.016-0.074,0.023c0.002,0.482-0.02,0.953-0.568,1.154c0.001,0.037,0.002,0.074,0.002,0.11
			c-0.026,0.013-0.056,0.024-0.085,0.036c0,0.172,0.009,0.348-0.044,0.501c-0.039,0.119-0.221,0.188-0.34,0.28
			c-0.014-0.187-0.102-0.416-0.023-0.548c0.069-0.117,0.25-0.169,0.407-0.233c0-0.038-0.001-0.076,0.001-0.114
			c0.031-0.009,0.054-0.022,0.082-0.033c-0.01-0.484-0.06-0.987,0.568-1.154v-0.089c0.017-0.012,0.032-0.024,0.049-0.037
			c-0.2-0.788-0.314-1.638-1.344-1.841c-1.143-0.226-1.82,0.42-2.346,1.29c-0.551,0.912-1.047,1.856-1.6,2.767
			c-0.088,0.144-0.463,0.295-0.512,0.247c-0.191-0.188-0.422-0.456-0.418-0.69c0.006-0.415,0.266-0.832,0.248-1.24
			c-0.018-0.396-0.193-0.813-0.398-1.166c-0.264-0.453-1.08-0.59-1.408-0.248c-0.439,0.458-0.879,0.935-1.213,1.47
			c-0.336,0.536-0.518,1.165-0.814,1.73c-0.209,0.401-1.09,0.553-1.781,0.361c-0.484-0.134-0.697-0.623-0.533-1.312
			c0.248-1.038,0.523-2.069,0.775-3.106c0.074-0.308,0.201-0.648,0.133-0.935c-0.125-0.53-0.439-1.033-1.031-1.088
			c-0.383-0.036-1.002,0.038-1.15,0.284c-0.715,1.178-1.348,2.413-1.922,3.667c-0.264,0.572-0.295,1.244-0.482,1.855
			c-0.328,1.062-1.018,1.458-2.229,1.229c-0.221-0.042-0.545-0.421-0.535-0.632c0.021-0.519,0.184-1.038,0.338-1.542
			c0.375-1.225,0.791-2.437,1.166-3.661c0.143-0.469-0.09-0.898-0.484-1.06c-0.354-0.145-0.85-0.176-1.197-0.039
			c-0.367,0.145-0.693,0.503-0.932,0.843c-1.291,1.843-2.49,3.738-2.918,6.004c-0.148,0.79-0.586,1.33-1.326,1.683
			c-0.719,0.342-1.367,0.446-1.434,0.102c-0.074-0.383-0.039-0.8,0.016-1.193c0.307-2.234,0.867-4.396,1.879-6.427
			c0.139-0.279,0.199-0.603,0.262-0.913c0.086-0.435-0.348-1.082-0.799-1.267c-0.467-0.191-0.869-0.025-1.148,0.306
			c-0.547,0.649-1.121,1.301-1.525,2.038c-1.291,2.355-2.141,4.894-2.717,7.504C38.289,53.088,38.373,54.189,38.389,55.254z
			 M67.242,105.298c-0.025,0.324-0.418,0.778-0.742,0.892c-0.793,0.277-1.641,0.428-2.475,0.564
			c-0.752,0.123-1.199-0.229-1.354-0.986c-0.084-0.416-0.139-0.84-0.193-1.262c-0.535-4.211-1.457-8.384-1.191-12.673
			c0.066-1.08,0.168-2.108,0.859-3.009c0.619-0.807,1.875-0.833,2.447,0.012c1.162,1.713,1.648,3.692,1.986,5.675
			c0.41,2.402,0.607,4.843,0.895,7.266c-0.066,0.006-0.131,0.012-0.197,0.018C67.277,102.963,67.332,104.137,67.242,105.298z
			 M102.674,78.3c-0.736,1.772-1.568,3.512-2.475,5.203c-4.023,7.523-9.766,13.452-16.932,18.026
			c-2.832,1.807-5.986,2.781-9.26,3.402c-0.574,0.109-1.002-0.289-1.006-0.918c-0.008-1.284-0.014-2.569,0.02-3.852
			c0.084-3.122-0.434-6.158-1.1-9.197c-0.537-2.441-1.41-4.686-2.793-6.765c-0.865-1.302-0.229-3.18,1.27-3.592
			c4.531-1.247,8.277-3.902,12.055-6.521c0.174-0.121,0.324-0.287,0.512-0.386c3.354-1.779,5.275-4.901,7.338-7.876
			c0.48-0.692,0.85-1.507,1.076-2.319c0.947-3.402,1.836-6.849,1.436-10.411c-0.287-2.535-0.754-5.073-1.42-7.535
			c-0.287-1.06-1.217-1.986-1.98-2.864c-0.678-0.781-0.967-1.587-0.947-2.615c0.035-1.818-0.029-3.638-0.072-5.457
			c-0.061-2.582-0.715-5.069-1.24-7.576c-0.146-0.699-0.586-1.16-1.203-1.387c-0.361-0.132-0.824-0.104-1.209-0.01
			c-0.285,0.069-0.506,0.375-0.773,0.55c-1.516,0.995-3.059,1.948-4.547,2.98c-1.93,1.338-3.855,2.689-5.707,4.131
			c-0.811,0.63-1.605,0.962-2.625,0.957c-3.529-0.015-7.061,0.019-10.592,0.039c-1.602,0.01-3.188-0.026-4.764,0.479
			c-0.893,0.286-1.904,0.22-2.863,0.277c-0.748,0.046-1.512-0.054-2.244,0.067c-3.67,0.609-6.969-0.237-9.922-2.455
			c-2.607-1.957-5.643-2.983-8.662-4.044c-0.908-0.318-1.775,0.161-1.904,1.127c-0.283,2.114-0.607,4.239-0.652,6.365
			c-0.049,2.342,0.195,4.69,0.316,7.035c0.072,1.425-0.281,2.86-0.926,4.003c-1.982,3.519-1.619,7.27-1.311,10.971
			c0.201,2.422,0.744,4.859,1.715,7.139c0.373,0.877,0.781,1.757,1.301,2.552c0.99,1.519,2.062,2.983,3.121,4.456
			c0.562,0.78,1.146,1.543,1.75,2.291c1.752,2.174,4.002,3.462,6.783,3.87c1.473,0.216,2.936,0.527,4.381,0.886
			c0.715,0.176,1.414,0.496,2.055,0.862c0.549,0.312,1.006,0.784,1.502,1.185c-0.418,0.417-0.814,0.861-1.26,1.246
			c-2.344,2.023-4.863,3.851-6.795,6.322c-1.156,1.479-2.801,1.36-4.418,1.159c-0.287-0.036-0.588-0.264-0.809-0.479
			c-0.992-0.97-1.844-2.005-2.381-3.353c-0.869-2.186-2.004-4.26-3.797-5.864c-0.635-0.566-1.301-1.137-2.043-1.534
			c-2.912-1.561-4.387-0.893-6.629,1.102c-0.369,0.329-0.256,1.201,0.211,1.394c0.779,0.324,1.582,0.752,2.396,0.805
			c2.213,0.145,3.473,1.572,4.5,3.221c0.723,1.164,1.188,2.496,1.703,3.779c0.316,0.79,0.533,1.623,0.75,2.449
			c1.123,4.287,6.217,5.936,9.533,4.258c0.857-0.435,1.678-0.939,2.533-1.38c0.365-0.188,0.861-0.51,1.139-0.393
			c0.484,0.202,0.146,0.729,0.059,1.113c-0.191,0.831-0.451,1.649-0.605,2.488c-0.307,1.679-0.594,3.362-0.832,5.053
			c-0.287,2.054-0.48,2.218-2.668,2.239c-2.406,0.023-4.686-0.576-6.801-1.609c-2.688-1.312-5.275-2.825-7.887-4.287
			c-1.23-0.691-2.18-1.707-3.008-2.847c-1.133-1.556-2.318-3.072-3.445-4.631c-1.066-1.474-1.932-3.041-2.645-4.739
			c-1.41-3.357-2.732-6.725-3.422-10.314c-0.502-2.621-1.016-5.228-1.031-7.925c-0.023-4.06-0.59-8.099-0.463-12.173
			c0.053-1.721,0.17-3.411,0.568-5.08c1.168-4.886,2.527-9.712,4.533-14.335c0.727-1.672,1.5-3.306,2.674-4.728
			c0.816-0.989,1.58-2.023,2.332-3.062c2.182-3.013,5.016-5.215,8.342-6.829c0.568-0.276,1.098-0.642,1.619-1.006
			c3.627-2.534,7.553-4.434,11.863-5.451c1.758-0.416,3.559-0.732,5.355-0.895c4.789-0.431,9.559-1.203,13.807-0.868
			c2.514,0,4.439,0.026,6.365-0.005c3.137-0.052,6.154,0.519,9.105,1.556c1.004,0.353,2.029,0.729,3.074,0.854
			c2.371,0.282,4.17,1.569,5.857,3.075c2.473,2.206,5.035,4.332,7.33,6.713c3.799,3.943,7.115,8.191,8.553,13.699
			c0.789,3.012,1.434,6.009,1.75,9.095c0.084,0.84,0.268,1.694,0.564,2.481c0.541,1.43,0.725,2.89,0.721,4.4
			c-0.004,1.07,0.025,2.141,0.068,3.209C106.811,65.95,105.197,72.223,102.674,78.3z M68.266,59.298
			c-1.061,0.151-1.992,0.953-2.193,2.007c-0.137,0.721-0.135,1.469-0.197,2.224c0.07,0.723,0.053,1.479,0.23,2.187
			c0.387,1.543,2.635,2.201,3.84,1.175c1.746-1.485,2.223-4.425,1.025-6.369C70.348,59.509,69.426,59.132,68.266,59.298z
			 M49.062,59.687c-1.229-0.201-2.535,0.6-3.109,1.711c-0.514,0.992-0.514,2.032-0.465,3.094c0.055,1.15,0.648,1.981,1.555,2.627
			c1.518,1.078,3.594,0.357,4.049-1.442c0.152-0.607,0.143-1.256,0.17-1.528c-0.01-1.984-0.135-2.444-0.697-3.397
			C50.215,60.158,49.693,59.79,49.062,59.687z"/>
	</g>
</g>
</svg>
