<?xml version="1.0" encoding="utf-8"?>
<!-- Generator: Adobe Illustrator 16.0.0, SVG Export Plug-In . SVG Version: 6.00 Build 0)  -->
<!DOCTYPE svg PUBLIC "-//W3C//DTD SVG 1.1//EN" "http://www.w3.org/Graphics/SVG/1.1/DTD/svg11.dtd">
<svg version="1.1" id="Layer_1" xmlns="http://www.w3.org/2000/svg" xmlns:xlink="http://www.w3.org/1999/xlink" x="0px" y="0px"
	 width="120px" height="120px" viewBox="0 0 120 120" style="enable-background:new 0 0 120 120;" xml:space="preserve">
<g id="bitbucket">
	<g>
		<path style="fill-rule:evenodd;clip-rule:evenodd;" d="M102.564,30.479c-0.088-1.705-0.254-3.412-0.492-5.104
			c-0.256-1.812-0.748-3.594-2.036-4.963c-1.02-1.082-2.156-2.072-3.332-2.987c-2.563-1.993-5.385-3.438-8.646-3.983
			c-2.521-0.421-5.034-0.916-7.486-1.693c-1.727-0.546-3.479-1.133-5.263-1.359c-3.28-0.418-6.56-0.963-9.897-0.779
			c-1.277,0.07-2.611,0.164-3.839-0.111c-2.019-0.455-4.034-0.406-6.47-0.453c-1.613,0.105-3.627,0.008-5.659,0.395
			c-3.351,0.637-6.743,1.125-10.142,1.436c-4.259,0.389-8.092,1.822-11.703,4.031c-1.271,0.777-2.659,1.359-3.947,2.113
			c-1.566,0.914-3.133,1.844-4.604,2.898c-1.192,0.855-1.829,2.104-1.599,3.631c0.238,1.582,0.518,3.158,0.821,4.729
			c0.749,3.876,1.521,7.748,2.288,11.62c0.807,4.083,1.643,8.159,2.417,12.247c0.695,3.668,1.343,7.348,1.979,11.027
			c0.799,4.627,1.543,9.264,2.352,13.887c0.773,4.416,1.684,8.805,2.277,13.254c0.438,3.271,1.224,6.496,1.832,9.746
			c0.121,0.648,0.273,1.266,0.798,1.699c1.313,1.086,2.539,2.33,3.991,3.186c1.625,0.959,3.266,2.004,5.258,2.209
			c0.832,0.086,1.631,0.482,2.449,0.725c1.534,0.453,3.062,0.932,4.607,1.34c4.155,1.1,8.439,1.266,12.686,1.688
			c0.637,0.062,1.293,0.074,1.925-0.006c3.072-0.389,6.151-0.742,9.204-1.256c1.676-0.283,3.373-0.689,4.938-1.338
			c2.959-1.223,5.838-2.645,8.73-4.021c0.767-0.363,1.418-1.092,2.207-1.262c1.506-0.324,1.986-1.191,2.382-2.59
			c0.376-1.332,0.842-2.658,0.991-4.02c0.527-4.791,1.686-9.457,2.615-14.168c0.806-4.084,1.809-8.131,2.18-12.299
			c0.179-2.014,0.605-4.01,0.977-6.002c0.879-4.722,1.969-9.414,2.629-14.165c0.457-3.288,1.006-6.558,1.795-9.759
			C102.557,36.847,102.729,33.688,102.564,30.479z M41.256,96.842c-0.078,0.541-0.109,0.961-0.213,1.365
			c-0.041,0.156-0.334,0.404-0.363,0.385c-0.244-0.16-0.494-0.346-0.66-0.582c-0.107-0.15-0.168-0.441-0.094-0.596
			c0.307-0.652,0.666-1.279,1.021-1.908c0.044-0.078,0.233-0.174,0.253-0.154c0.116,0.113,0.295,0.268,0.282,0.389
			C41.436,96.152,41.318,96.559,41.256,96.842z M89.096,80.895c-0.79,4.197-1.586,8.393-2.382,12.588
			c-0.06,0.312-0.032,0.695-0.204,0.93c-1.186,1.631-2.109,3.586-3.935,4.562c-4.05,2.162-7.983,4.576-12.327,6.15
			c-0.4,0.146-0.838,0.197-1.23,0.357c-0.655,0.27-0.9,0.004-1.158-0.6c-0.496-1.164-0.973-1.518-1.467-1.312
			c-0.715,0.295-0.736,0.939-0.854,1.58c-0.208,1.137-0.43,1.344-1.367,1.375c-0.961,0.031-1.926,0.02-2.887-0.004
			c-0.625-0.014-0.766-0.301-0.628-1.086c0.091-0.516,0.267-1.062,0.175-1.553c-0.064-0.34-0.477-0.768-0.812-0.859
			c-0.32-0.086-0.815,0.127-1.102,0.367c-0.311,0.26-0.479,0.693-0.688,1.064c-0.973,1.719-1.035,1.775-2.979,1.494
			c-0.625-0.09-1.24-0.297-1.836-0.514c-0.262-0.094-0.65-0.314-0.311-0.691c0.904-1.006,0.829-2.131,0.492-3.314
			c-0.176-0.615-0.223-1.287-0.496-1.85c-0.27-0.553-0.701-1.055-1.157-1.477c-0.547-0.508-1.634-0.119-1.805,0.602
			c-0.099,0.41-0.136,0.836-0.224,1.395c0.197,0.82,0.445,1.746,0.637,2.684c0.139,0.68-0.16,1.24-0.616,1.732
			c-0.282,0.307-0.952,0.271-1.088-0.102c-0.399-1.1-0.799-2.203-1.13-3.322c-0.078-0.264,0.078-0.621,0.188-0.912
			c0.188-0.498,0.479-0.965,0.611-1.477c0.066-0.25-0.041-0.639-0.215-0.842c-0.314-0.363-0.779-0.324-1.16-0.078
			c-0.354,0.229-0.658,0.537-0.98,0.814c-0.383,0.328-0.615,1.02-1.217,0.852c-0.771-0.215-0.59-1.023-0.734-1.615
			c-0.255-1.035-0.488-2.076-0.799-3.096c-0.082-0.264-0.436-0.65-0.639-0.637c-1.028,0.072-1.715-0.207-2.045-1.277
			c-0.053-0.17-0.752-0.232-1.135-0.186c-0.395,0.045-0.762,0.371-1.152,0.398c-0.186,0.014-0.565-0.379-0.566-0.59
			c-0.003-0.4,0.141-0.836,0.334-1.197c0.502-0.943,1.074-1.848,1.598-2.779c0.208-0.369,0.416-0.752,0.531-1.156
			c0.162-0.561-0.047-1.039-0.496-1.416c-0.426-0.355-1.045-0.389-1.441,0.041c-0.792,0.863-1.52,1.781-2.291,2.66
			c-0.133,0.152-0.353,0.227-0.531,0.336c-0.102-0.176-0.246-0.34-0.295-0.531c-0.131-0.516-0.148-1.072-0.343-1.561
			c-0.549-1.387,0.054-2.502,0.76-3.596c0.255-0.395,0.681-0.479,1.121-0.285c2.05,0.906,4.065,1.902,6.154,2.707
			c2.911,1.123,5.949,1.629,9.087,1.684c3.736,0.064,7.453,0.686,11.204,0.469c1.171-0.066,2.342-0.137,3.515-0.189
			c0.417-0.02,0.853-0.062,1.252,0.029c3.355,0.77,6.352-0.32,9.223-1.842c3.59-1.902,7.123-3.912,10.683-5.869
			c0.183-0.102,0.392-0.158,0.587-0.236c0.242-0.098,0.625,0.244,0.605,0.541C89.119,80.469,89.135,80.686,89.096,80.895z
			 M96.203,36.12c0.107,2.588-0.24,5.1-0.854,7.613c-0.454,1.857-0.664,3.781-0.92,5.684c-0.56,4.13-1.349,8.213-2.26,12.279
			c-0.441,1.977-0.676,3.998-0.994,6.002c-0.066,0.422-0.074,0.852-0.126,1.277c-0.19,1.545-0.824,2.785-2.12,3.77
			c-2.318,1.764-4.798,3.201-7.512,4.24c-4.602,1.762-9.383,2.879-14.174,3.963c-2.308,0.521-4.639,0.717-7,0.629
			c-0.748-0.027-1.5-0.037-2.246,0.002c-4.523,0.234-8.962-0.391-13.342-1.404c-1.754-0.404-3.452-1.098-5.121-1.791
			c-1.052-0.438-1.12-0.912-0.807-2.043c0.194-0.705,0.377-1.438,0.377-2.16c0-0.291-0.455-0.672-0.791-0.838
			c-0.188-0.092-0.656,0.088-0.818,0.289c-0.396,0.496-0.664,1.092-1.029,1.617c-0.483,0.699-1.131,0.691-1.907,0.031
			c-0.354-0.299-0.597-0.68-0.405-1.107c0.787-1.752,1.609-3.488,2.439-5.219c0.23-0.479,0.561-0.906,0.797-1.383
			c0.258-0.525-0.045-1.189-0.686-1.615c-0.42-0.279-0.803-0.166-1.158,0.123c-0.925,0.752-1.648,1.666-2.199,2.727
			c-0.342,0.656-0.74,1.285-1.127,1.918c-0.045,0.076-0.206,0.158-0.271,0.131c-0.155-0.064-0.382-0.17-0.411-0.295
			c-0.262-1.174-0.231-2.287,0.332-3.426c1.043-2.105,1.953-4.277,2.92-6.42c0.264-0.583,0.562-1.154,0.801-1.748
			c0.276-0.691,0.069-1.367-0.465-1.691c-0.512-0.311-1.336-0.285-1.777,0.209c-0.707,0.789-1.316,1.665-1.973,2.5
			c-0.063,0.081-0.168,0.131-0.254,0.195c-0.084-0.172-0.275-0.373-0.235-0.508c1.034-3.482,2.142-6.939,3.935-10.129
			c0.242-0.432,0.138-0.889-0.229-1.129c-0.323-0.213-0.797-0.346-1.17-0.289c-0.387,0.059-0.853,0.301-1.075,0.611
			c-0.742,1.037-1.426,2.121-2.065,3.225c-0.423,0.732-0.729,1.531-1.103,2.293c-0.037,0.076-0.188,0.172-0.245,0.148
			c-0.175-0.068-0.447-0.166-0.474-0.293c-0.451-2.224-0.614-4.406,0.438-6.564c0.793-1.629,1.407-3.348,2.062-5.041
			c0.188-0.485,0.361-1.033,0.316-1.533c-0.029-0.346-0.391-0.729-0.703-0.963c-0.393-0.296-0.901-0.121-1.141,0.225
			c-0.604,0.873-1.101,1.82-1.668,2.72c-0.102,0.163-0.334,0.243-0.506,0.362c-0.1-0.162-0.264-0.312-0.292-0.484
			c-0.639-4.008-1.351-7.996-2.617-11.865c-0.265-0.811-0.442-1.662-0.81-2.424c-0.504-1.045-0.452-2.023-0.133-3.102
			c0.366-1.24,0.736-2.473,1.526-3.504c0.513-0.67,1.059-1.406,1.761-1.824c2.752-1.639,5.541-3.236,8.713-3.953
			c2.914-0.66,5.836-1.283,8.756-1.913c0.312-0.067,0.637-0.081,0.957-0.097c4.906-0.25,9.791-0.949,14.721-0.714
			c0.213,0.011,0.428,0.001,0.642,0.001v-0.016c1.177,0,2.356,0.037,3.532-0.008c5.389-0.199,10.663,0.533,15.791,2.142
			c2.249,0.706,4.53,1.229,6.819,1.735c0.87,0.193,1.588,0.562,2.296,1.061c4.824,3.391,7.107,8.111,7.295,13.92
			C96.258,33.549,96.15,34.838,96.203,36.12z M86.533,19.598c-3.732-1.801-7.422-3.624-11.834-3.113
			c-2.951,0.344-5.938,0.133-8.932-0.211c-3.381-0.389-6.824-0.215-10.241-0.285c-4.786,0.305-9.614-0.229-14.369,0.711
			c-1.147,0.225-2.325,0.359-3.432,0.715c-3.188,1.023-5.848,3.052-8.622,4.819c-1.66,1.058-2.541,4.183-0.03,6.036
			c0.511,0.377,1.062,0.732,1.646,0.975c1.869,0.773,3.747,1.538,5.652,2.223c5.297,1.902,10.892,1.852,16.391,2.401
			c2.459,0.246,4.883-0.319,7.324-0.472c3.299-0.207,6.6-0.327,9.893-0.666c3.328-0.34,6.523-1.125,9.531-2.531
			c2.135-0.996,4.328-1.799,6.547-2.559c0.401-0.137,0.846-0.193,1.205-0.401c0.859-0.491,1.676-1.192,1.717-2.184
			c0.047-1.144-0.171-2.329-0.473-3.444C88.246,20.649,87.385,20.01,86.533,19.598z M37.09,26.969
			c-0.117,0.094-0.234,0.186-0.354,0.279c-0.066-0.186-0.219-0.391-0.182-0.553c0.05-0.223,0.242-0.41,0.375-0.613
			c0.062,0.192,0.139,0.381,0.184,0.577C37.135,26.756,37.1,26.866,37.09,26.969z M84.805,23.789
			c-0.967,0.446-1.949,0.862-2.93,1.282c-1.078,0.461-2.188,0.857-3.23,1.385c-2.8,1.414-5.754,2.209-8.874,2.459
			c-2.44,0.197-4.876,0.467-7.312,0.703c-0.005-0.05-0.011-0.1-0.017-0.15c-0.853,0.04-1.706,0.088-2.56,0.119
			c-1.647,0.059-1.64,0.053-2.104-1.865c-0.071-0.295-0.228-0.59-0.414-0.832c-0.112-0.146-0.367-0.279-0.541-0.262
			c-0.179,0.021-0.368,0.205-0.499,0.365c-0.491,0.594-0.101,1.213-0.027,1.828c0.093,0.77-0.121,1.158-0.648,1.236
			c-0.752,0.109-1.536,0.197-2.018-0.553c-0.219-0.342-0.298-0.791-0.375-1.205c-0.289-1.565-0.54-3.139-0.84-4.701
			c-0.029-0.153-0.312-0.381-0.452-0.363c-0.278,0.031-0.662,0.136-0.788,0.342c-0.662,1.078-0.422,2.271-0.275,3.426
			c0.092,0.736,0.327,1.451,0.462,2.184c0.067,0.371-0.373,0.855-0.771,0.842c-0.526-0.02-1.062-0.053-1.572-0.172
			c-0.559-0.133-0.93-0.521-0.947-1.129c-0.031-1.174,0.002-2.352-0.065-3.523c-0.029-0.514-0.175-1.047-0.387-1.518
			c-0.104-0.232-0.482-0.477-0.729-0.469c-0.225,0.007-0.607,0.326-0.633,0.542c-0.11,0.95-0.178,1.917-0.145,2.872
			c0.031,0.907-0.308,1.664-0.737,2.402c-0.089,0.15-0.338,0.284-0.517,0.287c-0.178,0.004-0.469-0.123-0.523-0.264
			c-0.266-0.691-0.49-1.4-0.689-2.114c-0.201-0.714-0.314-1.452-0.539-2.157c-0.225-0.715-0.631-0.863-1.48-0.598
			c-0.2,0.062-0.381,0.195-0.584,0.236c-0.565,0.115-1.132-0.203-1.266-0.68c-0.176-0.639,0.162-1.412,0.734-1.59
			c0.402-0.125,0.826-0.256,1.24-0.257c3.766-0.007,7.379-1.055,11.058-1.632c3.096-0.484,6.157-0.32,9.239-0.109
			c0.848,0.059,1.686,0.258,2.533,0.32c2.549,0.186,5.113,0.106,7.65,0.57c1.034,0.189,2.143,0.178,3.191,0.051
			c1.852-0.221,3.592,0.018,5.337,0.654c1.29,0.472,2.655,0.738,3.977,1.129c0.169,0.051,0.358,0.289,0.388,0.465
			C85.146,23.477,84.956,23.719,84.805,23.789z M63.474,46.247c-1.056-0.127-2.135-0.143-3.2-0.108
			c-3.219,0.104-8.017,2.716-9.854,5.323c-0.246,0.348-0.455,0.724-0.656,1.1c-1.18,2.205-1.884,4.528-1.699,7.045
			c-0.1,1.955,0.223,3.835,0.666,5.72c0.575,2.443,2.121,3.861,4.432,4.578c1.014,0.312,2.029,0.627,3.057,0.889
			c0.82,0.209,1.654,0.387,2.494,0.5c3.08,0.416,5.487-1.41,8.121-2.479c4.854-3.242,6.9-9.222,5.738-14.248
			C71.568,50.228,67.873,46.774,63.474,46.247z M67.185,60.208c-1.544,1.882-2.894,3.974-5.075,5.224
			c-0.619,0.355-1.346,0.523-1.741,0.672c-3.169-0.504-5.667-1.469-7.183-4.141c-0.445-0.785-0.712-1.597-0.477-2.433
			c0.459-1.629,0.967-3.252,1.604-4.816c0.315-0.773,0.942-1.443,2.002-1.162c0.193,0.052,0.459,0.123,0.6,0.036
			c2.234-1.358,4.564-0.208,6.844-0.263c0.666-0.017,1.217,0.468,1.504,1.053c0.746,1.524,1.455,3.068,2.096,4.639
			C67.49,59.344,67.408,59.936,67.185,60.208z"/>
	</g>
</g>
</svg>
