<?xml version="1.0" encoding="utf-8"?>
<!-- Generator: Adobe Illustrator 16.0.0, SVG Export Plug-In . SVG Version: 6.00 Build 0)  -->
<!DOCTYPE svg PUBLIC "-//W3C//DTD SVG 1.1//EN" "http://www.w3.org/Graphics/SVG/1.1/DTD/svg11.dtd">
<svg version="1.1" id="Layer_1" xmlns="http://www.w3.org/2000/svg" xmlns:xlink="http://www.w3.org/1999/xlink" x="0px" y="0px"
	 width="120px" height="120px" viewBox="0 0 120 120" style="enable-background:new 0 0 120 120;" xml:space="preserve">
<g id="stackoverflow">
	<g>
		<path style="fill-rule:evenodd;clip-rule:evenodd;" d="M105.829,77.445c-0.182-0.781-0.604-1.274-1.438-1.526
			c-3.84-1.157-7.773-1.303-11.732-1.187c-0.41,0.012-0.932,0.087-1.201,0.344c-1.141,1.088-2.516,2.019-2.84,3.738
			c-0.193,1.049-0.508,2.088-0.588,3.144c-0.262,3.513-0.832,7.005-0.711,10.545c0.023,0.64,0,1.284-0.035,1.924
			c-0.041,0.729-0.48,1.229-1.184,1.271c-0.959,0.059-1.922,0.044-2.885,0.062c-3.955,0.081-7.941-0.111-11.859,0.326
			c-3.414,0.381-6.811,0.467-10.225,0.5c-3.531,0.033-7.059,0.028-10.59,0.055c-0.961,0.007-1.941-0.04-2.883,0.114
			C42.983,97.526,38.267,97,33.575,97.26c-0.623,0.034-0.969-0.354-1.084-0.945c-0.123-0.627-0.297-1.252-0.342-1.886
			c-0.297-4.155-0.561-8.312-0.842-12.47c-0.158-2.342-0.301-4.686-0.521-7.023c-0.045-0.489-0.273-1.08-0.623-1.401
			c-0.998-0.915-2.285-1.242-3.564-0.872c-3.994,1.159-7.979,2.35-11.582,4.555c-1.072,0.655-1.521,1.328-1.404,2.553
			c0.188,2.017,0.348,4.043,0.389,6.067c0.096,4.919,0.203,9.841,0.135,14.76c-0.045,3.224,0.365,6.395,0.666,9.581
			c0.047,0.486,0.369,0.959,0.619,1.408c0.203,0.36,0.588,0.641,0.719,1.016c0.547,1.612,1.775,1.979,3.289,1.96
			c2.031-0.026,4.064,0.048,6.094-0.023c6.941-0.243,13.883-0.532,20.826-0.804c0.213-0.008,0.432,0.009,0.639-0.027
			c3.393-0.584,6.824-0.431,10.24-0.461c3.637-0.031,7.271,0.009,10.908-0.021c1.496-0.012,2.992-0.104,4.486-0.201
			c1.488-0.097,2.971-0.306,4.459-0.351c2.029-0.062,4.064-0.016,6.096-0.016c6.604-0.224,13.26,0.067,19.699-1.895
			c0.4-0.123,0.85-0.077,1.271-0.144c0.885-0.135,1.129-0.361,1.178-1.211c0.172-2.986,0.385-5.971,0.459-8.959
			c0.117-4.598,0.121-9.197,0.197-13.797c0.016-0.957,0.053-1.932,0.246-2.864C106.675,81.625,106.308,79.535,105.829,77.445z
			 M101.501,84.061c-0.201,5.557-0.461,11.111-0.701,16.666c-0.047,1.068-0.094,2.138-0.164,3.205
			c-0.039,0.595-0.367,1.011-0.959,1.117c-1.996,0.358-3.986,0.821-6,0.997c-3.619,0.314-7.252,0.568-10.881,0.638
			c-8.24,0.157-16.48,0.188-24.721,0.269v-0.072c-8.027,0-16.055,0.002-24.084-0.002c-0.854-0.001-1.715,0.002-2.564-0.078
			c-0.26-0.025-0.656-0.28-0.713-0.502c-0.467-1.802-1.633-2.326-3.379-2.104c-0.818,0.104-0.949-0.034-0.811-0.891
			c0.121-0.746-0.119-1.25-0.57-1.726c-0.479-0.511-1.141-0.658-1.773-0.503c-0.818,0.201-1.602,0.552-2.398,0.845
			c-0.361,0.134-0.811-0.285-0.684-0.708c0.115-0.388,0.27-0.831,0.557-1.086c0.471-0.42,1.098-0.659,1.59-1.062
			c1.562-1.279,1.326-2.468-0.602-3.22c-0.611-0.236-0.727-0.449-0.416-0.812c0.279-0.321,0.623-0.59,0.877-0.927
			c1.271-1.687,0.588-3.36-1.527-3.754c-0.199-0.038-0.428,0.099-0.633,0.075c-0.471-0.056-0.824-0.874-0.531-1.243
			c0.264-0.329,0.543-0.666,0.879-0.909c0.605-0.438,1.32-0.736,1.879-1.222c0.631-0.55,1.25-1.177,1.676-1.888
			c0.6-1,0.092-2.155-0.902-2.711c-1.146-0.643-2.254-0.36-3.406-0.088c-0.199,0.047-0.615-0.229-0.697-0.443
			c-0.096-0.252,0.014-0.621,0.129-0.9c0.068-0.17,0.297-0.314,0.488-0.387c0.596-0.233,1.193-0.493,1.816-0.626
			c3.879-0.83,3.91-2.091,3.865,2.988c-0.035,3.744,0.109,7.491,0.27,11.233c0.092,2.131,0.367,4.255,0.58,6.381
			c0.113,1.098,0.518,1.461,1.613,1.562c3.082,0.289,6.16,0.781,9.248,0.828c5.988,0.094,12,0.203,17.971-0.191
			c5.668-0.375,11.32-0.473,16.988-0.455c3.959,0.012,7.918-0.093,11.879-0.114c1.711-0.009,3.422,0.071,5.135,0.093
			c0.641,0.008,1.283-0.005,1.92-0.064c0.703-0.066,1.17-0.541,1.273-1.227c0.141-0.948,0.279-1.896,0.398-2.848
			c0.146-1.152,0.664-1.878,1.838-2.332c1.549-0.601,1.943-1.439,1.705-2.997c-0.074-0.49-0.307-1.119-0.68-1.367
			c-0.936-0.625-1.453-1.544-2.037-2.422c-0.898-1.347-0.836-2.373,0.156-3.749c1.264-1.752,1.324-1.921-0.111-3.545
			c-0.678-0.766-0.67-1.506-0.525-2.36c0.08-0.474,0.375-0.795,0.846-0.809c1.924-0.055,3.85-0.087,5.773-0.095
			c0.553-0.002,0.969,0.426,1,1.053C101.456,81.067,101.556,82.567,101.501,84.061z M43.675,45.903
			c2.486,1.31,5.131,2.106,7.906,2.415c2.791,0.31,5.418,1.086,7.963,2.255c1.35,0.621,2.771,1.107,4.195,1.546
			c4.377,1.352,8.777,2.636,13.156,3.986c0.705,0.217,1.34,0.651,2.014,0.969c0.967,0.455,1.918,0.948,2.914,1.323
			c1.279,0.481,2.516,0.272,3.684-0.44c0.939-0.573,1.061-1.504,1.264-2.462c0.578-2.707,1.234-5.398,1.857-8.097
			c0.279-1.216,1.732-1.858,2.686-1.159c0.947,0.697,1.846,1.457,2.801,2.142c0.797,0.573,1.34,1.175,1.605,2.236
			c0.379,1.521,2.109,1.934,3.338,1.008c0.777-0.585,1.414-1.28,1.855-2.17c1.234-2.488,2.508-4.957,3.762-7.436
			c0.145-0.286,0.305-0.575,0.381-0.881c0.301-1.203,0.377-2.364-0.941-3.063c-0.549-0.292-0.744-0.742-0.682-1.312
			c0.152-1.321-0.545-2.192-1.432-3.048c-3.387-3.266-6.697-6.613-10.107-9.853c-2.4-2.28-4.863-4.505-7.4-6.632
			c-3.691-3.092-7.387-6.146-10.229-10.104c-1.369-1.908-2.594-2.105-4.732-1.09c-0.475,0.224-0.936,0.522-1.314,0.881
			c-2.01,1.919-4.006,3.858-5.979,5.816c-0.449,0.446-0.928,0.94-1.162,1.507c-0.525,1.279-0.955,2.604-1.334,3.936
			c-0.293,1.014,0.016,1.895,0.893,2.543c0.775,0.571,1.559,1.131,2.299,1.742C69.03,27.498,75.118,32.545,81.2,37.597
			c0.24,0.201,0.428,0.467,0.623,0.716c0.037,0.044,0.01,0.181-0.035,0.233c-0.064,0.076-0.178,0.167-0.264,0.161
			c-1.406-0.105-2.691-0.641-3.926-1.261c-1.93-0.969-3.971-1.52-6.082-1.91c-1.988-0.367-3.977-0.766-5.949-1.222
			c-4.564-1.053-9.119-2.15-13.678-3.225c-0.309-0.073-0.631-0.101-0.707-0.113c-1.588,0.285-2.943,0.533-4.299,0.767
			c-0.873,0.15-0.971,0.343-0.838,1.553c0.029,0.286,0.062,0.695-0.1,0.862c-2.027,2.107-2.424,4.952-3.414,7.52
			c-0.258,0.665-0.211,1.471-0.199,2.21C42.349,44.812,42.829,45.458,43.675,45.903z M80.237,26.658
			c-0.027,0.103-0.051,0.208-0.068,0.312c-0.422,2.346-0.422,2.348-2.234,1.036c-0.52-0.375-1.045-0.743-1.535-1.152
			c-0.43-0.359-0.652-0.799-0.473-1.408c0.299-1.021,0.594-2.051,0.787-3.096c0.135-0.722,0.221-1.498,0.09-2.207
			c-0.08-0.444-0.523-0.939-0.938-1.175c-0.471-0.27-1.027-0.036-1.465,0.334c-0.85,0.715-1.273,1.697-1.715,2.67
			c-0.17,0.38-0.338,0.763-0.531,1.133c-0.029,0.058-0.203,0.097-0.273,0.066c-0.182-0.078-0.471-0.18-0.492-0.308
			c-0.061-0.4-0.105-0.842,0-1.223c0.35-1.229,0.684-2.474,1.182-3.645c0.593-1.404,0.335-2.759,0.066-4.134
			c-0.047-0.043-0.093-0.087-0.139-0.13c-0.025-0.036-0.048-0.074-0.072-0.111c-0.359-0.005-0.727,0.017-1.057-0.082
			c-0.225-0.067-0.379-0.387-0.541-0.609c-0.02-0.029,0.096-0.228,0.154-0.23c0.266-0.013,0.625-0.087,0.789,0.052
			c0.269,0.229,0.45,0.562,0.654,0.87c0.055,0.001,0.109,0,0.164,0.003c0.016,0.08,0.031,0.159,0.047,0.238
			c1.663,1.564,3.311,3.145,4.994,4.686c5.516,5.045,11.035,10.088,16.219,15.48c1.703,1.769,3.488,3.458,5.588,4.773
			c0.682,0.425,0.734,0.689,0.422,1.285c-0.297,0.567-0.646,1.108-0.93,1.68c-1.412,2.851-1.256,2.368-3.539,0.625
			c-1.693-1.294-3.264-2.75-4.893-4.131c-2.279-1.933-4.531-3.901-6.861-5.774c-0.795-0.641-0.965-1.333-0.773-2.236
			c0.131-0.625,0.303-1.248,0.367-1.881c0.094-0.899-0.23-1.673-0.916-2.277C81.64,25.496,80.442,25.823,80.237,26.658z
			 M51.382,38.499c0.26-0.675,0.885-0.916,1.57-0.869c5.162,0.354,10.135,1.43,14.746,3.889c1.605,0.854,3.246,1.608,5.072,1.928
			c0.859,0.15,1.662,0.307,2.51-0.012c1.047-0.395,2.053-0.237,3.125,0.091c1.523,0.465,3.111,0.709,4.676,1.043
			c0.611,0.131,1.051,0.576,0.906,1.098c-0.625,2.255-1.293,4.499-1.973,6.737c-0.027,0.092-0.391,0.195-0.506,0.13
			c-3.68-2.07-7.906-2.557-11.781-4.065c-0.756-0.294-1.328-0.614-1.605-1.39c-0.145-0.397-0.258-0.879-0.551-1.134
			c-0.551-0.478-1.178-0.933-1.852-1.184c-0.664-0.246-1.18,0.316-1.678,0.723c-0.138,0.112-0.312,0.18-0.477,0.259
			c-0.002,0.034-0.006,0.068-0.008,0.103c-0.023,0.004-0.048,0.006-0.071,0.01c-0.02,0.281-0.012,0.574-0.106,0.825
			c-0.051,0.131-0.355,0.245-0.527,0.224c-0.164-0.019-0.402-0.212-0.424-0.355c-0.023-0.167,0.109-0.455,0.254-0.524
			c0.239-0.116,0.529-0.128,0.804-0.17c0.002-0.025,0.002-0.052,0.005-0.077c0.024-0.013,0.05-0.023,0.074-0.035
			c0.035-0.499,0.097-0.999,0.082-1.496c-0.039-1.306-0.881-2.043-2.127-1.61c-1.662,0.578-3.584,0.639-4.814,2.241
			c-0.357,0.463-1.021,0.231-1.475-0.058c-0.223-0.141-0.443-0.499-0.428-0.745c0.023-0.41,0.311-0.799,0.361-1.212
			c0.152-1.257-0.99-2.248-2.24-1.939c-0.514,0.126-0.99,0.398-1.494,0.581c-0.488,0.178-0.885-0.104-0.77-0.561
			C50.872,40.12,51.079,39.289,51.382,38.499z M36.628,70.189c2.979,0.187,5.955,0.398,8.932,0.61
			c0.639,0.046,1.305,0.038,1.902,0.231c1.766,0.57,3.588,0.478,5.395,0.588c3.725,0.229,7.465,0.33,11.178,0.688
			c3.803,0.367,7.646,0.469,11.373,1.543c1.756,0.507,3.646-0.783,4.098-2.684c0.49-2.068,0.883-4.168,1.199-6.271
			c0.26-1.732-0.521-3.143-2.225-3.829c-1.67-0.673-3.42-1.176-5.17-1.616c-1.646-0.415-3.338-0.65-5.012-0.965
			c-0.732-0.138-1.457-0.365-2.193-0.4c-2.791-0.13-5.463-0.814-8.152-1.502c-3.5-0.896-7.045-1.615-10.572-2.409
			c-0.104-0.022-0.213-0.015-0.32-0.032c-1.682-0.281-3.406-0.412-5.031-0.888c-1.701-0.499-3.168-0.013-4.635,0.615
			c-1.008,0.431-1.752,1.226-2.078,2.312c-0.248,0.812-0.465,1.638-0.635,2.47c-0.213,1.041-0.367,2.094-0.543,3.142
			c-0.281,1.676-0.561,3.352-0.775,4.644C33.378,69.193,34.216,70.038,36.628,70.189z M46.327,60.638
			c0.023-0.397,0.594-0.756,0.963-0.618c3.613,1.36,7.533,1.444,11.178,2.732c1.586,0.563,3.328,0.814,5.018,0.937
			c2.369,0.172,4.674,0.587,6.871,1.432c1.236,0.476,2.49,0.532,3.758,0.682c0.586,0.069,0.953,0.43,1.027,1.038
			c0.131,1.057-0.498,1.742-1.473,1.475c-1.555-0.426-3.113-0.695-4.725-0.783c-2.346-0.13-4.684-0.384-7.027-0.557
			c-1.607-0.118-3.189-0.178-4.268-1.701c-0.352-0.493-1.131-0.324-1.699,0.201c-0.303,0.278-0.525,0.68-0.871,0.871
			c-0.793,0.445-1.752-0.048-1.896-0.923c-0.051-0.314,0.004-0.649-0.068-0.958c-0.188-0.815-0.781-1.363-1.537-1.403
			c-0.533-0.026-1.072,0.081-1.6,0.036c-1.105-0.094-1.891,0.229-2.156,1.405c-0.045,0.206-0.1,0.466-0.244,0.583
			c-0.377,0.299-0.805,0.531-1.039,0.681c-0.48-0.069-0.746-0.032-0.891-0.146c-0.217-0.173-0.543-0.521-0.488-0.675
			C45.665,63.539,46.237,62.159,46.327,60.638z M39.827,60.015c0.246-0.886,0.826-1.237,1.646-1.04
			c0.516,0.124,1.023,0.277,1.533,0.429c0.098,0.029,0.18,0.11,0.27,0.168c-0.055,0.086-0.092,0.193-0.168,0.255
			c-0.566,0.479-1.152,0.937-1.713,1.423c-0.607,0.525-1.029,0.574-1.357,0.247C39.575,61.036,39.688,60.518,39.827,60.015z
			 M81.396,85.008c-0.227-2.119-0.414-4.246-0.723-6.354c-0.217-1.5-1.082-2.523-2.643-2.846c-0.418-0.086-0.826-0.289-1.238-0.29
			c-2.562-0.004-5.127-0.024-7.686,0.075c-2.236,0.087-4.465,0.358-6.699,0.485c-2.219,0.126-4.42,0.669-6.676,0.132
			c-0.684-0.162-1.471,0.148-2.213,0.194c-3.299,0.2-6.533,0.97-9.861,1.008c-1.795,0.02-3.6,0.402-5.375,0.747
			c-1.24,0.24-2.078,1.042-2.299,2.361c-0.16,0.945-0.426,1.885-0.471,2.834c-0.094,1.917-0.121,3.84-0.07,5.758
			c0.027,0.971,0.348,2.016,1.219,2.507c2.117,1.194,4.229,2.359,6.822,2.38c4.072,0.032,8.072-0.715,12.119-0.934
			c1.807-0.096,3.611-0.301,5.406-0.555c4.014-0.566,8.031-1.018,12.088-1.15c2.021-0.065,4.039-0.325,6.047-0.573
			c1.48-0.183,2.277-1.124,2.316-2.577c0.021-0.747,0.004-1.495,0.004-2.242h-0.064C81.399,85.648,81.431,85.324,81.396,85.008z
			 M64.669,86.869c-3.805,0.477-7.613,0.932-11.418,1.428c-1.902,0.247-3.795,0.561-5.691,0.854
			c-0.42,0.064-0.832,0.215-1.254,0.248c-3.539,0.278-3.332,0.371-3.371-3.078c0-0.641-0.029-1.282,0.01-1.92
			c0.027-0.463,0.318-0.76,0.793-0.842c0.736-0.127,1.469-0.271,2.207-0.377c2.74-0.393,5.479-0.807,8.229-1.144
			c1.373-0.167,2.766-0.181,4.148-0.271c2.125-0.141,4.254-0.284,6.379-0.433c0.492-0.034,0.801,0.374,0.498,0.828
			c-0.877,1.312-0.873,2.553,0.014,3.857C65.489,86.429,65.21,86.801,64.669,86.869z M74.526,86.219
			c-0.85,0.056-1.703,0.01-2.557,0.01v0.08c-0.637,0-1.277,0.015-1.916-0.004c-0.508-0.016-0.877-0.393-0.672-0.787
			c0.672-1.307,0.229-2.473-0.297-3.663c-0.188-0.428,0.088-0.724,0.609-0.759c0.672-0.044,1.141,0.189,1.67,0.667
			c1.404,1.264,2.379,1.074,3.674-0.493c0.133-0.159,0.275-0.309,0.416-0.463c0.113,0.172,0.299,0.332,0.334,0.52
			c0.176,0.938,0.379,1.88,0.451,2.829C76.358,85.67,75.966,86.123,74.526,86.219z"/>
	</g>
</g>
</svg>
