<?xml version="1.0" encoding="utf-8"?>
<!-- Generator: Adobe Illustrator 16.0.0, SVG Export Plug-In . SVG Version: 6.00 Build 0)  -->
<!DOCTYPE svg PUBLIC "-//W3C//DTD SVG 1.1//EN" "http://www.w3.org/Graphics/SVG/1.1/DTD/svg11.dtd">
<svg version="1.1" id="Layer_1" xmlns="http://www.w3.org/2000/svg" xmlns:xlink="http://www.w3.org/1999/xlink" x="0px" y="0px"
	 width="120px" height="120px" viewBox="0 0 120 120" style="enable-background:new 0 0 120 120;" xml:space="preserve">
<g id="forrst">
	<g>
		<path style="fill-rule:evenodd;clip-rule:evenodd;" d="M110.342,112.83c-0.07-1.047-0.201-2.031-0.693-2.99
			c-1.744-3.416-3.436-6.859-5.135-10.296c-0.826-1.669-1.711-3.317-2.423-5.037c-2.388-5.757-5.157-11.315-8.226-16.737
			c-1.733-3.066-3.309-6.229-4.836-9.402c-3.15-6.545-6.342-13.076-10.102-19.29c-3.014-4.986-5.665-10.121-7.859-15.518
			c-1.097-2.691-2.17-5.378-3.066-8.14c-0.353-1.084-0.751-2.154-1.124-3.23c-1.218-3.524-2.454-7.043-3.646-10.578
			c-0.566-1.667-1.021-3.371-1.581-5.041c-0.298-0.879-0.655-1.75-1.097-2.566c-0.527-0.98-1.408-1.497-2.549-1.489
			c-1.192,0.01-1.956,0.702-2.372,1.717c-1.334,3.261-2.661,6.526-3.893,9.825c-2.359,6.308-4.69,12.625-7.703,18.665
			c-0.369,0.741-0.682,1.511-1.004,2.276c-1.239,2.964-2.354,5.988-3.733,8.886c-2.982,6.276-5.476,12.762-8.28,19.112
			c-3.057,6.922-5.982,13.904-8.977,20.852c-0.904,2.094-1.876,4.158-2.768,6.256c-2.432,5.725-4.846,11.456-7.248,17.19
			c-0.76,1.815-1.48,3.649-2.185,5.487c-0.353,0.918-0.171,1.66,0.591,2.184c0.496,0.341,1.095,0.697,1.666,0.73
			c1.366,0.084,2.63,0.527,3.939,0.805c1.717,0.361,3.479,0.598,5.23,0.669c2.695,0.106,5.397,0.028,8.095,0.028
			c0,0.031,0,0.064,0.002,0.096c2.283-0.064,4.574-0.018,6.844-0.211c6.007-0.515,12.021-0.557,18.04-0.551
			c0.207,0,0.416-0.002,0.624-0.014c0.798-0.041,1.108-0.335,1.112-1.141c0.015-3.945-0.006-7.89,0.027-11.834
			c0.022-3.107,0.047-3.109-2.075-5.521c-0.481-0.546-0.959-1.095-1.47-1.61c-2.117-2.141-4.25-4.262-6.363-6.406
			c-0.58-0.587-1.143-1.197-1.637-1.853c-0.118-0.155-0.032-0.634,0.129-0.789c0.174-0.164,0.578-0.222,0.822-0.144
			c0.383,0.123,0.741,0.364,1.061,0.617c1.952,1.545,3.892,3.104,5.829,4.668c0.565,0.454,1.098,0.953,1.662,1.41
			c0.241,0.193,0.525,0.33,0.792,0.488c0.259,0.154,0.614-0.067,0.589-0.406c-0.142-1.963-0.33-3.921-0.447-5.885
			c-0.131-2.176-0.193-4.355-0.304-6.532c-0.167-3.312-0.394-6.622-0.504-9.935c-0.062-1.934,0.252-2.199,2.058-2.322
			c0.413-0.029,0.83-0.051,1.243-0.045c5.11,0.061,4.364-0.764,4.436,4.439c0.021,1.539-0.297,3.103,0.239,4.617
			c1.74-0.429,2.518-2.021,3.715-3.105c0.77-0.691,1.434-1.498,2.168-2.232c0.365-0.365,0.758-0.713,1.176-1.015
			c0.731-0.522,1.817-0.47,2.287,0.069c0.42,0.479,0.43,1.365-0.012,2.031c-0.229,0.343-0.492,0.666-0.771,0.975
			c-1.604,1.765-3.2,3.537-4.828,5.278c-1.061,1.137-2.166,2.235-3.264,3.335c-0.557,0.555-0.779,1.209-0.723,1.975
			c0.032,0.412,0.042,0.828,0.09,1.24c0.365,3.19,0.731,6.379,1.114,9.565c0.062,0.509,0.147,1.03,0.341,1.493
			c0.088,0.207,0.538,0.462,0.712,0.396c0.675-0.246,1.346-0.555,1.946-0.943c2.696-1.748,5.355-3.559,8.059-5.293
			c0.865-0.557,1.812-1,2.76-1.41c0.738-0.319,1.594,0.146,2.031,0.984c0.271,0.524,0.102,1.23-0.436,1.667
			c-0.32,0.261-0.664,0.497-1.018,0.708c-4.289,2.521-8.58,5.038-12.871,7.553c-0.721,0.422-0.934,0.771-0.774,1.5
			c0.604,2.738,0.646,5.543,1.032,8.309c0.172,1.229,0.328,2.463,0.512,3.692c0.093,0.608,0.516,0.847,1.1,0.833
			c0.412-0.012,0.827-0.039,1.243-0.064c6.644-0.384,13.288-0.127,19.919,0.23c3.203,0.172,6.41,0.478,9.623,0.502
			c2.09,0.016,4.152,0.209,6.164,0.71c1.855,0.464,3.488-0.144,5.049-0.897C109.83,115.744,110.453,114.469,110.342,112.83z
			 M102.594,108.92c-0.395,0.439-0.532,1.107-0.785,1.675c-0.412,0.93-1.629,1.512-2.176,0.845
			c-0.939-1.152-2.125-1.123-3.342-1.274c-0.512-0.063-1.027-0.181-1.504-0.368c-0.251-0.099-0.467-0.373-0.611-0.619
			c-0.09-0.155-0.021-0.404-0.021-0.612c-0.006-0.728,0.059-1.517-0.759-1.879c-0.878-0.388-1.621-0.095-2.184,0.653
			c-0.643,0.852-1.509,0.486-2.297,0.414c-1.264-0.111-1.362-0.272-1.195-1.527c0.055-0.411,0.14-0.82,0.158-1.232
			c0.037-0.762-0.273-1.326-0.801-1.541c-0.559-0.229-1.119-0.046-1.613,0.55c-0.129,0.157-0.204,0.36-0.312,0.538
			c-0.286,0.488-0.675,0.75-1.275,0.613c-0.705-0.162-1.421-0.276-2.124-0.439c-0.472-0.11-0.681-0.488-0.644-0.923
			c0.039-0.511,0.236-1.011,0.274-1.52c0.044-0.596-0.511-1.231-1.083-1.341c-0.57-0.109-1.045,0.102-1.339,0.567
			c-0.556,0.874-1.038,1.792-1.585,2.672c-0.285,0.464-0.678,0.31-1.05,0.073c-0.317-0.201-0.86-0.215-0.661-0.827
			c0.162-0.493,0.306-0.993,0.487-1.478c0.345-0.92-0.002-1.561-0.7-2.172c-0.749-0.656-0.723-0.77,0.033-1.32
			c2.013-1.463,4.018-2.943,6.085-4.329c2.772-1.856,3.384-3.89,1.938-6.865c-0.426-0.872-1.372-1.351-2.323-1.165
			c-0.203,0.039-0.415,0.076-0.6,0.16c-2.636,1.213-5.292,2.393-7.895,3.67c-1.206,0.594-2.306,1.405-3.466,2.089
			c-0.756,0.446-1.338,1.271-2.372,1.142c-0.11-0.809-0.182-1.632-0.346-2.432c-0.378-1.842-0.491-3.699-0.47-5.57
			c0.006-0.553,0.16-1.052,0.667-1.311c1.247-0.639,2.092-1.671,2.903-2.76c0.437-0.582,0.931-1.121,1.434-1.646
			c1.213-1.269,2.49-2.454,3.061-4.229c0.242-0.755,0.926-1.365,1.396-2.05c0.446-0.657,0.541-1.361,0.095-2.044
			c-0.624-0.951-1.279-1.888-1.963-2.799c-0.243-0.323-0.586-0.587-0.923-0.825c-1.166-0.819-2.047-0.775-3.068,0.193
			c-0.524,0.502-1,1.057-1.467,1.611c-0.465,0.557-0.879,1.158-1.338,1.717c-0.125,0.15-0.337,0.226-0.508,0.336
			c-0.092-0.172-0.256-0.338-0.26-0.508c-0.018-1.034-0.043-2.074,0.006-3.11c0.115-2.442-0.468-3.172-2.874-3.392
			c-0.72-0.066-1.454-0.014-2.179-0.029c-2.284-0.055-4.567-0.114-6.851-0.174c-0.622-0.014-1.247-0.074-1.867-0.037
			c-1.735,0.104-2.459,0.812-2.486,2.515c-0.04,2.389-0.009,4.778-0.009,7.167c-0.034,0.002-0.066,0.006-0.101,0.008
			c0.208,3.205,0.424,6.413,0.622,9.619c0.059,0.932,0.093,1.869,0.085,2.803c-0.004,0.256-0.197,0.512-0.303,0.768
			c-0.188-0.086-0.406-0.133-0.552-0.262c-1.872-1.643-3.733-3.297-5.596-4.951c-0.309-0.274-0.599-0.58-0.926-0.832
			c-1.148-0.888-2.647-0.784-3.667,0.237c-0.073,0.073-0.163,0.138-0.216,0.222c-1.584,2.537-2.808,2.988,0.07,6.156
			c3.628,3.996,7.165,8.076,10.793,12.07c1.04,1.146,1.641,2.363,1.539,3.922c-0.04,0.619-0.01,1.244-0.002,1.867
			c0.038,2.866-0.07,2.462-2.6,2.396c-0.622-0.016-1.244,0.018-1.867,0.008c-0.502-0.006-0.663-0.244-0.543-0.826
			c0.188-0.914,0.413-1.82,0.596-2.736c0.154-0.768-0.077-1.428-0.618-1.995c-0.536-0.564-1.376-0.628-1.956-0.153
			c-0.743,0.611-1.241,1.379-1.578,2.272c-0.516,1.353-1.039,2.702-1.588,4.042c-0.063,0.153-0.434,0.349-0.479,0.311
			c-0.191-0.162-0.447-0.414-0.44-0.621c0.024-0.616,0.142-1.232,0.269-1.838c0.191-0.914,0.372-1.834,0.652-2.72
			c0.248-0.774-0.014-1.435-0.284-2.101c-0.362-0.897-1.039-1.297-1.941-1.223c-0.877,0.07-1.552,0.596-1.648,1.576
			c-0.214,2.196-1.252,4.146-1.757,6.251c-0.021,0.085-0.318,0.134-0.49,0.146c-0.062,0.004-0.165-0.132-0.197-0.223
			c-0.03-0.087-0.009-0.203,0.015-0.3c0.464-1.912,0.94-3.821,1.395-5.731c0.288-1.21,0.585-2.416,0.8-3.641
			c0.085-0.489,0.055-1.054-0.116-1.51c-0.121-0.327-0.547-0.694-0.877-0.738c-0.318-0.045-0.743,0.244-1.018,0.501
			c-0.203,0.189-0.239,0.56-0.348,0.847c-1.281,3.394-2.562,6.788-3.853,10.178c-0.07,0.186-0.208,0.348-0.32,0.518
			c-0.17,0.248-0.904,0.385-1.128,0.139c-0.178-0.195-0.293-0.52-0.286-0.785c0.004-0.295,0.183-0.588,0.275-0.883
			c1.415-4.553,2.84-9.104,4.229-13.662c0.21-0.685,0.333-1.412,0.366-2.125c0.017-0.375-0.199-0.791-0.396-1.141
			c-0.356-0.615-1.491-0.68-1.89-0.124c-0.239,0.337-0.468,0.689-0.639,1.064c-2.105,4.639-3.611,9.491-5.046,14.366
			c-0.229,0.779-0.176,1.645-0.253,2.469c-0.078,0.809-0.301,0.988-1.224,0.986c-0.959-0.002-1.298-0.449-0.999-1.383
			c0.949-2.963,1.917-5.916,2.873-8.875c0.61-1.873,1.226-3.744,1.812-5.623c0.352-1.137,0.438-2.245-0.54-3.174
			c-0.432-0.409-0.353-0.887-0.207-1.428c0.997-3.701,1.919-7.42,2.944-11.113c0.779-2.803,1.886-5.489,3.214-8.08
			c0.307-0.603,0.761-0.906,1.497-0.853c0.608,0.046,1.256,0.005,1.831-0.173c0.328-0.1,0.698-0.519,0.771-0.857
			c0.073-0.334-0.097-0.836-0.341-1.102c-0.339-0.367-0.885-0.537-1.258-0.881c-0.186-0.172-0.292-0.572-0.237-0.824
			c0.112-0.498,0.339-0.977,0.557-1.443c1.02-2.196,0.754-2.192,3.165-2.155c1.067,0.017,2.067-0.13,2.852-0.958
			c0.244-0.256,0.286-0.927-0.008-1.12c-0.511-0.332-1.038-0.667-1.603-0.888c-0.464-0.185-1.008-0.166-1.488-0.319
			c-0.402-0.127-0.322-0.544-0.172-0.779c0.206-0.324,0.498-0.673,0.837-0.813c0.358-0.149,0.812-0.079,1.223-0.083
			c2.493-0.027,4.989-0.118,7.477-0.047c2.104,0.062,4.12-0.455,6.178-0.681c0.595-0.064,1.196-0.36,1.724-0.668
			c0.47-0.273,0.673-0.802,0.55-1.351c-0.124-0.548-0.523-0.887-1.074-0.978c-0.408-0.068-0.828-0.103-1.24-0.083
			c-1.454,0.064-2.929,0.018-4.349,0.271c-2.894,0.516-5.803,0.22-8.698,0.385c-0.572,0.032-0.801-0.282-0.57-0.722
			c0.286-0.551,0.603-1.089,0.896-1.637c0.269-0.504,0.699-0.695,1.249-0.784c1.018-0.167,2.06-0.3,3.03-0.631
			c0.76-0.261,1.476-0.739,2.126-1.234c0.784-0.598,0.58-1.64-0.335-1.928c-0.489-0.154-0.997-0.284-1.505-0.337
			c-1.635-0.171-1.611-0.156-0.735-1.605c0.584-0.972,1.293-1.562,2.49-1.514c0.722,0.028,1.456-0.053,2.17-0.165
			c0.845-0.134,1.541-0.563,2.086-1.244c0.734-0.917,0.341-2.208-0.788-2.424c-0.606-0.115-1.237-0.102-1.857-0.155
			c-1.063-0.091-1.188-0.332-0.739-1.386c0.288-0.667,0.654-1.312,0.839-2.006c0.318-1.19,0.993-1.688,2.24-1.672
			c0.809,0.01,1.631-0.23,2.426-0.446c0.379-0.103,0.728-0.378,1.044-0.631c0.612-0.489,0.589-1.495-0.085-1.86
			c-0.625-0.338-1.333-0.518-1.991-0.805c-0.413-0.181-0.64-0.536-0.521-0.994c0.13-0.496,0.341-0.974,0.5-1.464
			c0.349-1.079,0.923-1.804,2.208-1.795c0.953,0.006,1.812-0.384,2.505-1.084c0.377-0.381,0.349-1.103-0.106-1.336
			c-0.364-0.188-0.741-0.369-1.135-0.487c-0.292-0.089-0.635-0.017-0.919-0.122c-0.27-0.099-0.605-0.311-0.414-0.682
			c1.039-2.026,2.086-4.048,3.167-6.051c0.129-0.235,0.493-0.345,0.745-0.513c0.144,0.253,0.328,0.494,0.424,0.763
			c1.784,5.087,3.421,10.23,5.364,15.258c2.836,7.345,5.551,14.74,9.658,21.542c4.025,6.665,7.426,13.668,10.619,20.776
			c1.184,2.643,2.729,5.125,4.142,7.663c3.181,5.718,6.114,11.55,8.377,17.704c0.464,1.258,1.102,2.457,1.698,3.664
			c0.781,1.58,1.568,3.162,2.422,4.703C103.251,107.516,103.27,108.166,102.594,108.92z"/>
	</g>
</g>
</svg>
