<?xml version="1.0" encoding="utf-8"?>
<!-- Generator: Adobe Illustrator 16.0.0, SVG Export Plug-In . SVG Version: 6.00 Build 0)  -->
<!DOCTYPE svg PUBLIC "-//W3C//DTD SVG 1.1//EN" "http://www.w3.org/Graphics/SVG/1.1/DTD/svg11.dtd">
<svg version="1.1" id="Layer_1" xmlns="http://www.w3.org/2000/svg" xmlns:xlink="http://www.w3.org/1999/xlink" x="0px" y="0px"
	 width="120px" height="120px" viewBox="0 0 120 120" style="enable-background:new 0 0 120 120;" xml:space="preserve">
<g id="zerply">
	<g>
		<path style="fill-rule:evenodd;clip-rule:evenodd;" d="M98.229,84.645c0-1.713-0.016-3.424,0.007-5.133
			c0.011-0.912-0.248-1.686-0.951-2.283c-0.432-0.365-0.902-0.586-1.449-0.248c-0.363,0.225-0.699,0.494-1.065,0.713
			c-4.141,2.488-8.452,4.547-13.212,5.619c-2.51,0.566-4.898,0.023-7.292-0.445c-1.253-0.246-2.351-1.031-3.235-2
			c-0.574-0.631-1.109-1.301-1.619-1.986c-1.338-1.803-2.645-3.631-3.979-5.436c-0.569-0.773-1.463-1.439-1.693-2.293
			c-0.297-1.094,1.303-1.201,1.67-2.121c0.23-0.58,0.705-1.064,1.085-1.582c1.774-2.412,3.571-4.805,5.325-7.23
			c3.699-5.105,7.527-10.129,10.262-15.869c0.637-1.338,1.496-2.596,2.408-3.77c1.18-1.516,2.539-2.893,3.781-4.361
			c2.629-3.111,4.883-6.479,6.984-9.969c1.507-2.502,1.972-5.133,1.773-7.986c-0.197-2.834-1.397-5.141-3.488-6.977
			c-1.568-1.381-3.395-2.158-5.562-2.1c-1.749,0.049-3.363,0.488-4.945,1.186c-2.272,0.998-4.324,2.324-6.198,3.945
			c-0.3,0.258-0.644,0.635-1.113,0.301c-2.47-1.754-5.363-2.641-8.063-3.916c-4.203-1.984-8.59-3.266-13.334-2.793
			C53.156,8.028,51.973,8.008,50.795,8c-2.383-0.018-4.674,0.48-6.901,1.266c-3.536,1.242-6.407,3.365-8.464,6.545
			c-0.812,1.256-1.675,2.48-2.553,3.689c-1.895,2.607-2.643,5.539-2.678,8.729c-0.033,2.902,1.305,4.869,3.831,6.131
			c0.382,0.189,0.774,0.363,1.175,0.514c2.27,0.855,4.603,0.854,6.944,0.416c2.323-0.434,4.587-1.115,6.637-2.297
			c2.485-1.434,5.058-1.457,7.757-0.906c1.776,0.361,3.574,0.639,5.375,0.861c1.101,0.135,2.06,0.527,2.944,1.152
			c0.38,0.268,0.569,0.67,0.392,1.105c-0.199,0.494-0.492,0.949-0.751,1.416c-2.228,4.045-4.987,7.721-7.868,11.307
			c-1.736,2.166-3.562,4.258-5.385,6.352c-0.139,0.16-0.573,0.168-0.834,0.1c-2.576-0.68-5.17-1.312-7.712-2.109
			c-3.394-1.066-6.541-0.469-9.587,1.133c-0.945,0.496-1.832,1.109-2.794,1.566c-4.544,2.156-6.825,5.962-7.88,10.679
			c-0.188,0.832-0.374,1.67-0.484,2.514c-0.38,2.898-0.468,5.797,1.119,8.404c0.884,1.451,1.909,2.848,3.051,4.104
			c1.494,1.643,3.417,2.465,5.704,2.451c1.751-0.01,3.405-0.355,4.96-1.109c1.053-0.512,2.038-1.16,3.051-1.754
			c0.594-0.348,0.9-0.268,1.306,0.342c1.739,2.613,2.862,5.504,3.653,8.51c0.496,1.891,1.3,3.621,2.277,5.277
			c1.033,1.748,2.102,3.482,3.27,5.143c1.791,2.545,3.791,4.926,6.427,6.65c1.606,1.053,3.294,1.986,4.961,2.947
			c3.698,2.131,7.659,3.006,11.954,3.059c5.394,0.064,10.094-1.859,14.45-4.6c5.126-3.225,7.975-8.203,9.429-14.021
			C98.305,90.625,98.391,87.645,98.229,84.645z M85.615,96.592c-1.059,1.467-2.265,2.836-3.498,4.166
			c-2.16,2.326-4.975,3.219-8.053,3.441c-0.107,0.006-0.215-0.004-0.321-0.004c-0.827,0.008-1.269-0.439-1.034-1.17
			c0.399-1.238,0.617-2.486,0.556-3.785c-0.032-0.664-0.252-1.234-0.734-1.719c-0.966-0.967-2.351-0.824-2.897,0.416
			c-0.644,1.465-1.131,2.996-1.732,4.482c-0.175,0.432-0.574,0.598-1.051,0.365c-0.191-0.094-0.386-0.182-0.578-0.273
			c-2.115-1.012-2.429-1.08-1.721-3.652c0.339-1.232,0.537-2.504,0.75-3.766c0.143-0.846,0.179-1.691-0.203-2.516
			c-0.359-0.773-0.944-1.223-1.713-1.217c-0.725,0.006-1.247,0.383-1.502,1.008c-0.482,1.184-0.896,2.395-1.309,3.604
			c-0.172,0.504-0.252,1.037-0.4,1.549c-0.19,0.654-0.758,0.865-1.182,0.436c-0.447-0.457-0.887-0.926-1.284-1.424
			c-0.343-0.432-0.457-0.902-0.243-1.484c0.819-2.225,0.952-4.592,1.367-6.9c0.148-0.832,0.117-1.709,0.051-2.555
			c-0.043-0.541-0.416-0.975-0.951-1.193c-0.393-0.16-0.936,0.168-1.248,0.766c-0.896,1.709-1.61,3.488-2.084,5.363
			c-0.064,0.256-0.301,0.467-0.457,0.699c-0.246-0.197-0.559-0.348-0.725-0.596c-0.475-0.709-0.902-1.451-1.324-2.195
			c-0.539-0.951-0.792-1.967-0.678-3.074c0.164-1.592,0.319-3.186,0.416-4.783c0.064-1.062,0.062-2.135,0.008-3.197
			c-0.029-0.592-0.686-1.162-1.285-1.277c-0.57-0.111-1.074,0.062-1.443,0.486c-0.348,0.4-0.615,0.873-0.935,1.299
			c-0.387,0.52-0.474,0.523-0.862-0.113c-1.049-1.715-2.471-3.229-2.859-5.309c-0.056-0.299-0.268-0.576-0.439-0.846
			c-0.332-0.521-1.141-0.791-1.702-0.547c-0.39,0.168-0.765,0.381-1.126,0.605c-2.113,1.322-4.451,1.35-6.819,1.191
			c-0.544-0.039-0.896-0.49-0.956-1.096c-0.205-2.064,0.314-4.043,0.75-6.02c0.188-0.855,0.777-1.531,1.613-1.891
			c0.686-0.293,1.383-0.58,2.102-0.764c2.273-0.582,4.555-1.139,6.845-1.65c0.503-0.113,1.104-0.139,1.575,0.031
			c1.979,0.709,4.043,0.232,6.051,0.51c0.342,0.047,0.838-0.229,1.095-0.508c0.731-0.799,1.442-1.48,2.595-1.728
			c1.047-0.225,1.781-1.039,2.504-1.885c4.543-5.314,8.299-11.131,11.436-17.365c1.203-2.391,2.56-4.689,4.207-6.812
			c0.391-0.502,0.721-1.059,1.039-1.613c0.211-0.367,0.416-0.758,0.513-1.164c0.253-1.074,0.282-2.156-0.548-3.018
			c-0.936-0.971-2.117-0.879-3.291-0.559c-0.295,0.08-0.557,0.307-0.815,0.494c-0.47,0.34-0.892,0.422-1.436,0.062
			c-1.523-1.01-3.146-1.809-4.97-2.15c-0.412-0.076-0.923-0.197-1.166-0.486c-1-1.184-1.922-0.887-3.018-0.127
			c-0.545,0.377-1.36-0.15-1.443-0.797c-0.068-0.527,0.053-1.113-0.137-1.584c-0.229-0.561-0.646-1.076-1.081-1.512
			c-0.3-0.303-0.815-0.391-1.167-0.037c-0.676,0.676-1.289,1.414-1.944,2.111c-0.136,0.145-0.345,0.217-0.521,0.322
			c-0.055-0.205-0.117-0.406-0.16-0.615c-0.064-0.312-0.068-0.646-0.178-0.941c-0.398-1.076-1.164-1.316-2.268-0.736
			c-0.836,0.439-0.883,0.447-0.965-0.24c-0.092-0.756-0.225-1.465-0.701-2.094c-0.627-0.826-1.799-1.014-2.52-0.277
			c-0.668,0.682-1.23,1.467-1.862,2.186c-0.062,0.07-0.382,0.047-0.423-0.023c-0.102-0.176-0.143-0.402-0.152-0.613
			c-0.031-0.742-0.949-1.23-0.599-2.072c0.356-0.855,1.108-1.279,1.886-1.648c1.741-0.828,3.5-1.609,5.49-1.592
			c0.426,0.002,0.869-0.012,1.275-0.121c3.721-0.994,7.176,0.029,10.594,1.359c0.297,0.117,0.65,0.193,0.865,0.402
			c2.061,2.014,4.832,2.646,7.334,3.799c0.477,0.219,1.002,0.451,1.51,0.465c1.69,0.043,3.395,0.094,5.07-0.078
			c0.801-0.082,1.598-0.586,2.312-1.033c1.086-0.678,2.057-1.545,3.155-2.199c0.999-0.596,2.097-1.025,3.163-1.504
			c1.043-0.467,2.067-0.068,2.574,1.191c0.618,1.535,0.706,3.148-0.025,4.674c-1.244,2.6-2.404,5.25-4.18,7.562
			c-1.438,1.873-2.562,3.934-3.591,6.057c-0.698,1.443-1.458,2.857-2.245,4.252c-1.835,3.252-4.23,6.135-6.148,9.346
			c-1.857,3.111-4.107,5.99-6.234,8.936c-1.947,2.697-4.18,5.142-6.768,7.248c-1.886,1.535-2.886,3.678-3.885,5.807
			c-0.333,0.711-0.32,1.494,0.082,2.168c0.655,1.098,1.293,2.227,2.111,3.197c1.937,2.291,3.729,4.67,5.25,7.262
			c2.586,4.408,6.658,6.455,11.568,7.076c1.059,0.135,2.135,0.127,3.203,0.184c2.824,0.166,5.537-0.283,8.139-1.41
			c0.381-0.164,0.892,0.273,0.859,0.688C87.566,92.578,86.952,94.736,85.615,96.592z"/>
	</g>
</g>
</svg>
