<?xml version="1.0" encoding="utf-8"?>
<!-- Generator: Adobe Illustrator 16.0.0, SVG Export Plug-In . SVG Version: 6.00 Build 0)  -->
<!DOCTYPE svg PUBLIC "-//W3C//DTD SVG 1.1//EN" "http://www.w3.org/Graphics/SVG/1.1/DTD/svg11.dtd">
<svg version="1.1" id="Layer_1" xmlns="http://www.w3.org/2000/svg" xmlns:xlink="http://www.w3.org/1999/xlink" x="0px" y="0px"
	 width="120px" height="120px" viewBox="0 0 120 120" style="enable-background:new 0 0 120 120;" xml:space="preserve">
<g id="angellist">
	<g>
		<path style="fill-rule:evenodd;clip-rule:evenodd;" d="M97.956,73.504c-0.395-2.308-0.996-4.586-1.602-6.852
			c-0.926-3.458-2.475-6.591-5.074-9.129c-1.453-1.421-2.926-2.82-4.361-4.26c-0.277-0.277-0.643-0.744-0.578-1.038
			c0.381-1.767,0.707-3.575,1.379-5.239c0.795-1.973,1.895-3.827,2.908-5.706c1.373-2.539,2.822-5.038,4.18-7.583
			c1.994-3.733,3.426-7.616,2.879-11.461c0-1.147-0.004-1.789,0-2.432c0.023-3.598-0.881-6.968-2.459-10.184
			c-0.623-1.27-1.461-2.366-2.49-3.315c-1.951-1.799-4.238-1.669-5.783,0.501c-1.98,2.786-3.949,5.599-5.664,8.552
			c-5.592,9.638-10.246,19.705-13.451,30.407c-0.047,0.156-0.289,0.337-0.451,0.349c-0.156,0.012-0.42-0.144-0.48-0.291
			c-1.156-2.756-2.352-5.499-3.41-8.293c-1.742-4.593-3.498-9.184-5.053-13.842c-1.854-5.548-4.764-10.492-8.139-15.203
			c-0.373-0.52-0.82-0.986-1.264-1.451c-0.855-0.9-1.92-1.28-3.158-1.338c-2.549-0.121-4.611,0.701-6.035,2.895
			c-0.58,0.894-1.197,1.765-1.746,2.68c-0.613,1.031-0.82,2.161-0.84,3.375c-0.051,3.006,0.037,5.982,0.98,8.876
			c0.164,0.504,0.189,1.05,0.314,1.568c0.877,3.628,1.467,7.331,2.818,10.835c1,2.591,1.896,5.228,3.031,7.759
			c1.352,3.021,2.877,5.965,4.391,8.91c0.617,1.207,1.533,2.062,3.086,1.66c0.127-0.032,0.426,0.166,0.461,0.303
			c0.102,0.406,0.152,0.835,0.154,1.255c0.021,4.002,1.947,6.901,5.209,9.027c1.434,0.933,2.869,1.862,4.326,2.758
			c1.73,1.063,3.473,2.11,5.465,2.643c0.619,0.165,1.223,0.377,1.834,0.571c0.314,0.1,0.336,0.255,0.066,0.453
			c-3.133,2.315-5.781,5.065-7.635,8.531c-0.246,0.463-0.613,0.382-0.877-0.158c-0.096-0.191-0.191-0.383-0.277-0.579
			c-2.738-6.173-6.299-11.899-9.629-17.751c-1.07-1.876-2.344-3.583-4.336-4.61c-0.582-0.302-0.912-0.825-1.271-1.381
			c-1.199-1.849-2.719-2.295-4.65-1.351c-2.465,1.205-4.09,3.09-4.172,5.962c-0.035,1.19-0.076,2.29-0.852,3.322
			c-0.326,0.437-0.346,1.237-0.244,1.829c0.141,0.832,0.527,1.621,0.801,2.431c0.273,0.813,0.16,0.996-0.566,0.915
			c-0.316-0.035-0.631-0.106-0.949-0.154c-4.4-0.666-10.449,3.199-11.934,7.544c-1.256,3.669-1.498,7.29-0.305,10.985
			c0.361,1.117,0.846,2.2,1.135,3.334c0.902,3.552,2.377,6.868,4.195,10.02c1.932,3.346,4.219,6.45,7.078,9.075
			c3.404,3.12,7.256,5.261,12.037,5.267c0.531,0.001,1.062,0.103,1.592,0.161c3.303,0.365,6.586,0.415,9.9-0.052
			c2.334-0.329,4.594-1.042,6.91-1.31c2.906-0.335,5.621-1.269,8.357-2.149c1.412-0.455,2.836-1.021,4.088-1.804
			c2.988-1.867,5.887-3.878,8.797-5.865c0.613-0.418,1.186-0.93,1.668-1.491c1.607-1.861,3.182-3.751,4.727-5.665
			c0.316-0.393,0.623-0.937,0.625-1.411c0.006-1.656,0.676-3.112,1.166-4.634c1.018-3.146,1.955-6.319,2.967-9.468
			C98.522,78.385,98.372,75.927,97.956,73.504z M72.149,45.284c1.852-3.97,3.676-7.951,5.418-11.969
			c1.787-4.123,3.773-8.135,6.012-12.035c1.865-3.248,3.838-6.421,5.977-9.49c0.418-0.599,0.783-0.555,1.135,0.107
			c1.064,2.007,1.758,4.125,1.836,6.411c0.035,1.068,0.006,2.139,0.006,3.302c0.584,3.605-0.746,6.854-2.443,9.994
			c-1.369,2.539-2.83,5.029-4.225,7.556c-0.723,1.309-1.449,2.621-2.057,3.985c-0.426,0.954-0.758,1.927-0.553,3.08
			c0.207,1.161-0.404,2.277-0.805,3.369c-0.15,0.414-0.561,0.635-1.043,0.516c-2.066-0.515-4.129-1.044-6.199-1.553
			c-0.518-0.127-1.045-0.222-1.574-0.29C70.87,47.905,70.917,47.933,72.149,45.284z M59.526,53.903
			c-0.27,1.559-0.469,2.786-0.709,4.005c-0.027,0.139-0.279,0.327-0.422,0.324c-0.164-0.003-0.418-0.167-0.465-0.314
			c-0.191-0.595-0.338-1.204-0.465-1.816c-0.25-1.229,0.029-1.811,1.234-2.55c0.158-0.097,0.49-0.155,0.582-0.067
			C59.476,53.67,59.558,53.966,59.526,53.903z M54.378,50.552c-0.412,0.492-0.648,1.371-1.6,1.206
			c-0.016-0.63-0.129-1.277-0.027-1.888c0.445-2.624,0.959-5.236,1.43-7.855c0.092-0.517,0.166-1.05,0.146-1.571
			c-0.023-0.565-0.697-1.182-1.287-1.265c-0.594-0.083-1.072,0.187-1.338,0.674c-0.564,1.027-1.049,2.097-1.586,3.14
			c-0.092,0.177-0.277,0.306-0.418,0.456c-0.078-0.174-0.234-0.353-0.225-0.521c0.068-1.058,0.115-2.123,0.283-3.168
			c0.203-1.26,0.525-2.499,0.777-3.752c0.111-0.556-0.062-1.045-0.457-1.462c-0.277-0.298-0.965-0.27-1.098,0.086
			c-0.33,0.897-0.617,1.811-0.957,2.704c-0.049,0.13-0.305,0.284-0.434,0.259c-0.186-0.036-0.396-0.19-0.498-0.355
			c-0.41-0.681-0.348-1.432-0.244-2.179c0.438-3.164,0.746-6.348,1.57-9.449c0.303-1.131,0.535-2.282,0.762-3.432
			c0.111-0.565-0.395-1.307-0.975-1.492c-0.551-0.177-1.051-0.052-1.477,0.34c-0.156,0.145-0.268,0.341-0.438,0.464
			c-0.727,0.526-0.629,1.786-1.746,1.959c0.115-0.827,0.23-1.653,0.344-2.48c0.029-0.212,0.051-0.424,0.086-0.725
			c0.297-1.151,0.621-2.387,0.934-3.626c0.076-0.307,0.137-0.623,0.152-0.938c0.053-0.999-1.127-1.798-2.014-1.334
			c-0.461,0.24-0.848,0.628-1.293,0.909c-0.047,0.031-0.371-0.189-0.379-0.309c-0.031-0.417-0.129-0.93,0.066-1.244
			c0.551-0.896,1.193-1.744,1.875-2.548c0.387-0.458,1.32-0.352,1.732,0.119c0.277,0.319,0.52,0.673,0.771,1.017
			c2.723,3.731,4.82,7.784,6.367,12.141c2.143,6.025,4.139,12.104,6.635,17.998c0.623,1.471,1.254,2.94,1.822,4.433
			c0.264,0.69-0.16,1.31-0.902,1.312C58.315,48.18,56.067,48.536,54.378,50.552z M41.591,60.035c0.291-0.564,0.42-0.661,0.891-0.257
			c0.324,0.278,0.574,0.692,0.941,0.859c1.533,0.699,2.553,1.875,3.369,3.298c2.918,5.097,5.99,10.108,8.574,15.394
			c0.863,1.769,1.363,3.582,1.23,5.555c-0.016,0.213-0.043,0.425-0.072,0.636c-0.049,0.374-0.641,0.727-0.967,0.524
			c-0.898-0.56-1.865-1.06-2.648-1.759c-4.857-4.331-8.457-9.588-11.26-15.434c-0.736-1.539-0.475-3.137-0.586-4.61
			C41.188,62.76,40.915,61.349,41.591,60.035z M92.987,76.367c-0.225,3.517-0.689,6.967-2.393,10.192
			c-2.039,3.871-3.727,7.923-6.309,11.509c-1.418,1.967-3.049,3.564-5.318,4.459c-2.777,1.097-5.555,2.208-8.346,3.273
			c-0.588,0.226-1.246,0.403-1.867,0.39c-2.057-0.047-4.02,0.451-6,0.881c-0.418,0.09-0.834,0.205-1.256,0.232
			c-4.934,0.316-9.846,0.242-14.586-1.363c-3.471-1.175-6.627-2.977-9.441-5.335c-0.387-0.322-0.752-0.815-0.863-1.29
			c-0.219-0.942-0.758-1.333-1.611-1.752c-1.375-0.674-2.322-1.895-2.543-3.483c-0.176-1.265-0.221-2.549-0.322-3.824
			c-0.066-0.847-0.051-1.711-0.23-2.533c-0.07-0.325-0.525-0.694-0.877-0.798c-0.443-0.131-0.77,0.226-0.875,0.694
			c-0.092,0.413-0.135,0.84-0.273,1.235c-0.053,0.155-0.307,0.33-0.471,0.33c-0.123,0.001-0.371-0.274-0.357-0.4
			c0.312-2.534,0.66-5.065,0.99-7.598c0.07-0.53,0.137-1.063,0.148-1.597c0.033-1.273-0.682-1.867-2.072-1.731
			c-0.205,0.021-0.398,0.153-0.607,0.198c-0.449,0.095-0.57-0.251-0.506-0.541c0.543-2.438,2.166-4.02,4.6-4.197
			c1.998-0.145,3.973-0.544,6.01-0.399c0.793,0.057,1.166,0.305,1.477,0.874c0.613,1.126,1.168,2.285,1.807,3.396
			c1.82,3.163,3.957,6.095,6.537,8.687c0.672,0.673,0.875,1.394,0.676,2.323c-0.268,1.25-0.416,2.523-0.648,3.779
			c-0.096,0.52-0.256,1.03-0.434,1.53c-0.213,0.614-0.68,0.759-1.238,0.498c-1.418-0.663-2.326-1.872-3.217-3.062
			c-1.023-1.367-1.93-2.824-2.885-4.243c-0.479-0.708-0.908-1.456-1.449-2.113c-0.398-0.485-0.906-0.896-1.422-1.263
			c-0.537-0.385-1.191-0.604-1.783-0.17c-0.639,0.469-0.939,1.188-0.801,1.972c0.109,0.625,0.291,1.274,0.607,1.817
			c1.77,3.047,3.381,6.192,5.654,8.926c1.277,1.532,2.838,2.523,4.715,3.163c2.688,0.916,5.246-0.762,6.062-2.811
			c0.275-0.692,0.514-1.403,0.707-2.123c0.191-0.72,0.305-1.463,0.457-2.194c0.291-1.388,0.42-1.538,1.609-1.111
			c1.576,0.565,3.109,0.709,4.686,0.085c0.098-0.038,0.24-0.099,0.305-0.059c0.236,0.151,0.596,0.305,0.648,0.521
			c0.281,1.139,0.447,2.306,0.719,3.446c0.42,1.773,0.988,3.499,1.998,5.039c0.361,0.551,0.861,0.929,1.533,1.077
			c0.785,0.174,1.566-0.335,1.59-1.125c0.018-0.531-0.074-1.065-0.078-1.598c-0.002-0.2,0.041-0.458,0.17-0.59
			c0.314-0.329,0.51,0.038,0.734,0.197c0.43,0.31,0.85,0.639,1.299,0.919c0.352,0.219,0.848-0.011,1.057-0.411
			c0.311-0.587,0.445-1.175,0.297-1.848c-0.391-1.771-0.607-3.591-1.131-5.32c-0.955-3.159-0.619-6.355-0.527-9.552
			c0.029-1.009,0.611-1.812,1.211-2.569c1.281-1.616,2.885-2.87,4.693-3.825c1.773-0.935,3.479-2.108,5.682-1.849
			c0.457,0.056,1.07-0.24,1.438-0.57c1.027-0.925,1.998-1.92,2.924-2.949c0.553-0.612,0.102-1.891-0.715-2.096
			c-0.613-0.154-1.266-0.269-1.891-0.237c-1.85,0.095-3.596-0.49-5.395-0.708c-0.799-0.096-1.391-0.536-1.625-1.348
			c-0.18-0.61-0.361-1.224-0.486-1.847c-0.104-0.521-0.076-1.071-0.215-1.579c-0.074-0.268-0.342-0.595-0.59-0.667
			c-0.191-0.056-0.629,0.188-0.711,0.394c-0.383,0.98-1.098,1.848-1.031,2.994c0.025,0.43-0.119,0.851-0.658,0.91
			c-0.598,0.065-1.023-0.203-1.281-0.737c-0.648-1.355-1.148-2.758-1.256-4.273c-0.039-0.534-0.037-1.07-0.098-1.602
			c-0.035-0.312-0.121-0.631-0.246-0.919c-0.232-0.527-0.67-0.836-1.242-0.877c-0.588-0.042-1.107,0.245-1.254,0.786
			c-0.25,0.917-0.34,1.877-0.518,2.815c-0.033,0.178-0.17,0.335-0.258,0.502c-0.178-0.111-0.41-0.182-0.529-0.339
			c-0.732-0.965-1.066-2.063-1.115-3.277c-0.039-0.956-0.182-1.908-0.271-2.863c-0.045-0.476-0.91-0.854-0.34-1.318
			c0.35-0.283,1.008-0.233,1.529-0.245c1.389-0.029,2.783-0.01,4.172-0.01v0.02c1.285,0,2.568-0.044,3.854,0.009
			c3.559,0.145,6.977,0.967,10.178,2.524c2.846,1.385,5.137,3.412,6.635,6.272c0.842,1.609,1.857,3.127,2.67,4.749
			C92.097,69.835,93.208,72.965,92.987,76.367z"/>
	</g>
</g>
</svg>
