<?xml version="1.0" encoding="utf-8"?>
<!-- Generator: Adobe Illustrator 16.0.0, SVG Export Plug-In . SVG Version: 6.00 Build 0)  -->
<!DOCTYPE svg PUBLIC "-//W3C//DTD SVG 1.1//EN" "http://www.w3.org/Graphics/SVG/1.1/DTD/svg11.dtd">
<svg version="1.1" id="Layer_1" xmlns="http://www.w3.org/2000/svg" xmlns:xlink="http://www.w3.org/1999/xlink" x="0px" y="0px"
	 width="120px" height="120px" viewBox="0 0 120 120" style="enable-background:new 0 0 120 120;" xml:space="preserve">
<g id="slideshare">
	<g>
		<path style="fill-rule:evenodd;clip-rule:evenodd;" d="M109.701,55.774c-0.758-2.104-2.133-3.056-4.182-2.411
			c-3.047,0.957-6.156,1.834-8.705,3.953c-0.727,0.604-1.607,1.068-2.484,1.439c-3.445,1.455-6.906,2.875-10.387,4.246
			c-1.184,0.467-2.422,0.864-3.67,1.09c-2.42,0.438-4.865,0.678-7.34,0.607c-2.354-0.066-4.709-0.008-7.064-0.042
			c-1.809-0.026-3.424,0.25-4.27,2.142c-0.123,0.276-0.439,0.462-0.648,0.705c-0.754,0.882-1.504,1.77-2.254,2.656
			c-0.969-0.748-0.773-2.074-1.469-2.96c-0.131-0.167-0.225-0.364-0.332-0.548c-0.643-1.096-1.637-1.674-2.859-1.847
			c-0.631-0.09-1.281-0.062-1.922-0.097c-1.916-0.101-3.818-0.17-5.734-0.473c-2.084-0.332-4.232-0.324-6.363,0.237
			c-1.865,0.493-3.773,0.442-5.662-0.271c-4.105-1.553-8.186-3.145-11.846-5.632c-0.793-0.54-1.781-0.884-2.398-1.57
			c-0.834-0.924,0.375-1.989,0.139-3.043c-0.092-0.407-0.008-0.853-0.008-1.281c0.002-2.676,0-5.353,0-7.864
			c0.061-5.08-0.086-9.991,0.559-14.898c0.391-2.967,0.783-5.926,1.387-8.854c0.127-0.623,0.408-1.213,0.578-1.828
			c0.412-1.496,1.395-2.339,2.893-2.653c3.344-0.705,6.688-1.395,10.133-1.394c2.998,0.001,6.014,0.142,8.986-0.146
			c2.996-0.291,5.98-0.353,8.971-0.309c6.094,0.09,12.188,0.258,18.279,0.421c1.174,0.031,2.346,0.171,3.518,0.288
			c1.27,0.129,2.535,0.404,3.805,0.413c3.637,0.026,7.207,0.927,10.859,0.743c0.615-0.031,1.248,0.258,1.869,0.412
			c1.395,0.342,1.447,0.383,1.477,1.609c0.148,6.641-0.137,13.267-0.9,19.858c-0.455,3.948-0.408,7.9-0.523,11.854
			c-0.029,0.977,0.197,1.902,0.674,2.774c0.695,1.273,1.936,1.693,3.256,1.034c0.66-0.331,1.287-0.736,1.961-1.04
			c1.184-0.533,1.809-1.396,1.936-2.703c0.35-3.613,0.848-7.215,1.102-10.834c0.297-4.264,0.275-8.543,0.641-12.812
			c0.283-3.294,0.025-6.633,0.066-9.949c0.016-1.209-0.268-2.341-0.645-3.449c-0.326-0.966-1.049-1.658-2.072-1.814
			c-3.689-0.568-7.348-1.379-11.109-1.397c-1.492-0.007-2.988-0.116-4.475-0.266c-2.76-0.278-5.508-0.735-8.273-0.906
			c-3.309-0.206-6.631-0.19-9.947-0.268c-0.855-0.02-1.734,0.091-2.564-0.062c-2.547-0.467-5.115-0.412-7.682-0.402
			c-2.996,0.012-5.996,0.023-8.988,0.176c-3.412,0.174-6.818,0.489-10.225,0.771c-1.598,0.132-3.197,0.267-4.779,0.514
			c-2.107,0.329-4.205,0.729-6.291,1.175c-1.773,0.38-3.547,0.793-5.279,1.326c-1.709,0.526-2.982,1.664-3.695,3.33
			c-0.418,0.98-0.918,1.971-1.086,3.005c-0.492,3.055-1.059,6.124-1.197,9.205c-0.309,6.845,0.146,13.688,0.498,20.525
			c0.016,0.32,0.041,0.642,0.094,0.958c0.24,1.475,0.479,2.95,0.744,4.421c0.104,0.579-0.203,0.739-0.678,0.763
			c-0.641,0.032-1.287,0.002-1.922,0.075c-1.102,0.127-2.084,0.991-2.186,2.026c-0.154,1.602-0.225,3.207,0.756,4.646
			c0.912,1.337,1.447,2.844,2.006,4.354c0.707,1.905,1.682,3.679,2.938,5.314c2.908,3.785,6.539,6.744,10.451,9.392
			c2.744,1.856,2.367,1.057,2.32,4.623c-0.002,0.106-0.006,0.215-0.023,0.319c-0.498,2.8,0.037,5.522,0.623,8.237
			c1.135,5.256,3.816,9.727,7.195,13.8c1.902,2.295,4.432,3.729,7.354,4.258c1.672,0.303,3.412,0.225,5.121,0.319
			c1.254,0.068,2.258-0.44,3.188-1.257c2.395-2.105,4.105-4.625,4.889-7.741c0.076-0.309,0.156-0.616,0.254-0.918
			c0.023-0.068,0.133-0.153,0.199-0.15c0.098,0.005,0.244,0.055,0.281,0.13c0.371,0.76,0.709,1.538,1.09,2.295
			c1.322,2.642,3.129,4.825,5.76,6.283c2.568,1.424,5.322,1.39,8.121,1.234c2.633-0.145,4.529-1.87,6.523-3.201
			c1.559-1.041,2.766-2.672,3.971-4.167c1.404-1.743,2.975-3.434,3.77-5.555c0.898-2.393,1.516-4.892,2.301-7.328
			c0.434-1.347,0.498-2.722,0.547-4.115c0.113-3.121-0.215-6.187-0.988-9.212c-0.227-0.888-0.072-1.22,0.617-1.581
			c0.568-0.297,1.162-0.544,1.732-0.837c4.1-2.099,8.127-4.326,11.73-7.217c2.686-2.153,5.104-4.559,6.684-7.697
			C110.238,59.1,110.318,57.482,109.701,55.774z M53.51,89.949c-0.051,2.664-0.232,5.337-0.553,7.981
			c-0.201,1.679-0.734,3.322-1.168,4.969c-0.357,1.36-1.189,2.23-2.666,2.391c-0.527,0.057-1.039,0.253-1.564,0.337
			c-0.463,0.074-0.824-0.121-1.014-0.571c-0.387-0.928-1.082-1.159-2.057-1.129c-0.688,0.021-1.223-0.627-1.195-1.257
			c0.041-0.954,0.145-1.91,0.303-2.851c0.193-1.155,0.453-2.3,0.719-3.44c0.16-0.686-0.102-1.254-0.398-1.822
			c-0.258-0.491-0.801-0.713-1.344-0.514c-0.4,0.145-0.764,0.389-1.164,0.533c-0.088,0.032-0.391-0.195-0.377-0.255
			c0.227-1.04,0.508-2.067,0.732-3.108c0.156-0.726,0.322-1.463,0.342-2.199c0.035-1.382-0.998-2.021-2.391-1.552
			c-0.264,0.089-0.521,0.2-0.78,0.304c0.001,0.034,0.005,0.07,0.005,0.104c-0.028,0.024-0.06,0.047-0.091,0.07
			c-0.005,0.146-0.009,0.29-0.044,0.427c-0.035,0.139-0.143,0.26-0.219,0.388c-0.021-0.172-0.104-0.37-0.045-0.509
			c0.052-0.123,0.185-0.212,0.308-0.306c0.002-0.048,0.003-0.097,0.007-0.145c0.026-0.011,0.053-0.021,0.079-0.03
			c-0.014-0.396-0.092-0.812,0.024-1.162c0.51-1.535,0.83-3.033,0.551-4.701c-0.146-0.873,0.344-1.853,0.547-2.784
			c0.344-1.581-0.654-2.733-2.314-2.464c-0.75,0.122-1.189,0.037-1.65-0.529c-0.164-0.202-0.641-0.376-0.848-0.283
			c-1.176,0.529-2.082-0.116-2.963-0.658c-3.271-2.012-6.635-3.908-9.729-6.172c-3.205-2.348-5.947-5.222-7.201-9.175
			c-0.053-0.164-0.004-0.44,0.109-0.551c0.08-0.078,0.383-0.022,0.523,0.069c0.625,0.406,1.234,0.838,1.838,1.277
			c4.85,3.538,9.928,6.645,15.699,8.498c2.715,0.871,5.393,1.087,8.174,0.301c1.109-0.312,2.336-0.45,3.479-0.341
			c1.9,0.184,3.852-0.198,5.719,0.507c0.338,0.126,0.82-0.123,1.234-0.21c0.643-0.136,1.053,0.2,1.217,0.742
			c0.184,0.601,0.312,1.245,0.311,1.87C53.633,77.982,53.625,83.967,53.51,89.949z M104.035,59.617
			c-1.65,2.727-4.117,4.655-6.709,6.34c-3.043,1.975-6.273,3.66-9.43,5.457c-0.648,0.37-1.326,0.695-2.006,1.007
			c-0.98,0.45-1.438,1.202-1.494,2.269c-0.043,0.843-0.191,1.68-0.264,2.522c-0.035,0.419-0.084,0.866,0.016,1.265
			c0.775,3.062,0.604,6.18,0.379,9.26c-0.297,4.047-1.916,7.646-4.559,10.732c-1.041,1.215-2.234,2.303-3.402,3.4
			c-0.947,0.891-1.844,1.759-2.006,3.164c-0.076,0.68-0.641,1.067-1.238,1.367c-0.707,0.354-1.268,0.068-1.273-0.683
			c-0.01-1.162-0.051-2.294,0.561-3.399c0.334-0.601,0.35-1.428,0.342-2.152c-0.008-0.807-0.988-1.321-1.639-0.882
			c-0.697,0.471-1.33,1.044-1.975,1.591c-0.447,0.379-0.705,0.29-0.904-0.251c-0.105-0.292-0.27-0.587-0.48-0.813
			c-0.555-0.596-1.543-0.577-1.959,0.049c-0.35,0.53-0.617,1.117-0.934,1.671c-0.039,0.069-0.15,0.099-0.23,0.146
			c-0.053-0.092-0.158-0.186-0.154-0.275c0.02-0.527-0.004-1.07,0.113-1.579c0.402-1.767,0.857-3.523,1.299-5.283
			c0.102-0.414,0.275-0.814,0.34-1.233c0.211-1.38-0.094-2.497-1.445-3.248c-1.029-0.571-0.986-0.66-0.678-1.688
			c0.213-0.716,0.467-1.422,0.654-2.145c0.104-0.406,0.154-0.84,0.152-1.261c-0.006-1.05-0.82-1.682-1.943-1.546
			c-1.105,0.133-1.254,0.013-0.939-0.93c0.816-2.428,1.668-4.844,2.504-7.265c0.104-0.3,0.326-0.639,0.256-0.897
			c-0.096-0.369-0.354-0.758-0.658-0.986c-0.17-0.128-0.605-0.021-0.857,0.106c-0.275,0.136-0.486,0.41-0.705,0.642
			c-0.363,0.387-0.711,0.787-1.066,1.182c-0.061-0.059-0.176-0.121-0.174-0.176c0.041-0.625,0.016-1.271,0.172-1.869
			c0.268-1.029,0.566-2.06,1.367-2.856c1.109-1.1,2.363-1.783,3.977-1.76c2.246,0.033,4.494,0.009,6.738,0.009
			c0.002,0.056,0.002,0.113,0.002,0.17c2.033-0.073,4.062-0.164,6.096-0.211c1.949-0.046,3.816-0.478,5.611-1.192
			c3.57-1.423,7.15-2.834,10.67-4.38c1.453-0.639,2.801-1.552,4.119-2.452c0.984-0.671,1.982-1.262,3.129-1.572
			c0.174-0.048,0.439,0.021,0.58,0.136C104.084,59.192,104.109,59.495,104.035,59.617z M71.725,36.644
			c-2.059,0.312-3.883,1.196-5.227,2.851c-1.014,1.244-1.865,2.59-2.48,4.091c-1.008,2.459-0.859,5.02-0.801,7.583
			c0.053,2.199,0.766,4.173,1.924,6.019c0.508,0.808,0.998,1.636,1.383,2.506c0.941,2.136,3.121,3.398,5.383,2.907
			c2.689-0.584,5.002-1.848,6.656-4.125c1.814-2.496,2.746-5.28,2.664-8.598c0.246-1.852-0.301-3.843-0.801-5.786
			c-0.502-1.957-1.408-3.829-2.922-5.266C75.898,37.301,74.016,36.298,71.725,36.644z M75.699,51.363
			c-0.131,0.714-0.514,1.137-1.191,1.339c-0.51,0.151-1.002,0.417-1.52,0.474c-3.295,0.354-3.426,0.293-3.436-2.745
			c-0.002-0.534,0-1.069,0-1.604c-0.021-0.001-0.043-0.003-0.062-0.004c0.092-1.276,0.154-2.558,0.291-3.831
			c0.057-0.519,0.199-1.057,0.428-1.525c0.799-1.633,2.848-1.815,3.938-0.381c0.129,0.17,0.281,0.332,0.369,0.522
			C75.637,46.081,76.201,48.637,75.699,51.363z M39.451,59.771c0.918,0.807,2.02,1.133,3.268,0.922
			c1.047-0.178,2.105-0.282,3.158-0.421c1.514-0.2,2.871-0.708,3.953-1.862c0.729-0.777,1.582-1.439,2.285-2.236
			c0.402-0.455,0.777-1.048,0.889-1.631c0.336-1.77,0.535-3.565,0.787-5.352c-0.059-2.511-0.457-4.922-1.412-7.209
			c-2.367-5.688-8.395-7.045-12.996-4.142c-3.066,1.935-4.795,4.804-4.889,8.505c-0.104,4.17,1.123,7.987,3.273,11.515
			C38.205,58.576,38.816,59.215,39.451,59.771z M41.895,42.801c0.08-0.369,0.387-0.795,0.711-0.985
			c1.02-0.595,3.016-0.281,3.842,0.589c0.432,0.453,0.852,0.975,1.088,1.543c1.084,2.619,1.24,5.332,0.604,8.086
			c-0.193,0.837-0.607,1.086-1.348,0.838c-0.9-0.303-1.826-0.575-2.664-1.01c-1.73-0.898-2.715-2.318-2.668-4.343
			c0.01-0.424,0.002-0.849,0.002-1.271c-0.039-0.006-0.078-0.012-0.115-0.019C41.52,45.084,41.65,43.93,41.895,42.801z
			 M36.182,19.302c-0.568-0.961-1.67-1.514-2.701-1.24c-1.023,0.271-2.029,0.595-2.869,1.323c-2.047,1.772-3.709,3.814-4.664,6.373
			c-0.256,0.686-0.406,1.412-0.488,1.709c0,1.445,0.482,2.34,1.17,2.521c0.857,0.225,1.441-0.299,1.91-0.879
			c0.463-0.573,0.842-1.227,1.195-1.877c1.346-2.467,2.869-4.746,5.666-5.795c0.191-0.071,0.348-0.24,0.512-0.375
			C36.359,20.697,36.49,19.823,36.182,19.302z"/>
	</g>
</g>
</svg>
