<?xml version="1.0" encoding="utf-8"?>
<!-- Generator: Adobe Illustrator 16.0.0, SVG Export Plug-In . SVG Version: 6.00 Build 0)  -->
<!DOCTYPE svg PUBLIC "-//W3C//DTD SVG 1.1//EN" "http://www.w3.org/Graphics/SVG/1.1/DTD/svg11.dtd">
<svg version="1.1" id="Layer_1" xmlns="http://www.w3.org/2000/svg" xmlns:xlink="http://www.w3.org/1999/xlink" x="0px" y="0px"
	 width="120px" height="120px" viewBox="0 0 120 120" style="enable-background:new 0 0 120 120;" xml:space="preserve">
<g id="behance">
	<g>
		<path style="fill-rule:evenodd;clip-rule:evenodd;" d="M61.8,63.299c-0.381-0.629-0.855-1.32-1.465-1.668
			c-2.793-1.587-4.875-4.197-7.912-5.425c-0.373-0.151-0.629-0.582-0.283-1.041c1.82-2.409,3.139-5.095,4.236-7.885
			c0.504-1.282,1.014-2.616,1.172-3.967c0.402-3.42,0.055-6.83-0.676-10.188c-0.105-0.483-0.445-0.984-0.814-1.33
			c-1.174-1.093-2.379-2.153-3.627-3.158c-4.475-3.603-9.557-5.603-15.342-5.619c-4.176-0.013-8.35,0.028-12.523,0.077
			c-1.066,0.012-2.135,0.111-3.199,0.225c-1.375,0.146-2.744,0.382-4.123,0.517c-2.773,0.272-5.486,0.764-8.104,1.775
			c-1.732,0.67-2.91,1.729-3.178,3.646c-0.057,0.421-0.252,0.825-0.287,1.246c-0.26,3.194-0.551,6.389-0.719,9.589
			c-0.109,2.028-0.02,4.066-0.02,6.1c0,0.964-0.023,1.927,0.004,2.889c0.143,4.701,0.357,9.401,0.439,14.102
			c0.113,6.635,0.178,13.27,0.174,19.904c-0.002,2.689,0.434,5.323,0.656,7.983c0.094,1.155,0.674,1.991,1.549,2.69
			c0.574,0.459,1.203,0.896,1.646,1.471c1.014,1.314,2.344,1.77,3.928,1.754c3.104-0.031,6.209-0.025,9.311-0.072
			c1.064-0.016,2.131-0.121,3.195-0.214c1.592-0.14,3.182-0.374,4.777-0.442c1.922-0.082,3.852-0.065,5.775-0.033
			c3.137,0.051,6.16-0.521,9.105-1.559c2.725-0.959,5.32-2.223,7.979-3.328c3.738-1.555,6.363-4.225,8.523-7.502
			c1.078-1.635,1.695-3.408,2.055-5.334c0.559-2.99,0.385-5.939,0.01-8.928C63.776,67.281,62.968,65.23,61.8,63.299z M56.774,76.742
			c-0.439,2.982-2.135,5.449-4.627,7.037c-4.439,2.828-9.152,5.084-14.633,5.027c-2.129-0.021-4.246-0.031-6.369,0.447
			c-1.322,0.299-2.766,0.064-4.154,0.09c-0.846,0.016-1.277-0.395-1.723-1.121c-0.719-1.175-1.689-1.184-2.623-0.213
			c-0.217,0.227-0.338,0.547-0.545,0.788c-0.33,0.384-1.158,0.616-1.436,0.43c-0.395-0.269-0.475-0.665-0.445-1.111
			c0.012-0.212,0.014-0.433-0.023-0.64c-0.18-0.93-0.711-1.238-1.594-0.916c-0.299,0.109-0.57,0.293-0.867,0.414
			c-0.428,0.176-0.777-0.146-0.668-0.646c0.16-0.728,0.406-1.439,0.523-2.172c0.082-0.514,0.051-1.059-0.006-1.581
			c-0.072-0.648-0.957-1.055-1.469-0.685c-0.34,0.246-0.635,0.561-0.93,0.861c-0.217,0.219-0.418,0.562-0.744,0.25
			c-0.217-0.207-0.406-0.533-0.438-0.826c-0.041-0.406,0.023-0.844,0.131-1.245c0.391-1.44,0.883-2.856,1.213-4.311
			c0.234-1.028,0.375-2.103,0.375-3.155c-0.002-1.304-0.82-1.91-2.334-1.928c-0.676-0.008-1.033-0.301-0.891-0.841
			c0.27-1.024,0.592-2.036,0.928-3.042c0.473-1.412,0.992-2.811,1.471-4.223c0.258-0.756,0.076-1.459-0.283-2.156
			c-0.33-0.635-0.879-0.837-1.496-1.08c-0.898-0.353-0.947-0.557-0.674-1.45c0.527-1.735,1.043-3.477,1.629-5.192
			c0.459-1.348,0.561-2.713,0.42-4.108c-0.064-0.644-0.582-1.101-1.324-1.147c-0.309-0.02-0.828,0.252-0.9,0.148
			c-0.221-0.321-0.383-0.76-0.375-1.149c0.037-1.81-0.066-3.629,0.506-5.405c0.227-0.696,0.242-1.481,0.227-2.223
			c-0.008-0.379-0.203-0.991-0.465-1.085c-0.883-0.322-1.064-1.007-1.135-1.759c-0.178-1.912-0.328-3.827-0.447-5.743
			c-0.043-0.683,0.4-1.211,1.127-1.334c0.943-0.16,1.902-0.273,2.857-0.312c2.346-0.095,4.682-0.079,7.029-0.402
			c1.994-0.274,4.055-0.056,6.434-0.056c4.303-0.563,8.781,0.504,13.275,1.427c0.73,0.15,1.469,0.271,2.205,0.391
			c1.406,0.228,2.633,0.841,3.746,1.71c1.006,0.785,2.016,1.566,3.035,2.337c1.918,1.452,2.963,3.307,2.832,5.778
			c-0.068,1.286-0.176,2.539-0.574,3.782c-1.285,4.021-3.057,7.775-6.135,10.732c-1.408,1.353-1.568,2.875,0.635,3.659
			c2.086,0.742,3.715,2.073,5.434,3.321c2.795,2.027,4.039,4.965,4.398,8.232C57.112,72.453,57.083,74.646,56.774,76.742z
			 M114.983,75.05c-0.553-1.188-1.318-2.253-2.656-2.614c-1.742-0.471-3.51-0.867-5.283-1.215c-1.025-0.201-1.883,0.229-2.525,1.059
			c-0.26,0.338-0.543,0.664-0.773,1.021c-0.85,1.314-2.084,2.092-3.504,2.677c-3.938,1.62-9.449,1.114-13.211-1.274
			c-0.721-0.457-1.398-0.982-2.113-1.451c-1.885-1.236-2.668-2.98-2.471-5.205c0.062-0.735,0.391-1.133,1.193-1.227
			c2.648-0.306,5.271-0.814,7.963-0.739c1.158,0.032,2.324-0.243,3.486-0.394c1.906-0.246,3.805-0.66,5.713-0.712
			c1.736-0.048,3.381-0.394,5.033-0.809c1.975-0.496,3.053-1.966,2.91-3.998c-0.061-0.848-0.275-1.684-0.4-2.529
			c-0.672-4.619-2.371-8.835-4.852-12.776c-1.633-2.596-4.012-4.201-6.861-4.934c-3.303-0.849-6.725-1.124-10.129-1.382
			c-2.986-0.097-5.684,0.854-8.258,2.235c-1.131,0.605-2.256,1.219-3.346,1.893c-2.779,1.722-5.064,3.937-6.465,6.933
			c-1.357,2.91-2.584,5.906-2.885,9.119c-0.25,2.648-0.109,5.332-0.143,7.999c1.193,5.576,3.16,10.824,6.172,15.709
			c2.023,3.283,4.717,5.337,8.461,6.336c3.93,1.049,7.924,1.672,11.914,2.324c1.447,0.236,3.029,0.199,4.457-0.127
			c5.516-1.256,10.375-3.877,14.654-7.566c2.191-1.889,3.488-4.297,4.012-7.119C115.151,75.887,115.146,75.402,114.983,75.05z
			 M109.255,77.646c-1.957,1.301-3.818,2.716-5.645,4.203c-1.584,1.287-3.557,1.941-5.619,2.138
			c-2.336,0.222-4.709,0.011-7.014,0.606c-0.199,0.051-0.43,0.044-0.635,0.006c-4.01-0.777-7.922-1.855-11.221-4.387
			c-1.084-0.832-2.168-1.844-2.83-3.012c-1.891-3.336-3.615-6.717-4.182-10.656c-0.445-3.104-0.557-6.177-0.383-9.26
			c0.156-2.79,1.23-5.392,2.369-7.928c0.404-0.899,1.145-1.482,2.041-1.951c2.988-1.562,6.174-2.334,9.512-2.543
			c0.854-0.054,1.711-0.008,2.566-0.008v-0.091c0.748,0,1.498,0.037,2.244-0.009c1.309-0.08,2.564,0.027,3.701,0.763
			c0.176,0.115,0.387,0.204,0.59,0.246c2.375,0.485,3.875,2.133,5.248,3.942c1.91,2.517,2.947,5.423,3.727,8.438
			c0.127,0.493-0.275,1.119-0.779,1.226c-0.521,0.109-1.049,0.216-1.574,0.234c-2.471,0.084-4.861,0.653-7.281,1.072
			c-3.256,0.562-6.518,1.094-9.787,1.568c-1.764,0.256-3.482,1.035-5.344,0.41c-0.498-0.166-1.361,0.797-1.43,1.521
			c-0.168,1.809-0.375,3.654,0.316,5.391c0.707,1.779,1.564,3.5,2.393,5.23c0.18,0.374,0.482,0.715,0.799,0.994
			c2.104,1.859,4.488,3.259,7.105,4.262c0.293,0.113,0.637,0.195,0.939,0.159c1.947-0.231,3.805,0.325,5.705,0.557
			c4.26,0.521,8.012-0.767,11.176-3.692c0.238-0.217,0.436-0.473,0.672-0.691c0.715-0.666,0.896-0.674,1.996-0.131
			c0.191,0.093,0.379,0.193,0.559,0.307C109.571,76.807,109.622,77.404,109.255,77.646z M69.735,36.873
			c1.891,0.115,3.764,0.414,5.678-0.178c1.406-0.435,2.932-0.486,4.408-0.702c1.369-0.2,2.732-0.494,4.109-0.563
			c3.09-0.156,6.184-0.198,9.326-0.289c2.834,0.082,5.711,0.2,8.588,0.237c2.164,0.027,3.443-1.233,3.344-3.373
			c-0.064-1.375-0.383-2.738-0.588-4.106c-0.176-1.195-0.914-1.843-2.033-2.204c-2.398-0.775-4.852-0.67-7.293-0.452
			c-3.389,0.302-6.76,0.893-10.15,1.054c-4.037,0.192-8.096,0.39-12.123-0.39c-1.027-0.199-2.133-0.102-3.189-0.01
			c-0.619,0.053-1.25,0.291-1.811,0.579c-0.785,0.405-1.354,1.052-1.387,2.004c-0.064,1.808-0.291,3.61,0.002,5.425
			C66.929,35.822,67.813,36.756,69.735,36.873z M43.493,68.541c-0.615-0.424-1.318-0.758-1.84-1.275
			c-1.432-1.42-3.207-2.047-5.102-2.512c-1.342-0.329-2.688-0.699-3.971-1.201c-1.127-0.441-2.25-0.662-3.441-0.586
			c-1.059,0.068-2.119,0.178-3.18,0.25c-1.328,0.092-2.137,0.726-2.475,2.064c-0.842,3.334-1.281,6.711-1.076,10.144
			c0.059,0.941,0.395,1.879,0.684,2.792c0.465,1.467,1.547,2.276,3.031,2.529c0.627,0.107,1.279,0.102,1.92,0.109
			c1.391,0.014,2.781,0.004,4.172,0.004v-0.026c1.283,0,2.57-0.056,3.852,0.014c1.637,0.089,3.197-0.323,4.736-0.721
			c2.051-0.53,3.703-1.646,4.283-3.882c0.467-1.799,0.463-3.604,0.039-5.394C44.899,69.894,44.323,69.109,43.493,68.541z
			 M40.222,73.172c-0.225,1.615-1.779,3.184-3.395,3.311c-0.949,0.076-1.91,0.016-2.828,0.016c-1.732-0.107-3.447-0.033-5.068-0.688
			c-0.533-0.215-0.924-0.594-0.943-1.162c-0.047-1.273-0.057-2.551-0.008-3.822c0.037-0.955,0.672-1.637,1.494-1.902
			c3.422-1.104,6.691-0.834,9.625,1.426C40.003,71.047,40.382,72.014,40.222,73.172z M24.683,53.868
			c0.105-0.021,0.209-0.044,0.312-0.073c2.371-0.681,4.818-0.933,7.262-1.049c2.086-0.1,3.996-0.67,5.812-1.608
			c3.678-1.898,4.705-6.568,2.115-9.801c-1.959-2.441-4.508-3.915-7.689-4.067c-1.707-0.082-3.428-0.15-5.129-0.021
			c-1.908,0.145-3.812,0.458-5.697,0.813c-1.324,0.25-1.719,1.105-1.639,2.6c0.074,1.375,0.021,2.762-0.039,4.139
			c-0.037,0.849-0.199,1.693-0.303,2.539c0.033,0.002,0.068,0.005,0.102,0.008c0,0.535-0.047,1.074,0.012,1.602
			c0.074,0.633,0.236,1.257,0.369,1.884C20.767,53.641,21.923,54.419,24.683,53.868z M27.831,41.166
			c2.018-0.195,4.055-0.189,6.033,0.42c1.977,0.609,2.775,2.303,2.088,4.256c-0.629,1.788-1.725,2.876-3.697,3.008
			c-0.842,0.056-1.67,0.331-2.512,0.444c-1.061,0.143-2.107,0.158-3.148-0.254c-1.881-0.742-2.523-1.611-2.51-3.602
			C24.106,42.828,25.265,41.416,27.831,41.166z M82.028,58.295c2.312,0.059,4.535,0.036,6.756-0.487
			c1.756-0.414,3.588-0.503,5.385-0.744c0.42-0.056,0.85-0.098,1.254-0.222c1.41-0.437,2.084-1.498,1.893-2.938
			c-0.141-1.086-0.533-2.078-1.258-2.897c-1.369-1.549-2.98-2.78-4.986-3.37c-2.914-0.857-5.918-0.93-8.902-0.638
			c-2.227,0.218-4.117,1.245-4.943,3.515c-0.656,1.813-0.922,3.731-0.898,5.655c0.018,1.408,1.062,2.269,2.566,2.26
			C79.96,58.423,81.028,58.341,82.028,58.295z M81.661,53.396c0.566-0.773,1.127-1.555,1.748-2.285
			c0.186-0.218,0.557-0.39,0.844-0.39c1.709,0.004,3.426-0.014,5.125,0.136c0.943,0.082,1.889,0.42,2.553,1.2
			c0.127,0.149,0.271,0.43,0.215,0.562c-0.111,0.247-0.338,0.567-0.566,0.616c-1.562,0.333-3.137,0.609-4.709,0.891
			c-1.045,0.187-2.094,0.353-2.807,0.472c-0.885-0.073-1.414-0.1-1.938-0.166C81.8,54.391,81.47,53.655,81.661,53.396z"/>
	</g>
</g>
</svg>
