<?xml version="1.0" encoding="utf-8"?>
<!-- Generator: Adobe Illustrator 16.0.0, SVG Export Plug-In . SVG Version: 6.00 Build 0)  -->
<!DOCTYPE svg PUBLIC "-//W3C//DTD SVG 1.1//EN" "http://www.w3.org/Graphics/SVG/1.1/DTD/svg11.dtd">
<svg version="1.1" id="Layer_1" xmlns="http://www.w3.org/2000/svg" xmlns:xlink="http://www.w3.org/1999/xlink" x="0px" y="0px"
	 width="120px" height="120px" viewBox="0 0 120 120" style="enable-background:new 0 0 120 120;" xml:space="preserve">
<g id="dribbble">
	<g>
		<path style="fill-rule:evenodd;clip-rule:evenodd;" d="M114.307,58.319c0.021-2.373-0.449-4.672-1.025-6.949
			c-0.84-3.332-2.139-6.491-3.855-9.466c-0.652-1.129-1.189-2.312-1.355-3.575c-0.443-3.413-2.092-6.235-4.059-8.94
			c-2.145-2.946-4.449-5.762-7.084-8.272c-3.25-3.097-6.625-6.051-10.564-8.29C81.51,10.07,76.359,8.016,71.068,6.306
			c-1.926-0.623-3.934-0.985-5.992-0.928c-1.496,0.042-2.994,0.008-4.49,0.008v0.078c-1.818,0-3.639-0.034-5.455,0.008
			c-2.039,0.048-4.068,0.338-5.943,1.126c-1.701,0.714-3.475,1.001-5.248,1.365c-1.459,0.299-2.934,0.577-4.348,1.028
			c-3.791,1.208-7.225,3.191-10.639,5.179c-2.219,1.29-4.395,2.646-6.219,4.501c-0.43,0.437-1.023,0.756-1.596,1.005
			c-3.393,1.473-5.77,3.88-7.211,7.314c-1.529,3.642-3.242,7.207-4.84,10.821c-1.607,3.633-2.953,7.337-2.803,11.41
			c0.023,0.638-0.059,1.28-0.102,1.92c-0.16,2.344-0.354,4.684-0.469,7.03c-0.035,0.735,0.01,1.524,0.236,2.215
			c1.518,4.614,1.803,9.427,2.244,14.2c0.252,2.7,0.818,5.247,1.9,7.723c0.811,1.854,1.445,3.782,2.199,5.662
			c0.357,0.89,0.766,1.765,1.227,2.605c1.6,2.927,3.602,5.552,5.971,7.904c3.746,3.719,8.016,6.72,12.559,9.37
			c5.041,2.938,10.496,4.75,16.156,5.972c1.973,0.428,4.012,0.637,6.031,0.727c2.775,0.123,5.561,0.081,8.342,0.023
			c1.273-0.027,2.549-0.219,3.814-0.402c3.49-0.508,6.844-1.615,10.24-2.516c1.639-0.436,3.238-1.084,4.789-1.782
			c5.119-2.304,9.615-5.556,13.73-9.335c1.885-1.731,3.82-3.474,5.377-5.486c3.791-4.9,7.168-10.098,10.328-15.43
			c0.271-0.459,0.531-0.94,0.691-1.443c1.443-4.592,2.783-9.205,2.77-14.083C114.314,62.17,114.287,60.243,114.307,58.319z
			 M107.926,67.408c0.008,1.526-0.334,2.967-0.811,4.391c-1.879,5.609-4.434,10.877-7.918,15.675
			c-1.193,1.644-2.381,3.292-3.604,4.913c-0.734,0.973-1.629,1.592-2.973,1.58c-1.576-0.014-2.777,1.008-4.014,1.845
			c-1.242,0.835-2.449,1.724-3.717,2.515c-0.787,0.492-1.297,0.178-1.625-0.828c-0.15-0.468-0.121-0.813,0.418-0.98
			c1.096-0.341,1.898-1.063,2.221-2.141c0.334-1.121,1.131-1.794,1.977-2.444c3.512-2.702,6.424-5.952,8.875-9.626
			c0.65-0.978,1.297-1.963,1.873-2.986c0.469-0.836,0.859-1.67,1.658-2.309c1.141-0.91,1.586-2.246,1.721-3.677
			c0.189-2.02,0.381-4.038,0.566-6.059c0.076-0.87-0.412-1.474-1.127-1.771c-0.98-0.406-2.008-0.764-3.049-0.938
			c-1.891-0.317-3.814-0.438-5.711-0.729c-1.471-0.225-2.957-0.479-4.371-0.922c-0.873-0.273-1.629-0.322-2.48-0.049
			c-0.604,0.193-1.25,0.267-1.883,0.331c-2.334,0.238-4.672,0.414-7,0.69c-0.84,0.1-1.66,0.393-2.475,0.643
			c-0.49,0.15-0.613,0.533-0.436,1.009c0.039,0.101,0.072,0.202,0.104,0.304c1.088,3.463,2.172,6.928,3.262,10.389
			c0.416,1.321,0.754,2.668,1.547,3.85c0.289,0.43,0.49,0.972,0.557,1.485c0.516,4.037,1.783,7.907,2.584,11.88
			c0.062,0.312,0.102,0.639,0.082,0.953c-0.014,0.189-0.184,0.537-0.246,0.529c-0.814-0.105-1.627-0.246-2.43-0.426
			c-0.09-0.021-0.168-0.346-0.154-0.522c0.045-0.638,0.186-1.27,0.195-1.906c0.02-1.017-0.562-1.415-1.699-1.093
			C77.4,91.11,77,91.301,76.801,90.802c-0.146-0.359-0.225-0.892-0.061-1.205c1.221-2.351,1.342-4.923,1.598-7.47
			c0.041-0.423,0.023-0.855,0.004-1.281c-0.043-0.953-0.541-1.602-1.404-1.964c-0.723-0.305-1.199,0.163-1.701,0.573
			c-0.212,0.174-0.484,0.273-0.736,0.398c-0.001,0.022-0.002,0.044-0.004,0.066c-0.022,0.004-0.033,0.015-0.055,0.02
			c-0.021,0.282-0.034,0.566-0.078,0.847c-0.014,0.091-0.115,0.168-0.18,0.251c-0.066-0.074-0.18-0.139-0.197-0.225
			c-0.09-0.421-0.021-0.769,0.455-0.873c0.002-0.021,0.004-0.04,0.006-0.061c0.018-0.009,0.036-0.017,0.053-0.025
			c0.111-1.568,0.191-3.141,0.34-4.705c0.084-0.862,0.164-1.69-0.25-2.504c-0.502-0.982-1.365-1.192-2.344-0.518
			c-0.086,0.06-0.141,0.163-0.227,0.226c-0.523,0.384-0.777,0.341-0.855-0.169c-0.195-1.267-0.354-2.54-0.545-3.808
			c-0.289-1.909-1.367-2.526-3.197-1.849c-0.102,0.037-0.197,0.081-0.295,0.125c-3.498,1.596-6.943,3.33-10.512,4.748
			c-3.869,1.536-7.082,3.963-9.982,6.819c-2.889,2.849-5.666,5.825-7.869,9.276c-0.598,0.938-0.938,1.895-0.926,3.006
			c0.016,1.283-0.057,2.567-0.047,3.852c0.006,0.615-0.619,1.264-0.049,1.819c0.447,0.435,1.023,0.759,1.588,1.04
			c0.568,0.283,1.188,0.622,1.793,0.639c1.568,0.043,2.914,0.696,4.236,1.37c3.084,1.567,6.412,2.354,9.746,3.034
			c1.756,0.357,3.625,0.183,5.443,0.184c1.066,0,2.102-0.068,3.162,0.282c1.342,0.442,2.74,0.306,4.117-0.009
			c2.205-0.502,4.26-1.387,6.268-2.4c0.568-0.287,1.154-0.544,1.756-0.759c0.125-0.046,0.416,0.108,0.502,0.249
			c0.678,1.125,0.426,2.004-0.701,2.59c-2.369,1.23-4.709,2.533-7.443,2.807c-1.166,0.117-2.326,0.285-3.488,0.442
			c-0.953,0.13-1.521-0.274-2.1-1.062c-0.879-1.193-2.145-1.135-2.898-0.03c-0.234,0.345-0.379,0.761-0.529,1.158
			c-0.229,0.597-0.752,0.733-1.275,0.776c-0.26,0.021-0.707-0.127-0.781-0.311c-0.266-0.691-0.396-1.437-0.615-2.15
			c-0.209-0.682-0.703-1.048-1.414-1.103c-0.67-0.052-1.305,0.083-1.701,0.665c-0.357,0.526-0.584,1.145-0.951,1.66
			c-0.16,0.221-0.527,0.384-0.812,0.4c-0.426,0.027-0.797-0.162-0.98-0.634c-0.264-0.688-0.494-1.412-0.895-2.021
			c-0.543-0.831-1.93-0.725-2.475,0.115c-0.115,0.178-0.236,0.363-0.299,0.562c-0.189,0.598-0.15,1.408-0.85,1.617
			c-0.689,0.205-1.463,0.182-2.197,0.175c-0.537-0.005-0.951-0.505-0.959-1.083c-0.014-1.069,0.041-2.141,0.008-3.208
			c-0.016-0.524-0.043-1.112-0.287-1.546c-0.234-0.417-0.711-0.806-1.166-0.962c-0.547-0.188-1.105,0.215-1.324,0.682
			c-0.402,0.859-0.656,1.792-0.939,2.703c-0.127,0.398-0.139,0.833-0.275,1.226c-0.041,0.122-0.316,0.184-0.496,0.232
			c-0.088,0.022-0.199-0.064-0.303-0.076c-1.66-0.195-1.867-2.778-3.893-2.369c-1.275-0.767-2.539-1.547-3.826-2.294
			c-0.729-0.423-1.025-1.032-0.996-1.854c0.039-1.069,0.061-2.14,0.062-3.209c0.002-0.316-0.039-0.648-0.146-0.941
			c-0.061-0.162-0.289-0.338-0.461-0.363c-0.168-0.025-0.473,0.089-0.529,0.221c-0.41,0.976-0.758,1.977-1.17,2.953
			c-0.053,0.123-0.453,0.252-0.523,0.189c-0.955-0.843-1.922-1.684-2.793-2.61c-0.244-0.261-0.254-0.802-0.258-1.216
			c-0.016-1.069,0.066-2.141,0.037-3.209c-0.014-0.521-0.125-1.061-0.312-1.548c-0.098-0.259-0.424-0.546-0.689-0.595
			c-0.244-0.045-0.646,0.137-0.803,0.349c-0.371,0.512-0.633,1.104-0.953,1.655c-0.199,0.34-0.771,0.277-1.066-0.062
			c-0.592-0.691-0.797-1.484-0.775-2.377c0.051-2.032,0.074-4.064,0.113-6.098c0.016-0.748,0.07-1.497,0.051-2.244
			c-0.016-0.663-0.215-1.342-0.812-1.661c-1.238-0.661-1.182-1.605-0.816-2.722c0.305-0.938,0.299-1.882-0.109-2.818
			c-0.336-0.77-0.758-0.994-1.805-0.826c-0.902,0.144-0.93,0.137-0.729-0.578c0.553-1.959,0.984-3.936,1.057-5.979
			c0.029-0.774-0.057-1.51-0.74-2.011c-0.723-0.529-0.758-1.249-0.561-2.01c0.268-1.034,0.635-2.044,0.859-3.085
			c0.223-1.036,0.391-2.095,0.441-3.151c0.023-0.489-0.141-1.147-0.475-1.463c-0.934-0.887-0.852-1.817-0.557-2.928
			c0.713-2.682,1.35-5.385,1.977-8.09c0.312-1.351,0.605-2.708-0.201-4.043c-0.178-0.295-0.121-0.849,0.025-1.204
			c0.652-1.579,1.354-3.139,2.074-4.688c1.344-2.887,3.553-5.079,5.953-7.052c3.652-2.997,7.756-5.312,11.875-7.591
			c2.195-1.215,4.664-1.511,7.049-2.044c2.186-0.488,4.42-0.722,6.469-1.741c0.447-0.222,1.039-0.21,1.562-0.205
			c4.92,0.047,9.84,0.126,14.762,0.168c1.277,0.011,2.561-0.031,3.836-0.13c1.117-0.087,2.107,0.202,3.061,0.74
			c4.936,2.784,9.879,5.549,14.805,8.352c0.639,0.365,1.244,0.849,1.744,1.389c4.285,4.634,8.514,9.313,11.971,14.628
			c0.826,1.267,1.537,2.554,1.982,4c0.504,1.631,1.004,3.269,1.627,4.855c1.543,3.921,2.451,7.95,2.391,12.182
			C107.943,61.202,107.91,64.305,107.926,67.408z M80.799,69.46c-0.092-0.306-0.223-0.599-0.318-0.903
			c-0.094-0.291,0.213-0.689,0.496-0.637c0.521,0.097,1.039,0.214,1.561,0.322c2.594,0.731,5.262,0.756,7.926,0.879
			c1.373,0.062,2.738,0.373,4.096,0.636c0.656,0.126,1.055,0.827,0.92,1.464c-0.732,3.491-1.805,6.825-4.555,9.322
			c-0.779,0.711-1.637,1.343-2.492,1.963c-0.947,0.687-1.945,1.301-2.9,1.978c-0.984,0.7-1.432,0.544-1.744-0.681
			c-0.104-0.412-0.234-0.833-0.234-1.251C83.545,77.994,82.084,73.746,80.799,69.46z M71.418,93.029
			c-2.494,1.214-5.002,2.395-7.525,3.549c-1.488,0.681-3.088,0.796-5.17,0.748c-5.01-0.489-10.273-1.716-15.061-4.554
			c-0.807-0.478-0.939-1.077-0.324-1.847c1.396-1.754,2.842-3.472,4.268-5.203c0.068-0.082,0.127-0.191,0.215-0.233
			c2.016-0.96,3.049-2.907,4.48-4.451c1.535-1.657,3.285-3.044,5.127-4.337c2.275-1.596,4.561-3.173,7.061-4.402
			c0.699-0.343,1.273-0.106,1.473,0.645c1.674,6.297,4.062,12.362,6.008,18.57C72.285,92.518,72.287,92.607,71.418,93.029z
			 M22.443,49.703c0.545,0.293,1.191,0.529,1.801,0.55c2.557,0.088,5.117,0.12,7.676,0.106c1.922-0.011,3.811-0.026,5.736,0.319
			c1.869,0.335,3.855,0.401,5.74,0.178c3.064-0.363,6.092-1.039,9.125-1.629c0.719-0.14,1.395-0.637,2.102-0.66
			c0.932-0.031,1.225,1.088,1.973,1.477c0.189,0.099,0.383,0.189,0.572,0.282c0.559,0.272,1.371-0.025,1.605-0.625
			c0.152-0.392,0.354-0.82,0.328-1.219c-0.078-1.162-0.105-2.363-0.434-3.464c-0.486-1.629-1.182-3.199-1.85-4.768
			c-0.711-1.667-1.494-3.304-2.242-4.955c-0.615-1.357-1.129-2.774-1.867-4.06c-0.871-1.515-1.605-3.002-1.312-4.816
			c0.049-0.303-0.041-0.637-0.115-0.946c-0.139-0.588-0.562-0.875-1.137-0.944c-0.205-0.025-0.422,0.03-0.633,0.028
			c-1.344-0.015-2.035-0.564-2.141-1.729c-0.041-0.423-0.008-0.853-0.008-1.28c0.039-0.004,0.078-0.008,0.115-0.012
			c-0.092-0.624-0.145-1.256-0.283-1.868c-0.111-0.474-1.037-0.86-1.293-0.518c-1.148,1.526-2.059,0.771-3.141-0.113
			c-1.242-1.013-1.969-0.944-3.143-0.004c-0.414,0.331-0.75,0.768-1.188,1.059c-2.398,1.595-4.832,3.137-7.225,4.742
			c-1.42,0.951-2.832,1.921-4.162,2.991c-2.787,2.243-5.039,4.916-6.273,8.339c-0.869,2.406-1.736,4.813-2.584,7.228
			c-0.098,0.281-0.164,0.667-0.051,0.914C19.131,46.452,20.252,48.525,22.443,49.703z M26.424,37.741
			c0.488-0.699,1.006-1.379,1.484-2.083c2.684-3.937,6.465-6.422,10.785-8.211c0.611-0.252,1.016,0.009,1.363,0.468
			c2.369,3.15,4.666,6.356,6.674,9.752c0.701,1.186,1.229,2.477,1.803,3.733c0.398,0.865,0.756,1.75,1.096,2.639
			c0.039,0.097-0.139,0.388-0.25,0.411c-0.625,0.125-1.264,0.194-1.613,0.244c-0.604,0-0.967,0.101-1.234-0.017
			c-1.584-0.695-3.145-0.252-4.697,0.061c-0.846,0.17-1.643,0.197-2.516,0.096c-2.543-0.296-5.088-0.306-7.645,0.138
			c-2.305,0.401-4.648,0.571-6.977,0.826c-0.609,0.067-1.068-0.376-0.963-0.948C24.197,42.319,24.924,39.881,26.424,37.741z
			 M63.178,56.746c-0.91-1.812-1.67-3.699-2.564-5.519c-0.148-0.303-0.688-0.647-0.986-0.601c-1.152,0.18-2.34,0.371-3.4,0.823
			c-1.1,0.468-2.199,0.751-3.361,0.967c-1.357,0.254-2.689,0.668-4.012,1.083c-1.439,0.451-2.887,0.693-4.402,0.739
			c-1.809,0.055-3.613,0.277-5.416,0.473c-2.229,0.243-4.445,0.638-6.68,0.774c-2.344,0.143-4.697,0.076-7.008,0.61
			c-0.414,0.096-0.855,0.054-1.277,0.12c-0.932,0.144-1.361-0.303-1.57-1.165c-0.053-0.208-0.471-0.507-0.662-0.469
			c-0.877,0.171-1.684-0.001-2.523-0.211c-0.939-0.235-1.24,0.011-1.262,0.874c-0.023,0.962-0.006,1.924-0.006,2.887
			c0.014,5.042,0.889,10.195,2.443,15.104c1.033,3.271,2.375,6.413,3.973,9.434c1.549,2.928,3.244,5.787,5.729,8.062
			c0.221,0.202,0.545,0.291,0.824,0.433c0.121-0.259,0.355-0.522,0.344-0.774c-0.059-1.038,0.141-1.904,1.164-2.414
			c0.631-0.314,0.877-0.831,0.889-1.561c0.006-0.501,0.205-1.035,0.443-1.489c0.652-1.241,1.525-2.308,2.643-3.18
			c3.197-2.499,6.383-5.015,9.562-7.539c0.58-0.46,1.229-0.905,1.637-1.5c0.812-1.188,1.969-1.94,3.068-2.782
			c2.822-2.16,5.963-3.715,9.25-5.037c1.879-0.754,3.67-1.73,5.479-2.648c0.4-0.204,0.492-0.575,0.209-1.05
			C64.826,59.728,63.941,58.267,63.178,56.746z M58.082,62.023c-3.268,1.572-6.506,3.223-9.66,5.012
			c-4.863,2.761-9.127,6.332-12.898,10.434c-1.574,1.711-2.752,3.791-4.1,5.709c-0.436,0.62-1.104,0.626-1.506-0.037
			c-0.277-0.453-0.531-0.925-0.736-1.412c-0.949-2.261-1.891-4.525-2.818-6.795c-1.791-4.382-2.584-9-3.205-13.435
			c0-0.435-0.072-0.687,0.016-0.851c0.135-0.25,0.379-0.616,0.584-0.622c0.848-0.02,1.725-0.035,2.545,0.15
			c2.652,0.597,5.293,0.471,7.953,0.074c2.951-0.441,5.908-0.852,8.865-1.272c0.314-0.044,0.65-0.147,0.947-0.087
			c3.605,0.731,6.967-0.387,10.355-1.325c1.127-0.313,2.262-0.611,3.4-0.896c0.578-0.144,1.033,0.081,1.365,0.569
			c0.061,0.089,0.129,0.172,0.178,0.267C61.064,60.854,61.648,60.308,58.082,62.023z M70.127,42.479
			c1.373-1.207,2.932-2.064,4.578-2.865c1.908-0.929,3.658-2.184,5.467-3.314c0.264-0.165,0.498-0.397,0.705-0.634
			c1.264-1.445,2.566-2.859,3.758-4.36c2.721-3.424,2.775-2.856-0.168-6.281c-0.207-0.239-0.488-0.415-0.727-0.627
			c-2.574-2.286-5.4-4.177-8.58-5.52c-2.891-1.221-5.998-1.423-9.041-1.866c-2.949-0.43-5.984,0.294-8.734-0.562
			c-1.881,0.234-3.572,0.44-5.264,0.66c-0.428,0.055-0.631,0.505-0.436,0.964c0.672,1.57,1.359,3.131,2.029,4.7
			c0.293,0.686,0.707,1.362,0.809,2.079c0.275,1.943,1.275,3.609,1.926,5.404c0.32,0.88,0.83,1.783,1.496,2.423
			c1.492,1.434,2.549,3.145,3.564,4.903c1.068,1.848,2.17,3.679,3.162,5.568c1.293,2.466,1.045,2.495,3.701,0.713
			C68.988,43.449,69.568,42.971,70.127,42.479z M66.137,37.212c-0.229-0.21-0.379-0.513-0.541-0.79
			c-2.047-3.5-4.09-7.002-6.133-10.506c-0.268-0.461-0.557-0.917-0.76-1.407c-0.098-0.245-0.141-0.678-0.002-0.817
			c0.188-0.185,0.578-0.231,0.875-0.218c0.42,0.019,0.846,0.118,1.252,0.232c1.947,0.55,3.908,1.069,5.832,1.692
			c1.73,0.56,3.457,1.045,5.27,1.3c2.75,0.387,4.922,1.942,6.855,3.835c0.154,0.15,0.158,0.647,0.027,0.858
			c-0.73,1.185-1.561,2.236-2.906,2.865c-1.832,0.854-3.514,1.972-5.611,2.229c-1.137,0.139-2.217,0.717-3.414,1.128
			C66.668,37.504,66.354,37.411,66.137,37.212z M100.066,47.391c-1.365-5.717-4.145-10.737-8.16-15.05
			c-0.283-0.306-0.674-0.515-1.021-0.76c-0.412-0.289-0.744-0.258-1.061,0.187c-1.797,2.523-3.58,5.055-5.43,7.54
			c-1.154,1.554-2.428,3-4.496,3.395c-0.389,0.074-0.797,0.349-1.074,0.645c-0.918,0.983-2.123,1.399-3.324,1.853
			c-1.199,0.453-2.414,0.864-3.582,1.388c-1.453,0.652-2.865,1.402-4.293,2.11c0.117,1.729,1.113,3.148,1.67,4.722
			c0.393,1.106,0.877,2.18,1.305,3.273c0.354,0.893,0.633,1.821,1.066,2.673c0.154,0.301,0.658,0.558,1.02,0.586
			c0.516,0.04,1.045-0.155,1.572-0.243c1.998-0.336,3.986-0.813,6-0.964c2.123-0.159,4.268-0.005,6.404,0.012
			c1.283,0.69,2.693,0.631,4.074,0.623c1.312-0.007,2.551,0.284,3.76,0.71c1.717,0.604,3.434,1.113,5.4,0.881
			c0.094,0.02,0.303,0.064,0.512,0.104c0.209,0.042,0.418,0.099,0.631,0.114c1.08,0.078,1.613-0.469,1.412-1.542
			C101.684,55.555,101.031,51.435,100.066,47.391z M96.377,54.193c-0.113,0.247-0.412,0.568-0.637,0.574
			c-0.74,0.019-1.504,0-2.219-0.166c-2.434-0.564-4.877-0.419-7.322-0.213c-1.484,0.126-2.963,0.321-4.449,0.393
			c-1.814,0.087-3.607,0.208-5.375,0.685c-0.926,0.25-1.389-0.05-1.785-0.906c-0.27-0.579-0.514-1.172-0.725-1.774
			c-0.332-0.944-0.156-1.383,0.68-1.816c0.379-0.196,0.764-0.38,1.15-0.558c2.348-1.077,4.41-2.564,6.344-4.267
			c1.92-1.69,3.986-3.216,5.846-4.967c2.396-2.257,1.801-2.289,4.393,0.215c0.529,0.511,1.025,1.116,1.346,1.771
			c1.551,3.185,2.506,6.55,2.867,9.963C96.453,53.568,96.502,53.92,96.377,54.193z"/>
	</g>
</g>
</svg>
