<?xml version="1.0" encoding="utf-8"?>
<!-- Generator: Adobe Illustrator 16.0.0, SVG Export Plug-In . SVG Version: 6.00 Build 0)  -->
<!DOCTYPE svg PUBLIC "-//W3C//DTD SVG 1.1//EN" "http://www.w3.org/Graphics/SVG/1.1/DTD/svg11.dtd">
<svg version="1.1" id="Layer_1" xmlns="http://www.w3.org/2000/svg" xmlns:xlink="http://www.w3.org/1999/xlink" x="0px" y="0px"
	 width="120px" height="120px" viewBox="0 0 120 120" style="enable-background:new 0 0 120 120;" xml:space="preserve">
<g id="cargo">
	<g>
		<path style="fill-rule:evenodd;clip-rule:evenodd;" d="M90.08,51.709c-0.316-0.043-0.637-0.068-0.957-0.081
			c-4.482-0.172-8.967-0.342-13.449-0.512c-0.002,0.023-0.002,0.045-0.002,0.069c-1.498,0-2.996,0.004-4.494-0.001
			c-1.924-0.007-3.848-0.015-5.773-0.041c-0.467-0.007-0.793-0.446-0.646-0.874c0.932-2.727,1.873-5.451,2.832-8.169
			c0.709-2.011,1.455-4.01,2.17-6.019c1.506-4.231,2.547-8.583,3.518-12.965c0.922-4.164,2.104-8.27,3.16-12.404
			c0.131-0.514,0.273-1.047,0.268-1.57c-0.018-1.859-2.082-3.48-3.84-2.285c-1.486,1.009-3.002,2.108-3.994,3.621
			c-2.061,3.136-4.666,5.83-6.92,8.809c-2.639,3.488-5.68,6.672-8.571,9.967c-1.557,1.773-2.953,3.647-4.164,5.68
			c-0.871,1.463-1.867,2.862-2.906,4.214c-1.822,2.371-3.816,4.615-5.566,7.038c-4.127,5.719-8.158,11.509-12.213,17.279
			c-0.428,0.607-0.895,1.238-1.111,1.932c-0.396,1.268-0.494,2.541,0.918,3.385c0.35,0.209,0.738,0.52,0.885,0.877
			c0.543,1.322,1.613,1.574,2.859,1.621c1.279,0.049,2.555,0.195,3.834,0.223c1.926,0.041,3.852-0.008,5.775,0.021
			c2.674,0.038,5.348,0.101,8.02,0.173c1.277,0.035,1.377,0.223,0.969,1.598c-0.061,0.204-0.121,0.409-0.184,0.613
			c-2.039,6.52-4.084,13.037-6.115,19.559c-0.508,1.631-1.154,3.244-1.428,4.916c-0.59,3.602-1.555,7.085-2.879,10.473
			c-0.379,0.97-0.428,1.848,0.145,2.738c0.23,0.359,0.418,0.746,0.641,1.111c0.439,0.724,1.07,0.953,1.893,0.807
			c1.01-0.181,1.754-0.795,2.428-1.474c2.49-2.501,5.07-4.925,7.385-7.579c3.938-4.516,7.948-8.953,12.155-13.219
			c1.496-1.52,2.887-3.152,4.232-4.811c4.111-5.061,8.18-10.154,12.76-14.816c1.26-1.285,2.254-2.838,3.35-4.283
			c0.771-1.02,1.375-2.205,2.281-3.08c2.457-2.375,3.713-5.449,5.125-8.423C93.49,53.668,92.467,52.037,90.08,51.709z
			 M75.914,72.034c-0.062,0.107-0.212,0.165-0.349,0.229c-0.001,0.044-0.002,0.089-0.005,0.133c-0.062,0.017-0.125,0.03-0.187,0.048
			c-0.061,0.085-0.122,0.169-0.183,0.253c0.023-0.072,0.023-0.178,0.072-0.209c0.033-0.021,0.072-0.032,0.11-0.044
			c0.033-0.045,0.065-0.091,0.099-0.136c0.028-0.017,0.062-0.03,0.093-0.045c0.005-0.146,0.007-0.292,0.05-0.424
			c0.039-0.118,0.18-0.203,0.273-0.302C75.902,71.707,75.982,71.912,75.914,72.034z M86.17,57.211
			c-1.379,2.401-2.717,4.831-4.199,7.167c-1.001,1.578-2.165,3.064-3.825,4.046c-0.008,0.042-0.014,0.085-0.022,0.126
			c-0.031-0.005-0.05,0.005-0.078,0.003c-0.052,0.32-0.22,0.511-0.549,0.521c-0.005,0.031-0.014,0.059-0.018,0.091
			c-0.07,0.043-0.145,0.079-0.207,0.13c-0.028,0.051-0.058,0.102-0.086,0.152c0.023-0.05,0.037-0.112,0.074-0.146
			c0.004-0.003,0.008-0.004,0.012-0.007c0.04-0.071,0.079-0.142,0.119-0.213c0.041,0.004,0.069-0.007,0.105-0.008
			c0.051-0.312,0.182-0.543,0.549-0.521c0.004-0.024,0.013-0.043,0.016-0.069c0.03-0.018,0.055-0.042,0.085-0.06
			c0.088-0.467,0.12-0.96,0.319-1.372c0.602-1.252,1.318-2.445,1.93-3.692c0.516-1.054,0.973-2.138,1.4-3.231
			c0.102-0.256-0.027-0.602-0.049-0.906c-0.258,0.071-0.607,0.059-0.76,0.227c-0.791,0.865-1.598,1.73-2.275,2.683
			c-1.361,1.915-2.709,3.845-3.941,5.842c-2.645,4.284-5.66,8.293-8.787,12.227c-2.996,3.766-5.864,7.615-8.028,11.949
			c-0.804,1.607-2.116,2.825-3.583,3.858c0.003,0.054-0.009,0.103,0,0.159c-0.07,0.018-0.143,0.031-0.209,0.055
			c-0.054,0.065-0.107,0.131-0.16,0.195c0.031-0.059,0.047-0.145,0.098-0.173c0.019-0.011,0.041-0.015,0.062-0.022
			c0.04-0.049,0.08-0.098,0.12-0.146c0.031-0.021,0.059-0.046,0.089-0.067c-0.033-0.608,0.289-1.087,0.616-1.569
			c1.291-1.916,2.547-3.855,3.869-5.748c0.648-0.925,0.811-1.908,0.703-2.985c-0.09-0.884-1.016-1.45-1.859-1.093
			c-0.377,0.16-0.705,0.434-1.062,0.645c-0.343,0.201-0.693,0.39-1.04,0.583c0,0.004,0,0.008,0,0.013
			c-0.004,0-0.006,0.002-0.01,0.003c0.116,0.702-0.333,1.111-0.799,1.505c-0.037,0.029-0.168,0.005-0.203-0.037
			c-0.059-0.068-0.119-0.182-0.102-0.261c0.126-0.617,0.38-1.131,1.104-1.207c-0.001-0.004,0-0.007,0-0.011
			c0.003-0.002,0.006-0.004,0.009-0.005c-0.106-0.737,0.44-1.15,0.834-1.63c1.225-1.484,2.465-2.957,3.697-4.437
			c0.205-0.247,0.413-0.493,0.594-0.758c1.072-1.584,0.719-2.624-1.149-3.405c-0.564-0.234-0.664-0.505-0.289-0.846
			c0.395-0.357,0.836-0.664,1.219-1.035c0.578-0.559,0.857-1.209,0.523-2.025c-0.119-0.294-0.158-0.621-0.254-0.926
			c-0.428-1.355-0.903-1.535-2.381-0.93c-0.168,0.068-0.352,0.096-0.529,0.141c-0.021-0.201-0.129-0.443-0.053-0.594
			c0.283-0.564,0.607-1.109,0.949-1.641c0.594-0.93,0.338-2.03-0.648-2.303c-1.332-0.367-2.689-0.683-4.055-0.898
			c-4.346-0.686-8.73-0.776-13.119-0.735c-0.75,0.007-1.5,0.021-2.248,0.011c-0.627-0.01-1.1-0.395-0.852-0.631
			c0.281-0.27,0.66-0.547,1.025-0.59c0.738-0.086,1.516,0.094,2.238-0.041c0.818-0.154,1.623-0.475,2.385-0.828
			c0.631-0.293,0.623-1.287,0.016-1.549c-0.582-0.252-1.211-0.391-1.801-0.626c-0.244-0.098-0.631-0.343-0.615-0.481
			c0.035-0.284,0.27-0.562,0.471-0.803c0.445-0.538,1.08-0.611,1.73-0.692c1.373-0.173,2.76-0.311,4.104-0.631
			c0.689-0.164,1.354-0.611,1.922-1.065c0.838-0.67,0.752-1.969-0.178-2.438c-0.844-0.425-1.787-0.654-2.689-0.964
			c-0.443-0.153-0.537-0.566-0.303-1.021c0.604-1.173,1.455-1.664,2.844-1.577c1.699,0.105,3.418-0.082,5.129-0.139
			c0.992-0.033,1.885-0.338,2.672-0.951c1.006-0.783,0.971-2.247-0.055-3.036c-1.096-0.845-2.344-0.981-3.652-0.821
			c-0.635,0.078-1.258,0.245-1.891,0.318c-0.156,0.018-0.348-0.16-0.494-0.282c-0.035-0.028,0.025-0.208,0.078-0.297
			c0.324-0.552,0.643-1.109,0.996-1.641c0.373-0.559,0.904-0.869,1.586-0.975c0.842-0.132,1.689-0.283,2.506-0.521
			c0.604-0.175,1.195-0.448,1.732-0.778c0.633-0.39,0.668-1.473,0.125-1.971c-0.156-0.143-0.318-0.288-0.502-0.392
			c-0.535-0.306-1.516-0.33-1.459-1.038c0.088-1.082,1.184-1.01,2.002-1.177c0.627-0.127,1.271-0.229,1.867-0.454
			c0.586-0.223,1.182-0.507,1.661-0.902c1.186-0.977,0.977-2.277-0.424-3.013c-0.281-0.147-0.596-0.244-0.846-0.431
			c-0.141-0.104-0.268-0.358-0.242-0.52c0.029-0.186,0.199-0.415,0.369-0.498c0.374-0.181,0.78-0.307,1.184-0.408
			c0.721-0.182,1.475-0.259,2.172-0.502c1.383-0.483,1.811-1.508,0.984-2.729c-0.58-0.858-0.672-1.449,0.041-2.231
			c1.297-1.419,2.521-2.902,3.791-4.346c0.117-0.132,0.346-0.167,0.521-0.247c0.061,0.198,0.203,0.409,0.17,0.59
			c-0.203,1.155-0.389,2.318-0.684,3.451c-0.729,2.788-1.533,5.555-2.268,8.342c-0.516,1.958-0.938,3.939-1.455,5.896
			c-0.297,1.132-0.646,2.257-1.066,3.349c-1.461,3.792-2.646,7.672-3.78,11.571c-0.223,0.773-0.262,1.481,0.273,2.115
			c0.5,0.594,1.102,1.096,1.938,0.727c1.121-0.495,2.289-0.47,3.467-0.464c2.783,0.015,5.564,0.013,8.348,0.027
			c2.033,0.01,4.041,0.115,6.062,0.501c1.664,0.319,3.408,0.212,5.117,0.305c0.314,0.017,0.637,0.053,0.939,0.141
			C86.295,56.579,86.33,56.931,86.17,57.211z"/>
	</g>
</g>
</svg>
