<?xml version="1.0" encoding="utf-8"?>
<!-- Generator: Adobe Illustrator 16.0.0, SVG Export Plug-In . SVG Version: 6.00 Build 0)  -->
<!DOCTYPE svg PUBLIC "-//W3C//DTD SVG 1.1//EN" "http://www.w3.org/Graphics/SVG/1.1/DTD/svg11.dtd">
<svg version="1.1" id="Layer_1" xmlns="http://www.w3.org/2000/svg" xmlns:xlink="http://www.w3.org/1999/xlink" x="0px" y="0px"
	 width="120px" height="120px" viewBox="0 0 120 120" style="enable-background:new 0 0 120 120;" xml:space="preserve">
<g id="deviantart">
	<g>
		<path style="fill-rule:evenodd;clip-rule:evenodd;" d="M117.369,58.162c-0.193-0.36-0.434-0.706-0.702-1.013
			c-1.224-1.396-2.494-2.728-4.015-3.834c-2.24-1.632-4.46-3.31-6.543-5.133c-1.656-1.452-3.463-2.571-5.47-3.418
			c-1.519-0.64-3.015-1.333-4.544-1.948c-2.48-0.994-4.961-2.001-7.48-2.895c-2.031-0.723-4.129-1.252-6.176-1.932
			c-4.018-1.327-8.13-2.352-12.334-2.682c-4.202-0.33-8.415-0.794-12.648-0.567c-1.645,0.089-3.287,0.239-4.932,0.277
			c-2.884,0.068-5.777-0.055-8.499,1.216c-0.388,0.18-1.026,0.028-1.47-0.16c-0.984-0.412-1.604-1.132-1.947-2.229
			c-0.67-2.159-1.53-4.258-2.299-6.387c-0.635-1.76-1.405-2.366-3.218-2.158c-1.108,0.128-2.197,0.505-3.271,0.845
			c-1.958,0.622-3.897,1.305-5.849,1.949c-1.076,0.354-2.168,0.655-3.24,1.022c-0.992,0.337-1.788,0.982-2.563,1.679
			c-0.934,0.835-1.272,1.854-1.104,3.053c0.071,0.504,0.191,1.017,0.38,1.488c0.456,1.146,0.956,2.276,1.459,3.404
			c0.91,2.05,1.298,1.973-0.715,3.552c-1.13,0.888-2.184,1.882-3.223,2.881c-3.518,3.387-6.035,7.556-8.886,11.464
			c-0.48,0.655-0.829,1.433-1.118,2.2c-1.241,3.27-2.479,6.545-3.635,9.847c-0.936,2.669-1.067,5.453-0.844,8.249
			c0.142,1.77,0.432,3.507,2.105,4.592c0.562,0.364,0.737,0.935,0.942,1.531c0.566,1.656,1.137,3.314,1.826,4.92
			c0.819,1.899,1.766,3.721,3.736,4.766c0.401,0.211,0.646,0.754,0.914,1.174c0.451,0.7,1.112,0.918,1.868,0.79
			c0.909-0.157,1.808-0.603,2.7-0.578c2.299,0.063,4.503-0.469,6.732-0.841c2.741-0.452,5.461-1.002,8.078-1.988
			c1.153-0.435,2.354-0.744,3.542-1.078c3.479-0.979,6.849-2.178,9.984-4.053c2.472-1.48,5.048-2.814,7.684-3.977
			c2.381-1.047,4.443-2.537,6.553-3.988c0.547-0.375,0.766-0.928,0.781-1.593c0.015-0.707-0.495-1.349-0.158-2.112
			c0.322-0.732,0.01-1.413-0.442-2.016c-1.627-2.171-2.577-4.684-3.614-7.155c-1.915-4.554-3.577-9.217-5.869-13.608
			c-0.301-0.575-0.151-0.927,0.478-1.208c0.281-0.125,0.554-0.323,0.847-0.367c1.727-0.256,3.458-0.497,5.191-0.706
			c1.226-0.149,2.463-0.202,3.687-0.357c4.517-0.578,9.019-0.798,13.522,0.158c1.81,0.382,3.661,0.561,5.487,0.876
			c1.513,0.264,3.105,0.372,4.501,0.946c1.598,0.658,3.035,1.722,4.496,2.68c0.27,0.176,0.49,0.729,0.419,1.034
			s-0.519,0.716-0.831,0.74c-2.086,0.177-3.99,0.979-5.95,1.592c-1.668,0.525-3.329,1.077-5.013,1.532
			c-0.307,0.085-0.895-0.122-1.058-0.38c-0.826-1.307-1.595-2.652-2.306-4.023c-0.524-1.014-1.337-1.551-2.422-1.678
			c-0.711-0.085-1.439-0.076-2.156-0.057c-0.929,0.021-1.854,0.092-2.781,0.141c0-0.019-0.001-0.037-0.001-0.056
			c-1.34,0-2.687-0.064-4.021,0.019c-1.33,0.084-2.649,0.336-3.975,0.485c-1.558,0.173-1.785,1.019-1.263,2.069
			c0.456,0.918,0.797,1.88,0.869,2.944c0.042,0.587,0.343,1.171,0.59,1.73c2.093,4.708,4.196,9.406,6.31,14.102
			c0.294,0.656,0.605,1.314,1,1.913c0.209,0.317,0.582,0.655,0.936,0.733c2.404,0.543,4.718,1.008,7.211-0.118
			c5.262-2.373,10.816-3.953,16.381-5.474c5.666-1.547,11.297-3.199,16.48-6.064c2.178-1.205,4.521-1.958,6.922-2.582
			c1.086-0.284,2.148-0.721,3.154-1.22C117.587,60.607,117.928,59.193,117.369,58.162z M13.23,84.344
			c-0.099-0.004-0.253-0.32-0.262-0.498c-0.038-0.754,0.769-1.475,1.529-1.388c0.077,0.009,0.139,0.138,0.209,0.21
			C14.7,83.322,13.811,84.366,13.23,84.344z M106.367,56.583c-1.34,0.764-2.711,1.481-4.016,2.302
			c-2.467,1.551-5.213,2.459-7.912,3.457c-5.125,1.889-10.209,3.857-15.002,6.513c-2.354,1.302-4.943,2.036-7.472,2.905
			c-0.673,0.232-0.989,0.017-1.392-0.771c-0.727-1.418-0.727-1.418-2.276-1.25c-0.595,0.064-0.937-0.297-0.781-0.884
			c0.267-0.995,0.558-1.981,0.859-2.965c0.189-0.616,0.191-1.196-0.086-1.796c-0.405-0.874-1.109-1.151-2.008-0.729
			c-0.184,0.086-0.325,0.256-0.503,0.357c-0.169,0.096-0.358,0.155-0.539,0.229c-0.065-0.289-0.219-0.592-0.182-0.869
			c0.158-1.221,0.434-2.43,0.548-3.655c0.134-1.442-0.06-1.617-1.599-2.006c-0.189-0.047-0.411-0.091-0.537-0.217
			c-0.123-0.119-0.163-0.34-0.195-0.525c-0.012-0.056,0.107-0.194,0.182-0.205c0.596-0.096,1.198-0.27,1.789-0.235
			c1.323,0.074,2.669-0.335,3.969,0.176c0.609,1.07,1.232,2.133,1.824,3.213c0.344,0.631,0.564,1.341,0.965,1.931
			c1.448,2.132,2.762,2.463,4.706,1.779c5.144-1.812,10.39-3.286,15.685-4.576c1.322-0.323,2.541-0.822,3.688-1.525
			c0.501-0.309,0.625-1.219,0.181-1.636c-0.901-0.843-1.843-1.643-2.783-2.448c-1.171-1.004-2.415-1.932-3.521-3.002
			c-2.32-2.238-5.106-3.385-8.244-3.835c-0.804-0.115-1.592-0.358-2.381-0.561c-0.893-0.231-1.765-0.559-2.669-0.721
			c-5.492-0.983-11.043-1.502-16.603-1.069c-4.288,0.335-8.609,0.781-12.708,2.296c-0.675,0.248-1.361,0.48-2.003,0.798
			c-1.409,0.699-1.75,1.448-1.462,3.012c0.037,0.203,0.052,0.418,0.133,0.603c1.12,2.547,1.613,5.305,2.79,7.846
			c2.204,4.764,4.083,9.679,6.658,14.272c0.315,0.561,0.14,0.882-0.513,1.165c-3.588,1.557-7.185,3.096-10.758,4.686
			c-2.165,0.965-4.342,1.863-6.624,2.537c-4.932,1.458-9.886,2.854-14.676,4.75c-0.573,0.227-1.16,0.516-1.757,0.564
			c-0.98,0.083-1.84,1.118-2.915,0.374c0.288-1.026,0.915-1.83,1.655-2.565c0.292-0.291,0.581-0.59,0.83-0.914
			c0.718-0.933,0.392-1.884-0.819-2.387c-0.186-0.081-0.428-0.043-0.594-0.143c-0.11-0.064-0.226-0.338-0.176-0.415
			c0.334-0.517,0.765-0.976,1.064-1.507c0.539-0.953-0.134-2.184-1.254-2.291c-0.693-0.068-1.397-0.027-2.097-0.03
			c0,0.019-0.006,0.034-0.006,0.055c-0.028-0.002-0.053,0.003-0.081,0.003c-0.382,0.924-1.275,1.393-1.909,2.096
			c-0.05,0.055-0.373-0.018-0.413-0.102c-0.072-0.149-0.104-0.427-0.014-0.532c0.628-0.724,1.247-1.491,2.336-1.462
			c0.008-0.021,0.024-0.037,0.032-0.058c0.019,0,0.036-0.001,0.055,0c0.02-0.825,0.794-1.087,1.236-1.595
			c0.54-0.617,1.182-1.16,1.647-1.824c0.437-0.627,0.392-1.376-0.019-2.049c-0.361-0.592-0.952-0.699-1.596-0.749
			c-1.389-0.109-2.287,0.784-3.281,1.511c-0.043,0.029-0.271-0.145-0.372-0.259c-0.048-0.055-0.042-0.224,0.008-0.292
			c0.241-0.328,0.462-0.691,0.772-0.943c0.799-0.649,1.654-1.229,2.46-1.869c0.481-0.383,0.966-0.785,1.344-1.263
			c0.327-0.413,0.338-0.958,0.12-1.468c-0.222-0.512-0.626-0.888-1.163-0.876c-0.596,0.012-1.188,0.228-1.788,0.323
			c-0.166,0.027-0.495-0.045-0.499-0.092c-0.021-0.266-0.072-0.65,0.079-0.789c0.604-0.551,1.312-0.992,1.917-1.544
			c0.757-0.688,1.548-1.376,2.149-2.192c0.949-1.288,0.623-2.099-1.007-2.718c-0.423-0.16-0.909-0.375-0.794-0.761
			c0.582-1.967,1.086-4.024,2.476-5.59c1.154-1.301,2.442-2.555,3.882-3.517c2.39-1.594,4.56-3.513,7.138-4.83
			c0.899-0.461,1.331-1.288,1.236-2.302c-0.089-0.977-0.992-1.996-2.098-1.909c-1.723,0.134-2.422-0.721-2.823-2.147
			c-0.056-0.198-0.166-0.378-0.231-0.573c-1.31-3.877-1.393-3.034,1.941-4.108c1.958-0.633,3.904-1.297,5.86-1.935
			c0.913-0.296,1.458-0.094,1.697,0.754c0.5,1.779,1.021,3.562,1.337,5.376c0.268,1.54,0.607,3.035,1.31,4.42
			c0.662,1.303,1.708,2.033,3.256,1.835c0.818-0.106,1.652-0.113,2.456-0.276c3.629-0.741,7.277-1.305,10.948-1.812
			c3.803-0.523,7.595-0.503,11.403-0.583c3.424-0.072,6.759,0.636,10.141,0.93c2.349,0.203,4.676,0.657,7.016,0.971
			c1.977,0.267,3.767,0.93,5.393,2.131c1.07,0.789,2.277,1.404,3.454,2.044c5.075,2.761,9.921,5.878,14.542,9.346
			C106.898,55.779,106.883,56.288,106.367,56.583z M41.417,66.714c-1.731-2.456-2.955-5.19-4.34-7.837
			c-0.812-1.551-1.672-3.077-2.533-4.602c-0.59-1.043-0.798-1.045-1.939-0.394c-1.903,1.084-3.4,2.666-5.065,4.043
			c-2.049,1.696-3.306,3.876-4.152,6.382c-1.146,3.402-1.073,6.895-1.04,10.392c0.006,0.538,0.358,1.113,0.879,1.141
			c1.466,0.081,2.769,0.549,4.038,1.241c0.332,0.18,0.809,0.098,1.089,0.122c0.44-0.021,0.766,0.022,1.056-0.062
			c3.461-0.986,6.923-1.972,10.37-3.003c0.692-0.21,1.34-0.632,1.58-1.376c0.409-1.265,0.764-2.548,1.105-3.828
			c0.044-0.167-0.096-0.396-0.187-0.58C42.005,67.8,41.771,67.215,41.417,66.714z M36.295,67.965
			c-1.754,0.576-3.502,1.174-5.258,1.746c-1.065,0.347-1.512,0.019-1.51-1.077c0,0.007-0.001,0.015-0.001,0.021v-0.053
			c0-0.01-0.001-0.016-0.001-0.024c0-0.024,0.001-0.048,0.001-0.071c0-0.25,0.002-0.148,0,0v0.096c0,0.012,0.001,0.021,0.001,0.032
			c0.117-2.872,0.726-4.949,1.55-6.933c0.361-0.868,0.588-2,1.768-2.309c0.756,0.62,0.864,1.566,1.237,2.386
			c0.809,1.776,1.696,3.519,2.55,5.274C36.883,67.566,36.778,67.808,36.295,67.965z"/>
	</g>
</g>
</svg>
