<?xml version="1.0" encoding="utf-8"?>
<!-- Generator: Adobe Illustrator 16.0.0, SVG Export Plug-In . SVG Version: 6.00 Build 0)  -->
<!DOCTYPE svg PUBLIC "-//W3C//DTD SVG 1.1//EN" "http://www.w3.org/Graphics/SVG/1.1/DTD/svg11.dtd">
<svg version="1.1" id="Layer_1" xmlns="http://www.w3.org/2000/svg" xmlns:xlink="http://www.w3.org/1999/xlink" x="0px" y="0px"
	 width="120px" height="120px" viewBox="0 0 120 120" style="enable-background:new 0 0 120 120;" xml:space="preserve">
<g id="adobe">
	<g>
		<path style="fill-rule:evenodd;clip-rule:evenodd;" d="M49.342,16.346c0.162-0.965-0.369-2.103-1.25-2.396
			c-2.018-0.671-3.943-1.666-6.129-1.77c-4.053-0.192-8.105-0.408-12.158-0.613c-0.002,0.067-0.006,0.134-0.008,0.201
			c-1.926,0-3.859-0.102-5.775,0.026c-2.338,0.155-4.689,0.374-6.99,0.801c-2.645,0.491-3.58,1.634-3.998,4.291
			c-0.051,0.316-0.066,0.639-0.082,0.958c-0.217,4.267-0.773,8.513-0.615,12.803c0.084,2.242-0.012,4.495-0.113,6.738
			c-0.129,2.773-0.473,5.542-0.502,8.314c-0.104,9.523-0.117,19.046-0.146,28.57c-0.004,1.176-0.043,2.386,0.207,3.518
			c0.379,1.699,0.379,3.395,0.377,5.103c-0.008,2.89-0.025,5.778-0.057,8.667c-0.01,0.854-0.018,1.717-0.135,2.56
			c-0.521,3.728-0.346,7.471-0.283,11.209c0.01,0.616,0.215,1.27,0.479,1.834c0.613,1.308,1.998,1.643,3.205,0.845
			c1.266-0.834,2.41-1.757,2.945-3.273c0.246-0.696,0.736-1.304,1.014-1.993c0.434-1.08,0.809-2.187,1.15-3.299
			c0.219-0.71,0.309-1.459,0.502-2.179c1.045-3.917,2.084-7.836,3.166-11.743c0.91-3.29,1.779-6.597,2.842-9.839
			c0.928-2.839,2.072-5.609,3.17-8.391c2.432-6.16,4.768-12.36,7.367-18.449c4.242-9.932,7.896-20.072,11.229-30.336
			C48.982,17.794,49.219,17.077,49.342,16.346z M20.615,20.982c0.047-1.071,0.404-1.413,1.566-1.567
			c0.205-0.027,0.418-0.004,0.629-0.004c0.553-0.035,0.869,0.297,0.641,0.688c-0.633,1.085-1.283,2.161-1.957,3.222
			c-0.092,0.146-0.357,0.251-0.539,0.248c-0.113-0.002-0.311-0.241-0.318-0.381C20.6,22.454,20.584,21.716,20.615,20.982z
			 M20.477,37.615h0.047c0-0.532,0.02-1.066-0.006-1.598c-0.047-0.993,0.232-1.877,0.742-2.727
			c2.684-4.473,5.379-8.939,7.994-13.453c0.543-0.937,1.254-1.417,2.232-1.584c0.625-0.107,1.277-0.139,1.91-0.099
			c0.379,0.024,0.783,0.199,1.092,0.42c0.08,0.055-0.107,0.58-0.258,0.84c-0.268,0.459-0.588,0.888-0.906,1.316
			c-3.613,4.888-6.693,10.12-9.852,15.302c-0.721,1.183-1.414,2.38-2.148,3.553c-0.135,0.218-0.398,0.356-0.602,0.531
			c-0.082-0.302-0.213-0.598-0.236-0.903C20.449,38.684,20.477,38.148,20.477,37.615z M33.799,41.703
			c-1.117,3.333-2.363,6.614-3.865,9.798c-2.451,5.203-4.809,10.451-6.393,16.001c-1.021,3.579-1.98,7.176-2.967,10.765
			c-0.084,0.307-0.119,0.634-0.254,0.912c-0.074,0.151-0.322,0.314-0.473,0.302c-0.145-0.014-0.381-0.25-0.383-0.391
			c-0.025-2.132-0.018-4.264-0.018-6.396h-0.115c0-1.707,0.031-3.414-0.014-5.119c-0.029-1.098,0.162-2.119,0.703-3.07
			c4.363-7.69,8.33-15.606,13.043-23.099c0.111-0.178,0.273-0.325,0.426-0.472c0.061-0.058,0.189-0.127,0.234-0.1
			c0.084,0.048,0.182,0.165,0.18,0.25C33.898,41.292,33.865,41.506,33.799,41.703z M41.934,19.651
			c-0.377,0.994-0.689,2.023-1.172,2.967c-1.705,3.334-3.025,6.813-4.107,10.391c-0.184,0.609-0.422,1.206-0.678,1.789
			c-0.066,0.154-0.348,0.364-0.455,0.328c-1.773-0.597-2.467,0.91-3.41,1.797c-1.953,1.839-3.434,4.066-4.881,6.312
			c-2.195,3.406-4.422,6.792-6.646,10.179c-0.1,0.151-0.305,0.233-0.461,0.348c-0.084-0.292-0.27-0.602-0.225-0.873
			c0.064-0.408,0.268-0.803,0.459-1.177c0.393-0.758,0.812-1.501,1.227-2.246C24.492,44.25,27.344,39,30.33,33.833
			c2.508-4.337,5.176-8.583,7.789-12.86c0.332-0.544,0.768-1.024,1.143-1.542c0.59-0.812,1.418-0.867,2.295-0.708
			c0.189,0.033,0.357,0.205,0.533,0.314C42.041,19.242,42.01,19.456,41.934,19.651z M108.441,67.883
			c0.021-7.059,0.006-14.119,0.006-21.178h-0.096c0-8.981-0.012-17.963,0.012-26.944c0.004-1.3-0.117-2.566-0.529-3.79
			c-0.215-0.64-0.725-1.17-1.418-1.112c-1.211,0.103-2.293-0.427-3.445-0.531c-3.502-0.315-7.018-0.569-10.529-0.787
			c-2.668-0.165-5.311-0.478-7.932-0.992c-3.576-0.7-7.18-0.995-10.83-0.943c-1.637,0.022-3.127,0.609-4.697,0.869
			c-0.867,0.144-1.271,1.063-1.098,1.989c0.236,1.266,0.629,2.476,1.225,3.623c0.643,1.231,1.266,2.473,1.885,3.716
			c1.809,3.63,3.865,7.131,5.369,10.92c1.889,4.763,3.865,9.495,5.92,14.189c3.6,8.221,6.891,16.559,9.666,25.095
			c1.682,5.175,3.295,10.371,4.977,15.546c0.428,1.316,0.807,2.716,1.555,3.846c1.635,2.465,2.396,5.215,3.129,8.005
			c0.244,0.927,0.506,1.862,0.898,2.732c0.559,1.243,1.812,1.728,3.244,1.394c0.992-0.231,1.9-1.155,1.768-2.361
			c-0.131-1.223,0.414-2.297,0.336-3.479c-0.076-1.171,0.025-2.352,0.031-3.528c0.023-4.385,0.039-8.77,0.066-13.155
			c0.008-1.283-0.105-2.592,0.105-3.844C108.582,74.076,108.432,70.979,108.441,67.883z M80.633,24.57
			c-0.342,0.587-0.857,0.516-1.135-0.147c-0.242-0.583-0.555-1.138-0.811-1.718c-2.039-4.669-2.414-3.673,2.535-4.056
			c0.613-0.048,1.248,0.096,1.865,0.206c0.135,0.025,0.23,0.283,0.342,0.434c-0.006,0.104,0.021,0.228-0.023,0.31
			C82.492,21.261,81.594,22.934,80.633,24.57z M85.465,35.537c-0.24,0.315-0.557,0.209-0.721-0.102
			c-0.645-1.222-1.225-2.478-1.904-3.68c-0.48-0.854-0.299-1.429,0.227-2.271c1.516-2.433,2.812-4.999,4.197-7.513
			c0.309-0.559,0.605-1.122,0.918-1.677c0.404-0.719,0.988-1.1,1.518-0.986c0.857,0.074,1.404,0.046,1.912,0.177
			c2.99,0.771,3.246,0.078,1.393,3.111c-2.328,3.807-4.471,7.728-6.699,11.597C86.043,34.651,85.781,35.118,85.465,35.537z
			 M102.793,52.812c-0.012,2.667-0.025,5.335-0.039,8.002c-0.004,0.854,0,1.706,0,2.559h-0.047c0,3.947,0.002,7.894-0.018,11.841
			c0,0.11-0.225,0.243-0.371,0.317c-0.051,0.028-0.184-0.075-0.266-0.139c-0.084-0.064-0.178-0.141-0.215-0.233
			c-0.988-2.354-1.979-4.708-2.939-7.073c-0.182-0.445,0.053-0.889,0.432-1.095c1.441-0.782,1.941-2.229,2.545-3.576
			c0.25-0.558,0.275-1.24,0.287-1.868c0.016-0.753-0.574-1.46-1.262-1.678c-0.867-0.275-1.883-0.023-2.297,0.66
			c-0.383,0.636-0.654,1.339-1.012,1.992c-0.074,0.138-0.326,0.278-0.465,0.253c-0.184-0.035-0.434-0.205-0.48-0.367
			c-0.146-0.492-0.365-1.047-0.258-1.508c0.139-0.601,0.543-1.148,0.871-1.696c1.531-2.562,3.072-5.118,4.623-7.667
			c0.102-0.165,0.328-0.255,0.492-0.38c0.131,0.233,0.318,0.452,0.375,0.702C102.822,52.162,102.793,52.492,102.793,52.812z
			 M102.799,45.066c-0.018,1.578-0.025,1.596-1.686,1.803c-0.676,0.085-1.211,0.321-1.619,0.884
			c-1.447,1.985-2.908,3.957-4.363,5.935c-0.316,0.428-0.611,0.872-0.957,1.272c-0.053,0.062-0.449-0.027-0.498-0.132
			c-0.527-1.159-1.031-2.33-1.504-3.513c-0.057-0.144,0.053-0.438,0.182-0.562c2.203-2.118,3.352-4.928,4.914-7.464
			c1.625-2.636,3.191-5.307,4.803-7.951c0.072-0.115,0.324-0.136,0.5-0.157c0.037-0.005,0.137,0.169,0.146,0.267
			c0.039,0.425,0.078,0.852,0.082,1.278c0.008,1.39,0.002,2.78,0.002,4.171C102.801,42.286,102.814,43.677,102.799,45.066z
			 M103.139,22.336c-0.496,1.429,0.16,3.069-0.674,4.389c-0.795,1.261-1.797,2.392-2.727,3.563
			c-2.865,3.607-5.439,7.414-7.832,11.348C91.295,42.64,90.658,43.627,90,44.6c-0.189,0.281-0.529,0.341-0.775,0.042
			c-0.801-0.974-1.082-1.942-0.391-3.192c2.951-5.332,5.809-10.718,8.742-16.06c0.719-1.309,1.625-2.513,2.393-3.797
			c0.506-0.848,1.219-1.121,2.152-1.066c0.814,0.047,1.221,0.441,1.131,1.21C103.221,21.918,103.207,22.137,103.139,22.336z
			 M84.051,93.896c0.012-1.684-0.498-3.12-1.197-4.577c-0.832-1.732-1.6-3.495-2.35-5.265c-1.746-4.129-3.645-8.205-5.164-12.417
			c-3.369-9.353-7.414-18.406-11.609-27.403c-0.482-1.032-1.113-1.794-2.213-2.153c-0.402-0.131-0.773-0.357-1.168-0.52
			c-1.068-0.438-1.953-0.296-2.535,0.628c-0.561,0.889-1.012,1.874-1.35,2.871c-1.719,5.051-3.379,10.122-5.074,15.181
			c-1.051,3.136-2.02,6.286-2.77,9.517c-0.6,2.585-1.24,5.196-2.527,7.572c-0.15,0.278-0.289,0.578-0.363,0.885
			c-0.195,0.797,0.023,1.473,0.668,2.001c0.613,0.499,1.277,0.72,2.082,0.562c0.938-0.186,1.885-0.422,2.83-0.428
			c2.67-0.013,5.344,0.07,8.018,0.141c0.525,0.015,1.066,0.089,1.566,0.247c0.264,0.084,0.543,0.368,0.656,0.63
			c0.16,0.382,0.174,0.826,0.252,1.242c0.773,3.983,1.609,7.945,3.131,11.731c0.914,2.274,1.848,4.521,3.348,6.5
			c0.693,0.918,1.494,1.505,2.666,1.507c1.604,0.004,3.207,0.001,4.811,0.001v-0.024c1.391,0,2.779,0.018,4.168-0.009
			c0.641-0.012,1.277-0.139,1.918-0.167c2.781-0.123,4.59-1.286,3.098-4.877C84.498,96.199,84.041,95.021,84.051,93.896z
			 M60.602,54.799c-1.611,4.966-3.184,9.945-4.883,14.88c-0.689,2.006-1.648,3.919-2.537,5.853
			c-0.072,0.157-0.539,0.196-0.811,0.171c-0.117-0.012-0.318-0.355-0.285-0.506c0.264-1.244,0.369-2.574,0.904-3.698
			c3.129-6.586,5.215-13.504,6.814-20.591c0.037-0.167,0.217-0.302,0.332-0.452c0.225,0.202,0.562,0.363,0.654,0.615
			c0.182,0.491,0.225,1.033,0.357,1.721C60.99,53.375,60.83,54.099,60.602,54.799z M66.373,81.917
			c-0.48,0.02-0.727-0.395-0.711-0.819c0.006-0.217,0.27-0.525,0.488-0.613c0.391-0.158,0.682,0.215,0.645,0.876
			C66.693,81.502,66.541,81.91,66.373,81.917z M67.971,67.767c-1.297,2.556-2.467,5.162-3.424,7.868
			c-0.131,0.372-0.486,0.686-1.016,0.531c-0.303-0.088-0.627-0.097-0.955-0.143c-0.203,0-0.418,0.021-0.627-0.004
			c-0.686-0.085-0.949-0.446-0.75-1.068c0.322-1.01,0.705-2.001,1.008-3.017c0.934-3.147,1.838-6.304,2.766-9.453
			c0.09-0.301,0.229-0.596,0.398-0.858c0.105-0.16,0.309-0.263,0.482-0.365c0.02-0.012,0.172,0.131,0.205,0.223
			c0.668,1.783,1.342,3.563,1.971,5.36C68.127,67.113,68.104,67.51,67.971,67.767z M73.498,82.1
			c-1.723,2.705-2.328,5.872-3.678,8.729c-0.061,0.133-0.344,0.256-0.496,0.229c-0.17-0.029-0.32-0.225-0.455-0.37
			c-0.064-0.07-0.078-0.192-0.102-0.295c-0.045-0.206-0.08-0.414-0.158-0.828c0.072-0.426,0.082-1.081,0.301-1.657
			c0.973-2.567,1.998-5.114,3.031-7.657c0.1-0.246,0.318-0.64,0.707-0.379C73.137,80.199,73.752,81.701,73.498,82.1z M77.691,92.819
			c-1.1,0.366-2.209,0.709-3.332,0.989c-0.111,0.028-0.525-0.453-0.484-0.627c0.377-1.66,0.893-3.277,1.801-4.74
			c0.154-0.248,0.621-0.201,0.754,0.086c0.498,1.062,0.988,2.129,1.469,3.199c0.082,0.185,0.109,0.395,0.16,0.594
			C77.938,92.492,77.85,92.766,77.691,92.819z"/>
	</g>
</g>
</svg>
