<?xml version="1.0" encoding="utf-8"?>
<!-- Generator: Adobe Illustrator 16.0.0, SVG Export Plug-In . SVG Version: 6.00 Build 0)  -->
<!DOCTYPE svg PUBLIC "-//W3C//DTD SVG 1.1//EN" "http://www.w3.org/Graphics/SVG/1.1/DTD/svg11.dtd">
<svg version="1.1" id="Layer_1" xmlns="http://www.w3.org/2000/svg" xmlns:xlink="http://www.w3.org/1999/xlink" x="0px" y="0px"
	 width="120px" height="120px" viewBox="0 0 120 120" style="enable-background:new 0 0 120 120;" xml:space="preserve">
<g id="basecamp">
	<g>
		<path style="fill-rule:evenodd;clip-rule:evenodd;" d="M109.557,70.904c-1.016-3.166-2.074-6.326-3.319-9.404
			c-1.913-4.727-4.046-9.365-6.003-14.075c-2.435-5.864-5.408-11.43-8.913-16.717c-3.172-4.787-7.02-8.793-12.133-11.62
			c-6.261-3.457-12.863-4.759-19.887-3.731c-4.382,0.641-8.74,1.478-13.067,2.423c-3.822,0.835-7.357,2.362-10.473,4.856
			c-4.462,3.577-8.221,7.77-11.429,12.472c-1.499,2.198-2.818,4.52-4.276,6.748c-1.831,2.802-3.274,5.805-4.58,8.864
			c-1.176,2.75-2.176,5.578-2.618,8.566c-0.159,1.089-0.297,2.205-0.636,3.244c-2.105,6.434-2.377,13.059-2.14,19.74
			c0.017,0.44,0.126,0.877,0.196,1.312c0.498,3.023,1.912,5.654,3.512,8.201c2.004,3.193,4.834,5.45,8.144,7.176
			c3.487,1.818,7.236,2.764,11.086,3.354c3.504,0.537,7.044,0.825,10.475,1.786c0.422,0.12,0.87,0.15,1.312,0.213
			c3.631,0.503,7.278,0.808,10.389,0.616c3.893,0.035,7.21,0.008,10.523-0.505c4.049-0.628,8.16-0.88,12.188-1.618
			c4.13-0.758,8.192-1.883,12.272-2.9c0.959-0.24,1.91-0.613,2.788-1.071c4.369-2.287,8.154-5.371,11.521-8.939
			c1.356-1.438,2.487-3.11,2.869-5.177c0.136-0.744,0.529-1.463,0.908-2.133c0.787-1.381,1.198-2.893,1.393-4.422
			C109.962,75.752,110.317,73.279,109.557,70.904z M101.953,82.424c-1.562,0.996-2.777,2.529-4.211,3.75
			c-1.093,0.93-2.204,1.899-3.453,2.574c-4.795,2.585-9.774,4.746-15.117,5.918c-2.167,0.475-4.288,1.061-6.401,1.727
			c-2.384,0.752-6.597,1.195-10.206,1.291c-1.539-0.158-3.076-0.341-4.617-0.463c-1.106-0.086-2.218-0.109-3.324-0.131
			c-3.449-0.061-6.801-0.568-10.111-1.627c-1.979-0.63-4.119-0.818-6.201-1.048c-5.01-0.554-9.797-1.809-14.219-4.266
			c-2.157-1.202-4.098-2.665-5.171-5.005c-0.044-0.101-0.083-0.225-0.164-0.285c-2.071-1.531-1.677-3.686-1.428-5.771
			c0.979-8.145,2.592-16.172,4.607-24.116c1.066-4.203,2.583-8.238,4.925-11.936c0.949-1.494,1.705-3.112,2.634-4.619
			c0.754-1.222,1.553-2.437,2.479-3.532c2.65-3.139,5.42-6.162,8.869-8.481c1.869-1.255,3.886-2.186,6.069-2.62
			c3.905-0.772,7.829-1.5,11.772-2.035c2.636-0.357,5.273-0.112,7.92,0.476c6.911,1.535,12.783,4.958,17.953,9.639
			c4.393,3.978,7.146,9.01,8.648,14.708c0.375,1.415,0.892,2.723,1.553,4.008c0.969,1.872,1.903,3.757,2.839,5.649
			c1.479,3.009,2.242,6.24,2.922,9.499c0.833,4.007,1.672,8.013,2.512,12.019c0.088,0.433,0.19,0.864,0.27,1.299
			C103.554,80.449,103.393,81.51,101.953,82.424z M94.399,69.026c-0.8-4.452-1.729-6.606-4.386-10.639
			c-0.613-0.927-1.241-1.845-1.789-2.811c-1.873-3.307-4.541-6.021-6.715-9.104c-0.187-0.266-0.454-0.491-0.72-0.688
			c-1.334-0.993-2.678-1.971-4.021-2.952c-1.129-0.829-2.328-1.208-3.751-0.791c-0.734,0.217-1.531,0.26-2.306,0.304
			c-2.084,0.12-3.856,0.951-5.409,2.301c-2.021,1.756-3.885,3.631-5.253,5.977c-0.779,1.336-1.714,2.596-2.697,3.792
			c-0.625,0.76-1.421,1.401-2.218,1.989c-1.089,0.803-1.569,0.716-2.577-0.316c-0.929-0.951-1.854-1.888-2.344-3.193
			c-0.22-0.582-0.688-1.295-1.215-1.494c-1.113-0.418-1.768-1.251-2.551-2.024c-1.94-1.914-3.941-2.184-6.373-0.989
			c-0.894,0.438-1.77,0.917-2.688,1.296c-3.282,1.358-5.839,3.633-7.875,6.456c-1.293,1.794-2.448,3.727-3.384,5.728
			c-1.745,3.73-3.152,7.576-2.312,11.845c0.147,0.757,0.048,1.558,0.146,2.327c0.296,2.365,0.902,4.562,3.092,5.979
			c0.643,0.416,1.091,1.115,1.703,1.588c1.942,1.492,3.988,2.822,6.422,3.372c1.402,0.316,2.832,0.5,4.233,0.82
			c2.822,0.646,5.692,1.019,8.562,1.071c4.985,0.091,9.969,0.231,14.963-0.394c3.524-0.439,7.044-0.872,10.517-1.573
			c1.744-0.354,3.419-0.804,5.239-0.597c0.846,0.096,1.772-0.129,2.604-0.395c3.286-1.055,6.453-2.403,9.361-4.269
			c2.389-1.528,3.646-3.813,3.891-6.634c0.064-0.772,0.009-1.555,0.009-2.332c0.036-0.002,0.07-0.002,0.108-0.006
			C94.583,71.457,94.613,70.221,94.399,69.026z M28.913,76.112c-0.059-0.188-0.14-0.371-0.162-0.563
			c-0.01-0.073,0.119-0.162,0.187-0.243c0.059,0.188,0.115,0.377,0.175,0.565C29.045,75.95,28.979,76.031,28.913,76.112z
			 M37.11,78.908c-0.3,0.019-0.754-0.045-0.89-0.243c-0.367-0.533-0.696-1.132-0.874-1.749c-0.71-2.441-1.356-4.901-2.021-7.353
			c-0.377-1.389-0.718-2.784-1.124-4.163c-0.427-1.461-0.409-2.834,0.555-4.102c0.196-0.262,0.319-0.58,0.488-0.865
			c0.439-0.746,0.734-1.634,1.754-1.823c0.083,0.759,0.194,1.517,0.236,2.277c0.041,0.772,0.009,1.551,0.009,2.327
			c-0.087,4.238,0.695,8.357,1.673,12.455c0.204,0.86,0.412,1.722,0.648,2.573C37.688,78.684,37.437,78.887,37.11,78.908z
			 M48.992,81.664c-0.335,0.024-0.665,0.038-0.282,0.016c-1.048,0-1.383,0.031-1.713-0.006c-0.462-0.051-0.925-0.258-0.943-0.752
			c-0.057-1.624-1.072-2.899-1.498-4.382c-1.07-3.725-2.131-7.451-3.21-11.172c-0.896-3.092-1.383-6.263-1.853-9.44
			c-0.087-0.6,0.061-1.131,0.618-1.411c2.431-1.212,2.488-1.636,4.314,0.862c0.678,0.924,1.006,1.892,1.036,3.071
			c0.138,5.765,0.746,11.484,1.878,17.144c0.371,1.857,0.831,3.674,2.037,5.215C49.797,81.348,49.635,81.621,48.992,81.664z
			 M55.699,81.676c-0.221,0-0.446,0.033-0.661-0.006c-0.405-0.073-0.904-0.085-0.71-0.75c0.48-1.643,0.224-3.234-0.128-4.885
			c-0.822-3.872-1.483-7.779-2.185-11.676c-0.078-0.424-0.037-0.883,0.029-1.312c0.026-0.172,0.24-0.394,0.414-0.448
			c0.74-0.229,1.981,0.515,2.032,1.223c0.066,0.989,0.056,1.987,0.121,2.979c0.278,4.414,1.068,8.737,2.449,12.944
			C57.688,81.652,57.69,81.68,55.699,81.676z M80.348,57.743c-1.095,0.613-1.547,1.502-1.658,2.687
			c-0.16,1.655-0.379,3.303-0.554,4.956c-0.046,0.439-0.087,0.896-0.028,1.33c0.316,2.299,0.663,4.596,1.002,6.892
			c0.217,1.456,0.742,2.771,1.65,3.943c0.377,0.487,0.249,0.757-0.352,0.923c-0.636,0.176-1.284,0.324-1.936,0.443
			c-0.501,0.092-0.854-0.227-0.731-0.683c0.438-1.673,0.121-3.246-0.292-4.898c-0.862-3.431-1.542-6.912-2.174-10.396
			c-0.518-2.831-0.85-5.693-1.285-8.538c-0.084-0.541-0.236-1.079-0.424-1.594c-0.272-0.736-0.856-1.147-1.479-1.125
			c-0.657,0.022-1.275,0.464-1.436,1.174c-0.245,1.077-0.489,2.169-0.578,3.267c-0.164,1.989-0.219,3.99-0.318,5.982
			c-0.064,4.244,0.45,8.413,1.58,12.496c0.472,1.701,0.938,3.451,2.634,4.453c0.089,0.051,0.21,0.223,0.196,0.241
			c-0.111,0.134-0.235,0.32-0.389,0.354c-3.021,0.734-6.107,1.051-9.191,1.356c-0.614,0.06-0.995-0.286-1.153-0.931
			c-1.017-4.079-2.095-8.145-3.063-12.234c-0.457-1.934-0.768-3.906-1.043-5.877c-0.17-1.217,0.706-2.255,2.05-2.62
			c0.107-0.028,0.403,0.199,0.409,0.312c0.033,0.996,0.039,1.994,0.019,2.989c-0.068,3.009,0.221,5.989,0.947,8.903
			c0.318,1.279,0.841,2.518,1.389,3.723c0.266,0.584,0.756,1.092,1.227,1.551c0.789,0.762,1.713,0.935,2.758,0.479
			c1.113-0.484,1.861-1.227,1.849-2.498c-0.004-0.659-0.023-1.36-0.243-1.967c-1.567-4.297-2.22-8.795-2.964-13.271
			c-0.256-1.541-0.512-3.067-1.234-4.458c-0.363-0.704-0.165-1.245,0.185-1.853c0.841-1.472,2.062-2.593,3.278-3.735
			c0.955-0.898,2.062-1.235,3.337-1.237c0.693,0,1.315,0.1,1.825,0.614c1.103,1.115,2.342,2.03,3.776,2.681
			c0.962,0.436,1.543,1.243,1.942,2.186c0.348,0.817,0.666,1.646,0.986,2.472C81.216,57.143,81.261,57.232,80.348,57.743z
			 M88.008,74.535c-0.709,0.695-1.391,1.424-2.095,2.129c-0.068,0.068-0.251,0.134-0.302,0.096
			c-0.153-0.118-0.381-0.286-0.381-0.437c0-2.125-0.661-4.142-0.969-6.212c-0.374-2.513-0.611-5.043-0.885-7.567
			c-0.016-0.136,0.168-0.294,0.262-0.442c0.104,0.078,0.217,0.124,0.275,0.209c0.941,1.367,1.957,2.693,2.786,4.129
			c0.541,0.942,0.857,2.029,1.185,3.079c0.29,0.947,0.43,1.937,0.684,2.896C88.785,73.246,88.623,73.931,88.008,74.535z"/>
	</g>
</g>
</svg>
