<?xml version="1.0" encoding="utf-8"?>
<!-- Generator: Adobe Illustrator 16.0.0, SVG Export Plug-In . SVG Version: 6.00 Build 0)  -->
<!DOCTYPE svg PUBLIC "-//W3C//DTD SVG 1.1//EN" "http://www.w3.org/Graphics/SVG/1.1/DTD/svg11.dtd">
<svg version="1.1" id="Layer_1" xmlns="http://www.w3.org/2000/svg" xmlns:xlink="http://www.w3.org/1999/xlink" x="0px" y="0px"
	 width="120px" height="120px" viewBox="0 0 120 120" style="enable-background:new 0 0 120 120;" xml:space="preserve">
<g id="trello">
	<g>
		<path style="fill-rule:evenodd;clip-rule:evenodd;" d="M59.6,19.629c-0.215-0.923-0.586-1.132-1.641-1.173
			c-1.816-0.07-3.635-0.118-5.455-0.179c-0.748-0.024-1.523,0.062-2.238-0.108c-2.215-0.525-4.465-0.48-6.707-0.521
			c-2.354-0.044-4.711-0.01-7.064-0.01v0.029c-2.355,0-4.713,0.074-7.066-0.018c-3.658-0.144-7.23,0.703-10.861,0.848
			c-0.729,0.028-1.453,0.34-2.16,0.572c-0.293,0.096-0.598,0.278-0.795,0.51c-0.914,1.066-1.723,2.211-1.736,3.692
			c-0.01,1.066,0.09,2.135,0.121,3.202c0.027,0.952,0.051,1.905,0.037,2.856c-0.016,0.961-0.111,1.921-0.119,2.882
			c-0.033,4.282-0.09,8.564-0.061,12.846c0.082,11.551-0.539,23.112,0.541,34.646c0.15,1.595,0.354,3.187,0.424,4.784
			c0.061,1.383,0.184,2.818-0.109,4.145c-0.424,1.921-0.307,3.83-0.387,5.747c-0.041,1.039,0.334,1.852,1.197,2.478
			c0.42,0.303,0.85,0.7,1.066,1.155c0.625,1.311,1.721,1.851,3.043,2.068c2.105,0.344,4.203,0.841,6.322,0.953
			c4.908,0.262,9.793,0.97,14.727,0.728c1.602-0.077,3.213-0.008,4.818-0.005c1.709,0.004,3.408,0.005,5.092,0.473
			c1.783,0.496,3.346-0.378,4.873-1.133c0.32-0.158,0.586-0.641,0.676-1.021c0.477-2.075,0.928-4.157,1.314-6.252
			c0.209-1.147,0.291-2.319,0.395-3.483c0.252-2.766,0.57-5.528,0.695-8.299c0.258-5.66,0.033-11.329,0.572-16.993
			c0.414-4.354,0.426-8.752,0.67-13.129c0.314-5.66,0.24-11.343,0.334-17.015c0.01-0.749-0.09-1.518,0.045-2.244
			c0.473-2.55,0.277-5.121,0.346-7.684C60.557,23.138,60.014,21.39,59.6,19.629z M55.994,27.843
			c-0.602,6.276-0.957,12.568-1.297,18.864c-0.232,4.271-0.256,8.559-0.648,12.81c-0.492,5.34-0.439,10.684-0.631,16.025
			c-0.148,4.167-0.266,8.337-0.545,12.495c-0.156,2.337-0.664,4.646-0.662,7.005c0,0.729-0.58,1.208-1.303,1.057
			c-4.24-0.89-8.529-0.367-12.795-0.505c-0.428-0.014-0.869,0.005-1.273-0.104c-0.27-0.072-0.531-0.284-0.398-0.706
			c0.154-0.504,0.285-1.029,0.326-1.555c0.049-0.635-0.477-1.373-1.014-1.483c-0.578-0.118-1.096,0.104-1.393,0.579
			c-0.51,0.809-0.936,1.67-1.395,2.509c-0.338,0.614-1.084,0.829-1.943,0.512c-0.129-0.046-0.295-0.349-0.248-0.436
			c0.24-0.473,0.656-0.883,0.789-1.375c0.162-0.593,0.154-1.25,0.113-1.873c-0.031-0.495-0.848-0.864-1.256-0.608
			c-0.357,0.223-0.729,0.453-1.012,0.757c-0.586,0.623-1.117,1.295-1.668,1.951c-0.65,0.78-1.424,1.294-2.5,1.149
			c-0.73-0.099-1.461-0.194-2.191-0.291c-0.191-0.967,0.559-1.487,1.037-2.116c0.969-1.277,1.992-2.514,2.977-3.78
			c0.262-0.334,0.52-0.69,0.678-1.077c0.205-0.495,0.287-1.037-0.094-1.511c-0.396-0.491-0.986-0.512-1.459-0.302
			c-0.668,0.295-1.332,0.685-1.863,1.178c-0.938,0.87-1.768,1.856-2.662,2.772c-0.129,0.13-0.449,0.242-0.557,0.173
			c-0.139-0.089-0.186-0.368-0.213-0.572c-0.139-1.013,0.221-1.935,0.74-2.736c1.039-1.613,2.17-3.169,3.301-4.722
			c0.693-0.949,1.475-1.832,2.174-2.774c0.248-0.335,0.428-0.744,0.543-1.146c0.17-0.579-0.096-1.102-0.57-1.371
			c-0.322-0.182-0.902-0.281-1.168-0.111c-1.076,0.683-2.072,1.491-3.107,2.235c-0.141,0.101-0.432,0.197-0.516,0.128
			c-0.139-0.117-0.225-0.362-0.24-0.561c-0.1-1.306,0.084-2.493,0.906-3.63c1.129-1.554,2.074-3.24,3.068-4.889
			c0.387-0.638,0.764-1.3,1.004-2c0.166-0.483,0.141-1.053,0.105-1.578c-0.037-0.58-0.436-0.937-0.949-1.188
			c-0.596-0.294-1.014-0.017-1.408,0.38c-0.678,0.682-1.346,1.369-2.029,2.043c-0.066,0.064-0.258,0.113-0.295,0.075
			c-0.133-0.133-0.283-0.296-0.316-0.468c-0.141-0.766,0.014-1.488,0.418-2.154c0.613-1.004,1.209-2.018,1.844-3.006
			c1.217-1.888,2.455-3.762,3.688-5.639c0.443-0.674,0.523-1.401,0.262-2.144c-0.189-0.53-0.588-0.954-1.168-0.945
			c-0.381,0.006-0.883,0.157-1.115,0.429c-0.834,0.972-1.57,2.028-2.355,3.042c-0.381,0.488-0.67,1.095-1.391,1.192
			c-0.088-0.625-0.189-1.249-0.266-1.877c-0.143-1.215,0.184-2.309,0.789-3.368c1.752-3.062,3.49-6.135,5.172-9.235
			c0.607-1.121,1.074-2.322,1.537-3.514c0.217-0.565-0.242-1.354-0.811-1.575c-0.549-0.214-1.096-0.099-1.48,0.296
			c-0.52,0.531-0.977,1.132-1.398,1.745c-1.031,1.496-2.021,3.022-3.047,4.52c-0.102,0.148-0.352,0.194-0.533,0.288
			c-0.088-0.191-0.236-0.378-0.252-0.574c-0.049-0.64-0.047-1.282-0.07-1.924c-0.035-1,0.055-1.873,1.145-2.418
			c0.52-0.259,0.959-0.863,1.225-1.413c1.484-3.079,2.908-6.19,4.348-9.291c0.045-0.097,0.082-0.198,0.125-0.296
			c0.238-0.559,0.113-1.049-0.311-1.455c-0.457-0.438-1.215-0.491-1.752,0.001c-0.941,0.862-1.844,1.774-2.686,2.733
			c-0.561,0.637-0.98,1.395-1.475,2.092c-0.057,0.08-0.182,0.162-0.268,0.156c-0.066-0.006-0.16-0.143-0.176-0.232
			c-0.074-0.418-0.162-0.838-0.176-1.26c-0.039-1.498-0.146-3.003-0.039-4.492c0.076-1.035-0.818-2.314,0.096-3.013
			c0.76-0.579,2.01-0.58,3.057-0.702c1.164-0.137,2.348-0.152,3.523-0.164c2.354-0.022,4.709-0.006,7.064-0.006v0.004
			c2.033,0,4.068-0.008,6.1,0.003c1.816,0.009,3.617,0.04,5.426,0.395c1.455,0.284,2.984,0.194,4.482,0.259
			c0.961,0.041,1.928,0.02,2.887,0.097c1.086,0.088,1.512,0.571,1.514,1.65C56.07,26.131,56.074,26.991,55.994,27.843z
			 M105.621,27.453c-0.125-1.383-0.092-2.778-0.197-4.163c-0.064-0.848-0.186-1.7-0.395-2.522c-0.479-1.881-1.74-2.682-3.584-2.146
			c-0.84,0.243-1.623,0.407-2.496,0.347c-0.848-0.06-1.715-0.016-2.561,0.082c-5.533,0.635-11.092,0.511-16.645,0.526
			c-0.535,0.002-1.068,0.002-1.604,0.01c-1.279,0.021-2.529-0.022-3.803-0.35c-1.77-0.455-3.605-0.425-5.381,0.127
			c-1.041,0.324-1.355,0.829-1.328,1.893c0.035,1.276,0.117,2.56,0.029,3.829c-0.309,4.477-0.699,8.957-0.447,13.438
			c0.186,3.309-0.061,6.597-0.082,9.894c-0.031,5.024-0.068,10.049-0.086,15.073c-0.004,1.604,0.008,3.209,0.082,4.81
			c0.09,1.913,1.277,3.121,3.225,3.305c0.955,0.09,1.922,0.11,2.883,0.104c9.193-0.051,18.383-0.103,27.576-0.192
			c0.943-0.009,1.887-0.262,2.828-0.413c1.504-0.241,2.176-1.326,2.41-2.651c0.203-1.149,0.213-2.341,0.217-3.514
			c0.021-4.917,0.008-9.835,0.008-14.753C105.984,42.609,106.311,35.021,105.621,27.453z M73.57,24.274
			c0.09,0.01,0.164,0.12,0.295,0.225c-0.232,0.201-0.457,0.396-0.682,0.59c-0.057-0.087-0.154-0.173-0.16-0.263
			C73.004,24.454,73.174,24.229,73.57,24.274z M100.479,64.026c-0.043,0.332-0.459,0.705-0.797,0.889
			c-0.354,0.193-0.82,0.247-1.236,0.247c-7.271,0.013-14.541,0.008-21.811,0.002c-0.211,0-0.42-0.06-0.631-0.088
			c-0.305-0.04-0.391-0.192-0.234-0.449c0.438-0.728,0.975-1.416,1.285-2.194c0.17-0.429,0.07-1.053-0.105-1.512
			c-0.277-0.723-1.447-0.894-1.857-0.278c-0.586,0.88-1.066,1.832-1.562,2.767c-0.145,0.273-0.154,0.618-0.307,0.886
			c-0.078,0.141-0.334,0.268-0.498,0.253c-0.166-0.015-0.391-0.18-0.453-0.335c-0.115-0.284-0.174-0.609-0.178-0.919
			c-0.014-1.817,0.002-3.635-0.01-5.453c-0.004-0.859,0.316-1.332,1.223-1.567c0.562-0.146,1.139-0.61,1.51-1.088
			c1.506-1.939,2.945-3.932,4.385-5.923c0.244-0.339,0.387-0.76,0.535-1.159c0.221-0.591-0.014-1.341-0.506-1.735
			c-0.49-0.393-1.301-0.443-1.773,0.023c-1.139,1.122-2.232,2.291-3.322,3.462c-0.436,0.466-0.801,0.999-1.234,1.47
			c-0.111,0.12-0.354,0.136-0.541,0.154c-0.047,0.004-0.156-0.168-0.158-0.26c-0.025-1.491-0.1-2.984-0.018-4.471
			c0.025-0.465,0.41-0.971,0.752-1.347c2.096-2.308,3.686-4.976,5.41-7.545c0.352-0.522,0.627-1.132,0.781-1.74
			c0.127-0.496,0.094-1.063,0.004-1.577c-0.172-0.973-1.572-1.422-2.24-0.715c-0.881,0.93-1.707,1.913-2.543,2.886
			c-0.277,0.323-0.49,0.701-0.771,1.019c-0.129,0.145-0.352,0.205-0.531,0.305c-0.096-0.185-0.277-0.373-0.271-0.555
			c0.02-0.523,0.027-1.076,0.203-1.558c0.219-0.594,0.611-1.122,0.918-1.686c1.178-2.156,2.344-4.317,3.523-6.473
			c0.359-0.654,0.721-1.311,1.127-1.938c0.439-0.678,1.072-1.089,1.9-0.876c1.916,0.493,3.789,0.207,5.711-0.02
			c2.217-0.26,4.469-0.326,6.703,0.16c1.795,0.392,3.6,0.221,5.393-0.221c1-0.244,1.5,0.127,1.551,1.033
			c0.209,3.728,0.471,7.455,0.564,11.188c0.096,3.847,0.021,7.697,0.021,11.548c-0.012,0-0.021,0.001-0.035,0.001
			c0.066,4.168,0.137,8.339,0.193,12.508C100.559,62.106,100.596,63.077,100.479,64.026z"/>
	</g>
</g>
</svg>
