<?xml version="1.0" encoding="utf-8"?>
<!-- Generator: Adobe Illustrator 16.0.0, SVG Export Plug-In . SVG Version: 6.00 Build 0)  -->
<!DOCTYPE svg PUBLIC "-//W3C//DTD SVG 1.1//EN" "http://www.w3.org/Graphics/SVG/1.1/DTD/svg11.dtd">
<svg version="1.1" id="Layer_1" xmlns="http://www.w3.org/2000/svg" xmlns:xlink="http://www.w3.org/1999/xlink" x="0px" y="0px"
	 width="120px" height="120px" viewBox="0 0 120 120" style="enable-background:new 0 0 120 120;" xml:space="preserve">
<g id="mailchimp">
	<g>
		<path style="fill-rule:evenodd;clip-rule:evenodd;" d="M109.391,80.379c-0.41-0.097-0.848-0.078-1.271-0.136
			c-0.508-0.069-0.779-0.452-0.668-0.887c0.514-2.046,0.379-4.194,1.469-6.175c0.822-1.496,0.705-3.432,0.055-4.996
			c-1.248-3.004-3.123-5.605-6.09-7.218c-1.027-0.558-2.32-0.88-3.023-1.708c-0.826-0.975,0.406-2.186,0.363-3.355
			c-0.035-0.959-0.041-1.943,0.139-2.879c0.578-2.979,0.473-5.928,0.033-8.92c-0.381-2.604-0.93-5.029-3.172-6.744
			c-0.742-0.57-0.848-1.438-0.543-2.339c0.275-0.81,0.541-1.624,0.771-2.447c1.01-3.615,1.826-7.26,1.611-11.067
			c-0.182-2.02-0.355-4.038-0.543-6.055c-0.082-0.853-0.135-1.71-0.289-2.549c-0.205-1.115-1.547-1.072-2.051-1.896
			c-0.518-0.848-1.229-1.454-2.119-1.893c-4.078-2.008-8.396-2.652-12.785-1.613c-4.139,0.979-8.34,1.889-12.152,3.938
			c-0.186,0.1-0.402,0.143-0.604,0.209c-0.418,0.137-0.939-0.134-0.898-0.596c0.127-1.473-0.656-2.423-1.688-3.266
			c-0.994-0.811-2-1.609-2.992-2.423c-0.932-0.765-1.986-1.177-3.182-1.402c-2.016-0.381-3.994-0.3-6.035-0.157
			c-3.395,0.237-6.475,1.275-9.438,2.821c-2.67,1.394-5.057,3.202-7.359,5.118c-6.52,5.42-12.406,11.478-17.859,17.954
			c-4.562,5.416-7.625,11.585-8.975,18.553c-0.262,1.351-0.25,2.757-0.32,4.14c-0.035,0.675,0.258,1.271,0.801,1.672
			c2.217,1.641,4.053,3.84,6.865,4.621c0.596,0.165,1.082,0.685,1.66,0.96c2.189,1.045,1.557,1.214,0.713,2.505
			c-0.824,1.264-1.516,2.531-1.852,4.04c-0.613,2.767-0.557,5.491-0.047,8.259c0.334,1.814,0.869,3.506,1.924,5.038
			c1.879,2.729,4.492,4.546,7.398,5.971c1.047,0.513,2.213,0.79,3.424,0.708c0.533-0.037,1.074,0.016,1.605-0.033
			c1.914-0.184,2.021,0.61,1.721,1.767c-0.633,2.414-0.008,4.672,0.609,6.927c1.65,6.041,5.449,10.649,10.291,14.342
			c6.689,5.101,14.395,7.336,22.791,7.136c1.271-0.03,2.533-0.367,3.807-0.467c2.721-0.212,5.227-1.05,7.543-2.46
			c0.742-0.451,1.498-0.744,2.357-0.926c2.098-0.439,4.129-1.148,5.969-2.258c2.197-1.324,4.414-2.637,6.467-4.162
			c3.52-2.619,6.922-5.408,9.475-9.049c1.658-2.361,3.258-4.764,4.83-7.184c0.52-0.802,0.939-1.687,1.277-2.582
			c0.293-0.786,0.527-1.634,0.566-2.465c0.053-1.062-0.072-2.123,0.252-3.176C110.373,81.092,109.928,80.506,109.391,80.379z
			 M86.854,14.764c0.584,0.049,1.018,0.303,1.146,0.885c0.117,0.515,0.146,1.047,0.197,1.438c-0.02,0.348-0.014,0.561-0.045,0.77
			c-0.08,0.555-0.395,0.584-0.883,0.474c-0.244-0.054-0.725,0.085-0.795,0.259c-0.828,2.045-2.023,3.957-2.23,6.23
			c-0.08,0.866-0.311,0.998-1.221,1.046c-0.963,0.05-1.254-0.245-0.943-0.978c1.283-3.02,2.449-6.08,3.34-9.242
			C85.633,14.891,86.035,14.695,86.854,14.764z M87.912,21.035l-0.199-0.021l0.121-0.207L87.912,21.035z M80.822,19.52
			c0.024-0.018,0.055-0.027,0.083-0.039c0.033-0.052,0.065-0.105,0.099-0.158c0.031-0.034,0.061-0.069,0.091-0.103
			c-0.01-1.151,0.255-2.195,1.204-2.973c-0.004-0.035-0.002-0.067-0.008-0.103c0.02-0.01,0.041-0.019,0.062-0.028
			c-0.001-0.186-0.02-0.377,0.038-0.542c0.041-0.119,0.236-0.187,0.363-0.276c0.016,0.191,0.107,0.423,0.031,0.562
			c-0.069,0.126-0.267,0.181-0.433,0.256c0,0.027,0.002,0.055,0.001,0.082c-0.02,0.016-0.035,0.033-0.055,0.049
			c0.152,1.215-0.441,2.129-1.204,2.973c0.001,0.065-0.001,0.128,0.001,0.194c-0.062,0.022-0.129,0.042-0.19,0.067
			c-0.05,0.079-0.101,0.158-0.149,0.238C80.777,19.65,80.779,19.555,80.822,19.52z M78.986,25.99
			c0.008,0.051-0.131,0.125-0.201,0.188c-0.062-0.071-0.188-0.159-0.174-0.213c0.041-0.168,0.133-0.322,0.207-0.482
			C78.877,25.651,78.959,25.816,78.986,25.99z M76.699,17.322c0.186-0.617,0.566-1.188,1.342-1.147
			c0.256,0.014,0.506,0.224,0.758,0.345c-0.146,0.386-0.246,0.689-0.375,0.98c-0.648,1.455-1.299,2.907-1.957,4.357
			c-0.654,1.438-1.461,2.834-1.203,4.519c0.012,0.076-0.08,0.202-0.158,0.251c-0.168,0.105-0.371,0.257-0.535,0.234
			c-0.16-0.022-0.428-0.269-0.41-0.373c0.109-0.619,0.275-1.229,0.447-1.834C75.295,22.207,75.971,19.757,76.699,17.322z
			 M69.471,26.963c0.754-2.535,1.535-5.062,2.322-7.586c0.311-1.004,1.051-1.543,2.041-1.779c0.08-0.02,0.199,0.037,0.273,0.094
			c0.066,0.055,0.16,0.18,0.141,0.232c-0.199,0.491-0.416,0.975-0.635,1.458c-1.215,2.704-2.527,5.37-2.928,8.364
			c-0.029,0.218-0.416,0.387-0.623,0.568c-0.234-0.18-0.484-0.271-0.531-0.426C69.443,27.598,69.387,27.244,69.471,26.963z
			 M64.322,27.662c0.471-2.281,1.258-4.445,2.756-6.283c0.125-0.153,0.342-0.236,0.529-0.334c0.072-0.037,0.193-0.057,0.252-0.02
			c0.078,0.051,0.174,0.179,0.156,0.248c-0.07,0.303-0.162,0.605-0.279,0.893c-0.889,2.148-1.709,4.307-1.639,6.694
			c0.008,0.236-0.273,0.481-0.393,0.683c-0.207-0.022-0.328-0.001-0.4-0.049C64.65,29.061,64.158,28.462,64.322,27.662z
			 M21.984,54.31c-0.674-0.515-0.939-1.142-0.607-1.618c0.729-1.053,1.52-2.064,2.236-3.125c0.355-0.523,0.682-1.096,0.869-1.693
			c0.109-0.352,0.031-0.867-0.162-1.186c-0.332-0.541-0.988-0.475-1.438-0.24c-0.744,0.391-1.486,0.859-2.074,1.447
			c-0.75,0.75-1.338,1.658-2.023,2.477c-0.092,0.109-0.424,0.178-0.496,0.109c-0.133-0.125-0.268-0.418-0.207-0.552
			c0.393-0.869,0.793-1.74,1.277-2.558c0.49-0.826,1.115-1.571,1.621-2.39c0.588-0.954,0.416-1.71-0.709-2.345
			c-0.643-0.362-0.693-0.635-0.357-1.18c1.9-3.107,4.018-6.04,6.572-8.66c2.758-2.832,5.465-5.717,8.152-8.617
			c0.941-1.018,1.885-2.072,2.602-3.247c1.389-2.276,3.578-3.638,5.594-5.203c0.309-0.239,0.822-0.397,1.197-0.333
			c1.129,0.198,2.121-0.142,3.08-0.622c3.314-1.661,6.846-2.333,10.52-2.464c1.271-0.047,2.537-0.306,3.807-0.467
			c1.016-0.097,1.801,0.473,2.576,1.039c0.289,0.211,0.295,0.571-0.008,0.77c-1.699,1.105-3.365,2.281-5.143,3.25
			c-2.547,1.387-4.848,3.125-7.211,4.775c-0.863,0.604-1.615,1.412-2.297,2.227c-3.775,4.503-7.578,8.988-11.248,13.578
			c-2.941,3.675-5.389,7.701-7.803,11.739c-0.613,1.029-1.023,2.122-1.117,3.308c-0.078,1.008-0.447,1.858-1.146,2.563
			c-0.125,0.126-0.408,0.206-0.57,0.156c-0.168-0.051-0.377-0.276-0.396-0.444c-0.062-0.525,0.021-1.072-0.076-1.588
			c-0.143-0.773-1.16-1.197-1.764-0.722c-0.664,0.526-1.252,1.15-1.865,1.739C22.891,54.691,22.523,54.717,21.984,54.31z
			 M61.34,30.986c0.072,0.099,0.006,0.447-0.094,0.504c-0.834,0.466-1.684,0.904-2.541,1.323c-0.363,0.177-0.867-0.21-0.871-0.628
			c-0.002-0.106-0.014-0.213-0.031-0.458c0.256-1.776,0.812-3.601,1.746-5.288c0.191-0.346,0.621-0.562,0.949-0.826
			c0.068-0.055,0.201-0.104,0.26-0.072c0.078,0.043,0.141,0.161,0.162,0.258c0.02,0.099,0,0.217-0.033,0.314
			C60.311,27.805,60.223,29.444,61.34,30.986z M54.084,35.147c-2.062,1.322-4.125,2.643-6.207,3.931
			c-0.221,0.137-0.539,0.116-0.825,0.142c-0.003,0.031-0.005,0.064-0.011,0.092c-0.072,0.035-0.149,0.066-0.217,0.11
			c-0.037,0.054-0.073,0.108-0.109,0.162c0.029-0.052,0.045-0.118,0.086-0.15c0.007-0.005,0.016-0.007,0.023-0.012
			c0.043-0.065,0.087-0.129,0.131-0.194c0.031-0.004,0.064-0.005,0.097-0.008c0.008-0.083,0.014-0.167,0.06-0.216
			c2.16-2.35,4.326-4.694,6.506-7.025c0.125-0.133,0.398-0.218,0.574-0.183c0.152,0.03,0.348,0.251,0.375,0.413
			c0.082,0.524,0.07,1.064,0.145,1.591C54.795,34.4,54.564,34.84,54.084,35.147z M104.412,88.614
			c-0.025,0.017-0.058,0.021-0.086,0.032c-0.039,0.056-0.079,0.109-0.119,0.165c-0.054-0.007-0.103-0.002-0.154-0.005
			c-2.424,2.927-4.661,6.04-7.336,8.718c-3.475,3.482-7.471,6.395-11.82,8.749c-1.211,0.655-2.531,1.107-3.814,1.622
			c-0.086,0.034-0.418-0.248-0.398-0.303c0.135-0.402,0.371-0.772,0.5-1.175c0.252-0.773-0.021-1.475-0.691-1.922
			c-0.539-0.357-1.287-0.354-1.807,0.008c-0.637,0.443-0.92,1.277-0.656,1.976c0.074,0.198,0.162,0.396,0.266,0.581
			c0.803,1.442,0.803,1.432-0.604,1.625c-1.9,0.26-3.807,0.508-5.703,0.811c-6.424,1.023-12.523-0.152-18.42-2.703
			c-1.389-0.601-2.576-1.498-3.689-2.521c-1.057-0.973-1.934-1.979-1.76-3.566c0.041-0.396-0.141-0.835-0.283-1.232
			c-0.229-0.643-0.635-1.181-1.393-1.074c-1.064,0.15-1.641-0.392-1.908-1.281c-0.25-0.83-0.631-1.557-1.078-2.297
			c-0.844-1.398-1.168-2.955-1.02-4.613c0.062-0.729,0.031-1.48-0.076-2.205c-0.098-0.635-0.795-1.25-1.383-1.016
			c-1.18,0.473-1.727-0.613-2.611-0.805c-0.15-0.033-0.303-0.301-0.363-0.488c-0.422-1.312-0.824-2.633-1.229-3.951
			c-0.467-1.518-0.9-1.876-2.484-2c-0.316-0.024-0.641,0.049-0.959,0.033c-0.793-0.04-1.072-0.42-0.932-1.285
			c0.084-0.526,0.295-1.041,0.312-1.564c0.016-0.402-0.141-0.828-0.297-1.213c-0.201-0.486-0.934-0.73-1.361-0.432
			c-0.424,0.299-0.855,0.645-1.141,1.067c-0.287,0.431-0.346,1.015-0.605,1.472c-0.283,0.492,0.031,1.268-0.732,1.516
			c-0.088-0.623-0.242-1.244-0.25-1.868c-0.027-1.84,0.496-3.586,0.994-5.335c0.115-0.402,0.193-0.823,0.211-1.24
			c0.008-0.174-0.156-0.472-0.299-0.514c-0.275-0.08-0.729-0.145-0.871,0.007c-0.654,0.694-1.291,1.424-1.805,2.224
			c-0.395,0.618-0.592,1.361-0.883,2.045c-0.041,0.096-0.119,0.176-0.18,0.264c-0.084-0.154-0.238-0.309-0.238-0.465
			c-0.012-1.52,0.512-2.928,0.957-4.348c0.26-0.825,0.525-1.642,0.223-2.502c-0.066-0.188-0.219-0.414-0.385-0.476
			c-0.162-0.06-0.477,0.005-0.576,0.131c-0.385,0.501-0.699,1.056-1.068,1.568c-0.07,0.097-0.279,0.094-0.426,0.138
			c-0.051-0.201-0.182-0.416-0.146-0.6c0.385-2,1.541-3.509,3.197-4.6c1.254-0.826,2.643-1.404,4.197-1.424
			c0.533-0.007,1.072-0.023,1.602-0.098c2.42-0.34,4.111,0.742,5.369,2.703c0.4,0.625,0.764,1.295,1.266,1.828
			c0.9,0.957,2.357,0.986,3.521,0.184c1.029-0.711,1.58-1.988,1.139-3.062c-0.441-1.077-0.898-2.221-1.643-3.085
			c-1.385-1.611-2.969-3.053-4.502-4.53c-0.193-0.188-0.584-0.197-0.893-0.236c-0.625-0.08-1.27-0.064-1.875-0.215
			c-0.213-0.053-0.453-0.473-0.465-0.732c-0.01-0.264,0.221-0.752,0.395-0.777c1.979-0.275,3.096-1.75,4.42-2.982
			c1.246-1.162,2.572-2.248,3.938-3.273c2.648-1.989,5.33-3.938,8.029-5.855c3.873-2.75,8.16-4.644,12.688-6.008
			c1.328-0.398,2.68-0.724,4.029-1.041c0.826-0.193,1.668-0.393,2.51-0.443c4.156-0.246,8.324-0.348,12.471-0.697
			c2.35-0.197,4.678-0.08,7.014-0.029c0.848,0.02,1.689,0.18,2.533,0.289c0.096,0.012,0.264,0.135,0.256,0.152
			c-0.074,0.188-0.135,0.476-0.277,0.528c-0.49,0.181-1.004,0.364-1.52,0.396c-4.172,0.256-7.861,1.838-11.324,4.056
			c-0.539,0.346-1.084,0.702-1.553,1.132c-0.594,0.543-1.234,0.769-2.035,0.725c-2.234-0.119-4.459-0.074-6.707-0.394
			c-3.318-0.473-6.602,0.021-9.568,1.826c-2.889,1.757-5.299,4.013-6.893,6.999c-2.299,4.303-2.375,8.822-0.705,13.332
			c0.891,2.406,2.047,4.722,4.527,6c0.514,0.266,0.264,0.75,0.006,1.092c-0.766,1.024-1.668,1.965-2.318,3.057
			c-0.648,1.088-1.123,2.295-1.547,3.494c-0.359,1.014,0.08,1.828,1.074,2.35c0.357,0.188,0.797,0.282,1.057,0.555
			c0.113,0.119-0.117,0.584-0.217,0.884c-0.236,0.709-0.537,1.401-0.713,2.124c-0.121,0.506-0.129,1.057-0.098,1.582
			c0.052,0.81,0.512,1.13,1.758,1.33c0.865-2.144,1.735-4.284,2.592-6.431c0.264-0.661-0.207-1.321-0.93-1.286
			c-0.312,0.016-0.648,0.096-0.922,0.242c-0.49,0.262-0.623-0.093-0.553-0.377c0.557-2.244,1.846-4.056,3.445-5.68
			c0.584-0.596,1.35-0.533,2.066-0.708c1.264-0.308,1.615-1.401,0.855-2.462c-0.186-0.26-0.375-0.525-0.6-0.75
			c-3.711-3.725-4.43-8.373-4.139-13.338c0.609-1.577,1.135-3.191,1.855-4.715c0.35-0.744,0.988-1.402,1.619-1.955
			c1.836-1.605,4.037-2.4,6.457-2.441c2.992-0.049,5.984,0.124,8.895,0.885c0.74,0.192,1.412,0.467,2.152,0.075
			c0.422-0.224,0.812-0.083,1.205,0.142c0.971,0.559,1.852,0.291,2.666-0.352c1.01-0.795,2.012-1.597,3.016-2.397
			c1.266-1.011,2.67-1.781,4.195-2.312c0.596-0.209,1.234-0.334,1.863-0.402c1.387-0.15,1.76,0.041,2.236,1.263
			c0.426,1.092,0.844,2.205,1.078,3.349c0.816,4.004,0.871,8.072,0.773,12.137c-0.021,0.838-0.346,1.666-0.508,2.504
			c-0.213,1.122-0.037,1.392,1.035,1.932c1.336,0.672,2.658,1.365,3.965,2.085c1.439,0.791,2.527,1.955,3.428,3.313
			c0.699,1.053,0.658,1.377-0.27,2.144c-2.346,1.939-5.098,3.077-7.924,4.087c-4.945,1.766-10.07,2.797-15.211,3.77
			c-3.143,0.595-6.309,1.07-9.455,1.645c-0.562,0.102-1.031,0.078-1.529-0.186c-0.713-0.38-1.482-0.431-2.109,0.104
			c-0.717,0.61-1.623,1.167-1.672,2.235c-0.023,0.486,0.121,1.15,0.449,1.449c0.816,0.741,1.318,1.578,1.742,2.605
			c0.895,2.17,2.658,3.582,4.773,4.529c4.031,1.804,8.193,3.088,12.67,3.059c1.07-0.008,2.141-0.01,3.209,0.029
			c4.74,0.173,9.045-1.302,13.182-3.441c0.792-0.413,1.492-1.089,2.473-1.041c0.021-0.026,0.043-0.054,0.064-0.08
			c0.07-0.025,0.141-0.052,0.209-0.08c0.055-0.074,0.108-0.148,0.162-0.223C104.463,88.488,104.459,88.582,104.412,88.614z
			 M104.254,81.918c-4.529,3.148-9.432,5.393-14.967,6.039c-0.844,0.098-1.705,0.014-2.559,0.014
			c-3.623-0.151-7.219-0.571-10.686-1.698c-0.998-0.324-1.92-0.891-2.869-1.358c-0.078-0.038-0.172-0.213-0.143-0.26
			c0.082-0.146,0.207-0.359,0.338-0.377c1.691-0.213,3.383-0.414,5.076-0.587c4.998-0.513,9.865-1.688,14.699-2.98
			c3.102-0.829,6.033-2.114,8.73-3.892c0.354-0.232,0.75-0.412,1.15-0.547c0.105-0.037,0.42,0.159,0.432,0.273
			c0.176,1.487,0.383,2.955,1.15,4.289C104.855,81.266,104.635,81.652,104.254,81.918z M81.555,68.109
			c0.307-0.127,0.525-0.264,0.748,0.09c0.172,0.269,0.344,0.545,0.559,0.777c0.402,0.432,0.924,0.572,1.447,0.303
			c0.539-0.279,0.621-0.836,0.57-1.385c-0.144-1.533-1.155-2.11-2.506-2.305c-0.002,0.021-0.009,0.038-0.01,0.06
			c-0.055,0.023-0.111,0.044-0.166,0.067c-0.051,0.086-0.103,0.172-0.154,0.258c0.016-0.069,0.008-0.165,0.053-0.201
			c0.029-0.024,0.065-0.041,0.102-0.057c0.029-0.048,0.058-0.096,0.086-0.143c0.031,0.004,0.06,0.011,0.09,0.016
			c0.096-0.988,0.864-1.371,1.645-1.674c0.893-0.344,1.697,0.094,2.41,0.549c0.488,0.312,0.4,0.928,0.375,1.471
			c-0.027,0.531-0.004,1.069,0.062,1.596c0.082,0.65,0.613,1.163,1.262,1.28c0.566,0.103,1.129-0.024,1.408-0.521
			c0.426-0.751,0.9-1.353,1.672-1.832c0.834-0.519,0.834-1.482,0.195-2.237c-1.342-1.588-3.014-2.672-4.992-3.341
			c-1.559-0.528-2.992-0.239-4.271,0.635c-1.449,0.989-2.43,2.397-2.893,4.104c-0.203,0.745-0.039,1.473,0.434,2.127
			C80.121,68.354,80.615,68.498,81.555,68.109z M56.001,85.573c0.006-0.022,0.012-0.045,0.019-0.067
			c-0.016-0.002-0.028-0.006-0.043-0.008c-0.012,0.03-0.025,0.062-0.037,0.092C55.96,85.584,55.98,85.579,56.001,85.573z
			 M55.531,93.066c0.834,0.348,1.117,0.832,1.086,1.686c-0.035,0.952-0.014,1.913,0.074,2.862c0.066,0.71,0.898,1.311,1.607,1.281
			c0.693-0.028,1.479-0.71,1.539-1.378c0.037-0.422,0.014-0.85,0.016-1.273c0.008-1.915-0.135-3.848,0.07-5.741
			c0.193-1.802-0.6-3.271-1.117-4.847c-0.148-0.454-0.744-0.625-1.34-0.471c-0.491,0.125-0.979,0.258-1.466,0.388
			c-0.479,1.708-0.93,3.425-1.444,5.122C54.223,91.791,54.518,92.645,55.531,93.066z M71.707,63.634
			c0.998,0.94,2.607,0.882,3.332-0.259c1.045-1.648,1.602-3.409,0.992-5.413c-0.594-1.949-1.432-2.673-3.363-2.647
			c-1.232,0.015-2.32,0.842-2.414,2.066c-0.1,1.258-0.094,2.549,0.086,3.793C70.475,62.1,70.984,62.953,71.707,63.634z
			 M86.189,57.078c0.041,1.271,0.682,2.18,1.709,2.865c0.564,0.379,1.219,0.383,1.762-0.019c0.17-0.124,0.354-0.24,0.498-0.39
			c1.479-1.539,1.521-5.225,0.045-6.721c-0.748-0.756-1.715-0.738-2.672-0.516c-0.76,0.176-1.271,0.919-1.357,1.932
			c-0.037,0.419-0.008,0.844-0.008,1.266c-0.018,0-0.037,0-0.055,0.001C86.137,56.023,86.174,56.551,86.189,57.078z M63.576,98.625
			c0-1.055,0.031-2.111-0.012-3.166c-0.023-0.514-0.119-1.047-0.305-1.521c-0.09-0.232-0.445-0.408-0.717-0.502
			c-0.141-0.048-0.447,0.084-0.535,0.225c-1.396,2.199-1.869,4.662-1.943,7.213c-0.012,0.503,0.213,1.029,0.402,1.517
			c0.318,0.821,1.154,1.22,2.076,1.051c0.723-0.134,1.182-0.771,1.137-1.657c-0.057-1.052-0.154-2.102-0.234-3.152
			C63.49,98.629,63.533,98.627,63.576,98.625z M67.006,96.667c-0.516,0.015-1.174,0.594-1.248,1.259
			c-0.115,1.045-0.154,2.1-0.172,3.152c-0.006,0.299,0.152,0.609,0.271,0.9c0.229,0.562,0.883,0.926,1.541,0.886
			c0.629-0.038,1.232-0.567,1.285-1.195c0.041-0.524,0.008-1.057,0.008-1.585h0.078c0-0.633,0.025-1.27-0.008-1.9
			C68.717,97.404,67.811,96.645,67.006,96.667z M42.543,71.82c-0.117-0.285-0.193-0.688-0.412-0.803
			c-0.203-0.107-0.656,0.002-0.854,0.178c-1.588,1.423-2.193,3.338-2.562,5.352c-0.082,0.451,0.477,1.148,0.936,1.119
			c0.381-0.023,0.906-0.179,1.092-0.459c1.012-1.531,1.441-3.292,1.807-4.877C42.549,72.031,42.582,71.912,42.543,71.82z
			 M74.619,101.309c-0.252-0.312-0.639-0.518-0.842-0.676c-0.619-0.078-1.457,0.767-1.398,1.285c0.096,0.84,0.189,1.693,0.418,2.504
			c0.209,0.752,0.805,1.233,1.547,1.493c0.502,0.176,1.549-0.544,1.373-1C75.264,103.734,75.461,102.351,74.619,101.309z
			 M42.852,78.189c-0.377,0.101-0.875,0.295-1.029,0.598c-0.777,1.521-1.258,3.122-0.484,4.803c0.107,0.234,0.471,0.483,0.717,0.484
			c0.256,0.002,0.672-0.236,0.744-0.459c0.424-1.286,0.764-2.599,1.012-3.471c-0.051-0.582-0.062-0.687-0.068-0.791
			C43.717,78.895,43.166,78.105,42.852,78.189z M38.414,69.01c-0.504-0.301-1.029-0.305-1.514-0.014
			c-1.088,0.656-1.66,1.617-1.59,3.055c0.039,0.177,0.09,0.492,0.178,0.797c0.137,0.478,0.793,1.002,1.197,0.863
			c0.375-0.129,0.83-0.361,1-0.681c0.445-0.841,0.766-1.749,1.115-2.64C39.023,69.819,38.848,69.27,38.414,69.01z"/>
	</g>
</g>
</svg>
