<?xml version="1.0" encoding="utf-8"?>
<!-- Generator: Adobe Illustrator 16.0.0, SVG Export Plug-In . SVG Version: 6.00 Build 0)  -->
<!DOCTYPE svg PUBLIC "-//W3C//DTD SVG 1.1//EN" "http://www.w3.org/Graphics/SVG/1.1/DTD/svg11.dtd">
<svg version="1.1" id="Layer_1" xmlns="http://www.w3.org/2000/svg" xmlns:xlink="http://www.w3.org/1999/xlink" x="0px" y="0px"
	 width="120px" height="120px" viewBox="0 0 120 120" style="enable-background:new 0 0 120 120;" xml:space="preserve">
<g id="evernote">
	<g>
		<path style="fill-rule:evenodd;clip-rule:evenodd;" d="M107.521,48.909c-0.037-4.058,0.094-8.109-0.574-12.154
			c-0.774-4.688-2.314-9.08-4.389-13.327c-0.799-1.637-2.016-2.782-3.633-3.458c-2.361-0.985-4.762-1.883-7.176-2.734
			c-0.998-0.351-2.073-0.479-3.111-0.719c-2.84-0.653-5.732-0.598-8.619-0.619c-2.139-0.018-4.275-0.025-6.381-0.5
			c-1.088-0.244-1.275-0.381-1.397-1.398c-0.179-1.482-0.159-2.986-0.68-4.426c-0.839-2.314-2.37-3.693-4.87-4.055
			c-2.123-0.306-4.24-0.449-6.383-0.443c-3.959,0.014-7.924,0.074-11.876-0.103c-3.941-0.176-7.87-0.624-11.805-0.933
			c-0.411-0.031-0.837,0.065-1.251,0.131c-2.164,0.344-3.639,1.52-4.678,3.48c-2.623,4.95-6.1,9.266-10.043,13.238
			c-1.729,1.742-3.267,3.674-4.863,5.543c-0.846,0.991-1.288,2.142-1.551,3.453c-0.428,2.143-0.098,4.229-0.068,6.348
			c0.029,2.074-1.102,4.105-0.955,6.287c0.029,0.426-0.004,0.855-0.008,1.285c-0.039,4.816-0.069,9.633-0.123,14.449
			c-0.014,1.283,0.064,2.598-0.188,3.84c-0.365,1.807-0.4,3.614-0.403,5.43c-0.003,3.211,0.089,6.422,0.083,9.632
			c-0.008,3.946,0.936,7.64,3.01,10.984c2.441,3.933,5.598,6.767,10.678,6.266c0.424-0.042,0.855,0.001,1.285-0.001
			c5.457-0.02,10.916-0.041,16.373-0.059c1.605-0.006,3.212-0.004,4.817,0.008c2.317,0.016,4.124-0.926,5.411-2.854
			c0.535-0.8,1.084-1.591,1.592-2.407c0.625-1,1.186-1.996,1.109-3.277c-0.035-0.59,0.249-1.256,0.552-1.795
			c0.522-0.929,1.143-1.807,1.775-2.667c1.144-1.554,2.677-2.448,4.634-2.467c4.066-0.036,8.135-0.032,12.202-0.059
			c1.117-0.007,2.093,0.372,3.001,0.976c1.26,0.84,2.373,1.852,3.214,3.105c0.403,0.604,0.88,1.367,0.833,2.023
			c-0.138,1.971,0.301,3.807,0.786,5.672c0.267,1.027,0.364,2.107,0.454,3.17c0.055,0.629,0.137,1.367-0.125,1.891
			c-0.76,1.523-1.611,3.014-2.574,4.416c-0.702,1.021-1.809,1.444-3.096,1.326c-1.146-0.105-1.787-0.588-1.861-1.781
			c-0.15-2.399-1.283-4.493-1.98-6.721c-0.297-0.948-1.072-1.477-2.02-1.909c-1.41-0.646-2.68-0.593-3.963,0.181
			c-0.914,0.551-1.801,1.151-2.722,1.693c-2.345,1.379-3.38,3.472-3.407,6.135c-0.014,1.5,0.1,2.957,0.549,4.426
			c0.777,2.55,1.25,5.184,2.283,7.668c0.703,1.691,1.892,2.842,3.48,3.584c0.855,0.398,1.807,0.684,2.742,0.793
			c1.268,0.146,2.562,0.094,3.846,0.096c1.815,0.002,3.615-0.025,5.434,0.248c2.457,0.367,4.974,0.02,7.266-0.781
			c3.283-1.146,6.081-3.209,7.877-6.271c2.112-3.602,3.902-7.388,4.961-11.443c1.859-7.127,3.36-14.336,4.615-21.596
			c0.219-1.261,0.424-2.529,0.533-3.803c0.289-3.404,0.52-6.814,0.775-10.222c0.025-0.319,0.02-0.653,0.111-0.954
			c0.537-1.774,0.463-3.602,0.485-5.418C107.542,53.19,107.521,51.05,107.521,48.909z M39.256,11.409
			c0.171-0.034,0.416,0.059,0.552,0.179c0.109,0.097,0.201,0.386,0.137,0.481c-0.4,0.592-0.83,1.166-1.289,1.713
			c-0.094,0.111-0.382,0.154-0.527,0.096c-0.158-0.062-0.254-0.279-0.377-0.429C37.825,12.366,38.387,11.579,39.256,11.409z
			 M23.958,27.756c2.285-2.522,4.604-5.015,6.928-7.503c0.188-0.201,0.55-0.418,0.768-0.365c0.234,0.059,0.52,0.4,0.568,0.659
			c0.447,2.399,0.996,4.792,0.838,7.263c-0.02,0.318-0.002,0.639-0.002,1.236c-0.252,1.154,0.559,2.676-0.36,4.051
			c-1.318-0.357-2.64-0.705-3.953-1.074c-1.329-0.373-2.665-0.725-3.97-1.166c-0.842-0.286-1.957,0.211-2.525-0.861
			C22.815,29.245,23.329,28.448,23.958,27.756z M101.163,54.64c-0.018,1.604-0.119,3.184-0.464,4.773
			c-0.384,1.767-0.499,3.594-0.685,5.4c-0.643,6.268-1.744,12.473-2.629,18.707c0.193,3.244-1.17,6.016-2.584,8.799
			c-1.016,1.998-1.901,4.066-2.762,6.139c-0.489,1.176-0.955,2.395-1.174,3.641c-0.242,1.383-0.926,2.359-2.023,3.117
			c-0.879,0.607-1.818,1.133-2.666,1.781c-0.887,0.676-1.909,1.084-2.945,1.188c-2.866,0.283-5.695,0.946-8.604,0.829
			c-2.633-0.106-4.029-0.968-4.712-3.458c-0.475-1.732-1.022-3.496-0.837-5.346c0.016-0.154,0.225-0.408,0.338-0.406
			c0.173,0.005,0.443,0.159,0.494,0.311c0.373,1.109,0.635,2.26,1.062,3.347c0.684,1.737,1.568,2.245,3.482,2.099
			c1.683-0.129,3.362,0.006,5.058-0.303c5.179-0.941,8.393-3.982,9.867-8.918c0.839-2.805,1.087-5.663,0.028-8.504
			c-0.531-1.426-0.604-2.931-0.609-4.424c-0.004-1.331-0.4-2.498-1.002-3.662c-0.939-1.818-2.031-3.512-3.434-5.008
			c-1.045-1.115-2.261-1.979-3.703-2.463c-1.922-0.645-3.859-1.26-5.93-1.209c-4.165,0.1-8.34-0.082-12.484,0.57
			c-1.152,0.182-2.348,0.123-3.523,0.141c-1.848,0.031-3.273,0.863-4.417,2.256c-0.964,1.172-1.651,2.488-2.056,3.953
			c-0.594,2.16-1.17,4.326-1.809,6.475c-0.209,0.701-0.51,1.404-0.91,2.017c-0.543,0.835-1.318,1.37-2.404,1.339
			c-1.069-0.031-2.083,0.219-3.131,0.496c-2.217,0.588-4.46,0.232-6.631-0.453c-0.471-0.15-0.58-0.584-0.463-1.043
			c0.393-1.551,0.838-3.09,1.18-4.651c0.215-0.983,0.046-1.919-0.832-2.597c-0.736-0.568-1.503-0.746-2.387-0.332
			c-1.213,0.57-2.086,1.488-2.738,2.619c-0.803,1.393-1.482,2.832-1.796,4.438c-0.177,0.898-1.132,1.214-2.005,0.701
			c-0.232-0.137-0.5-0.529-0.461-0.752c0.09-0.514,0.353-0.998,0.555-1.489c1.14-2.763,2.391-5.487,2.998-8.437
			c0.127-0.617,0.211-1.279,0.133-1.898c-0.184-1.432-1.692-2.178-2.854-1.4c-0.693,0.466-1.368,1.041-1.863,1.707
			c-0.764,1.023-1.373,2.162-2.029,3.263c-0.197,0.332-0.294,0.741-0.745,0.811c-0.004,0.028-0.006,0.058-0.011,0.086
			c-0.023,0.014-0.037,0.033-0.06,0.048c0.163,1.058-0.29,1.927-0.892,2.748c-0.025,0.034-0.168,0.025-0.22-0.012
			c-0.079-0.055-0.181-0.154-0.181-0.234c0.005-1.056,0.387-1.919,1.292-2.502c-0.006-0.037-0.006-0.073-0.014-0.111
			c0.035-0.001,0.053-0.018,0.084-0.022c0.084-0.586,0.116-1.185,0.28-1.745c0.562-1.91,1.176-3.804,1.773-5.703
			c0.094-0.299,0.244-0.588,0.3-0.893c0.169-0.934,0.321-1.867-0.263-2.738c-0.607-0.906-1.527-1.002-2.493-1.01
			c-0.088-0.002-0.175-0.038-0.261-0.066c0.005,0.014,0.006,0.027,0.011,0.041c-0.039,0.009-0.08,0.015-0.12,0.021
			c-0.073,0.084-0.146,0.167-0.217,0.25c0.02-0.069,0.02-0.171,0.066-0.2c0.043-0.028,0.096-0.04,0.151-0.05
			c0.022-0.024,0.044-0.05,0.066-0.075c0.014,0.004,0.028,0.01,0.042,0.014c-0.265-0.775,0.125-1.42,0.422-2.09
			c0.95-2.15,1.863-4.316,2.846-6.451c0.459-0.999,0.729-2,0.596-3.1c-0.133-1.115-1.338-1.75-2.398-1.32
			c-0.734,0.299-1.262,0.799-1.699,1.414c-0.621,0.869-1.208,1.762-1.818,2.638c-0.056,0.081-0.18,0.153-0.271,0.151
			c-0.054,0-0.136-0.148-0.153-0.24c-0.242-1.295-0.178-2.451,0.711-3.609c2.146-2.795,4.162-5.693,6.199-8.572
			c0.358-0.506,0.719-1.084,0.312-1.773c-0.436-0.74-1.232-1.057-2.209-0.913c-0.791,0.116-1.4,0.519-1.9,1.097
			c-0.697,0.805-1.36,1.641-2.047,2.457c-0.062,0.072-0.195,0.133-0.287,0.121c-0.071-0.01-0.176-0.131-0.186-0.211
			c-0.062-0.523-0.135-1.049-0.146-1.574c-0.045-2.031-0.084-4.064-0.091-6.096c-0.004-0.908-0.996-1.992,0.006-2.662
			c0.722-0.481,1.557,0.445,2.35,0.717c0.807,0.276,1.613,0.549,2.43,0.789c1.229,0.359,2.5,0.598,3.691,1.051
			c1.963,0.748,3.98,0.736,6.01,0.633c0.625-0.031,1.261-0.23,1.854-0.453c1.086-0.406,1.646-1.193,1.846-2.387
			c0.532-3.183,0.599-6.383,0.533-9.588c-0.029-1.354,0.14-2.504,1.297-3.408c0.48-0.375,0.75-1.027,1.086-1.572
			c1.514-2.457,3.019-4.92,4.521-7.383c0.223-0.364,0.434-0.738,0.619-1.121c0.264-0.545,0.125-1.041-0.264-1.471
			c-0.408-0.453-0.922-0.494-1.455-0.273c-0.293,0.121-0.557,0.312-0.846,0.446c-0.035,0.017-0.202-0.12-0.211-0.196
			c-0.018-0.178-0.021-0.499,0.047-0.521c0.395-0.127,0.811-0.247,1.221-0.254c2.777-0.045,5.531-0.223,8.302-0.543
			c3.062-0.354,6.195-0.1,9.298-0.09c0.312,0,0.625,0.123,0.939,0.188c1.916,0.396,2.441,1.135,2.289,3.118
			c-0.205,2.662-0.4,5.325-0.558,7.99c-0.083,1.396-0.024,2.775,0.765,4.028c0.914,1.452,2.881,1.727,4.131,0.521
			c0.227-0.219,0.357-0.532,0.564-0.773c0.512-0.594,1.082-1.004,1.948-0.703c0.961,0.336,1.878,0.023,2.822-0.219
			c1.96-0.502,3.925-0.883,5.983-0.973c2.848-0.125,5.232,0.813,7.477,2.379c0.262,0.183,0.506,0.395,0.75,0.604
			c1.33,1.122,2.82,1.982,4.551,2.221c1.252,0.172,1.91,0.908,2.314,1.94c0.385,0.991,0.656,2.028,0.943,3.056
			c0.57,2.049,0.955,4.154,2.17,5.981c0.273,0.411,0.355,1.003,0.379,1.517c0.086,1.924,0.142,3.85,0.148,5.775
			C101.235,49.504,101.194,52.071,101.163,54.64z M83.932,49.933c-2.64-0.189-4.759,0.777-6.492,2.705
			c-0.8,0.891-0.769,2.094,0.192,2.797c1.812,1.326,3.727,2.457,6.316,2.24c0.222,0,0.648,0.032,1.07-0.005
			c1.847-0.161,3.177-1.222,3.7-2.993c0.252-0.854,0.159-1.695-0.441-2.402C87.138,50.931,85.758,50.063,83.932,49.933z
			 M49.841,16.931c-0.314-0.389-1.006-0.531-1.452-0.26c-0.364,0.221-0.742,0.439-1.048,0.729c-2.371,2.253-4.006,4.993-5.146,8.03
			c-0.174,0.465-0.074,1.05-0.028,1.572c0.014,0.148,0.283,0.274,0.421,0.397c0.225,0,0.488,0.081,0.633-0.015
			c0.525-0.35,1.157-0.662,1.486-1.162c1.768-2.674,3.459-5.396,5.168-8.109C50.115,17.729,50.155,17.319,49.841,16.931z
			 M52.673,21.397c-0.357-0.076-0.854,0.027-1.156,0.238c-1.438,1.01-2.299,2.514-3.045,4.031c-0.551,1.123-0.816,2.389-1.167,3.603
			c-0.04,0.138,0.185,0.351,0.286,0.528c0.205-0.018,0.438,0.02,0.611-0.064c2.656-1.293,3.977-3.73,5.246-6.197
			c0.135-0.262,0.1-0.627,0.087-0.941C53.512,22.016,53.235,21.517,52.673,21.397z"/>
	</g>
</g>
</svg>
