<?xml version="1.0" encoding="utf-8"?>
<!-- Generator: Adobe Illustrator 16.0.0, SVG Export Plug-In . SVG Version: 6.00 Build 0)  -->
<!DOCTYPE svg PUBLIC "-//W3C//DTD SVG 1.1//EN" "http://www.w3.org/Graphics/SVG/1.1/DTD/svg11.dtd">
<svg version="1.1" id="Layer_1" xmlns="http://www.w3.org/2000/svg" xmlns:xlink="http://www.w3.org/1999/xlink" x="0px" y="0px"
	 width="120px" height="120px" viewBox="0 0 120 120" style="enable-background:new 0 0 120 120;" xml:space="preserve">
<g id="etsy">
	<g>
		<path style="fill-rule:evenodd;clip-rule:evenodd;" d="M101.445,86.104c-0.225-2.142-1.553-3.305-3.674-3.105
			c-1.594,0.148-3.181,0.4-4.766,0.639c-0.686,0.104-1.154,0.518-1.373,1.191c-0.165,0.508-0.333,1.016-0.5,1.523
			c-0.699,2.131-1.394,4.264-2.099,6.393c-0.339,1.023-0.981,1.498-2.138,1.543c-3.736,0.146-7.47,0.27-11.206,0.537
			c-4.577,0.328-9.2,0.2-13.796,0.051c-3.414-0.113-6.816-0.564-10.227,0.023c-0.209,0.035-0.428,0.016-0.641,0.012
			c-0.82-0.02-1.172-0.34-1.207-1.145c-0.206-4.699-0.393-9.396-0.615-14.094c-0.061-1.278-0.275-2.549-0.326-3.827
			c-0.1-2.565-0.146-5.132-0.182-7.698c-0.007-0.473,0.319-0.771,0.816-0.779c2.352-0.035,4.725,0.129,7.049-0.137
			c3.414-0.393,6.827-0.375,10.244-0.46c1.816-0.046,3.632-0.108,5.444-0.212c1.03-0.057,1.256,0.07,1.442,1.141
			c0.275,1.576,0.512,3.162,0.814,4.734c0.312,1.621,1.182,2.748,2.937,2.928c1.165,0.119,2.349,0.326,3.501,0.229
			c1.486-0.129,3.187-0.365,4.121-1.525c1.302-1.621,2.752-3.324,2.61-5.678c-0.115-1.918-0.364-3.844-0.292-5.756
			c0.174-4.646-0.977-9.12-1.585-13.663c-0.163-1.22-1.163-2.054-2.437-2.162c-0.637-0.054-1.285-0.068-1.923-0.018
			c-2.447,0.19-4.895,0.385-7.335,0.636c-1.406,0.145-2.182,1.328-1.967,2.738c0.193,1.264,0.352,2.534,0.449,3.807
			c0.057,0.76-0.382,1.167-1.178,1.171c-1.068,0.006-2.164,0.093-3.203-0.098c-3.185-0.587-6.395-0.44-9.598-0.483
			c-2.898-0.039-5.762,0.17-8.536,1.132c-0.794,0.275-1.59,0.217-1.532-1.294c0.008-0.213-0.002-0.428-0.008-0.642
			c-0.156-6.628-0.316-13.255-0.471-19.882c-0.018-0.749-0.086-1.508,0.016-2.241c0.049-0.347,0.383-0.746,0.699-0.939
			c0.443-0.272,0.98-0.419,1.496-0.543c3.123-0.749,6.321-1.158,9.506-1.225c7.595-0.158,15.195-0.073,22.794-0.071
			c0.743,0,1.497,0.061,2.228,0.191c0.546,0.097,1.01,0.458,1.084,1.047c0.354,2.837,2.066,5.132,3.064,7.711
			c0.381,0.986,1.211,1.46,2.303,1.385c0.533-0.037,1.066-0.085,1.602-0.098c1.39-0.033,2.814-1.118,3.201-3.099
			c0.101-0.518,0.045-1.067,0.045-1.603c0.004-3.317,0.002-6.635,0.002-9.953h0.072c0-3.423,0.002-6.848-0.001-10.272
			c-0.001-1.625-0.306-1.977-1.819-2.604c-2.061-0.854-4.188-0.71-6.322-0.547c-0.711,0.055-1.215,0.46-1.312,1.181
			c-0.117,0.861-0.332,1.654-0.827,2.394c-0.571,0.855-1.205,1.42-2.331,1.375c-1.71-0.067-3.426,0.042-5.135-0.031
			c-2.773-0.117-5.543-0.416-8.316-0.465c-4.172-0.076-8.347-0.011-12.52,0.016c-0.746,0.004-1.499,0.064-2.234,0.182
			c-3.591,0.578-7.184,1.065-10.838,0.926c-1.281-0.05-2.568-0.01-3.852,0.007c-2.791,0.037-5.525-0.514-8.284-0.811
			c-2.331-0.25-4.642-0.689-6.975-0.917c-1.593-0.155-3.206-0.094-4.812-0.126c-0.959-0.019-1.729,0.608-1.99,1.747
			c-0.07,0.306-0.062,0.641-0.033,0.957c0.178,2.021,0.35,4.042,0.568,6.057c0.096,0.888,0.564,1.598,1.295,2.128
			c0.604,0.438,1.315,0.788,1.781,1.343c2.508,2.993,5.69,5.139,8.865,7.322c1.131,0.777,2.09,1.817,3.064,2.8
			c0.268,0.269,0.438,0.766,0.432,1.155c-0.037,2.337,0.43,4.702-0.434,6.999c-0.355,0.945-0.238,1.899,0.369,2.75
			c0.594,0.832,0.629,1.788,0.652,2.762c0.05,2.031-0.036,4.087,0.238,6.091c0.626,4.565,0.518,9.17,0.945,13.747
			c0.297,3.188,0.021,6.434,0.341,9.619c0.343,3.42,0.224,6.836,0.409,10.248c0.082,1.51-0.371,2.48-1.854,2.918
			c-0.406,0.121-0.78,0.348-1.174,0.514c-2.161,0.92-4.351,1.775-6.479,2.768c-3.229,1.504-5.443,3.758-5.242,7.651
			c0.038,0.745-0.047,1.497-0.043,2.245c0.004,0.834,0.316,1.195,1.096,1.269c1.062,0.101,2.146,0.077,3.189,0.276
			c3.192,0.607,6.396,0.291,9.6,0.242c2.029-0.748,4.07-0.227,5.998,0.256c1.929,0.484,3.809,0.481,5.719,0.322
			c3.402-0.285,6.792-0.85,10.197-0.943c5.666-0.152,11.348-0.191,17.008,0.059c2.878,0.127,5.755,0.334,8.641,0.346
			c2.674,0.011,5.328,0.158,7.99,0.535c2.094,0.297,4.252,0.256,6.367-0.273c1.32-0.33,2.023-1.176,2.312-2.386
			c0.195-0.823,0.194-1.694,0.261-2.546c0.158-2.021,0.357-4.043,0.44-6.068c0.153-3.742,0.236-7.486,0.347-11.229
			C101.476,86.317,101.457,86.211,101.445,86.104z M37.378,100.22c-0.282,0.39-0.609,0.747-0.923,1.113
			c0.02,0.04,0.041,0.08,0.059,0.121c-0.031,0.026-0.067,0.05-0.101,0.074c-0.006,0.161-0.01,0.324-0.05,0.478
			c-0.038,0.146-0.16,0.271-0.245,0.406c-0.023-0.188-0.115-0.408-0.05-0.557c0.059-0.135,0.208-0.229,0.345-0.327
			c0.002-0.052,0.003-0.104,0.007-0.155c0.011-0.014,0.023-0.026,0.035-0.04c-0.164-0.336-0.366-0.666-0.413-1.019
			c-0.027-0.207,0.247-0.572,0.47-0.664c0.241-0.102,0.585,0.012,0.87,0.086C37.425,99.746,37.459,100.107,37.378,100.22z
			 M94.34,101.346c-0.323,1.125-0.998,1.453-2.191,1.424c-4.489-0.105-8.979-0.193-13.469-0.287c0,0.045-0.002,0.09-0.002,0.135
			c-4.281,0.066-8.562,0.133-12.842,0.203c-0.535,0.008-1.078-0.02-1.603,0.064c-5.638,0.895-11.315,0.455-16.979,0.533
			c-0.318,0.004-0.64-0.047-0.957-0.084c-0.479-0.059-0.749-0.336-0.849-0.807c-0.109-0.517-0.162-1.062-0.373-1.537
			c-0.428-0.958-1.843-1.057-2.37-0.168c-0.375,0.629-0.593,1.354-0.978,1.977c-0.124,0.202-0.576,0.336-0.836,0.283
			c-0.244-0.051-0.572-0.357-0.619-0.598c-0.142-0.723-0.095-1.484-0.254-2.2c-0.132-0.587,0.129-0.771,0.582-0.831
			c0.773-0.104,1.136-0.542,1.092-1.291c-0.134-2.236,0.082-4.502-0.523-6.703c-0.299-1.088-0.06-2.064,0.432-3.084
			c0.889-1.844,1.332-3.828,1.374-5.885c0.019-0.91-0.194-1.729-1.188-2.041c-0.562-0.176-0.922-0.472-0.994-1.08
			c-0.102-0.848-0.297-1.692-0.32-2.541c-0.073-2.889-0.076-5.779-0.137-8.668c-0.018-0.801,0.217-1.43,0.791-2.004
			c1.768-1.768,2.287-4.062,2.5-6.431c0.162-1.798-0.383-2.357-2.303-2.705c-0.912-0.165-1.273-0.641-1.008-1.516
			c0.648-2.146,1.369-4.271,2.022-6.416c0.247-0.81,0.486-1.645,0.552-2.482c0.127-1.602-0.58-2.174-2.349-2.058
			c-0.71,0.047-0.952-0.216-0.748-0.863c0.45-1.426,0.962-2.835,1.367-4.272c0.26-0.919,0.44-1.871,0.542-2.82
			c0.139-1.309-0.23-2.323-1.762-2.546c-0.631-0.092-0.798-0.621-0.801-1.197c-0.004-0.963-0.004-1.927-0.007-2.89
			c-0.002-0.711-0.366-1.149-0.966-1.524c-3.08-1.926-6.14-3.884-9.197-5.847c-0.633-0.406-0.609-0.432,0.088-0.963
			c0.426-0.323,0.801-0.73,1.262-0.981c0.748-0.404,1.5-0.639,2.439-0.46c2.861,0.546,5.751,0.262,8.629,0.03
			c1.063-0.085,2.123-0.291,3.186-0.299c8.884-0.064,17.768-0.12,26.65-0.123c2.455-0.002,4.898,0.262,7.347,0.499
			c2.853,0.275,5.765,0.023,8.644-0.144c0.877-0.052,1.678-0.082,2.498,0.234c0.789,0.303,1.213,0.867,1.283,1.678
			c0.068,0.778-0.553,1.75-1.308,2.038c-0.391,0.149-0.825,0.251-1.241,0.252c-3.424,0.01-6.849,0.042-10.271-0.042
			c-1.487-0.036-2.968-0.456-4.455-0.475c-6.312-0.079-12.627-0.137-18.939-0.071c-3.562,0.036-6.944,1.087-10.253,2.35
			c-0.686,0.262-1.018,0.721-1.005,1.453c0.095,5.131-0.167,10.268,0.437,15.39c0.224,1.907,0.182,3.848,0.219,5.774
			c0.058,3.103,0.074,6.208,0.119,9.312c0.009,0.595,0.485,1.053,1.045,0.902c3.678-0.992,7.446-0.378,11.164-0.646
			c2.234-0.161,4.49,0.063,6.715-0.399c0.615-0.128,1.33-0.184,1.912,0.003c2.949,0.948,5.951,0.34,8.928,0.399
			c0.738,0.015,1.491-0.103,2.221-0.245c0.959-0.188,1.16-0.597,0.928-1.541c-0.151-0.614-0.332-1.236-0.363-1.862
			c-0.124-2.522,0.049-2.672,2.656-2.589c1.039,0.033,1.323,0.267,1.33,1.338c0.027,4.282,0.025,8.562,0.018,12.844
			c-0.002,0.309-0.07,0.662-0.233,0.911c-0.161,0.247-0.466,0.425-0.745,0.55c-0.072,0.031-0.352-0.227-0.421-0.396
			c-0.241-0.592-0.475-1.193-0.632-1.812c-0.33-1.308-1.137-2.299-2.117-3.139c-0.371-0.316-1.012-0.654-1.408-0.545
			c-1.412,0.389-2.725-0.326-4.113-0.184c-1.484,0.15-2.994,0.068-4.492,0.092c-1.391,0.021-2.783,0.094-4.174,0.061
			c-1.194-0.026-2.331,0.17-3.469,0.511c-0.812,0.245-1.667,0.517-2.496,0.499c-3.737-0.079-7.486,0.545-11.212-0.193
			c-0.558-0.11-1.032,0.314-1.033,0.945c-0.005,3.209-0.024,6.42,0.058,9.627c0.065,2.562,0.283,5.121,0.408,7.682
			c0.217,4.483,0.416,8.967,0.622,13.451c0.01,0.214-0.01,0.432,0.025,0.641c0.206,1.23-0.452,2.548,0.381,3.711
			c1.153,0.134,2.306,0.283,3.462,0.396c3.293,0.324,6.584,0.665,9.881,0.93c1.059,0.086,2.17,0.115,3.195-0.113
			c1.699-0.377,3.402-0.398,5.108-0.357c3.628,0.086,7.251-0.021,10.886,0.41c2.841,0.338,5.764,0.336,8.636-0.189
			c0.833-0.153,1.719-0.216,2.556-0.111c2.211,0.273,3.42-0.809,4.074-2.766c0.438-1.315,0.871-2.632,1.312-3.945
			c0.067-0.199,0.151-0.395,0.247-0.58c0.023-0.045,0.167-0.084,0.187-0.062c0.069,0.075,0.142,0.174,0.159,0.271
			c0.074,0.422,0.184,0.846,0.185,1.268C95.69,96.396,95.048,98.883,94.34,101.346z"/>
	</g>
</g>
</svg>
