<?xml version="1.0" encoding="utf-8"?>
<!-- Generator: Adobe Illustrator 16.0.0, SVG Export Plug-In . SVG Version: 6.00 Build 0)  -->
<!DOCTYPE svg PUBLIC "-//W3C//DTD SVG 1.1//EN" "http://www.w3.org/Graphics/SVG/1.1/DTD/svg11.dtd">
<svg version="1.1" id="Layer_1" xmlns="http://www.w3.org/2000/svg" xmlns:xlink="http://www.w3.org/1999/xlink" x="0px" y="0px"
	 width="120px" height="120px" viewBox="0 0 120 120" style="enable-background:new 0 0 120 120;" xml:space="preserve">
<g id="envato">
	<g>
		<path style="fill-rule:evenodd;clip-rule:evenodd;" d="M104.271,43.934c-0.163-4.097-0.149-8.191-0.681-12.28
			c-0.569-4.392-1.227-8.761-1.962-13.127c-0.328-1.951-0.96-3.845-0.892-5.898c0.068-1.987-1.916-3.186-3.761-2.367
			c-1.197,0.532-2.334,1.281-3.356,2.108c-1.289,1.044-2.418,2.284-3.646,3.409c-2.781,2.546-5.475,5.202-8.398,7.578
			c-3.743,3.045-6.816,6.647-9.613,10.53c-4.534,6.299-9.088,12.583-13.593,18.904c-3.087,4.333-6.26,8.618-9.118,13.101
			c-5.009,7.854-9.508,16.016-13.958,24.195c-1.424,2.615-2.748,5.32-3.39,8.277c-0.093,0.422-0.237,0.916-0.106,1.29
			c0.475,1.356,0.98,2.691,2.297,3.55c5.962,3.889,12.424,6.315,19.572,6.696c2.436,0.13,4.882,0.078,7.323,0.1
			c3.925,0.032,7.689-0.803,11.389-2.051c5.559-1.876,10.461-4.765,14.541-9.034c2.012-2.105,3.588-4.504,5.132-6.941
			c0.468-0.738,0.911-1.562,1.569-2.098c1.507-1.226,2.576-2.762,3.439-4.438c1.37-2.662,2.689-5.352,3.919-8.078
			c1.651-3.662,2.59-7.559,3.063-11.516c0.461-3.844,0.537-7.733,0.745-11.032C104.594,50.793,104.408,47.364,104.271,43.934z
			 M92.443,61.589c-0.299,2.53-0.495,5.079-0.937,7.584c-1.021,5.796-2.594,11.433-5.031,16.821
			c-3.202,7.076-8.541,11.759-15.751,14.402c-1.66,0.608-3.379,1.068-5.086,1.543c-1.38,0.384-2.803,0.83-3.941-0.566
			c-2.042-0.917-4.067-0.951-6.066,0.134c-0.989,1.483-2.48,1.195-3.911,1.101c-0.328-0.021-0.653-0.102-0.974-0.175
			c-0.079-0.019-0.193-0.112-0.195-0.177c-0.005-0.101,0.042-0.256,0.117-0.3c0.955-0.552,1.918-1.091,2.883-1.627
			c0.978-0.542,1.895-1.133,2.5-2.128c0.842-1.381,0.25-2.763-1.3-2.953c-1.234-0.149-2.421-0.067-3.569,0.492
			c-1.797,0.876-3.593,1.733-5.057,3.156c-0.525,0.51-1.037,1.156-1.922,1.015c0.005,0.019,0.004,0.037,0.009,0.056
			c-0.029,0.01-0.064,0.015-0.101,0.019l-0.19,0.372c-0.283-0.382-0.013-0.353,0.19-0.372c0.014-0.026,0.027-0.053,0.041-0.079
			c0.018,0.004,0.034,0.002,0.051,0.005c-0.239-0.88-0.013-1.717,0.254-2.548c0.25-0.774,0.695-1.35,1.501-1.655
			c0.93-0.353,1.852-0.747,2.736-1.204c2.462-1.271,4.901-2.586,7.352-3.881c1.13-0.599,1.817-1.548,2.372-2.688
			c0.447-0.917-0.096-2.229-0.833-2.602c-0.586-0.297-1.241-0.455-1.861-0.688c-0.204-0.076-0.393-0.189-0.588-0.285
			c0.126-0.16,0.224-0.355,0.381-0.473c0.979-0.729,2.044-1.36,2.936-2.181c0.63-0.58,1.128-1.36,1.511-2.138
			c0.444-0.902-0.29-2.093-1.296-2.297c-1.573-0.316-3.083-0.038-4.567,0.492c-0.069,0.025-0.209-0.076-0.274-0.154
			c-0.03-0.037,0.015-0.191,0.069-0.233c1.319-1.005,2.646-2,3.968-3.002c1.237-0.937,2.534-1.814,3.276-3.252
			c0.434-0.843,0.219-1.739-0.582-2.349c-0.174-0.132-0.387-0.214-0.579-0.322c-0.193-0.109-0.383-0.224-0.574-0.337
			c-0.444-0.263-0.626-0.659-0.344-1.093c0.726-1.113,1.485-2.209,2.265-3.285c0.867-1.197,1.984-2.033,3.404-2.549
			c1.559-0.568,3.089-1.244,4.564-2.004c0.865-0.448,1.68-1.071,2.374-1.76c0.888-0.881,0.565-2.2-0.575-2.736
			c-0.296-0.139-0.65-0.145-0.959-0.262c-0.641-0.246-0.867-0.787-0.514-1.266c1.05-1.428,2.069-2.886,3.197-4.253
			c2.188-2.652,4.493-5.209,6.653-7.883c2.437-3.018,4.747-6.135,7.153-9.18c1.234-1.564,2.549-3.065,3.846-4.58
			c0.131-0.151,0.529-0.31,0.561-0.27c0.174,0.218,0.373,0.493,0.381,0.753c0.046,1.775,0.061,3.552,0.059,5.329
			c-0.002,3.452,0.663,6.834,1.037,10.247c0.035,0.329,0.182,0.649,0.189,0.977C92.813,50.066,93.126,55.835,92.443,61.589z
			 M36.832,80.474c1.231-2.231,2.462-4.464,3.657-6.716c2.437-4.596,5.116-9.068,7.066-13.914c0.496-1.231,1.213-2.317,2.103-3.352
			c1.586-1.844,3.119-3.771,4.4-5.833c3.274-5.271,6.414-10.628,9.138-16.212c0.484-0.994,0.9-2.025,1.278-3.065
			c0.224-0.615,0.312-1.282,0.377-1.565c0.143-2.314-0.499-3.296-2.304-3.866c-1.061-0.335-2.116-0.38-3.259-0.306
			c-2.489,0.162-4.734,1.114-7.042,1.842c-4.481,1.413-8.497,3.759-12.287,6.501c-1.525,1.103-3.005,2.27-4.541,3.354
			c-3.382,2.388-6.383,5.136-8.638,8.653c-1.972,3.078-4.078,6.072-6,9.181c-3.07,4.967-4.955,10.327-5.467,16.208
			c-0.207,2.352,0.067,4.633,0.172,6.938c0.183,3.971,1.8,7.501,3.759,10.884c0.272,0.471,0.694,0.861,1.075,1.264
			c0.87,0.916,1.883,1.49,3.21,1.502c0.76,0.007,1.528,0.188,2.276,0.359c0.869,0.199,1.577-0.153,2.084-0.731
			c0.574-0.657,0.998-1.458,1.431-2.228c0.54-0.963,0.978-1.985,1.55-2.928c0.271-0.445,0.69-0.879,1.146-1.121
			C34.128,84.195,35.688,82.543,36.832,80.474z M29.972,76.113c-0.844,1.783-1.663,3.579-2.57,5.328
			c-0.261,0.5-0.237,1.289-1.056,1.389c-0.271-0.587-0.544-1.172-0.806-1.762c-0.044-0.098-0.035-0.218-0.056-0.324
			c-0.574-2.749-0.577-2.753,1.853-3.986c0.781-0.398,1.577-0.77,2.362-1.148c0.089,0.074,0.191,0.125,0.236,0.207
			C29.979,75.9,30.008,76.035,29.972,76.113z M25.822,71.667c-0.46,0.238-0.902-0.087-0.884-0.59
			c0.062-1.731,0.442-3.206,2.229-4.087c1.683-0.828,3.253-1.895,4.831-2.92c0.733-0.477,1.437-1.036,2.032-1.674
			c1.018-1.09,0.626-2.585-0.761-3.272c-1.05-0.52-2.123-0.618-3.211-0.182c-0.604,0.242-1.182,0.528-1.85,0.316
			c0.004,0.018,0.001,0.034,0.006,0.051c-0.045,0.014-0.093,0.024-0.138,0.037c-0.063,0.083-0.126,0.166-0.19,0.25
			c0.018-0.067,0.017-0.163,0.061-0.194c0.038-0.026,0.083-0.042,0.129-0.055c0.025-0.033,0.05-0.066,0.075-0.099
			c0.02,0.007,0.038,0.004,0.057,0.01c-0.223-0.947,0.086-1.745,0.842-2.296c0.893-0.651,1.867-1.188,2.803-1.777
			c1.029-0.648,2.101-1.24,3.076-1.965c1.893-1.408,1.892-3.065,0.072-4.606c-0.72-0.61-0.741-0.888-0.127-1.556
			c0.832-0.907,1.7-1.715,2.995-1.961c0.752-0.142,1.498-0.435,2.176-0.792c0.566-0.298,1.271-0.687,1.495-1.214
			c0.54-1.27,1.501-1.737,2.699-2.188c1.962-0.738,3.833-1.72,5.754-2.575c0.394-0.175,0.835-0.253,1.258-0.354
			c0.09-0.021,0.261,0.019,0.296,0.084c0.088,0.166,0.222,0.415,0.158,0.536c-0.925,1.763-1.824,3.543-2.836,5.256
			c-5.012,8.486-10.054,16.953-15.089,25.424c-0.282,0.477-0.598,0.934-0.892,1.404c-0.258,0.408-0.622,0.701-1.08,0.447
			C29.678,69.94,27.749,70.667,25.822,71.667z"/>
	</g>
</g>
</svg>
