<?xml version="1.0" encoding="utf-8"?>
<!-- Generator: Adobe Illustrator 16.0.0, SVG Export Plug-In . SVG Version: 6.00 Build 0)  -->
<!DOCTYPE svg PUBLIC "-//W3C//DTD SVG 1.1//EN" "http://www.w3.org/Graphics/SVG/1.1/DTD/svg11.dtd">
<svg version="1.1" id="Layer_1" xmlns="http://www.w3.org/2000/svg" xmlns:xlink="http://www.w3.org/1999/xlink" x="0px" y="0px"
	 width="120px" height="120px" viewBox="0 0 120 120" style="enable-background:new 0 0 120 120;" xml:space="preserve">
<g id="paypal">
	<g>
		<path style="fill-rule:evenodd;clip-rule:evenodd;" d="M112.133,52.824c-0.125-0.733-0.105-1.492-0.143-2.239
			c-0.338-6.752-2.746-12.675-7.148-17.788c-0.482-0.56-1.004-1.23-1.648-1.478c-2.035-0.782-2.41-2.475-2.656-4.295
			c-0.086-0.636-0.104-1.283-0.223-1.911c-0.609-3.199-1.652-6.192-4.111-8.502c-1.326-1.244-2.586-2.561-3.953-3.757
			c-0.795-0.698-1.67-1.39-2.633-1.791c-3.15-1.312-6.35-2.511-9.549-3.702c-0.586-0.219-1.258-0.223-1.895-0.292
			c-2.334-0.253-4.676-0.444-7.004-0.747c-2.219-0.289-4.422-0.695-6.635-1.032c-1.898-0.289-3.791-0.67-5.7-0.793
			c-2.131-0.138-4.275-0.031-6.414-0.031c-0.002-0.048-0.002-0.096-0.002-0.143c-2.564,0.123-5.143,0.111-7.688,0.401
			c-3.707,0.423-7.377,1.211-11.088,1.554c-2.26,0.209-3.547,1.257-4.232,3.261c-0.346,1.007-0.613,2.042-0.877,3.075
			c-0.211,0.825-0.336,1.671-0.545,2.497c-1.65,6.515-3.273,13.036-4.977,19.536c-1.73,6.604-3.568,13.178-5.309,19.778
			c-1.441,5.466-2.836,10.944-4.201,16.43c-1.057,4.242-1.973,8.52-3.072,12.75c-0.779,2.992-1.793,5.922-2.639,8.897
			c-0.506,1.778,0.268,3.292,1.965,3.772c1.322,0.373,2.645,0.771,4.078,0.709c2.564-0.111,5.133-0.08,7.699-0.102
			c0.533-0.004,1.074-0.023,1.596,0.061c0.275,0.043,0.598,0.22,0.463,0.664c-0.186,0.611-0.318,1.241-0.506,1.854
			c-0.656,2.143-1.279,4.297-2.01,6.414c-0.35,1.017-0.164,1.855,0.332,2.74c1.076,1.917,2.301,3.59,4.754,3.799
			c0.51,0.043,0.982,0.406,1.494,0.555c3.281,0.959,6.582,1.867,10.031,1.91c5.24,0.062,10.48,0.059,15.721,0.078
			c1.383,0.004,2.742-0.075,4.07,0.568c0.889,0.431,1.693-0.075,1.984-1.031c0.186-0.605,0.316-1.24,0.373-1.872
			c0.08-0.882,0.307-1.728,0.897-2.359c1.008-1.081,1.312-2.434,1.613-3.777c0.887-3.96,1.936-7.87,3.232-11.718
			c0.543-1.614,0.939-3.279,1.389-4.924c0.309-1.129,0.543-1.312,1.803-1.348c1.811-0.052,3.625,0.225,5.43-0.228
			c1.963-0.491,3.93-0.985,5.99-0.915c0.518,0.018,1.049-0.168,1.564-0.299c3.996-1.004,7.562-2.96,10.91-5.262
			c2.377-1.632,4.77-3.236,7.158-4.85c4.232-2.863,7.66-6.496,9.934-11.111C111.777,61.732,112.924,57.453,112.133,52.824z
			 M20.287,84.021c-0.018,0.013-0.044,0.016-0.064,0.024c-0.039,0.057-0.077,0.114-0.115,0.171c-0.07,0.02-0.142,0.034-0.208,0.059
			c-0.05,0.065-0.099,0.131-0.15,0.196c0.029-0.061,0.041-0.145,0.088-0.173c0.019-0.012,0.041-0.016,0.062-0.023
			c0.038-0.05,0.077-0.1,0.114-0.149c0.072-0.024,0.143-0.05,0.209-0.08c0.047-0.07,0.095-0.141,0.143-0.211
			C20.339,83.898,20.333,83.988,20.287,84.021z M24.697,86.857c-1.033,0.754-2.053,1.524-3.102,2.254
			c-0.109,0.076-0.432-0.025-0.553-0.145c-0.109-0.109-0.174-0.428-0.096-0.533c0.57-0.773,1.213-1.493,1.773-2.271
			c0.92-1.274,0.738-2.229-0.58-3.242c-0.801-0.615-0.824-0.734-0.225-1.426c0.631-0.727,1.334-1.398,1.908-2.166
			c0.572-0.762,1.059-1.594,1.518-2.431c0.42-0.767,0.057-1.457-0.416-2.062c-0.59-0.75-1.537-0.764-2.215-0.105
			c-1.225,1.185-2.459,2.357-3.697,3.525c-0.062,0.059-0.275,0.07-0.301,0.029c-0.1-0.156-0.242-0.369-0.201-0.514
			c0.113-0.404,0.213-0.886,0.492-1.164c4.492-4.48,7.885-9.819,11.617-14.891c0.502-0.684,0.902-1.446,1.311-2.194
			c0.285-0.527,0.066-1.031-0.199-1.512c-0.389-0.697-1.041-0.85-1.576-0.322c-0.684,0.674-1.336,1.383-2.006,2.072
			c-0.447,0.461-0.904,0.913-1.355,1.369c-1.67,1.69-1.975,1.905-2.113,1.44c-0.307-1.025,0.209-1.939,0.605-2.737
			c1.189-2.386,2.559-4.683,3.879-7.003c0.688-1.208,1.426-2.385,2.125-3.585c0.338-0.578,0.422-1.21,0.184-1.841
			c-0.062-0.167-0.273-0.34-0.449-0.386c-0.178-0.046-0.48-0.006-0.578,0.116c-0.465,0.573-0.865,1.2-1.32,1.78
			c-0.104,0.131-0.422,0.265-0.498,0.208c-0.141-0.107-0.27-0.366-0.246-0.54c0.283-2.018,0.775-3.961,1.871-5.728
			c1.295-2.089,2.516-4.223,3.762-6.341c1.023-1.747,2.031-3.503,3.062-5.248c0.252-0.426,0.199-0.818-0.055-1.188
			c-0.309-0.452-1.031-0.714-1.406-0.436c-0.848,0.631-1.635,1.343-2.457,2.008c-0.158,0.127-0.365,0.193-0.549,0.288
			c-0.066-0.193-0.213-0.4-0.184-0.576c0.164-0.944,0.361-1.883,0.568-2.82c0.16-0.729,0.408-1.444,0.52-2.179
			c0.434-2.906,1.217-5.573,3.738-7.492c0.789-0.602,1.188-1.74,1.705-2.667c0.277-0.497,0.199-1.026-0.197-1.483
			c-0.416-0.48-0.91-0.47-1.449-0.281c-0.201,0.07-0.461,0.223-0.6,0.154c-0.23-0.117-0.539-0.375-0.549-0.586
			c-0.07-1.346,0.211-1.763,1.482-2.027c1.773-0.368,3.559-0.697,5.352-0.953c1.689-0.241,3.395-0.401,5.096-0.534
			c1.703-0.133,3.414-0.188,5.121-0.278c2.578-0.071,5.102,0.215,7.645,0.659c4.938,0.861,9.887,1.667,14.893,2.078
			c1.365,0.112,2.732,0.496,4.037,0.937c1.818,0.615,3.6,1.351,5.361,2.122c3.363,1.475,5.734,4.076,7.533,7.167
			c0.91,1.565,1.191,3.43,1.262,5.253c0.096,2.457,0.068,4.918,0.107,7.378c0.02,1.315-0.346,2.534-0.895,3.706
			c-1.949,4.174-4.244,8.146-6.891,11.919c-1.016,1.443-2.289,2.521-3.895,3.23c-4.211,1.862-8.555,3.39-13.064,4.262
			c-2.709,0.524-5.521,0.527-8.291,0.688c-2.35,0.137-4.706,0.135-7.057,0.251c-1.061,0.053-2.113,0.273-3.176,0.367
			c-1.545,0.137-2.484,1.04-3.242,2.309c-0.902,1.51-1.174,3.215-1.561,4.861c-0.658,2.801-1.105,5.65-1.637,8.48
			c-0.156,0.838-0.41,1.678-0.416,2.52c-0.018,2.491-0.602,4.861-1.348,7.209c-0.162,0.508-0.34,1.012-0.484,1.525
			c-0.799,2.828-0.797,2.848-3.555,2.682c-2.879-0.172-5.754-0.383-8.629-0.586c-0.637-0.045-0.875-0.35-0.857-1.074
			c0.008-0.318,0.098-0.636,0.104-0.954c0.037-1.794-1.367-2.155-2.633-1.622C25.857,85.864,25.3,86.418,24.697,86.857z
			 M107.58,54.649c0.375,5.38-1.965,9.734-5.211,13.731c-2.473,3.042-5.678,5.157-9.037,7.081
			c-4.883,2.795-10.125,4.619-15.674,5.316c-3.059,0.385-6.193,0.146-9.295,0.182c-0.701,0.008-1.193-0.322-1.545-0.941
			c-0.412-0.728-1.09-0.953-1.906-0.91c-0.531,0.027-1.066-0.023-1.602-0.041c-1.107-0.038-1.832,0.516-2.213,1.51
			c-0.379,0.996-0.752,2-1.036,3.027c-1.902,6.889-3.787,13.785-5.664,20.682c-0.168,0.616-0.242,1.258-0.375,1.884
			c-0.18,0.852-0.436,1.125-1.275,1.103c-3.842-0.102-7.699,0.277-11.525-0.395c-0.834-0.145-1.707-0.074-2.562-0.074
			c-3.316,0-6.633,0.018-9.949,0.014c-0.531,0-1.08-0.002-1.584-0.137c-0.201-0.055-0.475-0.514-0.424-0.715
			c0.717-2.787,1.512-5.557,2.225-8.346c0.225-0.881,0.715-1.223,1.572-1.261c3.102-0.136,6.207-0.202,9.281,0.294
			c1.484,0.237,2.717-0.012,3.873-0.979c0.561-0.468,1.236-0.821,1.904-1.133c1.156-0.539,1.818-1.385,2.098-2.641
			c0.83-3.748,1.768-7.475,2.572-11.229c0.891-4.172,1.676-8.365,2.52-12.549c0.223-1.107,0.391-1.266,1.43-1.336
			c2.982-0.201,5.967-0.521,8.95-0.541c4.861-0.033,9.559-0.863,14.146-2.404c2.125-0.713,4.238-1.465,6.344-2.233
			c3.844-1.405,6.852-3.812,9.082-7.283c1.91-2.971,3.715-5.985,5.35-9.119c1.805-3.462,3.199-6.99,3.045-10.977
			c-0.006-0.164,0.162-0.334,0.248-0.502c0.178,0.111,0.422,0.18,0.523,0.339c2.381,3.703,4.453,7.544,5.201,11.958
			c0.09,0.526,0.273,1.042,0.305,1.569c0.107,1.815,0.17,3.632,0.248,5.449c-0.014,0-0.029,0-0.043,0.001
			C107.576,53.58,107.543,54.117,107.58,54.649z M48.152,47.407c0.602,0.179,1.262,0.208,1.898,0.219
			c1.709,0.028,3.418,0.009,5.129,0.009c0.002,0.034,0.002,0.067,0.004,0.1c2.135-0.092,4.281-0.071,6.401-0.308
			c2.447-0.273,4.799-0.859,6.68-2.712c2.75-2.708,3.557-6.008,3.119-9.676c-0.109-0.901-0.605-1.849-1.174-2.58
			c-0.98-1.263-2.184-2.323-3.604-3.135c-1.686-0.962-3.467-1.666-5.326-2.157c-2.469-0.651-4.952-1.249-7.438-1.821
			c-0.379-0.086-0.844,0.019-1.223,0.157c-0.836,0.305-1.482,0.892-1.826,1.708c-0.619,1.471-1.275,2.938-1.729,4.462
			c-1.094,3.678-2.08,7.386-3.104,11.083c-0.086,0.307-0.148,0.624-0.186,0.94C45.574,45.391,46.523,46.925,48.152,47.407z
			 M56.781,33.928c0.26-1.039,0.824-1.331,1.928-1.226c1.948,0.185,3.692,0.892,5.387,1.878c2.27,1.318,1.83,3.515,0.939,4.956
			c-0.854,1.383-2.201,1.993-3.742,2.185c-1.061,0.132-2.133,0.143-3.202,0.208c-0.748-0.001-1.496,0.013-2.244-0.006
			c-0.455-0.011-0.789-0.396-0.697-0.823C55.679,38.706,56.187,36.305,56.781,33.928z"/>
	</g>
</g>
</svg>
