<?xml version="1.0" encoding="utf-8"?>
<!-- Generator: Adobe Illustrator 16.0.0, SVG Export Plug-In . SVG Version: 6.00 Build 0)  -->
<!DOCTYPE svg PUBLIC "-//W3C//DTD SVG 1.1//EN" "http://www.w3.org/Graphics/SVG/1.1/DTD/svg11.dtd">
<svg version="1.1" id="Layer_1" xmlns="http://www.w3.org/2000/svg" xmlns:xlink="http://www.w3.org/1999/xlink" x="0px" y="0px"
	 width="120px" height="120px" viewBox="0 0 120 120" style="enable-background:new 0 0 120 120;" xml:space="preserve">
<g id="google_wallet">
	<g>
		<path style="fill-rule:evenodd;clip-rule:evenodd;" d="M108.92,72.666c-0.16-0.723-0.17-1.484-0.193-2.23
			c-0.082-2.674-0.141-5.348-0.205-8.02h0.064c0-1.818,0.008-3.637-0.002-5.455c-0.008-1.391,0.064-2.791-0.074-4.168
			c-0.303-2.971-0.773-5.924-1.074-8.895c-0.6-5.963-1.811-11.809-3.375-17.58c-0.951-3.504-2.16-6.93-3.641-10.25
			c-2.256-5.062-5.959-8.508-11.287-10.195c-1.9-0.602-3.811-0.568-5.705-0.25c-1.848,0.311-3.348,1.363-4.539,2.812
			c-0.189,0.232-0.406,0.602-0.35,0.848c0.271,1.188-0.424,2.051-0.893,2.992c-2.396,4.814-3.422,9.842-2.559,15.219
			c0.355,2.209,0.545,4.451,0.719,6.686c0.09,1.152-0.016,2.318-0.033,3.48c-1.229-0.309-1.59-1.512-2.311-2.316
			c-2.516-2.807-5.588-4.975-8.369-7.473c-0.312-0.281-0.701-0.506-1.094-0.662c-2.271-0.912-4.48-1.969-6.875-2.6
			c-3.443-0.906-6.742-0.676-10.045,0.598c-2.793,1.072-4.381,3.053-4.529,5.984c-0.117,2.328-0.359,4.697,0.471,6.994
			c0.207,0.578,0.154,1.268,0.156,1.904c0.002,1.396,0.084,2.768,0.518,4.117c0.291,0.906,0.426,1.865,0.594,2.807
			c0.025,0.139-0.156,0.318-0.258,0.467c-0.008,0.01-0.205-0.074-0.268-0.15c-1.203-1.498-2.43-2.979-3.588-4.512
			c-1.42-1.883-2.879-3.725-4.625-5.316c-2.662-2.428-5.613-4.273-9.344-4.457c-0.795-0.041-1.529-0.285-1.99-0.887
			c-0.764-0.998-1.773-1.068-2.865-1.029c-1.764,0.062-3.395,0.6-4.699,1.76c-1.436,1.275-2.789,2.658-4.057,4.1
			c-1.004,1.143-1.555,2.562-1.639,4.1c-0.062,1.174-0.055,2.354-0.012,3.527c0.096,2.689,1.201,5.008,3.002,6.912
			c2.643,2.795,5.387,5.496,8.17,8.15c5.098,4.861,9.322,10.299,11.668,17.031c0.846,2.42,1.756,4.842,1.668,7.453
			c-0.066,2.064,0.334,4.057,0.783,6.021c1.16,5.045,3.561,9.338,7.84,12.475c1.791,1.311,3.756,1.994,5.906,2.25
			c0.742,0.086,1.498,0.016,2.244,0.08c2.641,0.227,4.773-0.809,6.684-2.535c1.604-1.451,2.953-3.102,3.973-4.998
			c1.98-3.68,3.646-7.514,4.561-11.598c0.834-3.742,1.373-7.551,2.053-11.326c0.035-0.205,0.148-0.396,0.227-0.592
			c0.154,0.123,0.375,0.215,0.455,0.377c1.023,2.111,2.211,4.168,3,6.365c2.246,6.266,3.314,12.801,3.92,19.398
			c0.34,3.693,1.393,7.094,3.137,10.338c1.332,2.477,3.367,3.812,6.123,4.047c1.383,0.119,2.783,0.184,4.164,0.096
			c2.74-0.174,5.215-1.143,7.305-2.938c2.391-2.055,4.268-4.5,5.186-7.568c0.795-2.656,1.629-5.307,2.281-7.998
			c1.283-5.301,2.248-10.656,2.15-16.148c-0.01-0.428,0.02-0.855,0.012-1.283c-0.012-0.775,0.127-1.545,0.674-2.088
			C109.273,75.396,109.24,74.096,108.92,72.666z M101.582,60.082c0,2.141,0.016,4.279-0.006,6.42
			c-0.02,1.922-0.213,3.832-0.373,5.748c-0.273,3.283-0.508,6.574,0.033,9.904c0.295,1.84-0.072,3.838-0.4,5.719
			c-0.83,4.73-1.963,9.396-3.412,13.984c-0.629,1.99-1.686,3.656-3.197,5.094c-1.77,1.682-3.832,2.252-6.193,1.875
			c-0.174-0.029-0.396-0.227-0.449-0.393c-0.049-0.156,0.037-0.471,0.168-0.551c0.631-0.389,1.328-0.676,1.939-1.092
			c0.613-0.418,1.189-0.91,1.709-1.439c0.605-0.613,0.721-1.742,0.336-2.383c-0.373-0.629-1.461-1.158-2.23-0.971
			c-0.721,0.174-1.42,0.457-2.107,0.742c-0.492,0.201-0.932,0.551-1.436,0.699c-0.18,0.053-0.584-0.232-0.705-0.457
			c-0.473-0.896-0.338-1.369,0.398-1.92c1.367-1.023,2.73-2.053,4.082-3.102c0.336-0.26,0.627-0.584,0.908-0.904
			c0.783-0.889,0.914-2.16,0.318-2.936c-0.58-0.756-1.854-0.949-2.938-0.33c-0.734,0.422-1.383,0.99-2.057,1.512
			c-0.336,0.262-0.635,0.568-0.961,0.842c-0.074,0.062-0.234,0.131-0.289,0.096c-0.145-0.096-0.328-0.23-0.361-0.379
			c-0.348-1.561-0.068-2.904,1.137-4.094c0.906-0.895,1.68-1.949,2.373-3.021c0.57-0.885,1.012-1.873,1.367-2.867
			c0.268-0.746,0.012-1.469-0.623-2.02c-0.619-0.535-1.34-0.768-2.076-0.43c-0.963,0.443-1.85,1.049-2.803,1.514
			c-0.211,0.102-0.646,0.006-0.818-0.162c-0.195-0.189-0.355-0.623-0.266-0.844c0.238-0.582,0.564-1.146,0.949-1.646
			c0.91-1.188,1.887-2.324,2.812-3.502c0.393-0.504,0.76-1.035,1.068-1.594c0.725-1.293,0.582-2.422-0.383-3.539
			c-0.699-0.805-2.031-1.078-3.268-0.596c-0.689,0.27-1.322,0.676-2.002,0.971c-0.1,0.045-0.469-0.205-0.459-0.289
			c0.096-0.848,0.295-1.686,0.369-2.535c0.064-0.74,0.068-1.498-0.01-2.238c-0.188-1.73-1.902-2.502-3.316-1.51
			c-0.258,0.18-0.438,0.467-0.67,0.684c-0.783,0.725-0.818,0.766-1.541,0.203c-2.184-1.697-4.617-2.639-7.4-2.656
			c-1.631-0.012-2.504,0.402-2.967,1.889c-0.789,2.539-1.504,5.111-2.078,7.709c-0.551,2.496-0.83,5.053-1.326,7.562
			c-0.754,3.797-2.137,7.379-3.883,10.824c-0.371,0.73-0.869,1.17-1.768,1.061c-1.801-0.221-3.611-0.375-5.414-0.59
			c-0.605-0.072-1.43,0.027-1.578-0.76c-0.119-0.625,0.701-0.668,1.041-1.035c0.217-0.234,0.436-0.471,0.611-0.736
			c0.598-0.908,0.592-1.869,0.008-2.697c-0.656-0.926-1.785-1.381-2.799-1.066c-0.402,0.123-0.756,0.393-1.15,0.561
			c-0.781,0.338-0.963,0.26-1.121-0.465c-0.412-1.875-0.822-3.752-1.215-5.631c-0.318-1.514-0.227-1.527,1.434-2.549
			c0.793-0.492,1.48-1.203,2.094-1.92c0.43-0.502,0.381-1.209,0.16-1.844c-0.277-0.797-1.346-1.314-2.098-1.035
			c-0.199,0.074-0.381,0.199-0.584,0.26c-0.789,0.234-1.17,1.264-2.16,1.096c-0.281-0.688-0.562-1.375-0.842-2.062
			c-0.041-0.1-0.057-0.213-0.113-0.301c-0.742-1.164-0.691-2.15,0.482-3.059c0.852-0.656,1.467-1.539,1.877-2.561
			c0.613-1.531-0.383-2.809-2.045-2.646c-1.162,0.113-1.932,0.814-2.725,1.547c-0.57,0.525-0.818,0.475-1.328-0.109
			c-0.209-0.242-0.398-0.504-0.584-0.766c-0.535-0.756-1.537-1.162-1.67-2.221c0.646-0.557,1.355-1.057,1.926-1.684
			c0.857-0.945,1.68-1.936,2.396-2.988c0.666-0.98,0.514-2.119-0.207-2.971c-0.732-0.867-1.811-1.205-2.895-0.809
			c-1.955,0.719-3.604,1.859-4.723,3.668c-0.312,0.502-0.676,0.365-1.033,0.061c-0.244-0.209-0.475-0.432-0.707-0.654
			c-0.496-0.479-0.771-0.994-0.398-1.695c0.449-0.848,0.891-1.705,1.277-2.582c0.43-0.975,0.848-1.961,1.176-2.971
			c0.33-1.02-0.008-1.914-0.846-2.566c-0.748-0.584-1.646-0.576-2.436-0.193c-1.252,0.607-2.391,1.4-3.053,2.721
			c-0.479,0.951-1.014,1.875-1.559,2.791c-0.086,0.145-0.359,0.174-0.545,0.256c-0.086-0.193-0.234-0.381-0.242-0.576
			c-0.068-1.527,0.408-2.947,0.895-4.363c0.275-0.809,0.658-1.598,0.803-2.428c0.104-0.594,0.01-1.291-0.207-1.859
			c-0.41-1.07-1.633-1.514-2.68-1.08c-1.113,0.467-2.023,1.191-2.652,2.234c-0.275,0.459-0.49,0.949-0.775,1.402
			c-0.088,0.137-0.328,0.277-0.471,0.254c-0.184-0.031-0.414-0.191-0.492-0.357c-0.391-0.809-0.432-1.639-0.047-2.475
			c0.49-1.066,1.002-2.125,1.443-3.213c0.451-1.111,0.41-2.1-0.898-2.648c-0.303-0.129-0.473-0.365-0.342-0.746
			c0.17-0.494,0.227-1.045,0.49-1.473c0.066-0.111,0.719,0.162,1.109,0.217c1.48,0.207,2.959,0.428,4.443,0.586
			c1.883,0.203,3.486,1.033,4.883,2.23c1.787,1.531,3.453,3.186,4.838,5.117c1.744,2.43,3.525,4.838,5.391,7.176
			c1.598,2.002,3.334,3.896,5.023,5.826c0.207,0.236,0.488,0.414,0.756,0.584c1.65,1.051,3.57,0.275,3.975-1.633
			c0.133-0.621,0.16-1.275,0.164-1.914c0.018-2.244,0.008-4.488,0.002-6.732c0-0.32,0.037-0.672-0.076-0.957
			c-0.797-1.98-0.631-3.895,0.059-5.898c0.408-1.186,0.455-2.516,0.547-3.791c0.082-1.197,0.367-2.307,0.859-3.395
			c0.307-0.68,0.113-1.26-0.428-1.68c-0.568-0.438-1.145-0.439-1.795-0.137c-0.727,0.336-1.174,0.896-1.527,1.574
			c-0.145,0.277-0.301,0.553-0.471,0.814c-0.033,0.051-0.18,0.082-0.227,0.051c-0.086-0.055-0.17-0.156-0.189-0.25
			c-0.066-0.312-0.133-0.631-0.143-0.947c-0.115-3.992-0.039-4.002,4.215-4.814c1.631-0.311,3.209,0.152,4.689,0.775
			c2.652,1.117,5.178,2.361,7.383,4.379c2.686,2.461,5.361,4.879,7.645,7.742c1.73,2.17,3.709,4.137,5.545,6.227
			c0.631,0.721,1.158,1.533,1.734,2.303c0.258,0.344,0.492,0.707,0.785,1.016c1.025,1.084,2.467,1.439,3.471,0.883
			c1.514-0.838,2.189-2.164,1.682-3.734c-0.857-2.65-1.482-5.346-1.934-8.088c-0.262-1.578-0.502-3.158-0.754-4.738
			c-0.078-0.486,0.088-0.826,0.59-0.936c0.314-0.068,0.645-0.062,0.949-0.154c1.18-0.361,1.416-1.252,0.611-2.186
			c-0.441-0.514-0.975-0.814-1.664-0.824c-0.535-0.008-1.127-0.01-1.225-0.699c-0.092-0.643,0.465-0.908,0.914-1.168
			c0.949-0.553,1.695-1.283,2.246-2.232c0.584-1.01,0.479-1.756-0.451-2.541c-0.318-0.27-0.738-0.424-1.066-0.686
			c-0.098-0.076-0.127-0.404-0.047-0.51c0.455-0.592,0.947-1.156,1.438-1.721c0.418-0.484,0.914-0.918,1.264-1.445
			c1.074-1.619,0.678-2.422-0.777-3.057c-0.287-0.125-0.598-0.229-0.838-0.42c-0.123-0.1-0.221-0.416-0.156-0.545
			c0.389-0.756,0.76-1.537,1.27-2.209c0.742-0.979,0.621-1.717-0.334-2.443c-0.461-0.352-0.176-0.764,0.115-1.094
			c0.66-0.748,1.559-0.771,2.377-0.537c2.73,0.781,5.191,2.049,6.758,4.549c1.945,3.102,3.211,6.508,4.26,10
			c0.09,0.303,0.141,0.635,0.121,0.949c-0.217,3.586,0.891,6.975,1.582,10.42c0.545,2.721,1.242,5.408,1.057,8.223
			c-0.041,0.635,0.014,1.293,0.131,1.918C101.871,51.098,101.521,55.598,101.582,60.082z"/>
	</g>
</g>
</svg>
