<?xml version="1.0" encoding="utf-8"?>
<!-- Generator: Adobe Illustrator 16.0.0, SVG Export Plug-In . SVG Version: 6.00 Build 0)  -->
<!DOCTYPE svg PUBLIC "-//W3C//DTD SVG 1.1//EN" "http://www.w3.org/Graphics/SVG/1.1/DTD/svg11.dtd">
<svg version="1.1" id="Layer_1" xmlns="http://www.w3.org/2000/svg" xmlns:xlink="http://www.w3.org/1999/xlink" x="0px" y="0px"
	 width="120px" height="120px" viewBox="0 0 120 120" style="enable-background:new 0 0 120 120;" xml:space="preserve">
<g id="amazon">
	<g>
		<path style="fill-rule:evenodd;clip-rule:evenodd;" d="M28.666,76.793c0.704,1.428,1.513,2.85,2.521,4.074
			c1.913,2.318,4.188,4.289,6.693,5.955c2.177,1.445,4.531,2.336,7.231,2.229c3.1-0.125,6.212,0.002,9.307-0.176
			c1.905-0.107,3.844-0.391,5.669-0.926c4.337-1.271,8.463-3.102,11.941-6.027c1.209-1.016,2.297-0.939,3.477-0.557
			c0.887,0.287,1.683,0.891,2.473,1.424c1.327,0.895,2.567,1.932,3.938,2.75c1.191,0.711,2.583,0.365,3.467-0.688
			c1.713-2.051,3.428-4.102,5.093-6.189c1.203-1.506,2.319-3.078,3.948-4.178c0.679-0.457,0.943-1.143,0.964-1.93
			c0.027-1.088-0.033-2.131-0.927-2.953c-0.387-0.355-0.64-0.854-0.956-1.285c-4.007-5.49-5.897-11.62-5.139-18.393
			c0.359-3.207,0.371-6.398,0.431-9.602c-0.034-3.523,0.047-7.037-0.509-10.555c-0.483-3.068-0.989-6.115-2.015-9.043
			c-1.262-3.604-3.334-6.657-6.332-9.092c-2.938-2.386-6.409-3.835-9.641-5.708c-0.272-0.158-0.589-0.256-0.897-0.338
			c-3.888-1.035-7.854-1.162-11.767-0.426c-2.709,0.51-5.352,1.465-7.966,2.389c-1.91,0.674-3.726,1.612-5.305,2.945
			c-1.712,1.451-3.405,2.93-5.188,4.291c-3.878,2.96-6.82,6.767-9.756,10.583c-0.325,0.424-0.601,0.885-0.888,1.334
			c-0.664,1.043-0.792,2.203-0.697,3.398c0.055,0.686,0.385,1.26,1.032,1.508c1.794,0.684,3.572,1.486,5.431,1.93
			c4.507,1.074,9.116,1.064,13.72,0.916c0.107-0.004,0.213-0.027,0.318-0.041c1.078-0.133,1.836-0.689,1.953-1.789
			c0.097-0.922,0.441-1.635,1.175-2.174c0.43-0.318,0.851-0.654,1.309-0.926c1.834-1.088,3.679-2.162,5.532-3.221
			c0.268-0.152,0.601-0.221,0.913-0.262c2.201-0.297,3.797,0.656,4.756,2.939c1.14,2.713,1.553,5.537,1.041,8.455
			c-0.042,0.246-0.36,0.586-0.597,0.629c-0.625,0.113-1.275,0.1-1.916,0.117c-3.524,0.1-7.051,0.088-10.543,0.713
			c-2.949,0.525-5.879,1.111-8.646,2.295c-1.375,0.59-2.693,1.312-4.068,1.902c-3.626,1.555-6.546,3.979-9.006,7.035
			c-1.029,1.279-1.771,2.676-2.249,4.213c-1.055,3.381-1.482,6.887-1.891,10.385c-0.313,2.682-0.056,5.33,0.979,7.873
			C27.643,73.984,28.008,75.461,28.666,76.793z M39.913,25.544c-0.038,0.281-0.259,0.564-0.463,0.783
			c-0.079,0.084-0.493,0.025-0.51-0.033c-0.216-0.797-0.409-1.602-0.57-2.414c-0.384-1.973-0.055-2.686,1.763-3.885
			c0.063-0.041,0.17-0.02,0.255-0.027c0.054,0.088,0.162,0.18,0.153,0.262C40.345,22.003,40.152,23.777,39.913,25.544z
			 M36.037,64.445c1.567-2.295,3.183-4.557,4.741-6.858c0.601-0.881,1.158-1.805,1.617-2.764c0.636-1.324,0.174-2.158-1.291-2.547
			c-0.201-0.055-0.418-0.062-0.614-0.127c-0.45-0.146-0.371-0.543-0.184-0.754c1.136-1.273,2.172-2.699,3.521-3.697
			c1.158-0.857,2.676-1.244,4.06-1.777c2.712-1.045,5.562-1.49,8.43-1.809c2.124-0.236,4.254-0.414,6.386-0.545
			c0.733-0.043,1.479,0.156,2.225,0.199c1.6,0.094,3.199,0.184,4.801,0.227c0.816,0.021,1.438-0.387,1.784-1.137
			c0.403-0.873,0.833-1.742,1.149-2.646c0.808-2.32,1.612-4.643,2.305-6.996c0.296-1.006,0.361-2.09,0.428-3.146
			c0.034-0.551-0.305-1.006-0.857-1.234c-0.459-0.188-0.836-0.01-1.163,0.287c-0.396,0.357-0.755,0.754-1.149,1.113
			c-0.271,0.248-0.872-0.037-0.95-0.447c-0.056-0.305-0.155-0.633-0.096-0.922c0.234-1.15,0.574-2.279,0.782-3.434
			c0.191-1.055,0.231-2.115-0.367-3.111c-0.499-0.834-1.52-0.98-2.114-0.207c-0.389,0.506-0.688,1.076-1.055,1.6
			c-0.238,0.344-0.857,0.291-1.046-0.117c-0.216-0.465-0.437-0.967-0.476-1.467c-0.06-0.74,0.092-1.496,0.055-2.238
			c-0.046-0.963-0.666-1.564-1.516-1.885c-0.805-0.305-1.438,0.15-2.019,0.643c-0.158,0.135-0.297,0.324-0.371,0.516
			c-0.418,1.098-1.319,1.186-2.333,1.316c-1.899,0.246-3.774,0.67-5.662,1.021c-0.209,0.039-0.417,0.096-0.629,0.127
			c-1.111,0.164-1.976,1.287-3.243,0.834c-0.095-1.047-0.137-2.102-0.303-3.137c-0.079-0.5-0.308-1.023-0.611-1.428
			c-0.647-0.863-1.787-0.855-2.489-0.055c-0.807,0.92-1.19,2.023-1.258,3.221c-0.079,1.387-0.124,2.779-0.108,4.168
			c0.009,0.789-0.196,1.465-0.616,2.111c-0.479,0.74-1.75,0.717-2.144-0.084c-0.184-0.371-0.309-0.801-0.331-1.213
			c-0.118-2.348-0.125-4.705-0.662-7.012c-0.197-0.846,0.161-1.416,0.757-1.959c2.949-2.702,6.199-4.771,10.078-6.033
			c3.668-1.194,7.331-1.367,11.073-1.121c1.153,0.075,2.374,0.326,3.402,0.829c2.585,1.268,5.187,2.521,7.534,4.241
			c3.059,2.244,5.074,5.184,6.086,8.797c0.922,3.297,1.563,6.656,1.611,10.096c0.044,3.102,0.01,6.205,0.01,9.307h-0.173
			c0,1.498,0.053,2.998-0.01,4.492c-0.228,5.275,0.488,10.459,1.577,15.586c0.531,2.5,1.323,4.975,3.086,6.969
			c0.699,0.789,0.549,1.51-0.05,2.291c-1.038,1.357-2.025,2.754-3.037,4.135c-0.297,0.404-0.617,0.412-1.085,0.209
			c-1.978-0.855-3.62-2.227-5.304-3.502c-1.445-1.094-2.718-2.43-2.824-4.465c-0.045-0.838-0.713-1.281-1.413-1.6
			c-0.51-0.232-1.105-0.309-1.487,0.143c-0.32,0.375-0.642,0.926-0.615,1.381c0.049,0.838,0.277,1.689,0.57,2.482
			c0.266,0.719,0.057,1.289-0.351,1.783c-0.538,0.646-1.095,1.367-1.805,1.76c-0.678,0.373-1.195,1.291-2.197,0.934
			c-0.085-0.729-0.186-1.457-0.247-2.189c-0.071-0.854-0.022-1.723-0.188-2.553c-0.096-0.482-0.467-0.936-0.792-1.338
			c-0.316-0.389-1.162-0.377-1.431,0.014c-0.356,0.518-0.766,1.059-0.904,1.65c-0.562,2.389-1.09,4.797-0.244,7.25
			c0.041,0.119-0.345,0.385-0.529,0.582c-0.135-0.135-0.363-0.258-0.389-0.412c-0.069-0.414-0.053-0.846-0.066-1.27
			c-0.019-0.535,0.048-1.088-0.069-1.598c-0.117-0.504-0.343-1.018-0.653-1.43c-0.914-1.213-2.468-1.109-3.139,0.223
			c-0.33,0.658-0.538,1.393-0.693,2.115c-0.27,1.25-0.526,2.512-0.653,3.781c-0.124,1.242-0.704,1.965-1.913,2.213
			c-0.207,0.043-0.402,0.146-0.607,0.205c-0.791,0.223-1.286-0.191-1.101-0.941c0.255-1.035,0.605-2.055,0.785-3.102
			c0.183-1.045,0.245-2.117,0.279-3.18c0.021-0.598-0.609-1.307-1.146-1.396c-0.588-0.102-1.1,0.16-1.37,0.635
			c-0.846,1.482-1.639,2.994-2.421,4.514c-0.29,0.564-0.475,1.186-0.739,1.766c-0.083,0.182-0.265,0.426-0.421,0.443
			c-0.392,0.043-0.831,0.055-1.179-0.09c-0.168-0.068-0.319-0.576-0.237-0.795c0.566-1.5,1.208-2.969,1.793-4.461
			c0.235-0.592,0.448-1.203,0.558-1.826c0.07-0.402,0.037-0.887-0.131-1.248c-0.165-0.348-0.528-0.746-0.871-0.822
			c-0.328-0.072-0.894,0.133-1.094,0.406c-0.817,1.119-1.543,2.305-2.284,3.479c-0.512,0.814-0.979,1.658-1.487,2.475
			c-0.301,0.482-0.94,0.59-1.387,0.273c-0.454-0.324-0.598-0.875-0.326-1.408c0.289-0.572,0.609-1.129,0.926-1.688
			c0.891-1.584,1.791-3.162,2.679-4.748c0.304-0.537,0.407-1.383,1.101-1.398c0.398-0.01,0.788,0.656,1.225,0.961
			c2.637,1.844,5.621,2.568,8.781,2.482c2.084-0.057,3.988-0.85,5.511-2.297c2.507-2.381,4.611-5.064,5.591-8.457
			c0.988-3.43,1.108-6.95,0.935-10.489c-0.01-0.213-0.052-0.426-0.104-0.631c-0.396-1.578-1.819-2.516-3.409-2.111
			c-1.967,0.502-3.929,0.938-5.963,1.139c-1.131,0.111-2.209,0.738-3.318,1.111c-2.044,0.684-3.923,1.695-5.72,2.859
			c-4.146,2.682-5.6,6.538-4.875,11.321c0.08,0.525,0.256,1.039,0.308,1.568c0.045,0.467-0.144,0.826-0.725,0.662
			c-0.737-0.209-1.265,0.18-1.679,0.672c-1.375,1.637-2.711,3.303-4.057,4.961c-0.335,0.414-0.644,0.848-0.984,1.258
			c-0.288,0.352-0.71,0.312-1.08-0.08c-0.221-0.232-0.441-0.465-0.646-0.711c-0.462-0.557-0.504-1.15-0.141-1.777
			c1.291-2.217,2.554-4.449,3.875-6.648c0.771-1.281,1.662-2.488,2.424-3.773c0.179-0.301,0.159-0.83,0.026-1.18
			c-0.205-0.542-0.757-0.807-1.309-0.68c-0.604,0.141-1.287,0.33-1.726,0.729c-1.021,0.932-1.953,1.971-2.857,3.021
			c-0.555,0.645-0.988,1.391-1.48,2.09c-0.184,0.262-0.353,0.252-0.475-0.027c-0.042-0.094-0.102-0.219-0.072-0.301
			C35.7,65.201,35.808,64.779,36.037,64.445z M53.255,63.041c0.365-0.883,0.694-1.781,1.081-2.655
			c1.066-2.398,2.771-3.961,5.484-4.314c1.149-0.15,2.274-0.512,3.41-0.775c0.006,0.016,0.008,0.031,0.012,0.047
			c0.412-0.094,0.828-0.266,1.236-0.25c0.227,0.01,0.453,0.32,0.654,0.521c0.06,0.061,0.054,0.205,0.045,0.311
			c-0.307,3.551-1.095,6.94-3.554,9.69c-0.63,0.705-1.361,1.355-2.148,1.877c-1.893,1.254-3.868,0.832-5.784,0.029
			c-0.313-0.133-0.602-0.648-0.654-1.02C52.875,65.346,52.785,64.17,53.255,63.041z M115.043,84.104
			c-1.131-0.729-2.364-0.957-3.684-0.814c-2.019,0.193-4.035,0.43-6.059,0.572c-3.305,0.23-6.614,0.404-9.922,0.588
			c-1.521,0.084-2.955,0.482-4.297,1.172c-2.285,1.174-2.891,3.633-1.35,5.674c0.5,0.662,1.227,1.178,1.921,1.656
			c1.571,1.082,3.385,1.229,5.227,1.232c0.202,0,0.403,0.111,0.606,0.172c-0.134,0.254-0.204,0.623-0.412,0.742
			c-0.93,0.525-1.867,1.062-2.859,1.441c-4.49,1.719-9.049,3.209-13.71,4.422c-7.386,1.926-14.852,3.057-22.502,2.672
			c-1.704-0.084-3.399-0.361-5.104-0.424c-3.862-0.145-7.638-0.861-11.388-1.709c-7.858-1.779-15.333-4.625-22.521-8.236
			c-3.056-1.537-6.089-3.123-9.141-4.672c-0.761-0.387-1.559-0.705-2.326-1.082c-1.074-0.527-2.083-0.283-3.07,0.229
			c-0.938,0.488-1.347,1.85-0.834,2.781c0.153,0.275,0.355,0.531,0.571,0.764c1.97,2.117,3.962,4.203,6.457,5.732
			c0.636,0.391,1.255,0.83,1.809,1.328c2.381,2.141,5.068,3.898,7.413,6.1c2.19,2.055,4.854,3.484,7.459,4.965
			c1.69,0.963,3.42,1.719,5.324,2.145c1.768,0.396,3.575,0.777,5.23,1.48c3.72,1.58,7.653,1.914,11.582,2.146
			c2.866,0.172,5.772,0.285,8.621-0.443c0.609-0.156,1.279-0.07,1.918-0.125c0.744-0.062,1.5-0.086,2.226-0.244
			c5.215-1.131,10.407-2.359,15.639-3.416c2.947-0.594,5.71-1.795,8.622-2.43c2.797-0.609,5.204-1.891,7.491-3.496
			c2.545-1.787,4.892-3.803,7.004-6.102c0.861-0.938,1.871-1.742,2.834-2.582c0.129-0.113,0.38-0.084,0.575-0.121
			c0.024,0.178,0.121,0.393,0.059,0.531c-0.809,1.746-1.7,3.457-2.45,5.229c-0.663,1.566-1.242,3.18-1.732,4.811
			c-0.597,1.986,0.164,3.625,1.975,4.475c0.578,0.27,1.199,0.471,1.821,0.615c1.11,0.258,2.085,0.016,2.949-0.803
			c1.729-1.637,3.231-3.389,3.743-5.812c0.131-0.619,0.457-1.195,0.676-1.799c1.526-4.217,3.018-8.447,4.589-12.648
			c0.503-1.342,0.62-2.697,0.601-4.094C116.611,85.539,116.005,84.723,115.043,84.104z"/>
	</g>
</g>
</svg>
