<?xml version="1.0" encoding="utf-8"?>
<!-- Generator: Adobe Illustrator 16.0.0, SVG Export Plug-In . SVG Version: 6.00 Build 0)  -->
<!DOCTYPE svg PUBLIC "-//W3C//DTD SVG 1.1//EN" "http://www.w3.org/Graphics/SVG/1.1/DTD/svg11.dtd">
<svg version="1.1" id="Layer_1" xmlns="http://www.w3.org/2000/svg" xmlns:xlink="http://www.w3.org/1999/xlink" x="0px" y="0px"
	 width="120px" height="120px" viewBox="0 0 120 120" style="enable-background:new 0 0 120 120;" xml:space="preserve">
<g id="amazon_wishlist">
	<g>
		<path style="fill-rule:evenodd;clip-rule:evenodd;" d="M20.176,91.786c0.453,0.58,1.032,1.109,1.654,1.506
			c1.527,0.974,3.1,1.887,4.688,2.761c0.551,0.303,1.194,0.536,1.811,0.601c2.88,0.299,5.756,0.39,8.609-0.303
			c3.334-0.81,6.529-1.984,9.576-3.571c0.832-0.434,1.702-1.293,2.596-0.915c0.686,0.289,1.113,1.242,1.596,1.941
			c1.103,1.594,2.312,3.021,4.029,4.044c1.438,0.857,2.812,0.964,4.248,0.279c2.509-1.196,4.965-2.505,7.134-4.268
			c1.335-1.089,2.706-2.023,4.408-2.518c1.491-0.434,2.522-1.538,3.188-2.974c0.662-1.43,1.607-2.706,0.996-4.508
			c-0.328-0.98-0.247-2.096-0.96-2.983c-1.937-2.416-3.831-4.868-5.79-7.267c-1.376-1.686-2.342-3.571-2.916-5.652
			c-0.397-1.439-0.742-2.896-1.043-4.358c-0.857-4.177-2.016-8.321-1.505-12.661c0-1.178-0.017-2.354,0.005-3.53
			c0.025-1.618-0.232-3.19-0.691-4.737c-0.74-2.502-1.963-4.785-3.809-6.58c-1.442-1.398-3.211-2.478-4.896-3.601
			c-1.256-0.837-2.679-1.409-4.218-1.31c-1.956,0.125-3.819-0.334-5.699-0.703c-4.829-0.949-9.364,0.014-13.581,2.357
			c-1.748,0.973-3.455,2.066-5.136,3.158c-3.028,1.966-5.062,4.864-6.628,8.08c-0.229,0.467-0.351,1.029-0.357,1.548
			c-0.014,1.495,0.036,2.992,0.107,4.486c0.033,0.688,0.466,1.185,1.051,1.517c0.957,0.543,2,0.721,3.092,0.654
			c1.956-0.119,3.827,0.145,5.6,1.058c0.658,0.338,1.4,0.523,2.124,0.714c1.024,0.269,2.25-0.315,2.651-1.297
			c0.281-0.688,0.402-1.439,0.652-2.142c0.483-1.36,1.354-2.431,2.639-3.098c0.451-0.233,1.105-0.509,1.503-0.351
			c1.53,0.611,3.108,0.665,4.704,0.723c0.58,0.021,1.021,0.363,1.252,0.873c0.988,2.162,1.363,4.475,1.566,6.817
			c0.02,0.231-0.264,0.639-0.492,0.715c-0.701,0.237-1.435,0.403-2.17,0.507c-2.113,0.298-4.252,0.443-6.342,0.85
			c-2.625,0.511-5.239,1.229-7.443,2.809c-2.773,1.986-5.562,3.953-7.95,6.452c-2.524,2.644-3.783,5.894-4.95,9.229
			c-0.067,0.197-0.067,0.421-0.083,0.635c-0.19,2.905-0.088,5.766,1.162,8.48C17.234,87.597,18.6,89.759,20.176,91.786z
			 M24.562,74.415c0.506-2.54,1.51-4.795,3.146-6.896c2.27-2.915,5.231-4.266,8.699-4.878c2.1-0.372,4.191-0.783,6.291-1.143
			c0.631-0.107,1.277-0.112,1.918-0.146c0.533-0.029,1.08,0.035,1.603-0.058c3.18-0.572,4.981-2.036,4.565-5.343
			c-0.455-3.623-1.273-7.156-2.856-10.445c-1.261-2.621-3.536-3.955-6.423-4.082c-3.064-0.135-5.99,0.609-8.521,2.305
			c-1.324,0.887-2.449,1.097-3.846,0.506c-0.386-0.162-0.839-0.16-1.25-0.273c-0.673-0.188-0.938-0.929-0.525-1.529
			c0.299-0.434,0.6-0.927,1.022-1.207c2.68-1.786,5.44-3.372,8.747-3.725c2.017-0.215,4.018-0.561,6.025-0.851
			c0.316-0.046,0.631-0.107,0.949-0.147c3.49-0.439,6.307,0.646,8.301,3.637c0.414,0.621,0.818,1.291,1.375,1.763
			c1.387,1.171,2.043,2.663,2.381,4.398c0.244,1.251,0.723,2.455,0.994,3.703c0.506,2.33,0.348,4.688-0.005,7.013
			c-0.629,4.148-0.681,8.33-0.353,12.472c0.244,3.067,1.316,6.046,2.603,8.872c0.475,1.045,1.257,1.98,2.025,2.857
			c1.054,1.203,2.226,2.303,3.346,3.449c0.347,0.357,0.379,0.753,0.029,1.109c-0.3,0.305-0.636,0.572-0.978,0.831
			c-1.781,1.357-3.57,2.708-5.363,4.054c-0.168,0.125-0.365,0.236-0.566,0.281c-0.191,0.044-0.484,0.074-0.596-0.032
			c-0.203-0.195-0.471-0.53-0.423-0.745c0.22-1.041,0.597-2.049,0.802-3.091c0.184-0.934,0.309-1.899,0.291-2.849
			c-0.02-1.274-1.045-1.727-2.192-1.044c-0.091,0.054-0.158,0.151-0.25,0.196c-0.161,0.078-0.335,0.132-0.5,0.195
			c-0.048-0.195-0.191-0.432-0.128-0.579c0.467-1.063,0.6-2.037-0.42-2.896c-0.556-0.471-0.306-1.2-0.451-1.807
			c-0.217-0.903-0.717-1.398-1.461-1.486c-0.803-0.096-1.561,0.1-1.963,0.803c-0.584,1.013-1.077,2.084-1.508,3.172
			c-0.244,0.622-0.587,1.095-1.064,1.55c-1.313,1.248-2.604,2.524-3.843,3.845c-0.925,0.982-1.916,1.591-3.349,1.531
			c-2.029-0.086-4.066,0.062-6.096-0.016c-1.051-0.039-2.093-0.351-3.141-0.527c-0.68-0.114-1.172-0.457-1.496-1.072
			c-0.342-0.646-0.943-0.766-1.618-0.814c-1.206-0.088-1.423-0.966-1.105-1.779c0.468-1.193,0.903-2.399,1.343-3.603
			c0.146-0.399,0.296-0.802,0.385-1.214c0.129-0.586-0.15-1.021-0.6-1.378c-0.481-0.382-0.969-0.403-1.452-0.031
			c-0.425,0.325-0.829,0.677-1.243,1.011c-0.077,0.063-0.178,0.099-0.268,0.146c-0.072-0.189-0.239-0.407-0.197-0.564
			c0.33-1.169,0.698-2.327,1.056-3.487c-0.282,0.197-0.565,0.391-0.841,0.595c-0.29,0.217-0.572,0.449-0.856,0.676
			C24.657,75.235,24.487,74.801,24.562,74.415z M77.55,98.573c-0.854,0.004-1.735,0.006-2.554,0.211
			c-1.898,0.476-3.816,0.435-5.735,0.403c-1.703-0.026-3.405-0.138-5.106-0.21c-0.004-0.082-0.008-0.162-0.014-0.242
			c-1.046,0.177-2.1,0.332-3.142,0.539c-1.278,0.253-2.11,1.048-2.356,2.314c-0.257,1.318-0.105,2.59,1.082,3.463
			c0.421,0.307,0.955,0.453,1.421,0.701c0.13,0.068,0.218,0.233,0.291,0.374c0.013,0.03-0.125,0.177-0.214,0.211
			c-0.595,0.228-1.18,0.532-1.798,0.64c-2.205,0.381-4.417,0.729-6.636,1.022c-3.91,0.519-7.814,1.198-11.742,1.425
			c-4.254,0.244-8.518,0.162-12.793-0.349c-6.016-0.72-11.267-3.124-16.166-6.482c-1.76-1.204-3.368-2.626-5.104-3.865
			c-1.923-1.372-2.855-1-3.283,1.272c-0.113,0.602-0.052,1.27,0.074,1.877c0.503,2.382,1.846,4.291,3.525,5.986
			c4.158,4.195,9.236,6.855,14.771,8.674c3.266,1.072,6.662,1.476,10.103,1.433c4.487-0.057,8.995,0.116,13.458-0.257
			c6.297-0.525,12.37-2.227,18.287-4.448c0.892-0.335,1.771-0.692,2.658-1.039c0.734,0.944,0.18,2.058,0.4,3.07
			c0.046,0.208,0.037,0.429,0.087,0.635c0.47,2.011,2.784,3.036,4.518,1.952c1.096-0.686,2.008-1.586,2.601-2.765
			c0.67-1.336,1.342-2.673,2-4.015c1.082-2.203,2.135-4.424,3.893-6.211c0.291-0.297,0.5-0.696,0.678-1.081
			C81.816,101.501,80.477,98.56,77.55,98.573z M53.672,25.487c0.529,0.039,1.073,0.061,1.599-0.002
			c2.052-0.24,4.041,0.226,6.037,0.544c0.718,0.115,1.504,0.344,2.078,0.765c2.518,1.846,4.222,4.207,4.29,7.479
			c0.016,0.746-0.068,1.504,0.023,2.24c0.259,2.09,2.671,3.175,4.377,1.938c0.578-0.421,1.069-1.046,1.423-1.678
			c0.467-0.831,0.717-1.779,1.125-2.647c2.559-5.453,6.396-9.513,12.342-11.262c1.206-0.354,1.944-1.428,1.81-2.657
			c-0.045-0.413-0.188-0.827-0.351-1.214c-0.298-0.699-0.642-1.318-1.584-1.32c-1.3-0.002-2.566-0.324-3.662-1.002
			c-0.845-0.521-1.729-0.75-2.658-1.008c-2.125-0.59-3.856-1.771-4.988-3.744c-0.958-1.666-1.948-3.291-2.362-5.218
			c-0.308-1.454-0.828-2.863-1.252-4.292c-0.164-0.541-0.731-0.856-1.23-0.686c-1.551,0.532-2.58,1.479-2.58,3.244v2.072
			c0.59,2.343-0.542,4.201-2.217,5.858c-0.454,0.451-0.887,0.934-1.377,1.34c-3.147,2.59-6.484,4.859-10.408,6.136
			c-0.506,0.164-1.002,0.382-1.463,0.643c-0.918,0.521-1.295,1.587-1.041,2.798C51.804,24.777,52.558,25.405,53.672,25.487z
			 M65.716,20.169c1.525-1.322,3.034-2.664,4.559-3.988c0.366-0.317,0.858-0.359,1.126,0.019c1.389,1.952,3.201,3.388,5.271,4.54
			c0.174,0.096,0.291,0.301,0.434,0.455c-0.08,0.188-0.117,0.41-0.243,0.554c-1.268,1.433-2.58,2.825-3.815,4.284
			c-1.151,1.36-1.269,1.572-2.418-0.146c-1.255-1.88-2.957-3.331-4.904-4.493C65.168,21.062,65.217,20.601,65.716,20.169z
			 M114.394,27.433c-0.944-0.119-1.932-0.131-2.872,0.011c-1.184,0.178-2.082-0.2-2.908-0.976c-1.203-1.123-2.184-2.428-2.443-4.054
			c-0.221-1.363-1.027-2.34-1.73-3.388c-0.66-0.982-2.076-0.828-2.64,0.26c-0.337,0.653-0.569,1.372-0.765,2.084
			c-0.94,3.408-2.656,6.236-5.686,8.234c-0.928,0.61-1.88,0.926-2.902,1.227c-0.652,0.193-1.037,0.729-1.11,1.434
			c-0.071,0.686,0.112,1.32,0.695,1.69c0.622,0.399,1.331,0.663,1.997,0.999c1.236,0.625,2.484,1.23,3.699,1.895
			c1.879,1.027,2.657,2.702,2.688,4.777c0.01,0.643-0.016,1.286,0,1.928c0.013,0.426,0.018,0.86,0.116,1.271
			c0.238,1.01,1.309,1.797,2.375,1.805c1.085,0.006,2.167-0.745,2.431-1.738c0.107-0.408,0.18-0.848,0.153-1.267
			c-0.121-2.021,0.622-3.777,1.647-5.437c0.617-0.998,1.332-1.934,1.979-2.914c0.984-1.487,2.286-2.474,4.032-2.974
			c0.897-0.257,1.748-0.786,2.52-1.331c0.391-0.272,0.561-0.855,0.711-1.103C116.438,28.656,115.54,27.578,114.394,27.433z
			 M105.412,31.499c-0.02,0.102-0.071,0.205-0.137,0.287c-0.65,0.836-1.306,1.668-1.961,2.5c-1.23,0.044-1.697-1.152-2.619-1.615
			c-0.185-0.095-0.396-0.214-0.5-0.381c-0.083-0.137-0.104-0.405-0.023-0.54c0.646-1.104,1.311-2.2,2.003-3.278
			c0.159-0.249,0.461-0.526,0.767-0.2c0.804,0.855,1.57,1.743,2.346,2.624c0.064,0.072,0.075,0.193,0.109,0.293
			C105.403,31.292,105.434,31.401,105.412,31.499z M87.848,46.269c-0.477-0.204-1.033-0.221-1.553-0.32
			c-0.471-0.09-0.736-0.375-0.783-0.849c-0.072-0.735-0.01-1.513-0.232-2.198c-0.232-0.714-0.817-1.231-1.646-1.338
			c-0.721-0.092-1.49,0.286-1.854,0.99c-0.243,0.471-0.441,0.969-0.603,1.474c-0.293,0.911-0.289,2.074-0.872,2.694
			c-0.673,0.713-1.841,0.967-2.805,1.387c-0.585,0.254-1.212,0.412-1.79,0.675c-0.622,0.284-0.968,0.801-1.008,1.505
			c-0.044,0.814,0.324,1.633,0.969,1.865c1.092,0.396,2.189,0.868,3.404,0.576c1.3-0.072,1.355-0.036,1.781,1.19
			c0.209,0.597,0.34,1.237,0.64,1.786c0.478,0.877,1.575,1.271,2.479,1.01c1.059-0.305,1.675-0.992,1.729-2.037
			c0.034-0.635-0.035-1.275-0.053-1.913c-0.014-0.604,0.282-0.991,0.849-1.188c0.5-0.176,1.003-0.352,1.501-0.542
			c1.029-0.396,1.43-1.207,1.459-2.253C89.495,47.578,88.922,46.729,87.848,46.269z M29.612,77.295
			c-0.032,3.149,1.875,5.734,4.85,6.742c2.809,0.952,5.265,0.147,7.542-1.428c1.764-1.22,3.268-2.761,4.533-4.489
			c0.621-0.852,1.158-1.816,1.5-2.811c1.57-4.557-1.521-8.367-5.049-9.175c-1.455-0.333-2.776,0.071-4.045,0.593
			c-1.096,0.45-2.094,0.897-3.334,0.58c-0.443-0.114-1.048,0.14-1.504,0.375c-1.256,0.647-2.264,1.562-2.939,2.849
			c-1.008,1.925-1.715,3.908-1.554,5.562C29.612,76.868,29.613,77.082,29.612,77.295z M34.422,77.614
			c1.702-2,3.082-4.335,5.586-5.507c0.555-0.26,1.184-0.466,1.785-0.495c0.992-0.049,1.772,1.202,1.294,2.041
			c-1.275,2.255-3.033,4.072-5.271,5.377c-0.521,0.303-1.204,0.322-1.908,0.496c-0.426-0.249-0.916-0.447-1.283-0.78
			C34.326,78.476,34.084,78.013,34.422,77.614z M27.037,73.002c-0.017-0.089-0.088-0.175-0.156-0.243
			c-0.018-0.019-0.154,0.028-0.158,0.057c-0.06,0.442-0.108,0.886-0.157,1.33C27.033,73.912,27.135,73.501,27.037,73.002z
			 M26.565,74.146c-0.037,0.019-0.06,0.044-0.103,0.061c-0.018,0.057-0.035,0.114-0.053,0.171c0.047-0.032,0.093-0.065,0.14-0.099
			C26.555,74.234,26.561,74.189,26.565,74.146z"/>
	</g>
</g>
</svg>
