<?xml version="1.0" encoding="utf-8"?>
<!-- Generator: Adobe Illustrator 16.0.0, SVG Export Plug-In . SVG Version: 6.00 Build 0)  -->
<!DOCTYPE svg PUBLIC "-//W3C//DTD SVG 1.1//EN" "http://www.w3.org/Graphics/SVG/1.1/DTD/svg11.dtd">
<svg version="1.1" id="Layer_1" xmlns="http://www.w3.org/2000/svg" xmlns:xlink="http://www.w3.org/1999/xlink" x="0px" y="0px"
	 width="120px" height="120px" viewBox="0 0 120 120" style="enable-background:new 0 0 120 120;" xml:space="preserve">
<g id="shopping_cart">
	<g>
		<path style="fill-rule:evenodd;clip-rule:evenodd;" d="M113.616,38.3c-0.078-1.682-0.496-3.379-0.98-5.004
			c-0.977-3.273-2.018-4.115-5.486-4.262c-2.877-0.119-5.775-0.275-8.615-0.725c-4.168-0.66-8.295-0.359-12.449-0.062
			c-2.662,0.191-5.336,0.369-7.992-0.178c-0.623-0.129-1.275-0.168-1.914-0.168c-7.381,0-14.766,0.016-22.148,0.031
			c-0.32,0-0.643,0.016-0.961,0.047c-4.672,0.461-9.314,1.369-14.047,0.807c-0.205-0.025-0.443-0.02-0.625,0.064
			c-1.799,0.826-3.297-0.441-4.932-0.719c-0.24-0.039-0.527-0.404-0.604-0.672c-0.295-1.023-0.57-2.059-0.748-3.107
			c-0.463-2.736-0.916-5.473-1.285-8.221c-0.174-1.307-0.713-2.453-1.223-3.623c-0.822-1.881-2.359-2.666-4.334-2.727
			c-1.641-0.051-3.186,0.363-4.646,1.066c-1.541,0.742-3.057,1.533-4.578,2.316c-1.523,0.785-3.057,1.498-4.766,1.846
			c-0.918,0.186-1.805,0.648-2.639,1.107c-3.395,1.871-2.691,7.021-0.17,8.746c2.252,1.539,5.518,1.07,7.098-1.227
			c0.658-0.957,1.34-1.607,2.514-1.709c0.307-0.027,0.598-0.219,0.902-0.322c0.805-0.271,1.613-0.535,2.42-0.803
			c0.797,0.662,0.939,1.621,1.17,2.545c0.131,0.518,0.326,1.018,0.477,1.529c3.271,11.277,6.518,22.562,9.832,33.828
			c0.787,2.67,1.529,5.329,1.85,8.102c0.197,1.703,0.625,3.35,1.818,4.703c0.26,0.293,0.342,0.771,0.426,1.184
			c0.029,0.143-0.148,0.449-0.281,0.484c-0.51,0.133-1.047,0.146-1.559,0.275c-0.82,0.209-1.727,0.314-2.42,0.748
			c-1.629,1.016-3.238,2.102-4.701,3.338c-1.926,1.627-3.465,3.535-2.895,6.35c0.02,0.104,0.014,0.215,0,0.32
			c-0.15,1.156,0.279,2.092,1.117,2.857c0.467,0.43,0.932,0.867,1.445,1.238c1.703,1.23,3.662,1.664,5.723,1.76
			c4.609,0.215,9.182-0.057,13.711-1c3.029-0.631,6.084-1.131,9.107-1.787c0.967-0.211,1.893-0.25,2.857-0.174
			c1.809,0.141,3.617,0.328,5.43,0.369c4.814,0.109,9.645-0.066,14.439,0.283c4.492,0.326,8.975,0.197,13.461,0.467
			c3.1,0,6.199,0.01,9.299-0.006c0.746-0.006,1.506-0.02,2.234-0.17c1.227-0.254,2.004-1.297,2.025-2.545
			c0.029-1.676-0.953-2.855-2.639-3.059c-0.846-0.1-1.709-0.072-2.564-0.076c-4.064-0.014-8.133,0.031-12.197-0.043
			c-2.346-0.043-4.689-0.377-7.033-0.393c-7.812-0.053-15.623-0.021-23.436-0.016c-0.748,0-1.514-0.053-2.24,0.086
			c-3.453,0.656-6.941,1.197-10.33,2.107c-4.008,1.076-8.049,0.895-12.1,0.826c-0.709-0.014-1.43-0.381-2.107-0.674
			c-0.594-0.258-0.693-1.131-0.273-1.66c0.617-0.773,1.365-1.32,2.326-1.617c2.141-0.662,4.248-1.436,6.404-2.039
			c1.01-0.283,2.111-0.438,3.154-0.381c5.9,0.322,11.74-0.566,17.613-0.768c0.107-0.004,0.213-0.02,0.322-0.031
			c5.418-0.602,10.855-0.934,16.305-1.068c1.816-0.045,3.639,0.041,5.455,0.014c1.281-0.018,2.582-0.002,3.838-0.215
			c4.574-0.771,9.133-0.752,13.715-0.078c1.576,0.23,3.184,0.348,4.756-0.246c1.016-0.383,1.623-1.021,1.662-2.109
			c0.051-1.402,0.221-2.75,0.98-3.994c0.258-0.424,0.232-1.023,0.318-1.545c0.344-2.102,0.465-4.268,1.062-6.293
			c1.025-3.477,2.289-6.891,3.568-10.286c0.574-1.523,0.988-3.062,1.039-4.662C113.665,44.291,113.757,41.289,113.616,38.3z
			 M55.491,34.208c1.594-0.066,3.191-0.084,4.789-0.104c1.064-0.014,2.133-0.002,3.199-0.002v0.031c2.561,0,5.119-0.008,7.678,0.004
			c0.604,0.004,1.064,0.365,1.125,0.932c0.369,3.488,0.689,6.98,1.02,10.473c0.045,0.477-0.207,0.902-0.645,0.928
			c-4.355,0.262-8.713,0.48-13.07,0.709c-0.717,0.037-1.277-0.25-1.479-0.951c-0.994-3.475-1.965-6.957-2.936-10.438
			c-0.086-0.307-0.121-0.627-0.186-0.941C54.903,34.437,55.2,34.218,55.491,34.208z M39.712,55.125
			c-0.018,0.016-0.332-0.189-0.33-0.287c0.008-0.17,0.117-0.424,0.25-0.477c0.141-0.059,0.361,0.076,0.645,0.154
			C40.073,54.748,39.909,54.953,39.712,55.125z M40.099,49.794c0.051,0.164-0.041,0.453-0.168,0.57
			c-0.221,0.201-0.51,0.367-0.797,0.441c-0.143,0.035-0.457-0.133-0.502-0.27c-0.293-0.906-0.559-1.822-0.785-2.748
			c-0.133-0.549,0.006-1.051,0.488-1.412c1.008-0.756,1.342-1.83,1.615-3.018c0.451-1.969,1.086-3.896,1.619-5.848
			c0.111-0.406,0.139-0.84,0.152-1.264c0.018-0.617-0.508-1.252-1.123-1.375c-0.584-0.119-1.084,0.092-1.357,0.602
			c-0.705,1.314-1.359,2.654-2.033,3.986c-0.238,0.473-0.463,0.953-0.711,1.422c-0.041,0.08-0.16,0.119-0.244,0.18
			c-0.057-0.092-0.141-0.176-0.164-0.273c-0.467-2.076-0.936-4.15-1.377-6.232c-0.096-0.453,0.273-0.881,0.672-0.893
			c0.107-0.002,0.219-0.029,0.32-0.01c4.662,0.877,9.373,0.299,14.057,0.465c0.535,0.018,1.078-0.012,1.594,0.098
			c0.252,0.055,0.604,0.355,0.639,0.586c0.611,3.893,1.178,7.793,1.75,11.691c0.029,0.209,0.002,0.426-0.01,0.639
			c-0.023,0.475-0.523,1.043-1.012,1.096c-2.645,0.297-5.295,0.578-8.045,0.877c-0.219,0-0.539,0.018-0.857-0.004
			c-0.477-0.029-0.805-0.266-0.785-0.775c0.021-0.531,0.16-1.061,0.145-1.59c-0.008-0.41-0.057-0.916-0.299-1.201
			c-0.314-0.367-0.812-0.721-1.271-0.783c-0.553-0.076-1.092,0.4-1.113,0.941C40.44,47.07,39.655,48.371,40.099,49.794z
			 M73.987,70.943c-1.58,0.217-3.164,0.396-4.75,0.559c-2.328,0.238-4.654,0.482-6.986,0.65c-1.022,0.074-2.054-0.02-3.083-0.044
			c-0.008,0.026-0.015,0.055-0.024,0.079c-0.098,0.022-0.19,0.029-0.283,0.039c-0.284,0.174-0.567,0.382-0.854,0.385
			c-3.311,0.045-6.623,0.115-9.93,0.006c-1.484-0.049-2.955-0.404-4.459-0.18c-0.398,0.059-0.902-0.789-0.707-1.195
			c0.18-0.375,0.42-0.727,0.674-1.055c0.451-0.586,1.027-1.096,1.385-1.73c0.502-0.896-0.143-2.053-1.146-2.162
			c-0.525-0.057-1.064,0.027-1.598,0.006c-0.307-0.01-0.678-0.715-0.555-1.023c0.113-0.293,0.213-0.613,0.404-0.848
			c0.334-0.412,0.773-0.742,1.102-1.16c0.959-1.219,0.445-2.449-1.158-2.792c-0.307-0.064-0.643,0-0.947-0.07
			c-0.117-0.027-0.268-0.273-0.256-0.406c0.016-0.197,0.137-0.404,0.26-0.572c0.447-0.6,0.906-1.189,1.371-1.773
			c0.729-0.908,1.465-1.812,2.197-2.717c1.359-0.217,2.717-0.463,4.082-0.643c0.738-0.096,1.492-0.098,2.24-0.119
			c4.307-0.115,3.422-0.445,4.088,3.736c0.299,1.879,0.086,3.838,0.123,5.762c0.033,1.709,0.082,3.418,0.143,5.127
			c0.031,0.877,0.246,1.688,0.965,2.285c0.762,0.632,1.525,1.255,2.576,1.139c0.07-0.043,0.141-0.086,0.211-0.121l0.097,0.003
			c0.054-0.175,0.085-0.38,0.204-0.47c1.32-0.998,1.709-2.367,1.691-3.941c-0.041-3.938-0.057-7.875-0.891-11.754
			c-0.068-0.311-0.189-0.611-0.246-0.926c-0.188-1.018,0.041-1.424,1.008-1.568c1.576-0.232,3.158-0.477,4.746-0.562
			c2.34-0.129,4.686-0.137,7.027-0.164c0.846-0.01,1.182,0.314,1.232,1.104c0.182,2.76,0.396,5.52,0.504,8.282
			c0.094,2.449,0.275,4.885,0.631,7.311C75.229,70.469,74.958,70.809,73.987,70.943z M89.118,56.222
			c-0.592,4.031-0.553,8.092-0.662,12.145c-0.006,0.213,0.008,0.43-0.027,0.641c-0.098,0.557-0.361,1.055-0.955,1.137
			c-2.744,0.379-5.473,0.959-8.27,0.727c-0.459-0.037-0.834-0.213-0.918-0.709c-0.162-0.943-0.367-1.891-0.432-2.844
			c-0.244-3.512-0.449-7.026-0.637-10.542c-0.057-1.064-0.031-2.137,0.018-3.201c0.021-0.459,0.381-0.803,0.832-0.812
			c1.705-0.035,3.412-0.014,5.123-0.014v-0.047c1.494,0,2.988-0.02,4.484,0.008c1.137,0.023,1.441,0.371,1.471,1.592
			C89.159,54.943,89.212,55.595,89.118,56.222z M89.741,37.128c-0.24,2.67-0.242,5.332-0.283,8.002
			c-0.02,1.254-0.457,1.713-1.717,1.811c-0.744,0.059-1.496,0.072-2.242,0.033c-2.662-0.141-5.326-0.305-7.986-0.475
			c-0.453-0.029-0.871-0.268-0.916-0.73c-0.332-3.398-0.654-6.799-0.922-10.201c-0.098-1.252,0.354-1.715,1.664-1.797
			c1.064-0.064,2.137-0.012,3.205-0.012c0.004-0.062,0.006-0.125,0.01-0.188c2.125,0.191,4.246,0.488,6.373,0.551
			C90.204,34.218,90.007,34.16,89.741,37.128z M107.817,45.63c-0.225,2.434-0.428,4.861-1.709,7.076
			c-0.633,1.092-0.93,2.379-1.381,3.576c-0.488,1.299-0.883,2.643-1.496,3.879c-0.633,1.278-0.939,2.575-1.057,3.985
			c-0.141,1.695-0.455,3.377-0.723,5.061c-0.123,0.783-0.451,1.045-1.35,0.984c-2.449-0.166-4.895-0.369-7.34-0.578
			c-0.51-0.043-0.66-0.359-0.561-0.879c0.633-3.256,1.004-6.537,1.033-9.858c0.006-0.85,0.178-1.697,0.293-2.541
			c0.143-1.043,0.303-2.084,0.457-3.125c1.143-0.631,2.428-0.723,3.672-0.857c1.49-0.162,2.99-0.209,4.395-0.789
			c0.49-0.203,0.961-0.459,1.428-0.715c0.404-0.227,0.443-0.832,0.084-1.061c-1.189-0.758-2.463-1.262-3.875-1.416
			c-1.59-0.172-3.176-0.377-4.764-0.574c-0.59-0.072-0.971-0.449-0.973-1.055c-0.012-3.953-0.014-7.908,0.008-11.863
			c0.006-0.746,0.523-1.201,1.248-1.148c3.512,0.25,7.025,0.496,10.533,0.803c1.252,0.111,1.4,0.318,1.684,1.523
			c0.146,0.623,0.352,1.25,0.373,1.881c0.057,1.494,0.02,2.99,0.02,4.486h0.018C107.835,43.494,107.915,44.57,107.817,45.63z
			 M102.175,96.689c-0.068-1.676-0.607-3.117-2.107-4.068c-0.354-0.227-0.645-0.553-0.953-0.848c-0.643-0.613-1.4-0.939-2.293-0.984
			c-3.791-0.182-7.43,0.328-10.662,2.479c-1.941,1.291-3.342,2.941-3.266,5.48c0.039,1.277-0.074,2.555-0.068,3.834
			c0.01,1.916,0.793,3.49,2.189,4.793c0.949,0.883,2.008,1.561,3.219,2.027c2.672,1.027,5.43,0.908,8.195,0.609
			c1.127-0.121,2.07-0.762,2.635-1.658c1.75-2.779,3.861-5.469,3.117-8.877C102.181,98.393,102.21,97.539,102.175,96.689z
			 M93.308,100.85c-0.436,0.232-1.016,0.193-1.578,0.287c-0.701-0.133-1.438-0.215-2.141-0.422c-0.65-0.193-1.049-0.697-1.105-1.402
			c-0.053-0.666,0.074-1.32,0.674-1.676c1.945-1.154,4.016-1.879,6.328-1.627c0.383,0.041,0.771,0.537,0.715,0.895
			C95.905,98.711,94.882,100.008,93.308,100.85z M53.376,91.23c-0.088-0.057-0.174-0.141-0.273-0.158
			c-1.465-0.262-2.975-0.869-4.385-0.688c-2.516,0.322-5.088,0.75-7.291,2.213c-0.611,0.408-1.289,0.826-1.703,1.406
			c-1.432,2.002-2.627,4.15-3.408,6.498c-0.23,0.701-0.289,1.457-0.301,1.521c-0.289,3.83,1.391,5.947,3.867,7.041
			c2.334,1.033,4.711,1.344,7.145,0.303c0.785-0.336,1.594-0.615,2.381-0.947c4.051-1.713,6.451-4.762,7.32-9.049
			C57.306,96.518,55.788,92.826,53.376,91.23z M50.315,99.832c-0.438,0.584-0.994,1.092-1.551,1.572
			c-0.959,0.822-2.703,0.393-3.182-0.818c-0.305-0.771-0.434-1.609-0.508-1.904c-0.016-1.914,0.592-2.729,1.865-3.127
			c1.41-0.441,2.709-0.037,3.963,0.541c0.213,0.098,0.365,0.521,0.389,0.809C51.384,98.006,50.952,98.98,50.315,99.832z"/>
	</g>
</g>
</svg>
