<?xml version="1.0" encoding="utf-8"?>
<!-- Generator: Adobe Illustrator 16.0.0, SVG Export Plug-In . SVG Version: 6.00 Build 0)  -->
<!DOCTYPE svg PUBLIC "-//W3C//DTD SVG 1.1//EN" "http://www.w3.org/Graphics/SVG/1.1/DTD/svg11.dtd">
<svg version="1.1" id="Layer_1" xmlns="http://www.w3.org/2000/svg" xmlns:xlink="http://www.w3.org/1999/xlink" x="0px" y="0px"
	 width="120px" height="120px" viewBox="0 0 120 120" style="enable-background:new 0 0 120 120;" xml:space="preserve">
<g id="kiva">
	<g>
		<path style="fill-rule:evenodd;clip-rule:evenodd;" d="M103.103,105.114c-0.432-4.182-1.528-8.184-3.16-12.037
			c-0.45-1.064-1.127-2.057-1.828-2.986c-1.484-1.973-3.293-3.633-5.176-5.23c-4.309-3.65-9.174-6.262-14.559-7.891
			c-2.038-0.617-4.146-1.008-6.224-1.496c-2.408-0.564-4.838-0.832-7.317-0.621c-0.735,0.062-1.487-0.072-2.23-0.133
			c-0.094-0.008-0.178-0.113-0.266-0.172c0.075-0.066,0.146-0.178,0.229-0.188c1.918-0.24,3.531-1.447,5.506-1.621
			c1.119-0.1,2.24-0.674,3.266-1.215c2.664-1.404,5.086-3.178,7.174-5.352c3.188-3.314,6.336-6.668,9.441-10.062
			c1.006-1.098,1.917-2.312,2.708-3.576c1.301-2.078,2.777-4.109,3.183-6.604c0.357-2.211,0.606-4.443,0.799-6.678
			c0.1-1.164-0.002-2.352-0.062-3.525c-0.031-0.619,0.053-1.512-0.701-1.592c-0.473-0.049-1.091,0.521-1.52,0.941
			c-0.994,0.971-1.904,2.027-2.861,3.037c-1.48,1.561-3.146,2.861-4.989,3.996c-2.486,1.535-5.198,2.482-7.892,3.512
			c-1.717,0.656-3.48,0.951-5.318,1.035c-1.592,0.07-3.191,0.297-4.753,0.619c-1.464,0.303-2.928,0.781-4.054,1.82
			c-1.572,1.447-3.141,2.918-4.546,4.523c-1.718,1.963-2.809,4.264-3.13,6.908c-0.14,1.16-0.461,2.299-0.709,3.443
			c-0.018,0.078-0.131,0.203-0.177,0.193c-0.095-0.018-0.21-0.094-0.257-0.178c-0.256-0.469-0.525-0.934-0.735-1.422
			c-2.781-6.48-5.541-12.971-8.332-19.449c-3.909-9.072-8.765-17.602-14.671-25.529c-2.77-3.717-5.98-6.973-9.727-9.706
			c-0.65-0.475-1.343-0.625-2.107-0.592c-1.195,0.052-1.986,1.162-1.555,2.237c0.238,0.591,0.553,1.16,0.894,1.701
			c0.856,1.355,1.757,2.684,2.622,4.035c2.135,3.338,4.02,6.797,5.569,10.457c3.213,7.59,5.72,15.416,8.062,23.303
			c1.398,4.711,2.593,9.467,3.419,14.316c0.771,4.521,1.542,9.047,2.446,13.543c1.041,5.162,1.312,10.359,1.393,15.611
			c0.074,4.906,0.607,9.805,0.943,14.707c0.021,0.318,0.062,0.643,0.143,0.951c0.258,1,1.27,1.938,2.31,1.926
			c1.595-0.021,3.233,0.006,4.771-0.348c2.596-0.6,5.141-1.436,7.682-2.25c2.659-0.854,3.8-2.389,3.885-5.219
			c0.063-2.141,0.013-4.281,0.013-6.422h-0.063c0-2.248-0.006-4.494,0.013-6.74c0.002-0.184,0.165-0.373,0.282-0.539
			c0.02-0.027,0.224,0.025,0.291,0.092c1.308,1.299,3.032,1.98,4.496,3.041c6.562,4.756,13.633,8.404,21.639,10.033
			c2.586,0.527,4.808,1.742,6.729,3.525c1.809,1.678,3.525,3.42,4.659,5.67c0.62,1.236,1.665,1.898,3.142,1.781
			c1.094-0.09,1.582-0.492,1.666-1.529C103.72,109.13,103.312,107.132,103.103,105.114z M54.897,87.489
			c0.262,1.244,0.481,2.494,0.713,3.746c-0.055,0.008-0.109,0.018-0.163,0.029c0,0.215,0.003,0.428-0.001,0.641
			c-0.02,1.312-0.02,1.291-1.372,1.242c-0.515-0.02-1.063-0.006-1.546,0.152c-1.111,0.361-2.184,0.848-3.294,1.215
			c-0.203,0.066-0.714-0.16-0.745-0.318c-0.183-0.939-0.302-1.896-0.359-2.854c-0.016-0.268,0.176-0.684,0.399-0.812
			c1.94-1.123,3.907-2.201,5.881-3.266C54.511,87.21,54.874,87.378,54.897,87.489z M43.917,59.622
			c-0.574,0.396-1.043,0.256-1.19-0.375c-0.337-1.451-0.594-2.922-0.997-4.352c-1.012-3.578-2.1-7.135-3.123-10.709
			c-0.189-0.658-0.251-1.352-0.357-2.033c-0.04-0.015-0.064-0.043-0.109-0.053c-0.003-0.045-0.003-0.09-0.004-0.135
			c-0.149-0.083-0.316-0.158-0.378-0.283c-0.07-0.146,0.02-0.371,0.039-0.562c0.101,0.117,0.249,0.219,0.289,0.352
			c0.046,0.157,0.046,0.326,0.05,0.494c0.032,0.018,0.065,0.036,0.094,0.055c0.007,0.044,0.012,0.089,0.02,0.133
			c0.523,0.194,0.611,0.735,0.795,1.158c2.002,4.58,3.982,9.17,5.956,13.762c0.493,1.148,0.412,1.373-0.573,2.162
			C44.261,59.368,44.093,59.501,43.917,59.622z M47.181,83.999c-0.09-0.799,0.054-1.482,0.762-1.965
			c0.617-0.42,1.238-0.838,1.846-1.271c0.523-0.371,1.062-0.727,1.535-1.154c0.828-0.754,0.996-1.74,0.516-2.6
			c-0.589-1.051-1.563-1.547-2.656-1.271c-0.721,0.18-1.417,0.463-2.125,0.699c-0.846,0.283-1.01,0.178-1.26-0.791
			c-0.106-0.414-0.309-0.828-0.3-1.238c0.009-0.393,0.161-0.83,0.389-1.152c0.237-0.336,0.634-0.562,0.97-0.824
			c0.504-0.396,1.048-0.744,1.516-1.178c0.578-0.537,0.895-1.197,0.568-2.012c-0.258-0.639-0.99-0.98-2.141-0.857
			c-0.162,0.051-0.564,0.191-0.975,0.299c-0.963,0.25-1.603-0.389-1.319-1.324c0.091-0.299,0.19-0.645,0.401-0.852
			c0.834-0.82,1.715-1.596,2.578-2.387c1.184,0.625,1.259,1.896,1.692,2.945c1.099,2.666,2.204,5.328,3.211,8.027
			c0.669,1.797,1.206,3.645,1.731,5.488c0.172,0.604,0.178,1.271,0.15,1.906c-0.012,0.246-0.313,0.688-0.496,0.695
			c-1.893,0.064-3.482,0.938-5.1,1.771C47.843,85.384,47.292,84.987,47.181,83.999z M55.81,102.286
			c-0.076,0.451-0.893,0.779-1.312,0.57c-0.282-0.139-0.554-0.316-0.795-0.521c-0.658-0.561-1.371-0.525-2.087-0.182
			c-0.958,0.463-1.89,0.979-2.851,1.436c-0.146,0.07-0.436,0.014-0.561-0.098c-0.129-0.113-0.207-0.373-0.186-0.555
			c0.047-0.418,0.266-0.836,0.242-1.244c-0.093-1.555,0.623-2.309,2.13-2.646c1.02-0.23,1.972-0.789,2.931-1.25
			c2.762-1.324,2.756-1.332,2.756,2.391C56.051,100.401,55.97,101.351,55.81,102.286z M63.077,55.331
			c1.339-1.373,2.554-2.916,4.598-3.295c0.73-0.135,1.47-0.33,2.204-0.326c5.612,0.037,10.641-1.959,15.538-4.408
			c1.143-0.57,2.23-1.246,3.349-1.863c0.071-0.039,0.207-0.01,0.288,0.033c0.084,0.047,0.205,0.164,0.191,0.223
			c-0.05,0.205-0.125,0.416-0.234,0.596c-1.107,1.82-2.064,3.762-3.37,5.428c-3.177,4.049-6.888,7.582-11.082,10.586
			c-0.594,0.426-1.244,0.16-1.437-0.611c-0.18-0.723-0.255-1.469-0.427-2.191c-0.179-0.756-0.629-1.342-1.278-1.775
			c-0.719-0.48-1.893-0.215-2.201,0.562c-0.351,0.887-0.68,1.783-0.403,2.787c0.312,1.121,0.581,2.258,0.792,3.404
			c0.031,0.172-0.33,0.473-0.568,0.613c-0.121,0.068-0.469-0.029-0.553-0.156c-0.285-0.434-0.596-0.889-0.724-1.381
			c-0.483-1.857-0.874-3.736-1.356-5.592c-0.129-0.496-0.398-0.988-0.713-1.4c-0.502-0.66-1.891-0.424-2.16,0.348
			c-0.139,0.395-0.257,0.824-0.266,1.238c-0.042,2.083-0.048,4.167-0.066,6.249c0.028,0.027,0.06,0.054,0.085,0.081
			c0.002,0.043,0.004,0.085,0.006,0.127c0.495,0.235,0.557,0.698,0.519,1.182c-0.012,0.154-0.186,0.295-0.286,0.443
			c-0.06-0.084-0.165-0.162-0.172-0.25c-0.031-0.458-0.044-0.915-0.061-1.375c-0.035-0.016-0.054-0.041-0.093-0.055
			c0.001-0.051,0.001-0.103,0.002-0.153c-0.196-0.184-0.454-0.362-0.471-0.563c-0.082-0.955-0.033-1.922-0.098-2.879
			c-0.053-0.738-0.037-1.549-0.346-2.186C61.597,57.345,62.111,56.323,63.077,55.331z M65.645,82.772
			c-0.014,0.061-0.188,0.15-0.214,0.131c-0.08-0.062-0.131-0.164-0.175-0.26c-0.044-0.094-0.08-0.197-0.092-0.299
			c-0.048-0.42-0.084-0.84-0.118-1.195c0.057-0.271,0.051-0.506,0.158-0.666c0.086-0.131,0.336-0.262,0.464-0.225
			c0.165,0.049,0.415,0.281,0.399,0.404C65.966,81.372,65.803,82.073,65.645,82.772z M71.704,82.388
			c-0.244,1.234-0.475,2.473-0.729,3.705c-0.041,0.189-0.181,0.361-0.275,0.541c-0.115-0.129-0.305-0.24-0.334-0.387
			c-0.281-1.328-0.534-2.664-0.711-3.572c0.077-0.77,0.027-1.127,0.166-1.381c0.123-0.229,0.461-0.488,0.695-0.482
			C71.511,80.845,71.897,81.407,71.704,82.388z M97.678,100.159c-0.177-0.039-0.379-0.037-0.524-0.129
			c-0.363-0.221-0.703-0.482-1.048-0.732c-2.371-1.723-5.016-2.781-7.892-3.297c-1.258-0.227-2.512-0.473-3.759-0.752
			c-0.678-0.15-1.112-0.598-1.222-1.309c-0.096-0.631-0.139-1.273-0.281-1.893c-0.146-0.635-0.792-1.148-1.399-1.131
			c-0.61,0.018-0.929,0.406-1.073,0.986c-0.06,0.236,0.029,0.709-0.481,0.537c-0.187-0.062-0.416-0.219-0.481-0.387
			c-0.457-1.197-0.808-2.418-0.816-3.723c-0.004-0.633-0.067-1.287-0.238-1.891c-0.158-0.553-0.654-0.801-1.244-0.801
			c-0.565,0-1.02,0.354-1.133,0.906c-0.042,0.209-0.023,0.432-0.08,0.633c-0.123,0.424,0.251,0.982-0.338,1.281
			c-0.253-0.463-0.641-0.898-0.732-1.391c-0.271-1.461-0.426-2.945-0.633-4.465c-0.017-0.338,0.49-0.748,0.885-0.635
			c2.771,0.799,5.486,1.775,8.004,3.184c5.888,3.293,10.633,7.807,14.135,13.596c0.164,0.273,0.352,0.545,0.45,0.844
			C97.829,99.753,97.716,99.968,97.678,100.159z"/>
	</g>
</g>
</svg>
