<?xml version="1.0" encoding="utf-8"?>
<!-- Generator: Adobe Illustrator 16.0.0, SVG Export Plug-In . SVG Version: 6.00 Build 0)  -->
<!DOCTYPE svg PUBLIC "-//W3C//DTD SVG 1.1//EN" "http://www.w3.org/Graphics/SVG/1.1/DTD/svg11.dtd">
<svg version="1.1" id="Layer_1" xmlns="http://www.w3.org/2000/svg" xmlns:xlink="http://www.w3.org/1999/xlink" x="0px" y="0px"
	 width="120px" height="120px" viewBox="0 0 120 120" style="enable-background:new 0 0 120 120;" xml:space="preserve">
<g id="rss">
	<g>
		<path style="fill-rule:evenodd;clip-rule:evenodd;" d="M109.004,99.659c-0.57-1.419-0.546-2.825-0.536-4.274
			c0.01-1.457-0.155-2.878-0.562-4.301c-0.898-3.137-1.561-6.341-2.516-9.459c-1.844-6.018-3.826-11.994-6.871-17.544
			c-2.27-4.14-4.507-8.3-6.9-12.368c-4.111-6.981-9.443-12.856-16.183-17.426c-1.396-0.946-2.688-2.057-3.955-3.175
			c-4.189-3.703-8.597-7.08-13.657-9.535c-0.861-0.418-1.773-0.876-2.425-1.546c-1.055-1.086-2.291-1.737-3.679-2.23
			c-1.708-0.607-3.362-1.372-5.086-1.925c-4.605-1.477-9.24-2.865-13.854-4.309c-3.73-1.167-7.527-1.806-11.444-1.485
			c-0.935,0.077-2.081-0.303-2.727,0.561c-0.374,0.5-0.239,1.36-0.407,2.041c-0.113,0.464-0.387,0.886-0.533,1.344
			c-0.806,2.534-1.667,5.038-1.834,7.744c-0.098,1.548-0.6,3.072-0.941,4.603c-0.228,1.028-0.009,1.736,0.863,2.088
			c3.472,1.403,6.945,2.809,10.453,4.118c2.379,0.886,4.84,1.55,7.221,2.431c1.581,0.584,3.172,1.232,4.606,2.102
			c5.692,3.454,11.417,6.863,16.951,10.557c6.296,4.204,11.643,9.427,15.806,15.83c1.334,2.051,2.412,4.185,3.334,6.426
			c0.598,1.451,1.161,2.931,1.916,4.301c2.875,5.226,5.025,10.748,6.619,16.467c1.134,4.061,2.352,8.156,1.692,12.495
			c-0.074,0.497,0.267,1.167,0.612,1.597c1.279,1.59,2.886,2.533,5.035,2.238c0.476-0.066,0.967-0.01,1.451-0.01
			c4.152,0.037,8.17-0.871,12.191-1.721c1.566-0.33,2.924-1.139,4.176-2.105C108.99,102.287,109.553,101.023,109.004,99.659z
			 M22.834,26.571l0.121-0.146l0.072,0.179L22.834,26.571z M26.901,17.229c-0.237,1.288-0.47,2.576-0.748,3.855
			c-0.118,0.537-0.574,0.801-1.071,0.639c-3.754-1.234-3.623-0.254-2.482-4.082c0.103-0.342,0.182-0.705,0.356-1.008
			c0.387-0.672-0.002-1.971,1.089-1.982c0.873-0.01,1.759,0.562,2.618,0.928c0.162,0.07,0.218,0.386,0.347,0.636
			C26.979,16.524,26.965,16.882,26.901,17.229z M34.081,18.626c-0.978,1.705-1.249,3.58-1.499,5.473
			c-0.059,0.454-0.793,0.621-1.155,0.24c-0.312-0.329-0.706-0.726-0.755-1.129c-0.111-0.942-0.036-1.907-0.036-2.861h-0.083
			c0-0.239,0.005-0.478-0.001-0.717c-0.091-3.724,0.344-2.713,2.913-2.051C33.966,17.711,34.37,18.12,34.081,18.626z M58.113,29.154
			c-0.871,0.349-1.292,1.029-1.371,1.95c-0.104,1.2-0.208,2.4-0.347,3.595c-0.054,0.46-0.665,0.73-1.094,0.526
			c-0.438-0.206-0.868-0.425-1.297-0.646c-1.601-0.82-3.316-1.465-3.975-3.438c-0.197-0.591-0.973-0.82-1.549-0.49
			c-2.02,1.155-3.395-0.334-4.899-1.164c-0.332-0.183-0.461-0.814-0.594-1.264c-0.271-0.919-0.447-1.867-0.728-2.783
			c-0.186-0.604-0.663-1.165-1.284-1.032c-0.516,0.112-1.043,0.587-1.366,1.042c-0.33,0.468-0.395,1.115-0.613,1.671
			c-0.147,0.373-0.967,0.366-1.229-0.013c-0.2-0.289-0.481-0.603-0.503-0.923c-0.066-0.96-0.024-1.929-0.024-2.894
			c0.046-0.009,0.093-0.016,0.139-0.026c-0.192-1.3-0.398-2.598-0.551-3.902c-0.014-0.121,0.29-0.35,0.482-0.406
			c0.215-0.062,0.482-0.03,0.706,0.038c2.189,0.664,4.378,1.329,6.556,2.03c0.562,0.182,1.237,0.362,1.592,0.774
			c1.083,1.26,2.56,1.71,3.991,2.36c2.739,1.243,5.4,2.66,8.074,4.044C58.822,28.512,58.759,28.894,58.113,29.154z M67.374,36.984
			c-0.246,0.667-0.447,1.362-0.573,2.062c-0.234,1.306-0.4,2.625-0.604,3.938c-0.018,0.113-0.1,0.295-0.17,0.304
			c-0.194,0.024-0.472,0.05-0.588-0.06c-1.223-1.172-2.453-2.337-3.608-3.575c-0.388-0.416-0.776-1.022-0.795-1.554
			c-0.092-2.656-0.36-5.281-0.894-7.881c-0.013-0.071,0.132-0.175,0.195-0.249c0.132,0,0.29-0.05,0.369,0.007
			c2.141,1.581,4.283,3.159,6.4,4.771c0.375,0.286,0.822,0.691,0.888,1.096C68.049,36.179,67.523,36.573,67.374,36.984z
			 M101.941,94.756c-0.166,0.158-0.406,0.272-0.634,0.326c-1.413,0.326-2.827,0.641-4.248,0.936
			c-1.239,0.257-2.312,0.208-3.267-0.929c-0.65-0.776-1.465-0.646-2.285-0.07c-0.689,0.483-1.35,1.009-2.053,1.472
			c-0.113,0.076-0.494-0.018-0.553-0.135c-0.503-0.977-0.928-1.982-0.564-3.116c0.293-0.921,0.674-1.82,0.9-2.759
			c0.168-0.691,0.189-1.427,0.203-2.144c0.012-0.56-0.604-1.103-1.217-1.101c-0.356,0-0.713,0.104-1.068,0.171
			c-0.537,0.097-1.032-0.071-1.205-0.557c-0.562-1.59-1.111-3.192-1.524-4.825c-0.133-0.525,0.082-1.197,0.292-1.74
			c1.436-3.726,2.93-7.428,4.359-11.154c0.25-0.655,0.375-1.393,0.391-2.096c0.021-0.906-1.059-1.432-1.848-1.022
			c-1.119,0.576-1.859,1.522-2.609,2.478c-0.133,0.169-0.501,0.381-0.572,0.327c-0.243-0.185-0.531-0.461-0.571-0.737
			c-0.144-0.957-0.188-1.928-0.319-3.452c0.104-0.532,0.354-1.588,0.504-2.658c0.167-1.188,0.307-2.389,0.33-3.586
			c0.016-0.768-0.526-1.316-1.162-1.735c-0.653-0.432-1.404-0.419-2.023,0.046c-0.896,0.675-1.535,1.52-1.885,2.601
			c-0.145,0.448-0.396,0.864-0.625,1.281c-0.044,0.082-0.205,0.127-0.318,0.137c-0.072,0.007-0.219-0.071-0.227-0.123
			c-0.07-0.595-0.15-1.193-0.168-1.791c-0.035-1.091,0.016-2.184-0.057-3.271c-0.04-0.586-0.133-1.241-0.43-1.729
			c-0.883-1.461-2.125-1.718-3.086-0.169c-0.611,0.984-0.721,0.939-1.426,0.141c-0.24-0.272-0.457-0.569-0.708-0.828
			c-1.343-1.385-1.831-2.927-1.637-4.934c0.265-2.763,0.083-5.569,0.106-8.354c0.002-0.232,0.11-0.464,0.169-0.696
			c0.317,0.122,0.679,0.187,0.942,0.38c0.387,0.284,0.693,0.674,1.055,0.996c1.086,0.967,2.172,1.933,3.275,2.878
			c0.459,0.392,0.91,0.889,1.452,1.071c2.218,0.746,3.468,2.519,4.829,4.228c2.961,3.718,5.396,7.75,7.371,12.06
			c3.381,7.377,6.416,14.891,8.854,22.635c0.583,1.843,1.143,3.701,1.576,5.583c0.436,1.888,0.693,3.812,1.963,5.394
			C102.283,94.26,102.092,94.611,101.941,94.756z M64.746,73.133c-0.055-0.107-0.133-0.202-0.196-0.305
			c-2.55-4-5.505-7.658-8.933-10.946c-1.395-1.337-2.757-2.732-3.959-4.24c-1.772-2.224-3.902-3.965-6.402-5.253
			c-8.193-4.219-16.86-6.564-26.123-6.542c-1.821,0.003-3.436,0.194-3.829,2.418c-0.038,0.216-0.222,0.442-0.399,0.591
			c-1.051,0.878-1.154,2.067-1.142,3.306c0.007,0.846,0.001,1.695,0.001,3.306c-0.145,2.166,0.407,5.025,0.901,7.887
			c0.183,1.062,0.601,2.102,0.657,3.164c0.065,1.189,0.647,1.746,1.674,2.043c1.973,0.57,3.926,1.228,5.924,1.69
			c2.641,0.609,5.038,1.732,7.24,3.249c1.992,1.369,3.938,2.818,5.798,4.36c3.193,2.646,5.938,5.651,7.815,9.44
			c1.021,2.06,2.152,4.049,2.847,6.258c0.726,2.303,1.315,4.683,2.342,6.85c1.099,2.316,2.753,4.244,5.686,4.401
			c3.034,0.164,6.034,0.18,9.002-0.673c2.666-0.764,5.43-1.203,8.063-2.05c3.554-1.143,3.559-1.024,2.815-4.845
			C72.836,88.559,68.676,80.898,64.746,73.133z M22.061,52.205c-0.513,2.234-0.923,4.479-0.858,6.79
			c0.02,0.684-0.345,1.062-0.754,0.953c-0.541-0.146-0.784-0.552-0.823-1.052c-0.189-2.401-0.352-4.805-0.525-7.207
			c-0.097-1.333,0.389-1.717,1.699-1.386c0.117,0.03,0.235,0.052,0.352,0.089C22.167,50.708,22.328,51.037,22.061,52.205z
			 M28.878,53.336c-1.049,2.456-1.545,5.056-2.044,7.658c-0.032,0.167-0.263,0.297-0.402,0.443c-0.107-0.206-0.303-0.41-0.308-0.619
			c-0.029-1.326-0.016-2.653-0.016-3.979c-0.046-0.001-0.091-0.001-0.137-0.004c0.076-1.442,0.139-2.888,0.238-4.329
			c0.034-0.484,0.545-0.748,1.092-0.595c0.347,0.097,0.681,0.238,1.025,0.358C28.847,52.451,29.119,52.774,28.878,53.336z
			 M66.107,97.406c-2.47,0.58-4.953,1.103-7.438,1.609c-0.706,0.144-1.089-0.211-1.236-0.918c-0.321-1.533-0.523-3.109-1.021-4.585
			c-0.647-1.926-0.574-3.796-0.162-5.724c0.199-0.938,0.392-1.9,0.388-2.851c-0.007-1.397-1.151-2.363-2.43-1.874
			c-0.832,0.32-1.378,0.201-1.802-0.564c-0.233-0.424-0.438-0.873-0.73-1.253c-0.817-1.058-0.854-2.212-0.58-3.45
			c0.235-1.059,0.46-2.123,0.596-3.196c0.058-0.457-0.051-0.975-0.23-1.404c-0.122-0.294-0.463-0.608-0.766-0.685
			c-0.292-0.074-0.808,0.038-0.965,0.256c-0.408,0.571-0.698,1.233-0.989,1.881c-0.449,0.998-0.875,1.159-1.569,0.52
			c-0.799-0.74-1.58-1.502-2.371-2.253c-0.545-0.519-0.94-1.073-0.788-1.907c0.062-0.334-0.082-0.713-0.157-1.064
			c-0.398-1.859-1.065-2.074-2.699-0.807c-0.428,0.332-0.778,0.51-1.258,0.186c-0.402-0.271-0.799-0.55-1.213-0.801
			c-0.564-0.345-0.886-0.838-0.844-1.49c0.092-1.446,0.225-2.892,0.349-4.336c0.113-1.323,0.308-2.646,0.314-3.971
			c0.002-0.551-0.268-1.21-0.633-1.629c-0.356-0.409-0.968-0.7-1.512-0.806c-0.575-0.112-1.167,0.677-1.293,1.507
			c-0.308,2.029-0.601,4.062-0.92,6.089c-0.086,0.548,0.064,1.407-0.787,1.353c-0.832-0.056-1.814-0.445-1.887-1.394
			c-0.142-1.804-0.042-3.626-0.042-5.441c0.028,0,0.055-0.001,0.082-0.002c-0.031-1.44-0.055-2.879-0.094-4.318
			c-0.019-0.695,0.459-1.058,1.188-0.841c3.953,1.184,7.788,2.662,11.327,4.809c0.921,0.558,1.772,1.265,2.552,2.011
			c1.314,1.251,2.518,2.622,3.823,3.884c1.145,1.106,2,2.312,2.579,3.854c0.539,1.434,1.617,2.676,2.511,3.964
			c1.863,2.683,3.777,5.329,5.643,8.009c1.396,2.006,2.325,4.226,2.999,6.574c0.562,1.967,1.11,3.933,2.576,5.537
			c0.611,0.668,0.841,1.717,1.146,2.627C68.488,96.668,68.381,96.873,66.107,97.406z M28.585,83.368
			c-1.753-0.431-3.559-0.917-5.336-0.905c-6.012,0.04-10.025,2.74-11.73,8.33c-0.838,2.742-0.88,5.525-0.409,8.256
			c0.453,2.629,1.451,5.211,3.648,6.926c3.09,2.414,6.46,3.996,10.61,4.025c5.006,0.033,9.573-3.521,11.05-7.894
			c0.677-2,0.771-4.021,0.788-6.077c0-0.484-0.018-0.967,0.001-1.451C37.41,89.433,33.474,84.566,28.585,83.368z M30.188,101.598
			c-0.637,1.123-1.666,1.401-2.678,0.59c-0.568-0.454-1.127-0.795-1.807-1.083c-1.524-0.647-1.672-1.155-1.36-2.817
			c0.13-0.699,0.283-1.428,0.214-2.121c-0.039-0.396-0.427-0.904-0.793-1.088c-0.473-0.236-0.855,0.193-1.112,0.619
			c-0.062,0.102-0.082,0.245-0.166,0.316c-0.142,0.12-0.32,0.197-0.483,0.294c-0.071-0.222-0.249-0.473-0.194-0.655
			c0.475-1.637,1.247-3.123,2.378-4.406c0.395-0.451,0.953-0.779,1.275-1.271c1.106-1.698,1.662-1.161,2.984-0.459
			c1.855,0.985,2.732,2.649,2.894,4.702c0.046,0.6,0.006,1.205,0.006,1.405C31.497,97.993,31.17,99.865,30.188,101.598z"/>
	</g>
</g>
</svg>
