<?xml version="1.0" encoding="utf-8"?>
<!-- Generator: Adobe Illustrator 16.0.0, SVG Export Plug-In . SVG Version: 6.00 Build 0)  -->
<!DOCTYPE svg PUBLIC "-//W3C//DTD SVG 1.1//EN" "http://www.w3.org/Graphics/SVG/1.1/DTD/svg11.dtd">
<svg version="1.1" id="Layer_1" xmlns="http://www.w3.org/2000/svg" xmlns:xlink="http://www.w3.org/1999/xlink" x="0px" y="0px"
	 width="120px" height="120px" viewBox="0 0 120 120" style="enable-background:new 0 0 120 120;" xml:space="preserve">
<g id="buffer">
	<g>
		<path style="fill-rule:evenodd;clip-rule:evenodd;" d="M11.543,35.778c1.839,1.161,3.636,2.395,5.532,3.458
			c5.29,2.968,10.587,5.931,15.952,8.764c3.132,1.655,6.344,3.187,9.616,4.541c4.344,1.799,8.649,3.638,12.608,6.209
			c0.86,0.559,1.802,1.011,2.75,1.406c1.05,0.436,2.153,0.75,3.292,1.14c0.391-0.107,0.836-0.216,1.27-0.355
			c1.306-0.425,2.578-1.004,3.912-1.26c2.049-0.393,3.957-1.097,5.827-1.979c1.139-0.537,2.285-1.082,3.479-1.463
			c2.428-0.774,4.595-2.018,6.754-3.331c2.441-1.484,4.969-2.833,7.469-4.22c1.602-0.887,3.227-1.731,4.834-2.608
			c3.617-1.972,7.248-3.918,10.832-5.945c1.288-0.729,2.533-1.575,3.672-2.52c1.439-1.197,1.299-3.046-0.256-4.044
			c-0.864-0.552-1.814-0.984-2.768-1.37c-4.041-1.641-7.916-3.616-11.671-5.815c-3.751-2.198-7.423-4.535-11.156-6.769
			C78.184,16.437,72.98,13.109,68.027,9.39c-1.736-1.304-3.604-2.432-5.423-3.624c-1.007-0.658-2.187-1.043-3.266-0.528
			c-2.473,1.177-5.166,1.822-7.48,3.397c-3.592,2.446-7.287,4.743-10.951,7.088c-0.77,0.493-1.569,0.943-2.379,1.369
			c-3.85,2.027-7.681,4.091-11.568,6.042c-3.9,1.957-7.612,4.218-11.202,6.679c-1.603,1.099-3.157,2.27-4.714,3.436
			c-0.69,0.515-0.686,1.522-0.04,2.101C11.177,35.502,11.351,35.655,11.543,35.778z M33.305,25.851
			c0.983-0.587,1.935-1.225,2.931-1.789c3.787-2.14,7.584-4.267,11.386-6.382c1.1-0.613,2.247-1.141,3.345-1.759
			c1.793-1.008,3.578-2.038,5.339-3.1c1.26-0.759,1.264-0.821,2.373-0.006c1.41,1.035,2.877,1.795,4.693,1.903
			c0.74,0.044,1.521,0.492,2.16,0.933c6.713,4.626,13.918,8.407,21.036,12.338c3.546,1.958,6.597,4.534,9.466,7.354
			c0.445,0.436,0.447,0.841-0.014,1.156c-0.75,0.516-1.531,0.992-2.307,1.47c-0.482,0.295-0.917,0.129-1.155-0.312
			c-0.396-0.728-0.87-1.318-1.657-1.661c-0.599-0.261-1.174-0.254-1.559,0.221c-0.335,0.411-0.504,0.974-0.67,1.495
			c-0.053,0.172,0.161,0.417,0.209,0.636c0.141,0.64,0.881,1.212,0.448,1.885c-0.286,0.441-0.854,0.727-1.339,1.009
			c-1.478,0.862-2.978,1.69-4.467,2.53l0.096-0.104c-0.031,0-0.064,0.004-0.097,0.005c0.001,0.027,0.001,0.055,0.001,0.082
			c-2.174,2.166-4.753,3.759-7.426,5.214c-0.101,0.055-0.475-0.138-0.515-0.275c-0.122-0.429-0.185-0.885-0.196-1.332
			c-0.038-1.49-0.029-2.979-0.069-4.469c-0.021-0.835-0.308-1.634-0.969-2.121c-0.406-0.299-1.048-0.415-1.573-0.385
			c-0.664,0.038-0.945,0.635-0.934,1.239c0.061,2.738-0.35,5.503,0.342,8.21c0.138,0.546-0.032,0.908-0.402,1.173
			c-0.479,0.339-1.033,0.517-1.582,0.099c-0.537-0.41-0.994-0.833-1.789-0.857c-1.416-0.045-1.451-0.149-1.489-1.149
			c-0.04-1.031-0.044-2.063-0.057-3.095c-0.015-1.054-0.218-2.075-0.866-2.912c-0.244-0.316-0.738-0.513-1.154-0.601
			c-0.465-0.099-1.093,0.508-1.164,1.06c-0.332,2.607-0.834,5.2-0.698,7.849c0.044,0.887-0.368,1.511-1.065,2.023
			c-0.568,0.417-1.068,0.323-1.271-0.389c-0.247-0.875-0.478-1.766-0.582-2.666c-0.251-2.16-0.438-4.327-0.625-6.493
			c-0.082-0.956-0.341-1.833-1.164-2.379c-0.333-0.222-0.891-0.366-1.238-0.242c-0.356,0.126-0.797,0.609-0.822,0.963
			c-0.146,2.17-0.178,4.349-0.264,6.523c-0.017,0.449-0.057,0.907-0.167,1.341c-0.036,0.146-0.378,0.367-0.485,0.323
			c-1.391-0.573-2.632-1.2-2.791-3.039c-0.186-2.158-0.622-4.296-0.996-6.435c-0.117-0.671-0.282-1.377-0.621-1.951
			c-0.266-0.448-0.793-0.796-1.279-1.039c-0.387-0.192-0.994,0.678-1.021,1.517c-0.065,2.062-0.088,4.125-0.146,6.187
			c-0.019,0.619-0.674,0.827-1.262,0.499c-0.883-0.493-1.316-1.256-1.452-2.207c-0.274-1.923-0.582-3.843-0.762-5.777
			c-0.106-1.161-0.259-2.268-0.941-3.248c-0.331-0.474-1.088-0.806-1.475-0.518c-0.339,0.252-0.766,0.652-0.793,1.017
			c-0.163,2.056-0.213,4.121-0.312,6.182c-0.004,0.104-0.096,0.204-0.149,0.305c-0.096-0.128-0.236-0.245-0.278-0.389
			c-0.061-0.216-0.052-0.453-0.073-0.682c-0.271-3.077-0.54-6.153-0.822-9.228c-0.042-0.452-0.113-0.914-0.261-1.338
			c-0.195-0.562-0.567-0.99-1.23-1.025c-0.502-0.026-0.973,0.446-1.05,1.138c-0.308,2.726-0.887,5.424-0.86,8.188
			c0.008,0.752-0.479,1.032-1.113,0.716c-0.613-0.305-1.22-0.629-1.818-0.968c-0.759-0.43-1.115-1.106-1.167-1.972
			c-0.171-2.742-0.343-5.484-0.542-8.224C32.007,27.083,32.438,26.368,33.305,25.851z M25.457,31.226
			c0.843-0.562,1.73-1.057,2.609-1.562c0.306-0.174,0.918,0.351,0.883,0.769c-0.056,0.671-0.148,1.339-0.238,2.123
			c0-0.001,0.017,0.114-0.002,0.223c-0.153,0.832,0.276,1.801-0.578,2.467c-1.088-0.313-2.13-0.741-2.925-1.575
			C24.664,33.105,24.81,31.657,25.457,31.226z M110.174,87.255c-0.797-0.812-1.734-1.489-2.625-2.206
			c-0.89-0.715-1.944-1.279-2.668-2.129c-1.22-1.433-2.814-2.329-4.283-3.412c-1.148-0.848-2.328-1.325-3.818-0.672
			c-1.134,0.5-2.449,0.59-3.58,1.096c-3.857,1.729-7.67,3.557-11.494,5.358c-0.518,0.245-1.007,0.546-1.507,0.829
			c-6.08,3.447-12.241,6.713-19.026,8.605c-0.324,0.09-0.66,0.227-0.93,0.426c-1.391,1.033-2.866,1.034-4.557,0.841
			c-1.827-0.21-3.289-0.933-4.66-1.978c-3.934-2.998-8.168-5.481-12.558-7.751c-3.762-1.944-7.49-3.982-11.085-6.218
			c-1.764-1.098-3.308-1.362-5.099-0.396c-0.705,0.38-1.415,0.75-2.134,1.105c-1.638,0.812-3.281,1.616-4.925,2.416
			c-1.134,0.55-2.318,1.014-3.397,1.655c-0.869,0.516-1.651,1.203-2.404,1.889c-0.479,0.438-0.343,1.441,0.22,1.839
			c0.931,0.656,1.866,1.321,2.864,1.866c4.921,2.689,9.859,5.34,14.64,8.292c6.145,3.796,12.71,6.827,19.23,9.927
			c2.481,1.179,4.898,2.486,7.377,3.669c1.753,0.835,3.557,1.565,5.348,2.315c0.418,0.176,0.883,0.243,1.379,0.377
			c0.283-0.073,0.621-0.134,0.941-0.244c1.404-0.488,2.858-0.873,4.193-1.509c5.683-2.716,11.387-5.396,16.973-8.304
			c5.791-3.016,11.56-6.069,17.535-8.709c1.899-0.839,3.709-1.826,5.283-3.176c1.075-0.92,2.222-1.511,3.632-1.796
			C110.896,90.886,111.514,88.615,110.174,87.255z M24.253,90.519c-0.059,0.446-0.479,0.397-0.787,0.262
			c-0.521-0.228-1.006-0.536-1.527-0.766c-1.122-0.494-1.167-1.802-1.002-3.005c0.027-0.199,0.199-0.471,0.375-0.546
			c0.933-0.4,1.835-0.962,2.921-0.791c0.169,0.145,0.485,0.298,0.475,0.425C24.59,87.574,24.446,89.05,24.253,90.519z M32.227,92.18
			c-0.092,0.896-0.163,1.793-0.299,2.683c-0.019,0.133-0.406,0.36-0.496,0.312c-1.09-0.588-2.193-1.165-3.201-1.875
			c-0.289-0.201-0.36-0.811-0.402-1.246c-0.178-1.809-0.316-3.622-0.446-5.436c-0.015-0.2,0.078-0.555,0.193-0.588
			c0.276-0.082,0.648-0.113,0.885,0.016c0.391,0.213,0.666,0.645,1.061,0.849C31.702,88.017,32.748,89.678,32.227,92.18z
			 M38.853,93.475v2.041h-0.096c0,0.793,0.044,1.588-0.025,2.374c-0.023,0.257-0.314,0.646-0.538,0.689
			c-0.27,0.054-0.697-0.117-0.881-0.337c-0.272-0.323-0.523-0.768-0.55-1.177c-0.086-1.354-0.099-2.717-0.076-4.075
			c0.006-0.492-0.23-1.256,0.582-1.323c0.789-0.063,1.527,0.718,1.583,1.47C38.859,93.248,38.853,93.362,38.853,93.475z
			 M44.226,100.012c-0.044,0.917-0.37,1.455-0.743,1.3c-0.596-0.249-0.858-0.79-0.902-1.337c-0.127-1.58-0.184-3.169-0.197-4.755
			c-0.002-0.192,0.483-0.576,0.685-0.54c0.401,0.072,1.042,0.322,1.09,0.588c0.18,0.992,0.161,2.021,0.215,3.036
			c-0.048,0.003-0.096,0.003-0.144,0.003C44.23,98.875,44.253,99.445,44.226,100.012z M50.379,103.477
			c-0.029,0.248-0.343,0.615-0.565,0.646c-0.268,0.037-0.634-0.168-0.85-0.379c-0.226-0.221-0.416-0.559-0.458-0.869
			c-0.215-1.553-0.402-3.113-0.534-4.675c-0.019-0.25,0.245-0.65,0.481-0.759c0.255-0.117,0.659-0.048,0.948,0.067
			c0.546,0.22,0.952,0.665,0.994,1.255c0.065,0.895,0.019,1.796,0.019,2.695h-0.008C50.407,102.133,50.459,102.812,50.379,103.477z
			 M56.292,107.395c-0.071,0.078-0.416-0.08-0.63-0.15c-0.954-0.312-1.481-0.957-1.619-1.965c-0.171-1.229-0.41-2.447-0.599-3.674
			c-0.103-0.654-0.418-1.482,0.287-1.848c0.359-0.186,1.088,0.15,1.559,0.416c0.337,0.189,0.699,0.625,0.749,0.991
			c0.234,1.789,0.368,3.591,0.562,5.656C56.585,106.855,56.495,107.176,56.292,107.395z M96.686,92.146
			c-2.637,1.859-5.539,3.204-8.482,4.469c-0.41,0.176-1.019-0.156-1.068-0.568c-0.093-0.795-0.082-1.611-0.254-2.388
			c-0.119-0.531-0.41-1.057-0.742-1.493c-0.166-0.215-0.628-0.348-0.908-0.289c-0.283,0.061-0.68,0.374-0.725,0.629
			c-0.275,1.588-0.268,3.17,0.191,4.752c0.098,0.341-0.129,1.008-0.417,1.188c-1.343,0.844-2.76,1.58-4.165,2.319
			c-0.1,0.051-0.465-0.155-0.503-0.295c-0.146-0.543-0.161-1.122-0.319-1.659c-0.162-0.538-0.402-1.061-0.672-1.556
			c-0.25-0.46-1.225-0.431-1.467,0.045c-0.203,0.395-0.41,0.824-0.454,1.253c-0.095,0.909-0.091,1.83-0.11,2.745
			c-0.047,1.908-0.886,2.296-2.801,2.892c-0.188,0.059-0.686-0.287-0.748-0.523c-0.258-0.985-0.419-1.999-0.584-3.006
			c-0.137-0.813-0.377-1.547-1.082-2.064c-0.336-0.247-1.037-0.105-1.15,0.303c-0.117,0.43-0.242,0.873-0.258,1.315
			c-0.052,1.603-0.07,3.206-0.079,4.81c-0.005,0.75-0.253,1.332-0.946,1.684c-0.305,0.154-0.612,0.307-0.91,0.478
			c-1.441,0.822-2.246,0.849-2.426-1.224c-0.051-0.545-0.354-1.072-0.574-1.597c-0.18-0.433-0.908-0.809-1.062-0.573
			c-0.182,0.273-0.394,0.6-0.396,0.901c-0.002,1.145,0.048,2.29,0.134,3.432c0.086,1.131-0.592,1.647-1.487,2.036
			c-0.906,0.396-1.942-0.2-1.969-1.176c-0.031-1.143-0.008-2.287-0.008-2.705c-0.293-5.921-0.979-4.544,3.408-6.908
			c1.611-0.867,3.256-1.666,4.863-2.537c2.533-1.373,5.23-2.285,8.029-2.902c2.471-0.545,4.833-1.367,7.118-2.443
			c2.793-1.311,5.606-2.583,8.411-3.873c0.449-0.205,0.813-0.25,1.094,0.309c0.459,0.916,0.971,1.805,1.488,2.689
			c0.221,0.375,0.854,0.234,1.066-0.221c0.594-1.252,1.042-2.537,1.018-3.953c-0.005-0.328,0.125-0.66,0.193-0.988
			c0.102,0.382,0.225,0.76,0.289,1.147c0.059,0.336,0.027,0.688,0.078,1.026c0.064,0.452,0.059,0.961,0.273,1.335
			C98.373,90.358,97.893,91.295,96.686,92.146z M101.248,88.361c-0.052,0.012-0.198-0.148-0.2-0.23c0-0.077,0.15-0.23,0.207-0.219
			c0.192,0.043,0.372,0.145,0.561,0.224C101.625,88.216,101.443,88.316,101.248,88.361z M100.803,55.086
			c-1.738-1.343-3.555-1.444-5.5-0.734c-1.289,0.471-2.545,1.03-3.818,1.545c-4.879,1.974-9.761,3.938-14.244,6.76
			c-1.543,0.97-3.241,1.698-4.902,2.464c-1.555,0.719-3.216,1.222-4.714,2.033c-2.616,1.418-5.149,2.986-7.698,4.522
			c-0.667,0.401-1.27,0.462-1.896-0.003c-3.264-2.423-7.047-3.771-10.773-5.242c-3.09-1.22-6.143-2.522-8.94-4.349
			c-2.78-1.817-5.555-3.642-8.354-5.429c-0.962-0.614-1.958-1.192-3-1.656c-0.847-0.376-1.76-0.376-2.655,0.062
			c-0.922,0.453-1.883,0.825-2.831,1.221c-0.918,0.385-1.687,1.121-2.864,0.821c-1.366-0.346-1.22,1.493-2.26,1.762
			c-0.546,0.14-1.044,0.464-1.561,0.71c-0.828,0.391-1.669,0.756-2.479,1.186c-1.866,0.993-2.229,2.097-1.224,3.912
			c0.32,0.577,0.787,1.136,1.316,1.522c2.406,1.76,4.871,3.44,7.67,4.533c3.002,1.171,5.73,2.861,8.507,4.458
			c3.373,1.94,6.687,3.982,10.294,5.49c1.155,0.482,2.253,1.124,3.327,1.779c1.385,0.848,2.852,1.527,4.436,1.774
			c1.515,0.237,2.845,0.835,4.167,1.518c1.12,0.58,2.258,1.133,3.325,1.799c1.226,0.762,2.527,1.034,3.925,0.906
			c1.316,0.131,2.534-0.186,3.641-0.83c1.582-0.921,3.159-1.857,4.659-2.902c1.89-1.316,3.869-2.426,5.982-3.341
			c2.73-1.181,5.406-2.479,8.107-3.726c1.764-0.814,3.523-1.646,5.3-2.438c2.401-1.068,4.82-2.102,7.227-3.16
			c2.198-0.968,4.366-2.013,6.593-2.907c3.115-1.251,5.894-3.036,8.498-5.108c1.441-1.146,1.421-2.589-0.054-3.685
			C105.623,58.58,103.154,56.906,100.803,55.086z M17.112,64.68c-0.178,0.1-0.378,0.164-0.571,0.239
			c-0.187-0.106-0.41-0.176-0.55-0.324c-0.188-0.203-0.582-0.439-0.136-0.75c0.161-0.111,0.467-0.216,0.588-0.139
			c0.255,0.163,0.444,0.44,0.638,0.688C17.133,64.462,17.148,64.66,17.112,64.68z M25.25,67.083c0.015,0.226,0.094,0.446,0.117,0.67
			c0.053,0.554-0.263,0.755-1.226,0.431c-1.806-0.258-2.958-1.609-3.314-3.742c-0.113-0.666-0.372-1.312-0.45-1.979
			c-0.036-0.285,0.132-0.759,0.354-0.883c1.481-0.822,3.002-1.575,4.526-2.316c0.008-0.004,0.416,0.523,0.359,0.721
			C24.942,62.328,25.111,64.704,25.25,67.083z M30.421,70.426c-0.086,0.168-0.22,0.438-0.333,0.438
			c-0.201-0.003-0.488-0.12-0.586-0.282c-1.021-1.667-1.475-3.52-1.716-5.436c-0.127-1.008-0.205-2.023-0.372-3.023
			c-0.19-1.14-0.038-1.9,0.312-1.74c0.588,0.271,1.22,0.598,1.619,1.078c0.32,0.383,0.413,1.027,0.448,1.565
			c0.096,1.466,0.062,2.94,0.167,4.406c0.065,0.894,0.289,1.777,0.469,2.83C30.43,70.205,30.467,70.337,30.421,70.426z
			 M36.627,74.156c-0.05,0.098-0.469,0.147-0.533,0.066c-0.281-0.336-0.605-0.703-0.703-1.108c-0.542-2.216-1.04-4.442-1.504-6.675
			c-0.096-0.459-0.659-1.221,0.289-1.329c0.454-0.052,0.99,0.426,1.452,0.72c0.171,0.109,0.31,0.368,0.339,0.577
			c0.326,2.26,0.625,4.522,0.938,6.827C36.824,73.531,36.778,73.871,36.627,74.156z M43.45,77.207
			c-1.146-0.277-2.071-0.721-2.31-2.093c-0.333-1.893-0.814-3.759-1.23-5.638c-0.069-0.313-0.255-0.71,0.172-0.85
			c0.289-0.095,0.678-0.054,0.964,0.064c0.627,0.257,1.241,0.563,1.812,0.928c0.264,0.168,0.546,0.494,0.594,0.785
			c0.333,2.006,0.606,4.021,0.862,5.781C44.327,76.926,43.889,77.314,43.45,77.207z M49.902,79.26
			c-0.287,0.041-0.707-0.112-0.899-0.334c-0.36-0.414-0.682-0.905-0.869-1.419c-0.46-1.278-0.849-2.582-1.238-3.884
			c-0.213-0.717-0.85-1.439-0.107-2.183c0.107-0.106,0.456-0.079,0.628,0.012c0.956,0.497,2.352,0.501,2.475,1.983
			c0.075,0.9,0.015,1.814,0.015,2.998c0.098,0.516,0.291,1.287,0.375,2.069C50.306,78.754,50.07,79.235,49.902,79.26z
			 M55.828,77.307c-0.211,0.508-0.387,1.054-0.441,1.598c-0.088,0.896-0.063,1.806-0.104,2.707
			c-0.002,0.094-0.155,0.269-0.197,0.256c-0.201-0.058-0.511-0.121-0.563-0.264c-0.389-1.057-0.768-2.119-1.067-3.205
			c-0.331-1.201-0.573-2.428-0.877-3.746c0.268-0.175,0.603-0.524,0.737-0.461c0.812,0.396,1.601,0.851,2.343,1.363
			c0.337,0.232,0.655,0.609,0.77,0.984C56.482,76.712,55.951,77.007,55.828,77.307z M60.615,81.953
			c-0.528,0.338-1.271,0.254-1.461-0.266c-0.497-1.364-1.193-2.687-1.03-4.214c-0.019,0.005-0.038,0.009-0.056,0.013
			c-0.008-0.04-0.013-0.083-0.019-0.125l-0.293-0.246c0.082,0.021,0.205,0.014,0.238,0.066c0.033,0.049,0.045,0.113,0.055,0.18
			c0.025,0.021,0.051,0.043,0.077,0.064c-0.002,0.017,0,0.032-0.002,0.048c0.645-0.145,1.291-0.295,1.94-0.429
			c1.069-0.223,1.314-0.082,1.4,0.839c0.072,0.797,0.114,1.599,0.15,2.398C61.648,81.051,61.234,81.557,60.615,81.953z
			 M65.52,78.104c0.016,0.093-0.074,0.203-0.113,0.307c-0.137-0.086-0.357-0.144-0.396-0.26c-0.45-1.379-0.888-2.763-1.287-4.158
			c-0.044-0.152,0.115-0.468,0.264-0.549c0.388-0.207,0.816-0.39,1.243-0.435c0.113-0.013,0.287,0.504,0.465,0.84
			C65.044,75.236,65.274,76.669,65.52,78.104z M70.199,77.304c-0.361,0.229-0.773,0.452-1.184,0.492
			c-0.164,0.016-0.505-0.438-0.545-0.706c-0.203-1.453-0.255-2.92-0.887-4.3c-0.399-0.875,0.619-1.948,1.661-1.848
			c0.151,0.134,0.412,0.251,0.436,0.406c0.274,1.781,0.521,3.567,0.745,5.358C70.45,76.9,70.346,77.21,70.199,77.304z M84.82,70.23
			c-1.178,0.682-2.279,1.586-3.685,1.74c-1.657,0.182-3.005,1.018-4.386,1.824c-0.982,0.574-1.979,1.124-2.987,1.65
			c-0.381,0.198-0.992-0.127-1.095-0.554c-0.182-0.776-0.322-1.563-0.502-2.341c-0.201-0.869-0.76-1.824-0.559-2.579
			c0.278-1.034,1.615-1.106,2.511-1.558c0.734-0.371,1.059-0.177,1.136,0.58c0.059,0.566,0.053,1.143,0.128,1.707
			c0.042,0.332,0.167,0.66,0.286,0.977c0.191,0.502,0.936,0.954,1.377,0.735c0.373-0.185,0.712-0.535,0.936-0.895
			c0.161-0.261,0.115-0.655,0.186-1.178c-0.191-0.724-0.443-1.599-0.65-2.482c-0.217-0.917,0.703-1.942,1.789-1.982
			c0.182-0.007,0.469,0.145,0.542,0.302c0.192,0.403,0.23,0.887,0.448,1.271c0.213,0.377,0.525,0.749,0.889,0.97
			c0.232,0.144,0.688,0.11,0.947-0.029c0.256-0.137,0.545-0.509,0.539-0.772c-0.012-0.553-0.227-1.099-0.316-1.655
			c-0.073-0.446-0.161-0.913-0.094-1.348c0.043-0.279,0.311-0.586,0.562-0.755c0.391-0.264,0.68,0.092,0.777,0.385
			c0.252,0.754,0.482,1.529,0.593,2.314c0.132,0.926,0.37,1.784,0.925,2.545C85.477,69.596,85.203,70.008,84.82,70.23z
			 M91.041,66.738c-0.779,0.462-1.598,0.858-2.402,1.271c-2.069,1.056-2.057,1.052-2.404-1.343c-0.113-0.783-0.33-1.551-0.479-2.329
			c-0.344-1.771-0.254-1.939,1.489-2.9c0.299-0.165,0.592-0.337,0.894-0.498c2.101-1.131,2.949-1.372,2.932,1.694
			c-0.005,0.887,0.303,1.776,0.468,2.664c0.042,0.221,0.084,0.442,0.136,0.719C91.479,66.243,91.312,66.578,91.041,66.738z
			 M98.43,62.521c-1.264,0.777-2.548,1.521-3.83,2.262c-0.357,0.207-1.021-0.061-1.088-0.477c-0.26-1.682-0.502-3.368-0.672-5.061
			c-0.025-0.234,0.339-0.646,0.611-0.749c1.054-0.405,2.145-0.72,2.762-0.918c1.383-0.012,2.064,0.355,2.462,1.134
			c0.255,0.505,0.429,1.057,0.604,1.599C99.682,61.528,99.583,61.812,98.43,62.521z M82.59,38.25
			c-0.326-0.469-0.877-0.712-1.492-0.489c-0.604,0.219-0.938,0.721-0.855,1.31c0.154,1.112,0.361,2.23,0.699,3.298
			c0.154,0.49,0.59,1.03,1.044,1.246c0.425,0.203,1.009,0.073,1.539,0.059c-0.022-1.209,0.026-2.429-0.118-3.626
			C83.33,39.42,82.96,38.787,82.59,38.25z"/>
	</g>
</g>
</svg>
