<?xml version="1.0" encoding="utf-8"?>
<!-- Generator: Adobe Illustrator 16.0.0, SVG Export Plug-In . SVG Version: 6.00 Build 0)  -->
<!DOCTYPE svg PUBLIC "-//W3C//DTD SVG 1.1//EN" "http://www.w3.org/Graphics/SVG/1.1/DTD/svg11.dtd">
<svg version="1.1" id="Layer_1" xmlns="http://www.w3.org/2000/svg" xmlns:xlink="http://www.w3.org/1999/xlink" x="0px" y="0px"
	 width="120px" height="120px" viewBox="0 0 120 120" style="enable-background:new 0 0 120 120;" xml:space="preserve">
<g id="feedly">
	<g>
		<path style="fill-rule:evenodd;clip-rule:evenodd;" d="M51.062,69.791c0.787-0.936,1.589-1.856,2.384-2.785
			c2.172-2.527,4.257-5.139,6.533-7.57c3.417-3.65,7.005-7.141,10.449-10.768c2.602-2.737,5.111-5.563,7.622-8.384
			c1.403-1.577,2.687-3.261,4.096-4.829c4.009-4.465,8.051-8.896,12.085-13.336c1.68-1.848,1.708-4.402-0.043-6.269
			c-0.984-1.05-2.053-2.039-3.172-2.946c-2.498-2.025-5.223-3.788-7.13-6.471c-0.31-0.437-0.804-0.765-1.261-1.069
			c-0.991-0.661-2.008-0.873-3.109-0.16C77.93,6.23,76.387,7.242,75.15,8.751c-3.746,4.567-7.937,8.714-12.568,12.381
			c-3.498,2.768-6.77,5.763-9.833,8.995C48.304,34.814,43.401,39,38.507,43.198c-3.793,3.255-7.55,6.554-11.324,9.834
			c-0.335,0.291-0.619,0.694-1.005,0.865c-1.367,0.602-2.441,1.453-3.093,2.848c-0.154,0.331-0.681,0.534-1.076,0.697
			c-1.936,0.79-2.768,3.292-1.109,5.286c0.425,0.509,0.873,1.042,1.419,1.401c1.612,1.064,2.709,2.604,3.915,4.047
			c0.571,0.682,1.089,1.41,1.694,2.059c0.924,0.991,2.012,1.56,3.412,1.869c3.379,0.748,6.791,0.965,9.504,1.143
			c1.049,0,1.383-0.012,1.716,0.002c1.68,0.068,3.364,0.205,4.563-1.378c0.168-0.223,0.59-0.378,0.882-0.358
			C49.418,71.604,50.257,70.747,51.062,69.791z M50.01,62.303c0.068-0.657,0.22-1.309,0.288-1.968
			c0.079-0.771,0.151-1.55,0.132-2.324c-0.012-0.424-0.122-0.917-0.368-1.243c-0.231-0.309-0.682-0.548-1.072-0.611
			c-0.242-0.039-0.67,0.245-0.798,0.495c-0.349,0.687-0.668,1.414-0.851,2.161c-0.657,2.69-1.454,5.358-1.468,8.169
			c-0.002,0.444-0.191,0.907-0.778,0.838c-0.571-0.067-1.216-0.338-1.23-0.922c-0.027-1.096,0.104-2.208,0.286-3.295
			c0.238-1.418,0.624-2.812,0.882-4.23c0.171-0.943-0.423-1.771-1.333-2.018c-0.701-0.19-1.44,0.038-1.754,0.593
			c-0.993,1.752-1.661,3.622-2.068,5.597c-0.245,1.184-0.572,2.351-0.903,3.514c-0.034,0.118-0.385,0.244-0.544,0.201
			c-0.163-0.042-0.408-0.311-0.386-0.442c0.462-2.729,0.958-5.451,1.442-8.178c0.077-0.431,0.217-0.874,0.175-1.296
			c-0.06-0.578-0.419-1.089-1.001-1.186c-0.382-0.062-0.873,0.093-1.212,0.311c-0.601,0.385-0.686,1.36-1.559,1.475
			c0.004,0.031,0.009,0.062,0.012,0.093c-0.029,0.027-0.063,0.052-0.096,0.079c-0.004,0.157-0.007,0.315-0.043,0.465
			c-0.035,0.152-0.144,0.288-0.221,0.43c-0.027-0.188-0.123-0.402-0.063-0.554c0.054-0.135,0.196-0.236,0.328-0.341
			c0.001-0.052,0.002-0.104,0.005-0.156c0.029-0.002,0.051-0.012,0.078-0.016c-0.024-0.189-0.059-0.38-0.052-0.57
			c0.12-3.057-0.463-2.321,2.053-4.94c2.63-2.735,5.612-5.038,8.712-7.213c3.363-2.359,6.689-4.775,9.965-7.253
			c1.682-1.269,3.244-2.699,4.814-4.107c3.722-3.337,7.447-6.674,11.101-10.083c0.958-0.896,1.675-2.054,2.472-3.113
			c0.105-0.139,0.123-0.509,0.021-0.603c-0.215-0.201-0.527-0.39-0.81-0.404c-0.313-0.016-0.633,0.234-0.954,0.247
			c-0.3,0.013-0.606-0.133-0.91-0.208c0.092-0.184,0.146-0.403,0.282-0.546c0.613-0.645,1.263-1.254,1.872-1.902
			c1.371-1.456,2.803-2.865,4.068-4.409c1.445-1.764,1.504-1.771,3.047,0.115c1.818,2.224,3.95,4.196,6,6.22
			c0.965,0.953,1.051,0.927,0.324,1.736c-2.075,2.315-4.193,4.595-6.261,6.917c-2.438,2.738-4.937,5.43-7.239,8.278
			c-3.5,4.332-7.299,8.376-11.275,12.261c-0.272,0.266-0.689,0.384-1.041,0.571c-0.098-0.42-0.24-0.836-0.282-1.261
			c-0.065-0.659,0.002-1.335-0.108-1.982c-0.102-0.6-0.578-0.993-1.18-0.962c-0.394,0.02-0.895,0.211-1.132,0.501
			c-0.334,0.412-0.625,0.979-0.656,1.495c-0.072,1.21,0.021,2.432,0.049,3.647c1.148,1.623,0.008,2.667-0.951,3.754
			c-0.07,0.078-0.268,0.166-0.279,0.15c-0.124-0.158-0.296-0.328-0.309-0.506c-0.051-0.664,0.063-1.357-0.09-1.991
			c-0.205-0.845-0.492-1.71-0.945-2.445c-0.443-0.72-1.277-0.815-2.093-0.626c-0.72,0.166-1.289,0.671-1.322,1.337
			c-0.136,2.645-0.626,5.321,0.313,7.92c0.339,0.935,0.209,1.707-0.467,2.451c-0.67,0.735-1.253,1.55-1.903,2.306
			c-0.112,0.131-0.361,0.143-0.547,0.211C50.117,62.722,49.989,62.506,50.01,62.303z M99.751,58.928
			c-1.235-2.205-2.126-4.602-4.144-6.36c-2.258-1.97-4.287-4.203-6.415-6.321c-0.315-0.313-0.605-0.657-0.946-0.939
			c-1.871-1.54-3.488-1.507-5.371,0.087c-0.086,0.072-0.165,0.15-0.241,0.231c-2.062,2.169-4.397,4.093-5.883,6.771
			c-0.37,0.669-0.895,1.274-1.429,1.829c-3.777,3.921-7.152,8.217-11.191,11.892c-0.656,0.596-1.268,1.26-1.803,1.966
			c-1.958,2.583-4.324,4.778-6.596,7.065c-1.647,1.656-3.296,3.312-4.94,4.971c-0.468,0.473-0.963,0.93-1.382,1.445
			c-1.505,1.865-1.639,3.395-0.357,5.459c0.875,1.412,1.872,2.752,2.857,4.093c0.562,0.765,1.379,1.083,2.331,1.071
			c1.223-0.014,2.445-0.002,2.986-0.002c3.896-0.327,7.104-0.57,10.308-0.878c0.988-0.097,1.992-0.276,2.93-0.591
			c0.591-0.198,1.3-0.604,1.563-1.117c0.842-1.639,2.271-2.707,3.481-3.994c2.819-2.994,5.586-6.04,8.423-9.02
			c2.987-3.137,5.877-6.36,9.288-9.09c2.159-1.729,4.01-3.846,5.977-5.809C99.979,60.908,100.271,59.856,99.751,58.928z
			 M93.115,60.025c-1.385,1.113-2.832,2.147-4.242,3.233c-1.582,1.219-3.191,2.412-4.712,3.706c-0.889,0.757-1.7,1.296-2.971,1.04
			c-0.787-0.158-1.316,0.358-1.251,1.176c0.117,1.48-0.539,2.508-1.456,3.562c-1.531,1.758-2.932,3.629-4.405,5.438
			c-0.121,0.149-0.379,0.188-0.571,0.278c-0.085-0.201-0.234-0.399-0.247-0.605c-0.072-1.218-0.047-2.448-0.186-3.658
			c-0.096-0.839-0.692-1.36-1.541-1.542c-0.703-0.149-1.434,0.227-1.576,0.867c-0.386,1.736-0.722,3.477-0.666,5.272
			c0.035,1.11,0.024,2.227-0.051,3.333c-0.016,0.228-0.395,0.58-0.64,0.613c-0.655,0.088-1.33,0.063-1.995,0.029
			c-1.022-0.051-1.303-0.41-1.25-1.512c0.171-1.543,0.373-3.084,0.503-4.631c0.063-0.76-0.464-1.2-1.088-1.528
			c-0.537-0.284-1.067-0.272-1.573,0.056c-1.078,0.698-1.774,1.631-1.945,2.954c-0.197,1.538-0.476,3.066-0.731,4.596
			c-0.016,0.091-0.191,0.243-0.215,0.229c-0.162-0.09-0.402-0.196-0.431-0.338c-0.114-0.539-0.085-1.113-0.242-1.637
			c-0.248-0.842-0.6-1.653-0.909-2.477c0.668-0.739,1.333-1.479,2.004-2.216c1.873-2.051,3.727-4.119,5.628-6.144
			c1.371-1.457,2.827-2.836,4.21-4.282c1.917-2.009,3.807-4.048,5.698-6.081c0.681-0.731,1.357-1.468,1.998-2.235
			c0.922-1.105,1.776-2.268,2.72-3.353c1.163-1.338,2.367-2.642,3.6-3.917c0.323-0.333,0.827-0.341,1.197,0.026
			c2.523,2.506,5.059,5.002,7.545,7.545C94.178,58.697,94.109,59.228,93.115,60.025z M93.35,95.017
			c-1.913-1.851-3.93-3.585-5.424-5.847c-0.52-0.788-1.442-1.353-2.271-1.883c-0.901-0.575-1.979-0.377-2.719,0.41
			c-0.451,0.48-0.736,1.123-1.206,1.58c-3.892,3.791-7.559,7.826-12.237,10.732c-1.596,0.991-3.046,2.219-4.524,3.388
			c-1.157,0.913-1.219,1.989-0.254,3.168c0.771,0.944,1.512,1.918,2.343,2.808c1.139,1.214,2.253,2.483,3.551,3.508
			c2.238,1.766,4.711,2.828,7.721,2.153c2.154-0.484,4.371-0.699,6.561-1.036c1.424-0.217,2.853-0.405,4.27-0.657
			c1.37-0.243,2.457-0.836,3.064-2.241c0.434-1.001,1.1-1.92,1.768-2.794c1.01-1.321,2.145-2.547,3.158-3.864
			c0.454-0.592,0.744-1.309,0.937-1.659c0.019-1.312-0.25-2.116-0.7-2.923C96.338,97.983,94.868,96.485,93.35,95.017z
			 M88.116,107.408c-0.167-0.111-0.479-0.229-0.476-0.332c0.026-0.539,0.1-1.082,0.228-1.607c0.065-0.268,0.181-0.699,0.628-0.429
			c0.266,0.161,0.568,0.386,0.678,0.653C89.416,106.287,88.809,107.201,88.116,107.408z M90.562,101.534
			c-0.611,0.256-1.223,0.543-1.768,0.915c-0.596,0.406-0.992,0.252-1.402-0.24c-0.207-0.25-0.438-0.512-0.717-0.666
			c-0.688-0.381-1.652-0.057-2.024,0.602c-0.505,0.897-0.685,1.864-0.688,2.879c-0.003,0.998,0.023,1.996-0.053,2.99
			c-0.016,0.219-0.398,0.552-0.631,0.568c-0.189,0.013-0.419-0.361-0.602-0.587c-0.056-0.068-0.019-0.214-0.035-0.54
			c0.109-0.443,0.372-1.081,0.399-1.729c0.05-1.202,0.036-2.421-0.103-3.616c-0.058-0.5-0.434-1.119-1.07-1.092
			c-0.379,0.018-0.825,0.316-1.096,0.617c-1.392,1.549-1.798,3.512-2.17,5.473c-0.102,0.538-0.04,1.107-0.074,1.661
			c-0.042,0.692-0.535,1.341-0.846,1.138c-0.527-0.346-0.145-0.738-0.072-1.14c0.347-1.948,0.662-3.904,0.982-5.858
			c0.017-0.104,0.012-0.239-0.041-0.323c-0.172-0.269-0.32-0.634-0.574-0.746c-0.231-0.102-0.705-0.027-0.866,0.152
			c-0.585,0.655-1.071,1.396-1.619,2.083c-0.181,0.228-0.378,0.592-0.768,0.247c-0.405-0.356-0.686-1.21-0.476-1.45
			c0.146-0.166,0.273-0.359,0.449-0.485c3.164-2.271,6.104-4.785,8.5-7.886c0.135-0.173,0.314-0.311,0.472-0.469
			c0.39-0.396,0.843-0.43,1.11-0.024c1.608,2.438,3.984,4.153,5.904,6.298C91.346,101.043,91.18,101.275,90.562,101.534z
			 M59.602,40.489c0.063,0.006,0.136-0.085,0.204-0.136c-0.055-0.062-0.107-0.168-0.167-0.173c-0.064-0.006-0.136,0.084-0.204,0.134
			C59.491,40.376,59.541,40.483,59.602,40.489z"/>
	</g>
</g>
</svg>
