<?xml version="1.0" encoding="utf-8"?>
<!-- Generator: Adobe Illustrator 16.0.0, SVG Export Plug-In . SVG Version: 6.00 Build 0)  -->
<!DOCTYPE svg PUBLIC "-//W3C//DTD SVG 1.1//EN" "http://www.w3.org/Graphics/SVG/1.1/DTD/svg11.dtd">
<svg version="1.1" id="Layer_1" xmlns="http://www.w3.org/2000/svg" xmlns:xlink="http://www.w3.org/1999/xlink" x="0px" y="0px"
	 width="120px" height="120px" viewBox="0 0 120 120" style="enable-background:new 0 0 120 120;" xml:space="preserve">
<g id="pocket">
	<g>
		<path style="fill-rule:evenodd;clip-rule:evenodd;" d="M109.423,38.72c-0.11-2.973-0.614-5.878-1.128-8.786
			c-0.297-1.693-0.683-3.382-1.191-5.02c-0.283-0.915-0.85-1.759-1.387-2.57c-0.386-0.576-1.463-0.558-2.008-0.083
			c-0.977,0.858-1.508,1.955-1.601,3.227c-0.081,1.105-0.106,2.223-0.05,3.329c0.167,3.2,0.465,6.396,0.562,9.594
			c0.102,3.331,0.014,6.664,0.048,9.997c0.054,5.681-0.516,11.304-1.231,16.937c-0.656,5.144-2.41,9.792-5.415,13.968
			c-1.797,2.5-3.819,4.832-5.632,7.324c-1.656,2.274-3.893,3.695-6.326,4.968c-4.631,2.421-9.624,3.763-14.581,5.24
			c-1.567,0.469-3.14,0.815-4.725,0.726c-5.045-0.283-10.124,0.084-15.132-0.845c-5.022-0.933-9.727-2.678-14.053-5.394
			c-0.608-0.385-1.291-0.845-1.622-1.445c-0.567-1.037-1.392-1.688-2.364-2.26c-0.572-0.338-0.791-0.894-0.734-1.57
			c0.068-0.855,0.207-1.725-0.302-2.518c-0.622-0.971-1.622-0.939-2.606-1.078c-1.256-0.176-1.772-1.236-2.207-2.259
			c-0.105-0.253,0.037-0.782,0.25-0.976c1.101-0.984,2.349-1.815,3.378-2.865c1.065-1.085,1.73-2.376,0.952-4.004
			c-1.254-2.628-3.799-3.242-6.078-1.394c-0.669,0.542-1.268,1.176-1.966,1.673c-0.16,0.117-0.633-0.086-0.883-0.256
			c-0.106-0.077-0.106-0.532,0.013-0.668c0.399-0.449,0.815-0.923,1.324-1.227c1.219-0.732,2.009-1.82,2.651-3.018
			c0.863-1.611-0.106-3.653-1.917-4.05c-0.689-0.15-1.424-0.102-2.142-0.136c0.003,0.03,0.001,0.057,0.007,0.088
			c-0.063,0.004-0.127,0.01-0.19,0.014c-0.194,0.177-0.384,0.363-0.608,0.482c-0.088,0.045-0.311-0.162-0.471-0.252
			c0.092-0.062,0.182-0.164,0.284-0.176c0.264-0.033,0.53-0.041,0.796-0.055c0.038-0.035,0.076-0.07,0.114-0.104
			c0.023,0.001,0.046,0.001,0.069,0.002c-0.077-0.681,0.468-1.021,0.863-1.418c1.13-1.138,2.355-2.189,3.423-3.383
			c1.363-1.52,1.205-4.027-0.221-5.365c-1.187-1.114-3.378-1.312-4.811-0.376c-0.615,0.403-1.117,0.978-1.732,1.379
			c-0.225,0.146-0.764,0.146-0.921-0.017c-0.214-0.222-0.336-0.705-0.246-1.002c0.129-0.432,0.39-0.943,0.752-1.173
			c2.11-1.344,3.667-3.297,5.518-4.912c1.412-1.232,1.297-3.527,0.527-4.351c-1.018-1.088-2.721-1.05-4.354,0.18
			c-0.392,0.295-0.728,0.667-1.097,0.993c-0.273,0.243-0.536,0.509-0.851,0.683c-0.122,0.065-0.514-0.063-0.539-0.165
			c-0.451-1.854-0.588-3.632,1.083-5.065c1.874-1.603,3.66-3.311,5.552-4.892c0.783-0.658,1.385-1.382,1.774-2.311
			c0.583-1.398,0.115-2.786-1.176-3.471c-1.268-0.671-2.551-0.875-3.869-0.135c-0.644,0.358-1.286,0.728-1.951,1.048
			c-0.306,0.148-0.664,0.239-1.008,0.279c-0.295,0.036-0.354-0.741-0.126-1.329c0.894-2.304,2.693-3.408,5.024-3.806
			c0.602-0.101,1.252-0.052,1.813-0.259c2.239-0.838,4.585-0.91,6.914-0.959c7.527-0.16,15.056-0.302,22.586-0.327
			c6.664-0.02,13.331,0.067,19.995,0.221c2.702,0.061,5.397,0.428,8.099,0.648c2.455,0.201,4.91,0.417,7.367,0.579
			c1.97,0.129,3.942,0.201,5.918,0.262c0.484,0.016,0.988-0.049,1.455-0.18c1.557-0.437,2.086-2.338,1.027-3.527
			c-1.025-1.153-2.354-1.757-3.784-2.201c-5.076-1.574-10.247-2.687-15.558-2.998c-1.745-0.102-3.424-0.254-4.979-1.159
			c-1.183-0.685-2.522-0.911-3.86-1.189c-2.074-0.433-4.15-0.547-6.244-0.626c-1.359-0.052-2.715-0.12-4.066-0.248
			c-5.27-0.495-10.536-1.052-15.844-1.079c-2.721-0.011-5.41,0.275-8.115,0.48c-1.615,0.122-3.191,0.34-4.698,0.903
			c-2.43,0.905-4.912,1.587-7.446,2.13c-2.471,0.527-4.592,1.764-6.353,3.578c-0.861,0.886-1.635,1.854-2.502,2.728
			c-1.975,1.993-3.162,4.423-3.743,7.105c-1.054,4.854-1.293,9.745-0.176,14.648c0.189,0.829,0.198,1.711,0.209,2.57
			c0.018,1.853,0.025,3.705-0.038,5.553c-0.219,6.336,0.7,12.528,2.261,18.648c1.504,5.892,3.597,11.524,7.238,16.481
			c0.802,1.092,1.583,2.22,2.207,3.418c2.504,4.793,6.401,8.094,11.171,10.407c2.768,1.345,5.633,2.491,8.475,3.671
			c5.968,2.482,12.204,3.82,18.639,4.304c7.745,0.586,14.961-1.231,21.668-4.976c5.405-3.02,10.309-6.77,14.644-11.217
			c1.824-1.869,3.362-3.979,4.248-6.441c0.842-2.338,2.053-4.473,3.154-6.678c0.881-1.762,1.841-3.526,2.388-5.402
			c1.895-6.539,2.63-13.266,2.95-20.049C110.191,48.555,109.601,43.646,109.423,38.72z M33.943,55.565
			c3.02,3.074,5.918,6.266,8.817,9.452c3.658,4.018,7.445,7.881,11.952,10.969c0.917,0.626,1.84,1.154,2.944,1.475
			c3.271,0.953,6.355,0.552,9.274-1.081c2.799-1.563,5.457-3.333,7.852-5.497c2.923-2.643,5.959-5.162,8.906-7.777
			c1.01-0.895,1.933-1.891,2.845-2.89c1.247-1.364,2.394-2.821,3.673-4.152c2.086-2.169,2.939-4.77,2.986-8.914
			c0.068-2.029-1.392-4.498-3.851-6.417c-1.937-1.511-4.122-2.104-6.583-1.45c-2.086,0.554-3.774,1.752-5.387,3.105
			c-4.433,3.721-8.969,7.327-13.02,11.484c-0.26,0.266-0.525,0.522-0.803,0.766c-0.871,0.755-1.452,0.774-2.258,0.036
			c-1.451-1.331-2.73-2.919-4.356-3.973c-2.923-1.896-5.509-4.13-7.946-6.585c-1.668-1.68-3.637-2.939-5.81-3.872
			c-2.315-0.995-4.653-1.419-7.171-0.666c-3.299,0.984-5.189,3.983-4.509,7.357c0.34,1.682,0.951,3.324,0.854,5.081
			C32.274,53.469,32.911,54.516,33.943,55.565z M51.748,63.75c0.678-1.842,1.223-3.729,1.856-5.587
			c0.188-0.547,0.685-0.585,1.169-0.156c0.862,0.764,1.516,1.43,0.793,2.802c-0.545,1.043-0.577,2.369-0.777,3.576
			c-0.171,1.023,0.136,1.948,0.73,2.789c0.416,0.585,1.524,0.585,1.912-0.053c0.311-0.518,0.593-1.076,0.773-1.652
			c0.22-0.701,0.265-1.455,0.5-2.148c0.151-0.462,0.543-0.926,1.108-0.684c1.875,0.809,3.333,0.222,4.599-1.213
			c0.322-0.365,0.646-0.818,1.069-0.994c3.159-1.318,5.353-3.88,7.887-6.006c3.302-2.768,6.612-5.524,9.945-8.25
			c0.862-0.705,1.931-0.281,2.302,0.82c0.079,0.232,0.162,0.469,0.191,0.71c0.047,0.365,0.052,0.736,0.07,1.104
			c-0.021,1.802-0.631,3.315-1.852,4.691c-2.131,2.396-4.32,4.709-6.771,6.781c-2.26,1.908-4.365,3.993-6.654,5.86
			c-1.997,1.628-4.098,3.144-6.256,4.556c-1.892,1.239-3.822,1.255-5.88-0.004c-2.113-1.291-4.178-2.604-5.984-4.293
			C51.726,65.695,51.338,64.867,51.748,63.75z M49.151,54.572c0.105-0.101,0.408-0.024,0.61,0.016
			c0.095,0.022,0.168,0.151,0.398,0.374c-0.274,0.419-0.542,0.881-0.862,1.307c-0.212,0.276-0.388,0.209-0.487-0.113
			C48.629,55.557,48.703,55.005,49.151,54.572z M46.138,59.462c0.097-0.245,0.469-0.482,0.755-0.541
			c0.658-0.138,1.067,0.218,0.883,0.716c-0.113,0.299-0.405,0.532-0.554,0.718C46.618,60.37,45.994,59.829,46.138,59.462z
			 M43.48,48.724c0.032-0.181,0.254-0.33,0.385-0.492c0.165,0.169,0.351,0.322,0.484,0.514c0.203,0.291,0.37,0.61,0.644,1.07
			c-0.378,0.889-0.788,1.861-1.216,2.822c-0.023,0.05-0.244,0.079-0.316,0.032c-0.187-0.115-0.501-0.302-0.486-0.428
			C43.107,51.063,43.28,49.893,43.48,48.724z M38.35,49.555c0.223-0.793,0.514-1.973,0.892-3.119
			c0.302-0.912,1.214-1.144,2.045-0.534c0.333,0.245,0.856,0.518,0.396,1.121c-0.883,1.16-1.732,2.342-2.608,3.509
			c-0.133,0.175-0.324,0.309-0.486,0.462c-0.081-0.228-0.171-0.451-0.234-0.678C38.325,50.201,38.35,50.073,38.35,49.555z"/>
	</g>
</g>
</svg>
