<?xml version="1.0" encoding="utf-8"?>
<!-- Generator: Adobe Illustrator 16.0.0, SVG Export Plug-In . SVG Version: 6.00 Build 0)  -->
<!DOCTYPE svg PUBLIC "-//W3C//DTD SVG 1.1//EN" "http://www.w3.org/Graphics/SVG/1.1/DTD/svg11.dtd">
<svg version="1.1" id="Layer_1" xmlns="http://www.w3.org/2000/svg" xmlns:xlink="http://www.w3.org/1999/xlink" x="0px" y="0px"
	 width="120px" height="120px" viewBox="0 0 120 120" style="enable-background:new 0 0 120 120;" xml:space="preserve">
<g id="instapaper">
	<g>
		<path style="fill-rule:evenodd;clip-rule:evenodd;" d="M75.625,20.603c0.527-0.48,1.281-0.766,1.98-0.99
			c1.42-0.455,2.877-0.791,4.311-1.205c2.293-0.658,3.148-1.762,3.223-4.115c0.02-0.643-0.01-1.285,0.006-1.926
			c0.033-1.352-0.662-2.223-1.842-2.734c-0.586-0.254-1.201-0.516-1.824-0.594c-2.113-0.266-4.234-0.605-6.355-0.633
			c-3.625-0.049-7.27-0.305-10.877,0.344c-4.698-0.15-9.409,0.363-14.094-0.338c-0.523-0.078-1.066-0.029-1.602,0.006
			c-2.129,0.141-4.256,0.301-6.385,0.449c-0.855,0.061-1.713,0.068-2.562,0.17c-0.867,0.104-1.598,0.488-2.244,1.119
			c-1.305,1.277-1.926,2.754-1.785,4.6c0.105,1.363,0.098,1.48,1.354,1.713c1.67,0.309,3.316,0.715,5.049,0.711
			c1.043-0.002,2.08,0.434,3.135,0.611c2.719,0.453,4.008,2.623,5.506,4.543c0.123,0.154,0.227,0.416,0.186,0.596
			c-0.453,2.031,0.162,4.033,0.156,6.057c-0.02,5.885,0.117,11.768,0.174,17.652c0.029,2.996,0.09,5.992,0.01,8.986
			c-0.148,5.555-0.525,11.107-0.553,16.664c-0.033,6.086-0.412,12.189,0.359,18.266c0.133,1.047,0.172,2.113-0.271,3.158
			c-1.068,2.518-2.434,4.744-5.082,5.891c-1.369,0.594-2.717,1.242-4.086,1.836c-1.373,0.594-2.744,1.195-4.146,1.711
			c-2.471,0.912-2.555,1.387-2.461,3.795c0.014,0.322,0.006,0.645,0.045,0.963c0.186,1.545,1.215,2.436,2.832,2.441
			c0.428,0.002,0.857-0.084,1.281-0.072c2.441,0.057,4.883-0.199,7.328,0.355c1.426,0.324,2.934,0.229,4.441-0.049
			c1.342-0.25,2.766-0.109,4.148-0.041c1.598,0.078,3.186,0.322,4.781,0.398c3.305,0.154,6.633-0.209,9.911,0.518
			c0.307,0.068,0.641,0.012,0.961,0.021c2.242,0.074,4.488,0.178,6.732,0.205c0.729,0.01,1.467-0.148,2.186-0.293
			c0.621-0.123,1.227-0.32,1.826-0.512c0.711-0.229,1.428-0.438,2.102-0.744c0.623-0.281,1.023-0.84,0.988-1.527
			c-0.082-1.592,0.354-3.193-0.104-4.775c-1.037-0.537-2.078-1.062-3.105-1.617c-0.375-0.199-0.697-0.506-1.078-0.689
			c-0.574-0.277-1.16-0.58-1.773-0.717c-3.363-0.742-5.643-2.865-7.418-5.676c-0.59-0.934-0.863-1.904-0.852-3.02
			c0.045-3.531,0.018-7.062,0.018-11.961c-0.113-3.541,0.35-8.469-0.461-13.357c-0.068-0.42-0.051-0.854-0.053-1.281
			c-0.033-11.127-0.051-22.256-0.107-33.383c-0.012-1.979,0.479-3.797,1.316-5.557C71.975,24.21,73.723,22.333,75.625,20.603z
			 M49.521,16.394c-0.111-0.182-0.385-0.424-0.391-0.674c-0.018-0.797,0.797-1.246,1.562-0.91c0.094,0.041,0.219,0.107,0.246,0.189
			C51.138,15.579,50.265,16.517,49.521,16.394z M74.559,104.657c0.318-0.104,0.82,0.363,0.783,0.801
			c-0.189,0.072-0.469,0.287-0.648,0.223c-0.213-0.078-0.383-0.379-0.479-0.621C74.182,104.979,74.406,104.706,74.559,104.657z
			 M66.416,25.157c-0.49,4.264-0.461,8.529-0.656,12.795c-0.691,15.07-0.34,30.148-0.412,45.223
			c-0.008,1.598-0.08,3.193,0.346,4.779c0.215,0.805,0.1,1.699,0.115,2.555c0.047,2.564,0.07,5.133,0.137,7.697
			c0.018,0.635,0.098,1.283,0.268,1.893c0.383,1.361,1.236,2.016,2.621,1.6c1.223-0.365,1.812,0.266,2.48,0.93
			c0.178,0.176,0.275,0.639,0.172,0.848c-0.285,0.568-0.727,1.053-1.057,1.604c-0.307,0.52-0.742,0.734-1.316,0.717
			c-0.75-0.023-1.498-0.035-2.244-0.094c-0.984-0.078-1.162-0.434-0.809-1.51c0.133-0.402,0.334-0.795,0.381-1.209
			c0.062-0.553-0.146-1.072-0.645-1.369c-0.484-0.287-1.033-0.334-1.494,0.051c-0.656,0.547-1.252,1.166-1.92,1.693
			c-0.279,0.221-0.647,0.326-0.987,0.467c-0.012,0.039-0.022,0.078-0.034,0.117c-0.049,0.021-0.101,0.036-0.151,0.056
			c-0.057,0.095-0.112,0.188-0.169,0.284c0.012-0.074-0.004-0.178,0.041-0.215c0.036-0.031,0.081-0.052,0.128-0.069
			c0.025-0.044,0.052-0.087,0.077-0.13c0.035-0.016,0.072-0.028,0.108-0.043c0.141-0.463,0.29-0.922,0.407-1.391
			c0.078-0.305,0.203-0.654,0.123-0.93c-0.113-0.381-0.334-0.779-0.623-1.049c-0.34-0.314-0.848-0.281-1.165,0.047
			c-0.809,0.842-1.592,1.713-2.322,2.625c-0.328,0.408-0.48,0.951-0.756,1.408c-0.307,0.506-1.016,0.725-1.707,0.465
			c-0.203-0.078-0.465-0.557-0.395-0.711c0.264-0.574,0.633-1.107,1.01-1.625c0.373-0.518,0.854-0.967,1.195-1.504
			c0.451-0.703,1.049-1.398,0.672-2.35c-0.303-0.762-0.896-1.119-1.66-1.355c-0.645-0.199-0.643-0.848-0.48-1.346
			c0.639-1.949,1.648-3.697,2.953-5.287c0.605-0.738,1.156-1.529,1.68-2.334c0.309-0.479,0.282-1.012-0.092-1.484
			c-0.406-0.514-1.092-0.654-1.723-0.291c-0.365,0.211-0.662,0.537-1.014,0.779c-0.41,0.279-0.756,0.033-0.816-0.508
			c-0.166-1.447,0.131-2.68,1.162-3.828c1.061-1.188,1.922-2.564,2.803-3.902c1.152-1.748,0.797-2.73-1.239-3.662
			c-0.646-0.297-0.703-0.561-0.314-1.215c0.598-1.008,1.182-2.021,1.762-3.041c0.438-0.766,0.225-1.434-0.344-2.039
			c-0.483-0.516-1.045-0.711-1.725-0.434c-0.199,0.08-0.395,0.166-0.594,0.24c-0.389,0.146-0.666-0.117-0.711-0.395
			c-0.191-1.189-0.078-2.344,0.619-3.385c0.711-1.066,1.428-2.131,2.109-3.217c0.567-0.902,1.178-1.797,1.598-2.77
			c0.234-0.543,0.215-1.248,0.131-1.857c-0.107-0.771-1.148-1.188-1.766-0.754c-0.52,0.365-0.98,0.816-1.475,1.219
			c-0.078,0.064-0.266,0.129-0.289,0.1c-0.123-0.15-0.27-0.322-0.301-0.504c-0.211-1.23,0.186-2.307,0.84-3.332
			c1.148-1.803,2.268-3.623,3.395-5.439c0.225-0.363,0.451-0.729,0.633-1.113c0.338-0.713,0.062-1.568-0.592-1.951
			c-0.533-0.312-1.209-0.225-1.75,0.312c-0.452,0.449-0.823,0.979-1.262,1.443c-0.098,0.104-0.316,0.117-0.48,0.119
			c-0.049,0-0.135-0.164-0.148-0.262c-0.191-1.309,0.039-2.533,0.635-3.725c0.957-1.91,1.874-3.844,2.743-5.795
			c0.25-0.561,0.354-1.223,0.375-1.842c0.02-0.568-0.369-1.066-0.916-1.168c-0.34-0.062-0.803,0.166-1.112,0.398
			c-0.328,0.244-0.529,0.652-0.805,0.975c-0.057,0.066-0.229,0.127-0.277,0.092c-0.154-0.107-0.398-0.275-0.387-0.395
			c0.242-2.221,0.271-4.498,1.612-6.443c0.846-1.227,0.797-2.635,0.801-4.023c0.002-0.594-0.398-0.889-0.965-1.098
			c-1.104-0.404-1.271-0.697-0.885-1.482c0.613-1.244,1.301-2.451,1.944-3.682c0.672-1.287,0.23-2.246-1.305-2.502
			c-0.705-0.117-1.105-0.363-1.521-0.926c-0.439-0.596-1.186-0.592-1.688-0.129c-0.707,0.652-1.342,1.381-2.061,2.016
			c-0.182,0.158-0.637,0.215-0.828,0.096c-0.232-0.143-0.445-0.521-0.447-0.801c-0.01-1.543,0.83-2.385,2.326-2.391
			c3.42-0.008,6.842,0,10.262-0.014c1.383-0.006,2.775,0.121,4.127-0.377c0.381-0.143,0.887-0.203,1.26-0.076
			c1.555,0.539,3.178,0.322,4.756,0.539c0.24,0.031,0.451,0.266,0.674,0.408c-0.18,0.104-0.35,0.225-0.539,0.311
			c-1.545,0.721-3.119,1.383-4.633,2.168c-0.639,0.332-1.334-0.107-2.002,0.564C66.35,21.587,66.926,20.737,66.416,25.157z"/>
	</g>
</g>
</svg>
