<?xml version="1.0" encoding="utf-8"?>
<!-- Generator: Adobe Illustrator 16.0.0, SVG Export Plug-In . SVG Version: 6.00 Build 0)  -->
<!DOCTYPE svg PUBLIC "-//W3C//DTD SVG 1.1//EN" "http://www.w3.org/Graphics/SVG/1.1/DTD/svg11.dtd">
<svg version="1.1" id="Layer_1" xmlns="http://www.w3.org/2000/svg" xmlns:xlink="http://www.w3.org/1999/xlink" x="0px" y="0px"
	 width="120px" height="120px" viewBox="0 0 120 120" style="enable-background:new 0 0 120 120;" xml:space="preserve">
<g id="flipboard">
	<g>
		<path style="fill-rule:evenodd;clip-rule:evenodd;" d="M108.148,20.194c-0.107-2.11-0.278-4.22-0.477-6.326
			c-0.203-2.149-1.747-3.652-3.918-3.807c-1.172-0.084-2.354-0.061-3.531-0.052c-7.539,0.047-15.079,0.073-22.617,0.17
			c-7.647,0.099-15.29-0.168-22.943,0.34c-4.674,0.31-9.394,0.211-14.107-0.236c-3.972-0.375-8.005-0.054-12.009-0.174
			c-5.222-0.157-10.3,0.62-15.31,2.011c-0.871,0.243-1.517,0.742-1.729,1.591c-0.284,1.131-0.597,2.299-0.595,3.45
			c0.007,2.583,0.23,5.167,0.311,7.75c0.071,2.355,0.088,4.712,0.094,7.068c0.046,19.084,0.08,38.169,0.137,57.253
			c0.008,2.355-0.088,4.743,0.268,7.056c0.345,2.23,0.432,4.441,0.448,6.677c0.009,1.297,0,2.592-0.003,3.886
			c-0.001,2.566,0.877,3.36,3.378,3.104c0.934-0.098,1.876-0.139,2.814-0.145c2.945-0.018,5.89-0.006,8.836-0.006
			c0.004,0.055,0.008,0.113,0.012,0.172c5.286-0.293,10.571-0.568,15.855-0.899c0.8-0.05,1.682-0.2,2.35-0.603
			c0.925-0.555,1.81-0.884,2.898-1.066c2.209-0.37,3.449-2.266,3.192-4.371c-0.614-5.02-0.929-10.062-1.209-15.107
			c-0.118-2.114-0.15-4.235-0.254-6.352c-0.03-0.592,0.254-0.923,0.76-0.939c1.763-0.057,3.529-0.059,5.295-0.062
			c2.354-0.005,4.688-0.037,7.027-0.463c2.419-0.441,4.869-0.862,7.358-0.695c2.133,0.146,4.198-0.246,6.252-0.759
			c1.674-0.419,2.465-1.234,2.647-2.85c0.054-0.465,0.074-0.94,0.066-1.409c-0.115-7.765-0.104-15.533-1.413-23.225
			c-0.206-1.215,0.198-1.577,1.579-1.626c5.876-0.207,11.755-0.426,17.631-0.645c0.472-0.02,0.956-0.011,1.406-0.125
			c1.729-0.441,3.491-0.437,5.258-0.519c3.154-0.144,5.043-2.26,5.153-5.495C109.318,35.218,108.534,27.714,108.148,20.194z
			 M102.574,40.814c-0.004,1.209-0.483,1.611-1.763,1.712c-0.353,0.028-0.708,0.03-1.061,0.021
			c-0.692-0.017-1.068-0.376-1.127-1.071c-0.02-0.234-0.028-0.482-0.105-0.699c-0.29-0.813-0.779-1.164-1.553-1.177
			c-0.766-0.015-1.4,0.258-1.772,0.929c-0.34,0.615-0.519,1.329-0.903,1.91c-0.224,0.337-0.69,0.66-1.084,0.712
			c-0.81,0.107-1.644,0.043-2.467,0.017c-0.481-0.015-0.828-0.479-0.726-0.975c0.098-0.458,0.326-0.896,0.382-1.357
			c0.122-1.002-0.672-2.112-1.66-2.422c-0.582-0.183-1.448,0.092-1.868,0.708c-0.793,1.164-1.505,2.385-2.293,3.556
			c-0.689,1.026-2.232,1.445-3.447,0.95c-0.146-0.058-0.323-0.434-0.264-0.548c0.707-1.351,1.464-2.678,2.188-4.02
			c0.445-0.824,0.938-1.632,1.269-2.503c0.413-1.09-0.622-2.183-1.768-1.882c-0.546,0.142-1.142,0.396-1.527,0.785
			c-0.655,0.663-1.239,1.424-1.718,2.224c-1.084,1.82-2.099,3.68-3.112,5.541c-0.408,0.744-0.842,1.259-1.79,1.48
			c-1.769,0.411-2.105,0.938-2.218,2.654c-0.054,0.822-0.035,1.65-0.013,2.473c0.145,5.412,0.032,10.834,0.637,16.229
			c0.092,0.817,0.05,1.647,0.056,2.474c0.048,5.568,0.661,3.848-4.465,4.938c-2.506,0.533-5.146,0.424-7.721,0.649
			c-1.11,0.1-1.453-0.052-1.498-1.238c-0.028-0.76-0.238-1.369-0.674-1.934c-0.647-0.84-1.873-0.771-2.344,0.144
			c-0.27,0.521-0.447,1.089-0.695,1.62c-0.708,1.529-2.232,2.021-3.768,1.168c-0.189-0.104-0.314-0.65-0.216-0.887
			c0.407-0.977,0.925-1.903,1.372-2.863c0.248-0.533,0.553-1.077,0.628-1.643c0.113-0.865-0.265-1.601-1.015-2.1
			c-0.548-0.361-1.088-0.26-1.668-0.018c-1.014,0.424-1.836,1.076-2.41,1.994c-0.561,0.896-1.109,1.812-1.531,2.775
			c-0.703,1.608-1.172,3.303-2.064,4.852c-0.644,1.114-0.745,2.455-0.767,3.771c-0.056,3.534-0.162,7.067-0.224,9.557
			c0.1,4.579,0.188,8.113,0.246,11.647c0.025,1.449-0.209,1.718-1.526,1.759c-2.587,0.075-5.172,0.095-7.731,0.583
			c-0.802,0.152-1.641,0.111-2.464,0.127c-0.569,0.013-0.782-0.299-0.689-0.877c0.151-0.922,0.349-1.844,0.393-2.771
			c0.042-0.852-0.758-1.477-1.635-1.481c-0.87-0.005-1.611,0.284-2.26,0.845c-1.167,1.01-2.104,2.201-2.904,3.527
			c-0.834,1.388-1.564,1.629-3.245,1.229c-0.126-0.029-0.27-0.333-0.263-0.503c0.008-0.222,0.127-0.456,0.25-0.647
			c1.588-2.479,3.22-4.926,4.761-7.43c0.608-0.991,1.088-2.079,1.493-3.176c0.315-0.854-0.498-2.01-1.429-2.057
			c-0.681-0.035-1.463-0.014-2.039,0.29c-0.921,0.484-1.704,1.226-2.55,1.853c-0.369,0.275-0.85,0.828-1.111,0.744
			c-0.651-0.218-0.451-0.955-0.413-1.484c0.032-0.443,0.133-1.011,0.426-1.286c2.607-2.454,4.261-5.612,6.342-8.451
			c0.416-0.567,0.851-1.127,1.236-1.716c0.719-1.1,0.615-2.343-0.234-3.233c-0.903-0.948-1.911-1.131-3.189-0.361
			c-0.892,0.538-1.702,1.239-2.459,1.96c-0.59,0.561-1.037,1.269-1.56,1.901c-0.066,0.079-0.282,0.159-0.31,0.129
			c-0.146-0.155-0.366-0.353-0.357-0.527c0.039-0.809,0.124-1.617,0.238-2.419c0.03-0.218,0.212-0.416,0.329-0.62
			c2.571-4.491,5.148-8.981,7.715-13.479c0.468-0.817,0.922-1.643,1.332-2.488c0.325-0.667,0.284-1.362,0.003-2.054
			c-0.622-1.527-2.231-2.018-3.421-0.893c-1.188,1.127-2.263,2.389-3.29,3.669c-0.658,0.821-1.11,1.803-1.706,2.678
			c-0.495,0.729-0.615,1.779-1.674,2.05c-0.117-0.798-0.27-1.594-0.351-2.396c-0.204-2.043,0.271-3.917,1.151-5.792
			c1.696-3.618,3.203-7.328,4.777-11.006c0.229-0.536,0.46-1.084,0.59-1.652c0.24-1.041-0.153-1.884-1.033-2.396
			c-1.082-0.633-2.157-0.613-2.885,0.277c-0.887,1.086-1.606,2.312-2.415,3.463c-0.116,0.166-0.331,0.262-0.501,0.392
			c-0.084-0.321-0.247-0.647-0.232-0.966c0.019-0.338,0.193-0.671,0.32-1c1.188-3.069,2.409-6.127,3.558-9.212
			c0.449-1.203,0.91-2.441,1.061-3.702c0.232-1.936-1.486-3.093-3.251-2.325c-0.323,0.14-0.638,0.31-0.925,0.512
			c-0.564,0.394-1.106,0.822-1.667,1.22c-0.008,0.004-0.227-0.198-0.206-0.252c0.228-0.637,0.444-1.279,0.738-1.886
			c0.975-2.009,2-3.994,2.955-6.014c0.189-0.402,0.202-0.91,0.211-1.373c0.013-0.664-0.599-1.417-1.226-1.563
			c-0.341-0.077-0.696-0.099-1.046-0.133c-0.57-0.056-1.42,0.112-1.649-0.196c-0.458-0.604-0.661-1.452-0.803-2.23
			c-0.084-0.462,0.273-0.91,0.819-0.963c0.817-0.082,1.642-0.144,2.463-0.136c4.829,0.049,9.658,0.123,14.488,0.187
			c1.646,0.021,3.282,0.067,4.89-0.503c0.748-0.265,1.605-0.314,2.414-0.316c18.851-0.03,37.703-0.043,56.554-0.056
			c0.705,0,1.413,0,2.119,0.032c0.619,0.03,1.032,0.479,1.052,1.148c0.021,0.708-0.011,1.415-0.005,2.121
			c0.034,3.059,0.155,6.109,0.381,9.165C102.753,32.79,102.587,36.81,102.574,40.814z"/>
	</g>
</g>
</svg>
