<?xml version="1.0" encoding="utf-8"?>
<!-- Generator: Adobe Illustrator 16.0.0, SVG Export Plug-In . SVG Version: 6.00 Build 0)  -->
<!DOCTYPE svg PUBLIC "-//W3C//DTD SVG 1.1//EN" "http://www.w3.org/Graphics/SVG/1.1/DTD/svg11.dtd">
<svg version="1.1" id="Layer_1" xmlns="http://www.w3.org/2000/svg" xmlns:xlink="http://www.w3.org/1999/xlink" x="0px" y="0px"
	 width="120px" height="120px" viewBox="0 0 120 120" style="enable-background:new 0 0 120 120;" xml:space="preserve">
<g id="bookmark">
	<g>
		<path style="fill-rule:evenodd;clip-rule:evenodd;" d="M93.804,88.914c-0.416-6.506-0.863-13.012-1.242-19.52
			c-0.295-5.018-0.512-10.04-0.748-15.059c-0.188-3.952-0.352-7.904-0.527-11.855c-0.293-6.516-0.592-13.032-0.875-19.55
			c-0.059-1.39,0.008-2.787-0.102-4.171c-0.082-1.058-0.279-2.118-0.551-3.144c-0.221-0.841-1.594-1.853-2.562-1.437
			c-0.898,0.387-1.609,0.301-2.396-0.218c-0.836-0.55-1.824-0.506-2.793-0.534c-1.711-0.05-3.42-0.154-5.127-0.273
			c-1.486-0.104-2.971-0.367-4.459-0.373c-5.67-0.025-11.344,0.039-17.016,0.044c-2.781,0.003-5.553-0.032-8.295-0.677
			c-1.969-0.465-3.979-0.866-5.992-1.04c-2.762-0.238-5.549-0.378-8.318-0.291c-2.227,0.069-3.465,1.31-3.781,3.253
			c-0.055,0.316-0.062,0.64-0.123,0.954c-0.084,0.451-0.312,0.764-0.814,0.837c-1.832,0.268-2.477,1.468-2.473,3.174
			c0.002,0.643-0.021,1.284-0.021,1.926c0,3.425,0.27,6.832,0.508,10.247c0.375,5.331,0.408,10.685,0.664,16.025
			c0.074,1.527-0.463,2.97-0.441,4.442c0.021,1.58,0.57,3.113,0.564,4.74c-0.027,7.813,0.061,15.625,0.062,23.438
			c0,2.889-0.064,5.781-0.207,8.666c-0.148,2.986-0.432,5.967-0.654,8.949c0.033,0.004,0.068,0.008,0.104,0.01
			c0,1.498-0.014,2.998,0.004,4.496c0.012,0.961-0.031,1.939,0.123,2.881c0.336,2.031,2.621,2.896,4.162,1.531
			c0.865-0.766,1.494-1.789,2.256-2.678c0.338-0.395,0.678-0.943,1.117-1.066c1.541-0.436,2.545-1.564,3.594-2.604
			c2.287-2.266,4.605-4.469,7.559-5.879c0.379-0.182,0.703-0.484,1.043-0.744c2.047-1.551,4.098-3.092,6.127-4.662
			c1.777-1.375,3.523-2.789,5.287-4.18c0.543-0.428,0.912-0.42,1.391,0.021c0.314,0.289,0.617,0.596,0.908,0.908
			c2.861,3.066,6.053,5.732,9.602,7.975c2.746,1.736,4.992,4.018,6.982,6.562c2.117,2.711,4.541,5.121,7.15,7.35
			c0.488,0.416,1.006,0.797,1.533,1.16c1.039,0.717,2.207,0.764,3.393,0.539c1.164-0.223,2.105-1.283,2.166-2.469
			c0.027-0.525-0.068-1.061-0.145-1.586c-0.135-0.969-0.148-1.068,0.693-1.088c1.105-0.027,1.822-0.533,2.312-1.441
			c0.672-1.242,1.078-2.551,0.979-3.992C94.204,95.314,94.009,92.113,93.804,88.914z M34.788,25.515
			c-0.242-2.943-0.49-5.887-0.697-8.833c-0.037-0.535,0.488-0.835,1.152-0.716c0.174,0.031,0.469,0.244,0.451,0.316
			c-0.113,0.512-0.363,0.998-0.436,1.513c-0.18,1.268,0.512,2.012,1.797,2.005c0.316-0.002,0.631-0.054,1.271-0.111
			c0.203,0.009,0.729,0.025,1.254,0.062c0.094,0.007,0.264,0.095,0.262,0.14c-0.006,0.163-0.018,0.393-0.123,0.475
			c-1.777,1.404-2.885,3.359-4.246,5.104c-0.117,0.151-0.357,0.209-0.549,0.292C34.915,25.765,34.794,25.604,34.788,25.515z
			 M88.854,102.396c-0.121,0.098-0.398,0.105-0.559,0.039c-1.416-0.598-2.545-1.574-3.453-2.793
			c-2.637-3.529-5.656-6.682-8.967-9.588c-2.49-2.188-4.832-4.537-6.912-7.139c-1.336-1.67-2.818-3.219-4.229-4.826
			c-1.281-1.459-2.188-3.156-3.07-4.871c-0.539-1.047-1.26-1.695-2.58-1.223c-0.324,0.117-0.828-0.033-1.164-0.217
			c-1.805-0.975-3.334-0.33-4.721,0.82c-2.299,1.912-4.545,3.891-6.814,5.842c-2.268,1.949-4.533,3.898-6.805,5.844
			c-0.355,0.307-0.916,0.139-0.979-0.283c-0.162-1.076-0.201-2.082,0.637-2.996c4.568-4.975,8.314-10.596,12.434-15.924
			c1.297-1.678,2.314-3.586,4.199-4.759c0.52-0.323,0.453-1.244,0-1.722c-0.959-1.011-2.51-1.335-3.83-0.675
			c-0.756,0.378-1.486,0.868-2.104,1.443c-1.246,1.166-2.463,2.371-3.588,3.65c-2.264,2.566-4.449,5.201-6.689,7.789
			c-0.412,0.479-0.922,0.873-1.4,1.295c-0.031,0.029-0.174-0.016-0.225-0.066c-0.07-0.072-0.154-0.193-0.137-0.273
			c0.084-0.406,0.119-0.855,0.324-1.199c0.996-1.645,2.068-3.244,3.066-4.891c2.885-4.752,5.779-9.499,8.596-14.292
			c0.918-1.561,1.617-3.25,2.395-4.891c0.26-0.545,0.07-1.053-0.297-1.479c-0.361-0.423-0.814-0.705-1.402-0.494
			c-1.33,0.479-2.529,1.2-3.441,2.278c-1.033,1.221-2.029,2.483-2.93,3.805c-2.166,3.182-4.264,6.411-6.402,9.611
			c-0.07,0.106-0.299,0.125-0.459,0.146c-0.029,0.004-0.094-0.177-0.121-0.278c-0.031-0.102-0.047-0.21-0.055-0.315
			c-0.025-0.428-0.045-0.854-0.086-1.64c-0.223-1.093,0.234-2.345,0.939-3.608c2.66-4.759,5.252-9.555,7.859-14.344
			c0.305-0.56,0.584-1.145,0.785-1.746c0.178-0.539-0.004-1.049-0.42-1.456c-0.42-0.409-0.936-0.527-1.479-0.394
			c-1.064,0.262-1.988,0.811-2.688,1.654c-0.611,0.737-1.164,1.527-1.697,2.326c-1.127,1.688-2.219,3.396-3.336,5.093
			c-0.053,0.081-0.248,0.173-0.256,0.163c-0.123-0.158-0.279-0.316-0.326-0.501c-0.223-0.905,0.17-1.674,0.604-2.422
			c2.137-3.702,4.277-7.402,6.42-11.102c0.373-0.645,0.799-1.264,1.125-1.934c0.379-0.791-0.322-1.752-1.23-1.811
			c-1.291-0.083-2.287,0.541-3.119,1.392c-0.746,0.759-1.369,1.641-2.021,2.488c-0.455,0.594-0.838,1.245-1.311,1.821
			c-0.25,0.304-0.602,0.551-0.955,0.729c-0.291,0.148-0.717-0.678-0.572-1.314c0.139-0.609,0.314-1.249,0.645-1.769
			c1.543-2.437,3.154-4.832,4.727-7.251c0.523-0.804,1.057-1.609,1.482-2.464c0.277-0.553,0.188-1.476,0.586-1.732
			c0.555-0.358,1.412-0.329,2.139-0.327c11.342,0.021,22.686,0.064,34.027,0.104c1.07,0.004,2.141,0.031,3.211,0.017
			c3.029-0.037,2.459-0.154,2.881,2.497c0.133,0.837,0.057,1.708,0.066,2.564c0.068,5.885,0.072,11.771,0.211,17.654
			c0.193,8.232,0.459,16.464,0.75,24.693c0.141,3.951,0.408,7.9,0.631,11.848c0.199,3.521,0.406,7.043,0.625,10.562
			c0.188,2.986,0.43,5.969,0.582,8.957c0.062,1.225,0.658,2.24,1.039,3.342C89.063,102.01,88.978,102.295,88.854,102.396z"/>
	</g>
</g>
</svg>
