<?xml version="1.0" encoding="utf-8"?>
<!-- Generator: Adobe Illustrator 16.0.0, SVG Export Plug-In . SVG Version: 6.00 Build 0)  -->
<!DOCTYPE svg PUBLIC "-//W3C//DTD SVG 1.1//EN" "http://www.w3.org/Graphics/SVG/1.1/DTD/svg11.dtd">
<svg version="1.1" id="Layer_1" xmlns="http://www.w3.org/2000/svg" xmlns:xlink="http://www.w3.org/1999/xlink" x="0px" y="0px"
	 width="120px" height="120px" viewBox="0 0 120 120" style="enable-background:new 0 0 120 120;" xml:space="preserve">
<g id="delicious">
	<g>
		<path style="fill-rule:evenodd;clip-rule:evenodd;" d="M107.253,67.248c-0.576-2.541-0.518-5.098-0.475-7.662
			c0.018-1.178,0.068-2.354,0.064-3.529c-0.018-3.85-0.188-7.707-0.047-11.553c0.199-5.363-0.67-10.67-0.629-16.018
			c0.004-0.422-0.068-0.859-0.191-1.264c-0.521-1.67-0.629-3.391-0.357-5.084c0.359-2.268-0.449-3.979-2.145-5.359
			c-1.074-0.873-2.164-1.736-3.314-2.504c-0.803-0.533-1.744-0.717-2.742-0.758c-2.025-0.086-4.045-0.332-6.07-0.443
			c-0.955-0.053-1.928-0.031-2.875,0.096c-3.309,0.443-6.598,0.49-9.891-0.139c-1.047-0.199-2.131-0.24-3.197-0.258
			c-5.568-0.094-11.127,0.166-16.635,0.961c-2.344,0.338-4.672,0.486-7.027,0.496c-2.246,0.01-4.494,0.002-6.74,0.002V14.18
			c-2.354,0-4.713,0.08-7.062-0.02c-3.658-0.154-7.242,0.582-10.869,0.777c-1.465,0.078-2.91,0.635-4.359,0.998
			c-2.842,0.711-4.641,2.619-5.596,5.27c-0.609,1.697-1.098,3.486-1.295,5.271c-0.406,3.717-0.867,7.436-0.781,11.191
			c0.061,2.781-0.002,5.564,0.006,8.346c0.004,1.186-0.045,2.352-0.504,3.469c-1.164,2.82-1.445,5.775-1.426,8.795
			c0.014,2.242-0.121,4.475-0.379,6.715c-0.242,2.098-0.01,4.262,0.109,6.393c0.199,3.52,0.754,7.043,0.639,10.549
			c-0.109,3.322-0.035,6.605,0.162,9.916c0.211,3.561,1.365,6.645,3.686,9.352c0.75,0.873,1.559,1.508,2.688,1.51
			c1.957,0.004,3.781,0.516,5.627,1.104c1.416,0.449,2.906,0.688,4.383,0.902c3.592,0.521,7.188,1.031,10.795,1.441
			c3.711,0.422,7.432,0.963,11.158,1.025c8.652,0.145,17.311-0.035,25.963,0.061c3.508,0.037,6.77-0.871,9.98-2.029
			c1.633-0.592,3.256-0.986,4.967-1.1c1.068-0.07,2.139-0.094,3.207-0.115c1.105-0.02,2.176-0.279,2.99-0.994
			c1.363-1.197,2.801-2.383,3.871-3.82c1.805-2.43,3.014-5.111,2.748-8.33c-0.186-2.229-0.129-4.504,0.082-6.734
			c0.428-4.57,1.059-9.119,1.547-13.684C107.431,69.385,107.483,68.268,107.253,67.248z M16.274,97.58
			c-0.172-0.02-0.303-0.365-0.451-0.566c0.219-0.164,0.436-0.443,0.662-0.451c0.164-0.008,0.344,0.344,0.598,0.625
			C16.737,97.369,16.489,97.607,16.274,97.58z M95.067,17.648l-0.109,0.162l-0.064-0.186L95.067,17.648z M89.274,20.822
			c0.402,0.137,0.828,0.275,1.148,0.533c0.18,0.143,0.312,0.643,0.203,0.789c-0.502,0.684-1.062,1.334-1.664,1.939
			c-2.723,2.73-5.213,5.652-7.533,8.74c-3.037,4.037-5.613,8.346-7.652,12.947c-0.902,2.033-1.387,4.252-2.012,6.4
			c-0.072,0.244,0.086,0.721,0.281,0.826s0.662-0.023,0.85-0.211c1.057-1.053,2.143-2.09,3.062-3.256
			c0.787-1,1.383-2.156,2.039-3.258c3.346-5.604,6.838-11.094,11.051-16.115c1.709-2.033,3.035-4.389,4.523-6.604
			c0.363-0.539,0.693-1.109,1.43-1.146c0.191-0.01,0.428,0.092,0.568,0.223c0.129,0.121,0.268,0.41,0.207,0.523
			c-0.344,0.656-0.73,1.291-1.129,1.918c-2.996,4.682-6.01,9.352-8.99,14.043c-1.438,2.268-2.414,4.752-3.33,7.27
			c-0.691,1.902-1.568,3.738-2.367,5.602c-0.654,1.531-1.889,2.293-3.477,2.471c-1.381,0.156-2.773,0.197-3.717,0.258
			c-1.516,0-2.586,0.039-3.652-0.01c-1.066-0.047-1.482-0.535-1.469-1.666c0.016-1.391,0.061-2.781,0.121-4.17
			c0.057-1.312,0.453-2.539,1.242-3.582c0.773-1.02,1.553-2.072,2.504-2.912c4.051-3.578,7.246-7.842,10.109-12.377
			c1.711-2.713,3.363-5.463,5.051-8.188C87.509,20.463,87.841,20.34,89.274,20.822z M76.575,27.775
			c1.062-1.848,2.189-3.656,3.281-5.484c0.779-1.303,2.008-1.865,3.432-2.061c0.229-0.031,0.502,0.281,0.734,0.424
			c-0.066,0.271-0.068,0.494-0.168,0.654c-0.398,0.631-0.775,1.285-1.252,1.854c-4.184,4.998-7.641,10.512-11.346,15.85
			c-0.908,1.307-1.939,2.527-2.936,3.77c-0.055,0.068-0.334-0.008-0.49-0.068c-0.07-0.027-0.133-0.182-0.123-0.271
			c0.033-0.314,0.043-0.65,0.17-0.928c0.266-0.578,0.584-1.139,0.918-1.682c0.336-0.543,0.662-1.109,1.088-1.576
			C72.722,35.145,74.505,31.371,76.575,27.775z M68.292,25.479c1.623-1.189,2.992-2.732,4.889-3.535
			c0.154-0.066,0.439-0.006,0.57,0.104c0.127,0.107,0.213,0.369,0.18,0.537c-0.061,0.307-0.195,0.605-0.35,0.881
			c-1.883,3.336-3.77,6.674-5.67,10c-0.273,0.48-0.846,0.695-1.035,0.441c-0.18-0.246-0.34-0.527-0.416-0.818
			c-0.08-0.303-0.045-0.633-0.088-1.574c0.287-1.172,0.688-2.928,1.162-4.664C67.669,26.354,67.907,25.762,68.292,25.479z
			 M66.003,24.891c0.199-0.26,0.689-0.328,1.066-0.406c0.094-0.02,0.377,0.271,0.354,0.361c-0.156,0.596-0.352,1.191-1.035,1.4
			c-0.092,0.027-0.195,0.006-0.301,0.006c-0.055-0.074-0.17-0.156-0.17-0.24C65.917,25.629,65.812,25.143,66.003,24.891z
			 M21.94,79.334c-0.148-0.084-0.352-0.205-0.383-0.346c-0.256-1.133-0.504-2.27-0.699-3.414c-0.105-0.623-0.104-1.266-0.182-2.311
			c-0.25-1.154,1.006-1.51,1.986-2.082c0.371-0.217,0.584-0.016,0.631,0.311c0.076,0.521,0.078,1.055,0.102,1.58
			c0.031,0.666,0.225,1.211,0.842,1.594c0.184,0.113,0.338,0.598,0.244,0.768c-0.715,1.287-1.492,2.541-2.262,3.799
			C22.179,79.303,22.001,79.367,21.94,79.334z M24.626,86.746c-0.021,0.107-0.346,0.27-0.471,0.227
			c-1.223-0.43-1.965-1.92-1.43-3.027c0.127-0.264,0.709-0.387,1.092-0.412c0.24-0.016,0.664,0.229,0.719,0.434
			c0.135,0.492,0.102,1.031,0.16,1.963C24.696,85.932,24.706,86.348,24.626,86.746z M32.892,86.58
			c-0.459,0.777-1.332,1.041-2.213,0.77c-0.33-0.102-0.631-0.49-0.811-0.82c-0.211-0.389-0.129-0.951,0.281-1.088
			c1.305-0.441,2.125-1.268,2.535-2.576c0.059-0.197,0.572-0.455,0.707-0.381c0.336,0.184,0.572,0.545,0.934,0.926
			C33.841,84.51,33.468,85.605,32.892,86.58z M38.37,97.693c-1.219,1.498-2.826,1.332-3.84-0.396
			c-0.09-0.152-0.09-0.432-0.008-0.584c0.088-0.16,0.324-0.24,0.506-0.359c1.098,0.277,2.207,0.551,3.305,0.857
			C38.392,97.229,38.448,97.598,38.37,97.693z M40.028,77.539c-0.895-1.682-1.832-3.344-2.629-5.07
			c-0.52-1.127,0.025-2.24,1.197-2.883c0.084-0.049,0.205-0.037,0.309-0.055c0.176,0.102,0.438,0.156,0.514,0.309
			c0.58,1.131,1.037,2.338,1.705,3.414c0.893,1.445,0.607,2.809,0,4.203c-0.078,0.18-0.254,0.342-0.424,0.453
			C40.274,78.193,40.157,77.781,40.028,77.539z M40.112,64.012c0-0.725,0.666-1.225,1.512-1.135
			c0.699,0.072,1.199,0.621,1.104,1.209c-0.119,0.715-0.861,1.32-1.529,1.242C40.64,65.264,40.112,64.623,40.112,64.012z
			 M45.437,94.564c-0.174,0.184-0.439,0.328-0.691,0.383c-0.301,0.066-0.629,0.039-0.943,0.021c-2.898-0.152-3.209-0.488-3.17-3.664
			c0.018-0.264,0.031-0.789,0.098-1.311c0.02-0.135,0.209-0.248,0.322-0.373c0.074,0.076,0.209,0.145,0.215,0.225
			c0.104,1.18,0.807,1.816,1.814,2.365c0.803,0.439,1.451,1.172,2.143,1.801C45.362,94.139,45.497,94.5,45.437,94.564z
			 M51.589,93.033c-0.148-0.07-0.236-0.268-0.41-0.486c0.184-0.18,0.355-0.408,0.582-0.533c0.08-0.043,0.377,0.131,0.438,0.266
			C52.347,92.617,51.882,93.172,51.589,93.033z M55.22,87.094c-0.124-0.05-0.208-0.193-0.297-0.323
			c-0.042-0.001-0.085-0.001-0.127-0.003c-0.001-0.029-0.016-0.047-0.019-0.074c-0.598,0.034-1.198,0.091-1.795,0.078
			c-0.295-0.004-0.59-0.15-0.869-0.271c-0.021-0.01,0.041-0.367,0.148-0.488c0.352-0.396,0.768-0.799,1.342-0.533
			c0.532,0.246,1.1,0.518,1.174,1.215c0.029-0.002,0.058-0.004,0.087-0.006c0.021,0.025,0.039,0.055,0.059,0.083
			c0.153,0.002,0.307,0.001,0.451,0.038c0.135,0.033,0.248,0.148,0.371,0.229C55.567,87.062,55.364,87.152,55.22,87.094z
			 M57.589,78.217c-0.627,0.15-1.232-0.211-1.441-0.834c-0.029-0.084,0.002-0.234,0.064-0.295c0.129-0.127,0.295-0.213,0.574-0.402
			c0.322,0.346,0.68,0.695,0.982,1.082C57.821,77.836,57.687,78.193,57.589,78.217z M58.665,24.318
			c-0.102,0.303-0.215,0.609-0.375,0.883c-0.977,1.668-0.939,3.451-0.68,5.285c0.18,1.264,0.303,2.539,0.381,3.812
			c0.189,3.197,0.342,6.396,0.506,9.594c0.016,0.32,0.031,0.641,0.02,0.959c-0.137,3.627-0.258,7.254-0.434,10.879
			c-0.066,1.377-0.635,1.949-1.936,2.1c-3.393,0.391-6.783,0.771-10.18,1.119c-0.627,0.064-1.301,0.076-1.9-0.09
			c-2.537-0.707-5.031-0.529-7.584-0.006c-2.082,0.426-4.221,0.611-6.346,0.787c-1.807,0.15-3.615,0.182-5.391,0.652
			c-0.961,0.256-1.438-0.148-1.451-1.094c-0.023-1.814-0.016-3.631-0.018-5.449v-5.77h-0.076c0-2.99,0.062-5.984-0.02-8.975
			c-0.08-3.092-0.201-6.191-0.488-9.27c-0.188-1.992,0.484-3.535,1.764-4.934c0.141-0.158,0.293-0.309,0.428-0.475
			c2.227-2.707,5.211-3.635,8.561-3.459c2.352,0.123,4.672,0.127,7.023-0.115c2.008-0.203,4.057-0.107,6.082-0.02
			c2.451,0.102,4.898,0.301,7.34,0.527c1.164,0.109,2.328,0.309,3.459,0.6C58.603,22.186,59.058,23.139,58.665,24.318z
			 M98.655,90.26c-0.289,1.242-0.527,2.506-0.936,3.711c-0.637,1.889-1.854,3.354-3.623,4.314c-1.221,0.66-2.43,1.338-3.678,1.936
			c-1,0.482-2.107,0.623-3.033-0.09c-0.846-0.654-1.719-0.721-2.707-0.639c-3.51,0.285-7.029,0.496-10.535,0.816
			c-1.805,0.164-3.59,0.508-5.389,0.748c-0.285,0.039-0.711,0.066-0.859-0.096c-0.352-0.381,0.008-0.754,0.209-1.113
			c0.365-0.652,0.748-1.301,1.045-1.984c0.209-0.479,0.342-1.008,0.408-1.529c0.084-0.668-0.121-1.271-0.734-1.654
			c-0.615-0.383-1.268-0.322-1.799,0.092c-0.668,0.523-1.24,1.168-1.875,1.734c-0.09,0.08-0.297,0.025-0.451,0.033
			c-0.006-0.203-0.09-0.447-0.008-0.604c0.299-0.564,0.684-1.082,0.984-1.645c0.799-1.506,1.635-2.998,2.334-4.549
			c0.533-1.184-0.008-1.994-1.355-2.287c-0.203-0.045-0.473,0.066-0.625-0.031c-0.223-0.143-0.529-0.414-0.521-0.621
			c0.078-2.268,0.529-4.426,1.869-6.342c0.418-0.594,0.709-1.311,0.914-2.014c0.266-0.908-0.279-1.588-1.344-1.621
			c-0.6-0.02-1.07-0.012-1.119-0.725c-0.207-2.982-0.404-5.965-0.592-8.947c-0.035-0.533-0.027-1.07-0.006-1.604
			c0.041-1.117,0.395-1.646,1.383-1.863c1.248-0.277,2.508-0.586,3.777-0.664c5.543-0.334,11.088-0.793,16.648-0.553
			c3.094,0.135,6.184,0.332,9.275,0.51c0.602,0.035,1.068,0.379,1.061,0.971c-0.014,1.432,0.625,2.66,0.984,3.98
			c0.523,1.932,0.641,3.996,0.752,6.016c0.119,2.131,0.027,4.275,0.027,6.414C99.163,83.668,99.411,86.992,98.655,90.26z
			 M99.267,50.4c-0.07,0.396-0.268,0.807-0.516,1.127c-1.566,2.027-1.719,2.072-4.348,1.578c-0.209-0.041-0.41-0.137-0.621-0.162
			c-2.799-0.314-2.98-0.635-0.943-2.932c1.486-1.678,2.947-3.361,4.242-5.197c0.418-0.592,1.049-1.037,1.605-1.523
			c0.289-0.252,0.961,0.047,0.992,0.441c0.07,0.848,0.105,1.699,0.17,2.812C99.685,47.668,99.509,49.041,99.267,50.4z M99.7,30.957
			c-0.32,1.041-0.584,2.057-0.15,3.125c0.273,0.672,0.035,1.303-0.365,1.799c-0.664,0.822-1.334,1.695-2.176,2.316
			c-1.676,1.238-2.914,2.781-3.912,4.586c-0.613,1.119-1.361,2.17-2.076,3.23c-0.357,0.529-0.688,1.137-1.184,1.5
			c-1.453,1.064-2.277,2.486-2.762,4.172c-0.295,1.018-1.043,1.598-2.037,1.838c-0.27,0.066-0.668,0.027-0.865-0.137
			c-0.195-0.162-0.371-0.609-0.281-0.811c0.555-1.268,1.049-2.594,1.816-3.729c4.43-6.553,7.943-13.656,12.275-20.264
			c0.293-0.447,0.521-0.943,0.855-1.35c0.223-0.27,0.361-0.92,0.928-0.498c0.232,0.172,0.369,0.506,0.49,0.791
			c0.08,0.188,0.053,0.42,0.09,0.828C100.165,29.104,99.981,30.045,99.7,30.957z"/>
	</g>
</g>
</svg>
