<?xml version="1.0" encoding="utf-8"?>
<!-- Generator: Adobe Illustrator 16.0.0, SVG Export Plug-In . SVG Version: 6.00 Build 0)  -->
<!DOCTYPE svg PUBLIC "-//W3C//DTD SVG 1.1//EN" "http://www.w3.org/Graphics/SVG/1.1/DTD/svg11.dtd">
<svg version="1.1" id="Layer_1" xmlns="http://www.w3.org/2000/svg" xmlns:xlink="http://www.w3.org/1999/xlink" x="0px" y="0px"
	 width="120px" height="120px" viewBox="0 0 120 120" style="enable-background:new 0 0 120 120;" xml:space="preserve">
<g id="mr_wong">
	<g>
		<path style="fill-rule:evenodd;clip-rule:evenodd;" d="M99.207,99.027c-0.507-4.807-1.627-9.463-3.252-14.01
			c-0.969-2.709-3.025-4.613-4.812-6.723c-0.133-0.158-0.328-0.287-0.52-0.367c-2.16-0.912-4.281-1.945-6.502-2.682
			c-3.052-1.012-6.209-1.586-9.461-1.385c-0.639,0.039-1.285,0.016-1.926-0.006c-0.873-0.031-1.179-0.293-1.197-1.127
			c-0.076-3.316-0.113-6.635-0.196-9.95c-0.028-1.114,0.478-1.69,1.481-2.171c5.596-2.684,8.572-7.18,9.018-13.363
			c0.055-0.746,0.133-1.492,0.256-2.229c0.32-1.912,0.334-1.902,2.166-1.979c1.283-0.055,2.566-0.103,3.846-0.211
			c1.807-0.152,3.608-0.381,5.416-0.533c2.342-0.199,4.688-0.363,7.033-0.523c0.982-0.066,2.01-0.197,2.666-0.93
			c0.914-1.025,2.08-2.066,2.164-3.484c0.117-2.012,0.043-4.068-0.268-6.057c-0.245-1.576-1.42-2.721-3.066-2.878
			c-3.824-0.362-7.622-1.097-11.498-0.831c-1.706,0.115-3.423,0.076-5.135,0.072c-0.965-0.002-1.422-0.371-1.468-1.307
			c-0.136-2.779-0.474-5.533-0.889-8.283c-0.271-1.795-0.413-3.607-0.621-5.412c-0.196-1.695-0.372-3.396-0.618-5.086
			c-0.226-1.566-1.299-2.406-2.721-2.828c-0.5-0.146-1.059-0.121-1.59-0.133c-1.498-0.037-3.002,0.023-4.49-0.098
			c-1.281-0.105-2.272,0.177-3.105,1.22c-0.373,0.468-1.035,0.714-1.58,1.039c-1.027,0.617-1.482,1.53-1.335,2.701
			c0.254,2.013,0.546,4.022,0.842,6.03c0.093,0.626,0.36,1.24,0.366,1.863c0.022,2.674-0.018,5.35-0.046,8.024
			c-0.006,0.583-0.413,0.97-1.021,0.954c-2.245-0.057-4.49-0.133-6.471-0.193c-2.406,0.086-4.546,0.172-6.686,0.232
			c-0.952,0.025-1.426-0.367-1.504-1.266c-0.064-0.743-0.077-1.495-0.068-2.243c0.052-4.06-0.254-8.125,0.318-12.175
			c0.133-0.943,0.068-1.93-0.023-2.885c-0.146-1.527-1.206-2.525-2.727-2.682c-0.316-0.031-0.645-0.043-0.959-0.008
			c-2.018,0.227-4.061,0.334-6.041,0.74c-2.348,0.48-4.139,1.781-4.562,4.342c-0.226,1.363-0.396,2.756-0.406,4.136
			c-0.023,3.317,0.066,6.634,0.103,9.95c0.013,1.153-0.169,1.35-1.206,1.439c-3.821,0.334-7.648,0.5-11.451,1.178
			c-2.557,0.455-4.974,1.188-7.352,2.136c-1.184,0.474-1.917,1.407-1.912,2.72c0.008,2.459,0.057,4.922,0.17,7.378
			c0.035,0.729,0.298,1.464,0.535,2.169c0.553,1.65,1.635,2.389,3.332,2.447c3.339,0.115,6.557-0.857,9.867-1.046
			c2.014-0.114,4.012-0.544,6.014-0.857c0.956-0.149,1.275,0.056,1.473,1.14c0.305,1.68,0.498,3.384,0.885,5.043
			c0.945,4.065,3.055,7.512,5.939,10.473c2.911,2.988,5.837,5.971,9.602,7.943c1.031,0.541,1.492,1.492,1.463,2.666
			c-0.012,0.534,0.018,1.072-0.023,1.604c-0.139,1.801-0.99,2.754-2.715,3.049c-0.421,0.071-0.854,0.062-1.278,0.121
			c-7.818,1.078-14.425,4.434-19.67,10.396c-1.22,1.389-2.202,2.902-2.796,4.639c-1.316,3.852-2.394,7.754-2.422,11.873
			c-0.02,2.889-0.084,5.777-0.125,8.666c-0.018,1.169,0.035,2.316-0.404,3.471c-0.373,0.977,0.23,1.977,1.215,2.283
			c0.6,0.186,1.254,0.268,1.885,0.273c1.926,0.018,3.852-0.016,5.777-0.049c0.532-0.01,1.079-0.016,1.592-0.141
			c1.418-0.346,2.555-1.031,2.984-2.574c0.136-0.486,0.395-1.01,0.757-1.344c0.874-0.812,1.073-1.803,1.056-2.91
			c-0.031-2.033-0.018-4.067-0.078-6.1c-0.104-3.502,1.436-6.068,4.148-8.217c2.254-1.785,4.791-2.744,7.477-3.492
			c0.432-0.119,0.609,0.23,0.67,0.496c0.094,0.408,0.057,0.85,0.049,1.277c-0.1,5.352,0.121,10.691,0.678,16.016
			c0.144,1.379,0.306,2.758,0.471,4.135c0.145,1.197,0.856,2.158,1.968,2.244c2.21,0.172,4.403,0.85,6.669,0.248
			c1.645-0.438,3.356-0.617,5.025-0.973c1.646-0.352,2.522-1.654,2.289-3.309c-0.103-0.738-0.324-1.467-0.361-2.207
			c-0.25-5.018-0.48-10.037-0.685-15.057c-0.065-1.59,0.085-1.711,1.547-1.666c0.642,0.018,1.284,0.044,1.923,0.102
			c2.063,0.186,3.691,1.203,4.732,2.93c1.267,2.103,2.575,4.26,3.047,6.684c0.632,3.242,1.54,6.443,1.688,9.775
			c0.032,0.735,0.21,1.477,0.418,2.188c0.266,0.907,0.936,1.484,1.877,1.49c1.918,0.01,3.824,0.004,5.674-0.746
			c2.467-0.998,4.871-2.154,7.435-2.914c1.021-0.302,1.597-1.146,1.689-2.15c0.149-1.594,0.241-3.205,0.159-4.799
			C99.725,102.629,99.396,100.832,99.207,99.027z M93.234,103.98c-0.078,0.053-0.207,0.031-0.314,0.038
			c-3.081,0.19-3.082,0.19-4.128-2.637c-0.815-2.203-1.687-4.388-2.429-6.615c-0.938-2.821-2.759-5.04-4.687-7.194
			c-0.815-0.91-1.914-1.422-3.128-1.438c-1.4-0.02-2.725-0.328-4.086-0.595c-2.12-0.415-4.267-0.122-6.325,0.569
			c-0.854,0.287-1.515,0.878-1.712,1.771c-0.274,1.246-0.571,2.514-0.611,3.781c-0.168,5.446-0.932,10.875-0.545,16.34
			c0.016,0.209,0.027,0.48-0.084,0.623c-0.181,0.225-0.447,0.459-0.713,0.514c-0.277,0.055-0.621-0.051-0.891-0.181
			c-0.15-0.073-0.303-0.345-0.293-0.517c0.184-3.121-0.226-6.186-0.824-9.236c-0.703-3.59-0.777-7.217-0.627-10.857
			c0.014-0.319,0.123-0.689,0.002-0.95c-0.309-0.659-0.638-1.347-1.123-1.872c-0.333-0.361-0.949-0.452-1.424-0.695
			c-1.036-0.534-2.062-1.088-3.092-1.633c-2.01,0.232-4.048,0.326-6.022,0.728c-4.912,0.999-8.845,3.694-11.997,7.509
			c-0.798,0.966-1.339,2.186-1.814,3.363c-0.436,1.08-0.602,2.266-0.938,3.389c-0.073,0.245-0.339,0.434-0.531,0.643
			c0.017,0.033,0.036,0.062,0.052,0.097c-0.023,0.022-0.046,0.045-0.069,0.067c0.06,0.694,0.163,1.389,0.147,2.082
			c-0.057,2.655-0.083,5.305,0.312,7.943c0.057,0.381-0.078,0.842-0.264,1.193c-0.258,0.488-1.895,0.549-2.347,0.139
			c-0.069-0.062-0.173-0.174-0.155-0.228c0.489-1.424-0.281-2.187-1.42-2.777c-0.182-0.094-0.326-0.259-0.486-0.391
			c0.232-0.174,0.439-0.409,0.699-0.511c0.69-0.269,1.416-0.445,2.102-0.725c0.57-0.232,0.898-0.938,0.834-1.584
			c-0.064-0.631-0.556-1.254-1.172-1.347c-0.625-0.094-1.275-0.04-1.898-0.151c-0.232-0.042-0.557-0.345-0.588-0.564
			c-0.037-0.261,0.156-0.588,0.326-0.834c0.105-0.154,0.344-0.291,0.533-0.307c1.436-0.122,2.425-0.995,3.376-1.939
			c-0.003-0.044-0.009-0.089-0.013-0.133c0.009-0.011,0.021-0.021,0.03-0.031c-0.606-1.204-1.51-1.931-2.958-1.875
			c-0.482,0.018-0.836-0.301-0.746-0.797c0.071-0.388,0.248-0.861,0.541-1.078c0.41-0.303,0.986-0.373,1.463-0.602
			c0.373-0.18,0.736-0.411,1.044-0.688c0.521-0.463,0.536-1.254,0.079-1.707c-0.15-0.15-0.318-0.285-0.482-0.42
			c-1.189-0.968-1.244-1.115-0.684-2.168c0.251-0.471,0.48-0.98,0.84-1.359c0.346-0.365,0.818-0.662,1.289-0.842
			c0.381-0.145,0.852-0.033,1.271-0.101c1.701-0.269,2.004-0.603,2.104-2.489c0.031-0.584,0.167-1.066,0.678-1.34
			c1.125-0.604,2.225-1.492,3.422-1.666c1.438-0.209,2.137-1.398,3.318-1.812c1.203-0.424,2.441-0.799,3.693-1.023
			c2.205-0.395,4.43-0.686,6.652-0.971c1.059-0.135,2.133-0.131,3.196-0.229c0.993-0.093,1.485-0.681,1.479-1.728
			c-0.003-0.535-0.043-1.07-0.091-1.602c-0.106-1.17-0.212-2.338-0.346-3.504c-0.124-1.084,0.021-2.095,0.402-3.139
			c0.472-1.293,0.964-2.609,0.933-4.04c-0.02-0.8-0.221-1.476-0.912-1.935c-0.705-0.468-1.375-1.014-2.137-1.355
			c-0.443-0.199-1.186,0.05-1.365-0.539c-0.143-0.463,0.018-1.047,0.137-1.555c0.195-0.824-0.119-1.469-0.617-2.053
			c-0.463-0.541-1.662-0.541-2.003,0.043c-0.37,0.635-0.622,1.342-0.905,2.025c-0.311,0.75-0.771,0.852-1.453,0.318
			c-0.529-0.414-0.927-0.869-0.756-1.615c0.167-0.736,0.246-1.465-0.096-2.195c-0.289-0.616-1.006-0.92-1.596-0.559
			c-0.357,0.221-0.623,0.615-0.998,0.777c-0.18,0.077-0.707-0.164-0.742-0.33c-0.125-0.605-0.238-1.266-0.119-1.859
			c0.23-1.146,0.66-2.252,0.934-3.393c0.172-0.717,0.264-1.465,0.299-2.203c0.032-0.623-0.555-1.357-1.088-1.428
			c-0.607-0.078-0.988,0.309-1.286,0.775c-0.511,0.805-1.005,1.619-1.521,2.421c-0.047,0.073-0.206,0.13-0.288,0.106
			c-0.079-0.023-0.177-0.158-0.179-0.247c-0.012-0.519-0.119-1.077,0.027-1.552c0.35-1.119,0.822-2.201,1.252-3.295
			c0.312-0.795,0.674-1.572,0.951-2.381c0.551-1.611,0.242-2.124-1.576-2.625c-0.532-0.146-0.647-0.406-0.514-0.914
			c0.105-0.401,0.209-0.844,0.146-1.244c-0.197-1.26-1.342-1.744-2.379-1.029c-0.348,0.24-0.629,0.578-0.969,0.832
			c-0.238,0.178-0.504,0.426-0.818,0.064c-1.025-1.182-2.427-1.225-3.828-1.211c-1.156,0.012-2.284,0.332-3.48-0.039
			c-0.477-0.15-1.17,0.342-1.748,0.582c-0.767,0.318-1.418,0.367-1.947-0.441c-0.51-0.781-1.229-0.725-1.969-0.336
			c-0.472,0.248-0.963,0.473-1.395,0.777c-0.672,0.477-1.209,0.003-1.791-0.174c-0.639-0.193-0.694-0.721-0.691-1.27
			c0.002-0.563,0.125-1.072,0.725-1.287c0.502-0.179,1.006-0.405,1.526-0.467c3.61-0.424,7.22-0.881,10.866-0.826
			c0.629,0.01,1.355-0.008,1.865,0.285c1.234,0.713,2.188,0.572,3.121-0.482c0.342-0.387,0.922-0.555,1.289-0.926
			c0.279-0.283,0.514-0.715,0.557-1.104c0.066-0.629,0.076-1.311-0.098-1.908c-0.52-1.784-0.448-3.6-0.453-5.414
			c-0.012-3.639-0.02-7.277-0.014-10.915c0.002-1.028,0.278-1.282,1.332-1.345c2.578-0.156,2.613-0.098,2.553,2.607
			c-0.092,4.064-0.197,8.129-0.203,12.193c-0.004,2.025,0.049,4.062,0.674,6.034c0.6,1.89,1.285,2.397,3.266,2.222
			c0.316-0.029,0.694-0.283,0.929-0.178c1.926,0.865,3.77-0.01,5.656-0.139c3.092-0.213,6.198-0.215,9.3-0.293
			c0.666-0.017,1.256,0.172,1.681,0.752c0.187,0.255,0.431,0.48,0.683,0.674c1.707,1.309,4.207,0.354,4.348-1.791
			c0.255-3.936,0.686-7.861,0.172-11.836c-0.328-2.531-0.191-5.127-0.234-7.693c-0.012-0.811,0.356-1.137,1.172-1.143
			c0.428-0.004,0.857,0.013,1.281,0.062c0.476,0.055,0.768,0.372,0.822,0.828c0.141,1.164,0.305,2.332,0.344,3.502
			c0.139,4.275,1.014,8.498,0.922,12.789c-0.031,1.504,0.111,2.996,0.563,4.439c0.39,1.242,1.761,2.152,3.007,1.74
			c1.272-0.418,2.527-0.314,3.801-0.375c3.203-0.156,6.402-0.355,9.604-0.533c0.747-0.043,1.499-0.041,2.244-0.113
			c0.805-0.078,1.572,1.021,1.701,2c0.018,0.134-0.213,0.418-0.354,0.436c-0.738,0.096-1.482,0.17-2.226,0.174
			c-3.432,0.018-6.799,0.512-10.176,1.102c-2.059,0.357-4.144,0.855-6.327,0.261c-1.699-0.463-2.949,0.61-3.123,2.332
			c-0.096,0.956-0.018,1.929-0.111,2.886c-0.194,2.018-0.243,4.082-0.727,6.035c-0.812,3.271-2.857,5.711-5.956,7.116
			c-1.452,0.659-3.024,1.051-4.511,1.642c-0.33,0.133-0.738,0.583-0.756,0.906c-0.145,2.549-0.811,5.028-0.736,7.625
			c0.089,3.097,0.062,6.19,0.428,9.277c0.117,0.986,0.107,1.943,1.219,2.381c0.949,1.744,2.506,2.073,4.346,2.045
			c3.637-0.053,7.276-0.02,10.912,0.07c3.152,0.078,6.567,2.758,7.393,5.732c1.54,5.555,3.045,11.117,4.562,16.678
			c0.084,0.311,0.195,0.625,0.195,0.938C93.629,103.723,93.39,103.873,93.234,103.98z M38.211,66.387
			c1.291-1.006,1.469-2.355,0.981-3.756c-0.564-1.623-1.461-3.095-2.691-4.328c-0.483-0.483-1.114-0.705-1.761-0.6
			c-0.611,0.099-1.229,0.318-1.782,0.605c-1.136,0.59-2.22,1.278-3.345,1.895c-4.795,2.627-9.902,4.543-14.955,6.588
			c-1.68,0.68-3.294,1.525-4.938,2.295c-1.468,0.687-2.273,2.203-3.749,2.939c-0.539,0.27-0.841,1.195-1.057,1.883
			c-0.188,0.592-0.1,1.271-0.166,2.564c0.159,1.162,0.364,2.961,0.666,4.744c0.242,1.438,1.163,2.148,2.652,2.336
			c1.234,0.156,2.307-0.219,3.373-0.775c8.07-4.201,15.9-8.812,23.504-13.805C36.1,68.213,37.117,67.244,38.211,66.387z
			 M113.803,68.912c-0.363-0.217-0.787-0.33-1.177-0.502c-2.835-1.244-5.767-2.309-8.477-3.781
			c-3.683-2.002-7.559-3.483-11.468-4.916c-1.1-0.402-2.242-0.686-3.365-1.021c-1.68-0.504-3.115,0.164-4.602,0.836
			c-1.262,0.57-1.529,1.691-1.947,2.776c-0.23,0.599-0.495,1.186-0.676,1.799c-0.209,0.71-0.342,1.442-0.379,1.599
			c-0.092,1.918,0.553,2.828,1.687,3.426c0.278,0.146,0.603,0.211,0.907,0.306c3.188,0.985,6.112,2.499,8.92,4.294
			c2.066,1.323,4.203,2.535,6.542,3.363c0.89,0.316,1.73,0.832,2.515,1.371c0.98,0.676,1.912,1.331,3.197,1.289
			c0.333-0.01,0.717,0.362,1.012,0.631c0.229,0.208,0.314,0.566,0.531,0.793c1.24,1.286,2.766,1.295,3.892-0.023
			c0.479-0.562,0.894-1.208,1.202-1.879c1.024-2.227,2.018-4.469,2.961-6.732C115.617,71.245,115.017,69.633,113.803,68.912z
			 M109.099,73.24c-0.38,0.904-0.619,0.988-1.26,0.543c-1.3-0.904-2.632-1.764-3.938-2.656c-0.396-0.272-0.904-0.484-0.86-1.088
			c-0.02-0.003-0.039-0.009-0.059-0.012c-0.009-0.025-0.021-0.043-0.031-0.066c-0.481,0.029-0.921-0.023-1.131-0.536
			c-0.044-0.004-0.089-0.007-0.133-0.013c-0.033-0.07-0.064-0.145-0.104-0.21c-0.063-0.039-0.127-0.077-0.19-0.116
			c0.059,0.023,0.137,0.031,0.17,0.074c0.01,0.012,0.013,0.029,0.021,0.042c0.065,0.039,0.13,0.079,0.194,0.118
			c0.012,0.039,0.029,0.069,0.043,0.104c0.445,0.037,0.916,0.018,1.131,0.536l0.094-0.006c-0.005,0.03-0.002,0.056-0.004,0.084
			c2.078,0.354,3.942,1.317,5.865,2.102C109.369,72.33,109.273,72.824,109.099,73.24z M71.033,48.715
			c0.67-2.256,1.337-4.504,1.164-6.898c-0.086-1.188,0.143-2.313,0.475-3.457c0.316-1.081-0.228-2.215-1.238-2.691
			c-0.544-0.255-1.275-0.418-1.836-0.277c-2.637,0.666-5.31,0.401-7.732,0.461c-1.2,0-2.164,0.033-3.125-0.006
			c-2.158-0.087-4.191,0.188-6.227,1.092c-1.271,0.566-1.951,1.344-2.068,2.545c-0.168,1.695-0.159,3.414-0.118,5.121
			c0.056,2.279,0.751,4.41,1.801,6.418c0.292,0.559,0.647,1.127,1.104,1.551c2.35,2.184,5.278,3.064,8.295,2.447
			c3.016-0.617,5.846-2.013,8.196-4.154C70.374,50.273,70.779,49.568,71.033,48.715z M67.055,44.441
			c-0.113,2.77-1.878,4.121-4.254,4.92c-1.034,0.348-2.761-0.627-3.432-1.824c-0.711-1.271-0.686-2.656-0.707-4.041
			c-0.037-2.771,0.006-2.518,2.635-2.805c1.674-0.182,3.389-0.033,5.082,0.025c0.449,0.016,0.787,0.414,0.793,0.857
			C67.182,42.529,67.093,43.486,67.055,44.441z"/>
	</g>
</g>
</svg>
