<?xml version="1.0" encoding="utf-8"?>
<!-- Generator: Adobe Illustrator 16.0.0, SVG Export Plug-In . SVG Version: 6.00 Build 0)  -->
<!DOCTYPE svg PUBLIC "-//W3C//DTD SVG 1.1//EN" "http://www.w3.org/Graphics/SVG/1.1/DTD/svg11.dtd">
<svg version="1.1" id="Layer_1" xmlns="http://www.w3.org/2000/svg" xmlns:xlink="http://www.w3.org/1999/xlink" x="0px" y="0px"
	 width="120px" height="120px" viewBox="0 0 120 120" style="enable-background:new 0 0 120 120;" xml:space="preserve">
<g id="stumbleupon">
	<g>
		<path style="fill-rule:evenodd;clip-rule:evenodd;" d="M64.143,39.337c0.406,1.225,0.654,2.469,0.621,3.775
			c-0.047,1.818-0.021,3.639-0.031,5.457c-0.008,1.54,0.311,3.076,1.244,4.237c1.6,1.994,3.527,3.706,5.646,5.165
			c0.52,0.358,1.137,0.592,1.734,0.826c1.303,0.511,2.535,0.443,3.508-0.688c1.881-2.188,3.756-4.383,5.594-6.607
			c1.062-1.282,1.443-2.891,1.502-4.469c0.148-4.064-0.131-8.131-0.73-12.148c-0.494-3.303-1.619-6.42-3.709-9.109
			c-0.525-0.675-1.07-1.345-1.506-2.076c-1.445-2.414-3.738-3.763-6.145-4.973c-1.141-0.574-2.301-1.111-3.453-1.665
			c-1.262-0.608-2.555-1.048-3.996-0.987c-1.389,0.057-2.781,0.027-4.172,0.02c-1.744-0.009-3.385,0.402-4.965,1.111
			c-2.047,0.918-4.07,1.897-6.158,2.714c-4.156,1.624-7.098,4.667-9.715,8.108c-1.516,1.994-2.422,4.265-2.852,6.725
			c-0.314,1.785-0.586,3.578-0.91,5.362c-0.668,3.686-1.123,7.388-1.096,11.145c0.023,3.316,0.043,6.638-0.088,9.95
			c-0.1,2.449-0.338,4.904-0.715,7.326c-0.211,1.352-0.752,2.673-1.295,3.944c-0.605,1.421-1.836,1.823-3.15,1.073
			c-0.631-0.359-1.26-0.853-1.672-1.438c-0.941-1.328-1.52-2.813-1.455-4.496c0.07-1.818,0.145-3.637,0.125-5.455
			c-0.01-1.059-0.076-2.147-0.338-3.166c-0.287-1.115-1.098-1.823-2.342-1.832c-1.498-0.01-2.996-0.002-4.494-0.002v0.037
			c-1.283,0-2.568,0.049-3.85-0.014c-1.752-0.084-3.357,0.589-5.033,0.885c-0.969,0.17-1.365,0.83-1.447,1.855
			c-0.139,1.698-0.326,3.395-0.424,5.097c-0.328,5.602,0.412,11.092,1.934,16.472c0.84,2.978,1.76,5.947,3.502,8.57
			c0.885,1.334,1.764,2.676,2.613,4.034c2.051,3.274,5.039,5.343,8.773,5.909c3.562,0.539,7.176,1.039,10.838,0.275
			c1.775-0.37,3.201-1.063,4.406-2.368c0.645-0.699,1.283-1.485,2.086-1.944c2.416-1.377,4.117-3.34,5.334-5.797
			c0.426-0.86,0.949-1.674,1.439-2.5c1.484-2.493,2.586-5.156,3.479-7.905c0.527-1.625,0.887-3.284,0.928-5.019
			c0.029-1.166,0.184-2.348,0.441-3.486c0.727-3.225,1.588-6.402,1.826-9.736c0.25-3.508,0.838-6.99,0.916-10.52
			c0.025-1.062,0.016-2.18,0.332-3.172c0.684-2.131,1.537-4.211,2.393-6.283c0.281-0.679,0.707-1.334,1.193-1.883
			c0.41-0.461,0.979-0.819,1.535-1.107C63.062,38.192,63.893,38.585,64.143,39.337z M57.275,35.521
			c-2.195,2.274-3.633,4.991-4.721,7.929c-1.416,3.816-2.318,7.766-3.039,11.758c-0.227,1.256-0.318,2.545,0.137,3.807
			c0.424,1.178,0.357,2.309-0.512,3.297c-0.393,0.445-0.514,0.957-0.232,1.473c0.947,1.732,0.451,3.549,0.346,5.341
			c-0.037,0.612-0.516,0.757-1.152,0.379c-0.182-0.108-0.314-0.3-0.5-0.399c-1.014-0.549-2.039-0.024-2.035,1.068
			c0.004,0.521,0.08,1.068,0.258,1.557c0.219,0.596,0.477,1.233,0.895,1.689c1.463,1.592,1.029,3.334,0.529,5.095
			c-0.047,0.161-0.27,0.345-0.439,0.378c-0.17,0.034-0.453-0.047-0.549-0.18c-0.572-0.768-1.076-1.588-1.658-2.348
			c-0.498-0.651-1.357-0.808-2.01-0.45c-0.656,0.358-1.025,1.202-0.793,1.918c0.164,0.507,0.41,0.985,0.592,1.488
			c0.178,0.489,0.453,0.996,0.443,1.489c-0.018,0.666-0.781,0.593-1.203,0.863c-0.516,0.329-0.656,0.834-0.605,1.384
			c0.113,1.216,0.697,2.206,1.488,3.122c0.52,0.6,0.369,1.095-0.311,1.562c-0.42,0.288-0.896,0.215-1.08-0.182
			c-0.311-0.672-0.521-1.412-0.943-2.006c-0.277-0.389-0.816-0.672-1.295-0.822c-0.758-0.237-1.637,0.314-1.691,1.041
			c-0.084,1.121-0.082,2.248-0.11,3.373c0.033,0.019,0.058,0.041,0.095,0.057c0.006,0.056,0.011,0.112,0.015,0.168
			c0.129,0.084,0.265,0.165,0.321,0.284c0.066,0.14-0.018,0.35-0.037,0.528c-0.074-0.129-0.184-0.248-0.223-0.387
			c-0.038-0.137-0.049-0.281-0.061-0.426c-0.039-0.025-0.078-0.05-0.113-0.076c0.001-0.05,0.002-0.099,0.003-0.148
			c-0.604-0.343-0.437-1.077-0.731-1.576c-0.221-0.367-0.41-0.762-0.689-1.076c-0.383-0.43-0.916-0.531-1.469-0.408
			c-0.59,0.133-0.965,0.557-0.955,1.126c0.016,0.954,0.123,1.912,0.264,2.857c0.078,0.521,0.332,1.014,0.457,1.532
			c0.182,0.762-0.162,1.34-0.826,1.465c-0.564,0.109-0.936-0.126-1.162-0.805c-0.404-1.217-0.773-2.443-1.176-3.66
			c-0.129-0.403-0.248-0.828-0.473-1.18c-0.297-0.47-0.762-0.735-1.357-0.662c-0.592,0.073-0.971,0.451-1.172,0.965
			c-0.154,0.389-0.246,0.822-0.26,1.24c-0.023,0.854,0.053,1.711,0.027,2.564c-0.008,0.288-0.193,0.57-0.299,0.855
			c-0.283-0.285-0.652-0.526-0.828-0.867c-0.188-0.364-0.184-0.825-0.285-1.24c-0.244-1.037-0.465-2.084-0.766-3.107
			c-0.152-0.516-0.502-0.945-1.084-1.073c-0.609-0.133-0.953,0.21-1.336,0.642c-0.4,0.456-0.943,0.242-1.074-0.373
			c-0.268-1.252-0.516-2.508-0.768-3.762c-0.064-0.314-0.062-0.664-0.205-0.934c-0.135-0.251-0.398-0.469-0.658-0.598
			c-0.102-0.051-0.369,0.148-0.514,0.285c-0.15,0.145-0.23,0.359-0.363,0.527c-0.609,0.77-0.729,0.791-0.93,0.037
			c-0.848-3.191-1.945-6.356-2.375-9.607c-0.418-3.156-0.145-6.405-0.148-9.614c0-0.626,0.391-0.971,0.998-1.007
			c0.426-0.026,0.859-0.066,1.281-0.017c1.137,0.134,2.352-0.39,3.412,0.395c0.078,1.054,0.105,2.112,0.242,3.157
			c0.387,2.953,0.469,5.98,1.77,8.74c0.496,1.051,1.068,2.096,1.779,3.01c1.025,1.326,2.438,2.057,4.168,2.044
			c0.318-0.002,0.641,0.019,0.963,0.019c3.625-0.008,6.299-1.945,7.332-5.504c0.711-2.461,1.15-4.992,1.17-7.572
			c0.033-4.707,0.141-9.416,0.057-14.121c-0.1-5.713,1.432-10.975,4.127-15.929c1.072-1.968,2.338-3.831,3.539-5.728
			c1.043-1.648,2.396-2.99,4.043-4.055c1.008-0.65,2.039-1.021,3.248-1.207c2.205-0.342,4.369-0.955,6.549-1.459
			c0.312-0.072,0.611-0.213,0.926-0.252c2.768-0.345,5.328-0.072,7.322,2.227c1.119,1.29,2.461,2.392,3.545,3.707
			c1.223,1.482,2.229,3.125,2.777,5.014c0.445,1.535,1.094,3.018,1.439,4.572c0.273,1.233,0.15,2.549,0.34,3.808
			c0.35,2.31-0.25,4.178-2.18,5.592c-0.662,0.484-1.012,1.581-2.01,1.359c-1.227-0.271-1.025-1.407-1.146-2.354
			c-0.301-2.324-0.668-4.641-1.041-6.954c-0.348-2.175-1.523-3.976-2.742-5.733c-0.705-1.016-1.746-1.572-2.986-1.66
			C61.928,32.587,59.355,33.368,57.275,35.521z M110.988,59.089c-0.447-2.036-1.686-3.112-3.811-3.118
			c-3.318-0.009-6.635,0.005-9.951,0.041c-0.742,0.009-1.494,0.092-2.219,0.245c-0.904,0.189-1.289,0.669-1.299,1.564
			c-0.023,2.141-0.008,4.28-0.008,6.421h0.012c0,0.214-0.006,0.428,0,0.642c0.086,3.324-0.287,6.623-0.652,9.914
			c-0.344,3.094-1.84,4.829-4.523,5.498c-1.658,0.414-2.998-0.125-3.752-1.672c-0.848-1.738-1.418-3.591-1.428-5.539
			c-0.016-2.884-0.107-5.769,0.396-8.643c0.236-1.353,0.215-2.774,0.127-4.153c-0.074-1.134-1.652-1.678-2.471-0.877
			c-1.377,1.345-2.678,2.767-4.016,4.151c-0.818,0.846-1.621,1.705-2.475,2.515c-0.596,0.565-1.086,0.544-1.676,0.019
			c-1.434-1.283-2.838-2.601-4.299-3.854c-0.889-0.762-1.832-1.469-2.799-2.13c-1.223-0.835-2.428-0.296-2.572,1.104
			c-0.033,0.319-0.059,0.643-0.037,0.961c0.076,1.277,0.311,2.561,0.238,3.827c-0.211,3.743-0.141,7.46,0.219,11.199
			c0.225,2.339,0.35,4.681,0.838,6.986c0.828,3.917,2.514,7.479,4.504,10.915c0.162,0.274,0.365,0.531,0.584,0.764
			c4.258,4.537,9.27,7.522,15.684,7.632c0.533,0.009,1.1-0.058,1.598,0.088c2.709,0.79,5.312,0.043,7.887-0.587
			c3.785-0.926,6.74-3.22,9.092-6.238c1.506-1.934,2.824-4.025,4.117-6.113c0.791-1.277,1.145-2.746,1.342-4.249
			c0.43-3.272,1.521-6.444,1.469-9.79c0-0.105,0.023-0.217,0.064-0.314c0.561-1.323,0.473-2.73,0.506-4.115
			c0.045-1.818-0.02-3.64,0.033-5.458C111.783,64.146,111.545,61.608,110.988,59.089z M101.936,86.275
			c-0.27,0.687-0.734,1.296-1.098,1.947c-0.307,0.55-0.725,1.078-0.865,1.669c-0.24,1.012-0.752,1.482-1.789,1.351
			c-1.029-0.131-1.881,0.294-2.668,0.88c-0.598,0.445-1.229,0.869-1.744,1.4c-1.754,1.805-4.02,2.504-6.373,2.604
			c-2.111,0.091-4.26-0.22-6.357-0.56c-0.9-0.145-1.76-0.742-2.561-1.257c-0.805-0.517-1.52-1.176-2.262-1.786
			c-4.424-3.633-6.383-8.401-6.447-14.037c-0.006-0.642,0-1.283,0-1.924h0.082c0-1.281-0.014-2.562,0.006-3.844
			c0.008-0.508,0.326-0.676,0.85-0.484c0.6,0.222,1.189,0.477,1.793,0.687c1.021,0.355,1.9,0.071,2.617-0.698
			c0.359-0.389,0.662-0.833,0.973-1.268c0.309-0.436,0.545-0.928,0.896-1.322c0.264-0.296,0.66-0.475,0.998-0.705
			c0.068,0.308,0.205,0.617,0.191,0.921c-0.035,0.852-0.053,1.716-0.221,2.548c-0.479,2.38,0.078,4.678,0.535,6.969
			c0.25,1.253,0.824,2.436,1.795,3.34c1.172,1.09,2.334,2.191,3.572,3.2c0.662,0.538,1.5,0.868,2.395,0.727
			c3.76-0.598,6.896-2.18,8.717-5.722c0.83-1.613,1.656-3.234,2.355-4.906c0.49-1.171,0.793-2.406,0.918-3.709
			c0.213-2.23,0.381-4.439,0.084-6.68c-0.152-1.156-0.105-2.344-0.1-3.517c0-0.598,0.422-1.056,0.971-1.062
			c1.814-0.018,3.631-0.021,5.443,0.02c0.445,0.009,0.83,0.34,0.883,0.795c0.096,0.84,0.158,1.695,0.121,2.538
			c-0.092,2.129-0.438,4.263-0.35,6.381C105.531,76.255,103.895,81.293,101.936,86.275z"/>
	</g>
</g>
</svg>
