<?xml version="1.0" encoding="utf-8"?>
<!-- Generator: Adobe Illustrator 16.0.0, SVG Export Plug-In . SVG Version: 6.00 Build 0)  -->
<!DOCTYPE svg PUBLIC "-//W3C//DTD SVG 1.1//EN" "http://www.w3.org/Graphics/SVG/1.1/DTD/svg11.dtd">
<svg version="1.1" id="Layer_1" xmlns="http://www.w3.org/2000/svg" xmlns:xlink="http://www.w3.org/1999/xlink" x="0px" y="0px"
	 width="120px" height="120px" viewBox="0 0 120 120" style="enable-background:new 0 0 120 120;" xml:space="preserve">
<g id="pinterest">
	<g>
		<path style="fill-rule:evenodd;clip-rule:evenodd;" d="M100.021,45.593c-0.555-2.605-0.824-5.27-1.33-7.887
			c-1.399-7.238-5.176-13.004-10.922-17.57c-3.528-2.805-7.285-5.268-11.174-7.504c-2.114-1.215-4.406-2.232-6.74-2.932
			c-3.9-1.168-7.93-1.803-12.031-1.328c-2.33,0.268-4.646,0.646-6.964,1.008c-1.054,0.164-2.11,0.34-3.138,0.614
			c-4.332,1.161-8.073,3.333-11.195,6.573c-1.109,1.152-2.25,2.295-3.498,3.289c-3.219,2.566-5.9,5.572-7.947,9.146
			c-0.637,1.113-1.291,2.217-1.969,3.305c-1.951,3.138-3.201,6.525-3.473,10.217c-0.34,4.605-0.166,9.158,1.244,13.639
			c1.447,4.596,3.674,8.598,7.361,11.795c1.656,1.436,4.537,1.9,6.516,0.434c1.822-1.35,3.57-2.791,3.59-5.376
			c0.004-0.31,0.194-0.612,0.248-0.926c0.516-3.014,0.344-5.842-1.178-8.679c-2.945-5.49-2.766-11.07,0.334-16.513
			c0.369-0.649,0.765-1.288,1.169-1.917c2.177-3.389,5.017-6.102,8.491-8.121c0.906-0.526,1.949-0.844,2.962-1.158
			c0.913-0.283,1.878-0.393,2.8-0.648c2.088-0.578,4.22-0.736,6.354-0.549c1.802,0.157,3.591,0.494,5.377,0.793
			c2.683,0.447,4.726,1.889,6.239,4.119c0.182,0.266,0.359,0.533,0.551,0.789c1.629,2.176,2.43,4.72,3.383,7.223
			c1.906,5.002,2.589,10.065,1.814,15.395c-0.622,4.287-2.42,7.914-5.203,11.152c-1.151,1.342-2.533,1.814-4.27,1.654
			c-2.386-0.219-3.5-1.041-4.143-3.299c-0.087-0.307-0.074-0.641-0.159-0.949c-0.676-2.422-0.239-4.896-0.401-7.72
			c0.344-2.715,0.178-5.801-0.014-8.888c-0.078-1.281-0.039-2.574-0.189-3.847c-0.225-1.902-0.391-3.833-1.184-5.616
			c-1.041-2.334-2.957-3.352-5.417-2.959c-3.813,0.607-6.677,2.652-8.903,5.73c-0.783,1.082-1.279,2.214-1.185,3.566
			c0.075,1.076-0.151,2.097-0.403,3.15c-1.213,5.09-2.211,10.229-2.645,15.447c-0.336,4.054-0.914,8.054-1.82,12.018
			c-0.498,2.185-0.773,4.402-0.98,6.645c-0.266,2.861-0.388,5.74-0.971,8.587c-0.535,2.602-0.997,5.253-0.857,7.948
			c0.021,0.426,0.008,0.865-0.076,1.28c-0.764,3.808-0.625,7.665-0.648,11.515c-0.003,0.639,0.036,1.283,0.127,1.914
			c0.099,0.684,0.532,1.176,1.16,1.43c1.168,0.468,2.481,0.111,3.131-0.902c0.518-0.807,0.951-1.673,1.369-2.539
			c2.783-5.779,5.573-11.555,8.307-17.355c0.588-1.248,0.955-2.602,1.426-3.904c0.398-1.1,0.754-2.219,1.217-3.293
			c0.387-0.898,0.895-1.031,1.797-0.537c1.498,0.823,2.941,1.768,4.615,2.201c5.348,1.383,10.755,1.835,16.176,0.592
			c2.068-0.476,4.092-1.256,5.347-3.234c0.269-0.424,0.812-0.678,1.236-1c1.446-1.1,2.921-2.164,4.339-3.299
			c2.101-1.678,4.004-3.535,5.277-5.963c0.443-0.848,1.047-1.614,1.6-2.404c4.311-6.177,6.215-13.051,5.962-20.551
			C100.468,48.108,100.29,46.86,100.021,45.593z M45.112,92.132c-0.057,0.041-0.338-0.096-0.383-0.205
			c-0.076-0.186-0.049-0.414-0.064-0.625c0.02-0.211,0.009-0.434,0.074-0.632c0.055-0.165,0.197-0.3,0.301-0.448
			c0.229,0.189,0.575,0.34,0.66,0.581C45.903,91.374,45.567,91.813,45.112,92.132z M88.878,64.407
			c-0.451,1.084-1.076,2.096-1.533,3.178c-1.41,3.346-3.785,5.937-6.463,8.272c-2.414,2.105-5.23,3.277-8.48,3.278
			c-1.926,0-3.853,0.008-5.779,0.004c-2.805-0.004-5.502-0.665-8.183-1.391c-1.331-0.361-2.642-0.804-3.974-1.162
			c-1.184-0.318-2.104,0.188-2.766,1.128c-0.49,0.696-0.871,1.47-1.293,2.214c-0.576,1.02-1.118,1.982-2.332,2.502
			c-1.248,0.533-1.584,1.947-2.244,3.031c-0.051,0.082-0.246,0.072-0.375,0.105c-0.025-0.102-0.061-0.202-0.074-0.305
			c-0.014-0.105-0.021-0.217-0.005-0.32c0.179-1.068,0.464-2.035,1.456-2.727c0.59-0.41,1.078-1.053,1.436-1.69
			c0.834-1.491,1.566-3.04,2.328-4.571c0.143-0.285,0.264-0.586,0.351-0.893c0.386-1.337-0.05-2.063-1.532-2.594
			c-0.91-0.328-0.914-0.362-0.596-1.006c0.992-2.008,1.979-4.02,2.932-6.047c0.223-0.475,0.363-1.01,0.436-1.531
			c0.129-0.934-0.519-1.822-1.504-2.17c-0.387-0.137-0.779-0.254-1.17-0.381c0.131-0.396,0.203-0.826,0.403-1.184
			c0.938-1.68,1.909-3.34,2.87-5.006c0.215-0.371,0.46-0.725,0.643-1.111c0.316-0.667-0.092-1.637-0.812-1.829
			c-0.506-0.134-1.062-0.073-1.576-0.186c-0.289-0.063-0.555-0.3-0.375-0.69c0.893-1.941,1.777-3.887,2.681-5.821
			c0.457-0.979,0.893-1.935,0.437-3.062c-0.07-0.17,0.188-0.631,0.4-0.734c2.453-1.186,2.924-1.75,3.28,1.727
			c0.304,2.977,0.255,5.963-0.353,8.939c-0.596,2.926-0.969,5.895-1.4,8.852c-0.122,0.844-0.146,1.709-0.13,2.562
			c0.011,0.521,0.026,1.158,0.313,1.539c1.321,1.766,2.266,3.864,4.291,5.035c1.201,0.695,2.373,1.446,3.582,2.127
			c1.84,1.034,3.724,1.369,5.842,0.743c2.689-0.794,4.852-2.104,6.234-4.64c1.684-3.09,3.636-6.021,4.986-9.305
			c1.033-2.515,1.709-5.045,1.674-7.762c-0.035-2.883,0.025-5.756-0.525-8.625c-1.225-6.377-3.326-12.357-7.346-17.551
			c-1.826-2.359-4.133-3.955-7.055-4.722c-2.494-0.654-5.052-0.825-7.582-1.19c-1.713-0.246-3.426,0.096-5.092,0.438
			c-3.244,0.666-6.508,1.452-9.355,3.169c-3.588,2.164-6.693,4.943-9.109,8.433c-2.083,3.007-3.827,6.159-4.735,9.743
			c-0.815,3.215-0.525,6.377,0.394,9.484c0.512,1.73,1.256,3.402,2.016,5.045c0.699,1.511,1.115,2.992,0.527,4.633
			c-0.143,0.396-0.232,0.836-0.229,1.256c0.016,1.569-0.848,2.586-2.041,3.422c-0.37,0.26-0.91,0.207-1.109-0.154
			c-0.312-0.561-0.641-1.116-0.889-1.707c-1.617-3.846-3.003-7.779-3.626-11.913c-0.483-3.206,0.03-6.37,0.819-9.511
			c1.11-4.412,3.209-8.367,5.488-12.234c0.639-1.084,1.648-1.953,2.508-2.9c1.809-1.994,3.852-3.688,6.214-5.012
			c1.021-0.57,1.907-1.371,2.888-2.02c1.244-0.822,2.488-1.66,3.797-2.372c1.607-0.876,3.349-1.212,5.203-1.392
			c2.119-0.207,4.256,0.145,5.572-0.188c4.003-0.49,7.191,0.043,10.346,0.51c2.547,0.377,4.814,1.754,6.932,3.209
			c3.57,2.45,6.609,5.422,8.59,9.355c0.237,0.473,0.49,1.016,0.893,1.314c1.492,1.109,1.908,2.75,2.41,4.387
			c0.654,2.143,1.394,4.258,2.086,6.389c0.131,0.404,0.283,0.82,0.312,1.238c0.247,3.516,0.537,7.03,0.678,10.551
			C91.646,56.757,90.451,60.636,88.878,64.407z"/>
	</g>
</g>
</svg>
