<?xml version="1.0" encoding="utf-8"?>
<!-- Generator: Adobe Illustrator 16.0.0, SVG Export Plug-In . SVG Version: 6.00 Build 0)  -->
<!DOCTYPE svg PUBLIC "-//W3C//DTD SVG 1.1//EN" "http://www.w3.org/Graphics/SVG/1.1/DTD/svg11.dtd">
<svg version="1.1" id="Layer_1" xmlns="http://www.w3.org/2000/svg" xmlns:xlink="http://www.w3.org/1999/xlink" x="0px" y="0px"
	 width="120px" height="120px" viewBox="0 0 120 120" style="enable-background:new 0 0 120 120;" xml:space="preserve">
<g id="fancy">
	<g>
		<path style="fill-rule:evenodd;clip-rule:evenodd;" d="M87.891,69.451c0.498-1.48,0.477-3.002,0.458-4.523
			c-0.054-4.366-0.03-8.729-0.375-13.094c-0.286-3.642-0.122-7.316-0.189-10.976c-0.097-5.481,0.062-10.964-0.497-16.442
			c-0.351-3.436-0.756-6.856-1.406-10.24c-0.268-1.385-0.731-2.753-1.279-4.057c-0.846-2.012-2.164-3.695-4.178-4.672
			c-3.031-1.472-6.225-2.484-9.59-2.776C66.111,2.259,61.5,3.032,57.067,4.619c-5.483,1.963-10.479,4.873-15.131,8.369
			c-0.402,0.301-0.746,0.693-1.068,1.083c-0.904,1.098-1.813,2.193-2.661,3.332c-1.28,1.715-2.332,3.546-3.058,5.587
			c-1.503,4.234-2.342,8.62-2.8,13.052c-0.429,4.133-0.47,8.307-0.681,12.463c-0.007,6.316,0.49,12.584,1.269,18.838
			c0.505,4.041,1.752,7.889,2.993,11.74c0.271,0.836,0.877,1.412,1.672,1.65c0.966,0.289,1.979,0.548,2.976,0.565
			c1.722,0.03,3.445-0.124,5.167-0.225c1.011-0.06,2.021-0.19,3.032-0.235c0.737-0.033,1.076,0.333,1.111,1.109
			c0.087,2.031,0.03,4.08,0.273,6.091c0.503,4.13,1.005,8.249,1.065,12.421c0.044,3.039-0.026,6.092,0.516,9.115
			c0.512,2.855,1.967,5.096,4.23,6.813c0.624,0.474,1.453,0.901,2.208,0.94c2.429,0.123,4.874,0.158,7.301,0.021
			c1.667-0.095,2.796-1.19,3.278-2.784c0.321-1.061,0.57-2.172,0.643-3.273c0.139-2.127,0.18-4.266,0.172-6.398
			c-0.011-2.846-0.139-5.69-0.16-8.537c-0.041-4.777-0.037-9.557-0.053-14.333c0-0.306,0-0.61,0.019-0.913
			c0.035-0.551,0.38-0.879,1-0.905c0.711-0.03,1.423-0.052,2.134-0.024c4.273,0.16,8.522-0.266,12.781-0.478
			c2.037-0.103,3.165-1.403,2.881-3.419c-0.104-0.727-0.045-1.365,0.043-2.066c0.098-0.78,0.031-1.636-0.199-2.385
			C87.768,71.02,87.623,70.238,87.891,69.451z M63.591,111.773c-1.495,0.436-3.002,0.287-4.499,0.039
			c-0.267-0.045-0.543-0.297-0.729-0.524c-0.9-1.119-1.648-2.31-1.72-3.815c-0.217-4.559-0.495-9.115-0.668-13.678
			c-0.105-2.738-0.037-5.486-0.093-8.229c-0.026-1.313-0.16-2.625-0.252-3.938c-0.048-0.688,0.334-1.268,0.989-1.289
			c2.03-0.07,4.061-0.105,6.092-0.119c0.566-0.002,0.975,0.363,1.028,0.924c0.115,1.211,0.21,2.428,0.22,3.643
			c0.027,3.76,0.009,7.52,0.009,12.078c0.048,1.945,0.124,4.686,0.178,7.429c0.028,1.423,0.082,2.849-0.005,4.266
			C64.075,109.64,64.379,110.809,63.591,111.773z M81.66,72.053c-0.17,0.477-0.314,0.971-0.559,1.406
			c-0.133,0.234-0.44,0.494-0.688,0.514c-1.111,0.088-2.239,0.205-3.336,0.084c-0.525-0.059-0.996-0.619-1.484-0.963
			c-1.281-0.903-2.027-0.93-3.334-0.059c-0.498,0.33-0.932,0.766-1.451,1.054c-0.221,0.121-0.641,0.072-0.87-0.065
			c-0.181-0.107-0.221-0.467-0.29-0.723c-0.021-0.076,0.088-0.179,0.111-0.276c0.486-2.009-0.318-2.972-2.274-2.615
			c-0.679,0.124-1.317,0.493-1.959,0.783c-0.718,0.325-1.419,0.686-2.126,1.028c0.012,0.031,0.025,0.062,0.035,0.092
			c-0.057,0.01-0.115,0.016-0.17,0.027c-0.059,0.06-0.116,0.117-0.174,0.178c0.031-0.055,0.052-0.135,0.098-0.157
			c0.023-0.011,0.05-0.015,0.076-0.021c0.033-0.033,0.065-0.068,0.1-0.102c0.012-0.005,0.023-0.012,0.035-0.018
			c-0.026-0.065-0.053-0.131-0.057-0.198c-0.043-0.937-0.189-1.802-1.109-2.343c-0.924-0.543-1.782-0.166-2.63,0.14
			c-1.852,0.666-3.356,1.866-4.761,3.209c-0.235,0.226-0.569,0.087-0.633-0.246c-0.019-0.099-0.031-0.203-0.026-0.302
			c0.048-0.74-0.058-1.41-0.701-1.906c-0.683-0.527-1.442-0.746-2.284-0.617c-0.395,0.061-0.779,0.209-1.165,0.327
			c-0.39,0.118-0.529-0.172-0.679-0.419c-0.048-0.076-0.017-0.2-0.035-0.299c-0.464-2.299-0.518-2.352-2.83-2.811
			c-0.6-0.121-0.69-0.283-0.394-0.761c0.321-0.518,0.653-1.028,1.002-1.526c0.438-0.628,0.482-1.322,0.394-2.043
			c-0.123-0.963-0.815-1.643-1.772-1.82c-1.062-0.197-1.999,0.118-2.93,0.572c-0.384,0.188-0.785-0.137-0.842-0.567
			c-0.095-0.736-0.005-1.41,0.52-1.986c1.095-1.202,2.184-2.408,3.266-3.619c0.473-0.53,0.98-1.042,1.371-1.63
			c0.672-1.012,0.726-2.112,0.063-3.149c-0.607-0.952-1.553-1.277-2.648-1.095c-0.496,0.083-0.979,0.254-1.453,0.425
			c-0.427,0.155-0.878,0.157-1.013-0.275c-0.106-0.336-0.041-0.87,0.172-1.139c1.134-1.43,2.364-2.784,3.509-4.207
			c0.696-0.863,1.368-1.762,1.924-2.717c0.56-0.961,0.353-2.02-0.453-2.769c-0.697-0.646-1.512-1.038-2.499-0.643
			c-0.282,0.113-0.545,0.277-0.835,0.367c-0.514,0.161-1.123,0.941-1.527,0.136c-0.191-0.384,0.108-1.245,0.464-1.635
			c1.299-1.419,2.722-2.721,4.079-4.086c0.71-0.715,1.436-1.425,2.048-2.218c0.518-0.672,0.71-1.525,0.167-2.268
			c-0.599-0.817-1.527-1.021-2.462-0.741c-0.866,0.259-1.685,0.677-2.52,1.037c-0.343,0.146-0.71,0.62-1.028,0.229
			c-0.174-0.215,0.003-0.735,0.056-1.113c0.258-1.907,1.165-3.425,2.696-4.6c0.965-0.741,1.887-1.541,2.82-2.322
			c0.87-0.728,1.596-1.559,1.948-2.667c0.227-0.711-0.003-1.308-0.801-1.693c-0.466-0.225-0.971-0.233-0.523-0.981
			c0.811-1.355,1.906-2.401,3.303-3.063c3.199-1.521,6.351-3.133,9.937-3.679c2.637-0.402,5.285-0.541,7.89-0.262
			c2.515,0.27,4.902,1.274,7.131,2.501c0.571,0.315,1.058,0.974,1.338,1.586c0.415,0.912,0.697,1.908,0.883,2.896
			c0.28,1.493,0.509,3.004,0.612,4.518c0.273,3.947,0.577,7.897,0.662,11.85c0.144,6.602-0.039,13.213,0.223,19.81
			c0.214,5.376,0.385,10.751,0.461,16.13C81.746,69.045,82.193,70.556,81.66,72.053z"/>
	</g>
</g>
</svg>
