<?xml version="1.0" encoding="utf-8"?>
<!-- Generator: Adobe Illustrator 16.0.0, SVG Export Plug-In . SVG Version: 6.00 Build 0)  -->
<!DOCTYPE svg PUBLIC "-//W3C//DTD SVG 1.1//EN" "http://www.w3.org/Graphics/SVG/1.1/DTD/svg11.dtd">
<svg version="1.1" id="Layer_1" xmlns="http://www.w3.org/2000/svg" xmlns:xlink="http://www.w3.org/1999/xlink" x="0px" y="0px"
	 width="120px" height="120px" viewBox="0 0 120 120" style="enable-background:new 0 0 120 120;" xml:space="preserve">
<g id="svpply">
	<g>
		<path style="fill-rule:evenodd;clip-rule:evenodd;" d="M48.533,65.495c-0.547-0.649-0.977-1.409-1.389-2.157
			c-1.523-2.767-3.922-4.469-6.789-5.583c-1.395-0.541-2.842-0.944-4.221-1.518c-2.072-0.861-4.146-1.574-6.375-2.037
			c-2.533-0.527-4.744-1.979-6.143-4.308c-0.982-1.635-1.666-6.228-1.305-8.113c0.061-0.313,0.188-0.617,0.24-0.932
			c0.178-1.03,0.77-1.788,1.658-2.241c1.332-0.676,2.688-1.317,4.078-1.852c1.902-0.728,4.705-0.034,5.74,1.65
			c1.396,2.269,3.223,4.267,4.203,6.805c0.459,1.188,1.107,2.324,1.818,3.383c0.521,0.779,1.232,1.465,1.969,2.055
			c0.373,0.301,0.986,0.393,1.498,0.416c1.047,0.047,2.322-1.12,2.297-2.602c-0.053-3.316-0.016-6.634-0.016-9.951
			c0.061,0,0.125,0,0.188-0.002c-0.084-3.208-0.17-6.418-0.252-9.628c-0.025-0.967-0.049-1.94-0.555-2.802
			c-0.15-0.254-0.42-0.58-0.668-0.611c-1.479-0.186-2.895-0.361-4.238,0.773c-1.09,0.92-1.701,1.855-1.562,3.276
			c0.051,0.53,0.029,1.07,0.002,1.604c-0.033,0.636-0.049,1.284-0.201,1.896c-0.053,0.215-0.48,0.45-0.748,0.466
			c-0.289,0.016-0.611-0.181-0.883-0.346c-3.518-2.138-7.387-2.784-11.402-2.486c-3.33,0.247-6.57,0.925-9.123,3.375
			c-0.383,0.368-0.797,0.752-1.268,0.972c-2.629,1.229-4.34,3.396-6.033,5.629c-2.416,3.179-3.211,6.715-2.393,10.566
			c0.533,2.502,1.279,4.949,2.785,7.113c0.947,1.358,2.275,2.249,3.475,3.3c2.303,2.018,4.941,3.346,8.012,3.736
			c1.377,0.176,2.744,0.498,4.123,0.54c1.586,0.051,2.67,1.37,4.209,1.457c0.312,0.018,0.609,0.205,0.92,0.282
			c1.242,0.309,2.5,0.565,3.73,0.914c1.557,0.438,2.994,1.117,4.234,2.199c1.203,1.053,2.455,2.053,3.693,3.069
			c2.504,2.057,2.252,2.725,1.369,5.288c-0.617,1.788-1.898,3.149-3.887,3.456c-3.164,0.486-6.33,0.945-9.562,0.717
			c-2.303-0.163-4.445-0.688-6.299-2.073c-3.871-2.899-7.484-6.063-9.855-10.383c-0.42-0.76-0.934-1.052-1.775-1.058
			c-1.596-0.012-3.143,0.699-4.762,0.287c-0.18-0.045-0.406,0.104-0.613,0.163c-1.127,0.327-1.668,0.929-1.682,2.047
			c-0.012,1.067-0.021,2.151,0.133,3.204c0.719,4.869,1.184,9.757,1.232,14.681c0.008,0.64-0.01,1.3,0.143,1.911
			c0.301,1.203,0.855,2.186,2.352,2.191c0.516,0.002,1.027,0.262,1.547,0.365c1.508,0.3,2.811-0.453,3.201-1.939
			c0.189-0.713,0.211-1.476,0.256-2.219c0.104-1.602,0.131-3.209,0.277-4.805c0.098-1.052,0.35-2.089,0.535-3.132
			c1.211,0.303,1.527,1.571,2.408,2.24c0.508,0.386,0.92,0.896,1.396,1.325c3.225,2.908,6.787,5.162,11.123,6.057
			c2.633,0.543,5.27,0.787,7.955,0.745c1.645-0.025,3.191-0.339,4.666-0.995c1.463-0.651,2.904-1.367,4.301-2.147
			c0.635-0.354,1.309-0.829,1.682-1.427c1.357-2.184,2.469-4.497,2.982-7.046c0.732-3.629,0.416-7.232-0.287-10.825
			C50.326,68.63,49.748,66.939,48.533,65.495z M15.02,49.234c-0.058,0.031-0.114,0.062-0.17,0.095
			c-0.039,0.073-0.079,0.146-0.117,0.219c0.012-0.062,0.008-0.144,0.045-0.179c0.02-0.018,0.049-0.026,0.072-0.041
			c0.031-0.057,0.061-0.114,0.092-0.171c0.048-0.006,0.083-0.013,0.129-0.019c0.327-0.606,0.638-1.224,1.002-1.805
			c0.127-0.206,0.371-0.568,0.691-0.196c0.119,0.14,0.17,0.397,0.146,0.589c-0.127,1.042-0.339,1.205-1.84,1.413
			C15.053,49.171,15.037,49.203,15.02,49.234z M21.518,57.165c-0.098,0.187-0.168,0.389-0.246,0.586
			c-0.795,2.055-1.045,2.141-2.91,1.22c-0.818-0.405-0.65-0.96-0.326-1.719c0-0.178,0.105-0.547-0.027-0.789
			c-0.182-0.337-0.496-0.716-0.836-0.82c-0.4-0.124-0.805,0.134-0.9,0.641c-0.02,0.105-0.031,0.213-0.064,0.312
			c-0.082,0.244-0.008,0.764-0.453,0.519c-0.307-0.168-0.553-0.608-0.633-0.969c-0.053-0.242,0.225-0.562,0.363-0.842
			c0.232-0.476,0.463-0.953,0.713-1.421c0.299-0.564,0.445-0.59,0.959-0.206c0.85,0.634,1.682,1.289,2.551,1.893
			c0.428,0.296,0.9,0.57,1.396,0.722C21.637,56.455,21.775,56.677,21.518,57.165z M17.561,43.005
			c-0.107,0.635-0.346,0.89-1.037,0.646c-0.466-0.165-0.99-0.167-1.492-0.233c-0.002,0.017-0.001,0.036-0.004,0.052
			c-0.03,0.008-0.065,0.012-0.102,0.014c-0.073,0.127-0.145,0.255-0.218,0.384c-0.291-0.418,0-0.372,0.218-0.384
			c0.014-0.025,0.027-0.049,0.042-0.074c0.021,0.003,0.043,0.004,0.064,0.007c0.029-0.288-0.011-0.627,0.141-0.824
			c0.445-0.581,0.998-1.078,1.473-1.639c0.838-0.99,0.834-1.244,0.09-2.462c-0.492-0.805-0.428-1.52,0.391-1.723
			c1.34-0.334,2.098-1.333,3.039-2.144c0.716-0.617,1.483-1.068,2.466-0.786c0.01-0.018,0.018-0.037,0.028-0.054
			c0.069-0.035,0.141-0.067,0.205-0.11c0.032-0.052,0.063-0.104,0.096-0.155c-0.023,0.05-0.035,0.113-0.074,0.144
			c-0.006,0.005-0.015,0.007-0.021,0.012c-0.04,0.064-0.079,0.128-0.119,0.192c-0.039-0.013-0.075-0.018-0.114-0.028
			c-0.141,0.253-0.246,0.548-0.453,0.725C19.582,36.807,18.123,39.66,17.561,43.005z M26.932,60.833
			c-0.254,0.579-0.941,0.055-1.398-0.059c-1.271-0.317-1.311-0.42-1.285-1.729c0.008-0.21,0.041-0.419,0.057-0.562
			c-0.066-0.379-0.15-0.693-0.15-1.008c0-0.07,0.342-0.241,0.455-0.193c0.688,0.294,1.361,0.625,2.023,0.971
			c0.178,0.093,0.438,0.277,0.439,0.424C27.084,59.403,27.207,60.211,26.932,60.833z M32.145,62.575
			c-0.205,0.204-0.807,0.134-1.17,0.013c-0.197-0.066-0.412-0.521-0.373-0.763c0.094-0.624,0.258-1.26,0.529-1.827
			c0.189-0.401,0.658-0.538,1.084-0.269c0.408,0.258,1.043,0.302,1.074,1.21C32.982,61.399,32.646,62.071,32.145,62.575z
			 M37.141,64.274c-0.07,0.064-0.414-0.049-0.533-0.174c-0.465-0.49-0.553-1.153-0.16-1.695c0.141-0.193,0.545-0.304,0.805-0.268
			c0.262,0.036,0.49,0.301,0.689,0.435C37.998,63.363,37.6,63.849,37.141,64.274z M42.273,67.643
			c-0.865-0.122-1.744-1.413-1.621-2.38c0.02-0.154,0.232-0.285,0.354-0.426c0.1,0.045,0.24,0.061,0.287,0.135
			c0.424,0.711,0.85,1.424,1.227,2.161C42.574,67.241,42.336,67.652,42.273,67.643z M9.762,76.001
			c-0.029,0.152-0.164,0.285-0.25,0.426c-0.098-0.178-0.234-0.346-0.281-0.536c-0.123-0.503-0.24-1.013-0.283-1.525
			c-0.014-0.139,0.211-0.371,0.373-0.43c0.121-0.044,0.381,0.082,0.465,0.208c0.105,0.159,0.098,0.396,0.135,0.582
			C9.869,75.162,9.838,75.586,9.762,76.001z M104.256,39.404c-0.6-0.441-1.229-0.847-1.863-1.239
			c-1.057-0.657-2.451-0.43-3.104,0.624c-0.559,0.903-0.955,1.909-1.398,2.881c-0.975,2.141-1.842,4.335-2.916,6.423
			c-3.324,6.463-6.723,12.889-10.107,19.319c-0.139,0.263-0.434,0.442-0.658,0.661c-0.164-0.207-0.414-0.388-0.486-0.623
			c-1.486-5.021-3.352-9.909-5.186-14.81c-1.535-4.1-3.016-8.221-4.492-12.343c-0.285-0.796-0.482-1.63-0.652-2.461
			c-0.094-0.47,0.211-0.855,0.664-0.902c0.74-0.075,1.494-0.044,2.24-0.033c1.07,0.015,2.141,0.085,3.207,0.067
			c0.867-0.013,1.385-0.51,1.42-1.407c0.158-4.129,0.686-3.421-3.309-4.132c-1.043-0.187-2.131-0.153-3.201-0.165
			c-2.139-0.022-4.279-0.007-6.42-0.007c-4.49,0.056-8.971,0.069-13.447,0.614c-4.236,0.514-3.504,0.654-3.461,4.053
			c0.01,0.799,0.393,1.164,1.203,1.165c1.713,0.003,3.422-0.054,5.135-0.067c0.941-0.008,1.324,0.278,1.611,1.213
			c0.156,0.507,0.242,1.035,0.355,1.554c0.227,1.042,0.381,2.104,0.686,3.122c1.473,4.908,3.008,9.795,4.473,14.705
			c1.34,4.5,2.602,9.022,3.924,13.527c1.477,5.02,2.844,10.08,4.982,14.871c0.824,1.849,1.812,3.632,2.85,5.371
			c0.355,0.598,1.045,1.318,1.648,1.389c2.219,0.262,4.479,0.415,6.662-0.342c0.857-0.298,1.479-0.84,1.709-1.758
			c0.416-1.656,0.809-3.319,1.26-4.966c0.82-2.979,1.27-6.063,2.572-8.906c3.158-6.896,6.365-13.773,9.439-20.71
			c1.988-4.49,3.789-9.064,5.645-13.613C105.748,41.231,105.402,40.248,104.256,39.404z M64.199,40.701
			c-0.578-0.312-0.908-1.098-1.309-1.705c-0.23-0.351-0.395-0.745-0.576-1.128c-0.23-0.488-0.047-0.838,0.449-0.899
			c0.105-0.013,0.211-0.053,0.314-0.053c0.74-0.005,1.484-0.003,2.223-0.003v-0.01c0.74,0,1.48-0.02,2.219,0.013
			c0.184,0.008,0.477,0.144,0.52,0.283c0.307,0.991,0.572,1.993,0.812,3.002c0.02,0.079-0.311,0.358-0.387,0.327
			c-0.816-0.334-1.645-0.391-2.496-0.2C65.363,40.464,64.604,40.919,64.199,40.701z M66.84,47.054
			c-0.127,0.072-0.51-0.201-0.699-0.391c-0.072-0.072,0.002-0.426,0.117-0.531c0.936-0.852,1.887-1.684,2.859-2.492
			c0.08-0.066,0.428,0.021,0.492,0.131c0.258,0.443,0.455,0.924,0.691,1.424c-0.195,0.303-0.332,0.743-0.518,0.763
			C68.695,46.073,67.766,46.526,66.84,47.054z M68.998,51.828c-0.03,0.032-0.09,0.037-0.154,0.036
			c-0.062,0.108-0.123,0.215-0.188,0.323c-0.214-0.37,0.009-0.325,0.188-0.323c0.023-0.04,0.047-0.08,0.07-0.121
			c0.039,0.002,0.078,0.003,0.117,0.005c0.364-1.008,1.352-1.449,2.043-2.158c0.059-0.062,0.439,0.038,0.492,0.148
			c0.307,0.655,0.576,1.329,0.826,2.011c0.148,0.409-0.078,0.685-0.416,0.492c-0.936-0.53-1.946-0.447-2.945-0.493
			C69.021,51.776,69.007,51.799,68.998,51.828z M70.041,58.163c-0.072-0.059-0.119-0.15-0.209-0.271
			c0.199-0.222,0.369-0.51,0.619-0.671c1.082-0.699,2.156-1.385,2.43-2.786c0.02-0.098,0.1-0.184,0.15-0.274
			c0.129,0.11,0.305,0.196,0.375,0.336c0.232,0.474,0.457,0.956,0.629,1.455c0.258,0.75,0.002,1.272-0.709,1.486
			c-1.002,0.301-2.01,0.58-3.02,0.854C70.234,58.312,70.117,58.225,70.041,58.163z M83.605,80.66
			c-0.369,1.662-0.803,3.319-1.02,5.003c-0.219,1.685-0.061,2.042-2.416,2.057c-0.201-0.053-0.402-0.109-0.604-0.159
			c-0.252-0.063-0.463-0.593-0.297-0.788c0.273-0.321,0.559-0.633,0.848-0.938c0.441-0.464,0.936-0.884,1.326-1.386
			c0.342-0.438,0.396-0.977,0.16-1.514c-0.262-0.598-0.889-1.033-1.529-0.951c-0.521,0.066-1.027,0.252-1.539,0.381
			c-0.299,0.074-0.604,0.196-0.9,0.186c-0.164-0.006-0.416-0.222-0.455-0.382c-0.053-0.252-0.061-0.671,0.09-0.782
			c0.51-0.382,1.137-0.606,1.641-0.993c0.412-0.315,0.75-0.747,1.043-1.18c0.432-0.645,0.207-1.532-0.496-1.929
			c-0.357-0.203-0.781-0.345-1.191-0.386c-0.623-0.063-0.883-0.392-1.1-0.942c-0.141-0.354-0.557-0.867-0.832-0.855
			c-1.943,0.075-2.182-1.35-2.541-2.704c-0.082-0.309-0.225-0.605-0.279-0.917c-0.08-0.463,0.084-0.828,0.559-0.999
			c0.398-0.144,0.84-0.223,1.193-0.44c0.734-0.451,1.18-1.496,1.02-2.191c-0.244-1.047-0.943-1.73-1.961-1.846
			c-0.42-0.048-0.854-0.005-1.279,0.018c-0.779,0.042-1.15-0.436-1.391-1.076c-0.348-0.916-0.16-1.469,0.611-1.871
			c0.941-0.491,1.883-0.986,2.824-1.481c0.428-0.224,0.877-0.108,1.068,0.316c0.219,0.483,0.424,0.976,0.586,1.481
			c1.246,3.861,2.479,7.727,3.717,11.59c0.162,0.508,0.326,1.016,0.494,1.521c0.318,0.953,0.912,1.635,1.801,2.151
			C83.887,79.31,83.871,79.468,83.605,80.66z M113.348,33.229c-0.953-0.059-1.975,0.103-2.844-0.195
			c-3.986-1.367-8.115-1.57-12.312-1.767c-0.584,0-1.225,0.011-1.861-0.002c-1.717-0.033-3.404,0.144-5.039,0.687
			c-0.717,0.237-1.158,0.917-1.184,1.724c-0.041,1.063,0.527,1.804,1.641,2.006c2.197,0.398,4.41,0.606,6.648,0.704
			c3.604,0.155,7.209,0.354,10.666,1.623c1.18,0.434,2.48,0.577,3.74,0.747c1.365,0.185,2.193-0.548,2.334-1.927
			c0.053-0.53,0.102-1.062,0.115-1.594C115.285,33.919,114.705,33.312,113.348,33.229z"/>
	</g>
</g>
</svg>
