<?xml version="1.0" encoding="utf-8"?>
<!-- Generator: Adobe Illustrator 16.0.0, SVG Export Plug-In . SVG Version: 6.00 Build 0)  -->
<!DOCTYPE svg PUBLIC "-//W3C//DTD SVG 1.1//EN" "http://www.w3.org/Graphics/SVG/1.1/DTD/svg11.dtd">
<svg version="1.1" id="Layer_1" xmlns="http://www.w3.org/2000/svg" xmlns:xlink="http://www.w3.org/1999/xlink" x="0px" y="0px"
	 width="120px" height="120px" viewBox="0 0 120 120" style="enable-background:new 0 0 120 120;" xml:space="preserve">
<g id="netflix">
	<g>
		<path style="fill-rule:evenodd;clip-rule:evenodd;" d="M86.415,50.002c0.377-8.656,0.24-17.333,0.357-26
			c0.016-1.232-0.268-2.261-1.016-3.271c-1.586-2.15-3.164-4.32-4.525-6.614c-0.945-1.589-2.232-2.151-3.928-2.27
			c-3.006-0.21-5.98-0.062-8.943,0.478c-2.891,0.525-4.018,1.822-4.064,4.795c-0.043,2.782-0.047,5.563-0.096,8.346
			c-0.004,0.299-0.18,0.596-0.275,0.893c-0.271-0.156-0.621-0.251-0.797-0.48c-1.826-2.364-3.617-4.757-5.436-7.129
			c-1.822-2.375-3.674-4.729-5.494-7.104c-0.625-0.812-1.336-1.274-2.436-1.26c-4.383,0.059-8.771,0.006-13.156,0.069
			c-2.082,0.03-3.277,1.352-3.348,3.469c-0.004,0.105-0.002,0.213-0.002,0.32c0.006,7.384-0.033,14.768,0.035,22.151
			c0.064,6.949,0.316,13.897,0.486,20.844c0.217,8.974,0.422,17.962-0.215,26.943c-0.309,4.369-0.191,8.77-0.227,13.156
			c-0.006,0.622,0.053,1.329,0.34,1.854c1.438,2.623,2.959,5.201,4.457,7.791c0.396,0.686,0.965,1.037,1.799,1.141
			c3.809,0.478,7.611,1.031,11.424,1.493c0.163,0.02,0.394-0.522,0.599-0.848c-0.008,0-0.017-0.001-0.025-0.001
			c-0.002-0.027-0.002-0.055-0.003-0.082c-0.153-0.073-0.339-0.129-0.403-0.249c-0.072-0.138,0.014-0.358,0.031-0.542
			c0.109,0.092,0.273,0.164,0.314,0.279c0.056,0.158,0.05,0.337,0.057,0.512c0.021,0.01,0.043,0.019,0.062,0.029
			c-0.011,0.017-0.022,0.036-0.034,0.054c0.416,0.019,0.833,0.063,1.249,0.046c1.266-0.053,1.637-0.417,1.967-1.641
			c0.562-2.078,0.721-4.176,0.641-6.323c-0.104-2.67-0.041-5.346-0.121-8.018c-0.051-1.81-0.24-3.616-0.34-5.427
			c-0.035-0.633,0.016-1.272,0.041-1.908c0.002-0.064,0.105-0.18,0.156-0.177c0.1,0.005,0.217,0.055,0.287,0.126
			c0.146,0.151,0.334,0.311,0.385,0.498c0.852,3.16,2.314,6.115,2.656,9.466c0.289,2.842,1.217,5.616,1.814,8.431
			c0.311,1.459,0.49,2.945,0.785,4.407c0.188,0.938,0.451,1.148,1.232,1.134c6.514-0.124,13.018-0.693,19.539-0.562
			c0.104,0.002,0.225-0.007,0.312-0.056c0.156-0.088,0.291-0.211,0.436-0.319c-0.076-0.073-0.141-0.182-0.23-0.215
			c-0.602-0.219-1.227-0.384-1.811-0.643c-0.373-0.167-0.84-0.389-1.008-0.717c-0.516-1.005-1.2-1.986-0.982-3.217
			c-0.022-0.001-0.037-0.013-0.061-0.012c-0.009-0.049-0.012-0.102-0.019-0.151c-0.084-0.075-0.167-0.149-0.251-0.226
			c0.074,0.025,0.182,0.029,0.211,0.078c0.023,0.044,0.033,0.095,0.04,0.147c0.029,0.026,0.06,0.054,0.089,0.08
			c-0.006,0.028-0.005,0.055-0.01,0.083c0.626,0.015,0.853,0.548,1.049,0.973c0.664,1.451,1.965,1.883,3.334,2.206
			c0.684,0.161,1.27-0.112,1.67-0.688c0.818-1.18,1.129-2.46,1.043-3.924c-0.131-2.24-0.082-4.492-0.102-6.74
			c-0.02-2.246-0.035-4.494-0.037-6.74c-0.004-2.248,0.014-4.495,0.02-6.742c0.008-2.247,0.172-4.51-0.029-6.738
			c-0.199-2.232-0.094-4.45-0.045-6.666C86.003,62.396,86.147,56.199,86.415,50.002z M54.122,19.091
			c0.062,0.006,0.121,0.012,0.184,0.019c-0.041,0.244-0.084,0.49-0.125,0.735c-0.055-0.08-0.152-0.161-0.15-0.24
			C54.032,19.433,54.087,19.262,54.122,19.091z M51.786,104.932c-0.049,0.256-0.213,0.268-0.365-0.013
			c-0.289-0.535-0.594-1.074-0.775-1.648c-0.055-0.179,0.223-0.545,0.436-0.705c0.307-0.228,0.824,0.131,0.859,0.548
			c0.018,0.202,0.021,0.405,0.037,0.738C51.929,104.129,51.864,104.531,51.786,104.932z M51.675,98.11
			c-0.111-0.173-0.271-0.33-0.326-0.519c-0.268-0.951-0.876-1.836-0.642-2.89c-0.02-0.016-0.034-0.035-0.055-0.051
			c-0.028-0.076-0.054-0.153-0.09-0.226c-0.058-0.046-0.116-0.092-0.174-0.139c0.053,0.031,0.129,0.049,0.156,0.095
			c0.008,0.014,0.011,0.03,0.018,0.044c0.057,0.046,0.115,0.092,0.172,0.138c-0.014,0.047-0.016,0.093-0.027,0.139
			c0.843,0.655,1.299,1.527,1.314,2.595C52.024,97.567,51.796,97.84,51.675,98.11z M50.278,84.679l0.094-0.168l0.039,0.188
			L50.278,84.679z M52.483,82.581c-0.098,0.31-0.234,0.325-0.445,0.101c-0.357-0.383-0.734-0.75-1.111-1.116
			c-0.885-0.865-0.887-0.864-0.879-2.342c0.023-0.159,0.062-0.471,0.121-0.778c0.016-0.09,0.09-0.169,0.139-0.252
			c0.086,0.059,0.213,0.098,0.254,0.18c0.664,1.3,1.32,2.604,1.967,3.912C52.563,82.359,52.513,82.486,52.483,82.581z M50.376,71.27
			c-0.021-0.06,0.227-0.24,0.373-0.326c0.053-0.031,0.234,0.028,0.25,0.082c0.117,0.367,0.219,0.741,0.293,1.118
			c0.014,0.065-0.109,0.158-0.168,0.238c-0.082-0.021-0.211-0.019-0.236-0.069C50.696,71.975,50.509,71.632,50.376,71.27z
			 M71.587,105.168c-0.096-0.119-0.236-0.225-0.275-0.359c-0.044-0.155-0.04-0.325-0.042-0.492c-0.026-0.017-0.056-0.032-0.079-0.05
			c0.005-0.028,0.008-0.056,0.013-0.084c-0.729-0.131-0.758-0.812-0.966-1.335c-0.027-0.069,0.197-0.268,0.336-0.363
			c0.059-0.041,0.229-0.008,0.289,0.052c0.488,0.474,0.449,1.056,0.341,1.646c0.022,0.004,0.04,0.013,0.063,0.016
			c0.002,0.039,0.002,0.079,0.003,0.118c0.143,0.091,0.307,0.172,0.366,0.303C71.702,104.765,71.61,104.982,71.587,105.168z
			 M76.851,106.977c-0.066,0.077-0.123,0.203-0.201,0.22c-0.088,0.019-0.217-0.042-0.295-0.106c-1.201-1.012-1.65-2.442-2.121-3.858
			c-0.096-0.292-0.193-0.595,0.176-0.809c0.252-0.147,1.029,0.05,1.133,0.344c0.465,1.3,0.916,2.604,1.357,3.911
			C76.927,106.762,76.868,106.876,76.851,106.977z M77.558,18.319c-0.035,1.599-0.213,3.192-0.316,4.79
			c-0.049,0.747-0.088,1.496-0.104,2.244c-0.066,3.317-0.01,6.643-0.213,9.951C76.509,42.143,76.642,49,76.214,55.827
			c-0.355,5.664-0.443,11.327-0.643,16.991c-0.076,2.134-0.27,4.266-0.277,6.4c-0.008,1.812,0.217,3.623,0.266,5.436
			c0.104,3.744,0.174,7.489,0.223,11.235c0.01,0.97-0.367,1.314-1.391,1.325c-2.998,0.03-5.996,0.033-8.992,0.025
			c-0.828-0.002-1.059-0.214-1.305-1.086c-2.676-9.578-6.004-18.936-9.582-28.208c-0.846-2.192-1.516-4.524-2.771-6.467
			c-1.246-1.924-1.691-3.835-1.604-6.01c0.047-1.192-0.248-2.317-0.699-3.428c-0.721-1.782-1.371-3.593-2.021-5.401
			c-0.186-0.515-0.34-1.016-0.932-1.195c-0.062,0.415-0.172,0.83-0.182,1.245c-0.068,3.317-0.174,6.636-0.16,9.953
			c0.02,5.137-0.338,10.26-0.449,15.39c-0.162,7.705-0.172,15.414-0.25,23.121c-0.006,0.642,0.051,1.304-0.092,1.916
			c-0.08,0.334-0.471,0.734-0.805,0.839c-0.705,0.224-1.463,0.318-2.203,0.384c-4.566,0.398-3.949,0.541-3.902-3.34
			c0.021-1.713,0.004-3.425,0.004-5.138c0.154-3.311-0.109-6.634,0.479-9.927c0.074-0.416,0.031-0.854,0.031-1.283
			c-0.004-7.493,0.236-14.996-0.08-22.477c-0.34-8.021-0.258-16.049-0.652-24.059c-0.24-4.918-0.264-9.837-0.443-14.752
			c-0.021-0.642-0.047-1.285-0.035-1.927c0.012-0.58,0.307-0.962,0.857-1.21c0.904-0.406,1.844-0.5,2.814-0.529
			c2.242-0.067,4.484-0.191,6.727-0.243c0.184-0.004,0.52,0.359,0.543,0.577c0.225,2.045,0.805,3.928,1.875,5.725
			c0.639,1.075,0.986,2.377,1.236,3.622c1.924,9.556,5.023,18.767,8.113,27.98c0.646,1.925,1.246,3.866,1.939,5.772
			c0.701,1.922,1.209,3.847,1.236,5.927c0.02,1.364,0.381,2.731,0.652,4.085c0.131,0.656,0.605,1.103,1.18,1.453
			c0.547,0.334,1.002,0.291,1.42-0.148c0.531-0.563,0.906-1.188,0.912-1.988c0.01-0.962,0.025-1.926,0.027-2.89
			c0.008-2.676,0.057-5.353-0.01-8.027c-0.047-2.026-0.283-4.049-0.363-6.075c-0.115-2.882-0.084-5.747,0.168-8.643
			c0.416-4.781,1.109-9.563,0.777-14.394c-0.162-2.344-0.273-4.692-0.383-7.04c-0.029-0.639,0.006-1.283,0.047-1.922
			c0.035-0.532,0.525-0.932,1.121-0.844c1.287,0.194,2.541,0.123,3.822-0.123c0.936-0.18,1.918-0.149,2.881-0.174
			C77.499,16.228,77.601,16.287,77.558,18.319z M80.993,47.723c0.002-0.097,0.08-0.192,0.121-0.288
			c0.146,0.128,0.34,0.231,0.428,0.391c0.357,0.637,0.717,1.277,1.004,1.949c0.098,0.236,0.09,0.665-0.061,0.823
			c-0.162,0.17-0.572,0.213-0.834,0.146c-0.254-0.065-0.631-0.326-0.648-0.526C80.937,49.391,80.979,48.555,80.993,47.723z
			 M80.456,61.7c0.008-0.061,0.373-0.167,0.459-0.102c0.984,0.764,1.422,1.775,1.303,3.027c-0.064,0.662-0.688,1.291-1.477,1.396
			c-0.123,0.016-0.375-0.155-0.389-0.26c-0.072-0.622-0.092-1.251-0.131-1.954C80.286,63.152,80.349,62.423,80.456,61.7z
			 M80.179,69.355c0.018-0.238,0.053-0.878,0.127-1.512c0.018-0.16,0.154-0.306,0.238-0.457c0.066,0.082,0.152,0.155,0.195,0.249
			c0.836,1.841,1.756,3.666,1.287,5.796c-0.025,0.102-0.104,0.285-0.121,0.281c-0.184-0.041-0.416-0.062-0.527-0.186
			C80.12,72.14,80.118,72.115,80.179,69.355z M80.2,80.61c0-0.188,0.154-0.376,0.238-0.564c0.168,0.094,0.385,0.148,0.502,0.288
			c0.91,1.098,1.408,2.336,1.213,3.798c-0.043,0.309-0.082,0.619-0.139,0.925c-0.014,0.065-0.115,0.174-0.146,0.164
			c-0.098-0.029-0.223-0.087-0.258-0.169C80.938,83.635,80.2,82.236,80.2,80.61z M82.167,101.699
			c-0.037,0.127-0.254,0.223-0.408,0.289c-0.045,0.02-0.182-0.102-0.23-0.185c-0.365-0.613-0.857-1.181-0.764-1.975
			c0.057-0.47,0.324-0.724,0.51-0.748c0.91-0.104,1.377,0.263,1.289,0.808C82.464,100.498,82.329,101.104,82.167,101.699z
			 M82.669,94.594c-0.027,0.178-0.168,0.426-0.312,0.472c-0.146,0.048-0.436-0.061-0.533-0.194c-0.689-0.939-1.127-1.971-1.09-3.171
			c0.012-0.471,0.357-0.728,0.826-0.56c0.613,0.219,1.148,0.506,1.158,1.271v1.549C82.726,93.765,82.733,94.186,82.669,94.594z
			 M82.72,55.061c-0.08,0.833,0.146,1.737-0.449,2.449c-0.162,0.194-0.545,0.26-0.832,0.271c-0.16,0.006-0.457-0.199-0.477-0.343
			c-0.127-0.829-0.189-1.667-0.266-2.416c0.104-0.834,0.188-1.568,0.307-2.296c0.01-0.058,0.369-0.153,0.451-0.088
			C82.235,53.25,82.821,53.977,82.72,55.061z M83.319,42.211c-0.047,0.295-0.17,0.59-0.314,0.855
			c-0.119,0.22-0.658-0.131-0.936-0.575c-0.506-0.808-0.955-1.622-0.873-1.91c0.186-0.92,0.211-1.126,0.27-1.321
			c0.027-0.095,0.117-0.241,0.176-0.241c0.174,0.001,0.412,0.005,0.512,0.112C82.956,39.995,83.515,40.972,83.319,42.211z
			 M83.392,34.918c-0.012,0.094-0.094,0.205-0.176,0.252c-0.043,0.024-0.195-0.049-0.232-0.115c-1.127-2.061-1.867-4.21-1.449-6.609
			c0.016-0.098,0.082-0.202,0.156-0.269c0.039-0.034,0.189-0.023,0.215,0.015c0.807,1.321,1.947,2.511,1.803,4.229
			C83.636,33.256,83.507,34.086,83.392,34.918z M84.021,25.922c-0.025,0.095-0.096,0.199-0.178,0.245
			c-0.043,0.024-0.197-0.048-0.223-0.11c-0.242-0.56-0.475-1.124-0.672-1.699c-0.012-0.03,0.297-0.17,0.459-0.26
			C84.091,24.38,84.292,24.959,84.021,25.922z"/>
	</g>
</g>
</svg>
