<?xml version="1.0" encoding="utf-8"?>
<!-- Generator: Adobe Illustrator 16.0.0, SVG Export Plug-In . SVG Version: 6.00 Build 0)  -->
<!DOCTYPE svg PUBLIC "-//W3C//DTD SVG 1.1//EN" "http://www.w3.org/Graphics/SVG/1.1/DTD/svg11.dtd">
<svg version="1.1" id="Layer_1" xmlns="http://www.w3.org/2000/svg" xmlns:xlink="http://www.w3.org/1999/xlink" x="0px" y="0px"
	 width="120px" height="120px" viewBox="0 0 120 120" style="enable-background:new 0 0 120 120;" xml:space="preserve">
<g id="reddit">
	<g>
		<path style="fill-rule:evenodd;clip-rule:evenodd;" d="M114.397,53.755c-0.735-0.835-1.598-1.536-2.089-2.59
			c-0.971-2.082-2.674-2.924-4.949-2.792c-1.006,0.057-2.074,0.121-3.025-0.141c-4.178-1.148-8.029-0.245-11.766,1.616
			c-0.729,0.362-1.469,0.714-2.141,1.167c-0.743,0.501-1.318,0.293-1.896-0.232c-0.076-0.069-0.154-0.136-0.231-0.201
			c-3.018-2.458-6.244-4.523-10.087-5.464c-0.486-0.121-0.95-0.36-1.406-0.579c-2.672-1.284-5.418-2.288-8.426-2.418
			c-0.823-0.035-1.054-0.445-0.889-1.211c0.404-1.881,0.883-3.752,1.173-5.648c0.58-3.81,1.078-7.633,1.221-11.491
			c0.033-0.933,0.493-1.18,1.449-0.775c3.28,1.396,6.646,2.466,10.191,2.978c0.754,0.109,1.828,0.054,2.146,0.867
			c0.219,0.558-0.216,1.351-0.271,2.046c-0.074,0.909-0.135,1.83-0.074,2.737c0.085,1.332,0.467,2.611,1.277,3.688
			c1.521,2.022,3.512,3.397,6.031,3.821c1.91,0.319,3.872,0.365,5.759-0.087c4.968-1.193,8.862-3.865,11.399-8.42
			c1.611-2.887,1.336-5.621-0.302-8.34c-0.417-0.694-0.907-1.345-1.31-2.045c-1.55-2.694-3.941-3.971-6.968-4.254
			c-2.774-0.258-5.479,0.247-8.153,0.816c-1.043,0.221-1.994,0.966-2.93,1.56c-0.504,0.319-0.896,0.822-1.328,1.251
			c-0.398,0.395-0.811,0.479-1.361,0.26c-2.549-1.006-5.118-1.956-7.666-2.961c-3.536-1.394-7.201-1.082-10.841-0.759
			c-1.614,0.143-2.796,1.132-3.349,2.737c-0.133,0.384-0.287,0.759-0.405,1.146c-1.61,5.236-3.235,10.465-4.813,15.71
			c-0.466,1.549-0.798,3.121-0.839,4.772c-0.031,1.292-0.627,1.687-1.963,1.798c-4.552,0.379-9.083,0.926-13.55,1.887
			c-3.074,0.661-6.146,1.345-9.057,2.579c-0.841,0.356-1.67,0.969-2.521,0.998c-0.836,0.03-1.693-0.532-2.543-0.829
			c-0.288-0.1-0.574-0.249-0.869-0.273c-1.36-0.105-2.496-0.775-3.696-1.329c-1.093-0.502-2.264-0.978-3.444-1.133
			c-4.46-0.594-8.463,0.543-11.868,3.547c-1.943,1.714-3.544,3.726-3.982,6.329c-0.705,4.169,0.08,8.099,2.525,11.606
			c0.451,0.647,1.045,1.381,1.737,1.643c1.781,0.67,2.413,1.92,2.486,3.683c0.025,0.592,0.388,1.165,0.43,1.759
			c0.177,2.588,1.116,4.947,2.178,7.25c2.812,6.091,7.391,10.635,12.902,14.285c4.411,2.92,8.982,5.555,14.192,6.842
			c0.393,0.098,0.772,0.251,1.152,0.391c4.332,1.578,8.794,2.398,13.411,2.371c2.845-0.019,5.691-0.004,8.538-0.004
			c0,0.068,0.002,0.137,0.002,0.206c3.857-0.103,7.715-0.198,11.574-0.313c0.503-0.016,1.006-0.123,1.503-0.213
			c3.433-0.631,6.593-1.993,9.625-3.672c1.159-0.643,2.318-1.262,3.646-1.49c1.231-0.212,2.268-0.838,3.286-1.523
			c2.385-1.607,4.299-3.711,6.238-5.795c0.757-0.814,1.512-1.649,2.379-2.34c1.738-1.388,2.748-3.201,3.464-5.258
			c0.659-1.889,0.477-3.81,0.441-5.734c-0.013-0.801-0.078-1.603-0.062-2.404c0.02-0.909-0.156-1.951,0.227-2.692
			c0.466-0.903,1.758-0.848,2.635-1.313c3.615-1.916,6.034-4.742,6.523-8.938c0.119-1.014,0.133-2.006,0.886-2.837
			c0.231-0.254,0.221-0.759,0.254-1.156C116.373,56.591,115.57,55.09,114.397,53.755z M91.641,28.384
			c0.406-0.811,0.832-1.616,1.312-2.382c0.318-0.508,0.7-0.995,1.131-1.408c0.359-0.347,0.82-0.586,1.373-0.303
			c1.002,0.518,2.064,0.811,3.186,0.976c0.575,0.085,1.193,0.364,1.641,0.737c2.128,1.777,2.196,1.974,0.033,3.481
			c-1.932,1.347-3.949,2.494-6.335,2.816c-0.202,0.028-0.402,0.054-0.806,0.107c-0.19-0.137-0.642-0.295-0.777-0.597
			c-0.376-0.824-0.648-1.702-0.897-2.577C91.429,28.981,91.514,28.632,91.641,28.384z M22.113,53.091
			c-0.146,0.256-0.36,0.486-0.583,0.685c-1.583,1.417-3.205,2.792-4.752,4.247c-0.728,0.685-1.317,1.514-1.974,2.275
			c-0.235,0.274-0.803,0.189-1.065-0.095c-0.66-0.71-0.818-1.636-1.011-2.506c-0.261-1.169-0.333-2.381-0.486-3.574
			c0.867-1.06,2.155-1.447,3.288-2.091c1.288-0.733,2.76-0.575,4.184-1.004c0.994,0.119,1.844,0.598,2.417,1.509
			C22.215,52.67,22.197,52.947,22.113,53.091z M99.049,74.663c-0.351,2.099-0.711,4.198-1.154,6.278
			c-0.303,1.416-0.959,2.654-2.195,3.539c-0.904,0.648-1.716,1.428-2.619,2.08c-0.479,0.345-1.043,0.689-1.607,0.779
			c-1.203,0.191-2.141,0.799-2.729,1.764c-1.006,1.656-2.559,2.582-4.168,3.442c-1.431,0.763-2.896,1.472-4.387,2.106
			c-1.967,0.838-3.978,1.451-6.189,1.246c-2.152-0.198-4.195,0.651-6.309,0.883c-0.299,0.034-0.584,0.218-0.881,0.234
			c-4.447,0.254-8.867,0.959-13.358,0.441c-3.024-0.349-6.048-0.66-8.99-1.441c-2.95-0.783-5.748-1.967-8.35-3.59
			c-0.74-0.465-1.074-1.032-1.132-1.969c-0.091-1.49-1.058-2.369-2.388-2.026c-1.662,0.429-2.731-0.108-3.696-1.338
			c-0.542-0.69-0.555-0.737,0.132-1.769c0.272-0.41,0.544-0.863,0.649-1.334c0.208-0.922-0.496-1.913-1.407-2.012
			c-0.798-0.088-1.609-0.051-2.41-0.122c-0.143-0.013-0.325-0.256-0.378-0.427c-0.05-0.161-0.024-0.455,0.085-0.54
			c0.474-0.367,1.011-0.655,1.486-1.024c0.479-0.369,0.941-0.773,1.353-1.215c0.347-0.379,0.571-0.837,0.334-1.389
			c-0.274-0.634-0.802-0.968-1.436-0.929c-0.797,0.048-1.6,0.21-2.373,0.421c-1.391,0.379-1.74,0.191-2.021-1.256
			c-0.039-0.197-0.107-0.429-0.044-0.6c0.132-0.355,0.259-0.82,0.54-0.992c0.683-0.424,1.477-0.664,2.183-1.059
			c0.703-0.391,1.391-0.827,2.009-1.339c0.648-0.536,0.735-1.218,0.423-1.921c-0.317-0.716-0.837-1.113-1.635-1.156
			c-1.04-0.053-2.002,0.209-2.958,0.589c-0.209,0.083-0.677-0.046-0.77-0.218c-0.112-0.207,0.017-0.57,0.1-0.85
			c0.203-0.684,0.872-0.807,1.405-1.048c0.757-0.345,1.416-0.753,1.854-1.499c0.683-1.162,0.799-2.218-0.14-3.354
			c-0.779-0.942-0.679-1.111,0.044-2.059c1.327-1.74,3.08-2.997,4.998-3.91c4.302-2.048,8.675-3.92,13.409-4.83
			c3.299-0.633,6.583-1.184,9.958-1.028c1.52,0.068,3.047,0.011,4.57,0.011c3.859-0.067,7.727-0.125,11.545,0.547
			c1.69,0.297,3.364,0.707,5.02,1.167c1.58,0.436,3.035,1.197,4.227,2.336c1.557,1.486,3.301,2.331,5.502,1.985
			c0.875-0.135,1.567,0.254,2.209,0.807c1.765,1.527,3.574,3.006,5.307,4.57c1.282,1.158,2.416,2.461,3.201,4.035
			c0.814,1.635,1.617,3.279,2.523,4.863C99.139,71.863,99.287,73.23,99.049,74.663z M106.77,64.866
			c-0.798,0.816-1.75,1.349-2.811,1.712c-0.44,0.152-0.843-0.027-1.037-0.391c-1.778-3.307-4.023-6.277-6.469-9.107
			c-0.354-0.412-0.165-0.998,0.375-1.164c0.77-0.233,1.541-0.516,2.332-0.608c0.895-0.106,1.811-0.024,2.717-0.024
			c0.008-0.069,0.013-0.138,0.018-0.204c1.395,0.195,2.791,0.358,4.178,0.594c0.963,0.163,1.631,0.798,2.031,1.657
			C109.338,59.977,108.816,62.771,106.77,64.866z M75.088,78.895c-0.494,0.08-0.984,0.251-1.443,0.455
			c-1.943,0.869-3.875,1.763-5.811,2.648c-1.753,0.803-3.46,1.721-5.264,2.382c-2.693,0.987-5.459,1.382-8.366,0.872
			c-2.229-0.39-4.331-1.017-6.337-2.043c-1.807-0.924-3.642-1.794-5.46-2.697c-0.669-0.332-1.349-0.435-2.052-0.134
			c-1.694,0.722-2.114,2.814-0.712,3.976c1.247,1.034,2.583,1.973,3.953,2.838c2.405,1.518,4.866,2.99,7.704,3.527
			c1.884,0.355,3.813,0.475,5.516,0.675c1.846-0.192,3.488-0.223,5.064-0.555c3.404-0.72,6.555-2.159,9.521-3.942
			c1.381-0.83,2.655-1.882,3.843-2.979c0.728-0.674,1.271-1.582,1.765-2.461c0.349-0.621,0.408-1.413,0.014-2.052
			C76.579,78.693,75.791,78.78,75.088,78.895z M43.234,72.197c5.216-0.07,8.205-5.006,6.436-9.578
			c-0.799-2.065-2.754-4.167-5.844-3.978c-0.807,0.05-1.627,0.05-2.413,0.213c-0.573,0.121-1.203,0.356-1.626,0.742
			c-1.292,1.173-2.425,2.476-2.24,4.423c0.038,0.401,0.006,0.81,0.006,1.214h-0.011c0,0.507-0.026,1.013,0.005,1.518
			C37.805,70.92,39.51,72.245,43.234,72.197z M76.424,59.979c-0.707-0.041-1.428-0.034-2.131,0.046
			c-3.199,0.371-5.082,2.831-4.496,5.992c0.344,1.855,1.301,3.4,2.93,4.452c0.17,0.109,0.35,0.217,0.539,0.28
			c2.082,0.689,6.076-0.369,6.904-3.492c0.18-0.678,0.155-1.408,0.213-1.991c-0.062-0.738-0.066-1.354-0.178-1.95
			C79.84,61.35,78.416,60.092,76.424,59.979z"/>
	</g>
</g>
</svg>
