<?xml version="1.0" encoding="utf-8"?>
<!-- Generator: Adobe Illustrator 16.0.0, SVG Export Plug-In . SVG Version: 6.00 Build 0)  -->
<!DOCTYPE svg PUBLIC "-//W3C//DTD SVG 1.1//EN" "http://www.w3.org/Graphics/SVG/1.1/DTD/svg11.dtd">
<svg version="1.1" id="Layer_1" xmlns="http://www.w3.org/2000/svg" xmlns:xlink="http://www.w3.org/1999/xlink" x="0px" y="0px"
	 width="120px" height="120px" viewBox="0 0 120 120" style="enable-background:new 0 0 120 120;" xml:space="preserve">
<g id="newsvine">
	<g>
		<path style="fill-rule:evenodd;clip-rule:evenodd;" d="M101.845,69.637c-0.089-1.656-0.27-3.31-0.288-4.966
			c-0.044-3.739-0.016-7.48-0.016-11.223c-0.293-5.598-0.009-11.194-0.703-16.798c-0.563-4.562-1.299-9.011-3.165-13.239
			c-0.543-1.226-1.04-2.521-1.244-3.834c-0.531-3.382-2.104-6.263-3.917-9.073c-1.891-2.928-4.574-4.703-7.816-5.846
			c-3.688-1.302-7.521-1.406-11.344-1.641c-1.028-0.062-2.073,0.058-3.106,0.131c-1.138,0.08-2.272,0.229-3.408,0.3
			c-2.275,0.143-4.542,0.223-6.816,0.507c-3.914,0.49-7.741,1.39-11.624,2.01c-2.452,0.392-4.868,1.003-7.303,1.501
			c-2.147,0.438-4.223,1.069-6.144,2.138c-1.542,0.856-3.135,1.646-4.578,2.647c-2.569,1.778-4.984,3.734-6.355,6.688
			c-0.343,0.742-0.935,1.368-1.397,2.058c-1.341,2.001-2.434,4.126-2.739,6.544c-0.521,4.112-1.09,8.227-1.388,12.359
			c-0.252,3.52-0.147,7.062-0.201,10.594c-0.016,0.936,0.082,1.891-0.071,2.802c-0.198,1.152-0.034,2.256,0.035,3.394
			c0.271,4.35,0.896,8.674,0.799,13.052c-0.059,2.694,0.002,5.396,0.562,8.063c0.316,1.519,0.59,3.07,0.641,4.614
			c0.139,4.366,0.702,8.685,1.186,13.015c0.364,3.256,1.228,6.222,3.112,8.993c1.392,2.05,3.024,3.651,5.174,4.771
			c1.009,0.526,2.064,0.968,3.119,1.4c0.922,0.378,0.947,0.35,0.732,1.274c-0.258,1.114-0.541,2.225-0.137,3.37
			c0.298,0.85,1.399,1.214,1.999,0.564c0.696-0.753,1.278-1.613,1.887-2.444c0.551-0.752,0.958-0.958,1.859-0.623
			c1.564,0.584,3.156,0.972,4.824,1.148c0.801,0.085,1.61,0.416,2.337,0.789c1.126,0.581,2.293,0.872,3.537,1.102
			c2.68,0.492,5.373,0.469,8.069,0.546c1.347,0.038,2.674,0.187,4.014,0.372c2.664,0.365,5.367,0.509,8.045-0.203
			c1.394-0.373,2.841-0.679,4.278-0.74c3.473-0.149,6.759-0.921,9.895-2.419c0.733-0.35,1.561-0.655,2.355-0.69
			c1.566-0.07,2.766-0.771,3.873-1.77c1.712-1.539,3.226-3.216,4.18-5.365c0.631-1.419,1.426-2.768,2.146-4.148
			c1.551-2.981,2.479-6.132,2.81-9.486c0.254-2.574,0.622-5.142,1.026-7.698C101.335,79.357,102.114,74.544,101.845,69.637z
			 M58.794,13.431c-0.493,2.26-0.358,4.55-0.393,6.828c-0.082,5.4-0.114,10.801-0.185,16.202c-0.001,0.108-0.224,0.239-0.366,0.312
			c-0.06,0.029-0.189-0.06-0.274-0.111c-0.089-0.052-0.189-0.107-0.244-0.188c-1.173-1.713-2.328-3.437-3.509-5.142
			c-0.438-0.628-0.613-1.293-0.571-2.051c0.04-0.724,0.042-1.454,0.008-2.178c-0.08-1.74-0.89-3.196-1.963-4.486
			c-1.101-1.325-4.161-1.938-5.755-1.251c-1.45,0.626-2.763,1.397-3.53,2.896c-0.471,0.918-1.142,1.731-1.671,2.624
			c-0.787,1.333-0.772,2.802-0.421,4.229c0.164,0.666,0.62,1.318,1.096,1.836c0.771,0.835,1.689,1.528,2.504,2.324
			c0.957,0.939,2.059,1.362,3.394,1.141c0.41-0.067,0.828-0.091,1.233-0.18c0.478-0.104,0.783,0.097,1.024,0.474
			c1.731,2.711,3.465,5.42,5.194,8.133c0.948,1.487,1.85,3.006,2.849,4.459c0.495,0.725,0.73,1.458,0.715,2.322
			c-0.051,2.699-0.068,5.401-0.127,8.101c-0.006,0.275-0.22,0.547-0.336,0.819c-0.186-0.084-0.409-0.13-0.554-0.26
			c-2.315-2.079-4.548-4.254-7.203-5.926c-0.299-0.188-0.512-0.665-0.576-1.042c-0.123-0.711-0.068-1.453-0.163-2.172
			c-0.308-2.352-1.506-4.057-3.767-4.898c-2.283-0.852-4.411-0.241-6.07,1.297c-1.268,1.176-2.126,2.781-2.085,4.703
			c0.044,1.896,0.513,3.699,1.055,5.48c0.417,1.376,1.365,2.205,2.866,2.535c1.598,0.351,3.026,0.316,4.447-0.598
			c0.937-0.603,1.037-0.498,1.825,0.254c2.633,2.504,5.271,5,7.909,7.496c0.226,0.214,0.445,0.465,0.715,0.597
			c1.6,0.776,2.079,2.019,1.984,3.771c-0.145,2.589-0.038,5.19-0.038,7.788c0,0,0.001,0,0.004,0c0,2.908,0.008,5.817-0.008,8.726
			c-0.004,0.956-0.346,1.182-1.059,0.724c-2.8-1.798-5.522-3.692-7.84-6.108c-0.596-0.622-1.006-1.209-0.757-2.2
			c0.224-0.884,0.149-1.855,0.125-2.787c-0.049-1.872-0.946-3.403-2.24-4.649c-0.562-0.544-1.397-0.909-2.171-1.107
			c-2.225-0.567-4.32-0.03-6.283,1.06c-1.161,0.644-1.944,1.664-2.084,2.953c-0.289,2.682-0.299,5.341,0.297,8.038
			c0.565,2.568,4.774,4.282,6.833,3.082c0.446-0.261,0.871-0.602,1.354-0.754c0.35-0.111,0.779,0.017,1.173,0.062
			c0.087,0.011,0.172,0.111,0.242,0.184c3.344,3.483,7.493,5.893,11.431,8.584c0.944,0.646,1.325,1.393,1.428,2.552
			c0.343,3.865-0.33,7.659-0.614,11.479c-0.061,0.812-0.61,1.196-1.498,1.263c-1.592,0.119-3.148-0.169-4.55-0.829
			c-2.377-1.12-4.81-1.092-7.312-0.826c-0.709,0.076-1.434,0.08-2.148,0.042c-2.186-0.117-1.863-0.573-0.998-1.985
			c0.976-1.592,1.398-3.232,0.865-5.043c-0.074-0.25-0.4-0.572-0.634-0.593c-0.364-0.033-0.95,0.04-1.097,0.278
			c-0.856,1.426-1.771,2.799-2.905,4.021c-0.433,0.465-0.822,0.437-1.254-0.105c-0.191-0.244-0.38-0.492-0.564-0.742
			c-0.751-1.012-0.882-2.008-0.161-3.146c0.604-0.954,1.085-2.001,1.496-3.055c0.173-0.44,0.087-1.015,0.01-1.512
			c-0.095-0.631-0.969-0.954-1.479-0.603c-0.085,0.059-0.171,0.117-0.262,0.164c-0.7,0.356-0.854,1.507-1.925,1.316
			c-0.193-0.792-0.289-1.624-0.598-2.366c-0.487-1.165-0.335-2.206,0.235-3.271c0.24-0.452,0.413-0.951,0.543-1.447
			c0.2-0.771-0.058-1.523-0.871-1.756c-0.95-0.271-1.371-0.808-1.555-1.682c-0.442-2.129-0.894-4.257-1.328-6.388
			c-0.179-0.877-0.008-1.636,0.779-2.193c0.588-0.419,1.149-0.88,1.711-1.335c0.586-0.477,0.823-1.269,0.562-1.946
			c-0.239-0.626-0.707-1.005-1.377-1.12c-0.203-0.034-0.416-0.034-0.616-0.08c-0.675-0.152-1.582,0.45-2.011-0.317
			c-0.326-0.588-0.218-1.403-0.398-2.091c-0.361-1.396-0.053-2.652,0.602-3.889c1.166-2.199,2.299-4.419,3.437-6.634
			c0.284-0.554,0.568-1.111,0.791-1.691c0.218-0.572-0.211-1.493-0.807-1.879c-0.481-0.31-1.291-0.272-1.72,0.221
			c-0.743,0.856-1.396,1.791-2.106,2.679c-0.114,0.142-0.329,0.204-0.495,0.305c-0.076-0.188-0.193-0.371-0.225-0.566
			c-0.141-0.959,0.11-1.837,0.518-2.707c0.881-1.877,1.741-3.765,2.552-5.674c0.316-0.75,0.574-1.552,0.684-2.354
			c0.122-0.863-0.959-1.544-1.712-1.142c-0.642,0.342-1.24,0.755-1.874,1.112c-0.286,0.162-0.658,0.146-0.658-0.247
			c-0.011-2.796-0.282-5.597,0.237-8.384c0.246-1.32,0.249-2.692,0.539-4.002c1.082-4.892,2.882-9.509,5.496-13.802
			c1.611-2.645,3.88-4.565,6.511-6.109c1.43-0.84,2.867-1.663,4.312-2.481c0.817-0.463,1.663-0.885,2.642-0.782
			c1.093,0.116,2.009-0.366,2.978-0.74c2.511-0.969,5.038-1.901,7.573-2.809c0.891-0.317,1.305,0.057,1.297,1.083
			C58.871,12.188,58.926,12.831,58.794,13.431z M92.228,88.07c-0.762,2.797-1.388,5.631-2.042,8.456
			c-0.336,1.447-0.998,2.731-1.878,3.897c-1.062,1.409-2.184,2.775-3.312,4.133c-2.396,2.883-5.502,4.324-9.23,4.357
			c-2.665,0.022-5.329-0.058-7.993-0.093c-0.01,0.021-0.017,0.044-0.027,0.064c-0.059,0.019-0.116,0.036-0.174,0.057
			c-0.053,0.06-0.104,0.119-0.156,0.179c0.029-0.054,0.042-0.129,0.085-0.155c0.021-0.013,0.048-0.015,0.071-0.023
			c0.036-0.041,0.072-0.082,0.107-0.123c0.031,0,0.062,0.001,0.094,0.002c0.155-0.336,0.261-0.715,0.496-0.976
			c2.096-2.305,4.235-4.568,6.323-6.881c0.531-0.59,1.062-0.889,1.883-0.789c1.683,0.203,3.361,0.134,4.738-1.009
			c0.87-0.722,1.816-1.477,2.38-2.424c2.416-4.048-0.706-8.282-3.59-9.074c-4.416-1.214-7.229,1.267-7.811,5.177
			c-0.047,0.307-0.047,0.623-0.035,0.934c0.119,2.906,0.188,2.211-1.97,4.132c-1.396,1.241-2.7,2.581-4.059,3.865
			c-0.328,0.309-0.843,0.137-0.921-0.32c-0.241-1.428-0.621-2.859-0.634-4.292c-0.042-4.779,0.066-9.56,0.089-14.339
			c0.004-0.811,0.241-1.403,0.998-1.75c3.518-1.608,6.562-3.979,9.748-6.112c1.287-0.862,2.407-1.351,4.021-0.857
			c1.948,0.597,3.646-0.382,5.091-1.622c1.2-1.032,2.021-2.386,2.35-3.949c0.457-2.177,0.371-4.341-0.55-6.407
			c-0.165-0.366-0.414-0.76-0.734-0.978c-1.397-0.948-2.976-1.453-4.656-1.535c-1.438-0.071-2.593,0.736-3.656,1.544
			c-0.541,0.41-0.92,1.121-1.195,1.771c-0.438,1.049-0.687,2.178-1.104,3.236c-0.222,0.556-0.525,1.182-0.979,1.525
			c-2.729,2.065-5.514,4.06-8.28,6.074c-0.358,0.262-0.921,0.062-0.962-0.337c-0.039-0.412-0.077-0.825-0.075-1.237
			c0.009-4.468,0.046-8.938,0.032-13.404c-0.006-1.154,0.184-2.059,1.525-2.287c0.991-0.168,1.602-0.936,2.241-1.604
			c2.438-2.554,4.859-5.123,7.254-7.716c0.463-0.5,0.924-0.803,1.606-0.729c0.516,0.055,1.033,0.11,1.552,0.145
			c3.592,0.24,6.35-2.42,6.389-6.088c0.02-1.789-0.324-3.508-0.969-5.167c-1.058-2.718-4.017-3.928-6.646-2.567
			c-1.864,0.964-3.503,2.224-3.781,4.599c-0.199,1.689-1.049,3.026-2.24,4.296c-2.056,2.191-3.884,4.596-5.812,6.904
			c-0.061,0.071-0.225,0.144-0.277,0.111c-0.149-0.088-0.367-0.22-0.381-0.352c-0.064-0.618-0.092-1.242-0.092-1.864
			c-0.003-3.013-0.027-6.027,0.018-9.04c0.115-7.585-0.457-15.15-0.543-22.73c-0.015-1.454-0.047-2.909-0.031-4.363
			c0.009-0.946,0.359-1.251,1.372-1.22c0.725,0.022,1.457,0.059,2.162,0.204c2.643,0.546,5.242,1.218,7.699,2.402
			c1.581,0.766,3.21,1.492,4.891,1.99c2.45,0.729,4.186,2.277,5.466,4.357c1.144,1.861,2.315,3.681,3.696,5.381
			c1.165,1.433,1.347,3.255,1.432,5.012c0.35,7.26,0.612,14.522,0.941,21.783c0.061,1.343,0.318,2.677,0.392,4.02
			c0.291,5.285,0.594,10.57,0.797,15.86c0.114,3.01,0.018,6.026,0.058,9.04C93.468,82.195,93.028,85.146,92.228,88.07z"/>
	</g>
</g>
</svg>
