<?xml version="1.0" encoding="utf-8"?>
<!-- Generator: Adobe Illustrator 16.0.0, SVG Export Plug-In . SVG Version: 6.00 Build 0)  -->
<!DOCTYPE svg PUBLIC "-//W3C//DTD SVG 1.1//EN" "http://www.w3.org/Graphics/SVG/1.1/DTD/svg11.dtd">
<svg version="1.1" id="Layer_1" xmlns="http://www.w3.org/2000/svg" xmlns:xlink="http://www.w3.org/1999/xlink" x="0px" y="0px"
	 width="120px" height="120px" viewBox="0 0 120 120" style="enable-background:new 0 0 120 120;" xml:space="preserve">
<g id="slashdot">
	<g>
		<path style="fill-rule:evenodd;clip-rule:evenodd;" d="M81.005,21.907c0.334-0.936,1.025-1.814,1.101-2.756
			c0.083-1.058-0.346-2.156-0.549-3.238c-0.021-0.107-0.013-0.224-0.037-0.331c-0.402-1.749-1.448-2.88-3.171-2.927
			c-3.771-0.102-7.562-0.449-11.297,0.492c-2.245,0.567-4.452,0.15-6.541-0.665c-1.315-0.513-2.501-1.366-3.744-2.068
			c-1.09-0.618-2.149-0.551-3.102,0.244c-0.592,0.496-1.212,1.033-1.606,1.68c-1.39,2.276-2.707,4.572-3.414,7.206
			c-0.95,3.54-1.987,7.069-3.244,10.51c-2.823,7.732-5.811,15.402-8.713,23.104c-0.508,1.353-0.963,2.728-1.383,4.108
			c-2.298,7.552-4.653,15.086-6.846,22.668c-2.408,8.326-4.688,16.689-6.966,25.054c-0.791,2.906,0.767,3.879,3.002,3.915
			c2.896,0.047,5.79,0.141,8.687,0.212c0.001-0.045,0.002-0.088,0.004-0.132c2.779,0.104,5.561,0.172,8.336,0.329
			c1.17,0.067,2.27-0.146,3.148-0.836c0.839-0.659,1.644-0.954,2.725-0.954c1.876-0.002,3.082-0.992,3.588-2.873
			c0.578-2.145,1.302-4.251,1.904-6.391c1.87-6.648,4.163-13.136,7.057-19.42c1.674-3.635,3.3-7.315,4.58-11.101
			c4.351-12.855,8.924-25.625,13.849-38.271C79.34,26.981,80.108,24.421,81.005,21.907z M75.004,21.677
			c-0.81,1.835-1.627,3.663-2.444,5.493c-4.353,9.76-8.271,19.693-11.788,29.789c-2.562,7.355-5.264,14.654-8.568,21.73
			c-2.021,4.33-3.728,8.81-4.95,13.455c-0.226,0.856-0.466,1.725-0.838,2.525c-0.15,0.322-0.736,0.732-1.013,0.661
			c-1.686-0.427-3.319,0.385-4.383,0.189c-2.265,0-3.932,0.002-5.598-0.008c-0.093,0-0.207-0.103-0.268-0.188
			c-0.025-0.036,0.036-0.197,0.095-0.226c0.595-0.283,1.252-0.468,1.788-0.834c1.43-0.975,1.403-2.987-0.032-3.932
			c-0.556-0.361-1.214-0.569-1.757-0.945c-0.183-0.128-0.268-0.605-0.183-0.846c0.097-0.271,0.434-0.635,0.673-0.639
			c0.654-0.015,1.319,0.24,1.971,0.201c0.76-0.045,1.562-0.165,2.251-0.468c1.781-0.783,2.327-2.9,1.205-4.47
			c-0.253-0.354-0.68-0.582-0.938-0.934c-1.284-1.735-2.772-3.346-1.544-5.854c0.722-1.477,0.993-3.177,1.475-4.773
			c0.208-0.689,0.633-1.135,1.381-1.267c0.655-0.114,1.327-0.224,1.935-0.472c1.974-0.81,2.353-2.382,0.975-3.956
			c-0.363-0.415-0.849-0.72-1.243-1.112c-0.503-0.5-0.308-1.326,0.402-1.627c0.508-0.216,1.088-0.274,1.572-0.524
			c1.349-0.7,1.777-1.983,1.157-3.37c-0.182-0.405-0.46-0.763-0.671-1.155c-0.312-0.582-0.06-1.114,0.297-1.531
			c0.352-0.411,0.797-0.785,1.274-1.035c1.108-0.58,1.691-1.485,1.64-2.69c-0.052-1.235,0.547-1.809,1.635-2.154
			c0.975-0.312,1.773-0.891,2.28-1.839c0.521-0.974,0.577-1.939-0.075-2.828c-0.383-0.523-0.973-0.887-1.405-1.379
			c-0.188-0.214-0.364-0.625-0.283-0.853c0.297-0.836,0.667-1.653,1.093-2.431c0.131-0.241,0.512-0.445,0.801-0.479
			c0.661-0.077,1.334-0.024,2.003-0.049c1.39-0.049,2.262-0.783,2.729-2.07c0.39-1.072,0.025-2.337-1.064-3.26
			c-0.417-0.354-0.964-0.546-1.42-0.86c-0.152-0.106-0.329-0.424-0.274-0.533c0.133-0.267,0.356-0.59,0.612-0.671
			c0.412-0.131,0.879-0.102,1.322-0.11c1.181-0.026,2.132-0.581,3.01-1.293c1.281-1.042,1.293-2.737,0.002-3.718
			c-0.529-0.4-1.151-0.676-1.708-1.043c-0.15-0.098-0.344-0.395-0.297-0.48c0.146-0.271,0.359-0.598,0.62-0.689
			c0.405-0.139,0.874-0.081,1.312-0.141C61.755,25.718,62.62,25,62.67,23.04c0.028-1.108,0.548-1.51,1.288-2.075
			c0.765-0.585,1.388-0.951,2.401-0.618c1.047,0.344,2.174,0.452,3.269,0.649c1.545,0.28,3.087,0.365,4.634-0.035
			c0.275-0.071,0.604,0.065,0.908,0.106C75.116,21.272,75.088,21.486,75.004,21.677z M98.317,90.54
			c-1.479-7.554-7.786-12.989-15.458-13.141c-5.242-0.354-9.21,1.94-12.416,5.904c-2.225,2.754-3.465,5.942-4.267,9.323
			c-0.41,1.725-0.748,3.467-0.641,5.281c0.104,1.751,0.736,3.272,1.811,4.57c0.985,1.189,2.133,2.259,3.288,3.294
			c1.584,1.422,3.354,2.557,5.418,3.199c3.689,1.149,7.456,1.403,11.161,0.413c5.271-1.409,9.093-4.623,10.798-9.949
			C98.942,96.527,98.908,93.564,98.317,90.54z M86.486,100.523c-0.997,0.519-2.322-0.043-2.587-1.167
			c-0.071-0.299,0.118-0.647,0.089-0.964c-0.096-1.064-0.531-1.812-1.636-2.246c-1.533-0.6-1.478-0.662-0.12-1.779
			c1.028-0.846,2.08-1.686,2.962-2.672c1.499-1.676,0.92-3.988-1.163-4.94c-0.494-0.228-1.056-0.303-1.59-0.439
			c-0.426-0.109-0.924-0.164-0.729-0.807c0.146-0.482,0.563-0.672,1.015-0.708c1.871-0.161,3.488,0.398,4.875,1.689
			c1.981,1.845,3.18,4.318,3.187,5.943C90.827,96.52,89.449,98.984,86.486,100.523z"/>
	</g>
</g>
</svg>
