<?xml version="1.0" encoding="utf-8"?>
<!-- Generator: Adobe Illustrator 16.0.0, SVG Export Plug-In . SVG Version: 6.00 Build 0)  -->
<!DOCTYPE svg PUBLIC "-//W3C//DTD SVG 1.1//EN" "http://www.w3.org/Graphics/SVG/1.1/DTD/svg11.dtd">
<svg version="1.1" id="Layer_1" xmlns="http://www.w3.org/2000/svg" xmlns:xlink="http://www.w3.org/1999/xlink" x="0px" y="0px"
	 width="120px" height="120px" viewBox="0 0 120 120" style="enable-background:new 0 0 120 120;" xml:space="preserve">
<g id="technorati">
	<g>
		<path style="fill-rule:evenodd;clip-rule:evenodd;" d="M113.874,41.751c-0.093-3.275-1.083-6.297-2.618-9.162
			c-1.109-2.07-2.213-4.146-3.325-6.217c-0.606-1.131-1.159-2.299-1.858-3.369c-0.519-0.791-1.141-1.574-1.881-2.15
			c-3.284-2.559-6.67-4.986-9.937-7.566c-3.757-2.971-8.212-4.506-12.521-6.358c-0.098-0.043-0.201-0.07-0.306-0.096
			c-4.374-1.024-8.75-1.912-13.3-1.616c-4.584,0.302-9.182,0.386-13.769,0.644c-2.126,0.119-4.243,0.418-6.361,0.664
			C47.58,6.57,47.18,6.758,46.766,6.865c-3.515,0.9-7.034,1.78-10.543,2.71c-0.604,0.16-1.189,0.459-1.731,0.781
			c-2.755,1.643-5.536,3.248-8.228,4.988c-4.787,3.096-9.223,6.631-12.591,11.295c-1.37,1.896-2.448,4.004-3.649,6.021
			C8.418,35.354,7.215,38.2,6.988,41.36c-0.17,2.346-0.984,4.57-1.004,6.961C5.95,52.312,6.352,56.233,7.4,60.06
			c1.389,5.07,3.055,10.037,7.012,13.826c0.304,0.291,0.498,0.695,0.748,1.043c1.748,2.441,3.611,4.787,5.952,6.699
			c0.743,0.607,0.979,1.352,0.901,2.268c-0.055,0.639-0.053,1.281-0.087,1.924c-0.11,2.025-0.294,4.051-0.329,6.076
			c-0.111,6.416,0.119,12.84-0.582,19.238c-0.098,0.893,0.15,1.703,0.605,2.445c0.648,1.059,1.768,1.512,3.015,1.127
			c0.728-0.225,1.419-0.502,2.177-0.238c1.17,0.408,2.119-0.049,2.893-0.84c0.746-0.76,1.414-1.605,2.031-2.475
			c3.671-5.164,7.689-10.029,12.529-14.137c2.219-1.883,4.748-3.117,7.896-2.67c3.486,0.496,6.996,0.988,10.552,0.75
			c3.839-0.232,7.679-0.465,11.518-0.699c0.427-0.027,0.866-0.029,1.274-0.137c5.502-1.436,10.922-3.059,15.422-6.781
			c0.573-0.475,1.15-1.049,1.828-1.275c2.656-0.893,4.535-2.795,6.359-4.748c2.191-2.344,4.344-4.73,6.414-7.182
			c1.518-1.795,2.766-3.795,3.566-6.029c0.721-2.01,1.279-4.082,2.102-6.045c1.928-4.602,2.935-9.363,2.838-14.352
			C113.995,45.815,113.932,43.784,113.874,41.751z M105.209,55.517c-1.008,8.871-5.214,16.154-11.168,22.578
			c-1.256,1.355-2.713,2.424-4.396,3.16c-1.467,0.643-2.932,1.318-4.457,1.787c-2.758,0.846-5.499,1.721-8.156,2.854
			c-0.148,0.062-0.421-0.02-0.56-0.129c-0.067-0.053,0.021-0.338,0.078-0.504c0.104-0.303,0.274-0.586,0.352-0.895
			c0.255-1.012-0.136-1.951-1.005-2.459c-0.734-0.428-1.445-0.281-2.116,0.146c-1.703,1.086-2.282,2.551-1.851,4.627
			c0.164,0.791,0.057,1.008-0.537,1.203c-2.909,0.963-5.832,1.031-8.854,0.473c-3.146-0.582-6.323-1.068-9.541-1.094
			c-0.849-0.006-1.317-0.355-1.666-1.172c-1.049-2.467-2.338-2.66-4.273-0.738c-0.074,0.076-0.15,0.156-0.203,0.248
			c-0.51,0.859-1.225,1.141-2.174,0.781c-0.82-0.311-1.451-0.025-1.967,0.633c-0.529,0.672-1.048,1.354-1.607,2
			c-0.557,0.646-1.081,1.363-1.759,1.857c-2.206,1.607-3.768,3.766-5.326,5.941c-1.308,1.822-2.614,3.646-3.942,5.455
			c-0.107,0.146-0.375,0.246-0.561,0.234c-0.091-0.006-0.244-0.322-0.232-0.488c0.133-1.703,0.256-3.408,0.477-5.1
			c0.046-0.35,0.425-0.738,0.752-0.951c0.799-0.518,1.715-0.865,2.477-1.426c0.851-0.627,0.699-1.869-0.229-2.424
			c-0.455-0.27-0.951-0.48-1.447-0.674c-1.506-0.582-1.521-0.66-1.45-2.268c0.049-1.098,0.521-1.826,1.536-2.191
			c0.902-0.324,1.819-0.613,2.73-0.914c0.506-0.166,1.033-0.283,1.515-0.5c0.878-0.395,1.339-1.227,1.207-2.055
			c-0.146-0.914-1.069-1.777-2.026-1.734c-1.064,0.051-2.117,0.262-3.18,0.365c-0.971,0.098-1.284-0.127-1.658-1.098
			c-0.077-0.197-0.093-0.42-0.174-0.617c-0.204-0.49-0.332-1.059-0.666-1.441c-0.746-0.854-1.125-1.695-0.785-2.873
			c0.121-0.418-0.211-1.021-0.453-1.479c-0.449-0.854-1.457-0.949-2.139-0.225c-0.287,0.305-0.455,0.717-0.73,1.035
			c-0.113,0.131-0.465,0.256-0.539,0.191c-0.549-0.488-1.1-0.988-1.552-1.564c-0.138-0.176-0.024-0.615,0.077-0.896
			c0.252-0.703,0.66-1.363,0.823-2.082c0.186-0.816,0.214-1.678,0.233-2.521c0.011-0.502-0.587-1.105-1.028-1.043
			c-0.396,0.057-0.901,0.197-1.114,0.482c-0.441,0.588-0.711,1.305-1.072,1.955c-0.098,0.172-0.377,0.439-0.402,0.422
			c-0.256-0.18-0.523-0.377-0.697-0.633c-0.523-0.773-0.479-1.633-0.195-2.467c0.623-1.83,1.488-3.545,2.557-5.158
			c0.531-0.801,1.123-1.576,1.545-2.432c0.27-0.547,0.369-1.221,0.377-1.842c0.012-0.906-1.024-1.496-1.852-1.148
			c-1.115,0.465-2.014,1.215-2.766,2.135c-0.811,0.994-1.569,2.029-2.37,3.031c-0.116,0.145-0.427,0.334-0.491,0.287
			c-0.246-0.18-0.498-0.414-0.625-0.686c-0.332-0.713-0.232-1.445-0.014-2.188c0.609-2.086,1.703-3.916,2.956-5.656
			c0.75-1.039,1.585-2.018,2.368-3.035c0.258-0.336,0.574-0.68,0.678-1.07c0.1-0.375,0.059-0.857-0.102-1.213
			c-0.238-0.529-0.799-0.746-1.346-0.645c-1.07,0.199-2.015,0.713-2.819,1.445c-0.79,0.719-1.522,1.502-2.321,2.213
			c-0.412,0.367-0.588,1.152-1.405,0.898c-0.007-0.629-0.054-1.26-0.005-1.885c0.023-0.303,0.19-0.613,0.352-0.887
			c1.854-3.133,3.697-6.275,6.837-8.355c0.179-0.119,0.358-0.238,0.519-0.377c1.299-1.115,1.162-2.428-0.604-3.209
			c-0.716-0.318-1.487-0.32-2.171,0.061c-0.741,0.414-1.41,0.953-2.134,1.4c-0.39,0.242-0.716,1.055-1.233,0.447
			c-0.188-0.221,0.089-1.066,0.391-1.428c0.535-0.641,1.184-1.244,1.902-1.658c2.037-1.172,4.123-2.26,6.212-3.34
			c1.353-0.697,2.562-1.539,3.419-2.826c0.377-0.564,0.148-1.33-0.498-1.574c-1.249-0.467-2.508-0.469-3.754-0.004
			c-1.199,0.447-2.386,0.926-3.582,1.379c-0.076,0.029-0.203-0.014-0.28-0.064c-0.06-0.039-0.118-0.146-0.107-0.213
			c0.017-0.1,0.089-0.193,0.147-0.281c1.986-2.998,4.654-5.266,7.661-7.176c0.716-0.455,1.446-0.912,2.08-1.469
			c4.173-3.662,8.953-6.156,14.294-7.641c3.506-0.975,7.08-1.578,10.668-2.105c0.838-0.123,1.709-0.018,2.564-0.018v-0.086
			c0.213,0,0.43-0.018,0.642,0.002c3.609,0.344,7.216,0.73,10.829,1.025c2.129,0.174,4.271,0.209,6.406,0.301
			c3.365,0.145,6.556,0.842,9.384,2.811c0.694,0.482,1.517,0.781,2.272,1.178c0.743,0.391,0.871,0.725,0.645,1.545
			c-0.283,1.029-0.565,2.057-0.832,3.09c-0.256,1,0.057,1.9,0.539,2.76c0.506,0.904,1.715,1.096,2.463,0.365
			c0.377-0.369,0.723-0.791,0.998-1.24c0.332-0.545,0.543-1.164,0.867-1.715c0.359-0.609,0.392-1.721,1.266-1.641
			c1.184,0.109,2.123,0.924,2.84,1.893c0.1,0.135,0.089,0.404,0.037,0.586c-0.143,0.514-0.279,1.043-0.518,1.514
			c-0.451,0.898-0.092,1.666,0.289,2.438c0.248,0.5,0.847,0.777,1.344,0.541c0.663-0.314,1.295-0.705,1.898-1.125
			c0.45-0.311,0.873-0.203,1.137,0.115c1.09,1.312,2.279,2.582,3.14,4.039c1.194,2.02,2.132,4.189,3.154,6.307
			c0.07,0.145-0.062,0.387-0.101,0.586c-0.17-0.074-0.344-0.139-0.506-0.227c-0.188-0.102-0.353-0.244-0.545-0.332
			c-0.354-0.158-0.953,0.156-0.969,0.508c-0.016,0.311-0.039,0.633,0.025,0.932c0.453,2.086,0.889,4.176,1.404,6.244
			C105.729,47.425,105.669,51.46,105.209,55.517z M82.942,33.528c-0.19-0.096-0.371-0.213-0.542-0.34
			c-2.776-2.062-5.945-3.326-9.1-4.668c-3.812-1.621-7.686-2.549-11.841-2.207c-1.384,0.113-2.767,0.078-4.138-0.316
			c-1.251-0.361-2.533-0.213-3.814-0.002c-3.409,0.561-6.596,1.736-9.666,3.289c-1.137,0.576-2.291,1.209-3.514,1.512
			c-4.863,1.201-8.818,3.719-11.807,7.748c-0.381,0.516-0.787,1.014-1.176,1.523c-1.908,2.514-3.1,5.256-3.533,8.457
			c-0.525,3.904,0.461,7.16,3.021,10.045c0.494,0.559,1.066,1.102,1.375,1.76c1.287,2.762,3.463,4.869,5.244,7.262
			c1.525,2.049,3.615,3.322,6.148,3.746c1.398,0.234,2.653,0.793,3.91,1.387c2.32,1.1,4.674,1.541,7.08,0.285
			c0.6-0.312,1.202-0.477,1.846-0.295c2.73,0.77,5.529,0.41,8.292,0.525c5.106,0.463,10.001-0.623,14.854-1.998
			c1.538-0.436,3.046-0.984,4.589-1.395c3.322-0.887,6.027-2.682,8.164-5.361c0.734-0.918,1.495-1.816,2.227-2.738
			c1.366-1.723,2.213-3.656,2.219-5.883c0.006-2.139,0.141-4.303-0.115-6.414C91.848,42.698,89.488,36.817,82.942,33.528z
			 M87.68,54.688c-0.037,0.99-0.281,1.91-0.752,2.758c-0.777,1.396-1.547,2.809-2.461,4.115c-0.4,0.57-1.098,1.008-1.75,1.314
			c-1.254,0.59-2.574,1.035-3.863,1.555c-2.766,1.111-5.672,1.846-8.287,3.377c-1.068,0.627-2.424,0.789-3.666,1.096
			c-4.586,1.125-5.162,1.182-9.504,1.09c-0.428,0-0.857-0.02-1.283,0.004c-3.666,0.188-6.952-0.93-10.006-2.871
			c-1.08-0.688-2.124-1.422-3.396-1.775c-0.479-0.135-0.929-0.529-1.286-0.906c-0.586-0.619-1.073-1.33-1.627-1.982
			c-0.645-0.762-0.917-1.619-1.039-2.621c-0.412-3.395-0.693-6.795-0.914-10.205c-0.086-1.326,0.076-2.51,0.875-3.617
			c0.495-0.686,0.81-1.5,1.25-2.23c0.902-1.49,2.072-2.684,3.721-3.379c0.678-0.287,1.311-0.699,1.926-1.113
			c3.424-2.299,7.23-3.662,11.213-4.57c1.766-0.4,3.537-0.807,5.383-0.768c0.723,0.014,1.447-0.305,2.18-0.418
			c0.729-0.113,1.473-0.131,2.201-0.24c1.347-0.201,2.264,1.35,3.611,0.918c1.406-0.449,2.482,0.436,3.66,0.805
			c1.211,0.383,2.352,1.023,3.471,1.645c0.641,0.357,1.229,0.85,1.748,1.373c0.817,0.826,1.446,1.893,2.824,1.857
			c0.094-0.004,0.204,0.072,0.281,0.139c2.029,1.781,3.906,3.705,4.646,6.389C87.58,49.118,87.782,51.892,87.68,54.688z
			 M97.435,58.458c-0.308-0.479-0.769-0.719-1.353-0.684c-0.583,0.037-1.087,0.314-1.238,0.854c-0.4,1.432-0.709,2.891-1.054,4.336
			c0.062,0.014,0.123,0.027,0.184,0.039c0,0.215-0.054,0.447,0.012,0.639c0.132,0.385,0.272,0.795,0.519,1.111
			c0.215,0.279,1.129,0.098,1.482-0.225c1.538-1.406,2.167-3.137,1.818-5.197C97.752,59.026,97.604,58.722,97.435,58.458z"/>
	</g>
</g>
</svg>
