<?xml version="1.0" encoding="utf-8"?>
<!-- Generator: Adobe Illustrator 16.0.0, SVG Export Plug-In . SVG Version: 6.00 Build 0)  -->
<!DOCTYPE svg PUBLIC "-//W3C//DTD SVG 1.1//EN" "http://www.w3.org/Graphics/SVG/1.1/DTD/svg11.dtd">
<svg version="1.1" id="Layer_1" xmlns="http://www.w3.org/2000/svg" xmlns:xlink="http://www.w3.org/1999/xlink" x="0px" y="0px"
	 width="120px" height="120px" viewBox="0 0 120 120" style="enable-background:new 0 0 120 120;" xml:space="preserve">
<g id="_x39_gag">
	<g>
		<path style="fill-rule:evenodd;clip-rule:evenodd;" d="M109.975,76.861c-0.438-2.551-0.355-5.111-0.385-7.676
			c-0.064-5.67-0.066-11.342-0.203-17.01c-0.082-3.416-0.398-6.826-0.547-10.24c-0.092-2.137-0.061-4.279-0.096-6.42
			c-0.025-1.713-0.533-3.145-2.254-3.896c-1.016-0.445-1.805-1.178-2.154-2.246c-0.361-1.102-1.174-1.758-2.068-2.361
			c-0.531-0.357-1.086-0.682-1.633-1.014c-7.131-4.32-14.223-8.707-21.404-12.935c-4.512-2.656-9.123-5.152-13.766-7.574
			c-2.068-1.08-4.268-2.023-6.516-2.625c-2.328-0.625-4.789-0.367-6.406,1.693c-1.455,1.852-3.346,2.924-5.332,3.971
			c-1.133,0.596-2.215,1.295-3.301,1.977c-3.26,2.043-6.523,4.081-9.764,6.159c-3.867,2.484-7.74,4.961-11.555,7.523
			c-2.928,1.967-5.748,4.092-8.654,6.09c-2.465,1.693-3.791,3.98-3.916,6.965c-0.023,0.535-0.053,1.07-0.055,1.605
			c-0.01,1.496-0.004,2.996-0.004,4.492H9.938c0,1.82-0.008,3.637,0.006,5.457c0.004,0.531-0.031,1.102,0.143,1.586
			c0.166,0.469,0.5,1.096,0.898,1.227c2.285,0.752,4.062,2.355,6.104,3.506c5.402,3.043,10.865,6,16.096,9.318
			c5.617,3.562,11.678,6.252,17.486,9.43c0.469,0.254,0.951,0.514,1.461,0.654c3.041,0.842,6.072,1.227,8.998-0.424
			c0.557-0.312,1.154-0.598,1.627-1.02c2.756-2.469,6.047-4.045,9.408-5.414c2.957-1.207,6.057-2.064,9.102-3.053
			c0.541-0.176,1.053,0.25,1.037,0.877c-0.051,2.135-0.166,4.268-0.219,6.4c-0.025,0.967-0.555,1.521-1.289,2.062
			c-2.494,1.838-5.023,3.645-7.391,5.639c-3.035,2.557-6.211,4.896-9.586,6.975c-0.633,0.391-1.221,0.865-1.783,1.357
			c-0.744,0.652-1.506,0.689-2.363,0.266c-3.08-1.525-5.979-3.311-8.486-5.697c-0.768-0.729-1.635-1.369-2.523-1.947
			c-1.613-1.049-3.26-2.045-4.922-3.014c-2.404-1.395-4.84-2.729-7.244-4.117c-1.545-0.891-3.074-1.539-4.779-0.381
			c-0.158,0.107-0.414,0.098-0.625,0.098c-1.375,0-2.404,0.715-3.43,1.531c-1.34,1.064-2.771,2.008-4.137,3.037
			c-2.303,1.736-4.691,3.381-6.844,5.289c-1.504,1.332-2.715,3.008-3.98,4.592c-0.527,0.658-0.857,1.459-0.889,2.365
			c-0.047,1.469,0.621,2.486,2.072,2.793c0.725,0.154,1.432,0.213,2.131,0.572c3.994,2.051,8.014,4.049,12.041,6.031
			c2.977,1.467,5.865,3.072,8.582,4.996c1.654,1.172,3.422,2.186,5.141,3.271c2.887,1.828,5.779,3.652,8.664,5.486
			c1.715,1.09,3.404,2.217,5.133,3.283c0.912,0.564,1.893,1.006,2.998,1.043c2.268,0.078,4.477-0.031,6.422-1.461
			c1.031-0.756,2.178-1.354,3.244-2.066c3.547-2.385,7.068-4.809,10.631-7.174c0.797-0.527,1.701-0.896,2.568-1.311
			c3.76-1.797,7.537-3.561,11.281-5.389c1.053-0.51,2.045-1.16,3.018-1.818c3.188-2.152,6.357-4.332,9.527-6.512
			c0.703-0.486,1.4-0.986,2.062-1.525c1.49-1.209,2.354-2.666,2.193-4.715c-0.113-1.477-0.1-3.023,0.223-4.457
			C110.057,79.592,110.209,78.221,109.975,76.861z M23.133,89.307c-0.102,0.096-0.635-0.086-0.799-0.281
			c-0.141-0.166-0.154-0.697-0.023-0.795c1.254-0.926,2.555-1.797,3.824-2.672c0.121,0.072,0.229,0.104,0.266,0.17
			c0.043,0.074,0.061,0.227,0.018,0.271C25.336,87.117,24.26,88.24,23.133,89.307z M31.883,94.41
			c-0.154,0.154-0.576,0.143-0.834,0.064c-0.377-0.113-0.42-0.707-0.088-1.055c1.041-1.078,2.1-2.133,3.146-3.205
			c0.596-0.611,1.219-1.205,1.744-1.875c0.244-0.311,0.395-0.785,0.379-1.178c-0.014-0.381-0.199-0.898-0.486-1.084
			c-0.279-0.184-0.902-0.186-1.166,0.014c-1.275,0.963-2.488,2.014-3.711,3.047c-0.818,0.688-1.615,1.402-2.426,2.098
			c-0.244,0.209-0.504,0.4-0.764,0.588c-0.432,0.311-0.855,0.668-1.41,0.203c-0.41-0.346-0.381-0.748,0.174-1.361
			c1.211-1.352,2.445-2.688,3.648-4.047c0.352-0.396,0.658-0.834,0.934-1.287c0.096-0.16,0.039-0.414,0.051-0.623
			c-0.096-0.186-0.15-0.41-0.291-0.547c-1.119-1.094-1.125-1.088-0.184-1.986c0.465-0.443,0.922-0.893,1.395-1.324
			c0.863-0.787,0.998-0.826,1.957-0.344c2.102,1.055,4.197,2.119,6.279,3.211c1.383,0.725,1.391,0.986,0.117,1.973
			c-2.553,1.975-4.711,4.334-6.773,6.797C33.025,93.143,32.488,93.811,31.883,94.41z M42.789,100.213
			c-0.244,0.469-0.805,0.449-1.381,0.035c-0.604-0.434-0.764-0.879-0.416-1.322c1.121-1.428,2.289-2.818,3.389-4.264
			c0.707-0.93,1.373-1.902,1.939-2.922c0.146-0.262-0.031-0.881-0.275-1.133c-0.242-0.254-0.762-0.379-1.135-0.334
			c-0.393,0.047-0.783,0.318-1.125,0.561c-1.93,1.365-3.637,2.967-5.088,4.84c-0.455,0.584-0.967,1.127-1.494,1.65
			c-0.094,0.094-0.482,0.07-0.561-0.033c-0.166-0.217-0.279-0.52-0.291-0.795c-0.008-0.172,0.189-0.367,0.316-0.539
			c2.408-3.258,5.439-6.031,7.467-9.59c0.061-0.104,0.4-0.164,0.533-0.096c2.191,1.123,4.262,2.43,6.117,4.055
			c0.133,0.117,0.139,0.379,0.223,0.629c-0.135,0.24-0.236,0.566-0.451,0.781c-1.131,1.135-2.303,2.23-3.438,3.359
			C45.531,96.678,43.85,98.178,42.789,100.213z M102.164,49.668c-0.072,0.639-0.246,1.264-0.289,1.898
			c-0.246,3.627-0.443,7.258-0.709,10.881c-0.336,4.582-0.781,9.156-1.062,13.74c-0.17,2.771-0.133,5.555-0.16,8.334
			c-0.006,0.59-0.182,1.033-0.689,1.328c-1.756,1.023-3.564,1.965-5.26,3.076c-4.381,2.875-8.754,5.762-13.043,8.762
			c-3.594,2.514-7.174,5.025-10.961,7.252c-2.574,1.512-4.994,3.285-7.475,4.955c-0.809,0.543-1.621,1.051-2.633,1.072
			c-0.654,0.012-1.283-0.062-1.777-0.555c-0.076-0.076-0.197-0.176-0.186-0.25c0.018-0.148,0.096-0.398,0.18-0.412
			c1.363-0.205,1.998-1.131,2.34-2.34c0.211-0.74-0.34-1.797-1.07-2.127c-0.646-0.295-1.52,0.016-1.982,0.621
			c-0.635,0.83-0.629,1.781-0.646,2.75c-0.012,0.635-0.227,0.754-0.762,0.49c-1.055-0.52-2.105-1.053-3.146-1.596
			c-0.389-0.205-0.447-0.729-0.145-1.084c0.623-0.732,1.334-1.406,1.859-2.201c0.463-0.697,0.811-1.502,1.045-2.307
			c0.25-0.854,0.125-1.723-0.658-2.32c-0.705-0.535-1.844-0.406-2.656,0.305c-1.051,0.92-2.012,1.922-2.572,3.24
			c-0.209,0.488-0.426,0.979-0.693,1.438c-0.064,0.111-0.389,0.195-0.514,0.131c-0.568-0.289-1.131-0.604-1.656-0.969
			c-0.904-0.629-0.98-0.979-0.357-1.785c1.242-1.609,2.514-3.193,3.777-4.783c0.666-0.838,1.301-1.705,2.031-2.482
			c0.557-0.594,0.789-1.748,1.754-1.65c0.662,0.068,1.262,0.748,1.895,1.143c0.543,0.34,1.176,0.578,1.629,1.008
			c1.115,1.055,2.232,0.91,3.541,0.383c6.201-2.502,11.85-5.906,16.982-10.184c2.137-1.779,4.281-3.541,6.865-4.682
			c0.67-0.295,1.279-0.785,1.816-1.291c0.779-0.732,1.508-1.5,2.535-1.9c0.291-0.113,0.598-0.291,0.797-0.525
			c2.014-2.355,4.037-4.705,5.98-7.117c0.363-0.455,0.451-1.18,0.533-1.797c0.072-0.547-0.186-1.047-0.713-1.324
			c-0.512-0.271-1.078-0.289-1.518,0.053c-0.84,0.654-1.604,1.408-2.422,2.09c-0.473,0.395-0.98,0.285-1.486,0.008
			c-0.615-0.336-0.785-0.75-0.416-1.244c1.404-1.885,2.832-3.754,4.238-5.641c0.83-1.111,1.678-2.215,2.428-3.379
			c0.564-0.881,0.422-1.557-0.275-2.326c-0.496-0.547-1.174-0.773-1.719-0.43c-0.988,0.627-1.92,1.346-2.895,2
			c-0.129,0.088-0.361,0.025-0.547,0.033c0.045-0.174,0.047-0.377,0.145-0.516c0.971-1.406,1.973-2.795,2.938-4.207
			c0.42-0.615,0.77-1.277,1.162-1.91c0.641-1.043-0.441-2.727-1.775-2.75c-0.918-0.02-1.711,0.309-2.311,0.941
			c-1.32,1.396-2.582,2.85-3.85,4.295c-0.395,0.449-0.793,0.693-1.357,0.312c-0.785-0.531-1.627-0.434-2.473-0.221
			c-1.459,0.369-2.828,0.939-4.123,1.73c-4.199,2.561-8.42,5.084-12.635,7.621c-0.367,0.219-0.73,0.447-1.109,0.646
			c-0.684,0.359-1.062,0.02-1.059-0.574c0.002-0.516-0.031-1.059-0.189-1.545c-0.291-0.904-1.039-1.336-1.932-1.465
			c-0.828-0.121-1.824,0.621-2.24,1.52c-0.654,1.414-0.369,2.711,0.441,3.945c0.299,0.459,0.172,0.807-0.227,1.053
			c-0.91,0.561-1.867,1.041-2.758,1.631c-0.682,0.453-1.281,0.582-2.066,0.197c-1.15-0.559-2.375-0.965-3.553-1.473
			c-0.75-0.324-0.922-0.922-0.457-1.52c1.18-1.52,2.408-3.004,3.561-4.547c0.566-0.764,1.094-1.586,1.486-2.449
			c0.617-1.355-0.365-2.613-1.842-2.512c-0.91,0.062-1.619,0.479-2.26,1.08c-1.73,1.635-3.094,3.541-4.174,5.654
			c-0.291,0.57-0.529,1.17-0.824,1.738c-0.178,0.342-0.48,0.334-0.771,0.133c-1.636-1.127-3.572-1.81-4.963-3.304
			c-0.408-0.099-0.854-0.124-1.216-0.312c-4.656-2.404-9.316-4.799-13.932-7.275c-1.502-0.805-2.889-1.834-4.303-2.795
			c-0.361-0.244-0.572-0.645-0.297-1.107c0.654-1.104,1.332-2.193,1.967-3.309c1.428-2.508,2.842-5.023,4.236-7.549
			c0.254-0.461,0.434-0.975,0.58-1.48c0.168-0.586-0.223-1.297-0.832-1.574c-0.609-0.279-1.045,0.078-1.357,0.514
			c-1.248,1.734-2.459,3.494-3.684,5.246c-1.408,2.014-2.801,4.041-4.234,6.039c-0.502,0.701-2.018,0.482-2.361-0.342
			c-0.1-0.23-0.014-0.693,0.164-0.861c1.664-1.564,2.734-3.555,3.955-5.434c0.758-1.166,1.451-2.371,2.172-3.559
			c0.111-0.184,0.227-0.367,0.311-0.562c0.334-0.785,0.068-1.887-0.555-2.336c-0.637-0.459-1.842-0.543-2.416-0.02
			c-0.785,0.717-1.482,1.535-2.186,2.334c-0.42,0.475-0.777,1.002-1.18,1.496c-0.055,0.07-0.207,0.127-0.289,0.104
			c-0.074-0.021-0.15-0.156-0.164-0.25c-0.076-0.525-0.115-1.057-0.199-1.58c-0.117-0.723-0.52-1.512-0.342-2.141
			c0.273-0.963,1.357-1.287,2.178-1.768c0.645-0.379,1.34-0.67,1.998-1.023c0.754-0.402,1.6-0.711,2.221-1.268
			c3.545-3.182,7.711-5.402,11.889-7.547c5.055-2.598,9.723-5.814,14.623-8.656c2.404-1.392,4.781-2.833,7.18-4.235
			c0.604-0.354,1.232-0.285,1.826,0.068c1.195,0.713,2.377,1.445,3.572,2.148c2.307,1.351,4.631,2.671,6.928,4.04
			c1.926,1.15,3.826,2.344,5.729,3.535c0.633,0.395,1.207,0.902,1.863,1.246c4.943,2.602,9.137,6.328,13.92,9.17
			c1.281,0.762,2.441,1.732,3.645,2.621c2.924,2.156,5.826,4.348,8.781,6.465c0.598,0.428,0.914,0.873,0.842,1.564
			C102.809,43.939,102.488,46.805,102.164,49.668z M66.422,29.162c-2.037-1.549-4.215-2.912-6.342-4.338
			c-0.74-0.496-1.52-0.559-2.438-0.344c-2.098,0.492-4.094,1.203-5.918,2.346c-1.992,1.25-4.018,2.459-5.902,3.857
			c-1.361,1.014-2.562,2.26-3.736,3.496c-0.572,0.605-0.949,1.408-1.357,2.154c-0.756,1.387-0.52,2.752,0.447,3.885
			c0.824,0.965,1.795,1.844,2.822,2.592c3.195,2.324,6.459,4.559,9.674,6.854c0.684,0.488,1.453,0.984,1.891,1.664
			c0.766,1.195,1.65,1.93,3.127,1.766c0.207-0.021,0.439,0.021,0.631,0.102c1.328,0.547,2.299,0.031,3.01-1.068
			c1.176-1.828,2.74-3.307,4.41-4.623c2.262-1.785,4.678-3.375,7.023-5.055c0.779-0.559,1.561-1.119,2.303-1.725
			c0.625-0.51,0.787-1.244,0.768-2.023c-0.029-0.777-0.244-1.461-0.889-1.973C72.771,34.203,69.648,31.615,66.422,29.162z
			 M66.574,39.213c-1.551,1.299-3.107,2.582-4.664,3.869c-0.656,0.545-1.379,0.566-2.078,0.156c-2.479-1.447-4.957-2.896-7.395-4.41
			c-0.611-0.379-1.09-0.99-1.588-1.531c-0.338-0.367-0.289-0.793,0.107-1.098c1.857-1.418,3.723-2.828,5.598-4.221
			c0.367-0.273,0.82-0.295,1.197-0.031c2.963,2.066,5.914,4.145,8.861,6.234c0.15,0.105,0.211,0.334,0.312,0.508
			C66.811,38.867,66.727,39.082,66.574,39.213z M37.605,41.906c0.037-1.062-0.217-1.631-0.844-1.984
			c-0.551-0.311-1.271-0.281-1.777,0.211c-2.773,2.701-4.85,5.93-6.836,9.215c-0.463,0.768-0.168,1.629,0.553,2.303
			c0.73,0.68,1.498,0.783,2.32,0.225c0.432-0.291,0.883-0.629,1.17-1.053c1.621-2.381,3.219-4.777,4.762-7.207
			C37.336,43.01,37.594,42.262,37.605,41.906z M42.066,61.411c-0.015-0.003-0.028-0.002-0.042-0.005
			c0.019,0.021,0.04,0.037,0.058,0.058l0.016,0.003C42.087,61.448,42.076,61.43,42.066,61.411z M45.299,59.986
			c1.256-1.838,2.555-3.646,3.785-5.5c0.408-0.613,0.701-1.311,0.98-1.994c0.328-0.803,0.039-1.697-0.654-2.273
			c-0.508-0.42-1.309-0.328-2.014,0.311c-2.455,2.232-4.34,4.916-6.021,7.754c-0.352,0.59-0.406,1.197-0.062,1.811
			c0.248,0.442,0.502,0.879,0.753,1.317C43.451,61.644,44.508,61.145,45.299,59.986z M41.057,48.109
			c-0.361-0.135-0.826-0.121-1.207-0.027c-0.275,0.068-0.578,0.326-0.725,0.584c-0.887,1.57-1.752,3.154-2.58,4.756
			c-0.252,0.49-0.188,1.061,0.178,1.502c0.188,0.227,0.496,0.357,0.826,0.586c0.365-0.223,0.799-0.371,1.055-0.668
			c1.25-1.457,2.354-3.018,3.033-4.838c0.074-0.195,0.16-0.404,0.166-0.611C41.822,48.818,41.594,48.309,41.057,48.109z
			 M93.342,78.275c-0.611,0.068-1.156,0.746-1.055,1.318c0.084,0.463,0.619,0.945,1.088,0.975c0.6,0.039,1.217-0.555,1.209-1.164
			C94.576,78.803,93.926,78.211,93.342,78.275z"/>
	</g>
</g>
</svg>
