<?xml version="1.0" encoding="utf-8"?>
<!-- Generator: Adobe Illustrator 16.0.0, SVG Export Plug-In . SVG Version: 6.00 Build 0)  -->
<!DOCTYPE svg PUBLIC "-//W3C//DTD SVG 1.1//EN" "http://www.w3.org/Graphics/SVG/1.1/DTD/svg11.dtd">
<svg version="1.1" id="Layer_1" xmlns="http://www.w3.org/2000/svg" xmlns:xlink="http://www.w3.org/1999/xlink" x="0px" y="0px"
	 width="120px" height="120px" viewBox="0 0 120 120" style="enable-background:new 0 0 120 120;" xml:space="preserve">
<g id="quora">
	<g>
		<path style="fill-rule:evenodd;clip-rule:evenodd;" d="M107.539,48.522c-0.002-0.735-0.066-1.539-0.369-2.189
			c-0.723-1.57-1.068-3.242-1.539-4.879c-2.17-7.539-5.775-14.23-11.5-19.693c-0.541-0.516-1.078-1.059-1.504-1.666
			c-1.434-2.041-3.318-3.616-5.217-5.182c-3.576-2.949-7.566-5.201-11.842-6.963c-2.689-1.107-5.699-0.752-8.41-1.861
			c-0.852-0.349-1.898-0.262-2.859-0.287c-4.606-0.123-9.2-0.096-13.643,1.389c-0.404,0.135-0.811,0.271-1.227,0.367
			c-0.305,0.07-0.697,0.212-0.928,0.088c-1.008-0.539-1.742-0.033-2.652,0.367c-2.533,1.121-5.109,2.19-7.752,3.008
			c-1.975,0.609-3.807,1.405-5.461,2.602c-1.904,1.377-3.713,2.889-5.648,4.215c-0.725,0.495-1.312,0.988-1.795,1.732
			c-2.326,3.59-4.738,7.121-7.076,10.701c-1.871,2.871-3.543,5.847-4.672,9.106c-0.492,1.425-0.881,2.839-0.863,4.37
			c0.039,3.314,0.012,6.631,0.012,9.948c-0.037,0-0.074,0-0.111,0.001c0,3.102,0.029,6.205-0.01,9.307
			c-0.029,2.48,0.404,4.92,0.945,7.295c1.283,5.631,3.166,11.084,5.559,16.35c0.395,0.867,0.844,1.756,1.457,2.472
			c2.021,2.362,4.242,4.526,6.871,6.231c1.512,0.98,3.277,1.576,4.52,2.975c0.133,0.15,0.359,0.273,0.559,0.299
			c1.9,0.244,3.285,1.482,4.797,2.466c1.268,0.825,2.59,1.632,4.082,1.763c1.965,0.17,3.738,0.789,5.512,1.559
			c0.975,0.422,2.029,0.654,3.043,0.982c2.574,0.83,5.273,0.801,7.918,1.072c2.553,0.262,5.122,0.154,7.584-0.834
			c0.777-0.312,1.68-0.307,2.488-0.566c0.732-0.236,1.234-0.068,1.643,0.539c0.355,0.531,0.713,1.064,1.066,1.6
			c2.223,3.381,5.445,5.322,9.221,6.541c1.684,0.544,3.322,0.678,5.035,0.227c2.166-0.57,4.377-0.99,6.514-1.654
			c1.73-0.54,3.379-1.363,4.719-2.644c1.316-1.255,2.621-2.524,3.883-3.834c1.863-1.937,3.434-4.095,4.557-6.55
			c0.201-0.439,0.74-0.997,0.072-1.377c-0.406-0.232-1.029-0.225-1.521-0.137c-0.51,0.091-1.018,0.35-1.459,0.637
			c-1.641,1.074-3.516,1.504-5.352,2.078c-3.463,1.081-6.018-0.301-8.215-2.811c-0.137-0.156-0.287-0.359-0.303-0.553
			c-0.025-0.293-0.049-0.709,0.121-0.875c0.529-0.521,1.129-0.977,1.736-1.408c3.936-2.781,6.777-6.494,9.016-10.693
			c2.564-4.811,4.947-9.714,7.066-14.74c0.961-2.279,1.777-4.625,1.852-7.092C107.594,57.724,107.549,53.122,107.539,48.522z
			 M24.253,38.853c2.381-3.76,4.781-7.514,8.426-10.234c0.08-0.059,0.195-0.094,0.295-0.096c0.088-0.002,0.199,0.037,0.262,0.1
			c0.043,0.045,0.061,0.176,0.027,0.234c-1.469,2.578-2.941,5.152-4.422,7.723c-0.156,0.271-0.328,0.562-0.566,0.758
			c-1.221,1.004-2.463,1.979-3.703,2.957c-0.066,0.051-0.184,0.037-0.277,0.053c-0.057-0.09-0.162-0.182-0.158-0.271
			C24.152,39.663,24.056,39.161,24.253,38.853z M22.062,67.853c-0.166-0.033-0.387-0.234-0.422-0.396
			c-0.316-1.478-0.449-2.933,0.211-4.392c2.211-4.893,4.969-9.441,8.365-13.6c0.127-0.154,0.357-0.221,0.539-0.328
			c0.104,0.259,0.299,0.529,0.275,0.713c-0.199,1.535-0.436,3.008-0.639,4.484c-0.232,1.689-0.781,3.143-1.932,4.537
			c-2.236,2.713-4.162,5.68-5.869,8.773C22.515,67.778,22.222,67.886,22.062,67.853z M32.177,81.169
			c-1.334,0.882-1.615,2.455-2.191,3.818c-0.164,0.385-0.166,0.838-0.309,1.235c-0.059,0.157-0.354,0.384-0.443,0.347
			c-0.258-0.109-0.551-0.293-0.676-0.529c-0.139-0.266-0.182-0.629-0.139-0.932c0.17-1.264,0.344-2.529,0.604-3.777
			c0.195-0.936,0.561-1.837,0.787-2.77c0.328-1.348,0.299-2.559-1.336-3.105c-0.604-0.203-0.703-0.736-0.541-1.314
			c0.172-0.615,0.42-1.217,0.508-1.844c0.076-0.543-0.188-1.029-0.658-1.373c-0.43-0.312-1.199-0.299-1.457,0.094
			c-0.467,0.711-0.844,1.482-1.344,2.168c-0.203,0.276-0.578,0.428-0.897,0.619c0.001,0.042,0.004,0.086,0.002,0.127
			c-0.029,0.025-0.062,0.05-0.094,0.074c-0.004,0.138-0.008,0.276-0.041,0.408c-0.037,0.139-0.143,0.258-0.217,0.385
			c-0.02-0.166-0.098-0.359-0.041-0.492c0.054-0.122,0.181-0.21,0.299-0.301c0.001-0.051,0.003-0.102,0.006-0.151
			c0.027-0.018,0.058-0.033,0.085-0.05c-0.004-0.178-0.021-0.359,0.043-0.508c1.373-3.244,2.727-6.5,4.609-9.494
			c0.15-0.24,0.502-0.352,0.758-0.523c0.084,0.285,0.234,0.568,0.24,0.855c0.041,1.711,0.051,3.422,0.068,5.133
			c0.037,3.704,0.92,7.185,2.805,10.385C33.039,80.38,32.859,80.72,32.177,81.169z M42.355,96.11
			c-0.107,0.145-0.363,0.301-0.518,0.271c-1.809-0.347-3.139-1.591-3.34-3.294c-0.165-1.411-0.166-2.843-0.229-4.267
			c-0.034-0.027-0.067-0.054-0.101-0.081c-0.023-0.033-0.046-0.065-0.07-0.099c-0.845,0.062-1.51,0.357-1.78,1.308
			c-0.203,0.715-0.49,1.408-0.781,2.093c-0.045,0.104-0.42,0.204-0.469,0.15c-0.49-0.542-1.264-1.071-1.35-1.688
			c-0.277-2.012-0.24-4.054,0.705-5.945c0.053-0.104,0.344-0.17,0.479-0.125c0.186,0.066,0.367,0.229,0.486,0.395
			c0.912,1.266,1.809,2.541,2.709,3.813c0.055-0.004,0.107-0.01,0.164-0.012c0.003,0.063,0.004,0.127,0.007,0.191
			c1.294,1.032,2.591,2.065,3.885,3.099c0.082,0.066,0.154,0.145,0.221,0.227C42.529,92.333,42.55,95.847,42.355,96.11z
			 M48.058,95.675c-0.781,0.457-1.174,1.199-1.525,1.998c-0.102,0.234-0.5,0.546-0.672,0.498c-0.373-0.105-0.713-0.389-1.012-0.66
			c-0.135-0.123-0.186-0.389-0.195-0.594c-0.025-0.533-0.01-1.068-0.01-1.604h-0.057c0-0.428-0.01-0.855,0.002-1.283
			c0.012-0.467,0.502-0.848,0.838-0.633c0.898,0.574,1.779,1.176,2.66,1.773C48.345,95.346,48.322,95.521,48.058,95.675z
			 M47.673,89.819c-0.602-0.137-1.23-0.459-1.684-0.876c-1.73-1.591-3.426-3.214-4.42-5.431c-1.928-4.299-3.545-8.646-4.207-13.383
			c-0.479-3.414-0.516-6.809-0.604-10.219c-0.066-3.752,0.164-7.486,0.779-11.184c0.314-1.891,0.766-3.763,1.238-5.621
			c1.082-4.256,2.525-8.381,4.572-12.281c0.596-1.136,1.223-2.225,2.197-3.125c0.775-0.717,1.355-1.647,2.01-2.492
			c1.473-1.898,3.25-3.312,5.58-4.109c1.51-0.517,2.959-1.197,4.539-1.526c1.074-0.225,2.105-0.253,3.151,0.135
			c1.197,0.446,2.434,0.797,3.619,1.272c1.855,0.742,3.139,2.207,4.324,3.73c0.85,1.094,1.471,2.374,2.363,3.429
			c3.016,3.56,4.65,7.876,6.66,11.981c1.695,3.465,2.859,7.133,3.768,10.877c0.303,1.24,0.549,2.504,0.701,3.771
			c0.328,2.752,0.855,5.477,0.895,8.271c0.031,2.271-0.434,4.462-0.756,6.673c-0.135,0.918-0.652,1.799-1.084,2.65
			c-0.629,1.244-1.186,2.479-1.441,3.883c-0.207,1.137-0.705,2.237-1.191,3.301c-0.893,1.953-1,3.003-2.973,0.4
			c-1.951-2.576-4.633-4.425-7.119-6.441c-1.645-1.334-3.689-1.695-5.771-1.41c-3.356,0.459-6.385,1.623-8.786,4.178
			c-1.16,1.234-1.426,2.572-1.02,4.129c0.08,0.307,0.275,0.584,0.357,0.891c0.242,0.912,0.781,1.424,1.727,1.664
			c1.551,0.395,3.098,0.84,4.59,1.41c2.694,1.027,4.17,3.217,5.188,5.779c0.037,0.095-0.172,0.396-0.309,0.431
			c-0.408,0.104-0.838,0.175-1.26,0.171c-3.743-0.039-7.489-0.029-11.227-0.176C50.603,90.513,49.126,90.151,47.673,89.819z
			 M63.846,76.628c-0.359,0.84-0.699,1.723-1.131,2.561c-0.105,0.203-0.594,0.424-0.768,0.342c-1.412-0.666-2.922-0.461-4.395-0.586
			c-0.141-0.012-0.283-0.193-0.383-0.328c-0.033-0.045,0.041-0.219,0.113-0.279c1.768-1.52,3.895-2.051,6.153-2.201
			C63.549,76.13,63.684,76.425,63.846,76.628z M53.609,99.571c-0.264,0.566-0.898,0.751-1.598,0.52
			c-0.549-0.18-0.879-0.564-0.867-1.139c0.008-0.404,0.088-0.826,0.229-1.205c0.332-0.9,1.891-1.17,2.621-0.461
			c0.127,0.123,0.146,0.355,0.26,0.658C54.066,98.428,53.869,99.015,53.609,99.571z M60.037,98.685
			c-0.02,0.143-0.055,0.461-0.115,0.773c-0.092,0.477-0.428,0.725-0.875,0.772c-0.418,0.044-0.848,0.026-1.27-0.001
			c-0.477-0.033-0.838-0.449-0.723-0.836c0.152-0.506,0.309-1.02,0.531-1.498c0.297-0.639,1.139-0.928,1.928-0.721
			C59.919,97.28,60.109,97.751,60.037,98.685z M88.516,104.056c0.086,0.092,0.043,0.382-0.037,0.523
			c-0.205,0.352-0.721,0.732-0.656,0.99c0.172,0.695,0.537,1.355,0.918,1.975c0.133,0.213,0.555,0.385,0.805,0.344
			c0.23-0.039,0.533-0.361,0.588-0.607c0.111-0.512,0.064-1.059,0.115-1.59c0.031-0.314,0.125-0.617,0.566-0.52
			c1.35,0.301,2.703,0.588,4.047,0.912c0.09,0.021,0.213,0.38,0.154,0.469c-0.82,1.211-1.951,1.963-3.422,2.096
			c-0.738,0.066-1.49,0.012-2.424,0.012c-0.342,0.021-0.873,0.078-1.406,0.076c-0.732,0-1.207-0.359-1.367-1.082
			c-0.205-0.936-0.434-1.879-0.506-2.828c-0.051-0.689-0.342-1.682,0.557-1.951C87.354,102.603,87.955,103.435,88.516,104.056z
			 M102.67,56.517c-0.441,4.162-1.08,8.244-2.158,12.275c-0.557,2.084-1.264,4.053-2.688,5.752
			c-0.639,0.762-1.369,1.606-0.924,2.891c0.148,0.428-0.342,1.207-0.729,1.668c-1.717,2.049-3.426,4.115-5.281,6.033
			c-2.604,2.688-5.334,5.25-8.01,7.867c-0.23,0.225-0.459,0.449-0.686,0.676c-1.078,1.074-1.105,1.33-0.199,2.381
			c0.488,0.566,1.027,1.092,1.502,1.669c0.281,0.345,0.377,0.771,0.053,1.164c-1.105,1.345-1.139,2.958-1.146,4.573
			c-0.004,1.282,0.031,2.566,0.037,3.848c0,0.096-0.092,0.189-0.143,0.285c-0.15-0.093-0.348-0.151-0.439-0.283
			c-0.504-0.725-0.699-1.545-0.699-2.424c-0.002-1.605-0.018-3.211-0.035-4.814c-0.004-0.426,0.064-0.887-0.078-1.266
			c-0.135-0.363-0.447-0.727-0.779-0.936c-0.504-0.316-1.057-0.127-1.471,0.246c-0.826,0.744-1.303,1.691-1.369,2.811
			c-0.057,0.961-0.068,1.924-0.104,2.887c-0.041,1.149-0.189,1.438-0.533,1.158c-0.316-0.255-0.643-0.564-0.812-0.922
			c-0.521-1.101-0.494-2.279-0.338-3.461c0.057-0.416,0.15-0.836,0.135-1.25c-0.029-0.695-1.432-1.331-1.711-0.783
			c-0.861,1.695-2.545,1.098-3.828,1.581c-0.293,0.11-0.631,0.099-0.949,0.144c-0.762,0.107-1.463,0.039-2.143-0.408
			c-0.723-0.475-1.377-0.373-1.924,0.4c-0.217,0.309-0.631,0.502-0.988,0.682c-0.264,0.131-1.023-0.309-1.018-0.574
			c0.016-1.172,0-2.35,0.125-3.51c0.037-0.34,0.443-0.789,0.785-0.92c1.189-0.454,2.412-0.843,3.654-1.135
			c0.287-0.066,0.695,0.34,1.035,0.549c0.896,0.551,1.678,0.301,1.961-0.684c0.205-0.717,0.357-1.45,0.494-2.184
			c0.275-1.469,0.541-2.939,0.775-4.414c0.172-1.078-0.156-1.627-1.439-2.07c-0.621-0.215-0.902-0.475-0.807-1.102
			c0.145-0.945,0.342-1.885,0.432-2.836c0.023-0.26-0.193-0.668-0.42-0.793c-0.217-0.122-0.672-0.07-0.875,0.09
			c-0.584,0.461-1.084,1.025-1.633,1.529c-0.15,0.139-0.361,0.213-0.543,0.316c-0.121-0.271-0.33-0.537-0.348-0.814
			c-0.047-0.746-0.096-1.509,0.014-2.242c0.131-0.885-0.287-1.871,0.447-2.65c0.672,0.518,1.354,1.025,2.014,1.557
			c0.75,0.605,1.494,1.215,2.215,1.853c1.85,1.634,3.561,3.392,4.844,5.527c0.328,0.548,0.711,1.069,1.109,1.567
			c0.285,0.357,0.662,0.533,1.059,0.129c1.42-1.451,2.84-2.906,4.246-4.369c0.221-0.229,0.322-0.627,0.576-0.76
			c1.842-0.951,2.156-2.791,2.666-4.506c1.506-5.057,2.129-10.233,2.086-15.5c-0.006-0.641,0-1.283,0-1.926h-0.033
			c0-1.07-0.014-2.141,0.002-3.211c0.066-4.629-0.77-9.131-1.85-13.607c-0.934-3.877-2.404-7.545-4.398-10.969
			c-2.258-3.873-4.492-7.773-7.203-11.365c-1.838-2.438-4.227-4.227-6.861-5.691c-2.344-1.303-4.807-1.718-7.399-0.689
			c-0.689,0.275-1.418,0.574-2.145,0.617c-3.52,0.207-6.561,1.777-9.646,3.24c-1.172,0.555-2.197,1.293-3.035,2.311
			c-0.607,0.74-1.256,1.467-1.98,2.09c-3.918,3.363-6.521,7.598-8.285,12.391c-0.627,1.703-1.229,3.416-1.752,5.154
			c-0.295,0.98-0.641,1.812-1.771,2.002c-1.918,1.527-3.951,2.924-5.416,4.951c-1.312,1.82-2.645,3.625-3.982,5.428
			c-0.186,0.248-0.438,0.452-0.674,0.66c-0.041,0.035-0.178,0.014-0.232-0.029c-0.078-0.064-0.172-0.17-0.172-0.26
			c-0.002-0.318-0.049-0.67,0.07-0.945c0.301-0.684,0.631-1.364,1.037-1.988c2.043-3.133,4.094-6.26,6.188-9.359
			c0.408-0.605,0.914-1.328,1.537-1.562c1.473-0.555,2.09-1.709,2.725-2.973c2.168-4.312,4.795-8.338,7.723-12.168
			c0.713-0.934,1.543-1.773,2.289-2.684c0.336-0.408,0.619-0.863,0.877-1.326c0.246-0.439,0.084-1.18-0.301-1.461
			c-0.412-0.3-0.793-0.121-1.139,0.162c-2.238,1.827-4.461,3.666-6.191,6.02c-0.377,0.512-0.867,0.939-1.314,1.396
			c-0.068,0.069-0.256,0.139-0.285,0.107c-0.129-0.133-0.268-0.289-0.316-0.464c-0.184-0.628-0.277-1.263,0.205-1.819
			c0.84-0.97,1.619-2.004,2.539-2.891c2.768-2.665,5.41-5.477,8.648-7.607c1.07-1.504,2.795-1.837,4.365-2.467
			c4.014-1.605,8.158-2.473,12.493-2.426c1.068,0.012,2.178,0.048,3.195-0.21c1.639-0.415,3.197-0.106,4.756,0.222
			c4.35,0.913,8.295,2.758,11.898,5.348c0.088,0.062,0.17,0.131,0.262,0.186c1.092,0.646,1.5,1.967,2.801,2.519
			c1.023,0.435,1.779,1.499,2.656,2.282c0.955,0.854,1.977,1.648,2.855,2.576c1.689,1.783,3.359,3.594,4.914,5.494
			c0.732,0.894,1.35,1.961,1.723,3.051c1.762,5.148,3.586,10.28,4.85,15.589C102.682,49.951,103.031,53.132,102.67,56.517z"/>
	</g>
</g>
</svg>
