<?xml version="1.0" encoding="utf-8"?>
<!-- Generator: Adobe Illustrator 16.0.0, SVG Export Plug-In . SVG Version: 6.00 Build 0)  -->
<!DOCTYPE svg PUBLIC "-//W3C//DTD SVG 1.1//EN" "http://www.w3.org/Graphics/SVG/1.1/DTD/svg11.dtd">
<svg version="1.1" id="Layer_1" xmlns="http://www.w3.org/2000/svg" xmlns:xlink="http://www.w3.org/1999/xlink" x="0px" y="0px"
	 width="120px" height="120px" viewBox="0 0 120 120" style="enable-background:new 0 0 120 120;" xml:space="preserve">
<g id="wikipedia">
	<g>
		<path style="fill-rule:evenodd;clip-rule:evenodd;" d="M113.88,22.6c-0.322-0.008-0.643,0.002-0.965,0.023
			c-1.605,0.104-3.164,0.014-4.766-0.354c-2.598-0.598-5.26-0.852-7.951-0.807c-2.016,0.033-4.068,0.225-6.033-0.535
			c-0.377-0.145-0.846-0.047-1.271-0.076c-1.779-0.129-3.33,0.639-4.93,1.234c-0.639,0.236-1.162,0.551-1.303,1.258
			c-0.123,0.604,0.502,1.309,1.373,1.533c0.514,0.131,1.045,0.201,1.574,0.254c0.85,0.084,1.703,0.158,2.559,0.189
			c1.285,0.047,2.242,0.615,2.906,1.701c0.336,0.547,0.646,1.109,0.998,1.646c0.576,0.881,0.58,1.732,0.188,2.727
			c-0.547,1.387-0.996,2.824-1.34,4.277c-1.174,5.002-2.861,9.84-4.748,14.605c-2.162,5.459-4.434,10.877-6.682,16.303
			c-0.135,0.328-0.477,0.572-0.721,0.854c-0.176-0.262-0.412-0.506-0.516-0.793c-1.422-4.025-2.842-8.053-4.23-12.09
			c-1.145-3.334-2.217-6.689-3.371-10.018c-1.326-3.836-2.721-7.645-4.057-11.477c-0.457-1.311-0.775-2.67-1.246-3.975
			c-0.26-0.725,0.121-1.34,0.582-1.658c1.164-0.805,2.463-1.275,3.861-1.467c0.527-0.074,1.072-0.047,1.596-0.137
			c0.977-0.166,1.791-1.006,1.902-1.914c0.117-0.984-0.455-1.641-1.178-2.129c-0.805-0.545-1.727-0.785-2.725-0.811
			c-1.602-0.047-3.23-0.037-4.797-0.322c-1.602-0.291-3.193-0.357-4.787-0.268c-2.346,0.135-4.713,0.238-7.014,0.662
			c-1.918,0.354-3.814,0.451-5.736,0.467c-1.715,0.014-3.426-0.004-5.137,0.018c-0.641,0.006-1.312-0.025-1.906,0.162
			c-0.467,0.146-0.984,0.518-1.217,0.938c-0.588,1.055-0.006,2.455,1.09,2.904c0.979,0.402,1.994,0.736,2.934,1.217
			c1.043,0.533,1.994,1.238,3.025,1.789c0.793,0.424,1.369,1.02,1.779,1.787c0.959,1.793,1.834,3.615,2.203,5.646
			c0.133,0.719,0.318,1.496,0.715,2.09c1.332,2,1.879,4.297,2.629,6.518c0.127,0.373,0.176,0.863,0.045,1.219
			c-0.666,1.799-1.305,3.621-2.135,5.346c-2.281,4.738-3.75,9.758-5.305,14.752c-0.637,2.035-1.41,4.029-2.164,6.027
			c-0.096,0.256-0.443,0.42-0.674,0.625c-0.111-0.16-0.275-0.309-0.33-0.488c-0.463-1.531-0.889-3.074-1.361-4.604
			c-0.943-3.061-1.777-6.162-2.887-9.158c-2.521-6.811-5.092-13.602-7.434-20.479c-0.717-2.102-1.387-4.225-2.658-6.148
			c-0.965-1.461-0.895-3.178,0.174-4.82c1.648-2.525,3.818-4.287,6.676-5.213c0.525-0.17,1.031-0.357,0.975-1.041
			c-0.049-0.586-0.41-1.012-0.926-1.203c-0.59-0.221-1.219-0.402-1.842-0.445c-1.066-0.07-2.139-0.02-3.207-0.02v0.043
			c-4.803,0.234-9.605,0.463-14.408,0.707c-0.531,0.025-1.057,0.15-1.586,0.225c-2.217,0.311-4.43,0.67-6.654,0.918
			c-2.33,0.258-4.67,0.404-7.004,0.604c-0.105,0.01-0.209,0.047-0.314,0.07c-0.455,0.096-0.816,0.822-0.656,1.291
			c0.562,1.646,1.639,2.781,3.389,3.029c1.805,0.256,3.172,1.178,4.387,2.447c0.516,0.541,1.01,1.193,1.652,1.506
			c1.943,0.939,2.711,2.594,3.154,4.547c0.238,1.035,0.629,2.039,0.938,3.059c1.734,5.719,3.342,11.482,5.234,17.146
			c1.828,5.467,3.969,10.828,5.938,16.248c1.35,3.713,2.797,7.398,3.914,11.182c1.273,4.303,2.662,8.562,4.16,12.785
			c0.5,1.406,1.047,2.801,1.658,4.16c0.463,1.023,1.301,1.955,2.422,1.814c1.029-0.133,1.869,0.201,2.793,0.355
			c0.791,0.133,1.482-0.127,1.988-0.777c0.262-0.338,0.535-0.672,0.742-1.043c1.619-2.916,2.793-5.998,3.305-9.305
			c0.49-3.168,0.959-6.328,2.141-9.344c2.453-6.266,4.855-12.547,7.27-18.828c0.535-1.395,1.016-2.812,1.537-4.213
			c0.062-0.17,0.23-0.303,0.35-0.451c0.229,0.207,0.512,0.379,0.666,0.631c0.162,0.264,0.146,0.637,0.303,0.904
			c0.75,1.277,0.135,2.809,0.715,4.057c0.57,1.236,1.645,2.164,2.117,3.539c0.693,2.014,1.754,3.896,2.535,5.885
			c1.402,3.576,2.992,7.115,3.982,10.809c1.166,4.352,2.975,8.455,4.316,12.73c0.443,1.418,1.076,2.789,1.734,4.125
			c0.701,1.424,2.295,1.729,3.496,0.695c0.559-0.48,1.068-1.064,1.441-1.697c1.473-2.482,2.889-5.006,3.662-7.812
			c1.332-4.834,3.531-9.395,4.547-14.332c0.129-0.623,0.354-1.236,0.609-1.82c1.244-2.836,2.494-5.672,3.781-8.488
			c2.404-5.256,4.395-10.65,5.607-16.318c0.447-2.084,1.002-4.148,1.59-6.197c0.502-1.752,0.869-3.482,0.9-5.34
			c0.033-1.785,0.588-3.434,2.135-4.773c1.727-1.502,3.498-2.818,5.664-3.523c2.07-0.678,3.781-1.939,5.477-3.223
			c0.377-0.285,0.678-0.85,0.756-1.326C116.831,23.553,116.013,22.65,113.88,22.6z M36.089,56.941
			c0.023-0.051,0.443-0.029,0.529,0.078c0.525,0.646,0.631,1.482,0.164,2.033c-0.78,0.915-1.391,1.98-2.354,2.738
			c0,0.057-0.008,0.111-0.007,0.168c-0.033,0.02-0.081,0.027-0.131,0.035c-0.047,0.121-0.095,0.241-0.142,0.363
			c-0.273-0.344-0.043-0.339,0.142-0.363c0.016-0.041,0.032-0.081,0.047-0.121c0.033-0.024,0.059-0.057,0.091-0.082
			C34.444,59.997,35.379,58.503,36.089,56.941z M23.759,25.625c0.066,0.072,0.197,0.162,0.186,0.211
			c-0.049,0.172-0.146,0.33-0.229,0.492c-0.066-0.074-0.197-0.164-0.184-0.215C23.581,25.943,23.681,25.787,23.759,25.625z
			 M19.901,31.471c-0.061-0.078-0.184-0.174-0.168-0.234c0.041-0.172,0.143-0.33,0.219-0.492c0.064,0.072,0.197,0.166,0.182,0.215
			C20.085,31.139,19.983,31.303,19.901,31.471z M21.175,29.348c-0.057-0.068-0.113-0.182-0.098-0.266
			c0.115-0.604,0.322-1.134,1.054-1.151c-0.005-0.029,0.003-0.052-0.003-0.082c0.051-0.014,0.104-0.023,0.157-0.036
			c0.066-0.08,0.132-0.161,0.199-0.239c-0.025,0.066-0.029,0.164-0.076,0.193c-0.037,0.023-0.079,0.036-0.123,0.046
			c-0.03,0.036-0.059,0.071-0.088,0.106c-0.026,0-0.04,0.011-0.065,0.011c0.108,0.661-0.274,1.085-0.753,1.456
			C21.341,29.416,21.21,29.391,21.175,29.348z M22.118,38.66c-0.236-0.086-0.471-0.432-0.527-0.699
			c-0.08-0.4-0.164-0.939,0.033-1.229c2.025-2.98,3.674-6.24,6.4-8.701c0.122-0.11,0.357-0.096,0.549-0.128
			c-0.002-0.014,0-0.026-0.002-0.04c0.016-0.013,0.034-0.025,0.05-0.038c0.035-0.253,0.064-0.505,0.116-0.753
			c0.016-0.072,0.121-0.123,0.188-0.184c0.082,0.164,0.27,0.4,0.221,0.477c-0.127,0.187-0.337,0.315-0.524,0.46
			c-0.003,0.024-0.008,0.049-0.011,0.073c-0.011,0.002-0.025,0.002-0.037,0.004c0.179,0.997-0.199,1.874-0.7,2.673
			c-1.637,2.609-3.309,5.197-5,7.771C22.745,38.547,22.315,38.732,22.118,38.66z M27.847,53.215
			c-0.092,0.188-0.223,0.377-0.387,0.498c-0.145,0.109-0.426,0.227-0.527,0.16c-0.148-0.098-0.221-0.35-0.273-0.551
			c-0.209-0.801,0.262-1.438,0.545-2.119c0.98-2.361,1.998-4.709,2.914-7.096c0.299-0.773,0.357-1.645,0.467-2.48
			c0.055-0.4-0.391-0.828-1.053-0.873c-0.148,0.094-0.582,0.234-0.799,0.531c-1.068,1.465-2.07,2.977-3.115,4.459
			c-0.178,0.254-0.422,0.488-0.689,0.639c-0.105,0.064-0.482-0.082-0.516-0.195c-0.139-0.49-0.428-1.119-0.242-1.486
			c1.475-2.953,3.039-5.861,4.598-8.77c0.076-0.143,0.357-0.258,0.527-0.238c0.166,0.02,0.385,0.193,0.449,0.354
			c0.162,0.391,0.246,0.814,0.369,1.221c0.705,2.338,1.244,4.725,2.146,7.002c0.199,0.508,0.326,1.057-0.051,1.518
			C30.372,48.041,29.124,50.637,27.847,53.215z M29.96,59.775c-0.096,0.178-0.27,0.312-0.406,0.467
			c-0.074-0.045-0.162-0.078-0.215-0.141c-0.066-0.08-0.141-0.18-0.145-0.275c-0.01-0.311-0.104-0.693,0.037-0.922
			c1.312-2.105,1.918-4.486,2.73-6.787c0.213-0.602,0.43-1.215,0.752-1.76c0.229-0.393,0.188-1.236,0.863-1.023
			c0.383,0.119,0.613,0.789,0.861,1.242c0.26,0.479,0.41,1.023,0.018,1.492C32.509,54.379,31.358,57.15,29.96,59.775z
			 M36.329,67.725c-0.024,0.004-0.04,0.013-0.062,0.018c0.054,0.525,0.127,1.059-0.591,1.207c0.002,0.021,0.004,0.043,0.007,0.064
			c-0.018,0.011-0.031,0.024-0.048,0.036c0.227,1.292-0.453,2.358-0.927,3.47c-0.041,0.096-0.391,0.17-0.51,0.102
			c-0.146-0.082-0.318-0.365-0.275-0.494c0.375-1.133,0.612-2.354,1.712-3.077c-0.005-0.029-0.005-0.058-0.011-0.087
			c0.02-0.003,0.033-0.01,0.052-0.014c-0.057-0.53-0.097-1.05,0.591-1.207c-0.002-0.026-0.005-0.052-0.008-0.078
			c0.03-0.015,0.051-0.034,0.08-0.05c0.058-1.531,1.108-2.624,1.779-3.88c0.197-0.375,0.668-0.424,0.703-0.113
			c0.023,0.199,0.121,0.475,0.029,0.588c-0.89,1.095-1.134,2.679-2.512,3.405C36.337,67.652,36.329,67.687,36.329,67.725z
			 M36.813,79.346c-0.043,0.076-0.156,0.109-0.238,0.164c-0.078-0.189-0.273-0.432-0.217-0.564c1.367-3.215,2.115-6.631,3.262-9.916
			c0.082-0.234,0.42-0.379,0.637-0.564c0.176,0.229,0.42,0.432,0.514,0.689c0.217,0.594,0.359,1.215,0.543,1.863
			c-0.104,0.27-0.182,0.578-0.33,0.848C39.601,74.363,38.208,76.855,36.813,79.346z M42.823,80.16
			c-1.008,2.219-2.039,4.426-3.068,6.633c-0.028,0.057-0.121,0.08-0.208,0.106c0.003,0.035,0.002,0.069,0.006,0.104
			c-0.026,0.015-0.057,0.028-0.086,0.042c0.001,0.169,0.008,0.34-0.039,0.493c-0.035,0.123-0.197,0.207-0.303,0.309
			c-0.02-0.188-0.113-0.412-0.041-0.555c0.057-0.116,0.231-0.177,0.383-0.247c0-0.04-0.001-0.08,0-0.12
			c0.023-0.01,0.052-0.018,0.08-0.026c-0.078-0.819-0.01-1.607,0.293-2.403c0.795-2.088,1.518-4.203,2.275-6.305
			c0.182-0.506,0.746-0.928,0.854-0.703c0.18,0.367,0.377,0.797,0.342,1.178C43.263,79.176,43.04,79.684,42.823,80.16z M57.087,29.5
			c-0.051,0.08-0.473,0.074-0.523-0.014c-0.537-0.881-1.045-1.779-1.518-2.695c-0.051-0.096,0.137-0.426,0.281-0.488
			c0.979-0.42,2.006-0.457,3.037-0.236c0.129,0.029,0.215,0.285,0.414,0.568C58.245,27.553,57.685,28.537,57.087,29.5z
			 M63.192,30.533c-0.992,1.984-1.994,3.967-3.012,5.939c-0.16,0.309-0.248,0.961-0.805,0.516c-0.285-0.23-0.557-0.76-0.492-1.088
			c0.178-0.928,0.508-1.828,0.826-2.725c0.531-1.494,1.018-3.016,1.684-4.449c0.412-0.883,0.068-2.195,1.371-2.609
			c0.857,0.805,0.424,2.014,1.027,3.029C63.606,29.58,63.427,30.068,63.192,30.533z M64.911,37.188
			c0.055,0.176,0.111,0.352,0.168,0.527c-0.066,0.076-0.131,0.15-0.197,0.227c-0.055-0.174-0.135-0.348-0.154-0.527
			C64.72,37.348,64.845,37.264,64.911,37.188z M65.095,53.248c-0.043,0.057-0.414-0.01-0.463-0.104
			c-0.186-0.375-0.52-0.857-0.412-1.168c0.822-2.395,1.727-4.758,2.637-7.121c0.029-0.078,0.496-0.105,0.521-0.049
			c0.346,0.758,0.648,1.537,0.922,2.207c-0.057,0.336-0.076,0.545-0.131,0.744C67.604,49.844,66.384,51.568,65.095,53.248z
			 M68.964,61.391c-0.057,0.084-0.166,0.178-0.252,0.18c-0.068,0-0.158-0.129-0.197-0.219c-0.604-1.389-1.07-2.768-0.283-4.277
			c0.338-0.65,0.494-1.398,0.717-2.109c0.219-0.695,0.279-1.479,1.078-1.828c0.305,0.67,0.635,1.33,0.904,2.014
			c0.113,0.289,0.1,0.627,0.123,0.783c0,0.268,0.029,0.385-0.004,0.479C70.415,58.098,69.987,59.869,68.964,61.391z M71.571,70.143
			c-0.225-0.041-0.422-0.393-0.561-0.646c-0.098-0.174-0.08-0.412-0.148-0.836c0.045-0.32,0.047-0.867,0.197-1.369
			c0.43-1.426,0.898-2.84,1.408-4.238c0.068-0.18,0.662-0.383,0.715-0.32c0.785,0.916,1.041,2.066,1.297,3.207
			c0.018,0.078-0.055,0.219-0.125,0.266c-1.275,0.844-1.115,2.502-2.021,3.545C72.151,69.961,71.796,70.184,71.571,70.143z
			 M75.294,78.145c-0.08,0.164-0.32,0.248-0.488,0.369c-0.096-0.012-0.244,0.016-0.277-0.035c-0.604-0.875-1.443-1.869-0.912-2.885
			c0.859-1.633,1.094-3.436,1.777-5.1c0.074-0.184,0.258-0.322,0.393-0.482c0.105,0.162,0.254,0.311,0.311,0.486
			c0.385,1.215,0.754,2.436,1.125,3.652C76.583,75.484,75.952,76.822,75.294,78.145z M79.622,85.002
			c-0.291,0.654-0.936,1.145-1.408,1.721c-0.539,0.656-0.605,0.641-0.951-0.086c-0.383-0.811-0.719-1.641,0.078-2.342
			c0.736-0.646,0.453-1.835,1.329-2.362c-0.009-0.043-0.019-0.085-0.026-0.128c0.029-0.021,0.063-0.038,0.096-0.057
			c0.006-0.155,0.008-0.312,0.047-0.457c0.037-0.129,0.168-0.234,0.254-0.35c0.021,0.182,0.107,0.395,0.041,0.535
			c-0.056,0.118-0.205,0.192-0.342,0.271c-0.001,0.046-0.002,0.093-0.006,0.139c-0.025,0.013-0.04,0.032-0.063,0.046
			c0.055,0.271,0.117,0.542,0.149,0.817C78.911,83.578,80.015,84.121,79.622,85.002z"/>
	</g>
</g>
</svg>
