<?xml version="1.0" encoding="utf-8"?>
<!-- Generator: Adobe Illustrator 16.0.0, SVG Export Plug-In . SVG Version: 6.00 Build 0)  -->
<!DOCTYPE svg PUBLIC "-//W3C//DTD SVG 1.1//EN" "http://www.w3.org/Graphics/SVG/1.1/DTD/svg11.dtd">
<svg version="1.1" id="Layer_1" xmlns="http://www.w3.org/2000/svg" xmlns:xlink="http://www.w3.org/1999/xlink" x="0px" y="0px"
	 width="120px" height="120px" viewBox="0 0 120 120" style="enable-background:new 0 0 120 120;" xml:space="preserve">
<g id="spotify">
	<g>
		<path style="fill-rule:evenodd;clip-rule:evenodd;" d="M111.891,50.626c-0.602-5.156-1.963-10.049-4.113-14.75
			c-0.311-0.68-0.705-1.34-0.9-2.053c-0.936-3.412-2.904-6.14-5.389-8.588c-2.133-2.101-4.193-4.277-6.213-6.488
			c-1.672-1.831-3.525-3.437-5.576-4.809c-1.777-1.189-3.578-2.349-5.422-3.432c-1.66-0.977-3.439-1.686-5.35-2.09
			c-1.668-0.352-3.318-0.818-4.947-1.33c-3.193-1.003-6.434-1.525-9.791-1.301c-1.922,0.129-3.823,0.42-5.73,0.604
			c-3.002,0.289-5.896,1.056-8.777,1.785c-4.984,1.264-9.621,3.52-14.254,5.726c-0.671,0.32-1.277,0.778-1.908,1.179
			c-3.727,2.365-6.93,5.358-10.107,8.384c-2.802,2.667-5.207,5.627-7.299,8.905c-5.553,8.697-8.658,18.07-8.434,29.381
			c-0.196,4.915,0.697,10.578,2.746,16.06c0.822,2.202,1.557,4.438,2.417,6.624c0.819,2.086,1.612,4.203,2.659,6.178
			c3.518,6.643,8.391,12.104,14.664,16.283c2.413,1.607,4.935,2.979,7.789,3.668c1.553,0.375,3.096,0.805,4.611,1.304
			c2.031,0.669,4.035,1.338,6.207,1.493c2.445,0.174,4.873,0.579,7.311,0.873c0.316,0.039,0.645,0.045,0.961,0.01
			c2.229-0.258,4.466-0.471,6.681-0.818c1.305-0.205,2.516-0.225,3.742,0.357c1.139,0.54,2.348,0.445,3.352-0.293
			c1.172-0.863,2.553-1.088,3.869-1.475c3.102-0.91,6.031-2.164,8.729-3.95c0.803-0.53,1.578-1.138,2.449-1.521
			c1.617-0.711,2.975-1.637,3.801-3.264c0.23-0.453,0.697-0.793,1.078-1.163c2.225-2.161,4.523-4.253,6.664-6.497
			c1.246-1.305,2.303-2.807,3.336-4.295c0.916-1.313,1.639-2.758,2.523-4.096c2.928-4.426,4.816-9.27,6.031-14.414
			c0.361-1.537,0.602-3.127,1.695-4.438c0.445-0.532,0.615-1.373,0.711-2.099c0.309-2.328,0.721-4.644,0.656-7.017
			C112.285,56.376,112.227,53.511,111.891,50.626z M75.752,100.334c-0.574,0.278-1.203,0.442-1.779,0.72
			c-1.861,0.896-3.842,1.109-5.877,1.342c-3.875,0.443-7.638-0.151-11.458-0.543c-3.092-0.315-6.114-0.882-9.141-1.508
			c-0.417-0.086-0.845-0.155-1.241-0.305c-2.697-1.021-5.452-1.834-8.285-2.381c-0.205-0.04-0.414-0.127-0.588-0.242
			c-0.171-0.115-0.36-0.273-0.423-0.453c-0.042-0.116,0.089-0.398,0.21-0.452c3.123-1.374,6.205-2.866,9.405-4.032
			c1.772-0.646,3.735-0.807,5.63-1.062c1.049-0.141,2.133-0.025,2.922-0.025c4.453-0.636,8.289,0.826,12.167,1.962
			c1.635,0.478,3.23,1.11,4.805,1.768c1.373,0.573,2.752,1.182,4.012,1.965c0.844,0.524,2.025,0.826,2.201,2.101
			C77.604,99.888,76.596,99.925,75.752,100.334z M103.883,58.782c-0.469,5.76-1.656,11.398-3.67,16.83
			c-1.904,5.133-4.334,9.998-7.697,14.355c-0.26,0.337-0.514,0.684-0.811,0.987c-0.336,0.344-0.775,0.398-1.15,0.106
			c-1.262-0.982-2.521-1.972-3.746-3.003c-3.566-3.005-7.637-5.057-12.064-6.439c-2.855-0.892-5.742-1.614-8.715-2.022
			c-5.016-0.689-10.001-0.623-14.972,0.352c-1.047,0.205-2.087,0.449-3.131,0.672c-4.338,0.92-8.287,2.692-12.018,5.1
			c-2.596,1.676-5.398,3.03-8.118,4.514c-0.135,0.072-0.446,0.066-0.505-0.02c-0.1-0.145-0.1-0.388-0.078-0.582
			c0.125-1.054,0.311-2.102,0.389-3.158c0.052-0.678-0.311-1.219-0.852-1.637c-0.549-0.426-1.279-0.471-1.769-0.064
			c-0.244,0.203-0.479,0.424-0.687,0.662c-1.053,1.204-1.016,1.18-1.223,0.939c-0.544-0.633-0.102-1.24,0.061-1.814
			c0.523-1.848,1.176-3.659,1.658-5.516c0.236-0.912,0.275-1.893,0.27-2.842c-0.004-0.68-0.479-1.195-1.113-1.444
			c-0.645-0.254-1.236-0.075-1.776,0.376c-0.53,0.441-0.724,1.295-1.571,1.354c0.004,0.029,0,0.057,0.006,0.086
			c-0.058,0.026-0.115,0.054-0.171,0.083c-0.041,0.07-0.082,0.14-0.122,0.21c0.016-0.061,0.016-0.143,0.054-0.177
			c0.019-0.016,0.046-0.021,0.068-0.033c0.031-0.053,0.062-0.106,0.093-0.159c0.027,0,0.047-0.008,0.072-0.01
			c-0.11-0.74,0.145-1.403,0.411-2.082c0.897-2.286,1.784-4.576,2.628-6.883c0.328-0.896,0.64-1.824,0.768-2.764
			c0.264-1.934-0.249-2.574-2.251-3.121c-0.831-0.227-0.966-0.384-0.71-1.033c0.471-1.189,1.006-2.354,1.48-3.541
			c0.314-0.789,0.678-1.582,0.825-2.406c0.28-1.562-0.491-2.654-2.058-3.105c-0.303-0.088-0.645-0.035-0.949-0.119
			c-0.295-0.082-0.546-0.213-0.467-0.655c0.713-4.003,1.84-7.898,3.048-11.771c0.987-3.167,2.211-6.225,4.041-9.037
			c0.956-1.469,2.071-2.729,3.46-3.738c5.107-3.715,10.4-7.143,16.125-9.837c3.885-1.829,7.994-2.938,12.26-3.528
			c2.658-0.367,5.312-0.504,7.988-0.547c2.176-0.037,4.227,0.4,6.234,1.23c2.182,0.902,4.27,1.97,6.236,3.268
			c2.051,1.354,4.068,2.76,6.111,4.127c0.906,0.605,1.582,1.4,2.217,2.281c0.996,1.385,2.051,2.734,3.172,4.02
			c1.135,1.299,2.08,2.709,2.887,4.224c0.453,0.854,0.945,1.628,1.891,2.093c0.539,0.265,1.02,0.792,1.352,1.312
			c2.473,3.889,4.656,7.9,5.742,12.449C103.939,51.112,104.197,54.942,103.883,58.782z M87.391,40.36
			c-2.102-1.477-4.168-3-6.314-4.404c-1.607-1.053-3.27-2.045-4.994-2.887c-2.027-0.99-4.195-1.587-6.484-1.59
			c-1.285-0.001-2.568,0-3.854,0c-7.086,0.166-14.029,1.266-20.835,3.229c-4.338,1.251-8.437,3.059-12.236,5.508
			c-0.803,0.519-1.553,1.131-2.277,1.758c-0.844,0.728-1.268,1.714-1.441,2.797c-0.229,1.426,0.846,2.789,2.285,2.953
			c1.449,0.167,2.758-0.211,3.944-1.032c2.126-1.469,4.444-2.57,6.839-3.499c7.65-2.966,15.612-4.309,23.794-4.55
			c3.344-0.099,6.334,0.843,9.09,2.62c1.525,0.985,2.963,2.109,4.461,3.138c1.408,0.968,2.797,1.985,4.287,2.812
			c1.41,0.779,2.893,0.697,4.207-0.35c1.35-1.072,1.848-2.696,1.334-4.314C88.889,41.585,88.191,40.923,87.391,40.36z M85.039,54.01
			c-1.734-1.974-3.816-3.397-6.219-4.398c-4.609-1.919-9.42-2.671-14.406-2.698c-2.652,0.24-5.306,0.469-7.958,0.726
			c-3.843,0.372-7.582,1.235-11.202,2.554c-2.923,1.066-5.705,2.432-7.964,4.65c-0.606,0.596-1.194,1.234-1.658,1.941
			c-0.659,1.008-0.548,2.461,0.12,3.32c0.766,0.982,1.787,1.298,3.164,0.758c1.387-0.545,2.735-1.205,4.055-1.9
			c2.09-1.1,4.244-1.971,6.563-2.475c5.021-1.092,10.075-1.752,15.227-1.761c4.557-0.007,8.912,0.815,13.066,2.671
			c1.07,0.478,2.096,1.059,3.148,1.578c0.766,0.375,1.549,0.715,2.312,1.094c1.49,0.738,3.311-1.104,3.162-2.229
			C86.273,56.491,86.033,55.138,85.039,54.01z M74.82,66.143c-0.828-0.661-1.711-1.278-2.645-1.774
			c-3.445-1.832-7.234-2.656-11.033-3.056c-7.335-0.771-14.195,0.884-20.396,4.985c-0.529,0.35-1.083,0.714-1.49,1.188
			c-0.748,0.865-0.973,1.892-0.482,2.979c0.5,1.112,1.637,1.753,2.879,1.557c0.619-0.1,1.229-0.332,1.807-0.586
			c1.365-0.602,2.691-1.297,4.067-1.873c1.175-0.494,2.37-1.121,3.604-1.263c3.928-0.452,7.883-0.521,11.787,0.263
			c2.822,0.566,5.566,1.359,8.035,2.976c2.312,1.513,5.123-1.003,4.859-3.16C75.85,67.493,75.51,66.694,74.82,66.143z"/>
	</g>
</g>
</svg>
