<?xml version="1.0" encoding="utf-8"?>
<!-- Generator: Adobe Illustrator 16.0.0, SVG Export Plug-In . SVG Version: 6.00 Build 0)  -->
<!DOCTYPE svg PUBLIC "-//W3C//DTD SVG 1.1//EN" "http://www.w3.org/Graphics/SVG/1.1/DTD/svg11.dtd">
<svg version="1.1" id="Layer_1" xmlns="http://www.w3.org/2000/svg" xmlns:xlink="http://www.w3.org/1999/xlink" x="0px" y="0px"
	 width="120px" height="120px" viewBox="0 0 120 120" style="enable-background:new 0 0 120 120;" xml:space="preserve">
<g id="rdio">
	<g>
		<path style="fill-rule:evenodd;clip-rule:evenodd;" d="M114.27,36.778c-2.445-0.147-4.791-0.871-7.202-1.13
			c-2.398-0.257-4.532-1.005-6.475-2.409c-1.237-0.894-2.606-1.525-4.03-2.11c-4.76-1.952-9.004-4.674-12.234-8.778
			c-1.395-1.77-3.172-3.134-4.854-4.592c-0.874-0.757-1.915-0.646-2.753,0.138c-0.688,0.638-1.17,1.375-1.32,2.334
			c-0.346,2.204-0.79,4.396-1.102,6.604c-0.299,2.108-0.625,4.23-0.687,6.353c-0.219,7.515-0.35,15.033-0.468,22.552
			c-0.021,1.434-0.308,2.772-0.666,4.16c-0.768,2.978-2.602,4.761-5.461,5.544c-0.91,0.249-1.716,0.606-2.456,1.149
			c-1.822,1.331-3.815,2.303-5.974,2.961c-0.677,0.207-1.348,0.467-1.976,0.793c-3.165,1.657-6.557,2.071-10.057,1.828
			c-3.08-0.215-5.651-1.531-7.73-3.793c-0.329-0.357-0.621-0.836-0.723-1.303c-0.586-2.716-0.77-5.455,0.247-8.102
			c0.695-1.808,1.74-3.446,3.087-4.861c1.896-1.995,4.179-3.181,6.969-3.305c0.709-0.032,1.449-0.017,2.117-0.215
			c1.988-0.592,4.017-0.52,6.049-0.571c2.334-0.06,4.667-0.173,6.997-0.327c0.696-0.046,1.397-0.252,2.061-0.486
			c1.014-0.358,1.691-1.035,1.926-2.16c0.25-1.197,0.443-2.379,0.45-3.613c0.045-7.716-0.306-15.441,0.483-23.145
			c0.184-1.774-0.815-3.099-2.543-3.687c-0.67-0.229-1.348-0.47-2.043-0.588c-1.293-0.223-2.604-0.803-3.904-0.419
			c-1.606,0.475-3.223,0.336-4.839,0.416c-1.421,0.071-2.872-0.05-4.26,0.199c-5.685,1.022-11.415,1.889-16.948,3.603
			c-5.654,1.752-10.996,4.114-15.607,7.996c-4.417,3.716-8.267,7.852-10.573,13.196C5.336,46.645,3.67,52.48,4.053,58.726
			c0.026,0.405,0.003,0.813,0.003,1.221c0.002,0,0.002,0,0.004,0c0,1.421-0.061,2.849,0.017,4.268
			c0.079,1.414,0.247,2.825,0.46,4.226c0.952,6.215,3.101,11.959,6.738,17.126c3.449,4.899,7.62,8.978,13.055,11.634
			c3.374,1.646,6.776,3.238,10.164,4.859c2.876,1.376,5.941,2.129,9.09,2.322c3.848,0.236,7.704,0.264,11.537-0.471
			c4.399-0.841,8.734-1.832,12.754-3.896c0.719-0.371,1.47-0.701,2.236-0.958c2.336-0.779,4.466-1.943,6.472-3.351
			c4.001-2.809,7.695-5.94,10.958-9.621c3.286-3.709,5.794-7.812,7.442-12.468c1.978-5.578,3.149-11.325,3.62-17.218
			c0.072-0.9,0.425-1.495,1.221-1.935c3.668-2.026,6.852-4.72,10.048-7.394c2.362-1.978,4.009-4.561,5.859-6.965
			C116.539,39.056,115.57,36.859,114.27,36.778z M24.735,87.996c-0.112,0.129-0.239,0.372-0.333,0.361
			c-0.173-0.024-0.423-0.166-0.47-0.314c-0.077-0.236-0.071-0.539,0.01-0.777c0.05-0.141,0.312-0.207,0.479-0.308
			c0.114,0.247,0.24,0.488,0.335,0.741C24.789,87.782,24.744,87.895,24.735,87.996z M29.97,91.273
			c-0.08-0.104-0.188-0.196-0.226-0.312c-0.017-0.049,0.109-0.146,0.168-0.223c0.045,0.088,0.089,0.176,0.134,0.262
			C30.02,91.092,29.995,91.182,29.97,91.273z M104.814,42.54c-0.652,0.477-1.308,0.956-1.997,1.379
			c-1.903,1.167-3.822,2.306-5.735,3.457c-0.87,0.523-1.762,1.013-2.604,1.577c-0.749,0.503-1.488,1.041-2.152,1.646
			c-0.788,0.718-1.053,1.642-1.051,2.742c0.014,6.795-1.344,13.298-4.33,19.433c-0.223,0.456-0.48,0.907-0.621,1.39
			c-0.773,2.636-2.443,4.642-4.44,6.425c-2.276,2.033-4.421,4.191-6.401,6.518c-1.895,2.225-4.41,3.553-7.023,4.716
			c-0.547,0.245-1.16,0.474-1.747,0.478c-1.638,0.006-3.229,0.269-4.821,0.601c-0.703,0.146-1.088-0.219-1.16-1.013
			c-0.055-0.607,0.006-1.236-0.128-1.82c-0.108-0.472-0.354-0.961-0.674-1.321c-0.973-1.095-2.694-0.86-3.312,0.44
			c-0.572,1.205-0.877,2.487-0.891,3.83c-0.007,0.713-0.386,1.121-1.077,1.246c-0.897,0.159-1.792,0.338-2.693,0.452
			c-0.497,0.063-1.123,0.101-1.375-0.382c-0.145-0.277,0.136-0.763,0.19-1.16c0.08-0.602,0.173-1.205,0.174-1.81
			c0.003-0.395-0.085-0.813-0.235-1.181c-0.327-0.797-0.904-1.371-1.796-1.457c-0.887-0.086-1.6,0.34-2.065,1.056
			c-0.444,0.683-0.76,1.46-0.656,2.305c0.073,0.601,0.251,1.189,0.366,1.784c0.093,0.49-0.133,0.797-0.605,0.836
			c-0.303,0.023-0.608,0.043-0.913,0.046c-2.751,0.028-2.751,0.026-2.735-2.629v-0.304h0.037c0-0.611,0.037-1.224-0.013-1.829
			c-0.041-0.499-0.141-1.005-0.299-1.479c-0.267-0.801-0.707-1.482-1.647-1.596c-0.688-0.084-1.229,0.489-1.663,1.51
			c-0.575,1.354-0.54,2.779-0.625,4.195c-0.044,0.754-0.398,0.999-1.234,0.916c-0.201-0.02-0.406-0.037-0.603-0.083
			c-0.583-0.136-0.896-0.516-0.792-1.081c0.521-2.829,0.165-5.68,0.237-8.521c0.01-0.385-0.133-0.791-0.272-1.162
			c-0.201-0.535-1.192-0.793-1.544-0.367c-0.835,1.014-1.605,2.08-2.399,3.129c-0.24,0.318-0.458,0.654-0.704,0.967
			c-0.055,0.068-0.194,0.123-0.274,0.104c-0.057-0.014-0.106-0.164-0.111-0.256c-0.032-0.708-0.049-1.419-0.078-2.127
			c-0.024-0.609-0.005-1.225-0.098-1.824c-0.15-0.965-0.685-1.701-1.598-2.074c-0.745-0.305-1.376,0.02-1.942,0.522
			c-0.134,0.119-0.334,0.163-0.505,0.241c-0.075-0.184-0.243-0.384-0.211-0.545c0.288-1.488,0.586-2.977,0.929-4.453
			c0.227-0.987,0.59-1.947,0.786-2.939c0.271-1.379-0.735-2.453-2.112-2.24c-0.573,0.09-1.168,0.352-1.643,0.691
			c-1.019,0.725-1.648,1.788-2.13,2.922c-0.956,2.249-1.649,4.576-1.972,7.004c-0.037,0.283-0.182,0.548-0.277,0.822
			c-0.263-0.139-0.581-0.221-0.778-0.423c-0.8-0.816-0.841-1.044-0.121-2.015c0.625-0.843,0.976-1.767,1.172-2.772
			c0.683-3.49,1.543-6.929,2.787-10.269c0.241-0.645,0.375-1.393,0.306-2.068c-0.054-0.555-0.404-1.132-0.762-1.59
			c-0.489-0.627-1.285-0.769-1.912-0.344c-0.661,0.447-1.369,0.932-1.812,1.57c-1.041,1.493-1.936,3.093-2.898,4.643
			c-0.069,0.111-0.217,0.174-0.329,0.261c-0.028-0.196-0.126-0.413-0.074-0.586c0.716-2.32,1.15-4.731,2.291-6.917
			c0.42-0.806,0.747-1.671,1.025-2.538c0.15-0.466,0.171-0.998,0.127-1.489c-0.021-0.245-0.275-0.569-0.505-0.666
			c-0.224-0.095-0.675-0.049-0.813,0.114c-0.911,1.088-1.777,2.211-2.627,3.348c-0.301,0.402-0.5,0.881-0.771,1.309
			c-0.092,0.146-0.263,0.242-0.398,0.361c-0.032-0.188-0.138-0.4-0.08-0.553c0.783-2.088,1.577-4.173,2.393-6.248
			c1.746-4.442,3.532-8.869,6.042-12.953c0.55-0.895,0.472-1.666-0.042-2.551c-0.644-1.109-0.611-1.167,0.247-2.032
			c1.074-1.081,2.152-2.164,3.303-3.164c1.301-1.132,2.657-2.209,4.038-3.243c3.19-2.386,6.561-4.385,10.517-5.322
			c1.961-0.466,3.828-1.336,5.737-2.024c2.603-0.937,5.271-1.479,8.056-1.293c1.914,0.128,3.831,0.226,5.741,0.397
			c0.976,0.087,1.146,0.353,1.173,1.397c0.009,0.305,0.018,0.612-0.008,0.915c-0.403,4.763-0.297,9.541-0.435,14.311
			c-0.029,0.972-0.314,1.258-1.311,1.212c-1.215-0.058-2.429-0.175-3.639-0.304c-5.488-0.582-10.472,0.688-14.919,3.994
			c-4.292,3.191-7.132,7.464-9.155,12.324c-0.832,2-1.226,4.082-0.434,6.234c0.173,0.467,0.211,0.992,0.243,1.494
			c0.302,4.977,2.93,8.519,6.889,11.254c2.483,1.713,5.225,2.665,8.229,2.9c1.416,0.111,2.837,0.445,4.238,0.367
			c2.833-0.16,5.64-0.579,8.353-1.518c4.133-1.43,8.1-3.245,12.053-5.092c1.868-0.873,3.43-2.16,4.791-3.696
			c0.606-0.684,1.105-1.507,1.823-2.036c1.004-0.742,1.397-1.756,1.574-2.852c0.354-2.202,0.592-4.423,0.859-6.639
			c0.328-2.716,0.638-5.434,0.953-8.152c0.257-2.216,0.477-4.438,0.771-6.65c0.523-3.934,0.731-7.884,0.764-11.849
			c0.002-0.23,0.24-0.504,0.441-0.668c0.09-0.072,0.393,0.032,0.543,0.137c0.33,0.232,0.629,0.512,0.931,0.783
			c3.985,3.572,8.624,6.054,13.507,8.142c2.244,0.961,4.548,1.726,6.914,2.318c0.229,0.057,0.447,0.309,0.576,0.527
			C105.174,42.136,104.966,42.429,104.814,42.54z"/>
	</g>
</g>
</svg>
