<?xml version="1.0" encoding="utf-8"?>
<!-- Generator: Adobe Illustrator 16.0.0, SVG Export Plug-In . SVG Version: 6.00 Build 0)  -->
<!DOCTYPE svg PUBLIC "-//W3C//DTD SVG 1.1//EN" "http://www.w3.org/Graphics/SVG/1.1/DTD/svg11.dtd">
<svg version="1.1" id="Layer_1" xmlns="http://www.w3.org/2000/svg" xmlns:xlink="http://www.w3.org/1999/xlink" x="0px" y="0px"
	 width="120px" height="120px" viewBox="0 0 120 120" style="enable-background:new 0 0 120 120;" xml:space="preserve">
<g id="pandora">
	<g>
		<path style="fill-rule:evenodd;clip-rule:evenodd;" d="M99.408,40.21c-0.096-1.594-0.379-3.176-0.518-4.768
			c-0.264-3.042-1.291-5.819-2.789-8.45c-1.389-2.439-3.129-4.59-5.213-6.464c-1.35-1.215-2.748-2.38-4.07-3.626
			c-3.176-2.997-6.887-5.013-11.072-6.211c-1.123-0.322-2.258-0.681-3.307-1.186c-2.557-1.229-5.266-1.719-8.061-1.828
			c-6.875-0.271-13.654,0.479-20.328,2.123c-1.268,0.312-2.514,0.423-3.795,0.475c-1.598,0.065-3.191,0.214-4.787,0.312
			c-2.471,0.152-4.838,0.77-7.195,1.498c-0.793,0.245-1.656,0.396-2.486,0.381c-2.078-0.043-3.123,0.411-3.826,2.092
			c-0.916,2.184-1.451,4.471-1.359,6.862c0.086,2.216,1.422,3.483,3.699,3.523c1.176,0.021,2.354,0.004,4.211,0.004
			c1.537,0.21,3.809-0.062,5.998,0.608c0.801,0.244,1.365,0.633,1.559,1.425c0.197,0.823,0.354,1.664,0.438,2.506
			c0.117,1.169-0.002,2.382,0.25,3.515c0.451,2.009,0.434,4.032,0.508,6.06c0.193,5.232,0.395,10.464,0.598,15.696
			c0.018,0.427,0.004,0.871,0.121,1.275c0.607,2.096,0.451,4.241,0.443,6.375c-0.025,7.701-0.156,15.405-0.059,23.106
			c0.039,3.257-1.07,6.062-2.525,8.816c-0.578,1.097-1.592,1.955-2.797,1.892c-2.445-0.128-4.566,1.018-6.861,1.453
			c-1.965,0.373-2.635,1.444-2.584,3.465c0.066,2.801,0.85,5.477,1.553,8.16c0.107,0.404,0.344,0.784,0.568,1.146
			c0.865,1.394,2.074,2.158,3.76,1.871c1.789-0.305,3.566-0.674,5.352-0.998c1.783-0.325,3.559-0.742,5.357-0.917
			c2.879-0.279,5.736-0.675,8.5-1.502c1.57-0.47,3.127-0.659,4.74-0.623c1.496,0.032,2.971-0.064,4.463-0.29
			c4.01-0.604,8.039-1.159,12.113-0.824c1.783,0.146,3.07-0.756,4.252-1.879c0.65-0.619,0.916-1.397,0.645-2.339
			c-0.203-0.704-0.404-1.451-0.385-2.173c0.051-1.861-0.914-3.056-2.443-3.812c-1.525-0.755-3.086-1.507-4.713-1.967
			c-2.562-0.726-5.035-1.785-7.705-2.146c-0.672-0.09-1.133-0.569-1.207-1.308c-0.055-0.532-0.129-1.063-0.156-1.597
			c-0.18-3.522-0.346-7.045-0.52-10.567c-0.076-1.495-0.129-2.991-0.24-4.483c-0.057-0.742-0.264-1.472-0.312-2.213
			c-0.018-0.271,0.148-0.719,0.355-0.816c1.447-0.674,2.885-1.422,4.408-1.861c1.523-0.44,3.148-0.525,4.719-0.805
			c6.262-1.11,12.23-3.034,17.639-6.453c1.533-0.969,3.1-1.934,4.447-3.129c3.727-3.295,6.518-7.336,8.879-11.687
			C98.977,45.522,99.566,42.937,99.408,40.21z M40.678,100.831c-0.244,0.18-0.551,0.27-0.826,0.393
			c-0.123-0.186-0.312-0.394-0.281-0.437c0.182-0.247,0.391-0.502,0.648-0.651c0.113-0.065,0.424,0.062,0.537,0.193
			C40.83,100.418,40.781,100.754,40.678,100.831z M88.564,48.91c-3.756,5.77-9.104,9.227-15.723,10.742
			c-4.055,0.929-8.162,1.631-12.25,2.416c-2.141,0.41-4.078,1.211-5.729,2.677c-1.012,0.899-1.623,1.908-1.578,3.337
			c0.088,2.78,0.014,5.554-0.527,8.306c-0.182,0.932-0.094,1.92-0.098,2.882c-0.016,3.958-0.021,7.916-0.016,11.874
			c0,0.854,0.014,1.715,0.105,2.564c0.211,1.961,1.029,3.387,3.135,3.955c1.32,0.355,2.541,1.08,3.793,1.668
			c0.162,0.076,0.24,0.333,0.357,0.506c-0.201,0.066-0.4,0.189-0.602,0.192c-1.605,0.016-3.209,0.009-4.812,0.009
			c-2.561,0.05-5.139-0.115-7.65,0.593c-0.303,0.085-0.645,0.075-0.957,0.037c-0.293-0.036-0.572-0.168-0.857-0.258
			c0.09-0.191,0.145-0.414,0.275-0.567c1.42-1.654,2.299-3.594,2.977-5.633c0.168-0.501,0.293-1.032,0.326-1.558
			c0.1-1.536-0.754-2.541-2.357-2.864c-1.137-0.229-1.133-0.229-0.623-1.244c0.955-1.909,1.959-3.798,2.846-5.74
			c0.484-1.062,0.816-2.202,1.121-3.332c0.258-0.946-0.283-1.94-1.193-2.367c-0.854-0.4-1.68-0.304-2.381,0.331
			c-0.387,0.352-0.68,0.81-1.031,1.206c-0.055,0.062-0.234,0.104-0.287,0.063c-0.148-0.115-0.344-0.26-0.377-0.423
			c-0.205-1.004,0.162-1.889,0.629-2.75c0.812-1.503,1.625-3.007,2.422-4.519c0.508-0.962,0.777-1.985,0.734-3.084
			c-0.021-0.566-0.383-1.101-0.854-1.211c-0.576-0.136-1.059,0.05-1.414,0.501c-0.393,0.499-0.742,1.03-1.125,1.537
			c-0.055,0.073-0.213,0.141-0.283,0.111c-0.072-0.028-0.123-0.171-0.145-0.271c-0.293-1.516-0.078-2.91,0.619-4.335
			c1.168-2.396,2.125-4.894,3.203-7.334c0.377-0.853,0.336-1.647-0.053-2.469c-0.43-0.909-0.955-1.215-2.033-1.196
			c-0.385,0.006-0.807,0.612-1.107,0.063c-0.176-0.318-0.156-0.838-0.041-1.21c0.854-2.756,1.623-5.531,2.1-8.38
			c0.367-2.183-0.791-3.349-3.111-3.131c-0.82,0.077-0.945-0.007-0.986-0.687c-0.021-0.32-0.012-0.642-0.033-0.962
			c-0.227-3.622-0.424-7.247-0.709-10.865c-0.084-1.054-0.336-2.118-0.668-3.125c-0.82-2.497-2.41-4.257-5.074-4.852
			c-0.832-0.187-1.678-0.32-2.516-0.485c-0.102-0.02-0.195-0.085-0.293-0.128c0.078-0.07,0.143-0.18,0.234-0.204
			c0.924-0.248,1.84-0.59,2.783-0.703c2.648-0.32,5.316-0.498,7.965-0.82c2.539-0.309,5.074-0.673,7.537-1.424
			c0.707-0.215,1.453-0.4,2.184-0.412c3.527-0.053,7.049,0.043,10.523,0.8c1.979,0.431,3.982,0.747,5.967,1.154
			c3.588,0.735,6.977,1.91,9.994,4.097c2.43,1.76,4.689,3.666,6.873,5.731c2.348,2.22,3.271,4.92,3.873,7.884
			c0.023,0.104,0.014,0.214,0.027,0.32C92.363,41.974,91.914,43.763,88.564,48.91z M77.541,32.308
			c-1.389-3.985-3.934-6.779-8.033-8.043c-2.459-0.759-4.969-1.215-7.547-1.27c-1.066-0.022-2.215,0.213-3.184-0.102
			c-1.783-0.577-3.355,0.228-5.018,0.389c-0.393,0.039-0.818,0.294-1.127,0.567c-1.318,1.175-1.949,2.776-2.461,4.398
			c-0.133,0.43,0.117,1.046,0.336,1.507c0.371,0.779,0.711,1.53,0.693,2.428c-0.115,5.682,1.125,11.243,1.537,16.881
			c0.115,1.562,0.688,3.125,1.252,4.608c1.082,2.827,2.25,3.37,5.193,2.662c0.307-0.074,0.6-0.216,0.9-0.326
			c2.701-0.996,5.428-1.929,8.094-3.012c1.982-0.807,3.83-1.921,5.367-3.438c2.953-2.919,5.441-6.081,4.904-10.316
			C78.461,36.683,78.293,34.464,77.541,32.308z M71.371,43.897c-1.328,1.551-2.803,2.934-4.648,3.862
			c-0.762,0.384-1.508,0.812-2.303,1.114c-1.176,0.449-2.266,1.209-3.617,1.085c-0.865-1.285-0.293-2.664-0.236-4.001
			c0.076-1.807,0.225-3.61,0.352-5.52c-0.131-2.036-0.285-4.161-0.398-6.289c-0.078-1.491-0.119-2.986-0.143-4.48
			c-0.021-1.439,0.234-1.611,1.74-1.271c1.453,0.33,2.908,0.656,4.361,0.982c0.414,0.094,0.836,0.167,1.248,0.274
			c2.375,0.625,3.92,2.166,4.52,4.502c0.422,1.639,0.654,3.343,0.791,5.033C73.18,40.96,72.529,42.545,71.371,43.897z"/>
	</g>
</g>
</svg>
