<?xml version="1.0" encoding="utf-8"?>
<!-- Generator: Adobe Illustrator 16.0.0, SVG Export Plug-In . SVG Version: 6.00 Build 0)  -->
<!DOCTYPE svg PUBLIC "-//W3C//DTD SVG 1.1//EN" "http://www.w3.org/Graphics/SVG/1.1/DTD/svg11.dtd">
<svg version="1.1" id="Layer_1" xmlns="http://www.w3.org/2000/svg" xmlns:xlink="http://www.w3.org/1999/xlink" x="0px" y="0px"
	 width="120px" height="120px" viewBox="0 0 120 120" style="enable-background:new 0 0 120 120;" xml:space="preserve">
<g id="lastfm">
	<g>
		<path style="fill-rule:evenodd;clip-rule:evenodd;" d="M118,43.379c-1.084-1.165-2.121-2.376-3.213-3.533
			c-1.515-1.604-3.217-2.953-5.26-3.864c-0.902-0.4-1.798-0.896-2.552-1.525c-1.342-1.125-2.919-1.684-4.546-2.159
			c-0.859-0.25-1.77-0.34-2.603-0.652c-2.135-0.798-4.296-0.647-6.478-0.342c-1.08,0.151-2.154,0.358-3.239,0.458
			c-2.216,0.202-4.305,0.715-6.171,2c-1.146,0.788-2.379,1.455-3.525,2.248c-1.884,1.306-3.685,2.719-5.246,4.417
			c-1.779,1.938-3.062,4.144-3.783,6.691c-0.445,1.577-0.193,3.169-0.312,4.75c-0.175,2.388,0.593,4.519,1.739,6.531
			c0.539,0.948,1.256,1.792,1.871,2.697c0.878,1.291,2.142,2.059,3.553,2.613c0.646,0.256,1.322,0.438,1.987,0.641
			c2.047,0.623,3.661,1.984,5.364,3.18c1.46,1.023,1.422,4.437,0.329,5.48c-1.168,1.11-2.556,2.025-4.104,2.289
			c-3.38,0.576-6.535-0.184-9.275-2.331c-2.28-1.786-4.354-3.798-6.104-6.102c-0.961-1.263-1.893-2.6-2.526-4.039
			c-1.396-3.177-2.938-6.293-3.791-9.707c-0.551-2.209-1.429-4.346-2.28-6.468c-1.189-2.969-2.631-5.82-4.862-8.166
			c-0.97-1.019-1.806-2.115-2.554-3.293c-2.254-3.553-5.487-5.611-9.566-6.584c-2.564-0.611-5.141-0.514-7.717-0.64
			c-2.097-0.102-4.164,0.127-6.204,0.702c-3.306,0.931-6.35,2.288-8.794,4.797c-0.691,0.709-1.518,1.286-2.286,1.917
			c-3.92,3.217-7.006,7.048-8.779,11.858c-0.582,1.585-1.191,3.162-1.856,4.715c-1.113,2.595-1.764,5.277-1.749,8.108
			c0.005,0.996,0,1.992,0,2.99H3.358c0,0.994,0.027,1.993-0.005,2.987c-0.06,1.81,0.072,3.593,0.788,5.274
			c1.093,2.561,2.155,5.141,3.38,7.637c0.56,1.141,1.458,2.123,2.248,3.141c0.487,0.629,1.087,1.166,1.584,1.786
			c2.58,3.222,5.931,5.264,9.847,6.41c1.712,0.502,3.473,0.845,5.209,1.269c2.756,0.67,5.5,0.655,8.264-0.009
			c1.447-0.348,2.933-0.534,4.401-0.792c3.282-0.576,6.324-1.74,9.039-3.695c1.14-0.816,2.166-1.729,2.702-3.105
			c0.311-0.79,0.42-1.493,0.025-2.283c-1.385-2.764-2.875-5.453-4.777-7.91c-0.674-0.868-1.451-0.947-2.37-0.715
			c-0.383,0.096-0.76,0.248-1.107,0.438c-3.275,1.778-6.79,2.105-10.43,1.803c-1.413-0.116-2.735-0.486-4.029-1.027
			c-5.145-2.146-6.632-7.787-5.061-11.928c0.28-0.743,0.636-1.465,0.847-2.229c1.002-3.633,3.468-6.223,6.169-8.619
			c1.379-1.224,3.097-1.882,4.932-1.87c2.715,0.021,5.342,0.495,7.632,2.155c0.664,0.482,1.228,0.972,1.573,1.733
			c1.396,3.082,2.808,6.155,3.5,9.5c0.242,1.165,0.515,2.336,0.915,3.455c1.509,4.228,3.623,8.178,5.795,12.09
			c0.671,1.211,1.605,2.271,2.401,3.414c1.231,1.762,2.895,2.986,4.777,3.969c0.879,0.458,1.793,0.896,2.573,1.497
			c3.017,2.321,6.485,3.569,10.191,3.887c5.566,0.475,11.116,0.327,16.502-1.562c1.698-0.595,3.361-1.232,4.925-2.109
			c1.82-1.024,3.56-2.209,5.433-3.119c2.847-1.387,4.185-3.844,5.14-6.637c0.362-1.053,0.43-2.113,0.186-3.229
			c-0.338-1.554-0.562-3.132-0.785-4.704c-0.463-3.258-1.906-6.047-4.027-8.514c-2.035-2.366-4.422-4.293-7.212-5.717
			c-1.062-0.542-2.104-1.131-3.144-1.713c-1.018-0.571-1.338-1.529-1.055-2.557c0.258-0.94,0.729-1.84,1.22-2.695
			c0.635-1.102,1.575-1.77,2.944-1.657c0.492,0.04,0.994-0.016,1.492-0.027c4.16-0.1,5.064,0.272,7.832,3.302
			c0.468,0.512,0.867,1.087,1.295,1.636c0.367,0.473,0.686,0.989,1.096,1.413c1.342,1.377,3.195,1.637,4.874,0.729
			c0.176-0.093,0.36-0.184,0.513-0.307c2.213-1.848,4.441-3.681,6.619-5.568c0.344-0.298,0.594-0.823,0.68-1.282
			C119.146,45.678,118.977,44.429,118,43.379z M36.909,79.864c0.178-0.302,0.476-0.642,0.792-0.737
			c0.462-0.141,0.984-0.092,1.482-0.1c1.211-0.017,2.356-0.252,3.438-0.841c0.671-0.363,1.07-0.19,1.377,0.523
			c0.431,1.003,0.816,2.021,1.185,3.044c0.037,0.1-0.247,0.436-0.276,0.423c-1.418-0.618-2.486,0.271-3.633,0.821
			c-0.449,0.212-0.895,0.438-1.36,0.61c-2.091,0.782-2.836,0.3-3.049-1.971c-0.027-0.296-0.003-0.597-0.003-1.431
			C36.843,80.444,36.774,80.096,36.909,79.864z M31.699,80.08c0.333-0.172,0.671-0.397,1.023-0.432
			c0.173-0.016,0.507,0.32,0.549,0.539c0.109,0.58,0.096,1.184,0.134,1.814c-0.024,0.363-0.045,0.76-0.083,1.154
			c-0.057,0.617-0.504,1.15-0.842,0.965c-0.311-0.17-0.711-0.5-0.748-0.8c-0.116-0.976-0.089-1.973-0.109-2.96
			C31.623,80.265,31.641,80.112,31.699,80.08z M26.618,79.938c0.044-0.266,0.318-0.738,0.36-0.726
			c0.435,0.147,1.047,0.266,1.22,0.597c0.462,0.887,0.376,1.9,0.051,2.829c-0.109,0.312-0.531,0.562-0.868,0.718
			c-0.164,0.076-0.646-0.096-0.665-0.209c-0.113-0.668-0.133-1.356-0.184-2.036c0.021-0.002,0.045-0.002,0.067-0.002
			C26.6,80.717,26.555,80.318,26.618,79.938z M20.569,74.93c-0.162,0.189-0.473,0.249-0.815,0.414
			c-0.151-0.189-0.4-0.359-0.405-0.536c-0.009-0.263,0.124-0.547,0.252-0.792c0.061-0.118,0.255-0.25,0.379-0.238
			C20.278,73.805,20.754,74.712,20.569,74.93z M22.878,76.76c0.312,0.347,0.625,0.734,0.784,1.162
			c0.128,0.342,0.025,0.768,0.025,1.16c-0.039,0.587-0.051,1.172-0.124,1.754c-0.08,0.631-0.48,1.034-1.035,1.325
			c-0.356,0.188-0.611-0.006-0.726-0.241c-0.162-0.333-0.296-0.74-0.266-1.099c0.117-1.263,0.304-2.521,0.475-3.778
			C22.069,76.628,22.592,76.439,22.878,76.76z M59.715,67.48c-1.394,0.633-1.688,1.858-1.821,3.19
			c-0.038,0.393-0.074,0.79-0.124,1.183c-0.013,0.092-0.102,0.26-0.127,0.254c-0.174-0.036-0.367-0.073-0.505-0.178
			c-0.155-0.113-0.297-0.282-0.377-0.455c-1.222-2.721-2.522-5.41-3.625-8.182c-0.92-2.305-1.593-4.706-2.395-7.061
			c-1.071-3.135-2.676-5.979-4.722-8.579c-0.935-1.186-2.067-2.135-3.33-2.967c-2.98-1.962-6.115-2.141-9.403-0.966
			c-4.086,1.46-4.12,1.427-7.224,4.508c-1.549,1.54-2.937,3.244-4.418,4.855c-0.231,0.252-0.546,0.427-0.835,0.625
			c-0.001,0.04,0,0.079-0.001,0.119c-0.032,0.01-0.063,0.019-0.094,0.028c-0.095,0.441-0.159,0.893-0.31,1.313
			c-0.442,1.211-0.942,2.4-1.387,3.61c-0.453,1.222-0.655,2.484-0.627,3.796c0.04,1.888-0.018,3.779,0.031,5.666
			c0.02,0.785,0.215,1.564,0.309,2.348c0.089,0.746,0.811,1.361,0.451,2.196c-0.669-0.063-1.384,0-1.997-0.22
			c-1.391-0.498-2.533,0.006-3.664,0.682c-0.424,0.254-0.802,0.585-1.22,0.85c-0.312,0.195-0.689,0.535-0.993,0.051
			c-0.199-0.318-0.366-0.736-0.335-1.094c0.031-0.364,0.246-0.777,0.508-1.051c0.749-0.785,1.556-1.521,2.358-2.258
			c0.95-0.874,1.94-1.705,2.862-2.606c0.524-0.511,0.673-1.313,0.3-1.603c-0.445-0.346-1-0.583-1.54-0.766
			c-0.246-0.08-0.577,0.079-0.866,0.143c-1.184,0.252-2.253,0.756-3.219,1.49c-0.395,0.299-0.814,0.566-1.232,0.832
			c-0.388,0.246-0.697,0.027-0.726-0.51C9.4,66.43,9.393,66.131,9.389,65.834c-0.031-2.92,0.466-3.553,3.39-4.213
			c1.063-0.24,2.154-0.365,3.214-0.614c1.173-0.278,1.784-0.958,1.689-1.746c-0.098-0.8-0.835-1.673-1.784-1.76
			c-1.278-0.118-2.573-0.038-3.856-0.014c-0.38,0.009-0.754,0.147-1.133,0.16c-0.071,0.004-0.244-0.327-0.214-0.471
			c0.138-0.642,0.627-0.999,1.194-1.222c1.854-0.724,3.746-1.356,5.745-1.464c1.075-0.056,2.076-0.316,3.079-0.635
			c0.007-0.031,0.012-0.064,0.02-0.096c0.024-0.018,0.051-0.034,0.076-0.051c0.023-0.983-0.137-1.908-0.941-2.598
			c-0.798-0.685-1.754-0.933-2.778-0.878c-0.791,0.04-1.583,0.127-2.364,0.256c-0.413,0.067-0.871,0.194-0.882-0.354
			c-0.008-0.322,0.278-0.831,0.562-0.948c0.814-0.338,1.68-0.609,2.553-0.74c0.98-0.146,1.989-0.071,2.982-0.16
			c0.986-0.091,1.968-0.254,2.946-0.411c0.842-0.132,1.622-0.504,1.711-1.411c0.089-0.903-0.679-1.437-1.395-1.746
			c-0.709-0.305-1.519-0.437-2.296-0.512c-1.082-0.106-2.177-0.09-3.266-0.133c-0.062-0.003-0.164-0.102-0.169-0.166
			c-0.011-0.089,0.022-0.216,0.083-0.278c0.211-0.204,0.415-0.487,0.671-0.559c0.858-0.236,1.728-0.471,2.607-0.565
			c1.085-0.117,2.189-0.124,3.284-0.115c1.118,0.007,2.18-0.238,3.208-0.625c1.027-0.386,1.232-1.782,0.349-2.402
			c-0.482-0.34-1.023-0.625-1.582-0.803c-0.56-0.179-1.174-0.181-1.76-0.281c-0.336-0.058-0.905,0.108-0.893-0.391
			c0.009-0.274,0.462-0.64,0.795-0.789c1.266-0.569,2.521-1.235,3.857-1.551c2.027-0.481,4.107-0.754,6.178-1.011
			c1.491-0.184,2.955-0.039,4.375,0.622c1.347,0.628,2.822,0.985,4.158,1.631c1.984,0.96,3.647,2.325,5.042,4.091
			c2.564,3.248,4.293,6.932,5.758,10.737c1.29,3.346,2.868,6.561,4.237,9.867c0.724,1.744,1.397,3.509,2.057,5.28
			C59.969,66.962,59.859,67.414,59.715,67.48z M65.02,74.037c-0.281,0.078-0.588,0.059-0.877,0.109
			c-0.773,0.139-1.242,0.642-1.386,1.375c-0.153,0.771-0.179,1.568-0.303,2.349c-0.019,0.12-0.263,0.29-0.392,0.285
			c-0.171-0.005-0.436-0.132-0.482-0.269c-0.23-0.643-0.5-1.297-0.564-1.963c-0.094-0.984-0.025-1.985-0.025-2.979h0.049
			c0-0.992-0.014-1.985,0.018-2.978c0.004-0.141,0.211-0.288,0.351-0.399c0.048-0.039,0.214-0.018,0.265,0.037
			c1.179,1.334,2.354,2.672,3.508,4.027C65.229,73.688,65.109,74.01,65.02,74.037z M69.42,77.152
			c-1.305,1.198-0.743,2.922-1.055,4.437c-0.109,0.53-0.566,0.69-1.146,0.446c-0.602-0.255-0.994-0.64-1.033-1.312
			c-0.104-1.88-0.209-3.761-0.282-5.641c-0.003-0.104,0.274-0.312,0.423-0.315c1.498-0.033,2.105,1.34,3.139,2.04
			C69.499,76.83,69.446,76.98,69.42,77.152z M76.928,83.002c-0.005,0.193-0.355,0.499-0.587,0.539
			c-0.58,0.099-1.181,0.103-1.774,0.096c-2.105-0.024-2.52-0.329-2.477-2.346c0.006-0.297,0.002-0.596,0.002-0.717
			c-0.104-0.664-0.234-1.152-0.227-1.639c0.002-0.148,0.439-0.455,0.588-0.407c0.754,0.234,1.471,0.584,2.215,0.853
			c0.716,0.259,1.836-0.162,2.123,0.688C77.094,80.963,76.954,82.018,76.928,83.002z M96.674,61.918
			c0.688,0.564,1.271,1.264,1.866,1.932c1.663,1.857,2.562,4.007,2.406,6.668c0.178,1.501-0.231,3.064-0.802,4.539
			c-0.855,2.205-2.474,3.912-4.521,4.98c-2.191,1.145-4.572,1.92-6.877,2.843c-0.273,0.109-0.576,0.2-0.867,0.21
			c-1.986,0.057-3.961,0.262-5.928,0.562c-0.893,0.137-1.206-0.147-1.453-1.091c-0.174-0.671-0.329-1.354-0.414-2.04
			c-0.051-0.42,0.191-0.839,0.643-0.835c1.91,0.015,3.747-0.411,5.59-0.817c0.871-0.193,1.74-0.414,2.596-0.678
			c2.878-0.887,5.93-4.562,4.598-8.557c-0.123-0.376-0.188-0.776-0.333-1.144c-0.581-1.46-0.521-2.888,0.163-4.298
			c0.4-0.826,0.576-1.697,0.402-2.61c-0.098-0.513-0.37-0.921-0.879-1.114c-0.521-0.2-1.026-0.079-1.369,0.303
			c-0.461,0.514-0.869,1.09-1.213,1.688c-0.377,0.654-0.778,1.157-1.631,0.955c-0.754-0.181-0.941-0.579-0.915-1.892
			c0.013-0.495,0.1-1.014-0.017-1.479c-0.081-0.328-0.4-0.729-0.699-0.828c-0.311-0.1-0.793,0.035-1.076,0.24
			c-0.295,0.218-0.432,0.649-0.663,0.969c-0.232,0.317-0.556,0.7-0.929,0.321c-0.219-0.223-0.342-0.749-0.238-1.043
			c0.354-1.029,0.816-2.024,1.264-3.019c0.199-0.443,0.648-0.561,0.926-0.193c0.832,1.111,2.152,1.362,3.273,1.962
			c0.169,0.089,0.383,0.107,0.58,0.122C92.8,58.776,94.752,60.334,96.674,61.918z M111.066,45.447
			c-0.146,0.132-0.322,0.234-0.475,0.362c-2.229,1.854-2.227,1.851-4.544,0.196c-0.888-0.635-1.79-1.249-2.683-1.882
			c-1.994-1.422-4.225-2.006-6.656-2.304c-2.858-0.351-5.291,0.384-7.582,1.938c-0.739,0.499-1.531,0.96-2.148,1.589
			c-1.424,1.451-2.46,3.115-2.301,5.284c0.039,0.494,0.062,1.003-0.021,1.487c-0.084,0.465-0.196,1.022-0.505,1.333
			c-1.061,1.074-1.938,2.258-2.584,3.62c-0.271,0.577-0.752,0.878-1.35,1.079c-0.469,0.156-0.72,0.08-0.781-0.271
			c0.002,0.076-0.002,0.145,0.002,0.224c-0.012-0.164-0.018-0.269-0.023-0.337c0-0.014-0.005-0.02-0.005-0.034
			c0-0.071-0.006-0.137,0.005,0.034c0.002,0.045,0.014,0.076,0.021,0.114c-0.064-1.999,0.63-3.175,1.277-4.339
			c0.529-0.953,1.222-1.813,1.826-2.722c0.225-0.338,0.352-0.7,0.104-1.105c-0.306-0.505-1.004-0.843-1.534-0.583
			c-0.609,0.298-1.248,0.638-1.708,1.12c-0.68,0.712-1.208,1.571-1.82,2.353c-0.081,0.104-0.267,0.122-0.405,0.182
			c-0.047-0.189-0.186-0.42-0.123-0.56c0.439-0.997,0.909-1.979,1.389-2.955c0.305-0.622,0.693-1.209,0.956-1.848
			c0.341-0.82-0.069-1.488-0.999-1.766c-0.866-0.262-0.943-0.342-0.604-0.78c1.584-2.037,3.317-3.952,5.277-5.606
			c0.875-0.736,2.094-1.147,3.223-1.473c1.42-0.409,2.907-0.582,4.369-0.845c0.289-0.053,0.619,0.02,0.882-0.082
			c2.537-0.985,5.081-0.529,7.628-0.094c0.686,0.118,1.383,0.16,2.064,0.294c3.565,0.713,6.875,1.94,9.35,4.786
			c0.324,0.373,0.643,0.764,0.898,1.186C111.967,43.833,111.777,44.811,111.066,45.447z"/>
	</g>
</g>
</svg>
