<?xml version="1.0" encoding="utf-8"?>
<!-- Generator: Adobe Illustrator 16.0.0, SVG Export Plug-In . SVG Version: 6.00 Build 0)  -->
<!DOCTYPE svg PUBLIC "-//W3C//DTD SVG 1.1//EN" "http://www.w3.org/Graphics/SVG/1.1/DTD/svg11.dtd">
<svg version="1.1" id="Layer_1" xmlns="http://www.w3.org/2000/svg" xmlns:xlink="http://www.w3.org/1999/xlink" x="0px" y="0px"
	 width="120px" height="120px" viewBox="0 0 120 120" style="enable-background:new 0 0 120 120;" xml:space="preserve">
<g id="grooveshark">
	<g>
		<path style="fill-rule:evenodd;clip-rule:evenodd;" d="M112.431,56.5c0.008-4.104-0.918-8.049-2.074-11.947
			c-0.52-1.752-1.203-3.512-2.473-4.811c-2.02-2.064-3.095-4.559-3.998-7.207c-0.411-1.205-0.94-2.389-1.568-3.496
			c-0.68-1.203-1.543-2.303-2.319-3.45c-1.024-1.511-8.368-8.919-9.896-10.034c-2.586-1.887-5.211-3.73-7.705-5.735
			c-1.809-1.454-3.781-2.368-6.047-2.73c-0.633-0.101-1.253-0.272-1.887-0.362c-3.08-0.434-6.191-0.67-9.262-0.148
			c-3.374,0.572-6.754,0.906-10.166,1.025c-1.709,0.061-3.457-0.027-5.113,0.311c-3.453,0.705-6.842,1.672-9.931,3.483
			c-1.196,0.7-2.469,1.278-3.731,1.856c-4.012,1.834-7.65,4.273-11.131,6.945c-2.799,2.148-5.527,4.381-7.59,7.316
			c-0.859,1.221-1.801,2.402-2.84,3.473c-1.523,1.569-2.574,3.4-3.389,5.394c-0.686,1.681-1.412,3.349-2.009,5.062
			c-0.452,1.303-0.729,2.668-1.083,4.006c-0.863,3.258-0.635,6.578-0.483,9.889c0,1.926-0.086,3.855,0.021,5.775
			C7.905,63.77,7.9,66.49,8.919,68.991c1.053,2.585,1.66,5.284,2.383,7.956c0.758,2.791,1.821,5.465,2.904,8.135
			c0.646,1.591,1.501,3.084,2.691,4.341c2.057,2.173,4.053,4.417,6.252,6.438c3.061,2.816,6.108,5.646,9.623,7.949
			c2.239,1.467,4.457,2.924,6.873,4.092c3.779,1.828,7.83,2.789,11.857,3.826c0.927,0.24,1.875,0.438,2.826,0.531
			c2.867,0.283,5.74,0.504,8.611,0.751c0.319,0.028,0.656,0.005,0.956,0.099c2.505,0.783,5.085,0.513,7.642,0.604
			c2.434,0.085,4.612-0.604,6.717-1.779c1.768-0.986,3.629-1.807,5.449-2.701c1.242-0.61,2.506-1.184,3.723-1.844
			c1.217-0.662,2.392-1.402,3.574-2.127c4.02-2.457,7.969-4.994,11.021-8.688c2.473-2.99,4.601-6.154,5.693-9.939
			c0.414-1.432,1-2.816,1.535-4.211c1.426-3.715,2.447-7.51,2.451-11.525c0-0.643-0.012-1.295,0.1-1.922
			C112.532,64.842,112.423,60.668,112.431,56.5z M94.16,82.309c-1.167,2.525-2.489,4.963-4.079,7.258
			c-0.635,0.918-1.387,1.611-2.387,2.055c-2.25,1-4.316,2.342-6.483,3.48c-2.44,1.284-5.112,2.129-7.696,3.133
			c-0.668,0.259-1.238,0.042-1.634-0.604c-0.22-0.358-0.455-0.748-0.782-0.994c-0.867-0.65-2.713-0.539-3.05,1.082
			c-0.087,0.415-0.079,0.85-0.11,1.275c-0.045,0.611-0.348,1.025-0.973,1.047c-1.495,0.046-2.992,0.05-4.489,0.061
			c-0.758,0.007-1.251-0.463-1.374-1.115c-0.245-1.307-0.719-2.443-1.722-3.35c-0.913-0.824-2.152-0.717-2.71,0.349
			c-0.341,0.651-0.645,1.368-0.753,2.087c-0.224,1.486-0.196,1.623-1.775,1.525c-0.641-0.039-1.29-0.045-1.918-0.161
			c-2.249-0.415-2.25-0.565-2.38-2.649c-0.105-1.701-0.296-3.408-0.602-5.084c-0.207-1.139-0.539-2.299-1.062-3.324
			c-0.727-1.426-2.562-1.408-3.392-0.037c-0.729,1.207-1.024,2.571-1.146,3.961c-0.102,1.172-0.119,2.352-0.215,3.523
			c-0.033,0.414-0.153,0.834-0.308,1.222c-0.063,0.157-0.341,0.358-0.489,0.333c-1.18-0.186-2.182-1.211-2.314-2.293
			c-0.18-1.482-0.362-2.965-0.553-4.445c-0.041-0.316-0.102-0.633-0.189-0.94c-0.181-0.637-0.824-1.151-1.4-1.118
			c-0.6,0.035-0.988,0.398-1.166,0.936c-0.198,0.603-0.354,1.225-0.463,1.848c-0.092,0.525-0.08,1.066-0.131,1.598
			c-0.045,0.464-0.471,0.566-0.943,0.303c-0.779-0.438-1.351-0.99-1.576-1.904c-0.387-1.561-0.624-3.129-0.711-4.74
			c-0.118-2.236-0.355-4.467-0.615-6.691C32.53,79.59,32.161,79.184,31.837,79c-0.489-0.277-1.082-0.172-1.475,0.236
			c-0.359,0.371-0.65,0.836-0.871,1.306c-0.695,1.493-0.672,3.114-0.77,4.714c-0.01,0.172-0.174,0.467-0.27,0.469
			c-0.186,0.003-0.434-0.115-0.553-0.266c-1.526-1.948-2.593-4.148-3.438-6.459c-0.042-0.116,0.161-0.461,0.283-0.479
			c2.144-0.326,4.001-1.412,5.974-2.195c4.699-1.867,8.85-4.733,13.193-7.236c2.389-1.377,3.892-3.631,4.724-6.273
			c0.673-2.135,1.31-4.281,1.918-6.436c0.556-1.963,0.757-3.967,0.768-6.018c0.013-2.453,0.224-4.904,0.353-7.355
			c0.021-0.402-0.078-0.918,0.131-1.18c0.395-0.496,1.038-0.25,1.469-0.014c3.37,1.845,6.824,3.568,10.033,5.664
			c3.084,2.015,5.076,5.15,7.139,8.148c1.48,2.156,2.352,4.527,2.66,7.129c0.125,1.052,0.42,2.088,0.681,3.119
			c0.534,2.115,1.552,3.988,3.05,5.562c2.064,2.168,4.145,4.322,6.298,6.4c1.589,1.535,3.548,2.359,5.787,2.393
			c1.711,0.025,3.423,0.004,5.132,0.045c0.229,0.006,0.451,0.258,0.656,0.385C94.501,81.297,94.384,81.826,94.16,82.309z
			 M101.817,58.629c-0.074,1.061-0.283,2.117-0.499,3.162c-0.885,4.275-3.372,7.041-7.677,8.08
			c-0.721,0.174-1.425,0.416-2.142,0.607c-2.155,0.572-3.486,0.094-4.632-1.793c-0.996-1.643-1.955-3.314-2.826-5.027
			c-1.506-2.965-3.155-5.822-5.358-8.34c-0.7-0.801-1.288-1.707-1.872-2.602c-1.935-2.971-4.214-5.684-6.684-8.189
			c-2.167-2.197-4.473-4.322-7.146-5.93c-2.562-1.541-5.173-3.01-7.811-4.42c-2.855-1.526-5.973-1.471-9.084-1.23
			c-0.955,0.072-1.902,0.275-2.85,0.445c-1.438,0.26-2.596,0.998-3.396,2.209c-0.549,0.826-0.861,1.738-0.23,2.699
			c1.723,2.625,1.932,5.572,1.983,8.604c0.069,3.996-0.433,7.857-1.751,11.648c-1.506,4.332-4.576,7.135-8.486,9.168
			c-0.837,0.436-1.808,0.695-2.746,0.834c-1.897,0.277-3.814,0.448-5.729,0.596c-0.512,0.039-1.075-0.088-1.553-0.289
			c-0.348-0.146-0.781-0.502-0.846-0.83c-0.24-1.205-0.77-2.184-1.673-3.023c-0.737-0.688-0.995-1.621-0.987-2.629
			c0.01-1.069,0.003-2.139,0.003-3.869c0.065-1.038-0.112-2.746,0.487-4.418c0.279-0.777,0.154-1.695,0.254-2.544
			c0.211-1.798,0.352-3.61,0.713-5.38c0.231-1.133,0.662-2.279,1.25-3.273c1.469-2.482,3.006-4.932,4.652-7.299
			c1.409-2.025,3.142-3.783,5.188-5.205c0.611-0.424,1.242-0.85,1.76-1.378c3.077-3.146,6.482-5.872,10.122-8.344
			c2.093-1.421,4.31-2.419,6.812-2.546c3.441-0.176,6.72-1.211,10.098-1.699c1.791-0.258,3.561-0.672,5.344-0.992
			c0.418-0.076,0.859-0.127,1.278-0.078c2.85,0.324,5.739,0.435,8.462,1.486c0.299,0.115,0.58,0.294,0.887,0.365
			c5.703,1.34,9.348,5.383,12.688,9.759c1.363,1.786,2.682,3.587,4.24,5.22c1.026,1.076,1.854,2.344,2.736,3.552
			c0.566,0.776,0.986,1.67,1.611,2.39c2.682,3.078,3.805,6.891,5.014,10.637C102.46,51.98,102.05,55.327,101.817,58.629z"/>
	</g>
</g>
</svg>
