<?xml version="1.0" encoding="utf-8"?>
<!-- Generator: Adobe Illustrator 16.0.0, SVG Export Plug-In . SVG Version: 6.00 Build 0)  -->
<!DOCTYPE svg PUBLIC "-//W3C//DTD SVG 1.1//EN" "http://www.w3.org/Graphics/SVG/1.1/DTD/svg11.dtd">
<svg version="1.1" id="Layer_1" xmlns="http://www.w3.org/2000/svg" xmlns:xlink="http://www.w3.org/1999/xlink" x="0px" y="0px"
	 width="120px" height="120px" viewBox="0 0 120 120" style="enable-background:new 0 0 120 120;" xml:space="preserve">
<g id="soundcloud">
	<g>
		<path style="fill-rule:evenodd;clip-rule:evenodd;" d="M115.635,62.732c-0.576-1.939-1.373-3.773-2.668-5.371
			c-0.697-0.858-1.379-1.75-1.918-2.708c-0.668-1.185-1.623-2.067-2.698-2.809c-3.194-2.205-6.72-3.108-10.595-2.438
			c-0.891,0.153-1.787,0.28-2.688,0.368c-0.703,0.068-1.111-0.21-1.363-0.917c-0.473-1.326-0.861-2.684-1.371-3.995
			c-0.547-1.402-1.125-2.801-1.812-4.138c-0.787-1.529-1.787-2.961-3.183-3.983c-3.068-2.241-6.509-3.625-10.312-3.879
			c-3.73-0.25-7.434,0.088-11.084,0.94c-0.686,0.159-1.394,0.236-2.056,0.457c-0.696,0.234-1.224,0.697-1.299,1.509
			c-0.142,1.499-0.385,2.997-0.413,4.498c-0.107,5.64-0.141,11.28-0.215,16.919c-0.012,0.803-0.07,1.607-0.145,2.406
			c-0.262,2.799-0.559,5.596-0.796,8.398c-0.067,0.798-0.075,1.624,0.058,2.412c0.725,4.339,0.235,8.61-0.642,12.865
			c-0.285,1.389,0.343,2.639,1.674,3.173c0.931,0.373,1.89,0.604,2.918,0.686c4.255,0.336,8.438-0.32,12.622-0.859
			c2.812-0.364,5.617-0.407,8.43-0.222c2.006,0.131,4.004,0.356,6.002,0.538c3.658,0.037,7.238-0.432,10.767-1.312
			c1.073-0.27,2.118-0.572,3.25-0.594c0.677-0.011,1.397-0.236,2.008-0.545c1.073-0.545,2.107-1.182,3.099-1.862
			c0.737-0.507,1.379-1.104,2.24-1.489c2.34-1.045,3.387-3.086,3.572-5.531C117.371,70.555,116.975,67.273,115.635,62.732z
			 M110.326,70.264c-0.277,1.864-1.446,3.289-2.873,4.482c-1.582,1.322-3.315,2.234-5.467,2.2c-2.013-0.031-4.025,0.064-6.04,0.061
			c-3.727-0.006-7.451-0.042-11.177-0.075c-0.531-0.006-0.738-0.297-0.559-0.734c0.23-0.557,0.574-1.086,0.701-1.664
			c0.128-0.572,0.13-1.203,0.032-1.783c-0.109-0.63-0.599-1.029-1.228-1.191c-0.539-0.139-1.029,0.051-1.348,0.464
			c-0.801,1.032-1.545,2.11-2.322,3.162c-0.332,0.446-0.801,0.538-1.34,0.484c-0.533-0.053-0.82-0.327-0.635-0.71
			c0.527-1.086,1.113-2.146,1.592-3.252c0.277-0.63,0.477-1.319,0.568-2.002c0.137-0.998-0.861-1.696-1.806-1.311
			c-0.365,0.15-0.762,0.328-1.019,0.607c-0.685,0.735-1.344,1.501-1.931,2.312c-0.472,0.648-0.766,1.428-1.247,2.064
			c-0.449,0.594-0.495,1.752-1.55,1.582c-0.741-0.119-1.754-2.325-1.467-3.075c0.717-1.873,1.507-3.718,2.31-5.556
			c0.281-0.641,0.786-1.192,1.01-1.848c0.145-0.42,0.086-1.008-0.1-1.422c-0.271-0.61-0.928-0.773-1.546-0.643
			c-0.475,0.1-0.927,0.346-1.36,0.578c-0.572,0.306-0.843,1.07-1.59,1.127c-0.004,0.027-0.009,0.055-0.013,0.082
			c-0.028,0.026-0.06,0.053-0.092,0.076c-0.008,0.127-0.015,0.258-0.046,0.379c-0.035,0.13-0.133,0.246-0.201,0.367
			c-0.016-0.154-0.084-0.337-0.029-0.461c0.053-0.112,0.168-0.198,0.276-0.285c0.003-0.05,0.005-0.099,0.011-0.146
			c0.035,0,0.062-0.01,0.094-0.012c0.141-1.309,0.963-2.349,1.418-3.529c0.691-1.778,1.385-3.554,1.992-5.358
			c0.084-0.252-0.25-0.73-0.508-0.979c-0.162-0.156-0.566-0.15-0.83-0.084c-0.279,0.07-0.529,0.282-0.77,0.461
			c-0.322,0.241-0.609,0.53-0.94,0.757c-0.14,0.098-0.353,0.094-0.53,0.136c-0.032-0.171-0.125-0.36-0.082-0.514
			c0.469-1.746,0.955-3.487,1.445-5.229c0.466-1.643,0.942-3.283,1.416-4.925c0.084-0.288,0.213-0.571,0.251-0.866
			c0.084-0.706,0.151-1.44-0.571-1.891c-0.611-0.384-1.15-0.035-1.676,0.27c-0.088,0.051-0.174,0.105-0.264,0.145
			c-0.738,0.33-0.932,0.245-0.942-0.426c-0.01-0.402-0.008-0.805,0.002-1.208c0.036-2.023,0.036-2.031,1.952-2.213
			c1.302-0.124,2.605-0.344,3.904-0.314c4.864,0.118,8.469,2.243,10.428,6.829c0.99,2.311,1.914,4.646,2.449,7.116
			c0.106,0.485,0.24,0.987,0.482,1.415c0.501,0.89,0.914,1.771,0.842,2.838c-0.025,0.378,0.146,0.789,0.293,1.157
			c0.647,1.596,2.517,1.929,3.66,0.649c0.264-0.298,0.406-0.703,0.667-1.002c0.327-0.377,0.666-0.79,1.087-1.031
			c2.936-1.667,5.993-2.276,9.218-0.868c1.433,0.627,2.54,1.671,3.247,3.041c0.871,1.697,1.646,3.448,2.377,5.209
			C110.83,65.834,110.652,68.076,110.326,70.264z M56.308,36.277c-1.467-0.266-2.926-0.673-4.443-0.41
			c-1.673,0.288-2.385,1.25-2.229,2.96c0.126,1.398,0.327,2.801,0.325,4.2c-0.005,4.826-0.068,9.649-0.149,14.473
			c-0.018,1.1-0.283,2.197-0.297,3.297c-0.048,3.718-0.036,7.438-0.038,11.156c0,0.5,0.054,1.004,0.1,1.503
			c0.175,1.897,0.355,3.794,0.533,5.688c-0.039,0.004-0.079,0.008-0.118,0.012c0,0.704-0.002,1.406,0,2.111
			c0.002,0.804-0.048,1.613,0.02,2.412c0.16,1.805,1.441,2.896,3.232,2.884c1.275-0.009,2.847-0.999,2.836-2.903
			c-0.002-0.502,0.004-1.006,0.009-1.508c0.031-4.013-0.052-8.016,0.371-12.032c0.46-4.388,0.664-8.807,0.62-13.234
			c-0.034-3.311,0.116-6.62,0.503-9.926c0.375-3.199-0.051-6.418-0.342-9.618C57.192,36.809,56.841,36.375,56.308,36.277z
			 M36.548,42.373c-1.048-1.354-2.341-1.231-3.337-0.147c-0.388,0.422-0.628,1.033-0.788,1.6c-0.632,2.227-1.079,4.49-1.221,6.81
			c-0.199,3.211-0.252,6.432-0.394,9.644c-0.296,6.637-0.219,13.291-0.283,19.938c-0.005,0.603,0.027,1.211,0.112,1.809
			c0.261,1.811,1.691,2.938,3.364,2.688c1.436-0.217,2.622-1.76,2.5-3.3c-0.089-1.101-0.322-2.194-0.333-3.292
			c-0.024-2.609-0.255-5.233,0.357-7.819c0.114-0.481,0.07-1.004,0.075-1.509c0.101-7.344-0.158-14.7,0.566-21.52
			c0-1.415,0.072-2.33-0.026-3.226C37.079,43.469,36.894,42.821,36.548,42.373z M43.905,45.773
			c-0.436,0.394-0.858,0.896-1.055,1.434c-0.34,0.935-0.557,1.926-0.721,2.911c-0.311,1.876-0.512,3.773-0.819,5.65
			c-0.572,3.467-1.005,6.939-0.939,10.464c0.036,1.906,0.005,3.816,0.005,6.175c-0.167,2.854,0.134,6.168-0.378,9.469
			c-0.238,1.511,0.937,2.741,2.42,2.929c1.651,0.209,3.032-0.787,3.247-2.396c0.092-0.695,0.094-1.404,0.094-2.104
			c0.004-5.424-0.007-10.848-0.004-16.27c0-1.502,0.058-2.988,0.351-4.488c0.386-1.96,0.567-3.969,0.73-5.964
			c0.136-1.699,0.14-3.411,0.16-5.118c0.008-0.596-0.044-1.21-0.176-1.792C46.539,45.462,44.836,44.926,43.905,45.773z
			 M27.342,60.975c0.225-2.041-0.039-4.011-0.483-5.977c-0.114-0.513-0.482-0.853-1.009-1.017c-1.949-0.606-2.635-0.507-4.209,0.552
			c-0.818,0.551-1.249,1.298-1.271,2.263c-0.009,0.5,0.029,1.011,0.128,1.5c0.987,4.834,1.471,9.726,1.735,14.647
			c0.1,1.801,0.358,3.594,0.544,5.392c-0.038,0.003-0.077,0.005-0.116,0.009c0,0.704-0.029,1.41,0.006,2.112
			c0.075,1.499,1.121,2.501,2.5,2.435c1.26-0.062,2.31-1.033,2.304-2.338c-0.008-2.411-0.064-4.826-0.209-7.234
			C27.013,69.198,26.89,65.08,27.342,60.975z M18.669,69.939c-0.072-2.012-0.114-4.027-0.229-6.035
			c-0.033-0.585-0.208-1.184-0.432-1.728c-0.294-0.719-1.015-1.087-1.72-0.8c-0.87,0.355-1.745,0.401-2.651,0.458
			c-1.221,0.071-1.774,0.687-1.888,1.919c-0.036,0.398-0.044,0.804-0.038,1.205c0.026,1.812,0.028,3.627,0.105,5.437
			c0.148,3.415,0.77,6.799,0.672,10.23c-0.007,0.299,0.037,0.604,0.094,0.899c0.224,1.176,1.157,1.799,2.439,1.642
			c0.597-0.071,1.197-0.139,1.789-0.233c1.347-0.217,2.135-1.056,2.189-2.451c0.044-1.105,0.116-2.243-0.084-3.316
			C18.459,74.764,18.645,72.353,18.669,69.939z M5.294,67.941c-0.936,0.827-1.579,1.82-1.713,3.066
			c-0.258,2.379-0.464,4.762-0.671,6.946c0,0.796-0.064,1.405,0.015,1.993c0.123,0.941,0.609,1.672,1.517,2.074
			c1.739,0.771,3.506,0.046,4.105-1.73c0.189-0.562,0.309-1.158,0.375-1.748c0.146-1.289,0.354-2.587,0.32-3.875
			c-0.05-1.89-0.203-3.786-0.474-5.655C8.52,67.345,6.579,66.805,5.294,67.941z"/>
	</g>
</g>
</svg>
