<?xml version="1.0" encoding="utf-8"?>
<!-- Generator: Adobe Illustrator 16.0.0, SVG Export Plug-In . SVG Version: 6.00 Build 0)  -->
<!DOCTYPE svg PUBLIC "-//W3C//DTD SVG 1.1//EN" "http://www.w3.org/Graphics/SVG/1.1/DTD/svg11.dtd">
<svg version="1.1" id="Layer_1" xmlns="http://www.w3.org/2000/svg" xmlns:xlink="http://www.w3.org/1999/xlink" x="0px" y="0px"
	 width="120px" height="120px" viewBox="0 0 120 120" style="enable-background:new 0 0 120 120;" xml:space="preserve">
<g id="soundhound">
	<g>
		<path style="fill-rule:evenodd;clip-rule:evenodd;" d="M96.903,60.256c-0.151-1.262-0.502-2.508-0.839-3.74
			c-0.944-3.441-2.569-6.57-4.636-9.453c-1.743-2.432-3.614-4.77-5.437-7.143c-0.375-0.488-0.405-0.973-0.042-1.457
			c1.86-2.479,3.683-4.99,5.614-7.414c1.33-1.67,2.801-3.229,4.235-4.812c0.61-0.674,1.018-1.432,0.841-2.322
			c-0.292-1.473-0.761-2.939-1.908-3.965c-3.301-2.945-6.991-5.256-11.205-6.705c-5.809-1.998-11.752-3.131-17.91-3.031
			c-1.498,0.023-2.998,0.107-4.492,0.059c-1.639-0.057-3.182,0.322-4.716,0.799c-1.835,0.568-3.649,1.213-5.501,1.713
			c-2.597,0.703-5.062,1.656-7.336,3.121c-0.983,0.635-2.08,1.092-3.127,1.629c-3.57,1.834-6.531,4.477-9.197,7.393
			c-3.592,3.934-5.75,8.74-7.49,13.701c-1.469,4.182-1.992,8.57-1.426,12.959c0.64,4.971,1.477,9.926,2.498,14.832
			c0.855,4.107,2.573,7.92,5.188,11.264c0.855,1.092,1.783,2.129,2.683,3.188c0.375,0.441,0.581,0.971,0.248,1.463
			c-1.312,1.945-2.468,3.986-4.095,5.73c-1.966,2.105-3.754,4.379-5.606,6.59c-0.341,0.408-0.674,0.84-0.922,1.307
			c-0.418,0.787-0.426,1.648-0.24,2.504c0.157,0.715,0.754,0.926,1.342,1.229c0.75,0.387,1.414,0.949,2.098,1.457
			c3.115,2.318,6.501,4.109,10.236,5.203c2.457,0.721,4.909,1.461,7.389,2.1c3.318,0.855,6.686,1.41,10.133,1.336
			c1.178-0.025,2.355-0.004,3.531-0.004c3.422,0.023,6.822-0.08,10.234-0.541c4.444-0.6,8.52-1.916,12.048-4.754
			c0.745-0.598,1.522-1.217,2.385-1.598c3.161-1.4,5.388-3.791,7.285-6.568c3.403-4.982,5.851-10.43,7.788-16.119
			c1.078-3.164,1.508-6.42,1.499-9.773C98.047,66.982,97.311,63.643,96.903,60.256z M91.881,70.363
			c-0.336,2.344-1.017,4.594-1.812,6.799c-1.635,4.525-3.558,8.93-5.931,13.123c-0.313,0.553-0.717,1.066-1.149,1.533
			c-2.58,2.777-5.831,4.672-8.955,6.732c-0.42,0.277-0.791,0.111-1.178-0.117c-0.646-0.377-1.305-0.186-1.778,0.252
			c-0.78,0.719-1.547,1.49-2.147,2.357c-0.79,1.139-1.785,1.82-3.143,1.979c-1.266,0.148-2.535,0.27-3.805,0.387
			c-0.086,0.008-0.246-0.086-0.26-0.156c-0.033-0.168-0.074-0.424,0.018-0.514c1.131-1.139,2.288-2.252,3.431-3.379
			c0.854-0.844,1.478-1.82,1.735-3.014c0.158-0.732-0.286-1.256-1.004-1.248c-1.142,0.014-2.114,0.482-2.906,1.201
			c-1.974,1.793-4.196,3.332-5.785,5.533c-0.25,0.346-0.54,0.662-0.811,0.996c-0.661,0.807-1.456,1.211-2.535,0.955
			c-0.623-0.146-1.273-0.158-1.898-0.295c-0.268-0.057-0.5-0.275-0.749-0.42c0.106-0.18,0.179-0.396,0.323-0.537
			c0.998-0.967,2.039-1.895,3.012-2.885c0.841-0.855,1.41-1.875,1.537-3.104c0.043-0.424-0.292-0.859-0.693-0.893
			c-1.104-0.09-2.135,0.129-3.057,0.746c-0.709,0.475-1.366,1.033-2.096,1.475c-0.301,0.18-0.695,0.208-1.062,0.279
			c-0.013,0.036-0.027,0.072-0.041,0.107c-0.069,0.049-0.146,0.094-0.207,0.15c-0.036,0.033-0.049,0.092-0.072,0.141
			c0.063-0.125,0.127-0.248,0.19-0.373c0.042-0.01,0.086-0.017,0.13-0.025c0.061-0.163,0.119-0.328,0.187-0.488
			c1.24-2.932-0.112-3.766-2.441-3.322c-0.31,0.061-0.636,0.045-0.954,0.035c-0.088-0.002-0.197-0.098-0.253-0.182
			c-0.042-0.062-0.051-0.205-0.009-0.254c0.351-0.398,0.686-0.818,1.08-1.166c1.529-1.34,3.098-2.637,4.609-3.994
			c0.547-0.492,1.043-1.07,1.447-1.686c0.574-0.873-0.016-2.1-1.062-2.16c-0.723-0.041-1.502,0.045-2.184,0.281
			c-1.625,0.562-3.133,1.377-4.436,2.527c-0.643,0.566-1.275,1.143-1.93,1.695c-0.407,0.346-0.818,0.875-1.279,0.936
			c-2.139,0.275-3.193,2.002-4.578,3.268c-1.496,1.367-2.898,2.838-4.363,4.24c-0.068,0.066-0.412-0.02-0.498-0.135
			c-0.102-0.135-0.155-0.455-0.068-0.559c0.479-0.572,1.071-1.057,1.498-1.66c0.422-0.6,0.779-1.275,1.004-1.971
			c0.197-0.615,0.111-1.297-0.557-1.678c-0.469-0.268-0.585-0.562-0.217-0.988c0.07-0.082,0.134-0.166,0.205-0.246
			c2.165-2.369,4.318-4.748,6.502-7.1c0.689-0.746,1.34-1.445,0.609-2.512c0.316-1.633-0.516-2.852-1.393-4.098
			c-1.537-2.186-3.057-4.387-4.483-6.646c-0.853-1.352-1.493-2.838-2.269-4.24c-0.49-0.889-0.377-1.596,0.371-2.285
			c0.293-0.271,0.441-0.711,0.621-1.088c0.156-0.332-0.212-0.943-0.562-0.971c-0.211-0.016-0.428-0.037-0.637-0.014
			c-1.678,0.186-1.656,0.178-2.133-1c-0.682-1.682-0.691-1.691,0.762-2.955c0.645-0.561,1.342-1.086,1.877-1.74
			c0.384-0.471,0.633-1.107,0.771-1.709c0.202-0.877-0.81-1.695-1.644-1.346c-0.684,0.285-1.332,0.668-1.961,1.062
			c-0.449,0.281-0.835,0.662-1.262,0.984c-0.273,0.207-0.723,0.049-0.758-0.252c-0.26-2.219,0.008-4.268,1.885-5.791
			c1.08-0.875,2.16-1.748,3.24-2.623c0.84-0.68,1.578-1.426,1.953-2.488c0.285-0.803,0.02-1.424-0.82-1.77
			c-0.838-0.346-1.672-0.377-2.484,0.012c-0.673,0.32-1.311,0.719-1.967,1.072c-0.354,0.191-0.752,0.602-1.08,0.053
			c-0.131-0.217-0.093-0.641,0.03-0.889c0.286-0.564,0.606-1.139,1.026-1.607c1.854-2.072,3.749-4.109,5.632-6.154
			c0.362-0.393,0.768-0.748,1.107-1.16c1.13-1.369,0.778-2.312-0.969-2.639c-0.208-0.039-0.435,0.008-0.64-0.045
			c-0.431-0.105-0.389-0.414-0.174-0.666c0.625-0.73,1.217-1.51,1.938-2.135c4.227-3.674,8.782-6.836,14.199-8.504
			c3.469-1.068,6.978-2.012,10.485-2.945c1.019-0.271,2.095-0.355,3.149-0.463c0.636-0.064,1.287,0.033,1.926-0.016
			c4.373-0.344,8.486,0.75,12.523,2.254c0.594,0.221,1.159,0.533,1.713,0.848c0.831,0.473,1.637,0.986,2.459,1.477
			c0.643,0.383,1.348,0.682,1.925,1.145c0.745,0.594,1.69,1.197,2.001,2.01c0.382,1-0.879,1.529-1.412,2.268
			c-1.191,1.646-2.414,3.27-3.678,4.863c-1.06,1.336-2.214,2.6-3.289,3.926c-0.672,0.828-1.297,1.699-1.898,2.58
			c-1.294,1.896-1.189,3.494,0.291,5.215c2.582,2.998,5.232,5.943,7.722,9.018c2.453,3.027,4.198,6.418,4.768,10.363
			c0.228,1.576,0.702,3.131,1.222,4.641C92.01,67.846,92.067,69.064,91.881,70.363z"/>
	</g>
</g>
</svg>
