<?xml version="1.0" encoding="utf-8"?>
<!-- Generator: Adobe Illustrator 16.0.0, SVG Export Plug-In . SVG Version: 6.00 Build 0)  -->
<!DOCTYPE svg PUBLIC "-//W3C//DTD SVG 1.1//EN" "http://www.w3.org/Graphics/SVG/1.1/DTD/svg11.dtd">
<svg version="1.1" id="Layer_1" xmlns="http://www.w3.org/2000/svg" xmlns:xlink="http://www.w3.org/1999/xlink" x="0px" y="0px"
	 width="120px" height="120px" viewBox="0 0 120 120" style="enable-background:new 0 0 120 120;" xml:space="preserve">
<g id="itunes">
	<g>
		<path style="fill-rule:evenodd;clip-rule:evenodd;" d="M104.899,78.688c-0.614-0.943-0.638-1.934-0.643-3.023
			c-0.013-4.473,0.007-8.951-0.277-13.409c-0.292-4.583-0.634-9.146-0.034-13.722c0.059-0.46-0.018-0.937-0.039-1.405
			c-0.072-1.525-0.21-3.048-0.217-4.571c-0.025-6.473-0.027-12.948-0.002-19.421c0.011-2.698-0.281-5.407,0.285-8.095
			c0.211-0.988-0.156-1.983-0.967-2.51c-2.262-1.472-4.543-2.969-7.495-2.412c-2.306,0.434-4.638,0.719-6.94,1.15
			c-5.307,0.997-10.574,2.216-15.907,3.015c-4.181,0.625-8.368,1.137-12.443,2.315c-1.01,0.291-2.062,0.499-3.109,0.592
			c-3.878,0.341-7.601,1.469-11.414,2.152c-1.01,0.181-1.295,0.619-1.355,1.748c-0.114,2.114,0.008,4.268-0.353,6.338
			c-0.427,2.46-0.531,4.911-0.485,7.378c0.146,7.65-0.561,15.271-0.741,22.909c-0.013,0.587-0.054,1.18-0.138,1.76
			c-0.691,4.77-1.274,9.545-1.239,14.377c0.008,0.816-0.067,1.654-0.269,2.44c-0.354,1.401-1.379,2.148-2.776,2.34
			c-0.576,0.079-1.173-0.007-1.762-0.028c-1.882-0.066-3.721-0.099-5.508,0.802c-0.904,0.455-2.052,0.419-3.081,0.634
			c-0.799,0.163-1.669,0.223-2.37,0.593c-2.078,1.094-4.112,2.272-6.104,3.513c-0.569,0.352-1.016,0.978-1.395,1.56
			c-2.488,3.837-3.989,7.97-3.585,12.634c0.406,4.682,2.275,8.354,6.989,10.04c0.664,0.236,1.332,0.455,2.011,0.645
			c2.748,0.758,5.571,0.849,9.18,0.908c4.269,0.381,9.034-0.899,13.646-2.728c3.438-1.365,6.449-3.397,8.286-6.798
			c0.389-0.72,0.868-1.409,1.405-2.026c1.448-1.66,1.75-3.504,1.168-5.594c-0.217-0.777-0.271-1.62-0.273-2.435
			c-0.011-9.764-0.176-19.521-0.756-29.272c-0.267-4.463-0.69-8.898-1.208-13.331c-0.204-1.76-0.069-2.292,2.028-2.322
			c0.696-0.009,1.401-0.159,2.082-0.318c6.175-1.427,12.345-2.872,18.517-4.301c3.201-0.741,6.406-1.465,9.615-2.177
			c1.036-0.229,1.473,0.179,1.509,1.326c0.007,0.234,0.002,0.471,0.005,0.705c0.031,5.297,0.062,10.593,0.1,15.889
			c0.008,0.822,0.055,1.646,0.091,2.469c0.134,2.816,0.294,5.633,0.397,8.449c0.041,1.031-0.252,1.293-1.189,1.287
			c-1.648-0.009-3.297-0.016-4.941-0.045c-1.436-0.024-2.814,0.242-4.119,0.822c-2.937,1.309-5.601,3.027-7.652,5.529
			c-0.73,0.891-1.244,1.983-1.738,3.038c-0.971,2.089-0.82,4.354-0.985,6.581c-0.247,3.381,1.314,5.895,3.644,8.043
			c4.146,3.822,9.219,5.096,14.669,4.812c3.418-0.181,6.669-1.312,9.769-2.802c1.615-0.777,3.006-1.864,4.156-3.218
			c2.168-2.546,3.7-5.439,4.396-8.729C105.637,81.39,105.729,79.963,104.899,78.688z M49.47,95.178
			c-1.446,1.498-2.732,3.219-5.092,3.432c-0.507,0.045-0.979,0.552-1.454,0.867c-0.962,0.646-1.188,0.563-1.603-0.722
			c-0.071-0.222-0.056-0.503-0.191-0.666c-0.286-0.341-0.597-0.779-0.984-0.896c-0.617-0.188-1.139,0.226-1.444,0.752
			c-0.35,0.604-0.584,1.27-0.909,1.886c-0.269,0.51-0.539,1.038-0.917,1.461c-0.187,0.204-0.621,0.249-0.938,0.236
			c-0.125-0.002-0.331-0.353-0.344-0.55c-0.061-1.053-0.018-2.111-0.114-3.158c-0.109-1.158-0.271-2.318-0.52-3.454
			c-0.181-0.831-1.414-1.139-2.002-0.499c-0.545,0.594-0.984,1.291-1.407,1.981c-0.303,0.494-0.499,1.057-0.758,1.577
			c-0.103,0.203-0.258,0.38-0.387,0.566c-0.082-0.172-0.21-0.337-0.232-0.516c-0.054-0.466-0.028-0.938-0.09-1.402
			c-0.189-1.427-0.64-1.618-2.082-0.929c-0.181,0.089-0.486,0.215-0.567,0.138c-0.148-0.131-0.269-0.423-0.232-0.614
			c0.29-1.491,0.542-2.997,0.979-4.442c0.189-0.619,0.711-1.219,1.233-1.64c1.787-1.433,3.828-2.245,6.164-2.161
			c1.291,0.049,2.58,0.107,3.869,0.135c1.173,0.024,2.378,0.107,3.444-0.487c0.904-0.509,1.841-0.277,2.754-0.231
			c2.11,0.103,2.464,0.58,2.997,2.605c0.442,1.695,0.193,3.538,1.141,5.115c0.11,0.183,0.08,0.449,0.125,0.763
			C49.786,94.57,49.7,94.939,49.47,95.178z M56.795,29.119c-0.056,0.034-0.271-0.2-0.412-0.31c0.219-0.215,0.419-0.449,0.662-0.63
			c0.034-0.025,0.253,0.193,0.458,0.353C57.264,28.742,57.051,28.971,56.795,29.119z M58.862,39.443
			c-0.017,0.016-0.353-0.204-0.348-0.307c0.009-0.181,0.125-0.445,0.269-0.506c0.142-0.062,0.374,0.084,0.668,0.17
			C59.24,39.044,59.066,39.264,58.862,39.443z M64.235,37.411l0.114-0.195l0.053,0.219L64.235,37.411z M98.553,79.984
			c-0.434,1.094-0.967,2.146-1.402,3.236c-1.221,3.061-3.489,4.902-6.594,5.854c-1.814,0.555-2.679,0.51-2.679-1.721
			c0.002-0.928-0.105-1.875-0.335-2.771c-0.088-0.337-0.658-0.743-1.023-0.762c-0.367-0.021-0.902,0.315-1.112,0.652
			c-0.63,1.017-0.843,2.17-0.84,3.375c0.002,0.565-0.124,1.139-0.267,1.691c-0.034,0.133-0.361,0.21-0.564,0.271
			c-0.088,0.028-0.252-0.03-0.303-0.105c-0.196-0.279-0.465-0.563-0.514-0.876c-0.195-1.272-0.349-2.555-0.469-3.838
			c-0.086-0.937-0.043-1.886-0.154-2.814c-0.078-0.623-0.604-1.284-1.146-1.11c-1.409,0.46-1.487-0.427-1.788-1.345
			c-0.207-0.632-0.906-0.855-1.443-0.559c-0.715,0.394-1.381,0.872-2.074,1.305c-0.064,0.043-0.244,0.043-0.25,0.021
			c-0.07-0.209-0.228-0.49-0.148-0.626c0.359-0.599,0.705-1.248,1.205-1.714c2.312-2.15,5.051-3.432,8.229-3.564
			c1.635-0.068,3.283-0.129,4.906,0.329c0.776,0.217,1.636,0.221,2.449,0.19c1.509-0.06,2.697-1.234,2.725-2.7
			c0.025-1.291,0.088-2.612-0.131-3.876c-0.543-3.153-0.394-6.33-0.496-9.502c-0.1-3.051,0.047-6.116-0.582-9.139
			c-0.121-0.569-0.093-1.171-0.125-1.758c-0.226-3.989-0.438-7.979-0.672-11.968c-0.053-0.816-0.084-1.654-0.289-2.442
			c-0.473-1.859-1.132-2.2-3.018-1.561c-1.352,0.462-2.707,0.778-4.139,0.735c-0.534-0.018-0.779-0.304-0.715-0.898
			c0.064-0.58,0.211-1.162,0.189-1.737c-0.012-0.299-0.25-0.768-0.488-0.843c-0.396-0.127-0.928-0.116-1.306,0.054
			c-0.399,0.181-0.745,0.574-1.008,0.949c-0.331,0.478-0.739,1.012-0.788,1.554c-0.189,1.907-1.475,2.456-3.064,2.732
			c-0.506,0.089-0.942-0.188-0.973-0.7c-0.037-0.586,0.021-1.18-0.052-1.76c-0.146-1.16-1.237-1.781-2.341-1.395
			c-1.142,0.402-2.029,1.152-2.877,1.985c-0.484,0.478-0.555,0.424-1.062-0.507c-0.537-0.984-1.439-1.359-2.282-0.87
			c-0.498,0.288-0.924,0.707-1.377,1.074c-0.786,0.633-1.005,1.768-1.95,2.262v0.132c-0.029,0.018-0.062,0.035-0.095,0.051
			c-0.008,0.188-0.009,0.378-0.062,0.55c-0.043,0.14-0.206,0.242-0.315,0.363c-0.02-0.211-0.116-0.458-0.038-0.617
			c0.063-0.135,0.252-0.21,0.416-0.296c0.002-0.044,0.003-0.088,0.007-0.131c0.032-0.015,0.057-0.036,0.088-0.052
			c-0.009-1.009,0.009-2.021-0.038-3.028c-0.048-1.023-0.662-1.648-1.781-1.848c-0.549-0.097-1.264,0.232-1.604-0.372
			c-0.279-0.489-0.348-1.108-0.453-1.682c-0.034-0.172,0.098-0.392,0.197-0.563c0.048-0.081,0.201-0.109,0.311-0.144
			c3.922-1.212,7.83-2.479,11.777-3.609c1.912-0.548,3.875-1.01,5.85-1.216c4.228-0.447,8.271-1.708,12.406-2.561
			c0.686-0.143,1.369-0.376,2.059-0.397c2.223-0.075,3.273-0.634,2.698,2.795c-0.114,0.679-0.263,1.565,0.06,2.058
			c0.895,1.355,0.34,2.727,0.387,4.095c0.176,4.933-0.228,9.881,0.422,14.798c0.047,0.351,0.047,0.705,0.055,1.06
			c0.177,8.344,0.95,16.667,0.929,25.02c-0.005,1.293-0.066,2.589-0.05,3.88c0.014,1.055-0.09,2.174,0.222,3.145
			C99.301,77.585,99.029,78.775,98.553,79.984z"/>
	</g>
</g>
</svg>
