<?xml version="1.0" encoding="utf-8"?>
<!-- Generator: Adobe Illustrator 16.0.0, SVG Export Plug-In . SVG Version: 6.00 Build 0)  -->
<!DOCTYPE svg PUBLIC "-//W3C//DTD SVG 1.1//EN" "http://www.w3.org/Graphics/SVG/1.1/DTD/svg11.dtd">
<svg version="1.1" id="Layer_1" xmlns="http://www.w3.org/2000/svg" xmlns:xlink="http://www.w3.org/1999/xlink" x="0px" y="0px"
	 width="120px" height="120px" viewBox="0 0 120 120" style="enable-background:new 0 0 120 120;" xml:space="preserve">
<g id="podcast">
	<g>
		<path style="fill-rule:evenodd;clip-rule:evenodd;" d="M104.97,57.313c-0.192-2.985-0.303-5.978-0.4-8.969
			c-0.102-3.101-0.229-6.19-0.762-9.261c-0.423-2.437-0.962-4.808-2.148-7.009c-1.014-1.882-1.971-3.797-2.883-5.73
			c-0.559-1.182-1.305-2.191-2.194-3.135c-3.163-3.356-6.595-6.42-10.175-9.316c-0.988-0.799-2.139-1.406-3.246-2.047
			c-1.018-0.588-2.09-1.08-3.113-1.656c-0.93-0.522-1.909-1.007-2.719-1.684c-0.925-0.771-2.3-0.502-3.077-1.492H62.048
			c-0.363,0.185-0.723,0.52-1.091,0.532c-4.228,0.139-8.199,1.372-12.114,2.818c-3.506,1.295-6.998,2.631-10.464,4.028
			c-1.075,0.434-2.146,1.001-3.046,1.723c-2.503,2.007-4.936,4.103-7.348,6.216c-0.713,0.626-1.334,1.386-1.88,2.165
			c-0.858,1.225-1.665,2.49-2.41,3.787c-1.38,2.4-2.855,4.766-3.999,7.277c-1.148,2.519-1.938,5.2-2.889,7.81
			c-1.182,3.245-1.859,6.565-1.729,10.045c0.078,2.138,0.127,4.289-0.011,6.421c-0.255,3.945,0.634,7.658,2.106,11.248
			c1.414,3.449,2.945,6.793,5.525,9.658c2.676,2.971,5.626,5.527,8.878,7.797c1.266,0.885,2.615,0.839,3.991,0.488
			c1.275-0.324,1.851-1.486,1.412-2.76c-0.135-0.394-0.34-0.795-0.613-1.104c-1.273-1.442-2.493-2.949-3.9-4.253
			c-2.062-1.909-3.844-4.052-5.297-6.412c-2.077-3.373-3.707-6.942-4.403-10.929c-0.448-2.566-0.222-5.119-0.427-7.666
			c-0.353-4.389,0.794-8.467,2.287-12.498c0.297-0.802,0.548-1.624,0.896-2.403c1.787-4.008,3.638-7.985,6.296-11.514
			c1.879-2.494,4.082-4.666,6.62-6.494c0.546-0.393,1.063-0.671,1.755-0.254c0.193,0.117,0.584,0.009,0.842-0.098
			c1.084-0.451,2.125-1.019,3.231-1.398c1.714-0.587,3.519-0.932,5.196-1.601c3.217-1.282,6.579-1.909,9.976-2.212
			c4.897-0.438,9.817-0.63,14.729-0.902c0.632-0.033,1.358-0.095,1.895,0.162c1.82,0.875,3.766,1.648,5.312,2.898
			c2.823,2.281,5.367,4.907,8.08,7.33c1.705,1.522,3.073,3.24,3.907,5.389c0.348,0.893,0.869,1.716,1.285,2.583
			c1.075,2.238,1.74,4.626,2,7.062c0.349,3.291,0.44,6.611,0.586,9.921c0.066,1.495-0.1,3.004,0.008,4.494
			c0.236,3.303-0.653,6.35-1.91,9.33c-0.498,1.182-1.033,2.348-1.543,3.524c-1.234,2.851-2.537,5.61-4.918,7.792
			c-1.145,1.05-1.969,2.541-2.664,3.967c-0.729,1.494-0.748,3.063,0.488,4.482c1.378,1.581,4.549,1.752,5.91-0.238
			c0.964-1.412,1.861-2.916,3.055-4.114c1.945-1.953,3.107-4.319,4.198-6.765c0.521-1.172,1.107-2.318,1.567-3.514
			c0.96-2.489,1.945-4.976,2.746-7.519C104.777,61.386,105.103,59.381,104.97,57.313z M76.471,83.499
			c-0.952-2.609-1.952-5.204-3.715-7.407c-0.33-0.413-0.651-0.888-1.089-1.149c-3.398-2.031-6.996-3.107-10.988-2.12
			c-1.345,0.333-2.692,0.83-4.053,0.884c-2.113,0.082-3.603,1.152-5.044,2.477c-1.839,1.689-3.245,3.686-4.253,5.958
			c-1.139,2.563-1.774,5.26-1.846,8.062c-0.062,2.456-0.014,4.916-0.014,7.374h-0.079c0,2.78-0.05,5.561,0.023,8.337
			c0.03,1.162,0.242,2.338,0.526,3.467c0.146,0.58,0.512,1.333,0.988,1.558c1.521,0.715,2.895,1.931,4.646,1.969
			c3.095,0.065,6.218,0.192,9.281-0.141c2.342-0.255,4.666-0.527,7.016-0.462c1.096,0.03,2.145,0.022,3.036-0.707
			c0.61-0.498,1.294-0.679,2.073-0.711c0.519-0.021,1.059-0.158,1.54-0.357c1.362-0.568,2.217-1.461,2.402-3.078
			c0.22-1.911,0.426-3.807,0.45-5.736c0.066-5.455-0.341-10.891-0.604-16.33C76.739,84.75,76.685,84.086,76.471,83.499z
			 M51.292,95.978c0.026-0.023,0.381,0.246,0.365,0.277c-0.172,0.365-0.377,0.716-0.595,1.057c-0.05,0.08-0.177,0.11-0.269,0.163
			c-0.078-0.187-0.156-0.373-0.303-0.718C50.724,96.522,50.991,96.231,51.292,95.978z M51.272,107.034
			c-0.029,0.054-0.205,0.05-0.305,0.03c-0.085-0.018-0.215-0.083-0.229-0.148c-0.13-0.611-0.24-1.228-0.299-1.536
			c0.055-0.643,0.066-0.965,0.114-1.28c0.071-0.477,0.362-0.769,0.843-0.763c0.416,0.006,0.841,0.07,1.242,0.181
			c0.127,0.035,0.309,0.362,0.263,0.454C52.386,105.006,51.832,106.022,51.272,107.034z M52.03,85.849
			c-0.041,0.059-0.132,0.082-0.217,0.109c0.005,0.038,0.013,0.076,0.016,0.113c-0.04,0.003-0.084,0.001-0.129-0.001
			c-0.061,0.117-0.122,0.233-0.182,0.35C51.3,86.056,51.5,86.063,51.7,86.07c0.016-0.029,0.031-0.059,0.046-0.089
			c0.021-0.009,0.044-0.016,0.067-0.023c-0.041-0.283-0.126-0.58-0.052-0.83c0.771-2.599,2.162-4.809,4.262-6.545
			c0.115-0.096,0.42-0.103,0.541-0.016c0.118,0.084,0.217,0.41,0.148,0.511C55.167,81.347,53.601,83.599,52.03,85.849z
			 M69.754,104.207c-0.003,1.397-0.267,1.602-1.753,1.542c-0.318-0.013-0.635-0.075-0.949-0.135
			c-0.703-0.133-1.436,0.579-2.119-0.076c0.313-0.674,0.617-1.353,0.941-2.021c0.558-1.149,1.178-2.271,1.68-3.445
			c0.643-1.497-0.106-2.48-1.766-2.4c-0.205,0.01-0.402,0.135-0.609,0.182c-0.078,0.017-0.232-0.02-0.248-0.067
			c-0.063-0.18-0.184-0.441-0.107-0.554c1.02-1.498,2.028-3,2.686-4.705c0.235-0.609,0.409-1.229-0.059-1.808
			c-0.439-0.542-1.19-0.616-2.049-0.277c-1.213,0.478-2.269,1.181-3.122,2.165c-1.187,1.369-2.343,2.765-3.531,4.132
			c-0.312,0.359-0.562,0.861-1.156,0.803c-0.007,0.018-0.012,0.035-0.019,0.053c-0.023,0.008-0.04,0.018-0.062,0.026
			c0.084,0.516-0.021,0.941-0.553,1.161c0.003,0.044,0.006,0.088,0.01,0.132c-0.039,0.011-0.087,0.015-0.136,0.018
			c-0.059,0.13-0.118,0.259-0.176,0.388c-0.268-0.38-0.033-0.373,0.176-0.388c0.016-0.035,0.033-0.071,0.049-0.107
			c0.032-0.011,0.047-0.03,0.077-0.042c-0.036-0.487-0.017-0.95,0.553-1.161c-0.005-0.029-0.003-0.056-0.009-0.086
			c0.032,0.006,0.059,0.004,0.089,0.007c0.172-0.468,0.28-0.976,0.546-1.382c1.965-3.015,3.959-6.01,5.955-9.004
			c0.53-0.795,1.085-1.553,1.102-2.58c0.021-1.21-0.972-1.996-2.108-1.605c-0.919,0.315-1.729,0.803-2.357,1.555
			c-0.681,0.812-1.315,1.661-2.021,2.449c-0.312,0.349-0.729,0.604-1.107,0.893c-0.003,0.038-0.004,0.077-0.009,0.115
			c-0.031,0.001-0.062,0.002-0.092,0.003c-0.072,0.161-0.144,0.324-0.215,0.485c-0.351-0.425-0.1-0.475,0.215-0.485
			c0.01-0.022,0.02-0.044,0.029-0.066c0.023-0.018,0.048-0.034,0.071-0.052c0.031-0.381,0.001-0.792,0.161-1.106
			c1.357-2.653,2.758-5.285,4.153-7.918c0.312-0.589,0.89-0.783,1.645-0.59c3.081,0.791,5.06,2.649,5.507,5.874
			c0.292,2.107,0.594,4.229,0.643,6.35C69.81,95.051,69.765,99.63,69.754,104.207z M85.796,48.094
			c-0.045-0.832-0.252-1.683-0.537-2.471c-1.61-4.448-3.926-8.52-6.721-12.324c-0.376-0.514-0.746-1.075-1.242-1.45
			c-2.731-2.061-5.517-4.024-8.849-5.059c-1.031-0.32-2.032-0.591-3.121-0.58c-2.993,0.028-5.993-0.104-8.979,0.051
			c-2.118,0.11-4.216,0.584-6.323,0.895c-4.179,1.96-8.244,4.09-11.055,7.94c-1.129,1.547-2.375,3.06-3.199,4.765
			c-1.204,2.491-2.083,5.139-3.085,7.726c-1.942,5.013-1.833,10,0.224,14.954c0.449,1.084,0.965,2.144,1.369,3.244
			c0.708,1.932,1.881,3.586,3.057,5.234c0.951,1.331,2.292,2.235,3.74,2.936c1.375,0.663,3.021,0.303,4.123-0.829
			c1.209-1.243,0.821-2.374-0.281-2.918c-1.122-0.553-1.814-1.452-2.529-2.388c-1.84-2.411-2.94-5.192-3.996-7.992
			c-0.49-1.302-0.654-2.656-0.727-4.062c-0.133-2.63,0.358-5.081,1.453-7.449c0.403-0.87,0.807-1.758,1.05-2.681
			c0.702-2.668,2.29-4.8,4.046-6.818c3.386-3.891,7.574-6.167,12.845-6.161c0.962,0.002,1.925,0,2.887,0v-0.012
			c1.39,0,2.782,0.059,4.169-0.019c1.224-0.067,2.375,0.222,3.4,0.761c1.693,0.891,3.322,1.915,4.908,2.986
			c0.592,0.4,1.035,1.056,1.463,1.654c2.005,2.806,3.27,5.989,4.572,9.146c0.236,0.575,0.312,1.24,0.346,1.869
			c0.057,1.066,0.02,2.138,0.02,3.207c0,4.426,0.031,4.44-1.971,8.584c-0.48,0.992-0.814,1.971-0.785,3.059
			c0.01,0.415,0.052,0.882,0.246,1.232c0.657,1.184,1.648,2.078,3.039,2.039c1.418-0.041,2.738-0.516,3.366-2.018
			c0.699-1.672,1.479-3.313,2.103-5.012c0.741-2.012,1.172-4.099,1.104-6.27C85.862,51.942,85.9,50.015,85.796,48.094z
			 M53.914,64.594c1.818,0.591,3.749,1.071,5.669,0.82c2.104-0.275,3.998-0.884,5.369-2.927c2.268-3.38,3.525-7.041,4.037-11.005
			c0.105-0.82-0.025-1.7-0.203-2.519c-0.223-1.031-0.593-2.033-0.92-3.041c-0.818-2.524-3.72-4.589-6.165-4.086
			c-2.514,0.517-5.049,0.811-7.577,1.195c-2.245,0.344-4.435,2.429-4.713,4.649c-0.357,2.856-0.542,5.735-0.867,9.324
			c-0.308,1.462,0.531,3.266,1.836,4.908C51.325,63.104,52.491,64.132,53.914,64.594z M56.442,57.554
			c1.191-1.281,1.85-2.826,2.424-4.446c0.37-1.042,1.166-1.366,2.334-1.099c0.239,0.056,0.615,0.426,0.588,0.597
			c-0.303,1.913-1.006,3.704-2.069,5.305c-0.283,0.426-1.077,0.512-1.507,0.698c-0.611-0.135-1.06-0.157-1.424-0.344
			C56.591,58.164,56.37,57.63,56.442,57.554z"/>
	</g>
</g>
</svg>
