<?xml version="1.0" encoding="utf-8"?>
<!-- Generator: Adobe Illustrator 16.0.0, SVG Export Plug-In . SVG Version: 6.00 Build 0)  -->
<!DOCTYPE svg PUBLIC "-//W3C//DTD SVG 1.1//EN" "http://www.w3.org/Graphics/SVG/1.1/DTD/svg11.dtd">
<svg version="1.1" id="Layer_1" xmlns="http://www.w3.org/2000/svg" xmlns:xlink="http://www.w3.org/1999/xlink" x="0px" y="0px"
	 width="120px" height="120px" viewBox="0 0 120 120" style="enable-background:new 0 0 120 120;" xml:space="preserve">
<g id="skype">
	<g>
		<path style="fill-rule:evenodd;clip-rule:evenodd;" d="M115.551,82.977c-1.375-3.126-2.896-6.216-5.168-8.825
			c-0.609-0.702-0.893-1.388-0.883-2.295c0.029-2.676,0.01-5.352,0.01-8.026h0.08c0-2.033,0.012-4.068-0.004-6.102
			c-0.023-3.006-0.553-5.939-1.207-8.867c-0.584-2.624-1.678-5.062-2.568-7.576c-1.947-5.498-4.867-10.46-8.24-15.167
			c-1.506-2.1-3.371-3.863-5.705-5.081c-0.945-0.492-1.844-1.082-2.736-1.669c-2.162-1.416-4.578-2.305-6.918-3.343
			c-0.869-0.385-1.836-0.578-2.775-0.767c-2.092-0.418-4.182-0.88-6.295-1.136c-2.752-0.333-5.475-0.967-8.283-0.795
			c-3.84,0.235-7.683,0.408-11.525,0.619c-0.424,0.022-0.881,0.035-1.258,0.202c-2.121,0.94-3.549,0.132-4.98-1.517
			c-2.25-2.594-4.934-4.741-7.906-6.495c-2.064-1.216-4.252-1.915-6.684-1.94c-3.275-0.032-6.352,0.638-9.307,2.038
			c-3.496,1.659-6.771,3.671-9.76,6.12c-3.172,2.598-5.875,5.613-7.844,9.244c-1.295,2.387-2.029,4.889-2.023,7.656
			c0.01,3.329,0.395,6.615,0.799,9.9c0.207,1.688,0.547,3.373,0.986,5.018c0.775,2.91,1.982,5.652,3.74,8.111
			c0.875,1.223,1.016,2.406,0.742,3.905c-0.77,4.226-0.805,8.453,0.033,12.732c1.371,7.008,3.762,13.566,7.592,19.606
			c1.092,1.723,2.211,3.401,3.611,4.89c1.244,1.325,2.449,2.688,3.689,4.018c4.496,4.812,9.51,8.92,15.646,11.507
			c1.574,0.664,3.123,1.393,4.697,2.06c2.576,1.093,5.238,1.805,8.072,1.783c2.889-0.022,5.777,0.034,8.666,0.019
			c0.963-0.005,1.953,0.007,2.877-0.213c3.641-0.867,7.354-1.312,11.023-1.986c1.199-0.22,2.066-0.072,2.947,0.645
			c4.102,3.338,8.99,4.277,14.076,4.548c0.836,0.045,1.688-0.191,2.529-0.296c2.18-0.27,3.98-1.508,5.949-2.317
			c3.949-1.624,7.146-4.228,9.951-7.399c2.357-2.664,3.555-5.814,4.09-9.246c0.41-2.634,0.574-5.307,1.029-7.932
			C116.666,86.607,116.314,84.713,115.551,82.977z M108.51,91.382c-0.328,1.015-0.609,2.047-0.928,3.064
			c-1.197,3.804-3.594,6.762-6.576,9.301c-0.318,0.271-0.758,0.676-1.072,0.622c-1.559-0.262-2.461,1.219-3.836,1.337
			c-0.748,0.063-1.514,0.005-2.102-0.573c-0.887-0.875-1.836-0.987-2.891-0.308c-0.264,0.169-0.572,0.285-0.877,0.366
			c-0.965,0.255-1.641-0.209-1.783-1.209c-0.074-0.528-0.061-1.076-0.201-1.584c-0.346-1.264-2.256-1.692-3.137-0.676
			c-0.48,0.555-0.781,1.261-1.17,1.895c-0.154,0.255-0.279,0.665-0.682,0.369c-0.238-0.175-0.541-0.473-0.547-0.724
			c-0.064-2.028-0.068-4.058-0.08-6.088c-0.002-0.425,0.076-0.851,0.059-1.274c-0.023-0.603-0.861-1.162-1.42-0.929
			c-0.383,0.161-0.758,0.391-1.072,0.666c-0.393,0.345-0.699,0.207-1.131,0.064c-1.607-0.533-2.146-0.364-3.012,0.844
			c-0.246,0.342-0.344,0.798-0.615,1.108c-0.158,0.179-0.547,0.27-0.803,0.229c-1.836-0.284-2.625-0.181-3.127,1.237
			c-0.814,2.309-2.578,3.205-4.623,3.98c-2.43,0.921-4.943,1.329-7.509,1.41c-2.029,0.063-4.064-0.076-6.096-0.035
			c-1.645,0.032-3.172-0.354-4.67-0.963c-1.385-0.562-2.756-1.167-4.16-1.676c-5.023-1.82-9.248-4.854-13.051-8.531
			c-1.232-1.19-2.43-2.412-3.639-3.626c-1.137-1.146-2.117-2.385-2.721-3.921c-0.264-0.668-0.809-1.225-1.23-1.828
			c-1.367-1.96-2.443-3.99-2.145-6.525c0.139-1.16,0.066-2.352,0.018-3.525c-0.049-1.155-0.229-1.352-1.51-1.633
			c-0.574-0.126-0.998-0.188-0.887-0.954c0.154-1.052,0.223-2.117,0.305-3.179c0.168-2.129,0.293-4.26,0.488-6.385
			c0.072-0.779,0.109-1.65-0.432-2.131c-1.01-0.896-1.184-1.751-0.75-3.021c0.334-0.985,0.283-2.099-0.377-3.082
			c-0.217-0.324-0.264-0.805-0.268-1.215c-0.008-0.753,0.162-1.354,0.898-1.889c2.189-1.587,2.287-2.235,1.057-4.828
			c-0.203-0.428-0.242-0.766-0.061-1.191c0.592-1.371,1.254-2.725,1.699-4.145c0.312-0.995,0.393-2.085,0.428-3.137
			c0.033-0.95-0.738-1.568-1.713-1.444c-0.51,0.063-1.08,0.215-1.469,0.522c-0.574,0.458-1.006,1.091-1.506,1.643
			c-0.059,0.064-0.162,0.09-0.244,0.133c-0.066-0.195-0.219-0.407-0.184-0.582c0.166-0.833,0.447-1.647,0.557-2.486
			c0.066-0.505-0.068-1.051-0.188-1.561c-0.107-0.452-0.939-0.833-1.318-0.603c-0.543,0.33-1.037,0.739-1.564,1.098
			c-0.148,0.1-0.338,0.136-0.508,0.2c-0.059-0.197-0.217-0.432-0.16-0.588c0.578-1.604,1.182-3.198,1.801-4.787
			c0.193-0.493,0.496-0.945,0.674-1.442c0.312-0.88-0.303-1.742-1.229-1.816c-0.787-0.063-1.51,0.073-2.043,0.689
			c-0.486,0.565-0.895,1.198-1.377,1.767c-0.24,0.282-0.531,0.826-0.936,0.484c-0.234-0.199-0.277-0.816-0.182-1.188
			c0.68-2.619,1.801-5.022,3.703-7.001c3.609-3.755,7.871-6.564,12.648-8.587c3.406-1.443,6.654-1.084,9.736,1.021
			c1.695,1.157,3.145,2.565,4.586,3.997c1.16,1.149,0.791,1.52-0.533,1.889c-0.615,0.172-1.223,0.394-1.805,0.66
			c-1.219,0.558-1.889,2.109-1.557,3.502c0.299,1.252,1.168,2.102,2.451,2.137c0.943,0.026,1.912-0.119,2.844-0.313
			c2.713-0.568,5.416-1.188,8.117-1.81c2.605-0.599,5.217-1.105,7.902-1.184c1.49-0.043,2.978-0.382,4.464-0.352
			c4.164,0.082,8.305,0.441,12.365,1.483c2.271,0.583,4.574,1.049,6.846,1.633c1.131,0.29,2.242,0.685,3.332,1.108
			c3.854,1.495,6.566,4.225,8.688,7.732c2.387,3.949,4.408,8.062,6.053,12.359c1.854,4.832,2.867,9.831,2.738,15.031
			c-0.018,0.748,0,1.497,0,2.246c-0.053,0.001-0.104,0.001-0.154,0.001c0,1.925,0.025,3.851-0.014,5.774
			c-0.016,0.738-0.123,1.488-0.293,2.209c-0.381,1.604-0.15,3.199,0.072,4.774c0.148,1.056,0.543,2.081,1.635,2.61
			c0.602,0.29,0.977,0.772,1.283,1.369c0.539,1.043,1.131,2.063,1.758,3.055C109.344,85.295,109.52,88.268,108.51,91.382z
			 M80.131,37.947c-0.225-0.225-0.504-0.399-0.773-0.572c-2.512-1.618-5.029-3.228-7.545-4.846
			c-1.719-1.105-3.555-1.967-5.533-2.467c-1.652-0.418-3.324-0.813-5.012-1.034c-1.361-0.179-2.775-0.229-4.134-0.075
			c-3.756,0.422-7.244,1.662-10.537,3.557c-3.936,2.266-7.418,4.914-9.996,8.789c-1.408,2.117-2.34,4.277-2.77,6.72
			c-0.076,0.421-0.049,0.866-0.168,1.271c-0.961,3.251-0.344,6.354,0.896,9.381c1.252,3.067,3.494,5.114,6.727,5.871
			c1.859,0.436,3.76,0.783,5.707,0.732c2.352-0.061,4.705-0.014,7.057-0.014v-0.103c2.994,0,5.994-0.085,8.984,0.022
			c3.264,0.117,6.018,1.346,7.867,4.194c0.406,0.627,0.861,1.225,1.244,1.866c1.785,2.987,1.473,6.275-1.74,8.416
			c-2.955,1.971-6.275,3.217-9.83,3.625c-4.005,0.458-7.515-1.198-11.009-2.824c-1.699-1.504-3.928-2.127-5.744-3.45
			c-0.678-0.491-1.527-0.759-2.316-1.077c-1.445-0.581-1.859-0.475-2.752,0.67c-0.33,0.419-0.686,0.846-0.887,1.328
			c-1.018,2.443-1.133,5.014-0.631,7.556c0.342,1.728,1.422,3.105,3.041,3.94c0.854,0.44,1.715,0.908,2.627,1.185
			c2.65,0.803,5.322,1.552,8.004,2.249c1.76,0.457,3.566,0.643,5.393,0.697c0.953,0.028,1.898,0.251,2.852,0.355
			c4.023,0.44,7.896,0.014,11.445-2.105c3.646-2.177,6.547-5.135,8.85-8.676c0.518-0.793,0.922-1.701,1.191-2.611
			c1.078-3.656,0.83-7.398,0.572-11.132c-0.023-0.312-0.166-0.618-0.275-0.918c-0.52-1.401-1.023-2.81-1.578-4.196
			c-0.818-2.052-2.094-3.694-4.174-4.643c-1.264-0.576-2.482-1.248-3.713-1.895c-1.055-0.555-2.152-0.863-3.361-0.928
			c-1.166-0.061-2.355-0.209-3.471-0.527c-1.986-0.565-4-0.645-6.029-0.665c-1.82-0.019-3.639-0.035-5.455-0.074
			c-0.748-0.017-1.5-0.036-2.234-0.146c-1.678-0.251-2.908-1.013-3.689-2.673c-0.943-2.006-1.111-3.883,0.059-5.783
			c0.893-1.452,1.84-2.873,2.799-4.283c1.436-2.108,3.557-2.915,5.998-3.195c4.244-0.486,8.052,0.747,11.556,2.984
			c1.602,1.023,3.41,1.852,4.531,3.501c1.623,2.391,5.43,1.982,7,0.067c0.471-0.578,1.002-1.111,1.508-1.662
			C84.107,40.615,83.432,41.282,80.131,37.947z"/>
	</g>
</g>
</svg>
