<?xml version="1.0" encoding="utf-8"?>
<!-- Generator: Adobe Illustrator 16.0.0, SVG Export Plug-In . SVG Version: 6.00 Build 0)  -->
<!DOCTYPE svg PUBLIC "-//W3C//DTD SVG 1.1//EN" "http://www.w3.org/Graphics/SVG/1.1/DTD/svg11.dtd">
<svg version="1.1" id="Layer_1" xmlns="http://www.w3.org/2000/svg" xmlns:xlink="http://www.w3.org/1999/xlink" x="0px" y="0px"
	 width="120px" height="120px" viewBox="0 0 120 120" style="enable-background:new 0 0 120 120;" xml:space="preserve">
<g id="hangout">
	<g>
		<path style="fill-rule:evenodd;clip-rule:evenodd;" d="M108.627,36.97c-1.103-4.608-2.365-9.156-4.685-13.335
			c-0.972-1.745-1.908-3.513-2.905-5.244c-1.166-2.02-2.607-3.826-4.458-5.272c-2.577-2.014-5.276-3.826-8.299-5.125
			c-1.545-0.663-3.096-1.322-4.593-2.083c-2.984-1.514-6.11-2.119-9.453-1.964c-2.307,0.106-4.643,0.091-6.934-0.169
			c-2.528-0.288-5.004-0.205-7.532,0.002c-4.106,0.332-8.12,1.064-12.075,2.146c-4.391,1.201-8.589,2.901-12.257,5.636
			c-3.032,2.26-5.98,4.646-8.833,7.127c-2.947,2.563-5.284,5.709-7.692,8.766c-2.229,2.829-3.862,6.022-5.295,9.3
			c-1.474,3.365-2.924,6.761-2.99,10.542c-0.006,0.413-0.206,0.816-0.252,1.231c-0.48,4.309-0.647,8.624,0.561,12.838
			c0.604,2.113,1.478,4.152,2.302,6.197c1.297,3.217,2.64,6.412,3.995,9.604c0.7,1.645,1.399,3.293,2.212,4.883
			c2.79,5.457,6.981,9.417,12.716,11.683c1.762,0.697,3.449,1.525,5.062,2.548c1.141,0.727,2.404,1.33,3.689,1.748
			c4.123,1.35,8.337,2.141,12.708,1.532c0.308-0.044,0.626-0.01,0.94,0.006c0.373,0.017,0.814,0.487,0.79,0.851
			c-0.132,1.887-0.275,3.774-0.407,5.661c-0.131,1.87-0.162,3.751-0.409,5.603c-0.258,1.932,0.217,3.496,1.731,4.729h1.265
			c0.315-0.794,1.112-0.953,1.764-1.18c2.706-0.939,5.171-2.323,7.592-3.816c6.821-4.208,13.175-9.033,19.226-14.286
			c2.278-1.978,4.221-4.438,7.207-5.51c0.187-0.068,0.324-0.263,0.5-0.382c2.666-1.843,4.54-4.398,6.035-7.187
			c2.679-4.992,5.588-9.896,6.992-15.476c0.204-0.806,0.675-1.538,0.967-2.325c0.326-0.884,0.789-1.781,0.836-2.692
			c0.068-1.382,0.407-2.692,0.638-4.031c0.23-1.345,0.526-2.694,0.59-4.051C110.172,49.262,110.088,43.072,108.627,36.97z
			 M102.959,61.093c-0.156,2.763-1.04,5.354-2.842,7.554c-0.4,0.487-0.732,1.029-1.098,1.545c-0.324,0.461-0.477,1.014-0.213,1.486
			c0.416,0.752,0.348,1.332-0.176,2.003c-1.16,1.495-2.274,3.028-3.381,4.563c-2.228,3.092-4.873,5.801-7.67,8.362
			c-3.801,3.481-7.582,6.994-11.814,9.959c-2.756,1.93-5.574,3.772-8.359,5.663c-0.594,0.403-1.158,0.386-1.756,0.018
			c-0.855-0.529-1.597-0.273-2.289,0.352c-0.142,0.129-0.344,0.188-0.52,0.282c-0.072-0.194-0.189-0.385-0.204-0.582
			c-0.063-0.874,0.077-1.659,0.903-2.2c1.191-0.782,1.808-2.02,2.415-3.244c0.183-0.369,0.269-0.791,0.346-1.201
			c0.179-0.97-0.425-1.556-1.507-1.283c-0.644,0.162-0.947,0.181-1.061-0.536c-0.082-0.509-0.082-1.195-0.403-1.474
			c-1.347-1.17-0.64-2.236-0.017-3.364c0.507-0.921,1.01-1.847,1.458-2.796c0.171-0.367,0.247-0.806,0.257-1.213
			c0.014-0.564-0.297-0.993-0.799-1.258c-0.508-0.266-1.033-0.25-1.489,0.07c-0.339,0.238-0.638,0.552-0.888,0.882
			c-0.383,0.5-0.695,1.054-1.059,1.568c-2.485,3.522-1.587,3.017-6.165,3.04c-0.776,0.004-1.184-0.631-0.797-1.255
			c0.719-1.159,1.508-2.273,2.262-3.411c0.403-0.61,0.861-1.201,1.176-1.855c0.49-1.017-0.286-2.492-1.414-2.738
			c-0.565-0.121-1.059,0.181-1.356,0.62c-1.238,1.825-2.438,3.678-3.636,5.528c-0.227,0.35-0.323,0.8-0.588,1.111
			c-0.254,0.293-0.653,0.66-0.984,0.66c-1.785-0.014-3.57-0.098-5.352-0.23c-0.759-0.056-1.101-0.717-0.782-1.343
			c0.473-0.939,1.068-1.829,1.433-2.808c0.246-0.655,0.265-1.428,0.237-2.143c-0.027-0.699-0.577-1.088-1.201-1.318
			c-0.49-0.182-1.316,0.097-1.656,0.619c-0.857,1.32-1.684,2.663-2.504,4.008c-0.273,0.446-0.427,0.984-0.761,1.371
			c-0.238,0.274-0.753,0.58-1.038,0.497c-1.608-0.465-3.196-1.017-4.77-1.593c-0.649-0.24-0.855-0.897-0.53-1.572
			c0.636-1.327,1.303-2.64,1.976-3.95c0.354-0.687,0.442-1.396,0.282-2.143c-0.123-0.584-0.694-1.136-1.288-1.239
			c-0.574-0.102-1.034,0.139-1.396,0.544c-0.206,0.232-0.336,0.53-0.492,0.803c-0.725,1.284-1.443,2.567-2.169,3.849
			c-0.154,0.271-0.3,0.558-0.513,0.774c-0.121,0.127-0.405,0.22-0.551,0.161c-0.284-0.109-0.567-0.295-0.772-0.521
			c-2.715-2.949-2.381-2.117-0.88-5.328c0.309-0.667,0.726-1.291,0.984-1.976c0.219-0.578,0.346-1.212,0.388-1.831
			c0.067-0.915-0.482-1.674-1.307-1.938c-0.741-0.236-1.193,0.258-1.601,0.729c-0.691,0.791-1.32,1.635-2.006,2.431
			c-0.198,0.23-0.521,0.409-0.805,0.102c-0.206-0.223-0.5-0.513-0.486-0.757c0.027-0.504,0.182-1.017,0.376-1.491
			c1.076-2.625,2.185-5.238,3.265-7.861c0.359-0.872,0.748-1.748,0.966-2.659c0.111-0.457-0.042-1.03-0.23-1.489
			c-0.25-0.612-1.178-0.749-1.593-0.288c-0.348,0.388-0.686,0.797-0.967,1.235c-1.136,1.768-2.236,3.562-3.382,5.325
			c-0.251,0.388-0.378,1.083-1.047,0.902c-0.628-0.167-0.93-1.61-0.531-2.223c0.056-0.087,0.139-0.16,0.219-0.227
			c0.851-0.706,1.21-1.703,1.593-2.683c1.601-4.118,3.388-8.151,5.427-12.073c0.236-0.457,0.482-0.973,0.492-1.466
			c0.008-0.335-0.313-0.808-0.623-0.982c-0.3-0.173-0.969-0.217-1.138-0.022c-0.96,1.103-1.952,2.217-2.681,3.472
			c-1.106,1.906-2.002,3.936-3.007,5.903c-0.075,0.147-0.323,0.3-0.484,0.29c-0.148-0.01-0.3-0.216-0.421-0.361
			c-0.06-0.069-0.067-0.196-0.069-0.298c-0.012-1.051-0.075-2.107-0.002-3.155c0.042-0.609,0.206-1.263,0.5-1.795
			c1.572-2.852,3.191-5.678,4.819-8.499c0.471-0.818,1.028-1.587,1.525-2.39c0.217-0.351,0.456-0.713,0.559-1.105
			c0.135-0.513,0.086-1.047-0.342-1.456c-0.429-0.409-0.996-0.49-1.46-0.26c-0.642,0.321-1.193,0.82-1.791,1.236
			c-0.157,0.109-0.33,0.203-0.509,0.278c-0.02,0.007-0.179-0.175-0.164-0.246c0.425-1.847,0.857-3.711,2.177-5.165
			c3.109-3.428,6.241-6.839,9.387-10.234c1.154-1.247,2.609-2.115,4.052-2.986c2.342-1.41,4.702-2.787,7.016-4.242
			c2.503-1.574,5.067-2.957,7.976-3.68c2.037-0.506,4.029-1.201,6.009-1.902c1.804-0.642,3.618-1.037,5.55-0.909
			c1.15,0.077,2.312,0.014,3.472,0.014v0.028c0.632,0,1.265,0.031,1.895-0.005c5.382-0.313,10.372,1.277,15.309,3.128
			c0.392,0.146,0.812,0.302,1.116,0.568c2.834,2.478,6.17,4.395,8.32,7.637c1.217,1.833,2.773,3.43,3.729,5.459
			c0.352,0.747,0.881,1.445,1.442,2.058c1.403,1.535,2.15,3.39,2.536,5.355c1.08,5.457,2.305,10.906,2.195,16.525
			C103.904,53.984,103.158,57.537,102.959,61.093z M55.151,35.105c-0.333-0.209-0.809-0.269-1.216-0.257
			c-3.042,0.077-6.059-0.694-9.125-0.163c-0.991,0.172-2.081-0.123-3.109-0.301c-0.765-0.128-1.447-0.109-2.108,0.339
			c-1.03,0.697-2.014,1.531-3.144,2.006c-1.14,0.475-1.651,1.241-1.835,2.331c-0.158,0.928-0.291,1.869-0.319,2.807
			c-0.065,2.21-0.04,4.422-0.096,6.632c-0.062,2.521,0.05,5.054-0.492,7.55c-0.109,0.503-0.096,1.051-0.048,1.571
			c0.173,1.849,1.975,2.897,3.684,2.039c0.874-0.44,1.731-0.669,2.688-0.765c0.932-0.095,1.858-0.319,2.771-0.548
			c1.525-0.386,3.028-0.886,4.563-1.22c0.995-0.216,2.285-0.65,2.942,0.284c0.625,0.888-0.073,2.075-0.526,2.963
			c-0.408,0.796-1.189,1.46-1.933,2.014c-1.347,1.001-2.796,1.866-4.191,2.806c-0.719,0.484-1.481,0.775-2.365,0.725
			c-1.167-0.072-1.991,0.543-2.694,1.385c-1.226,1.465-0.895,3.374,0.765,4.26c1.904,1.021,3.962,1.363,6.103,1.211
			c0.842,0,1.687,0.058,2.523-0.014c1.272-0.107,2.539-0.419,3.509-1.264c2.774-2.42,4.777-5.168,4.696-9.182
			c-0.119-5.892,0.063-11.79,0.152-17.686c0.017-1.257,0.09-2.529,0.307-3.763c0.283-1.619-0.156-3.14-0.473-4.669
			C56.093,35.772,55.568,35.369,55.151,35.105z M51.893,42.484c-0.02,0.943-0.004,1.887-0.044,2.826
			c-0.017,0.41-0.094,0.826-0.213,1.219c-0.209,0.691-1.036,0.957-1.745,0.592c-1.203-0.619-1.654-0.513-2.217,0.536
			c-0.098,0.183-0.154,0.388-0.244,0.576c-0.496,1.036-0.953,2.097-1.52,3.094c-0.202,0.354-0.215,1.237-0.851,0.903
			c-0.477-0.252-0.088-0.947,0.107-1.414c0.771-1.83,1.553-3.651,2.327-5.477c0.396-0.932,0.208-1.487-0.732-2.069
			c-0.259-0.159-0.705-0.159-0.832-0.373c-0.684-1.142-1.545-1.218-2.657-0.661c-0.421,0.212-0.799-0.197-0.707-0.666
			c0.04-0.204,0.104-0.404,0.154-0.607c0.409-1.674,0.409-1.674,2.039-1.716c0.209-0.006,0.419-0.002,0.628-0.002h2.198v-0.008
			c0.419,0,0.837,0.002,1.256,0C52.284,39.224,51.971,38.902,51.893,42.484z M86.37,42.693c0.073-0.41,0.091-0.837,0.085-1.258
			c-0.049-2.891-1.904-4.923-4.777-5.296c-0.83-0.107-1.646-0.304-2.469-0.461c-2.064-0.391-4.116-0.85-6.193-1.147
			c-1.134-0.161-2.319-0.161-3.459-0.033c-1.247,0.141-2.49,0.416-3.084,1.828c-0.185,0.443-0.672,0.797-1.092,1.094
			c-1.148,0.807-1.496,1.927-1.56,3.27c-0.153,3.254-0.386,6.505-0.577,9.567c0,1.67-0.002,3.142,0.002,4.616
			c0.002,1.064,0.554,1.748,1.482,2.223c0.717,0.367,1.363,0.328,2.107,0.05c3.191-1.193,6.516-1.63,9.909-1.577
			c0.569,0.008,1.019,0.43,1.001,0.963c-0.098,2.745-0.498,5.436-1.566,7.991c-0.521,1.249-0.596,1.253-2.135,0.868
			c-1.016-0.254-2.046-0.515-3.086-0.609c-2.056-0.188-3.266,1.184-4.357,2.631c-0.215,0.285-0.205,0.814-0.16,1.217
			c0.127,1.093,0.633,2.023,1.557,2.633c1.33,0.874,2.746,1.571,4.391,1.583c1.054,0.007,2.106-0.021,3.158-0.021
			c1.875,0,3.498-0.729,4.941-1.833c2.064-1.576,3.519-3.603,4.154-6.158c0.252-1.021,0.406-2.075,0.762-3.056
			c1.402-3.878,1.18-7.886,0.914-11.863C86.158,47.492,85.949,45.1,86.37,42.693z M80.715,63.41c-0.021,0.09-0.1,0.167-0.153,0.25
			c-0.012-0.189-0.021-0.375-0.032-0.565c0.055,0.008,0.149,0.004,0.155,0.024C80.711,63.212,80.736,63.319,80.715,63.41z
			 M81.352,61.465c-0.01,0.085-0.133,0.158-0.204,0.236c-0.046-0.096-0.121-0.188-0.133-0.286c-0.171-1.38-0.098-2.729,0.507-4.008
			c0.039-0.083,0.168-0.121,0.254-0.181c0.077,0.006,0.174-0.014,0.223,0.026c0.078,0.063,0.162,0.16,0.18,0.254
			C82.436,58.935,81.515,60.122,81.352,61.465z M82.242,44.984h-0.127c0,1.041,0.035,2.089-0.028,3.126
			c-0.011,0.206-0.359,0.477-0.606,0.565c-0.416,0.149-0.906,0.027-1.066-0.385c-0.184-0.473-0.123-1.033-0.258-1.531
			c-0.21-0.786-0.794-1.15-1.648-1.12c-1.545,0.05-1.574,0.022-1.305-1.205c0.132-0.604,0.336-1.206,0.384-1.819
			c0.044-0.55-0.246-1.08-0.796-1.203c-0.336-0.074-0.82,0.091-1.103,0.317c-0.397,0.317-0.705,0.769-0.987,1.2
			c-0.456,0.698-0.85,1.438-1.295,2.141c-0.079,0.123-0.281,0.17-0.428,0.25c-0.032-0.193-0.121-0.401-0.084-0.584
			c0.06-0.304,0.211-0.588,0.306-0.884c0.433-1.384,0.854-2.767,1.281-4.152c1.499-0.501,2.798,0.411,4.196,0.602
			c0.931,0.125,1.876,0.183,2.783,0.401c0.311,0.075,0.725,0.53,0.747,0.84C82.297,42.685,82.242,43.835,82.242,44.984z"/>
	</g>
</g>
</svg>
