<?xml version="1.0" encoding="utf-8"?>
<!-- Generator: Adobe Illustrator 16.0.0, SVG Export Plug-In . SVG Version: 6.00 Build 0)  -->
<!DOCTYPE svg PUBLIC "-//W3C//DTD SVG 1.1//EN" "http://www.w3.org/Graphics/SVG/1.1/DTD/svg11.dtd">
<svg version="1.1" id="Layer_1" xmlns="http://www.w3.org/2000/svg" xmlns:xlink="http://www.w3.org/1999/xlink" x="0px" y="0px"
	 width="120px" height="120px" viewBox="0 0 120 120" style="enable-background:new 0 0 120 120;" xml:space="preserve">
<g id="aim">
	<g>
		<path style="fill-rule:evenodd;clip-rule:evenodd;" d="M91.746,87.269c-3.309-5.627-7.955-10.034-12.871-14.181
			c-1.539-1.302-3.338-2.301-5.014-3.441c-0.715-0.485-0.809-0.748-0.596-1.594c0.076-0.311,0.146-0.625,0.242-0.93
			c0.199-0.624,0.572-0.862,1.186-0.757c1.57,0.27,3.139,0.546,4.68,0.814c1.447-0.245,2.814-0.451,4.172-0.72
			c0.623-0.123,1.246-0.315,1.828-0.572c2.637-1.164,5.285-2.311,7.881-3.568c1.934-0.938,3.639-2.245,5.117-3.818
			c1.754-1.861,1.867-3.393,0.455-5.445c-0.48-0.698-0.914-1.427-1.406-2.117c-1.732-2.441-3.41-4.924-5.238-7.289
			c-1.348-1.743-3.166-2.487-5.391-1.74c-0.807,0.27-1.619,0.515-2.414,0.813c-1.398,0.526-2.779,1.1-4.178,1.626
			c-2.25,0.849-4.389,0.568-6.453-0.632c-1.383-0.805-2.756-1.654-4.215-2.307c-2.031-0.908-4.312-1.207-6.205-2.481
			c-0.164-0.11-0.412-0.102-0.623-0.129c-3.065-0.4-5.973-0.036-8.594,1.748c-1.42,0.969-2.758,2.036-3.732,3.479
			c-1.074,1.599-2.443,2.99-3.5,4.567c-1.109,1.658-1.738,3.644-2.529,5.506c-0.416,0.978-0.797,1.979-1.074,3.002
			c-0.479,1.748-0.879,3.518-1.275,5.286c-0.818,3.644-1.541,7.308-2.729,10.862c-1.561,4.665-4.416,8.206-8.756,10.568
			c-0.83,0.452-1.529,1.151-2.268,1.764c-1.889,1.569-3.768,3.154-5.65,4.732c-0.162,0.138-0.334,0.267-0.496,0.407
			c-1.709,1.487-2.232,3.345-1.629,5.5c1.088,3.88,3.23,7.224,5.654,10.354c0.947,1.221,2.354,2.201,3.889,2.7
			c1.305,0.424,2.477-0.431,3.693-0.777c0.408-0.116,0.791-0.326,1.172-0.519c4.305-2.174,8.406-4.659,12.189-7.669
			c2.418-1.924,4.721-4.003,7.504-5.45c1.018-0.529,1.883-1.399,2.721-2.215c1.453-1.419,2.816-2.93,4.243-4.377
			c0.77-0.779,0.99-0.781,1.922-0.163c8.059,5.345,14.658,12.093,19.566,20.441c0.684,1.162,1.498,2.048,2.699,2.619
			c0.633,0.301,1.227,0.317,1.807-0.103c1.559-1.126,3.18-2.18,4.662-3.398c2.148-1.768,4.113-3.721,5.641-6.092
			c1.004-1.559,0.883-3.002-0.041-4.495C95.77,93.814,93.695,90.579,91.746,87.269z M89.094,98.723
			c-0.486,0.42-0.912,0.906-1.398,1.324c-0.35,0.303-0.779,0.412-1.107-0.023c-2.586-3.422-5.471-6.571-8.555-9.545
			c-0.459-0.441-0.871-0.953-1.205-1.494c-1.547-2.499-3.652-4.463-5.955-6.225c-0.844-0.645-1.758-1.231-2.719-1.68
			c-1.252-0.584-2.529-1.094-3.738-1.785c-1.658-0.949-3.33-1.032-5.202-0.244c-2.633,1.109-4.793,2.578-6.305,5.088
			c-1.898,3.15-4.654,5.593-7.412,7.96c-4.219,3.624-8.629,7.015-13.523,9.715c-0.188,0.104-0.365,0.225-0.555,0.325
			c-0.547,0.291-1.113,0.235-1.432-0.204c-0.566-0.776-1.102-1.576-1.627-2.382c-0.34-0.521-0.258-0.74,0.273-0.938
			c0.697-0.257,1.422-0.459,2.086-0.787c0.908-0.449,1.033-1.192,0.445-2.108c-0.764-1.19-0.746-1.169,0.258-1.933
			c0.721-0.547,1.4-0.867,2.35-0.494c0.572,0.225,1.262,0.206,1.898,0.198c1.621-0.019,2.201-0.729,2.064-2.442
			c-0.018-0.211-0.105-0.424-0.084-0.629c0.033-0.326,0.113-0.587,0.592-0.469c2.316,0.573,3.562-0.939,4.693-2.544
			c0.18-0.257,0.121-0.918-0.092-1.175c-0.734-0.888-0.461-1.483,0.305-2.153c1.549-1.354,2.676-3.046,3.629-4.853
			c0.377-0.718,0.896-1.158,1.754-1.172c0.879-0.014,1.668-0.301,2.361-0.869c1.031-0.845,1.029-2.176-0.035-3.005
			c-0.084-0.065-0.182-0.112-0.266-0.178c-0.467-0.356-1.408-0.3-1.291-1.163c0.146-1.062,1.057-1.139,1.932-1.31
			c1.145-0.224,2.293-0.526,3.373-0.957c1.209-0.481,1.77-1.691,1.521-2.873c-0.244-1.159-1.223-1.944-2.557-1.996
			c-0.603-0.024-1.208,0.02-1.812,0.038c-0.016,0.024-0.03,0.051-0.047,0.074c-0.033,0-0.067-0.004-0.101-0.007
			c-0.095,0.151-0.176,0.331-0.313,0.393c-0.141,0.066-0.359-0.034-0.547-0.062c0.113-0.112,0.213-0.283,0.348-0.321
			c0.16-0.045,0.338-0.021,0.512-0.01c0.013-0.021,0.026-0.044,0.041-0.063c0.036-0.001,0.072-0.003,0.107-0.004
			c0.143-0.225,0.255-0.492,0.459-0.619c0.996-0.619,2.049-1.148,3.033-1.785c1.357-0.878,1.6-2.199,0.865-3.62
			c-0.32-0.621-1.529-0.875-1.037-1.72c0.332-0.568,1.201-0.818,1.824-1.221c0.535-0.348,1.123-0.645,1.576-1.081
			c1.193-1.153,0.619-3.102-1.004-3.507c-0.309-0.075-0.637-0.068-0.955-0.094c-0.412-0.033-0.979-0.005-0.857-0.593
			c0.07-0.334,0.488-0.729,0.834-0.852c2.502-0.889,5.022-1.733,7.549-2.54c0.363-0.115,0.857-0.062,1.215,0.092
			c1.77,0.754,3.605,1.408,5.24,2.395c3.047,1.841,6.234,1.981,9.59,1.344c2.018-0.383,3.893-1.137,5.732-2.004
			c0.555-0.26,1.047-0.193,1.412,0.305c1.193,1.627,2.371,3.267,3.555,4.9c-1.307,1.724-3.432,2.05-5.191,2.989
			c-1.125,0.601-2.344,1.036-3.551,1.461c-1.777,0.626-3.568,0.593-5.322-0.129c-1.086-0.446-2.146-0.957-3.232-1.405
			c-0.889-0.364-1.781-0.73-2.699-1.003c-0.947-0.28-1.895-0.185-2.82,0.214c-1.379,0.598-2.205,1.832-1.846,3.318
			c0.334,1.403,0.318,2.787,0.045,4.133c-0.416,2.058,0.145,4.033,0.264,6.043c0.027,0.471,0.395,1.012,0.762,1.354
			c0.777,0.725,1.613,1.403,2.502,1.989c4.396,2.902,8.314,6.345,11.93,10.173c3.436,3.638,5.861,7.873,7.832,12.412
			C89.789,97.438,89.775,98.134,89.094,98.723z M60.564,35.692c3.27,2.304,7.037,3.305,10.941,2.848
			c4.871-0.569,8.854-2.936,11.674-7.102c4.424-6.538,2.975-15.165-3.648-19.845c-2.998-2.119-6.301-3.075-10.705-2.975
			c0.125,0-0.516-0.005-1.158,0c-5.014,0.035-9.356,3.937-10.292,7.783c-0.275,1.135-0.768,2.219-1.168,3.323
			c-0.9,2.483-0.939,5.063-0.541,7.605C56.199,30.714,57.697,33.671,60.564,35.692z M69.645,18.448
			c0.717-0.437,1.445-0.862,2.203-1.218c0.254-0.119,0.633-0.089,0.916-0.005c2.611,0.772,4.619,3.357,4.59,6.068
			c0.014,1.233-0.361,2.576-1.303,3.644c-0.834,0.948-1.826,1.762-2.797,2.578c-0.152,0.13-0.74,0.064-0.805-0.069
			c-0.498-1.006-1.199-1.676-2.338-1.916c-0.387-0.082-0.168-0.496-0.098-0.798c0.117-0.503,0.422-1.209,0.203-1.501
			c-0.926-1.246-0.131-1.88,0.662-2.662c1.645-1.627,1.354-2.545-0.936-3.144c-0.258-0.068-0.678,0.04-0.602-0.438
			C69.369,18.792,69.486,18.543,69.645,18.448z"/>
	</g>
</g>
</svg>
