<?xml version="1.0" encoding="utf-8"?>
<!-- Generator: Adobe Illustrator 16.0.0, SVG Export Plug-In . SVG Version: 6.00 Build 0)  -->
<!DOCTYPE svg PUBLIC "-//W3C//DTD SVG 1.1//EN" "http://www.w3.org/Graphics/SVG/1.1/DTD/svg11.dtd">
<svg version="1.1" id="Layer_1" xmlns="http://www.w3.org/2000/svg" xmlns:xlink="http://www.w3.org/1999/xlink" x="0px" y="0px"
	 width="120px" height="120px" viewBox="0 0 120 120" style="enable-background:new 0 0 120 120;" xml:space="preserve">
<g id="icq">
	<g>
		<path style="fill-rule:evenodd;clip-rule:evenodd;" d="M109.729,65.71c-1.942-1.674-3.775-3.496-6.269-4.377
			c-0.099-0.035-0.18-0.111-0.274-0.164c-0.461-0.258-0.533-0.732-0.134-0.986c0.538-0.344,1.096-0.666,1.643-0.998
			c2.865-1.74,5.34-3.891,7.296-6.648c2.058-2.895,3.124-6.021,2.919-9.605c-0.199-3.443-1.614-6.123-4.452-8.102
			c-1.516-1.059-3.204-1.703-4.913-2.316c-4.728-1.697-9.551-2.32-14.474-0.988c-1.534,0.414-2.989,1.121-4.493,1.662
			c-0.112,0.041-0.474-0.244-0.459-0.285c0.559-1.602,1.205-3.172,1.718-4.787c1.1-3.441,0.979-6.994,0.536-10.496
			c-0.306-2.422-0.96-4.822-2.145-7.016c-1.713-3.164-4.229-5.041-7.967-4.959c-1.283,0.025-2.579-0.059-3.85,0.074
			c-4.271,0.441-8.072,1.824-10.987,5.238c-1.931,2.266-3.221,4.762-3.758,7.668c-0.077,0.42-0.113,0.85-0.234,1.254
			c-0.046,0.156-0.275,0.346-0.431,0.354c-0.158,0.01-0.415-0.145-0.481-0.291c-0.618-1.359-1.122-2.775-1.813-4.092
			c-1.246-2.373-3.322-3.578-5.959-3.746c-1.6-0.102-3.21-0.051-4.812-0.059c-2.073-0.01-4.016,0.572-5.883,1.395
			c-4.049,1.781-5.959,4.996-6.116,9.334c-0.034,0.963,0.009,1.928-0.001,2.891c-0.032,2.977,0.944,5.664,2.36,8.219
			c0.62,1.113,1.291,2.199,1.926,3.303c0.016,0.031-0.173,0.236-0.194,0.225c-1.125-0.609-2.24-1.24-3.361-1.857
			c-0.375-0.205-0.763-0.395-1.146-0.58c-7.198-3.469-14.338-3.152-21.165,0.816c-4.846,2.818-7.668,7.059-7.218,12.971
			c0.312,4.133,2.093,7.369,5.833,9.336c1.223,0.645,2.517,1.178,3.818,1.639c1.306,0.459,2.669,0.75,3.996,1.15
			c0.244,0.074,0.489,0.273,0.637,0.482c0.054,0.072-0.14,0.402-0.292,0.525c-0.996,0.807-2.017,1.588-3.021,2.385
			c-2.271,1.793-3.694,4.137-4.353,6.93c-0.342,1.451-0.644,2.93-0.76,4.412c-0.089,1.15-0.041,2.373,0.257,3.482
			c1.036,3.9,3.775,6.391,7.293,8.018c1.834,0.848,3.854,1.268,5.913,1.285c2.241,0.02,4.488,0.16,6.687-0.49
			c0.446-0.131,0.876,0.348,0.713,0.736c-0.334,0.787-0.805,1.537-1.004,2.355c-1.246,5.107-0.588,9.973,2.07,14.527
			c4.334,7.422,14.492,8.598,19.861,4.471c0.253-0.195,0.552-0.328,0.809-0.521c0.768-0.582,1.522-1.113,2.533-1.287
			c1.096-0.191,1.897-0.951,2.535-1.844c0.369-0.523,0.712-1.068,1.023-1.629c0.257-0.465,0.435-0.973,0.668-1.453
			c0.52-1.072,0.813-1.139,1.404-0.215c1.744,2.73,4.158,4.613,7.258,5.469c3.376,0.932,6.758,1.018,9.953-0.764
			c1.908-1.061,3.471-2.494,4.556-4.402c1.687-2.957,2.47-6.07,1.903-9.512c-0.299-1.828-0.941-3.494-1.721-5.139
			c-0.415-0.869-0.853-1.727-1.25-2.602c-0.062-0.141-0.033-0.455,0.059-0.508c0.146-0.086,0.408-0.084,0.574-0.01
			c1.271,0.561,2.555,1.1,3.789,1.734c3.288,1.695,6.725,2.73,10.476,2.652c1.699-0.16,3.448-0.115,5.088-0.518
			c9.824-2.402,12.556-12.951,9.843-20.113C111.744,67.915,110.898,66.712,109.729,65.71z M18.524,78.06
			c-0.017,0.449,0.263,1.199-0.442,1.215c-0.371,0.008-0.823-0.578-1.113-0.984c-0.229-0.322-0.354-0.775-0.379-1.18
			c-0.144-2.238,0.117-4.42,1.144-6.451c0.104-0.203,0.411-0.305,0.624-0.451c0.071,0.189,0.207,0.381,0.209,0.572
			c0.02,1.371,0.009,2.744,0.009,4.113h-0.037C18.538,75.948,18.566,77.005,18.524,78.06z M86.351,39.263
			c1.928-0.701,3.865-1.107,5.961-0.961c1.58,0.111,3.188-0.197,4.783-0.279c1.815-0.092,3.642-0.287,5.443-0.172
			c2.347,0.15,4.194,1.488,5.81,3.1c0.349,0.352,0.573,0.93,0.651,1.434c0.233,1.496,0.187,2.977-0.501,4.391
			c-1.683,3.463-4.093,6.172-7.742,7.626c0.009,0.035,0.009,0.066,0.021,0.102c-0.056,0.006-0.113,0.008-0.169,0.014
			c-0.071,0.07-0.143,0.14-0.217,0.21c0.036-0.064,0.054-0.16,0.106-0.186c0.033-0.016,0.071-0.021,0.11-0.025
			c0.031-0.031,0.063-0.062,0.095-0.092c0.019-0.007,0.034-0.017,0.053-0.024c-0.211-0.823,0.538-1.25,0.818-1.875
			c0.061-0.137,0.02-0.422-0.084-0.506c-0.14-0.113-0.424-0.193-0.574-0.125c-2.631,1.186-5.254,2.385-7.87,3.604
			c-0.735,0.344-1.363,0.387-2.073-0.148c-0.894-0.672-1.828-0.412-2.665,0.213c-1.112,0.832-2.2,1.697-3.312,2.531
			c-0.397,0.301-0.762,0.104-0.871-0.453c-0.02-0.104,0.018-0.217-0.004-0.32c-0.332-1.697-1.291-2.09-2.658-1.057
			c-0.596,0.449-1.129,0.982-1.681,1.486c-1.952,1.775-4.383,2.596-6.807,3.428c-0.087,0.031-0.367-0.201-0.384-0.332
			c-0.05-0.422-0.049-0.854-0.013-1.279c0.266-3.16-0.605-5.914-2.849-8.209c-0.397-0.41-0.323-0.695,0.299-0.889
			c1.859-0.578,3.117-1.797,4.004-3.482c0.249-0.471,0.613-0.877,0.889-1.338c1.316-2.215,3.18-3.654,5.691-4.367
			C82.561,40.731,84.445,39.956,86.351,39.263z M60.505,27.595c0.944-2.484,1.92-4.959,2.905-7.428
			c0.842-2.109,2.144-3.914,3.606-5.643c2-2.367,4.658-3.307,7.583-3.682c1.053-0.135,2.137-0.059,3.204-0.053
			c1.691,0.012,2.841,0.93,3.499,2.387c0.482,1.061,0.838,2.203,1.08,3.346c1.391,6.539,0.553,12.545-4.392,17.502
			c-1.585,1.592-3.188,3.166-4.788,4.74c-1.764,1.736-3.264,3.678-4.479,5.828c-0.414,0.732-0.562,1.615-0.98,2.34
			c-0.441,0.764,0.264,1.654-0.39,2.34c-0.798-0.287-1.589-0.605-2.4-0.85c-0.816-0.246-1.655-0.404-2.476-0.631
			c-0.729-0.201-1.054-0.613-1.062-1.393c-0.021-1.604-0.006-3.207-0.006-4.291c0.068-4.801-0.35-9.043-1.003-13.27
			C60.345,28.437,60.365,27.972,60.505,27.595z M41.791,19.118c0.146-0.447,0.616-0.996,1.045-1.115
			c2.375-0.666,4.776-1.006,7.239-0.297c0.912,0.262,1.485,0.734,1.861,1.566c0.93,2.053,1.521,4.213,1.903,6.414
			c1.32,7.631,1.352,6.785,1.368,14.592c0,2.133,0.008,4.266-0.008,6.398c-0.001,0.309-0.071,0.633-0.19,0.914
			c-0.063,0.146-0.31,0.305-0.465,0.297c-0.165-0.006-0.445-0.189-0.459-0.318c-0.146-1.344-0.948-2.314-1.717-3.346
			c-2.169-2.904-4.287-5.842-6.375-8.801c-1.603-2.27-2.834-4.752-3.992-7.275C40.624,25.151,40.808,22.14,41.791,19.118z
			 M25.55,67.849c-0.618,3.064-0.516,6.168-0.559,9.264c-0.005,0.512-0.17,1.023-0.312,1.518c-0.02,0.066-0.464,0.119-0.512,0.047
			c-0.222-0.342-0.515-0.725-0.525-1.102c-0.052-1.922-0.025-3.846-0.025-5.771h-0.104c0-1.924,0.005-3.85-0.003-5.773
			c-0.005-1.043,1.315-1.74,2.308-1.785c0.107-0.006,0.35,0.33,0.325,0.477C25.976,65.769,25.762,66.81,25.55,67.849z
			 M33.119,63.673c-0.938,3.527-1.153,7.129-1.11,10.752c0.025,2.01-0.276,4.035,0.257,6.031c0.042,0.162-0.337,0.588-0.569,0.633
			c-0.217,0.041-0.665-0.225-0.718-0.43c-0.183-0.713-0.309-1.459-0.326-2.197c-0.044-1.809-0.015-3.619-0.015-5.43
			c-0.129-2.975-0.144-5.941,0.334-8.898c0.195-1.203,0.31-1.408,1.445-1.293C32.909,62.89,33.232,63.245,33.119,63.673z
			 M34.595,55.347c-0.317-0.02-0.645-0.02-0.957,0.031c-3.509,0.551-7.044,0.385-10.566,0.316c-3.243-0.062-6.298-0.99-9.201-2.459
			c-2.129-1.076-3.045-2.748-3.188-5.125c-0.157-2.576,0.706-4.566,2.552-6.27c2.206-2.033,4.823-3.164,7.758-3.477
			c3.665-0.391,7.205-0.074,10.591,1.699c2.162,1.133,4.512,1.949,6.847,2.689c1.605,0.51,2.979,1.646,4.758,1.703
			c0.342,0.012,0.742,0.398,0.992,0.709c0.804,0.998,1.591,2.014,2.308,3.076c0.677,1.002,1.504,1.77,2.621,2.271
			c0.742,0.334,0.699,0.395,0.191,1.121c-0.487,0.699-1.146,1.354-1.382,2.133c-0.543,1.807-1.714,2.205-3.401,2.027
			c-1.058-0.113-2.137-0.023-3.591-0.023C39.067,55.646,36.832,55.491,34.595,55.347z M45.523,61.679
			c-0.834,2.039-0.471,4.168-0.65,6.254c-0.053,0.625-0.1,1.264-0.27,1.863c-0.065,0.232-0.451,0.387-0.716,0.533
			c-0.025,0.016-0.264-0.26-0.323-0.43c-0.07-0.191-0.06-0.416-0.074-0.627c-0.128-1.791-0.254-3.58-0.383-5.371
			c-0.024,0-0.05,0.002-0.072,0.004c-0.03-0.422-0.111-0.85-0.078-1.266c0.047-0.6-0.766-1.184-0.172-1.703
			c0.353-0.309,0.98-0.318,1.493-0.424C45.196,60.325,45.854,60.874,45.523,61.679z M37.124,77.403
			c-0.122-0.129-0.354-0.258-0.38-0.418c-0.082-0.521-0.107-1.053-0.117-1.58c-0.056-2.871-0.085-5.74-0.155-8.611
			c-0.025-1.059-0.089-2.123-0.239-3.17c-0.075-0.518,0.071-0.807,0.501-0.975c1.083-0.426,2.19-0.791,3.116-1.533
			c0.049-0.041,0.188-0.02,0.247,0.023c0.085,0.057,0.194,0.17,0.186,0.246c-0.023,0.209-0.091,0.414-0.158,0.615
			c-0.883,2.637-1.066,5.402-1.487,8.121c-0.233,1.488-0.051,3,0.541,4.381c0.368,0.865,0.151,1.398-0.486,1.912
			c-0.413,0.332-0.822,0.664-1.246,0.979C37.383,77.444,37.249,77.403,37.124,77.403z M57.045,90.108
			c0,1.604,0.009,3.207-0.004,4.811c-0.013,1.441-0.554,2.73-1.359,3.879c-0.416,0.59-0.971,1.166-1.596,1.514
			c-1.68,0.932-3.396,1.818-5.162,2.57c-1.576,0.67-3.228,0.934-4.988,0.549c-1.556-0.342-2.754-1.115-3.739-2.291
			c-1.488-1.777-2.243-3.83-2.385-6.16c-0.142-2.383,0.404-4.678,0.742-6.996c0.096-0.662,0.729-1.26,1.157-1.857
			c0.334-0.465,0.518-0.934,0.276-1.482c-0.321-0.736,0.058-1.174,0.573-1.637c1.747-1.574,3.562-3.086,5.165-4.797
			c1.971-2.102,3.753-4.381,5.622-6.578c0.676-0.793,1.897-0.615,2.375,0.338c0.094,0.188,0.177,0.389,0.231,0.59
			c0.841,3.088,1.666,6.18,2.515,9.264C57.216,84.546,57.129,87.329,57.045,90.108z M63.241,59.739
			c-0.796-0.383-1.434-0.055-1.996,0.516c-0.15,0.152-0.279,0.342-0.457,0.441c-0.302,0.172-0.481,0.836-0.905,0.414
			c-0.146-0.146,0.112-0.762,0.27-1.127c0.372-0.879,0.859-1.719,1.168-2.617c0.111-0.324-0.055-0.838-0.26-1.16
			c-0.316-0.492-0.879-0.58-1.419-0.379c-0.39,0.148-0.743,0.395-1.11,0.604c-0.369,0.209-0.711,0.533-1.104,0.607
			c-0.374,0.068-0.838-0.041-1.174-0.229c-0.171-0.096-0.227-0.547-0.193-0.82c0.051-0.416,0.227-0.816,0.347-1.225
			c0.317-1.068,1.051-1.547,2.146-1.52c0.213,0.004,0.426,0,0.639,0c0.009-0.061,0.021-0.119,0.033-0.18
			c1.347,0.266,2.729,0.424,4.037,0.82c2.271,0.689,3.65,2.699,3.596,5.045c-0.018,0.74-0.103,1.486-0.22,2.221
			c-0.169,1.072-0.856,1.676-1.904,1.865c-0.146,0.025-0.451-0.088-0.464-0.17c-0.062-0.412-0.062-0.834-0.062-1.252
			C64.208,60.804,64.02,60.11,63.241,59.739z M79.678,98.854c-0.438,1-0.995,1.877-1.729,2.66c-1.463,1.568-2.717,2.137-4.793,2.178
			c-3.92,0.082-8.111-2.924-9.243-6.65c-0.088-0.285-0.06-0.615-0.04-0.922c0.012-0.209,0.084-0.418,0.159-0.617
			c1.487-3.885,1.492-7.939,1.237-11.99c-0.153-2.438-0.592-4.857-0.887-7.287c-0.113-0.949-0.221-1.904-0.263-2.859
			c-0.042-1.08,1.238-2.449,2.342-2.525c0.176-0.014,0.448,0.141,0.537,0.297c0.474,0.83,0.874,1.703,1.352,2.529
			c2.299,3.965,4.494,7.979,6.401,12.154c1.106,2.432,2.015,4.93,2.83,7.463c0.364,1.131,0.722,2.283,1.637,3.061
			C80.123,97.114,80.124,97.839,79.678,98.854z M105.204,78.177h-0.025c0,0.641-0.009,1.281,0.003,1.924
			c0.019,1.055-0.49,1.812-1.279,2.455c-0.949,0.771-2.092,1.195-3.228,1.326c-2.434,0.283-4.884,0.471-7.301-0.332
			c-3.137-1.041-6.383-1.793-9.296-3.426c-1.488-0.834-2.98-1.693-4.338-2.721c-1.095-0.826-2.212-1.777-2.923-2.922
			c-1.609-2.582-3.48-4.846-6.052-6.512c-0.701-0.453-0.708-0.854-0.274-1.613c0.212-0.371,0.426-0.74,0.646-1.105
			c0.529-0.885,0.516-0.836,1.732-0.406c1.918,0.68,3.904,1.055,5.945,1.082c2.672,0.037,5.346,0.104,8.019,0.082
			c1.745-0.014,3.378,0.346,4.987,0.994c1.876,0.76,3.773,1.486,5.696,2.119c1.536,0.506,3.016,1.109,4.341,2.021
			c0.784,0.539,1.527,1.178,2.159,1.887c0.795,0.893,1.275,1.961,1.195,3.221C105.17,76.89,105.204,77.534,105.204,78.177z"/>
	</g>
</g>
</svg>
