<?xml version="1.0" encoding="utf-8"?>
<!-- Generator: Adobe Illustrator 16.0.0, SVG Export Plug-In . SVG Version: 6.00 Build 0)  -->
<!DOCTYPE svg PUBLIC "-//W3C//DTD SVG 1.1//EN" "http://www.w3.org/Graphics/SVG/1.1/DTD/svg11.dtd">
<svg version="1.1" id="Layer_1" xmlns="http://www.w3.org/2000/svg" xmlns:xlink="http://www.w3.org/1999/xlink" x="0px" y="0px"
	 width="120px" height="120px" viewBox="0 0 120 120" style="enable-background:new 0 0 120 120;" xml:space="preserve">
<g id="viber">
	<g>
		<path style="fill-rule:evenodd;clip-rule:evenodd;" d="M104.16,86.46c-3.283-2.742-6.474-5.586-9.515-8.598
			c-3.288-3.258-7.163-5.74-11.022-8.232c-0.702-0.453-1.532-0.768-2.346-0.961c-0.463-0.107-1.19-0.014-1.492,0.293
			c-1.328,1.338-3.092,2.174-4.056,3.98c-0.683,1.281-1.922,2.271-2.918,3.387c-0.63,0.705-1.457,0.885-2.339,0.734
			c-0.622-0.105-1.253-0.27-1.823-0.527c-1.655-0.746-3.319-1.488-4.912-2.354c-1.497-0.814-2.993-1.676-4.345-2.705
			c-2.377-1.812-4.747-3.66-6.935-5.693c-3.396-3.158-6.206-6.725-7.446-11.371c-0.547-2.057-0.37-3.773,0.953-5.395
			c1.014-1.24,2.01-2.5,3.066-3.703c1.109-1.266,2.026-2.697,3.617-3.533c0.906-0.477,1.037-1.637,0.605-2.576
			c-0.179-0.387-0.381-0.77-0.623-1.119c-2.004-2.9-3.948-5.844-6.048-8.674c-3.589-4.836-7.923-8.963-12.637-12.688
			c-0.827-0.652-1.823-1.104-2.765-1.6c-0.895-0.469-1.896-0.541-2.812-0.217c-1.4,0.498-2.851,0.996-4.085,1.795
			c-3.891,2.514-7.123,5.766-9.928,9.441c-0.383,0.502-0.633,1.109-0.929,1.676c-1.12,2.143-1.05,4.549-1.5,6.84
			c-0.038,0.203-0.012,0.43,0.03,0.639c1.069,5.121,2.215,10.229,4.461,14.996c2.232,4.734,4.546,9.43,6.779,14.166
			c2.412,5.115,5.896,9.385,10.13,13.088c1.608,1.406,3.202,2.836,4.712,4.344c1.824,1.822,3.773,3.467,5.941,4.865
			c5.118,3.299,10.236,6.602,15.324,9.949c3.512,2.311,7.279,4.02,11.326,5.152c1.329,0.371,2.637,0.848,3.908,1.389
			c1.983,0.842,3.98,1.545,6.184,1.428c0.531-0.027,1.107-0.078,1.596,0.084c1.875,0.627,3.803,0.465,5.718,0.5
			c2.464,0.064,4.921,0.121,7.243-0.947c0.371-0.17,0.827-0.195,1.248-0.215c1.41-0.064,2.407-0.822,3.178-1.908
			c0.617-0.869,1.191-1.777,1.709-2.709c0.775-1.402,1.486-2.842,2.223-4.264c0.498-0.957,1.109-1.732,2.098-2.326
			c1.479-0.889,1.754-2.854,0.689-4.168C105.76,87.896,104.979,87.144,104.16,86.46z M97.211,91.335
			c-0.703,1.828-1.893,3.309-3.213,4.717c-0.689,0.73-1.528,1.191-2.456,1.441c-0.989,0.266-1.896,0.07-2.089-1.271
			c-0.103-0.717-0.407-1.441-0.774-2.074c-0.463-0.795-1.253-1.119-2.191-1.031c-0.638,0.061-1.334,0.555-1.396,1.135
			c-0.096,0.846-0.093,1.701-0.133,2.555c-0.021,0.482-0.276,0.789-0.729,0.914c-2.076,0.578-4.013,0.053-5.877-0.838
			c-0.221-0.104-0.373-0.51-0.423-0.801c-0.25-1.467-0.467-2.938-0.669-4.41c-0.125-0.904-0.593-1.594-1.277-2.148
			c-1.264-1.025-2.746-0.629-3.362,0.926c-0.191,0.484-0.279,1.021-0.346,1.543c-0.067,0.527-0.003,1.074-0.087,1.598
			c-0.047,0.299-0.27,0.521-0.682,0.389c-1.061-0.344-1.902-0.82-2.244-2.035c-0.404-1.436-1.046-2.801-1.508-4.223
			c-0.242-0.742-0.613-1.35-1.209-1.838c-0.529-0.438-1.227-0.535-1.787-0.229c-0.506,0.271-0.87,0.705-0.845,1.266
			c0.052,1.059,0.214,2.111,0.316,3.168c0.02,0.199,0.011,0.57-0.026,0.574c-0.275,0.041-0.572,0.055-0.84-0.016
			c-0.306-0.08-0.582-0.26-0.877-0.385c-0.737-0.314-1.088-0.787-1.237-1.66c-0.391-2.307-0.95-4.586-1.513-6.857
			c-0.182-0.732-0.619-1.352-1.47-1.535c-1.026-0.221-2.036,0.564-1.88,1.58c0.273,1.789,0.642,3.564,0.938,5.35
			c0.029,0.17-0.138,0.383-0.247,0.553c-0.021,0.035-0.195-0.004-0.29-0.035c-1.551-0.516-2.818-1.502-4.085-2.48
			c-0.084-0.064-0.059-0.408,0.034-0.537c0.183-0.252,0.437-0.461,0.68-0.666c0.644-0.535,0.924-1.275,0.674-2.012
			c-0.692-2.053-0.685-4.209-1.071-6.305c-0.169-0.914-0.607-1.574-1.377-2.053c-0.602-0.377-1.651-0.023-1.857,0.668
			c-0.119,0.402-0.215,0.83-0.211,1.246c0.02,1.816,0.078,3.633,0.126,5.451c0.015,0.52,0.262,1.24-0.267,1.441
			c-0.276,0.105-0.843-0.523-1.266-0.836c-0.831-0.617-1.064-1.402-1.11-2.477c-0.104-2.445-0.444-4.883-0.776-7.312
			c-0.082-0.604-0.44-1.201-0.786-1.729c-0.585-0.896-1.991-0.785-2.333,0.209c-0.271,0.789-0.374,1.646-0.477,2.484
			c-0.104,0.84-0.106,1.691-0.19,2.533c-0.004,0.055-0.368,0.172-0.468,0.107c-1.021-0.664-1.271-1.07-0.953-2.031
			c0.562-1.699,0.186-3.398,0.111-5.09c-0.062-1.381-0.297-2.76-0.549-4.123c-0.066-0.365-0.422-0.738-0.741-0.984
			c-0.816-0.635-2.022-0.115-2.202,0.949c-0.268,1.58-0.471,3.168-0.707,4.752c-0.032,0.209-0.047,0.441-0.154,0.609
			c-0.083,0.129-0.391,0.285-0.44,0.242c-0.563-0.477-1.134-0.957-1.621-1.51c-0.151-0.174-0.163-0.611-0.06-0.852
			c0.648-1.516,0.676-3.111,0.779-4.715c0.101-1.594,0.397-3.174,0.529-4.768c0.104-1.273,0.146-2.561,0.101-3.838
			c-0.022-0.668-0.472-1.184-1.167-1.365c-0.7-0.182-1.264,0.113-1.697,0.635c-1,1.207-1.239,2.699-1.461,4.176
			c-0.271,1.793-0.466,3.598-0.713,5.396c-0.027,0.193-0.201,0.531-0.29,0.525c-0.284-0.02-0.664-0.084-0.822-0.279
			c-0.8-0.998-1.56-2.029-2.3-3.074c-0.354-0.498-0.229-0.787,0.313-0.869c0.21-0.033,0.435,0.029,0.641-0.012
			c1.275-0.254,1.694-0.648,1.822-1.848c0.183-1.699,0.395-3.402,0.444-5.107c0.112-3.85,0.412-7.674,1.266-11.439
			c0.022-0.102,0.047-0.23,0.006-0.314c-0.134-0.279-0.238-0.637-0.469-0.785c-0.214-0.135-0.622-0.137-0.857-0.021
			c-0.37,0.182-0.716,0.469-0.984,0.787c-0.906,1.074-1.544,2.303-1.965,3.645c-0.967,3.086-1.43,6.24-1.316,8.902
			c0,1.107,0.045,1.648-0.012,2.176c-0.082,0.785,0.324,1.639-0.318,2.346c-0.478-0.689-1.028-1.338-1.415-2.072
			c-0.996-1.893-1.919-3.82-2.868-5.734c-0.224-0.449-0.205-0.84,0.394-0.912c1.291-0.16,1.761-1.082,2.044-2.166
			c0.107-0.41,0.156-0.846,0.163-1.27c0.059-2.914,0.849-5.689,1.517-8.494c0.271-1.133,0.445-2.297,0.563-3.455
			c0.041-0.385-0.181-0.824-0.367-1.195c-0.261-0.527-1.272-0.701-1.677-0.309c-0.307,0.293-0.67,0.58-0.845,0.949
			c-0.593,1.248-1.236,2.494-1.637,3.809c-0.685,2.242-1.298,4.516-1.384,6.889c-0.01,0.312-0.076,0.639-0.196,0.926
			c-0.063,0.156-0.291,0.336-0.449,0.34c-0.166,0.004-0.413-0.15-0.491-0.305c-0.387-0.76-0.722-1.549-1.088-2.322
			c-0.307-0.639-0.278-1.23,0.186-1.787c0.497-0.596,0.677-1.295,0.793-2.057c0.418-2.76,1.158-5.42,2.453-7.916
			c0.383-0.74,0.919-1.498,0.581-2.416c-0.37-1.008-1.175-1.473-2.188-1.648c-0.099-0.016-0.245-0.074-0.264-0.143
			c-0.047-0.172-0.114-0.436-0.027-0.529c0.87-0.936,1.729-1.895,2.678-2.748c0.948-0.855,2.001-1.596,3.008-2.389
			c0.168-0.131,0.322-0.289,0.507-0.391c3-1.621,3.541-1.695,5.96,0.406c5.701,4.955,10.209,10.9,14.382,17.133
			c0.357,0.531,0.669,1.094,1.003,1.643c0.329,0.545,0.178,1.014-0.237,1.432c-0.982,0.984-1.971,1.961-2.954,2.945
			c-0.532,0.529-1.07,1.051-1.582,1.594c-1.908,2.023-3.173,4.303-2.852,7.209c0.023,0.211,0.016,0.43-0.004,0.641
			c-0.388,4.197,1.307,7.709,3.633,11.008c2.496,3.535,5.723,6.332,9.085,8.996c1.089,0.861,2.097,1.832,3.224,2.639
			c1.562,1.113,3.158,2.191,4.816,3.152c1.846,1.066,3.861,1.789,5.721,2.869c1.993,1.16,4.301,1.215,6.559,0.986
			c1.193-0.121,2.182-0.797,3.096-1.58c1.971-1.691,3.41-3.818,4.905-5.904c0.187-0.258,0.29-0.572,0.466-0.84
			c0.463-0.709,0.958-0.814,1.562-0.275c3.183,2.855,6.372,5.703,9.518,8.598c1.337,1.232,2.599,2.547,3.849,3.867
			c0.646,0.684,1.889,1.055,1.885,2.025C98.26,89.581,97.551,90.444,97.211,91.335z M59.018,19.241
			c2.183,0.475,4.395,0.775,6.533,1.502c4.049,1.373,8.006,2.963,11.886,4.742c5.499,2.52,10.374,5.93,14.417,10.471
			c2.429,2.73,4.425,5.736,5.869,9.109c1.691,3.951,2.598,8.117,3.381,12.311c0.49,2.619,0.812,5.266,1.291,7.887
			c0.188,1.037,0.521,2.064,0.92,3.043c0.307,0.752,1.031,1.033,1.843,1.041c0.821,0.01,1.459-0.359,1.889-1.018
			c0.653-0.996,0.974-2.098,1.05-3.309c0.111-1.732-0.313-3.391-0.514-5.082c-0.588-4.994-1.643-9.881-3.294-14.635
			c-2.677-7.717-7.47-13.855-14-18.67c-6.521-4.811-13.78-8.111-21.559-10.289c-1.738-0.486-3.485-1.049-5.298-0.861
			c-1.456-0.107-2.832,0.088-4.11,0.682c-0.448,0.211-0.854,0.643-1.132,1.07C57.683,18.011,58.131,19.048,59.018,19.241z
			 M88.961,62.028c0.313,2.402,2.977,3.383,4.843,1.854c0.383-0.314,0.716-0.834,0.819-1.312c0.178-0.826,0.155-1.693,0.21-2.426
			c-0.085-1.189-0.073-2.271-0.262-3.316c-0.261-1.465-0.626-2.916-1.022-4.352c-1.504-5.441-4.225-10.246-7.771-14.594
			c-2.75-3.371-6.099-6.008-10.2-7.52c-2.596-0.955-5.283-1.664-7.941-2.449c-1.568-0.461-3.184-0.369-4.771-0.137
			c-0.721,0.107-1.431,0.424-2.089,0.758c-0.724,0.363-1.1,1.098-1.074,1.852c0.026,0.793,0.608,1.375,1.365,1.615
			c0.914,0.287,1.86,0.467,2.797,0.686c3.859,0.896,7.563,2.24,11.127,3.965c1.937,0.938,3.688,2.176,5.08,3.838
			c3.547,4.227,6.136,8.969,7.581,14.311C88.295,57.173,88.645,59.593,88.961,62.028z M67.83,37.901
			c-0.673,0.121-1.414,0.207-2.131,0.393c-1.125,0.291-1.8,1.088-2.197,2.15c-0.257,0.68-0.1,1.293,0.405,1.75
			c0.38,0.344,0.853,0.648,1.337,0.795c0.81,0.248,1.663,0.361,2.5,0.525c3.742,0.738,6.014,3.033,7.004,6.654
			c0.28,1.025,0.422,2.092,0.705,3.117c0.405,1.479,1.645,2.207,3.204,1.965c1.305-0.201,2.562-1.65,2.33-3.004
			c-0.595-3.49-1.449-6.912-3.853-9.686C74.7,39.755,71.504,38.454,67.83,37.901z"/>
	</g>
</g>
</svg>
