<?xml version="1.0" encoding="utf-8"?>
<!-- Generator: Adobe Illustrator 16.0.0, SVG Export Plug-In . SVG Version: 6.00 Build 0)  -->
<!DOCTYPE svg PUBLIC "-//W3C//DTD SVG 1.1//EN" "http://www.w3.org/Graphics/SVG/1.1/DTD/svg11.dtd">
<svg version="1.1" id="Layer_1" xmlns="http://www.w3.org/2000/svg" xmlns:xlink="http://www.w3.org/1999/xlink" x="0px" y="0px"
	 width="120px" height="120px" viewBox="0 0 120 120" style="enable-background:new 0 0 120 120;" xml:space="preserve">
<g id="whatsapp">
	<g>
		<path style="fill-rule:evenodd;clip-rule:evenodd;" d="M108.521,64.367c-0.127-2.881-0.301-5.76-0.527-8.633
			c-0.234-2.98-0.588-5.963-1.393-8.838c-0.689-2.457-1.621-4.857-2.598-7.223c-1.223-2.975-2.732-5.792-5.055-8.111
			c-0.664-0.666-1.172-1.514-1.67-2.328c-1.965-3.217-4.283-6.124-7.291-8.432c-2.727-2.092-5.801-3.611-8.842-5.16
			c-0.92-0.469-2.051-0.533-3.09-0.756c-2.084-0.449-4.223-0.717-6.242-1.357c-2.992-0.947-6-1.507-8.623-1.314
			c-2.971,0.006-5.418,0.028-7.822,0.693c-2.26,0.627-4.541,1.182-6.826,1.703c-4.873,1.113-9.219,3.303-13.217,6.262
			c-1.111,0.822-2.309,1.537-3.506,2.233c-1.576,0.917-3.043,1.96-4.406,3.181c-4.27,3.83-7.695,8.32-10.336,13.383
			c-1.74,3.332-3.055,6.828-2.652,10.73c0.088,0.844,0.02,1.713-0.053,2.562c-0.238,2.805,0.172,5.579,0.764,8.273
			c1.354,6.164,3.303,12.15,6.359,17.717c0.4,0.729,0.418,1.329,0.121,2.104c-2.111,5.494-4.727,10.75-7.523,15.913
			c-1.184,2.185-2.074,4.439-2.602,6.856c-0.385,1.771,0.531,3.252,2.326,3.449c1.158,0.128,2.389,0.186,3.51-0.07
			c3.115-0.709,6.311-1.113,9.324-2.232c3.701-1.373,7.387-2.793,11.057-4.248c0.775-0.307,1.369-0.307,2.072,0.168
			c3.389,2.297,7.283,3.537,10.996,5.162c0.678,0.296,1.434,0.404,2.143,0.637c1.643,0.539,3.361,0.549,5.051,0.789
			c7.469,1.066,14.422-0.373,20.959-4.09c1.664-0.945,3.404-1.789,5.176-2.516c4.318-1.766,8.184-4.153,11.258-7.718
			c0.77-0.89,1.533-1.782,2.324-2.651c3.479-3.824,6.248-8.124,8.52-12.754c1.035-2.117,2.01-4.258,1.803-6.719
			c-0.025-0.312,0.006-0.658,0.117-0.951C108.82,68.214,108.605,66.279,108.521,64.367z M101.414,64.529
			c-0.697,2.793-1.393,5.588-2.076,8.385c-1.031,4.221-3.107,7.982-5.555,11.472c-1.83,2.61-4.242,4.848-6.916,6.632
			c-2.926,1.953-6.014,3.673-9.066,5.43c-1.949,1.123-4.021,1.916-6.289,2.254c-2.105,0.312-4.164,0.92-6.26,1.304
			c-1.148,0.21-2.332,0.231-2.973,0.29c-4.732-0.252-8.811-0.894-12.504-3.097c-2.568-1.532-5.176-3.001-7.746-4.526
			c-0.883-0.525-1.666-0.732-2.672-0.173c-1.678,0.933-3.486,1.63-5.168,2.558c-3.957,2.185-8.229,3.537-12.49,4.929
			c-0.25,0.082-0.705,0.034-0.83-0.131c-0.133-0.175-0.07-0.606,0.053-0.849c1.266-2.475,2.52-4.955,3.855-7.391
			c1.717-3.131,2.346-6.632,3.5-9.953c0.26-0.753-0.008-1.447-0.443-2.113c-1.941-2.957-3.42-6.156-4.857-9.379
			c-1.27-2.848-2.033-5.803-2.447-8.908c-0.369-2.773-0.41-5.533-0.434-8.311c-0.037-4.057,1.139-7.783,3.066-11.303
			c1.861-3.398,4.23-6.418,6.971-9.152c2.496-2.49,4.961-5.006,7.857-7.068c1.33-0.945,2.707-1.715,4.234-2.213
			c3.857-1.254,7.797-2.201,11.752-3.098c0.619-0.141,1.27-0.158,1.908-0.21c2.768-0.224,5.547-0.351,8.299-0.696
			c1.404-0.177,2.752-0.105,4.113,0.129c5.887,1.014,11.293,3.304,16.143,6.703c4.68,3.279,8.654,7.383,11.318,12.488
			c1.928,3.689,3.211,7.676,3.986,11.792c0.594,3.144,1.191,6.284,1.764,9.431C101.797,61.346,101.811,62.941,101.414,64.529z
			 M85.408,69.664c-2.531-1.598-5.115-3.119-7.953-4.141c-0.602-0.217-1.189-0.487-1.807-0.641
			c-0.873-0.217-1.725-0.093-2.395,0.561c-0.607,0.594-1.229,1.197-1.717,1.887c-0.676,0.959-1.229,2.004-1.836,3.012
			c-0.461,0.764-0.701,0.865-1.506,0.316c-2.119-1.443-4.227-2.908-6.289-4.432c-3.734-2.756-6.832-6.146-9.627-9.828
			c-0.783-1.031-0.82-1.598,0.014-2.586c1.252-1.486,2.27-3.082,3.066-4.863c0.432-0.959,0.527-1.719,0.064-2.701
			c-1.783-3.799-4.32-7.127-6.516-10.669c-0.111-0.18-0.266-0.336-0.412-0.491c-0.77-0.822-1.498-0.957-2.586-0.375
			c-5.842,3.127-9.1,7.895-9.309,14.822c0.117,1.199-0.018,2.676,0.436,3.943c1.701,4.746,3.768,9.318,7.48,12.931
			c0.916,0.89,1.662,1.954,2.512,2.917c3.676,4.176,7.285,8.408,12.441,10.928c3.252,1.588,6.301,3.672,10.162,3.5
			c0.514-0.022,1.037,0.312,1.561,0.321c1.6,0.026,3.277,0.274,4.779-0.119c2.043-0.536,4.068-1.388,5.891-2.466
			c2.512-1.484,4.57-3.504,5.418-6.479C87.854,73.01,87.176,70.778,85.408,69.664z M49.709,48.274c0.02-0.097,0.1-0.183,0.154-0.274
			c0.092,0.119,0.238,0.227,0.268,0.359c0.07,0.308,0.082,0.627,0.111,0.913c-0.102,0.216-0.189,0.399-0.273,0.584
			c-0.139-0.214-0.365-0.417-0.393-0.645C49.537,48.908,49.646,48.585,49.709,48.274z M44.082,49.678
			c-0.074-0.736-0.148-1.471-0.172-1.715c0.186-2.831,0.299-5.17,0.529-7.496c0.057-0.582,0.447-1.168,0.801-1.67
			c0.207-0.293,0.625-0.498,0.988-0.6c0.287-0.081,0.848,0.934,0.695,1.307c-1.057,2.576-1.576,5.287-2.1,8.004
			C44.682,48.252,44.336,48.955,44.082,49.678z M46.543,54.238c-0.371,1.328-0.867,2.627-0.852,4.045
			c0.006,0.362-0.184,0.727-0.287,1.09c-0.072-0.414-0.174-0.824-0.211-1.24c-0.035-0.422-0.008-0.852-0.008-1.277
			c-0.053-1.164,0.062-2.258,0.455-3.416c0.502-1.48,0.406-3.152,0.697-4.719c0.389-2.084,0.896-4.148,1.373-6.217
			c0.027-0.117,0.334-0.293,0.369-0.266c0.156,0.125,0.328,0.301,0.369,0.486c0.092,0.398,0.201,0.828,0.135,1.217
			c-0.471,2.83-0.971,5.654-1.494,8.477C46.975,53.036,46.715,53.627,46.543,54.238z M49.668,64.72
			c-0.041,0.245-0.102,0.739-0.566,0.427c-0.244-0.164-0.586-0.551-0.531-0.732c0.617-2.09,0.32-4.244,0.523-6.359
			c0.016-0.178,0.17-0.34,0.26-0.51c0.246,0.184,0.607,0.318,0.717,0.562c0.211,0.475,0.279,1.014,0.412,1.547
			C50.215,61.35,49.961,63.037,49.668,64.72z M54.584,64.828c-0.203,1.793-0.336,3.045-0.49,4.293
			c-0.049,0.41-0.029,1.055-0.26,1.174c-0.529,0.273-0.908-0.268-1.256-0.627c-0.35-0.359-0.99-0.918-0.596-1.268
			c1.246-1.109,0.787-2.535,0.977-3.84c0.062-0.441,0.211-0.936,0.678-0.875c0.322,0.043,0.646,0.465,0.859,0.789
			C54.652,64.713,54.633,65.07,54.584,64.828z M57.932,70.666c-0.078,0.781-0.152,1.836-0.32,2.874
			c-0.025,0.159-0.514,0.385-0.727,0.333c-0.234-0.057-0.607-0.484-0.559-0.607c0.654-1.646,0.395-3.344,0.379-5.029
			c-0.002-0.312,0.02-0.636,0.111-0.93c0.043-0.144,0.277-0.32,0.424-0.318c0.176,0.002,0.469,0.154,0.5,0.287
			c0.111,0.496,0.156,1.01,0.186,1.521C57.953,69.326,57.932,69.857,57.932,70.666z M61.152,76.395
			c-0.17,0.031-0.426-0.061-0.547-0.191c-0.211-0.221-0.439-0.496-0.496-0.781c-0.389-1.976-0.344-3.969-0.145-5.963
			c0.008-0.092,0.125-0.254,0.17-0.248c0.193,0.03,0.406,0.07,0.559,0.182c0.424,0.308,0.84,0.641,0.754,1.264
			s-0.168,1.248-0.285,2.136c0.096,0.899,0.232,2.046,0.326,3.194C61.502,76.121,61.293,76.367,61.152,76.395z M69.5,78.437
			c-0.098,0.237-0.41,0.522-0.639,0.533c-0.254,0.013-0.646-0.2-0.758-0.423c-0.232-0.465-0.385-0.993-0.441-1.51
			c-0.068-0.629-0.053-1.278,0.037-1.904c0.02-0.154,0.516-0.398,0.715-0.34c0.52,0.152,0.955,0.506,1.035,1.098
			c0.068,0.527,0.068,1.064,0.074,1.16C69.523,77.807,69.609,78.162,69.5,78.437z M73.582,80.09
			c-0.594,0.287-1.373-0.041-1.559-0.631c-0.16-0.502-0.324-1.01-0.406-1.527c-0.1-0.623-0.117-1.26-0.168-1.889
			c-0.006-0.762,0.053-1.51,0.684-2.029c0.291-0.24,0.689-0.354,1.039-0.525c0.092,0.295,0.266,0.592,0.264,0.887
			c-0.016,1.593,0.098,3.16,0.623,4.682C74.221,79.523,73.99,79.891,73.582,80.09z M76.965,79.092
			c-0.086,0.152-0.355,0.271-0.541,0.271c-0.145,0-0.412-0.208-0.412-0.325c-0.006-2.576-0.328-5.098-1.152-7.553
			c-0.232-0.691,0.229-1.217,0.65-1.693c0.111-0.125,0.387-0.191,0.559-0.154c0.182,0.037,0.459,0.221,0.473,0.361
			c0.1,1.053,0.145,2.113,0.162,2.422c-0.084,2.461-0.143,4.166,0.488,5.812C77.279,78.463,77.109,78.838,76.965,79.092z
			 M82.582,73.846c-0.239,0.231-0.531,0.411-0.812,0.602c-0.003,0.051-0.004,0.102-0.007,0.152c-0.03-0.006-0.061-0.012-0.091-0.019
			c0.107,0.824-0.301,1.375-1.003,1.733c-0.133,0.066-0.443,0-0.539-0.115c-0.336-0.409-0.393-1.46-0.102-1.799
			c0.076-0.092,0.328-0.074,0.49-0.049c0.386,0.06,0.77,0.148,1.153,0.229c-0.004-0.023,0.003-0.043-0.001-0.067
			c0.032-0.022,0.065-0.044,0.099-0.066c0.015-0.352,0.021-0.704,0.075-1.049c0.025-0.148,0.213-0.393,0.303-0.382
			c0.17,0.019,0.383,0.157,0.463,0.307C82.686,73.459,82.68,73.752,82.582,73.846z"/>
	</g>
</g>
</svg>
