<?xml version="1.0" encoding="utf-8"?>
<!-- Generator: Adobe Illustrator 16.0.0, SVG Export Plug-In . SVG Version: 6.00 Build 0)  -->
<!DOCTYPE svg PUBLIC "-//W3C//DTD SVG 1.1//EN" "http://www.w3.org/Graphics/SVG/1.1/DTD/svg11.dtd">
<svg version="1.1" id="Layer_1" xmlns="http://www.w3.org/2000/svg" xmlns:xlink="http://www.w3.org/1999/xlink" x="0px" y="0px"
	 width="120px" height="120px" viewBox="0 0 120 120" style="enable-background:new 0 0 120 120;" xml:space="preserve">
<g id="qip">
	<g>
		<path style="fill-rule:evenodd;clip-rule:evenodd;" d="M104.548,54.32c2.658-2.98,5.44-5.863,8.604-8.343
			c1.045-0.82,2.021-1.74,2.954-2.688c1.545-1.571,1.055-3.904-1.01-4.791c-1.129-0.483-2.311-0.837-3.57-0.83
			c-2.872,0.019-5.743,0.002-8.614,0.024c-1.7,0.013-3.172,0.647-4.54,1.646c-2.084,1.524-3.96,3.25-5.485,5.344
			c-1.146,1.573-2.297,3.144-3.459,4.707c-0.114,0.152-0.318,0.238-0.481,0.354c-0.095-0.151-0.262-0.298-0.275-0.457
			c-0.226-2.756-0.476-5.509-0.625-8.268c-0.065-1.222,0.114-2.452,0.121-3.68c0.012-1.873-0.866-3.979-3.505-4.305
			c-0.508-0.062-1.02-0.101-1.53-0.127c-1.23-0.065-2.464-0.075-3.688-0.187c-2.516-0.226-4.878,0.446-7.244,1.134
			c-0.737,0.214-1.266,0.656-1.522,1.391c-0.17,0.481-0.397,0.96-0.461,1.457c-0.236,1.824-0.622,3.625-0.571,5.494
			c0.089,3.28-0.002,6.565,0.059,9.848c0.043,2.455,0.235,4.909,0.305,7.365c0.063,2.255,0.281,4.54,0,6.76
			c-0.259,2.048-0.328,4.074-0.264,6.122c0,1.435-0.047,2.871,0.012,4.304c0.059,1.428,0.333,2.854,0.311,4.277
			c-0.033,1.987,1.322,3.232,3.297,3.146c2.455-0.107,4.92-0.075,7.38-0.023c1.61,0.034,2.985-0.511,4.348-1.297
			c1.388-0.802,2.004-2.005,2.15-3.51c0.069-0.712-0.01-1.437,0.035-2.152c0.019-0.286,0.189-0.562,0.291-0.843
			c0.249,0.127,0.584,0.189,0.735,0.391c1.499,1.972,3.302,3.631,5.146,5.272c2.324,2.065,5.153,2.871,8.059,3.548
			c0.378,0.09,0.806-0.002,1.208-0.046c0.61-0.068,1.221-0.153,1.828-0.259c0.55-0.097,0.997,0.036,1.375,0.455
			c0.204,0.226,0.415,0.466,0.67,0.621c1.048,0.643,2.44-0.108,2.452-1.337c0.004-0.397-0.098-0.817-0.245-1.19
			c-0.175-0.438-0.151-0.717,0.261-1.019c1.232-0.91,2.431-1.868,3.648-2.801c1.861-1.423,1.851-3.806-0.033-5.166
			c-0.416-0.3-0.858-0.562-1.284-0.849c-4.718-3.162-8.212-7.355-10.591-12.505c-0.284-0.616-0.357-1.148,0.04-1.72
			C102.065,57.826,103.127,55.912,104.548,54.32z M95.795,57.527c0.627,3.217,1.231,6.439,2.541,9.476
			c1.523,3.53,3.677,6.624,6.367,9.363c0.258,0.262,0.591,0.849,0.481,1.013c-0.625,0.94-1.403,1.875-2.544,2.076
			c-0.618,0.107-1.358-0.314-1.997-0.602c-0.195-0.087-0.32-0.518-0.329-0.796c-0.026-0.717,0.043-1.437,0.049-2.154
			c0.003-0.408,0.009-0.828-0.076-1.226c-0.164-0.751-0.647-1.26-1.372-1.533c-0.575-0.217-0.959,0.176-1.396,0.426
			c-0.741,0.424-0.794,0.398-0.93-0.33c-0.093-0.501-0.105-1.029-0.276-1.499c-0.41-1.12-1.225-1.334-2.399-0.697
			c-0.625,0.341-0.702,0.36-0.904-0.394c-0.279-1.043-0.842-1.515-1.949-1.563c-0.936-0.043-0.984-0.214-1.164-1.075
			c-0.167-0.8-0.267-1.628-0.546-2.389c-0.599-1.635-2.476-2.024-3.725-0.804c-0.426,0.416-0.62,1.199-1.33,1.155
			c-1.514-0.095-1.754,0.627-1.928,2.003c-0.245,1.934-0.474,3.854-0.565,5.8c-0.032,0.698-0.271,1.396-0.459,2.08
			c-0.353,1.289-0.864,1.623-2.104,1.428c-0.726-0.113-1.476-1.08-1.322-1.807c0.168-0.801,0.508-1.57,0.627-2.376
			c0.103-0.69,0.246-1.558-0.068-2.087c-0.661-1.11-0.547-2.008-0.049-3.128c0.493-1.108,0.695-2.351,0.97-3.548
			c0.192-0.841,0.074-1.641-0.651-2.234c-0.562-0.461-0.555-0.953-0.309-1.628c0.703-1.924,1.358-3.866,1.926-5.834
			c0.348-1.215-0.361-2.239-1.576-2.547c-1.311-0.333-1.312-0.329-1.17-1.32c0.043-0.306,0.043-0.622,0.134-0.912
			c0.438-1.399,0.267-2.607-0.902-3.63c-0.247-0.218-0.355-0.74-0.325-1.104c0.134-1.634,0.335-3.26,0.522-4.889
			c0.118-1.031,0.343-1.242,1.324-1.274c0.41-0.013,0.821-0.002,1.232-0.002v0.022c0.41,0,0.82-0.017,1.23,0.004
			c0.745,0.039,1.017,0.377,1.011,1.208c-0.001,0.104-0.016,0.206-0.002,0.308c0.208,1.53-0.798,2.924-0.332,4.551
			c0.386,1.35,0.273,2.843,0.391,4.27c0.128,1.531,0.285,3.061,0.396,4.593c0.068,0.922,0.049,1.848,0.119,2.769
			c0.045,0.589-0.241,1.391,0.376,1.703c0.88,0.446,1.945,0.858,2.877,0.354c0.623-0.337,1.032-0.396,1.649-0.126
			c0.604,0.265,1.229,0.098,1.67-0.427c0.461-0.549,0.882-1.134,1.303-1.714c0.301-0.414,0.483-0.967,0.87-1.254
			c1.619-1.194,2.504-2.959,3.669-4.51c1.851-2.46,3.674-4.943,6.234-6.759c0.701-0.498,1.416-0.884,2.273-0.698
			c0.846,0.182,2.108-0.316,2.425,0.741c0.226,0.76-0.846,1.285-1.407,1.84c-2.64,2.596-5.146,5.303-7.171,8.42
			c-0.445,0.688-0.89,1.384-1.248,2.117C95.771,56.709,95.725,57.162,95.795,57.527z M45.964,79.796
			c-0.178-2.649-0.688-5.273-0.927-7.918c-0.137-1.523-0.287-3.126,0.03-4.591c0.866-3.997,0.748-7.92-0.224-11.857
			c-0.197-0.795-0.357-1.6-0.497-2.405c-1.101-6.353-6.272-11.865-12.503-13.384c-2.214-0.54-4.438-0.677-6.7-0.637
			c-2.996,0.052-5.91,0.429-8.633,1.796c-0.542,0.271-1.14,0.467-1.733,0.592c-1.757,0.369-3.228,1.246-4.553,2.417
			c-4.845,4.277-6.729,9.893-7.152,16.112c-0.139,2.038-0.004,4.101,0.078,6.148c0.117,2.909,0.852,5.662,2.345,8.182
			c0.845,1.426,1.895,2.667,3.361,3.509c0.625,0.359,6.125,2.401,6.891,2.495c1.217,0.15,2.443,0.408,3.659,0.368
			c1.94-0.063,3.875-0.325,5.811-0.521c0.498-0.051,1.091-0.385,1.463-0.212c0.639,0.3,0.412,1.071,0.423,1.667
			c0.017,0.922,0.004,1.845,0.004,2.767h0.021c0,1.026,0.057,2.055-0.011,3.075c-0.129,1.924,0.94,3.282,2.071,4.619
			c0.973,1.15,2.246,1.406,3.627,1.023c4.248-1.175,8.614-1.697,12.942-2.438c0.395-0.067,0.814-0.162,1.151-0.365
			c1.267-0.76,1.752-2.146,1.028-3.42C46.699,84.638,46.131,82.302,45.964,79.796z M38.926,85.166
			c-0.698,0.155-1.398,0.29-2.098,0.436c0.004,0.02,0.008,0.04,0.012,0.061c-0.89,0.203-1.781,0.405-2.672,0.606
			c-0.696-0.917-0.407-1.979-0.336-2.959c0.147-2.036,0.369-4.076,0.729-6.082c0.113-0.63,0.768-1.161,1.17-1.74
			c0.912-1.312,0.741-2.868-0.431-3.848c-0.88-0.737-1.835-0.77-2.87-0.331c-1.505,0.635-3.017,1.26-4.552,1.818
			c-0.445,0.163-1.026,0.23-1.466,0.092c-2.518-0.783-5.07-0.449-7.622-0.392c-0.673,0.016-1.452,0.716-1.945,0.087
			c-0.268-0.342,0.115-1.148,0.104-1.744c-0.02-1.064-0.238-2.117-1.418-2.458c-0.889-0.257-0.85-1.06-1.219-1.622
			c-0.365-0.553-0.397-1.169-0.2-1.769c0.286-0.872,0.659-1.718,0.964-2.585c0.535-1.528,0.238-2.186-1.259-2.89
			c-0.987-0.463-1.055-0.583-0.674-1.575c1.183-3.062,2.397-6.105,4.753-8.514c0.141-0.145,0.321-0.324,0.339-0.5
			c0.215-2.123,2.018-2.451,3.503-2.827c2.585-0.657,5.273-0.677,7.937-0.532c0.569,0.03,1.242,0.278,1.65,0.658
			c0.779,0.727,1.716,1.106,2.642,1.519c1.876,0.834,3.174,2.224,3.985,4.072c0.453,1.026,0.815,2.097,1.214,3.147
			c0.437,1.151,0.631,2.251,0.39,3.561c-0.328,1.793-0.221,3.674-0.225,5.517c-0.006,3.583,0.009,7.171,0.084,10.753
			c0.024,1.221,0.295,2.432,0.382,3.653c0.122,1.735,0.204,3.472,0.252,5.21C40.069,84.707,39.756,84.982,38.926,85.166z
			 M67.402,63.798c-0.135-2.354-0.288-4.695-0.012-7.046c0.061-0.502,0.104-1.026,0.028-1.521c-0.278-1.812-0.583-3.626-0.949-5.423
			c-0.071-0.343-0.419-0.792-0.733-0.892c-2.142-0.674-4.293-1.506-6.584-1.204c-2.022,0.265-4.018,0.737-6.016,1.153
			c-0.598,0.124-1.18,0.342-1.751,0.562c-1.792,0.691-2.878,1.873-2.777,3.932c0.077,1.534-0.04,3.084,0.123,4.604
			c0.391,3.656,0.923,7.3,1.348,10.953c0.354,3.043,0.755,6.089,0.899,9.146c0.071,1.51,0.727,2.744,1.201,4.07
			c0.256,0.711,0.953,1.083,1.708,1.13c0.917,0.059,1.841,0.015,2.763,0.015c1.639,0.07,3.246,0.006,4.859-0.458
			c1.418-0.409,2.393-1.132,2.814-2.522c0.216-0.713,0.471-1.268,1.234-1.597c1.377-0.593,1.887-1.827,1.947-3.233
			c0.062-1.432,0.039-2.868,0.025-4.302C67.507,68.708,67.545,66.247,67.402,63.798z M62.845,54.51
			c-1.151,6.268-1.433,12.597-1.308,18.953c0.014,0.716,0.006,1.434-0.018,2.15c-0.014,0.433-0.188,0.784-0.65,0.908
			c-0.495,0.133-0.988,0.27-1.488,0.382c-0.455,0.104-0.822-0.05-0.933-0.522c-0.417-1.787-0.811-3.578-1.21-5.368
			c-0.021-0.1,0.002-0.206-0.013-0.308c-0.133-0.902-0.437-1.818-0.361-2.705c0.074-0.884,0.604-1.719,0.798-2.607
			c0.279-1.296,0.467-2.615,0.637-3.934c0.132-1.03,0.108-2.045-0.712-2.867c-0.392-0.393-0.453-0.911-0.314-1.43
			c0.21-0.789,0.438-1.575,0.694-2.351c0.175-0.524,0.592-0.819,1.123-0.937c1.095-0.24,2.194-0.469,3.292-0.697
			c0.396-0.082,0.679,0.259,0.602,0.734C62.951,54.112,62.892,54.311,62.845,54.51z M50.339,43.589
			c2.711,1.218,5.429,0.981,7.901-0.612c2.764-1.781,4.645-4.388,5.517-7.514c0.845-3.028-0.041-4.681-2.241-6.075
			c-2.566-1.627-5.446-2.243-8.087-2.59c-3-0.099-5.262,1.448-6.118,4.044c-0.283,0.86-0.478,1.777-0.537,2.681
			c-0.104,1.526-0.022,3.066-0.096,4.599C46.547,40.865,48.024,42.549,50.339,43.589z M53.173,35.485
			c0.303-2.079,0.595-2.313,2.529-1.925c0.598,0.119,1.179,0.348,1.756,0.556c0.35,0.128,0.502,0.697,0.329,1.064
			c-0.585,1.239-1.534,2.163-2.597,2.982c-0.156,0.121-0.368,0.172-0.558,0.249c-0.927,0.376-1.678-0.124-1.636-1.366
			C53.034,36.709,53.084,36.095,53.173,35.485z M31.31,54.373c-0.642-1.557-1.739-2.501-3.501-2.497
			c-0.41,0.002-0.829-0.034-1.227,0.045c-1.965,0.388-3.74,1.031-4.547,3.147c-0.4,1.049-0.882,2.084-1.472,3.034
			c-0.974,1.567-1.128,3.259-1.043,5.023c0.133,2.791,2.513,5.233,5.288,5.422c2.932,0.2,5.46-1.421,6.44-4.192
			c0.587-1.658,0.772-3.387,0.653-5.081C31.989,57.564,31.949,55.928,31.31,54.373z M27.693,61.193
			c-0.121,0.974-0.704,1.684-1.477,2.222c-0.631,0.44-1.336,0.48-2.016,0.092c-0.604-0.343-0.771-0.942-0.717-1.572
			c0.104-1.216,0.25-2.429,0.415-3.638c0.22-1.607,0.744-2.079,2.377-2.212c0.88-0.071,1.381,0.308,1.456,1.141
			c0.054,0.608,0.063,1.222,0.102,1.987C27.796,59.771,27.78,60.487,27.693,61.193z"/>
	</g>
</g>
</svg>
