<?xml version="1.0" encoding="utf-8"?>
<!-- Generator: Adobe Illustrator 16.0.0, SVG Export Plug-In . SVG Version: 6.00 Build 0)  -->
<!DOCTYPE svg PUBLIC "-//W3C//DTD SVG 1.1//EN" "http://www.w3.org/Graphics/SVG/1.1/DTD/svg11.dtd">
<svg version="1.1" id="Layer_1" xmlns="http://www.w3.org/2000/svg" xmlns:xlink="http://www.w3.org/1999/xlink" x="0px" y="0px"
	 width="120px" height="120px" viewBox="0 0 120 120" style="enable-background:new 0 0 120 120;" xml:space="preserve">
<g id="chat">
	<g>
		<path style="fill-rule:evenodd;clip-rule:evenodd;" d="M113.229,51.182c-0.523-4.145-1.414-8.191-2.982-12.086
			c-0.729-1.809-1.699-3.432-2.896-4.957c-3.057-3.896-6.689-7.217-10.525-10.301c-2.072-1.668-4.381-3.053-6.635-4.49
			c-0.799-0.508-1.715-0.877-2.629-1.162c-4.688-1.455-9.379-2.912-14.1-4.268c-2.559-0.734-5.109-1.643-7.807-1.666
			c-8.629-0.074-7.141-0.527-14.795,1.932c-0.203,0.066-0.42,0.092-0.621,0.164c-1.926,0.693-3.908,1.094-5.961,1.061
			c-1.854-0.029-3.602,0.348-5.264,1.174c-1.529,0.76-3.119,1.406-4.615,2.223c-2.346,1.279-4.678,2.59-6.938,4.012
			c-2.529,1.594-5.1,3.168-7.428,5.029C11.05,35.023,6.206,44.219,6.733,55.939c0.271,6.047,2.275,11.469,5.684,16.422
			c1.562,2.271,3.592,3.869,6.164,4.914c4.551,1.846,9.018,3.904,13.846,4.965c0.105,0.021,0.213,0.033,0.314,0.064
			c1.893,0.623,2.414,1.248,2.441,3.244c0.029,1.922-0.15,3.852-0.072,5.77c0.109,2.697-0.178,5.336-0.809,7.943
			c-0.275,1.139-0.734,2.236-0.98,3.381c-0.201,0.928-0.287,1.898-0.275,2.848c0.012,0.92,0.561,1.566,1.416,1.965
			c0.705,0.328,1.41,0.475,2.178,0.295c1.877-0.443,3.684-1.08,5.406-1.959c4.879-2.492,9.309-5.66,13.545-9.104
			c1.908-1.549,3.666-3.285,5.582-4.822c1.58-1.268,3.242-2.453,4.971-3.51c1.84-1.127,3.879-1.768,6.092-1.701
			c0.961,0.027,1.924,0.004,3.252,0.004c3.012,0.443,6.221-0.227,9.361-1.438c1.99-0.77,4.031-1.408,6.016-2.197
			c1.482-0.588,3.035-1.133,4.332-2.025c2.459-1.691,4.801-3.564,7.107-5.463c1.314-1.08,2.406-2.414,3.939-3.256
			c0.529-0.291,0.939-0.865,1.303-1.379c0.494-0.697,0.893-1.459,1.326-2.195c1.988-3.359,2.934-7.102,3.785-10.844
			C113.149,55.693,113.515,53.447,113.229,51.182z M104.954,62.357c-0.547,1.734-1.053,3.479-2.811,4.504
			c-0.518,0.301-0.838,0.949-1.227,1.457c-0.582,0.768-1.148,1.545-1.707,2.326c-3.092,4.328-7.424,6.697-12.516,7.732
			c-4.861,0.992-9.803,1.031-14.676,0.234c-3.939-0.646-7.375,0.078-10.633,2.33c-2.648,1.832-5.039,3.967-7.51,6.01
			c-2.725,2.252-5.574,4.326-8.648,6.082c-0.279,0.158-0.574,0.285-0.865,0.422c-1.189,0.561-1.637,0.346-1.711-0.859
			c-0.047-0.746-0.057-1.498-0.043-2.246c0.053-2.459,0.09-4.922,0.203-7.379c0.041-0.953,0.285-1.895,0.404-2.844
			c0.203-1.643,0.053-3.189-1.105-4.521c-0.596-0.686-1.229-1.047-2.178-1.117c-1.59-0.121-3.174-0.406-4.742-0.701
			c-1.16-0.219-1.414-0.604-1.418-1.754c-0.006-0.748,0.072-1.506-0.033-2.238c-0.051-0.355-0.377-0.736-0.684-0.977
			c-0.371-0.287-1.141-0.061-1.408,0.385c-0.439,0.73-0.822,1.494-1.23,2.242c-0.254,0.467-0.475,0.959-0.795,1.373
			c-0.068,0.09-0.658-0.035-0.762-0.207c-0.201-0.338-0.371-0.807-0.301-1.174c0.238-1.254,0.523-2.508,0.914-3.723
			c0.334-1.035,0.592-2.047,0.422-3.137c-0.115-0.748-1.141-1.244-1.744-0.76c-0.656,0.529-1.293,1.121-1.803,1.789
			c-0.578,0.758-1.027,1.623-1.494,2.461c-0.279,0.5-0.588,0.93-1.227,0.709c-1.043-0.359-1.57-1.092-1.312-1.889
			c0.688-2.135,1.43-4.252,2.135-6.381c0.268-0.811,0.559-1.623,0.709-2.459c0.119-0.65-0.143-1.291-0.68-1.705
			c-0.199-0.154-0.668-0.225-0.846-0.098c-0.422,0.297-0.812,0.691-1.09,1.125c-1.205,1.895-2.361,3.82-3.541,5.73
			c-0.254,0.41-0.645,0.369-0.994-0.041c-0.908-1.061-1.205-2.148-0.633-3.537c1.223-2.969,2.461-5.916,4.404-8.51
			c0.125-0.17,0.248-0.352,0.332-0.543c0.229-0.529,0.189-1.066-0.174-1.508c-0.357-0.43-0.834-0.646-1.422-0.479
			c-1.266,0.357-2.357,0.982-3.23,1.984c-0.461,0.527-0.977,1.003-1.471,1.498c0.006,0.055,0.014,0.111,0.014,0.165
			c-0.036,0.018-0.087,0.024-0.141,0.029c-0.052,0.117-0.104,0.234-0.154,0.35c-0.241-0.344-0.028-0.335,0.154-0.35
			c0.018-0.041,0.035-0.081,0.053-0.121c0.024-0.024,0.049-0.048,0.074-0.073c-0.018-0.167-0.041-0.335,0.016-0.47
			c1.363-3.254,2.711-6.518,5.322-9.035c0.152-0.146,0.299-0.307,0.428-0.473c0.348-0.445,0.512-0.939,0.289-1.49
			c-0.252-0.619-0.625-1.137-1.338-1.25c-0.873-0.137-1.723-0.049-2.438,0.52c-0.5,0.398-0.92,0.895-1.416,1.297
			c-0.176,0.141-0.336,0.668-0.646,0.256c-0.107-0.143,0.096-0.578,0.23-0.844c0.834-1.643,2.023-3.012,3.352-4.271
			c1.475-1.398,2.953-2.795,4.422-4.199c0.93-0.891,1.775-1.82,2.307-3.041c0.611-1.41,1.758-2.377,3.01-3.254
			c3.936-2.758,8.355-4.27,13.043-5.053c2.104-0.35,4.248-0.441,6.365-0.719c1.479-0.195,2.943-0.508,4.416-0.768
			c3.047-0.541,6.074-1.211,9.143-1.592c3.301-0.408,6.604-0.223,9.842,0.74c3.389,1.006,6.721,2.178,9.914,3.664
			c3.779,1.76,7.461,3.725,11.186,5.6c3.775,1.902,6.432,4.859,8.305,8.617c2.766,5.541,4.396,11.33,4.25,17.57
			C105.747,56.656,105.839,59.557,104.954,62.357z"/>
	</g>
</g>
</svg>
