<?xml version="1.0" encoding="utf-8"?>
<!-- Generator: Adobe Illustrator 16.0.0, SVG Export Plug-In . SVG Version: 6.00 Build 0)  -->
<!DOCTYPE svg PUBLIC "-//W3C//DTD SVG 1.1//EN" "http://www.w3.org/Graphics/SVG/1.1/DTD/svg11.dtd">
<svg version="1.1" id="Layer_1" xmlns="http://www.w3.org/2000/svg" xmlns:xlink="http://www.w3.org/1999/xlink" x="0px" y="0px"
	 width="120px" height="120px" viewBox="0 0 120 120" style="enable-background:new 0 0 120 120;" xml:space="preserve">
<g id="codecademy">
	<g>
		<path style="fill-rule:evenodd;clip-rule:evenodd;" d="M95.09,15.459c-0.289-0.443-0.533-0.932-0.719-1.428
			c-0.934-2.501-2.879-3.912-5.236-4.853c-2.199-0.877-4.531-1.168-6.859-1.489c-1.158-0.16-2.35-0.291-3.441-0.676
			c-1.652-0.584-3.32-0.723-5.043-0.729c-2.047-0.008-4.045,0.286-6.021,0.765c-4.088,0.988-7.925,2.524-11.267,5.162
			c-1.088,0.859-2.212,1.688-3.395,2.408c-5.369,3.263-9.775,7.623-13.838,12.324c-3.221,3.728-5.761,7.959-8.156,12.259
			c-1.249,2.241-2.457,4.526-3.1,7.02c-0.35,1.355-0.785,2.651-1.331,3.931c-3.142,7.365-4.796,15.029-4.587,23.545
			c-0.338,5.041,0.577,10.376,2.519,15.538c1.018,2.706,2.137,5.405,3.969,7.649c1.083,1.328,2.089,2.686,3.038,4.104
			c2.789,4.167,6.363,7.472,10.873,9.722c0.859,0.43,1.73,0.838,2.588,1.275c3.26,1.664,6.742,2.086,10.275,1.441
			c1.598-0.291,3.164-0.42,4.762-0.443c1.39-0.02,2.757-0.059,4.123-0.47c2.039-0.614,4.125-1.076,6.193-1.591
			c0.824-0.204,1.652-0.498,2.486-0.528c1.127-0.042,2.062-0.478,2.996-1.005c3.078-1.736,6.01-3.682,8.775-5.893
			c1.498-1.197,3.1-2.271,4.703-3.326c1.283-0.846,2.305-1.87,2.998-3.256c0.523-1.046,1.145-2.046,1.762-3.043
			c0.688-1.115,1.135-2.288,1.143-3.618c0.008-1.21-0.604-1.959-1.617-2.55c-0.924-0.537-1.613-0.197-2.342,0.324
			c-4.916,3.516-10.41,5.848-16.098,7.764c-0.803,0.271-1.656,0.387-2.473,0.619c-2.717,0.776-5.516,0.064-8.254,0.463
			c-0.299,0.043-0.643-0.061-0.934-0.174c-1.291-0.508-2.598-0.985-3.846-1.585c-2.452-1.177-4.469-2.847-5.962-5.183
			c-1.723-2.693-2.508-5.666-2.779-8.765c-0.213-2.442-0.092-4.914-0.115-7.372c-0.015-1.625,0.241-3.218,0.922-4.684
			c0.38-0.817,0.48-1.617,0.484-2.477c0.008-2.352,0.227-4.684,0.412-7.027c0.29-3.674,1.236-7.174,2.449-10.574
			c2.309-6.477,5.597-12.465,9.828-17.914c0.59-0.758,1.188-1.521,1.668-2.35c2.146-3.711,5.539-4.799,9.537-4.518
			c0.688,0.049,1.537,0.425,1.965,0.938c0.879,1.053,1.746,2.221,2.207,3.49c0.547,1.502,0.658,3.154-0.574,4.543
			c-0.279,0.316-0.449,0.727-0.697,1.074c-1.305,1.824-2.623,3.637-3.924,5.461c-0.932,1.307-0.389,2.926,1.146,3.24
			c1.053,0.215,2.078,0.393,3.021,0.975c0.426,0.262,1.018,0.327,1.539,0.346c3.543,0.135,6.783-0.9,9.66-2.887
			c1.74-1.203,2.949-3.088,4.877-4.113c0.256-0.135,0.396-0.492,0.582-0.752c1.154-1.594,1.881-3.359,1.951-5.336
			c0.068-1.922,0.047-3.849,0.062-5.773C98.029,21.834,97.088,18.496,95.09,15.459z M90.842,28.045
			c-0.006,1.098-0.508,2.064-1.191,2.912c-0.115,0.142-0.357,0.188-0.547,0.253c-0.016,0.005-0.135-0.175-0.139-0.271
			c-0.057-0.956-0.109-1.913-0.141-2.87c-0.205-6.492-3.732-10.795-9.295-12.295c-0.441-0.119-0.762-0.104-1.18,0.133
			c-1.096,0.623-2.273,1.104-3.367,1.729c-1.146,0.654-2.416,0.806-3.652,1.127c-4.549,1.182-5.254,1.612-8.33,5.438
			c-1.471,1.828-2.886,3.724-4.107,5.723c-1.008,1.65-2.156,3.18-3.268,4.746c-1.792,2.527-3.549,5.084-5.212,7.697
			c-1.626,2.555-2.474,5.439-3.087,8.377c-0.828,3.968-1.627,7.941-2.342,11.932c-0.452,2.517-0.678,5.074-1.1,7.598
			c-0.531,3.182-0.522,6.386-0.555,9.591c0,1.604-0.052,3.212,0.01,4.813c0.163,4.221,1.545,7.924,4.684,10.887
			c0.852,0.803,1.627,1.703,2.338,2.635c2.006,2.63,4.783,3.834,7.914,4.416c0.309,0.057,0.639,0.041,0.955,0.007
			c0.511-0.056,1.035-0.278,1.521-0.211c2.111,0.295,4.213,0.668,6.314,1.022c0.092,0.016,0.164,0.133,0.246,0.201
			c-0.072,0.063-0.137,0.167-0.217,0.184c-1.461,0.292-2.914,0.75-4.385,0.82c-2.775,0.133-5.57,0.186-8.338,0.001
			c-3.002-0.2-5.864-1.099-8.513-2.585c-0.52-0.291-0.76-0.738-0.609-1.33c0.131-0.515,0.437-1.021,0.43-1.528
			c-0.01-0.61-0.151-1.28-0.438-1.815c-0.689-1.285-2.13-1.529-3.255-0.608c-0.32,0.263-0.537,0.652-0.814,0.975
			c-0.051,0.06-0.188,0.122-0.227,0.097c-0.082-0.053-0.186-0.177-0.173-0.254c0.087-0.52,0.247-1.03,0.295-1.553
			c0.048-0.517,0.083-1.066-0.039-1.561c-0.279-1.135-0.828-1.465-2.124-1.171c-0.496,0.113-0.812,0.065-1.08-0.288
			c-0.189-0.251-0.295-0.566-0.426-0.857c-1.438-3.184-1.461-3.195,0.108-6.238c0.882-1.708,1.868-3.361,2.776-5.057
			c0.353-0.655,0.705-1.333,0.896-2.044c0.13-0.484,0.073-1.071-0.066-1.563c-0.267-0.941-1.413-1.434-2.31-1.123
			c-1.242,0.432-2.223,1.259-3.234,2.049c-0.247,0.192-0.521,0.369-0.811,0.479c-0.08,0.03-0.354-0.19-0.383-0.328
			c-0.207-0.994,0.023-1.927,0.586-2.748c0.725-1.057,1.521-2.065,2.26-3.113c0.492-0.695,1.008-1.389,1.374-2.15
			c0.217-0.45,0.236-1.033,0.212-1.549c-0.034-0.736-0.979-1.334-1.646-1.068c-0.594,0.235-1.148,0.569-1.736,0.824
			c-0.176,0.076-0.525,0.116-0.588,0.027c-0.164-0.234-0.324-0.562-0.291-0.829c0.414-3.272,0.362-3.318,2.509-6.084
			c2.49-3.208,5.075-6.347,7.677-9.466c0.961-1.15,1.295-2.401,1.219-3.854c-0.076-1.424-1.794-2.275-2.793-1.93
			c-1.02,0.354-1.959,0.854-2.691,1.682c-0.851,0.959-1.701,1.919-2.574,2.857c-0.105,0.113-0.352,0.098-0.531,0.143
			c-0.016-0.186-0.06-0.376-0.037-0.557c0.135-1.118,0.734-1.969,1.516-2.749c1.664-1.663,3.312-3.345,4.923-5.062
			c0.728-0.775,1.354-1.648,2.017-2.484c0.707-0.893,0.855-1.933,0.785-3.031c-0.056-0.886-0.762-1.637-1.652-1.633
			c-0.416,0.002-0.825,0.207-1.246,0.268c-0.561,0.083-0.84-0.232-0.595-0.684c0.61-1.121,1.157-2.297,1.911-3.314
			c2.242-3.029,4.962-5.607,7.991-7.834c5.288-3.885,10.967-7.034,17.352-8.734c3.426-0.912,6.938-1.215,10.475-1.162
			c0.727,0.01,1.473,0.23,2.17,0.467c1.008,0.344,1.959,0.863,2.975,1.178c2.922,0.908,4.328,3.108,4.732,5.896
			C90.982,23.738,90.854,25.908,90.842,28.045z"/>
	</g>
</g>
</svg>
