<?xml version="1.0" encoding="utf-8"?>
<!-- Generator: Adobe Illustrator 16.0.0, SVG Export Plug-In . SVG Version: 6.00 Build 0)  -->
<!DOCTYPE svg PUBLIC "-//W3C//DTD SVG 1.1//EN" "http://www.w3.org/Graphics/SVG/1.1/DTD/svg11.dtd">
<svg version="1.1" id="Layer_1" xmlns="http://www.w3.org/2000/svg" xmlns:xlink="http://www.w3.org/1999/xlink" x="0px" y="0px"
	 width="120px" height="120px" viewBox="0 0 120 120" style="enable-background:new 0 0 120 120;" xml:space="preserve">
<g id="tree_house">
	<g>
		<path style="fill-rule:evenodd;clip-rule:evenodd;" d="M114.728,36.021c-0.114-2.126-0.552-4.188-1.213-6.207
			c-0.46-1.405-1.169-2.732-2.317-3.6c-2.309-1.747-4.789-3.257-7.141-4.948c-1.318-0.949-2.753-1.062-4.139-0.581
			c-2.411,0.835-4.838,1.621-7.03,3.044c-2.361,1.531-4.343,3.483-6.509,5.228c-1.767,1.425-3.251,3.058-4.422,4.968
			c-1.104,1.802-2.106,3.666-3.118,5.523c-0.428,0.779-0.644,1.699-1.169,2.394c-1.211,1.603-1.476,3.45-1.646,5.338
			c-0.08,0.886-0.072,1.783-0.059,2.675c0.074,5.446,1.736,10.272,5.569,14.259c0.454,0.473,0.782,1.067,1.22,1.56
			c1.185,1.338,2.506,2.59,4.209,3.141c1.133,0.369,1.559,0.939,1.837,2.036c0.567,2.231,0.051,4.165-1.192,5.985
			c-0.105,0.157-0.385,0.191-0.585,0.281c-0.079-0.189-0.235-0.385-0.226-0.57c0.047-0.886,0.211-1.771,0.179-2.65
			c-0.013-0.354-0.353-0.861-0.667-0.994c-0.33-0.138-0.97-0.053-1.197,0.191c-0.436,0.467-0.807,1.084-0.961,1.7
			c-0.188,0.741-0.098,1.55-0.176,2.325c-0.03,0.299-0.131,0.725-0.58,0.529c-0.271-0.118-0.637-0.415-0.656-0.655
			c-0.099-1.218-0.114-2.441-0.124-3.665c-0.005-0.666,0.093-1.333,0.081-1.999c-0.012-0.719-0.695-1.235-1.375-1.05
			c-0.415,0.113-0.811,0.48-1.201,0.455c-0.688-0.042-0.654-0.777-0.9-1.25c-0.459-0.885-0.918-1.777-1.453-2.619
			c-1.074-1.692-2.166-3.376-3.312-5.019c-1.006-1.445-2.225-1.777-3.729-0.914c-1.051,0.601-2.123,1.297-2.916,2.19
			c-2.219,2.498-4.334,5.092-6.414,7.707c-1.114,1.405-1.757,3.052-2.272,4.797c-0.715,2.416-0.54,4.848-0.567,7.29
			c-0.011,1.04,0.235,1.903,0.95,2.744c1.282,1.505,1.372,3.219,0.427,4.983c-0.297,0.559-0.348,0.593-0.802-0.01
			c-0.837-1.113-0.847-1.12-1.981-0.322c-0.346,0.242-0.584,0.202-0.639-0.191c-0.078-0.549,0.004-1.123-0.102-1.665
			c-0.103-0.531-0.307-1.056-0.554-1.543c-0.332-0.655-1.253-0.717-1.655-0.12c-0.307,0.456-0.49,0.998-0.812,1.441
			c-0.391,0.537-0.601,0.214-0.94-0.186c-0.646-0.761-0.994-0.747-1.633-0.171c-0.161,0.145-0.228,0.418-0.403,0.516
			c-0.238,0.134-0.54,0.154-0.814,0.224c-0.024-0.195-0.1-0.401-0.065-0.584c0.192-1.012,0.642-1.892,1.393-2.612
			c1.812-1.736,3.064-3.79,3.548-6.282c0.061-0.313,0.175-0.754,0.403-0.875c1.16-0.611,1.24-1.786,1.566-2.822
			c1.002-3.184,1.931-6.391,2.978-9.558c1.084-3.278,2.255-6.525,3.434-9.769c0.242-0.663,0.266-1.256,0.12-1.939
			c-0.302-1.426-1.218-2.337-2.359-3.086c-0.604-0.399-1.291-0.463-1.897-0.078c-0.938,0.595-1.873,1.218-2.719,1.935
			c-2.382,2.013-4.723,4.075-7.069,6.13c-2.986,2.613-5.333,5.653-6.47,9.535c-0.246,0.845-0.68,1.643-1.102,2.425
			c-0.523,0.969-0.745,1.073-1.317,0.096c-0.289-0.495-0.558-1.055-1.181-1.04c-0.849,0.018-1.495-0.202-2-0.914
			c-0.071-0.102-0.565,0.079-0.854,0.158c-0.096,0.026-0.163,0.148-0.252,0.216c-0.086,0.067-0.186,0.12-0.282,0.18
			c-0.091-0.163-0.249-0.317-0.265-0.487c-0.097-1.089,0.794-2.039,0.279-3.251c-0.407-0.958-0.214-1.052,0.696-1.429
			c0.727-0.302,1.443-0.599,2.257-0.43c1.35,0.283,2.389-0.387,3.348-1.173c0.776-0.633,1.47-1.366,2.193-2.062
			c0.641-0.619,1.202-1.353,1.921-1.859c3.316-2.333,5.882-5.449,8.72-8.277c1.097-1.096,2.021-2.38,2.927-3.646
			c0.861-1.203,0.184-2.811-1.238-3.123c-0.324-0.07-0.665-0.138-0.991-0.117c-1,0.062-2.011,0.098-2.991,0.276
			c-3.172,0.585-6.333,1.229-9.497,1.853c-0.436,0.088-0.892,0.127-1.302,0.279c-1.055,0.395-2.102,0.824-2.413,2.088
			c-0.182,0.742-0.799,1.053-1.399,1.33c-0.262,0.12-0.684,0.156-0.918,0.024c-1.46-0.829-2.409-2.028-2.151-3.797
			c0.113-0.78,0.296-1.474-0.107-2.241c-0.25-0.475,0.169-0.854,0.624-0.957c1.351-0.306,2.664-0.277,3.798,0.682
			c0.439,0.371,0.912,0.634,1.517,0.516c1.853-0.354,3.725-0.627,5.552-1.081c3.893-0.97,7.65-2.374,11.326-3.954
			c1.933-0.83,3.868-1.803,5.543-3.058c3.93-2.938,7.609-6.183,10.734-9.999c1.931-2.357,3.494-4.932,3.932-8.001
			c0.407-2.868,0.766-5.766-1.025-8.399c-0.3-0.44-0.493-1.028-0.517-1.558c-0.044-0.935-0.565-1.387-1.324-1.717
			c-3.474-1.504-6.925-3.065-10.425-4.505c-2.263-0.928-4.555-0.906-6.774,0.283c-1.67,0.894-3.418,1.657-5.028,2.646
			c-4.754,2.915-9.625,5.599-14.658,8.007c-3.113,1.488-6.132,3.176-9.188,4.782c-1.777,0.932-3.537,1.893-5.319,2.815
			c-1.678,0.867-3.382,1.688-5.062,2.553c-2.475,1.274-4.997,2.474-7.39,3.888c-1.984,1.173-3.325,3.042-3.796,5.287
			c-0.454,2.171-0.622,4.412-0.771,6.633c-0.216,3.221-0.341,6.453-0.436,9.683c-0.133,4.57-0.204,9.145-0.303,13.715
			c-0.022,1.004-0.004,2.012-0.077,3.011c-0.192,2.665-0.424,5.328-0.642,7.99c0.033,0.005,0.065,0.007,0.098,0.011
			c0,1.338,0.071,2.681-0.014,4.015c-0.192,3.029,0.875,5.668,2.325,8.232c1.853,3.271,4.453,5.91,7.399,8.104
			c3.747,2.787,7.698,5.312,11.668,7.777c2.738,1.702,5.655,3.118,8.498,4.653c0.588,0.318,1.167,0.719,1.799,0.873
			c2.122,0.514,3.841,1.717,5.542,2.989c0.715,0.533,1.483,0.991,2.242,1.46c2.748,1.697,5.468,3.416,8.022,5.423
			c3.321,2.612,3.676,2.624,7.983,2.449c1.398-0.058,2.928,0.167,3.887-1.35c0.197-0.312,0.771-0.409,1.19-0.552
			c1.71-0.582,3.204-1.521,4.646-2.592c1.521-1.13,3.067-2.237,4.679-3.23c3.697-2.278,7.447-4.473,11.165-6.721
			c2.288-1.384,4.677-2.643,6.8-4.248c2.951-2.231,6.041-4.182,9.379-5.756c0.504-0.236,0.995-0.507,1.468-0.798
			c2.67-1.651,5.248-3.401,6.753-6.299c0.719-1.384,1.549-2.728,2.104-4.175c0.671-1.756,1.453-3.496,1.498-5.446
			c0.127-5.682,0.136-11.364,0.641-17.035c0.277-3.106,0.188-6.244,0.297-9.367c0.074-2.113,0.324-4.226,0.287-6.335
			C115.135,42.026,114.891,39.025,114.728,36.021z M37.465,72.427c0.03,0.1,0.064,0.201,0.096,0.304
			c-0.022,0.1-0.043,0.199-0.065,0.299c-0.065-0.112-0.167-0.218-0.183-0.338C37.301,72.611,37.409,72.516,37.465,72.427z
			 M107.623,74.424c-0.412,0.762-0.694,1.699-0.692,2.557c0.009,1.916-0.899,3.431-1.864,4.925
			c-1.092,1.684-2.276,3.306-3.439,4.942c-0.914,1.287-2.018,2.355-3.463,3.076c-2.898,1.445-5.553,3.27-8.201,5.143
			c-4.74,3.35-9.815,6.152-15.182,8.396c-1.746,0.729-3.504,1.431-5.248,2.166c-1.036,0.438-2.021,0.816-3.092-0.007
			c-0.217-0.167-0.868,0.041-1.193,0.261c-0.449,0.308-0.782,0.786-1.16,1.197c-1.029,1.115-1.065,1.123-1.537-0.45
			c-0.345-1.147-1.477-1.22-2.079-0.593c-0.533,0.553-0.967,1.212-1.372,1.867c-0.993,1.604-0.977,1.616-2.761,2.048
			c-0.655,0.159-0.891-0.008-0.742-0.556c0.235-0.859,0.541-1.699,0.727-2.569c0.115-0.533,0.115-1.107,0.066-1.655
			c-0.055-0.623-0.536-1.02-1.081-1.127c-0.369-0.074-0.877,0.07-1.187,0.303c-1.104,0.824-1.704,2.029-2.272,3.254
			c-0.283,0.612-0.678,0.648-1.364,0.22c-1.104-0.692-1.156-0.854-0.648-2.089c0.127-0.31,0.345-0.599,0.396-0.918
			c0.108-0.654,0.195-1.324,0.173-1.983c-0.033-1.028-0.648-1.771-1.5-1.969c-1.089-0.25-1.994,0.169-2.438,1.226
			c-0.301,0.715-0.475,1.48-0.753,2.205c-0.049,0.126-0.399,0.279-0.501,0.224c-1.26-0.702-2.53-1.396-3.723-2.202
			c-0.265-0.18-0.368-0.803-0.32-1.193c0.082-0.651,0.403-1.274,0.513-1.926c0.091-0.541,0.085-1.117,0.01-1.661
			c-0.083-0.582-0.476-1.021-1.046-1.193c-0.57-0.171-1.126-0.021-1.517,0.437c-0.36,0.419-0.674,0.885-0.962,1.357
			c-0.347,0.57-0.599,1.203-0.988,1.736c-0.14,0.193-0.621,0.31-0.847,0.218c-0.248-0.102-0.543-0.492-0.532-0.743
			c0.029-0.653,0.177-1.309,0.351-1.943c0.194-0.724-0.062-1.313-0.421-1.89c-0.416-0.668-1.521-0.845-2.029-0.263
			c-0.504,0.582-0.858,1.293-1.355,1.885c-0.173,0.208-0.576,0.326-0.865,0.312c-0.486-0.022-1.128-0.743-1.064-1.126
			c0.071-0.434,0.165-0.871,0.316-1.284c0.462-1.254,0.992-2.483,1.421-3.748c0.174-0.511,0.222-1.087,0.211-1.633
			c-0.021-0.961-1.173-1.534-1.943-1.005c-1.306,0.899-2.33,2.072-3.193,3.387c-0.304,0.465-0.513,0.99-0.788,1.477
			c-0.279,0.494-0.708,0.614-1.05,0.35c-0.414-0.317-0.54-0.764-0.323-1.174c1.143-2.169,2.331-4.314,3.504-6.467
			c0.446-0.818,0.465-1.412,0.053-1.844c-0.544-0.57-1.352-0.649-2.138-0.304c-1.401,0.621-2.192,1.854-3.106,2.973
			c-0.485,0.595-0.963,1.192-1.46,1.775c-0.051,0.059-0.275,0.064-0.315,0.014c-0.115-0.143-0.292-0.391-0.239-0.49
			c1.145-2.166,2.351-4.3,3.47-6.479c0.399-0.778,0.669-1.64,0.877-2.492c0.161-0.66-0.292-1.34-0.896-1.639
			c-0.552-0.271-1.135-0.253-1.572,0.13c-0.751,0.655-1.484,1.356-2.107,2.132c-1.396,1.74-2.63,3.597-3.571,5.635
			c-0.045,0.096-0.382,0.15-0.519,0.088c-0.183-0.082-0.403-0.287-0.428-0.463c-0.041-0.305-0.032-0.678,0.11-0.936
			c1.031-1.847,2.106-3.671,3.154-5.508c0.553-0.967,1.123-1.926,1.601-2.929c0.325-0.685-0.006-1.647-0.586-2.113
			c-0.567-0.456-1.586-0.501-2.186-0.017c-0.863,0.698-1.678,1.453-2.521,2.174c-0.067,0.058-0.263,0.086-0.281,0.056
			c-0.111-0.182-0.298-0.413-0.254-0.57c0.147-0.525,0.319-1.062,0.594-1.528c1.352-2.307,2.774-4.572,4.1-6.896
			c0.545-0.955,0.969-1.991,1.329-3.033c0.24-0.698-0.132-1.511-0.629-1.755c-0.649-0.318-1.356-0.334-1.907,0.1
			c-0.87,0.684-1.644,1.49-2.462,2.241c-0.545,0.497-0.811,1.313-1.643,1.489c0.009,0.032,0.013,0.063,0.024,0.097
			c-0.052,0.007-0.108,0.007-0.162,0.012c-0.075,0.085-0.15,0.171-0.225,0.257c0.026-0.077,0.032-0.193,0.085-0.224
			c0.041-0.021,0.089-0.029,0.14-0.033c0.027-0.031,0.054-0.062,0.081-0.093c0.021-0.004,0.036-0.012,0.056-0.016
			c-0.192-0.684,0.177-1.224,0.522-1.758c1.09-1.68,2.214-3.339,3.285-5.032c0.593-0.938,1.128-1.914,1.64-2.899
			c0.201-0.385,0.41-0.863,0.352-1.26c-0.073-0.508-0.316-1.067-0.665-1.434c-0.409-0.432-1.071-0.393-1.545-0.055
			c-0.721,0.513-1.379,1.117-2.036,1.716c-0.574,0.52-1.105,1.085-1.665,1.623c-0.063,0.059-0.215,0.1-0.277,0.064
			c-0.086-0.049-0.184-0.188-0.171-0.272c0.084-0.539,0.098-1.119,0.318-1.604c1.603-3.546,3.237-7.082,4.89-10.604
			c0.473-1.008,1.075-1.952,1.543-2.962c0.226-0.488,0.334-1.05,0.391-1.592c0.085-0.806-0.662-1.526-1.466-1.436
			c-0.433,0.052-0.859,0.188-1.28,0.313c-0.393,0.114-0.777,0.263-1.165,0.4c0.008,0.031,0.009,0.06,0.019,0.091
			c-0.052,0.017-0.107,0.029-0.161,0.045c-0.061,0.084-0.123,0.168-0.184,0.252c0.021-0.069,0.021-0.169,0.067-0.201
			c0.033-0.024,0.074-0.038,0.116-0.051c0.028-0.039,0.057-0.078,0.085-0.116c0.019-0.007,0.038-0.013,0.057-0.02
			c-0.271-1.04,0.348-1.884,0.692-2.77c0.454-1.16,0.794-2.321,0.627-3.575c-0.026-0.203-0.145-0.477-0.306-0.56
			c-0.143-0.075-0.434,0.01-0.6,0.116c-0.654,0.421-1.282,0.881-1.929,1.314c-0.053,0.037-0.228,0.003-0.249-0.044
			c-0.081-0.186-0.218-0.42-0.165-0.578c0.102-0.308,0.272-0.619,0.493-0.857c2.265-2.476,4.64-4.795,7.717-6.307
			c3.8-1.867,7.528-3.879,11.295-5.811c3.961-2.029,7.814-4.268,11.883-6.109c2.317-1.051,4.424-2.579,6.578-3.966
			c1.177-0.757,2.343-0.999,3.768-0.979c2.223,0.033,4.372,0.68,6.645,0.446c1.568-0.161,2.77,0.796,3.638,2.397
			c1.904,3.512,1.894,7.023,0.673,10.649c-0.279,0.831-0.779,1.593-1.236,2.354c-0.341,0.572-0.764,1.1-1.163,1.635
			c-3.079,4.12-3.026,4.232-7.787,6.484c-4.822,2.282-9.622,4.649-14.87,5.914c-1.468,0.353-2.753,0.415-4.227,0.004
			c-3.778-1.059-7.544,0.531-9.392,3.962c-1.301,2.414-1.792,5.002-0.779,7.722c0.941,2.524,2.838,4.004,5.491,4.139
			c2.447,0.124,4.76-0.419,6.388-2.282c1.287-1.472,2.885-1.989,4.611-2.421c0.43-0.107,0.884-0.154,1.327-0.152
			c0.958,0.004,1.804-1.021,2.832-0.302c-0.633,0.762-1.213,1.578-1.911,2.278c-2.046,2.057-4.187,4.019-6.194,6.111
			c-0.992,1.032-1.938,1.629-3.473,1.407c-2.201-0.318-4.167,0.531-5.929,1.817c-2.55,1.865-3.414,4.585-3.686,7.554
			c-0.237,2.589,0.67,4.814,2.378,6.738c3.092,3.482,8.935,4.279,12.732,0.201c1.69-1.818,3.082-3.861,2.988-6.515
			c-0.04-1.113,0.468-1.862,1.186-2.632c2.134-2.293,4.337-4.497,6.967-6.228c0.465-0.306,0.957-0.572,1.444-0.841
			c0.087-0.049,0.274-0.062,0.319-0.011c0.116,0.137,0.283,0.353,0.247,0.479c-0.988,3.307-1.803,6.684-3.062,9.886
			c-1.144,2.911-2.107,5.855-2.893,8.87c-0.171,0.653-0.503,1.199-1.167,1.541c-2.605,1.338-3.937,3.907-5.599,6.098
			c-1.181,1.556-1.285,3.536-0.403,5.415c0.285,0.604,0.681,1.162,0.904,1.787c0.93,2.602,2.822,4.18,5.287,5.253
			c2.598,1.13,5.204,1.109,7.799,0.156c5.24-1.924,9.171-8.87,5.319-15.211c-0.569-0.937-0.634-1.77-0.562-2.808
			c0.141-2.012,0.211-3.992,1.225-5.824c0.707-1.276,1.42-2.526,2.48-3.549c0.883-0.851,1.759-1.71,2.652-2.551
			c0.871-0.82,1.615-1.83,2.909-2.057c0.488,0.992,0.983,1.981,1.462,2.977c0.24,0.501,0.366,1.086,0.698,1.509
			c0.818,1.042,0.997,2.179,0.864,3.457c-0.197,1.913,0.566,3.454,1.947,4.766c1.297,1.229,2.659,2.323,4.23,3.223
			c1.59,0.912,3.152,1.093,4.778,0.458c1.85-0.725,3.816-1.266,5.168-2.924c1.057-1.294,3.198-6.594,3.306-8.259
			c0.132-2.021-0.443-3.771-1.988-5.098c-0.922-0.792-1.885-1.622-2.975-2.108c-1.166-0.521-1.652-1.277-1.973-2.445
			c-0.794-2.897-1.765-5.745-2.599-8.632c-1.257-4.347-0.88-8.559,1.021-12.683c1.975-4.286,5.112-7.527,8.836-10.281
			c2.012-1.488,4.354-2.219,6.717-2.891c0.834-0.236,1.577,0.051,2.141,0.631c0.537,0.552,1.051,1.17,1.408,1.849
			c1.731,3.283,2.904,6.686,2.828,10.513c-0.119,6.021,0.023,12.05,0.014,18.074c-0.005,3.904,0.107,7.799,0.598,11.677
			C108.26,72.062,108.254,73.253,107.623,74.424z"/>
	</g>
</g>
</svg>
