<?xml version="1.0" encoding="utf-8"?>
<!-- Generator: Adobe Illustrator 16.0.0, SVG Export Plug-In . SVG Version: 6.00 Build 0)  -->
<!DOCTYPE svg PUBLIC "-//W3C//DTD SVG 1.1//EN" "http://www.w3.org/Graphics/SVG/1.1/DTD/svg11.dtd">
<svg version="1.1" id="Layer_1" xmlns="http://www.w3.org/2000/svg" xmlns:xlink="http://www.w3.org/1999/xlink" x="0px" y="0px"
	 width="120px" height="120px" viewBox="0 0 120 120" style="enable-background:new 0 0 120 120;" xml:space="preserve">
<g id="codeschool">
	<g>
		<path style="fill-rule:evenodd;clip-rule:evenodd;" d="M115.069,58.144c-0.125-2.312-0.144-4.618-0.507-6.927
			c-0.391-2.508-0.307-5.062-0.874-7.584c-1.58-7.037-4.591-13.345-9.187-18.887c-2.294-2.768-4.776-5.384-6.984-8.215
			c-2.289-2.936-5.145-4.979-8.557-6.334c-0.538-0.215-1.076-0.429-1.611-0.648c-1.283-0.527-2.525-1.072-3.643-1.974
			c-1.258-1.017-2.773-1.597-4.41-1.94c-3.801-0.799-7.577-0.856-11.384-0.102c-1.929,0.385-3.866,0.749-5.814,1.002
			c-1.948,0.252-3.915,0.37-5.875,0.519c-6.239,0.468-11.921,2.771-17.521,5.317c-2.107,0.96-4.119,2.127-6.237,3.059
			c-5.38,2.365-10.083,5.711-14.254,9.801c-1.233,1.209-2.419,2.559-3.262,4.05c-2.342,4.135-4.539,8.354-6.697,12.588
			c-1.158,2.276-2.004,4.7-2.418,7.229c-0.675,4.127-0.788,8.301-0.921,12.53c0.098,4.346-0.078,8.786,0.872,13.113
			c0.642,2.916,1.672,5.75,2.533,8.617c0.033,0.108,0.123,0.197,0.177,0.299c0.708,1.332,1.422,2.659,2.118,3.996
			c1.988,3.814,4.067,7.562,7.218,10.585c4.124,3.955,8.4,7.67,14.104,9.219c0.665,0.18,1.284,0.528,1.938,0.768
			c5.873,2.154,11.75,4.277,18.047,4.888c1.841,0.179,3.689,0.414,5.496,0.804c3.415,0.735,6.847,1.044,10.341,1.082
			c3.384,0.039,6.697-0.544,10.045-0.809c4.156-0.326,7.833-1.959,10.955-4.781c2.406-2.176,4.84-4.321,7.256-6.485
			c0.258-0.233,0.48-0.505,0.715-0.762c1.174-1.284,2.307-2.608,3.525-3.847c4.886-4.973,8.332-10.833,10.566-17.394
			c1.043-3.063,1.91-6.203,2.611-9.363C114.408,67.15,115.318,62.719,115.069,58.144z M105.303,65.168
			c-0.072,1.523-0.299,3.012-0.856,4.412c-1.755,4.409-3.431,8.857-5.413,13.164c-1.4,3.037-3.181,5.91-4.93,8.771
			c-0.65,1.062-1.604,1.998-2.581,2.793c-3.776,3.074-7.727,5.916-11.876,8.468c-2.688,1.652-5.637,2.62-8.717,3.316
			c-3.09,0.699-6.197,0.775-8.434,0.767c-7.791,0.106-14.459-1.361-21.087-3.016c-1.205-0.303-2.364-0.968-3.42-1.654
			c-5.281-3.439-9.868-7.679-14.042-12.38c-2.023-2.278-3.581-4.856-4.669-7.688c-2.04-5.311-3.539-10.758-3.908-16.477
			c-0.126-1.961-0.47-3.904-0.641-5.861c-0.21-2.446,0.057-4.838,0.74-7.216c0.866-3.005,1.675-6.029,3.054-8.844
			c0.811-1.66,1.639-3.355,2.747-4.817c4.529-5.981,9.926-10.996,16.682-14.424c1.446-0.734,2.953-1.395,4.279-2.31
			c1.97-1.362,4.17-2.014,6.452-2.41c3.529-0.61,7.101-0.984,10.622-1.637c2.76-0.511,5.518-0.625,8.299-0.515
			c0.923,0.038,1.855,0.093,2.762,0.265c1.391,0.261,2.75,0.284,4.124-0.1c1.612-0.451,3.171-0.225,4.776,0.254
			c3.416,1.018,6.265,2.946,8.947,5.187c0.179,0.148,0.331,0.328,0.509,0.477c3.494,2.926,6.384,6.252,8.375,10.469
			c1.677,3.549,3.776,6.914,5.194,10.593c0.873,2.259,1.501,4.612,2.223,6.928c0.102,0.328,0.139,0.684,0.164,1.029
			C104.984,56.858,105.503,60.992,105.303,65.168z M94.688,56.782c-1.093-1.354-2.445-2.455-3.679-3.666
			c-1.209-1.187-1.908-2.878-2.938-4.268c-1.518-2.046-3.125-4.026-4.709-6.025c-1.008-1.271-1.963-2.597-3.076-3.77
			c-3.031-3.202-6.13-6.339-9.213-9.487c-0.32-0.326-0.705-0.598-1.096-0.837c-0.988-0.61-1.889-0.345-2.228,0.694
			c-0.888,2.736-0.729,5.719-1.982,8.383c-0.23,0.493-0.146,1.142-0.187,1.72c-0.148,2.062,0.096,4.146-0.732,6.163
			c-0.351,0.854-0.045,1.827,0.94,2.378c0.491,0.273,0.985,0.597,1.37,1.003c2.959,3.105,5.892,6.238,8.834,9.361
			c1.094,1.158,1.187,1.785,0.414,3.062c-0.296,0.491-0.673,0.94-0.93,1.451c-1.91,3.808-4.975,6.661-7.922,9.61
			c-0.24,0.24-0.55,0.446-0.865,0.569c-1.581,0.616-2.569,1.939-3.732,3.057c-0.545,0.521-0.75,1.158-0.705,1.885
			c0.062,1.026,0.232,2.056,0.203,3.079c-0.049,1.732-0.219,3.462-0.338,5.194c0.023,0.002,0.047,0.005,0.068,0.007
			c0,1.394,0.055,2.789-0.015,4.177c-0.076,1.488,0.892,2.558,2.151,2.75c2.09,0.318,4.151,0.236,5.875-1.353
			c1.789-1.653,3.74-3.135,5.479-4.835c4.971-4.867,10.162-9.52,14.648-14.865c0.442-0.526,1.018-0.944,1.555-1.383
			c2.194-1.787,3.687-4.148,5.238-6.451c1.008-1.495,0.932-3.07-0.125-4.549C96.252,58.801,95.488,57.775,94.688,56.782z
			 M71.087,80.925c-0.01,0.1-0.106,0.188-0.161,0.284c-0.121-0.11-0.332-0.21-0.346-0.333c-0.043-0.405-0.03-0.818-0.032-1.229
			c-0.03-0.01-0.054-0.021-0.088-0.029c0-0.046,0.003-0.093,0.004-0.14c-0.152-0.11-0.33-0.21-0.388-0.358
			c-0.065-0.168,0.047-0.406,0.081-0.612c0.1,0.143,0.249,0.272,0.286,0.432c0.04,0.172,0.027,0.356,0.021,0.539
			c0.028,0.021,0.059,0.041,0.084,0.062v0.106C71.206,79.843,71.133,80.396,71.087,80.925z M75.301,77.079
			c-0.145,0.144-0.443,0.321-0.568,0.263c-0.26-0.121-0.589-0.355-0.646-0.602c-0.254-1.097-0.426-2.213-0.641-3.403
			c0.201-0.362,0.356-0.807,0.657-1.103c0.155-0.153,0.767-0.153,0.835-0.03c0.384,0.68,0.639,1.432,0.988,2.134
			C76.471,75.436,76.074,76.302,75.301,77.079z M89.051,62.043c-0.939,1.929-2.477,3.317-4.12,4.614
			c-0.421,0.331-0.816,0.31-1.228-0.025c-0.356-0.288-0.699-0.631-1.11-0.802c-0.573-0.238-1.14-0.072-1.548,0.425
			c-0.375,0.454-0.698,0.977-0.426,1.572c0.237,0.521,0.618,0.972,0.896,1.476c0.098,0.182,0.19,0.528,0.1,0.627
			c-0.774,0.834-1.589,1.633-2.419,2.414c-0.031,0.029-0.442-0.199-0.506-0.373c-0.234-0.632-0.398-1.291-0.422-1.374
			c-0.111-1.803,0.254-2.838,0.998-3.808c1.688-2.205,3.342-4.416,5.917-5.705c0.462-0.229,0.534-0.766,0.21-1.186
			c-0.344-0.443-0.715-0.938-1.19-1.193c-1.57-0.846-2.761-2.048-3.779-3.491c-1.331-1.886-2.756-3.705-4.126-5.564
			c-0.479-0.65-0.934-1.321-1.371-2.001c-0.548-0.85-1.834-1.27-1.728-2.457c0.078-0.892,0.509-1.752,0.805-2.617
			c0.12-0.354,0.409-0.575,0.745-0.318c0.455,0.35,0.857,0.773,1.26,1.184c1.373,1.406,2.717,2.843,4.109,4.229
			c1.887,1.881,3.628,3.86,5.07,6.125c1.053,1.649,2.342,3.151,3.562,4.689C89.65,59.622,89.66,60.789,89.051,62.043z
			 M60.149,30.492c-0.939-0.62-2.03-0.495-3.18,0.408c-4.732,3.719-9.535,7.355-13.822,11.604c-2.222,2.205-4.464,4.386-6.7,6.574
			c-2.406,2.354-4.687,4.81-6.453,7.708c-0.539,0.884-1.161,1.747-1.883,2.482c-0.635,0.646-0.813,1.353-0.845,2.186
			c-0.053,1.312,0.271,2.526,0.914,3.656c0.573,1.007,1.243,1.964,1.745,3.002c1.727,3.575,4.088,6.72,6.566,9.782
			c2.84,3.51,5.71,6.997,8.596,10.469c0.588,0.707,1.275,1.344,1.974,1.943c1.225,1.055,2.489,2.062,3.75,3.073
			c0.722,0.578,1.449,1.152,2.209,1.675c1.37,0.947,3.561-0.09,3.633-1.776c0.132-3.115,0.382-6.227,0.635-9.335
			c0.112-1.376,0.37-2.741,0.518-4.113c0.063-0.566,0.233-1.275-0.019-1.694c-1.186-1.972-1.631-4.322-3.3-6.059
			c-2.086-2.171-4.041-4.465-6.044-6.716c-0.845-0.949-1.671-1.919-2.501-2.885c-0.361-0.421-0.318-0.833,0.083-1.203
			c0.938-0.859,1.888-1.709,2.822-2.574c0.934-0.865,1.896-1.705,2.775-2.62c1.926-2.004,3.735-4.124,5.732-6.049
			c1.601-1.54,2.404-3.327,2.601-5.491c0.145-1.609,0.431-3.206,0.621-4.812c0.256-2.183,0.48-4.367,0.718-6.551
			C61.506,32.037,61.111,31.127,60.149,30.492z M50.169,79.736c0.056-0.051,0.443,0.137,0.56,0.295
			c0.193,0.267,0.294,0.602,0.377,0.779c0.046,1.074-0.443,1.707-1.186,2.113c-0.23,0.127-0.65,0.016-0.934-0.104
			c-0.17-0.072-0.358-0.373-0.35-0.561C48.689,81.156,49.424,80.428,50.169,79.736z M37.46,65.711
			c-0.328,0.292-0.723,0.508-1.217,0.85c-0.455-0.516-0.89-0.888-1.148-1.358c-0.11-0.202,0.055-0.692,0.254-0.901
			c0.557-0.585,1.18-1.113,1.811-1.621c0.439-0.354,0.587,0.1,0.726,0.373C38.636,64.545,38.619,64.68,37.46,65.711z M41.933,72.38
			c-0.234,0.235-0.515,0.419-0.753,0.612c-0.247-0.083-0.52-0.09-0.623-0.225c-0.408-0.538-0.812-1.091-1.111-1.692
			c-0.12-0.239-0.059-0.686,0.095-0.921c0.307-0.464,0.716-0.869,1.123-1.256c0.468-0.445,0.995-0.36,1.44,0.178
			C43.428,70.683,43.422,70.881,41.933,72.38z M46.539,74.696c0.384,0.427,0.754,0.866,1.095,1.326
			c0.119,0.161,0.133,0.397,0.195,0.599c-0.052,0.103-0.079,0.233-0.159,0.301c-0.436,0.365-0.868,0.742-1.339,1.062
			c-0.628,0.424-1.153,0.277-1.773-0.404c-0.437-0.483-0.534-0.995-0.151-1.544c0.327-0.472,0.668-0.934,1.018-1.387
			C45.721,74.258,46.158,74.271,46.539,74.696z M53.666,46.208c-3.033,2.186-5.31,5.169-8.042,7.675
			c-2.22,2.036-4.457,4.056-6.674,6.095c-0.536,0.493-1.108,0.813-1.864,0.763c-0.833-0.057-1.56,0.225-2.309,0.607
			c-0.597,0.308-0.995,1.709-1.83,0.756c-0.525-0.601,0.57-1.075,0.892-1.636c2.49-4.34,6.613-7.096,10.117-10.441
			c2.017-1.925,4.079-3.795,5.69-6.085c1.099-1.561,2.736-2.469,4.198-3.59c0.061-0.046,0.444,0.143,0.457,0.246
			c0.095,0.803,0.134,1.611,0.188,2.396c0,0.489-0.007,0.955,0.002,1.419C54.509,45.146,54.304,45.748,53.666,46.208z"/>
	</g>
</g>
</svg>
