<?xml version="1.0" encoding="utf-8"?>
<!-- Generator: Adobe Illustrator 16.0.0, SVG Export Plug-In . SVG Version: 6.00 Build 0)  -->
<!DOCTYPE svg PUBLIC "-//W3C//DTD SVG 1.1//EN" "http://www.w3.org/Graphics/SVG/1.1/DTD/svg11.dtd">
<svg version="1.1" id="Layer_1" xmlns="http://www.w3.org/2000/svg" xmlns:xlink="http://www.w3.org/1999/xlink" x="0px" y="0px"
	 width="120px" height="120px" viewBox="0 0 120 120" style="enable-background:new 0 0 120 120;" xml:space="preserve">
<g id="html5">
	<g>
		<path style="fill-rule:evenodd;clip-rule:evenodd;" d="M102.134,10.109c-0.658,0.131-1.306,0.343-1.97,0.416
			c-3.785,0.42-7.57,0.888-11.366,1.178c-1.892,0.144-3.817,0.031-5.716-0.121c-2.797-0.222-5.574-0.763-8.372-0.847
			c-4.495-0.138-9.016-0.236-13.494,0.072c-3.595,0.248-7.184,0.423-10.775,0.374c-10.122-0.143-20.227,0.275-30.334,0.68
			c-0.9,0.037-1.801,0.039-2.701,0.072c-0.448,0.016-0.91,0.012-1.339,0.119c-1.03,0.261-2.17,1.567-1.778,2.837
			c0.84,2.705,0.923,5.51,0.988,8.313c0.093,3.823,0.111,7.652,0.325,11.47c0.306,5.492,0.75,10.979,1.152,16.465
			c0.255,3.473,0.516,6.944,0.819,10.412c0.186,2.124,0.399,4.249,0.704,6.358c0.557,3.885,1.173,7.762,1.795,11.636
			c0.73,4.54,1.487,9.079,2.251,13.613c0.185,1.099,0.257,2.27,0.711,3.255c0.516,1.118,1.904,1.024,2.909,1.474
			c0.292,0.129,0.534,0.404,0.754,0.653c0.405,0.456,0.902,0.581,1.491,0.629c0.66,0.051,1.333,0.158,1.957,0.367
			c6.708,2.248,13.423,4.467,19.782,7.629c1.8,0.895,3.727,1.555,5.637,2.195c1.047,0.352,2.182,0.438,3.26,0.641
			c1.611-0.261,3.175-0.434,4.699-0.782c2.074-0.479,4.137-1.036,6.169-1.665c5.783-1.793,11.726-3.158,16.989-6.35
			c0.562-0.341,1.241-0.633,1.885-0.68c2.799-0.205,5.101-1.521,7.387-2.985c1.286-0.823,1.83-1.865,1.83-3.347
			c0.004-1.687,0.072-3.377,0.197-5.06c0.34-4.589,0.715-9.177,1.098-13.762c0.271-3.245,0.506-6.496,0.887-9.729
			c0.526-4.454,1.186-8.894,1.768-13.344c0.684-5.226,1.348-10.457,2.016-15.688c0.242-1.892,0.564-3.78,0.682-5.681
			c0.256-4.147,0.943-8.265,0.899-12.436c-0.006-0.664,0.187-1.33,0.247-1.998c0.103-1.118,0.252-2.237,0.238-3.355
			C105.783,10.69,104.469,9.641,102.134,10.109z M99.938,20.805c-0.257,1.609-0.641,4.047-1.032,6.482
			c-0.338,2.105-0.707,4.205-1.02,6.313c-0.656,4.439-1.309,8.88-1.918,13.327c-0.336,2.446-0.562,4.909-0.874,7.36
			c-0.341,2.671-0.743,5.333-1.085,8.004c-0.283,2.229-0.556,4.458-0.766,6.692C92.93,72.34,92.663,75.7,92.391,79.06
			c-0.207,2.575-0.361,5.154-0.611,7.724c-0.064,0.638-0.33,1.295-0.649,1.861c-0.788,1.389-1.4,2.814-1.491,4.432
			c-0.033,0.614-0.342,1.096-0.973,1.204c-1.805,0.314-3.438,1.097-4.987,1.99c-4.325,2.501-9.022,4.017-13.78,5.37
			c-2.819,0.801-5.571,1.751-8.189,3.063c-0.648,0.327-1.188,0.288-1.899,0.125c-3.533-0.808-6.844-2.153-10.06-3.788
			c-4.02-2.047-8.26-3.515-12.591-4.741c-0.756-0.216-1.506-0.452-2.26-0.679c-0.697-0.208-1.205-0.576-1.234-1.387
			c-0.009-0.221-0.02-0.457-0.102-0.661c-0.352-0.879-1.35-1.387-2.196-1.05c-0.727,0.29-1.387,0.746-2.116,1.029
			c-0.212,0.082-0.752-0.113-0.81-0.287c-0.503-1.547-0.609-3.072,0.505-4.456c0.563-0.7,1.181-1.387,1.59-2.174
			c0.29-0.561,0.385-1.286,0.365-1.929c-0.036-1.074-1.367-1.621-2.283-0.964c-0.353,0.253-0.582,0.674-0.915,0.958
			c-0.072,0.061-0.493-0.095-0.528-0.217c-0.503-1.741-0.94-3.46,0.491-5.055c0.669-0.748,1.173-1.648,1.721-2.498
			c0.304-0.471,0.578-0.966,0.806-1.478c0.345-0.778,0.152-1.685-0.423-2.164c-0.567-0.472-1.229-0.587-1.891-0.304
			c-0.614,0.264-1.171,0.66-1.778,0.943c-0.122,0.056-0.452-0.086-0.526-0.224c-0.67-1.22-0.851-2.563-0.729-3.914
			c0.047-0.516,0.4-1.044,0.721-1.487c0.855-1.184,1.758-2.336,2.665-3.482c0.508-0.643,0.777-1.346,0.803-2.167
			c0.033-0.996-0.82-1.644-1.803-1.397c-0.939,0.233-1.511,0.925-2.177,1.525c-0.224,0.201-0.727,0.453-0.816,0.371
			c-0.294-0.269-0.579-0.659-0.648-1.042c-0.357-1.946-0.158-3.771,1.122-5.425c0.822-1.062,1.462-2.264,2.173-3.41
			c0.234-0.378,0.471-0.765,0.637-1.174c0.37-0.907-0.312-1.805-1.341-1.835c-0.817-0.024-1.51,0.196-2.19,0.691
			c-0.974,0.711-1.367,0.453-1.584-0.708c-0.142-0.746,0.103-1.363,0.462-1.907c1.241-1.872,2.545-3.702,3.833-5.543
			c0.257-0.367,0.69-0.68,0.776-1.076c0.11-0.503,0.04-1.097-0.121-1.595c-0.144-0.443-0.964-0.561-1.504-0.355
			c-1.317,0.502-2.269,1.424-3.041,2.57c-0.201,0.298-0.525,0.461-0.793,0.152c-0.204-0.234-0.427-0.643-0.354-0.888
			c0.222-0.739,0.503-1.485,0.907-2.139c1.299-2.104,2.676-4.162,3.999-6.252c0.357-0.566,0.692-1.16,0.933-1.782
			c0.207-0.534,0.137-1.104-0.265-1.578c-0.372-0.438-1.317-0.627-1.868-0.32c-0.388,0.216-0.785,0.46-1.084,0.779
			c-0.537,0.57-0.994,1.216-1.51,1.809c-0.111,0.128-0.384,0.28-0.474,0.229c-0.173-0.101-0.296-0.322-0.389-0.518
			c-0.522-1.115-0.403-2.188,0.284-3.196c0.823-1.208,1.663-2.406,2.49-3.612c0.382-0.555,0.784-1.101,1.122-1.682
			c0.637-1.096,0.523-2.301-0.245-3.122c-0.839-0.896-1.664-0.974-3.021-0.277c-0.29,0.147-0.552,0.379-0.854,0.452
			c-0.129,0.031-0.407-0.207-0.491-0.383c-0.606-1.27-0.129-2.149,1.146-1.952c2.568,0.398,5.151,0.639,7.729,0.43
			c9.662-0.783,19.342-0.193,29.011-0.481c4.5-0.135,9.003-0.11,13.505-0.119c2.359-0.006,4.697,0.221,7.052,0.491
			c3.116,0.357,6.288,0.251,9.438,0.279c2.023,0.019,4.05-0.056,6.074-0.131c0.894-0.033,1.8-0.095,2.672-0.28
			C99.623,17.875,100.027,17.846,99.938,20.805z M81.288,29.262c-1.729,0.499-3.452,1.066-5.271,1.041
			c-3.153-0.043-6.293,0.087-9.43,0.399c-3.463,0.347-6.954,0.488-10.399,0.965c-4.008,0.555-8.013,1.04-12.057,1.231
			c-1.107,0.051-2.265,0.219-3.289,0.618c-1.166,0.454-2.223,0.81-3.533,0.605c-1.294-0.199-2.132,0.659-2.256,1.956
			c-0.074,0.78-0.098,1.582-0.01,2.358c0.263,2.342,0.573,4.678,0.898,7.014c0.341,2.444,0.682,4.89,1.093,7.323
			c0.429,2.544,0.917,5.079,1.426,7.609c0.259,1.289,0.938,2.447,2.28,2.662c2.643,0.421,5.241,1.225,7.977,1.01
			c1.907-0.152,3.832-0.088,5.733-0.273c2.679-0.261,5.344-0.651,8.013-1.009c2.556-0.341,5.107-0.711,7.658-1.066
			c0.01,0.058,0.02,0.117,0.026,0.177h0.338c3.399-0.021,3.269-0.097,3.032,3.416c-0.06,0.893-0.25,1.777-0.365,2.667
			c-0.318,2.446-1.196,4.804-1.145,7.312c0.01,0.486-0.35,0.89-0.847,0.834c-1.735-0.191-3.354,0.333-4.96,0.801
			c-1.721,0.504-3.386,1.204-5.067,1.837c-1.253,0.472-2.492,1.342-3.743,1.353c-1.257,0.01-2.522-0.818-3.78-1.297
			c-1.363-0.52-2.729-1.035-4.076-1.596c-0.798-0.333-1.249-0.962-1.165-1.855c0.072-0.772,0.181-1.547,0.333-2.307
			c0.088-0.434,0.359-0.83,0.441-1.262c0.314-1.65-1.054-3.176-2.722-3.061c-0.333,0.023-0.692,0.043-0.988,0.177
			c-0.985,0.447-1.899,0.481-2.904-0.042c-0.65-0.337-1.332-0.021-1.776,0.575c-0.471,0.631-0.967,1.262-1.303,1.962
			c-0.223,0.467-0.405,1.152-0.222,1.577c0.619,1.44,0.372,2.856,0.203,4.31c-0.156,1.337-0.279,2.688-0.265,4.029
			c0.008,0.759,0.271,1.531,0.522,2.263c0.228,0.665,0.74,1.197,1.455,1.267c2.289,0.217,4.261,1.385,6.395,2.062
			c3.312,1.048,6.652,2.025,9.765,3.656c1.419,0.746,2.968,0.722,4.518-0.12c1.97-1.069,3.994-2.108,6.107-2.826
			c4.382-1.49,8.206-4.192,12.622-5.598c1.525-0.486,2.249-1.729,2.288-3.388c0.084-3.486,0.379-6.964,0.107-10.461
			c-0.191-2.467-0.088-4.927,0.379-7.39c0.443-2.331,0.562-4.713-0.973-6.814c-0.123-0.166-0.079-0.445-0.166-0.648
			c-0.633-1.466-1.924-2.312-3.495-1.945c-2.12,0.49-4.253,0.375-6.383,0.467c-1.124,0.049-2.258,0.003-3.373,0.13
			c-5.138,0.578-10.299,0.863-15.459,1.16c-1.679,0.098-3.353,0.287-5.026,0.464c-1.151,0.122-1.744-0.264-1.894-1.362
			c-0.35-2.56-0.683-5.12-1.011-7.683c-0.108-0.839-0.03-0.986,0.823-1.102c2.893-0.396,5.792-0.747,8.686-1.116
			c4.121-0.523,8.267-0.907,12.353-1.622c2.582-0.453,5.148-0.514,7.727-0.481c2.572,0.031,5.16-0.317,7.715,0.452
			c1.264,0.38,2.512-0.577,2.655-1.93c0.259-2.463,0.39-4.924-0.412-7.348C84.452,29.461,83.229,28.701,81.288,29.262z"/>
	</g>
</g>
</svg>
