<?xml version="1.0" encoding="utf-8"?>
<!-- Generator: Adobe Illustrator 16.0.0, SVG Export Plug-In . SVG Version: 6.00 Build 0)  -->
<!DOCTYPE svg PUBLIC "-//W3C//DTD SVG 1.1//EN" "http://www.w3.org/Graphics/SVG/1.1/DTD/svg11.dtd">
<svg version="1.1" id="Layer_1" xmlns="http://www.w3.org/2000/svg" xmlns:xlink="http://www.w3.org/1999/xlink" x="0px" y="0px"
	 width="120px" height="120px" viewBox="0 0 120 120" style="enable-background:new 0 0 120 120;" xml:space="preserve">
<g id="css3">
	<g>
		<path style="fill-rule:evenodd;clip-rule:evenodd;" d="M106.152,13.267c-0.312-0.953-0.775-1.669-1.773-1.951
			c-3.018-0.852-6.086-1.656-9.222-1.167c-3.351,0.52-6.706,0.513-10.059,0.521c-19.958,0.061-39.917,0.049-59.876,0.061
			c-1.392,0-2.791-0.061-4.175,0.049c-0.782,0.062-1.605,0.294-2.297,0.663c-1.428,0.763-1.643,2.732-0.427,3.845
			c0.483,0.442,1.157,0.76,1.796,0.932c2.37,0.64,4.812,0.685,7.249,0.685c18.914,0,37.829,0.009,56.744-0.014
			c2.313-0.003,4.643,0.06,6.914-0.581c0.438-0.123,0.926-0.153,1.381-0.115c2.188,0.193,4.369,0.416,6.551,0.661
			c0.168,0.019,0.453,0.308,0.438,0.447c-0.164,1.611-0.328,3.228-0.588,4.827c-0.536,3.311-1.247,6.596-1.677,9.919
			c-0.639,4.936-1.116,9.894-1.622,14.844c-0.296,2.879-0.516,5.769-0.769,8.651c-0.376,4.266-0.869,8.525-1.101,12.799
			c-0.377,6.946-0.581,13.9-0.859,20.85c-0.027,0.694-0.053,1.392-0.098,2.086c-0.022,0.346,0,0.731-0.148,1.023
			c-0.252,0.496-0.521,1.109-0.961,1.359c-1.303,0.74-2.631,1.619-4.059,1.913c-3.792,0.78-7.223,2.458-10.768,3.872
			c-1.502,0.601-3.049,1.1-4.598,1.574c-0.208,0.062-0.661-0.223-0.795-0.462c-0.218-0.39-0.199-0.909-0.398-1.313
			c-0.397-0.805-1.43-1.006-2.041-0.386c-0.648,0.657-1.23,1.381-1.812,2.102c-0.356,0.44-0.629,0.955-0.995,1.388
			c-0.119,0.137-0.437,0.198-0.631,0.154c-0.178-0.041-0.437-0.259-0.449-0.415c-0.058-0.684,0.006-1.376-0.056-2.058
			s-0.962-1.154-1.599-0.834c-0.511,0.258-0.965,0.629-1.455,0.934c-0.707,0.439-0.928,0.432-1.246-0.421
			c-0.569-1.522-1.445-2.161-3.167-1.935c-1.216,0.159-2.533-0.555-3.73,0.181c-0.825,0.504-1.167-0.012-1.72-0.483
			c-0.919-0.783-1.654-0.676-2.408,0.139c-0.235,0.254-0.411,0.561-0.619,0.84c-0.568,0.762-1.333,0.85-2.178,0.615
			c-0.333-0.094-0.675-0.195-0.972-0.368c-0.383-0.224-0.823-0.456-1.049-0.808c-0.131-0.206,0.122-0.647,0.178-0.987
			c0.184-1.116-0.122-1.883-0.939-2.343c-0.709-0.396-1.355-0.142-1.948,0.268c-0.568,0.394-1.083,0.868-1.66,1.249
			c-0.274,0.181-0.647,0.326-0.963,0.308c-0.312-0.021-0.65-0.225-0.896-0.439c-0.109-0.095-0.092-0.451-0.007-0.629
			c0.344-0.722,0.854-1.391,1.073-2.145c0.159-0.549-0.23-1.102-0.752-1.451c-0.449-0.304-0.921-0.231-1.282,0.076
			c-0.705,0.6-1.351,1.269-2.02,1.91c-0.667,0.642-1.426,0.672-2.255,0.369c-0.648-0.238-0.95-0.791-0.634-1.32
			c0.651-1.095,1.395-2.139,1.987-3.264c0.683-1.299-0.018-2.439-1.554-2.701c-0.307-0.053-0.825-0.078-0.877-0.237
			c-0.688-2.096-1.396-4.193-0.139-6.362c0.395-0.682,0.709-1.465,0.832-2.239c0.213-1.339-0.313-1.976-1.774-2.486
			c-1.014-0.354-1.393-0.777-1.24-1.69c0.133-0.781,0.4-1.555,0.715-2.285c0.642-1.487,1.416-2.919,2.018-4.423
			c0.394-0.985-0.536-2.21-1.607-2.194c-0.563,0.008-1.139,0.163-1.684,0.33c-0.443,0.138-0.939,0.415-1.179-0.134
			c-0.166-0.377-0.183-0.95-0.012-1.319c0.487-1.047,1.122-2.025,1.67-3.044c0.492-0.915,0.996-1.827,1.396-2.783
			c0.246-0.587-0.083-1.124-0.504-1.561c-0.381-0.392-0.975-0.4-1.563,0c-0.285,0.194-0.505,0.485-0.794,0.671
			c-0.163,0.104-0.438,0.163-0.602,0.096c-0.103-0.043-0.176-0.39-0.119-0.547c0.318-0.866,0.741-1.698,1.002-2.578
			c0.171-0.573-0.004-1.156-0.65-1.427c-0.313-0.132-0.714-0.139-0.954-0.344c-0.473-0.399-0.035-0.854,0.111-1.23
			c0.54-1.405,1.161-2.778,1.72-4.178c0.167-0.421,0.273-0.876,0.336-1.326c0.099-0.688-0.809-1.342-1.417-0.992
			c-0.586,0.339-1.173,0.735-1.635,1.224c-0.549,0.581-0.947,1.303-1.452,1.93c-0.125,0.157-0.455,0.293-0.611,0.233
			c-0.151-0.058-0.238-0.373-0.288-0.59c-0.245-1.071,0.011-2.02,0.538-2.992c0.938-1.728,1.766-3.521,2.591-5.308
			c0.283-0.616-0.104-1.113-0.553-1.513c-0.401-0.36-0.858-0.284-1.281-0.044c-0.648,0.367-1.05,1.236-1.982,1.007
			c-0.005,0.018-0.008,0.036-0.013,0.054c-0.026,0.021-0.067,0.034-0.112,0.045c-0.047,0.139-0.094,0.277-0.142,0.417
			c-0.393-0.38-0.067-0.366,0.142-0.417c0.013-0.038,0.026-0.076,0.039-0.114c0.031,0.01,0.056,0.008,0.086,0.016
			c0.111-0.418,0.165-0.868,0.364-1.238c0.602-1.122,1.315-2.188,1.891-3.323c0.308-0.602,0.513-1.291,0.599-1.961
			c0.147-1.15-0.751-1.98-1.943-1.864c-0.453,0.044-0.921,0.14-1.338,0.319c-0.617,0.266-1.276,0.985-1.77,0.871
			c-0.955-0.221-0.622-1.346-0.809-2.08c-0.482-1.904-0.871-3.83-1.309-5.744c-0.438-1.92-0.809-3.857-1.375-5.738
			c-0.291-0.966-0.856-1.883-1.449-2.716c-0.595-0.835-1.903-0.599-2.207,0.388c-0.234,0.756-0.388,1.59-0.334,2.373
			c0.222,3.234,0.478,6.467,0.831,9.689c0.326,2.989,0.766,5.967,1.2,8.943c0.552,3.776,1.141,7.549,1.729,11.321
			c0.553,3.544,1.18,7.077,1.673,10.627c0.586,4.243,1.059,8.498,1.596,12.747c0.377,2.982,0.886,5.954,1.14,8.949
			c0.431,5.081,1.289,10.093,2.115,15.117c0.427,2.605,1.723,4.209,4.153,5.007c0.438,0.146,0.899,0.225,1.333,0.38
			c4.141,1.477,8.469,2.387,12.506,4.181c4.033,1.792,8.453,2.482,12.496,4.193c3.056,1.293,5.932,1.384,9.103,0.628
			c6.759-1.61,13.539-3.078,19.864-6.101c1.349-0.644,2.795-1.192,4.255-1.464c1.622-0.303,3.131-0.828,4.593-1.522
			c0.967-0.459,1.941-0.723,3.016-0.674c0.692,0.03,1.394,0.021,2.086-0.046c0.867-0.088,1.472-0.562,1.852-1.375
			c0.387-0.828,0.916-1.593,1.271-2.432c0.309-0.733,0.629-1.527,0.652-2.303c0.09-2.899,0.357-5.764,0.758-8.645
			c0.638-4.581,1.119-9.205,1.309-13.824c0.242-5.908,1.004-11.788,0.893-17.713c-0.039-2.085,0.008-4.183,0.193-6.259
			c0.287-3.226,0.855-6.429,1.07-9.656c0.333-4.972,0.937-9.924,0.916-14.921c-0.007-1.613,0.252-3.228,0.373-4.844
			C106.578,16.238,106.638,14.747,106.152,13.267z M69.994,44.791c1.662-0.813,3.383-1.508,5.049-2.315
			c2.597-1.256,4.917-3.052,7.741-3.888c0.589-0.175,1.301-0.779,1.475-1.338c0.358-1.142,1.056-2.039,1.61-3.045
			c1.735-3.145-0.157-6.578-3.693-6.727c-1.273-0.053-2.584-0.146-3.82,0.086c-2.994,0.557-6.004,0.457-9.014,0.472
			c-4.641,0.021-9.282-0.009-13.922,0.027c-4.176,0.032-8.368-0.069-12.519,0.271c-2.26,0.185-4.355,0.042-6.488-0.581
			c-0.763-0.222-1.59-0.309-2.388-0.305c-0.968,0.002-1.845,0.781-1.897,1.71c-0.119,2.084-0.021,4.164,0.595,6.181
			c0.453,1.484,1.427,2.354,3.048,2.354c3.826-0.002,7.651,0.04,11.474-0.03c1.381-0.025,2.751-0.428,4.132-0.47
			c3.595-0.113,7.191-0.123,10.787-0.157c0.455-0.004,0.914,0.1,1.367,0.172c0.088,0.015,0.233,0.129,0.227,0.182
			c-0.013,0.103-0.093,0.235-0.184,0.284c-0.708,0.394-1.426,0.771-2.145,1.152c-6.966,3.7-13.742,7.714-20.084,12.421
			c-1.109,0.823-2.165,1.745-3.124,2.738c-0.781,0.813-0.75,1.919,0.114,2.788c0.638,0.642,0.858,1.686,1.885,1.955
			c5.215,1.368,10.478,1.812,15.835,0.963c4.461-0.707,8.93-1.439,13.478-0.986c1.029,0.102,2.044,0.341,3.07,0.495
			c1.278,0.19,1.511,0.671,1.284,1.955c-0.707,4.022-0.555,8.087-0.72,12.138c-0.011,0.23-0.023,0.463-0.025,0.694
			c-0.004,0.762-0.25,1.283-1.076,1.538c-3.659,1.129-7.167,2.649-10.609,4.311c-0.718,0.347-1.305,0.334-1.949-0.066
			c-2.376-1.481-4.958-2.605-7.608-3.363c-3.376-0.968-2.955-1.055-3.044-4.339c-0.021-0.812,0.023-1.63-0.068-2.433
			c-0.064-0.562-0.241-1.136-0.487-1.646c-0.505-1.048-1.461-1.597-2.557-1.468c-2.823,0.337-5.424,1.271-7.326,3.531
			c-0.344,0.407-0.611,1.027-0.617,1.553c-0.03,3.012-0.005,6.026,0.07,9.036c0.06,2.383,1.002,3.641,3.288,4.325
			c1.325,0.397,2.703,0.642,4.067,0.89c3.21,0.582,6.289,1.5,9.18,3.068c1.729,0.937,3.586,1.464,5.602,1.678
			c2.296,0.246,4.188-0.021,6.144-1.459c1.937-1.424,4.309-2.207,6.678-2.854c1.441-0.394,2.903-0.815,4.113-1.797
			c1.169-0.945,2.362-1.864,3.562-2.771c1.076-0.817,1.682-1.824,1.749-3.229c0.265-5.554,0.594-11.104,0.829-15.407
			c0-3.809-0.085-6.364,0.027-8.911c0.096-2.173-2.215-4.172-4.478-3.588c-5.569,1.434-11.265,1.23-16.94,1.258
			c-1.39,0.007-2.781-0.074-4.169-0.146c-0.172-0.009-0.335-0.201-0.5-0.308c0.066-0.093,0.114-0.228,0.206-0.273
			C61.48,49.002,65.729,46.877,69.994,44.791z"/>
	</g>
</g>
</svg>
