<?xml version="1.0" encoding="utf-8"?>
<!-- Generator: Adobe Illustrator 16.0.0, SVG Export Plug-In . SVG Version: 6.00 Build 0)  -->
<!DOCTYPE svg PUBLIC "-//W3C//DTD SVG 1.1//EN" "http://www.w3.org/Graphics/SVG/1.1/DTD/svg11.dtd">
<svg version="1.1" id="Layer_1" xmlns="http://www.w3.org/2000/svg" xmlns:xlink="http://www.w3.org/1999/xlink" x="0px" y="0px"
	 width="120px" height="120px" viewBox="0 0 120 120" style="enable-background:new 0 0 120 120;" xml:space="preserve">
<g id="python">
	<g>
		<path style="fill-rule:evenodd;clip-rule:evenodd;" d="M109.832,42.724c-0.292-1.128-0.8-2.206-1.262-3.285
			c-0.976-2.274-2.859-3.44-5.168-3.876c-1.989-0.376-4.02-0.546-6.039-0.752c-2.016-0.207-4.039-0.367-6.063-0.5
			c-0.851-0.057-1.71-0.035-2.562,0.02c-1.699,0.109-1.706,0.129-1.762-1.596c-0.061-1.926-0.097-3.852-0.16-5.775
			c-0.142-4.238-1.257-8.207-3.226-11.961c-1.086-2.071-2.641-3.621-4.735-4.617c-2.627-1.252-5.364-2.105-8.317-2.093
			c-2.676,0.011-5.352,0.003-8.025,0.003v0.096c-0.963,0-1.928-0.02-2.891,0.002c-2.246,0.053-4.502,0.003-6.734,0.213
			c-4.183,0.393-8.171,1.629-11.97,3.375c-1.956,0.9-3.625,2.291-4.675,4.254c-1.938,3.625-3.264,7.422-3.127,11.614
			c0.03,0.962,0.018,1.926-0.011,2.888c-0.024,0.85-0.283,1.232-1.03,1.391c-1.354,0.287-2.713,0.614-4.087,0.744
			c-3.927,0.369-7.516,1.652-10.68,3.975c-2.062,1.514-4.099,3.107-5.424,5.387c-1.135,1.951-1.996,4.018-2.526,6.213
			C8.142,53.467,7.87,58.578,8.061,63.723c0.023,0.635,0.173,1.266,0.283,1.895c0.596,3.408,2.139,6.467,3.468,9.615
			c1.612,3.812,4.105,6.984,6.779,10.059c0.583,0.67,1.288,1.23,2.139,1.322c2.012,0.219,3.962,0.887,6.031,0.717
			c1.589-0.131,3.182-0.041,4.768-0.42c1.293-0.309,2.066,0.4,2.071,1.736c0.012,2.141,0.038,4.287-0.104,6.419
			c-0.158,2.382,0.532,4.374,2.037,6.218c1.021,1.248,1.995,2.477,3.334,3.422c1.042,0.735,1.98,1.635,2.883,2.545
			c1,1.008,2.153,1.768,3.427,2.334c2.264,1.006,4.61,1.682,7.119,1.693c1.174,0.005,2.35,0.07,3.521,0.143
			c1.383,0.086,2.766,0.316,4.146,0.289c1.7-0.033,3.393-0.354,5.095-0.398c5.427-0.146,10.519-1.616,15.471-3.723
			c1.858-0.791,3.217-2.14,4.201-3.822c1.247-2.135,2.1-4.43,2.143-6.965c0.047-2.568,0.142-5.133,0.223-7.701
			c0.051-1.617,0.168-1.773,1.9-1.77c2.24,0.004,4.481,0.124,6.725,0.139c0.84,0.006,1.688-0.108,2.523-0.23
			c0.629-0.092,1.236-0.341,1.865-0.418c2.688-0.334,4.554-1.784,5.55-4.248c1.12-2.769,2.253-5.547,3.101-8.404
			c1.002-3.369,1.78-6.811,2.508-10.254c0.416-1.973,0.725-3.965,0.75-6.023C112.083,52.707,111.117,47.695,109.832,42.724z
			 M74.12,15.698c0.547-1.647,1.132-1.858,2.566-1.081c1.379,0.744,2.388,1.826,2.999,3.225c1.246,2.848,2.199,5.758,2.18,8.947
			c-0.016,2.342,0.289,4.685,0.408,7.029c0.06,1.173,0.064,2.354,0.015,3.527c-0.11,2.666-0.284,5.33-0.405,7.996
			c-0.042,0.926-0.179,1.676-1.336,1.809c-0.448,0.051-0.504,0.586-0.641,0.998c-0.232,0.694-0.552,1.367-0.898,2.013
			c-0.246,0.458-0.668,0.331-1.035-0.233c-0.224-0.339-0.452-0.715-0.772-0.939c-1.105-0.775-1.14-0.758-0.709-1.794
			c0.904-2.167,1.833-4.325,2.683-6.513c0.343-0.885,0.547-1.832,0.733-2.766c0.054-0.262-0.184-0.582-0.287-0.875
			c-0.343,0.195-0.729,0.346-1.015,0.604c-0.223,0.205-0.364,0.531-0.473,0.828c-1.004,2.732-2.733,5.064-4.179,7.551
			c-0.431,0.741-0.717,0.734-1.508,0.121c-1.104-0.855-1.161-0.979-0.659-2.087c1.495-3.308,3.027-6.601,4.513-9.911
			c0.567-1.266,1.112-2.549,1.542-3.865c0.189-0.574,0.075-1.25,0.078-1.879c0-0.084-0.112-0.234-0.187-0.242
			c-0.188-0.021-0.441-0.053-0.56,0.049c-0.32,0.271-0.662,0.566-0.857,0.928c-1.168,2.156-2.363,4.303-3.425,6.513
			c-1.571,3.272-3.034,6.595-4.547,9.894c-0.32,0.699-0.644,1.338-1.662,1.043c-0.191-0.055-0.647,0.475-0.839,0.814
			c-1.26,2.229-2.469,4.484-3.725,6.715c-0.141,0.248-0.458,0.434-0.734,0.551c-0.137,0.057-0.375-0.092-0.553-0.178
			c-0.084-0.041-0.195-0.156-0.19-0.229c0.015-0.209,0.051-0.428,0.136-0.619c1.043-2.338,2.097-4.67,3.14-7.007
			c0.129-0.288,0.3-0.603,0.29-0.897c-0.012-0.283-0.167-0.648-0.384-0.812c-0.187-0.138-0.658-0.165-0.815-0.026
			c-2.18,1.912-4.021,4.123-5.626,6.537c-0.32,0.48-0.512,1.129-1.212,1.222c-0.002,0.031-0.01,0.061-0.012,0.092
			c-0.026,0.022-0.058,0.042-0.087,0.063c0.001,0.167,0.006,0.335-0.033,0.491c-0.038,0.146-0.175,0.268-0.268,0.4
			c-0.028-0.188-0.125-0.408-0.062-0.557c0.061-0.138,0.22-0.233,0.362-0.335c0-0.047-0.001-0.094,0-0.14
			c0.036-0.002,0.065-0.012,0.099-0.016c0.138-1.622,1.175-2.881,1.759-4.323c0.241-0.588,0.546-1.175,0.636-1.79
			c0.052-0.354-0.189-0.826-0.438-1.13c-0.283-0.345-0.732-0.335-1.169-0.144c-0.801,0.354-1.384,0.819-1.806,1.674
			c-1.136,2.298-2.427,4.517-3.672,6.758c-0.15,0.271-0.376,0.518-0.619,0.712c-0.143,0.114-0.415,0.173-0.58,0.118
			c-0.132-0.043-0.307-0.346-0.265-0.455c0.312-0.795,0.587-1.625,1.037-2.339c1.253-1.983,1.258-4.245,1.533-6.442
			c0.026-0.215-0.302-0.584-0.549-0.691c-0.234-0.104-0.705-0.066-0.852,0.1c-0.409,0.474-0.721,1.038-1.046,1.58
			c-1.596,2.653-3.179,5.315-4.786,7.963c-0.158,0.262-0.441,0.453-0.68,0.658c-0.074,0.064-0.271,0.121-0.288,0.094
			c-0.104-0.146-0.279-0.361-0.234-0.48c0.338-0.896,0.743-1.77,1.085-2.665c0.226-0.595,0.562-1.222,0.536-1.819
			c-0.065-1.471,0.566-2.684,1.105-3.965c0.783-1.867,1.496-3.764,2.209-5.658c0.183-0.487,0.09-1.273,0.406-1.473
			c0.691-0.434,1.551-0.619,2.364-0.811c0.247-0.057,0.698,0.123,0.834,0.336c0.537,0.836,1.123,0.953,1.777,0.213
			c0.526-0.598,1.197-0.896,1.925-1.08c2.022-0.515,4.055-0.994,6.084-1.487c0.007-0.034,0.013-0.068,0.021-0.103
			c0.065-0.028,0.129-0.054,0.188-0.086c0.041-0.063,0.082-0.126,0.124-0.189c-0.023,0.057-0.03,0.133-0.074,0.166
			c-0.014,0.011-0.034,0.014-0.05,0.023c-0.036,0.055-0.072,0.11-0.108,0.165c-0.033,0.008-0.067,0.017-0.101,0.024
			c-0.101,0.476-0.174,0.959-0.326,1.417c-0.236,0.707-0.585,1.377-0.802,2.09c-0.286,0.941-0.019,1.968,0.44,1.975
			c0.734,0.01,1.204-0.477,1.549-0.992c0.825-1.244,1.643-2.503,2.323-3.828c3.181-6.186,5.615-12.68,7.869-19.246
			C73.741,16.921,73.92,16.305,74.12,15.698z M80.191,52.457c-0.034,0.055-0.057,0.135-0.105,0.16
			c-0.016,0.007-0.033,0.008-0.05,0.012c-0.036,0.04-0.071,0.079-0.106,0.118c-0.063,0.042-0.131,0.081-0.19,0.127
			c-0.031,0.07-0.062,0.141-0.094,0.212c0.013-0.061,0.008-0.141,0.045-0.18c0.014-0.014,0.033-0.021,0.049-0.032
			c0.031-0.071,0.062-0.142,0.094-0.214c0.069-0.01,0.139-0.014,0.203-0.031C80.088,52.572,80.139,52.515,80.191,52.457z
			 M76.478,55.045l-0.232-0.024l0.135-0.198L76.478,55.045z M75.066,54.998c0.045,0.139-0.359,0.572-0.608,0.627
			c-0.721,0.158-1.467,0.194-1.974,0.252c-0.66-0.045-1.093-0.038-1.506-0.117c-0.166-0.031-0.381-0.232-0.414-0.391
			c-0.031-0.143,0.16-0.479,0.247-0.477c1.81,0.035,2.562-1.184,3.237-2.586c0.405-0.848,0.972-1.619,1.476-2.418
			c0.033-0.053,0.196-0.086,0.245-0.053c0.08,0.056,0.155,0.174,0.158,0.268c0.009,0.314,0.045,0.646-0.041,0.94
			C75.514,52.338,74.579,53.504,75.066,54.998z M38.808,19.934c0.999-2.186,2.58-3.666,4.774-4.469
			c3.82-1.398,7.718-2.459,11.842-2.457c3.1,0.002,6.197-0.088,9.296-0.105c1.47-0.008,1.525,0.094,1.13,1.371
			c-0.062,0.204-0.13,0.408-0.184,0.613c-0.153,0.57-0.809,1.354-0.039,1.654c0.636,0.248,0.9-0.734,1.235-1.248
			c0.292-0.445,0.515-0.934,0.779-1.396c0.341-0.596,0.837-1.008,1.544-0.959c1.007,0.072,2.28-0.51,2.915,0.625
			c0.46,0.82-0.44,1.568-0.756,2.332c-1.827,4.441-3.683,8.867-5.537,13.299c-0.493,1.182-0.978,2.368-1.522,3.525
			c-0.199,0.426-0.566,0.773-0.856,1.155c-0.247-0.345-0.441-0.753-0.758-1.017c-0.394-0.328-0.879-0.561-1.346-0.789
			c-0.572-0.281-1.18-0.492-1.751-0.777c-0.76-0.377-0.908-0.787-0.572-1.531c0.569-1.266,1.143-2.531,1.747-3.781
			c0.438-0.898,0.592-1.818,0.367-2.795c-0.021-0.1-0.101-0.271-0.146-0.268c-0.195,0.008-0.487,0.006-0.563,0.125
			c-0.521,0.795-1.049,1.594-1.471,2.443c-0.573,1.146-0.979,2.375-1.595,3.493c-0.399,0.729-0.987,1.382-1.599,1.956
			c-0.354,0.332-0.922,0.628-1.389,0.621c-4.809-0.072-9.568,0.959-14.388,0.625c-0.638-0.043-1.283,0-1.924-0.025
			c-0.613-0.025-1.022-0.398-1.042-0.968c-0.024-0.747-0.005-1.495-0.005-2.243C36.908,25.802,37.494,22.812,38.808,19.934z
			 M19.353,54.693c-0.887,1.58-1.594,3.26-2.392,4.889c-0.091,0.184-0.258,0.328-0.39,0.49c-0.112-0.174-0.28-0.334-0.326-0.523
			c-0.229-0.927-0.424-1.86-0.616-2.73c0.199-0.727,0.28-1.377,0.546-1.941c1.675-3.578,3.421-7.119,5.066-10.709
			c0.462-1.006,1.216-1.439,2.176-1.675c0.286-0.069,0.665-0.087,0.906,0.046c0.487,0.267,0.289,0.724,0.118,1.107
			C22.773,47.34,21.341,51.143,19.353,54.693z M21.803,57.791c0.442-1.08,0.91-2.15,1.383-3.221
			c1.585-3.596,3.176-7.191,4.765-10.787c0.173-0.389,0.367-0.767,0.532-1.158c0.357-0.846,0.929-1.4,1.881-1.512
			c0.731-0.086,1.457-0.236,2.189-0.301c0.104-0.01,0.371,0.336,0.335,0.443c-0.195,0.596-0.43,1.182-0.706,1.744
			c-2.081,4.188-4.184,8.365-6.257,12.557c-0.563,1.142-1.029,2.332-1.588,3.477c-0.111,0.227-0.438,0.348-0.492,0.387
			c-0.762-0.412-1.391-0.729-1.987-1.098C21.762,58.262,21.74,57.943,21.803,57.791z M31.049,78.701
			c-0.083,0.053-0.166,0.104-0.249,0.156c-0.074-0.175-0.246-0.381-0.203-0.52c0.148-0.475,0.357-0.936,0.582-1.381
			c0.036-0.072,0.274-0.072,0.412-0.051c0.055,0.008,0.087,0.164,0.129,0.252C31.87,77.836,31.623,78.34,31.049,78.701z
			 M30.704,73.441c-0.482,0.348-0.746,0.992-1.151,1.462c-0.11,0.126-0.412,0.187-0.574,0.13c-0.149-0.053-0.35-0.336-0.316-0.465
			c0.42-1.623,0.825-3.256,1.354-4.846c0.149-0.447,0.67-0.775,1.044-1.135c0.215-0.209,0.701-0.037,0.727,0.238
			c0.043,0.523,0.071,1.049,0.107,1.574C31.999,71.611,31.8,72.653,30.704,73.441z M32.332,60.049
			c-1.455,3.571-3.183,6.976-5.232,10.227c-0.116,0.182-0.279,0.348-0.338,0.545c-0.338,1.112-1.771,1.127-2.165,2.243
			c-0.315,0.891-0.867,1.7-1.353,2.522c-0.071,0.118-0.287,0.15-0.468,0.204c-0.002,0.034-0.004,0.068-0.006,0.103
			c-0.048,0.012-0.101,0.018-0.151,0.027c-0.067,0.096-0.134,0.19-0.202,0.285c0.019-0.08,0.008-0.195,0.058-0.23
			c0.04-0.029,0.091-0.044,0.144-0.055c0.025-0.034,0.049-0.069,0.074-0.104c0.026-0.01,0.056-0.018,0.083-0.026
			c0.049-0.702,0.073-1.408,0.166-2.104c0.099-0.732,0.454-1.477,0.375-2.18c-0.163-1.461,0.288-2.747,0.8-4.037
			c3.259-8.244,6.809-16.363,10.588-24.381c0.045-0.098,0.09-0.195,0.136-0.292c1.276-2.696,2.075-3.11,5.014-2.603
			c0.385,0.066,0.639,0.583,0.471,0.979C37.652,47.461,34.907,53.721,32.332,60.049z M37.979,58.059
			c-0.917,0.698-1.629,1.664-2.438,2.508c-0.066,0.068-0.168,0.105-0.253,0.156c-0.052-0.193-0.202-0.426-0.144-0.572
			c1.904-4.742,3.82-9.477,5.754-14.207c0.685-1.674,1.463-3.311,2.114-4.998c0.449-1.16,1.236-1.668,2.434-1.666
			c0.319,0.002,0.64-0.043,1.11-0.08c0.16,0.027,0.485,0.031,0.768,0.145c0.143,0.057,0.328,0.342,0.291,0.461
			c-0.158,0.501-0.342,1.008-0.605,1.461c-2.637,4.513-4.886,9.221-7.011,13.99C39.521,56.332,38.971,57.303,37.979,58.059z
			 M103.217,66.762c-0.588,1.93-0.979,3.939-0.868,6.002c0.093,1.739-0.513,3.371-0.896,5.027c-0.443,1.915-1.938,3.191-3.889,3.18
			c-3.086-0.018-6.194,0.447-9.262-0.395c-0.907-0.25-1.912-0.17-2.874-0.18c-5.883-0.061-11.758,0.17-17.624,0.592
			c-1.699,0.122-3.397,0.363-5.072,0.68c-0.705,0.133-1.533,0.438-1.976,0.949c-0.778,0.896-1.717,1.549-2.589,2.312
			c-1.522,1.332-0.449,3.139,0.816,3.594c0.49,0.176,1.048,0.227,1.574,0.225c3.309-0.006,6.6-0.002,9.91-0.484
			c3.155-0.463,6.316-1.156,9.547-1c0.533,0.027,1.071,0.021,1.59,0.117c0.291,0.055,0.532,0.252,0.489,0.678
			c-0.332,3.184-0.508,6.389-0.991,9.547c-0.367,2.402-1.537,4.274-4.058,5.293c-6.159,2.49-12.555,3.342-19.129,3.216
			c-0.519-0.009-1.159-0.038-1.529-0.331c-1.621-1.271-3.547-1.957-5.334-2.902c-3.861-2.041-6.904-5.012-9.654-8.318
			c-1.412-1.697-2.115-3.645-2.02-5.922c0.057-1.371-0.285-2.754-0.378-4.135c-0.087-1.277-0.186-2.566-0.096-3.838
			c0.143-2.023,0.434-4.037,0.669-6.053c0.149-1.271,0.275-2.547,0.486-3.809c0.193-1.152,0.429-2.306,0.746-3.43
			c0.65-2.293,2.196-3.352,4.579-3.79c3.461-0.637,6.925-1.257,10.391-1.869c1.147-0.202,2.342-0.442,3.376-0.948
			c2.349-1.149,4.764-1.031,7.209-0.668c3.735,0.553,7.437,0.562,11.133-0.322c2.262-0.541,4.117-1.766,5.809-3.257
			c0.529-0.468,0.907-1.188,1.169-1.866c0.845-2.189,1.547-4.418,1.889-6.768c0.275-1.901,0.65-3.781,0.626-5.717
			c-0.009-0.82,0.242-1.014,1.184-1.186c2.225-0.408,4.441-0.494,6.688-0.072c1.883,0.354,3.79,0.605,5.694,0.843
			c1,0.126,1.459,0.72,1.779,1.591c1.155,3.139,1.699,6.389,1.791,9.721c0.039,1.389,0.006,2.779,0.006,4.172h0.008
			c0,0.641-0.021,1.283,0.002,1.926C104.237,61.748,103.979,64.262,103.217,66.762z M72.979,100.284
			c1.016-0.229,1.66-0.933,1.762-1.993c0.05-0.526,0.009-1.062,0.009-1.592c0.036-1.279,0.025-2.543-0.714-3.689
			c-0.936-1.449-2.989-1.623-4.049-0.248c-0.379,0.491-0.779,1.095-0.838,1.68c-0.115,1.152-0.136,2.352,0.056,3.488
			C69.541,99.906,70.986,100.738,72.979,100.284z M71.682,33.639c0.312-0.428,0.613-0.881,0.823-1.363
			c1.445-3.318,2.869-6.645,4.286-9.975c0.207-0.484,0.344-1,0.525-1.533c-0.097-0.416-0.126-0.855-0.309-1.223
			c-0.125-0.25-0.455-0.545-0.7-0.55c-0.235-0.005-0.626,0.296-0.692,0.534c-0.869,3.098-2.396,5.914-3.687,8.832
			c-0.646,1.459-1.271,2.93-1.888,4.402c-0.289,0.689-0.533,1.4-0.233,2.156C69.975,35.342,70.866,34.756,71.682,33.639z
			 M51.565,27.139c0.734-0.346,1.194-0.887,1.292-1.695c0.063-0.527,0.078-1.062,0.115-1.596c0.126-1.434-0.365-2.746-0.838-4.047
			c-0.385-1.059-1.224-1.736-2.243-2.164c-0.643-0.27-1.276-0.137-1.78,0.34c-2,1.883-2.324,6.168-0.646,8.281
			C48.27,27.268,50.357,27.705,51.565,27.139z"/>
	</g>
</g>
</svg>
