<?xml version="1.0" encoding="utf-8"?>
<!-- Generator: Adobe Illustrator 16.0.0, SVG Export Plug-In . SVG Version: 6.00 Build 0)  -->
<!DOCTYPE svg PUBLIC "-//W3C//DTD SVG 1.1//EN" "http://www.w3.org/Graphics/SVG/1.1/DTD/svg11.dtd">
<svg version="1.1" id="Layer_1" xmlns="http://www.w3.org/2000/svg" xmlns:xlink="http://www.w3.org/1999/xlink" x="0px" y="0px"
	 width="120px" height="120px" viewBox="0 0 120 120" style="enable-background:new 0 0 120 120;" xml:space="preserve">
<g id="ruby">
	<g>
		<path style="fill-rule:evenodd;clip-rule:evenodd;" d="M104.117,73.439c-0.521-3.79-0.402-8.246-0.738-11.58
			c-0.038-0.39,0.16-0.689,0.135-1.002c-0.05-0.542-0.481-1.277-0.52-1.854c-0.01-0.194,0.355-0.509,0.351-0.719
			c0-0.372-0.35-0.746-0.363-1.069c-0.06-1.411,0.075-2.398-0.032-3.575c-0.049-0.566-0.466-1.262-0.514-1.856
			c-0.014-0.184,0.354-0.514,0.349-0.717c0-0.371-0.353-0.745-0.362-1.071c-0.091-1.999-0.318-3.758-0.263-5.646
			c-1.782-6.529-2.056-12.858-7.032-19.818c-0.876-0.448-1.69-1.357-2.521-2.123c-3.045-2.035-6.252-2.853-9.405-4.067
			c-3.272-0.304-6.549-0.608-9.871-0.561c-1.73-1.034-3.658-0.613-5.379-1.741c-1.942-0.098-3.751-1.177-5.729-1.025
			c-4.19,2.722-8.292,4.785-12.452,7.257c-5.134,4.049-11.513,8.805-16.131,11.864c-0.178,0.117-0.288,0.318-0.067,0.501
			c-2.789,2.22-5.356,5.097-8.522,6.507c-1.601,3.781-3.375,7.537-5.341,11.272c-0.288,2.255-0.021,4.589-0.658,6.797
			c-1.718,4.192-2.184,8.551-3.752,12.761c-0.192,1.929,1.617,4.128,0.478,5.931c-0.808,1.932,1.494,4.281,2.201,6.415
			c1.749,0.909,3.51,1.725,5.31,2.245c1.803,0.515,3.518,1.661,5.376,1.742c3.456,2.146,7.188,2.212,10.556,4.985
			c3.326-0.084,6.374,1.92,9.674,2.062c1.558,1.03,3.277,0.898,4.873,1.678c1.604,0.694,3.278,0.903,4.875,1.676
			c6.524,1.436,13.123,2.322,19.49,4.909c4.72,0.314,9.401,0.905,14.103,1.384c2.326-0.873,4.53-0.841,6.85-1.631
			c-0.141-1.269,1.598-0.701,2.273-1.735c3.146-4.338,2.683-9.165,3.384-13.829C104.499,83.013,104.509,78.251,104.117,73.439z
			 M73.675,24.713c0.283-0.217,0.567-0.433,0.852-0.649c1.799,0.546,3.633,0.809,5.448,1.239c1.705,0.588,3.527,0.312,5.158,1.459
			c-1.543,3.615-3.862,7.133-5.271,10.77c-2.701,0.474-4.871-2.988-7.464-3.295C70.778,30.787,73.83,27.965,73.675,24.713z
			 M40.266,64.608c-0.256-1.307-1.002-2.681-1.252-3.99c6.79-8.612,18.367-16.58,28.82-24.699c2.553,3.772,5.678,3.313,8.348,6.223
			c-5.049,4.848-11.887,9.455-16.967,14.301c-5.352,2.485-10.972,6.994-16.564,11.293c-0.529-1.153-1.233-0.958-1.871-1.271
			C41.018,65.9,40.491,65.236,40.266,64.608z M30.005,44.105c7.171-4.008,14.457-8.906,21.897-14.916
			c3.047-1.787,6.123-3.803,9.113-5.158c1.629-1.389,3.131-1.785,4.626-2.182c1.358,0.019,2.604,0.885,3.943,1.04
			c0.094,3.838-1.988,7.384-3.269,11.04c-10.877,2.719-20.417,17.099-31.426,21.289c-0.82-0.201-1.726,0.193-2.505-0.338
			c-0.866,0.121-1.812,0.836-2.57,0.164c-1.627,0.064-3.312,0.582-4.798-0.387C27.463,51.246,28.736,47.674,30.005,44.105z
			 M21.953,81.284c-0.257-0.038-0.068-0.521,0.068-0.504C22.282,80.815,22.097,81.301,21.953,81.284z M21.475,75.354
			c-0.702-1.37,0.171-2.532,0.255-3.794c0.39-1.221,0.575-2.473,1.254-3.657c0.337-2.42,1.354-4.751,1.728-7.164
			c-0.424-0.398-0.102-0.694-0.364-1.069c0.097-0.02,0.19-0.216,0.284-0.218c3.257-0.072,6.117,1.184,9.438-0.011
			c0.401,1.671,0.555,3.31,0.614,4.931c0.499,1.6-0.115,3.046,0.899,4.712C30.896,71.032,26.287,72.447,21.475,75.354z
			 M79.793,96.951c-1.835-0.269-3.616-0.93-5.445-1.239c-7.065-4.38-14.423-6.556-21.744-9.041
			c-7.252-2.974-14.615-5.113-21.878-8.036c-0.157-0.527-1.634,0.149-0.934-0.635c4.018-2.043,7.875-2.916,11.766-4.034
			c7.354,4.118,14.698,8.322,22.125,11.896c3.584,2.422,7.313,3.772,10.918,6.058c1.822,1.008,3.705,1.518,5.459,3.03
			c1.86,0.698,3.696,1.602,5.461,3.027C83.472,98.682,81.737,97.028,79.793,96.951z M91.773,93.204
			c-1.796,0.063-3.338-1.747-5.092-1.959c-2.836-2.949-5.926-3.988-8.782-6.789c-1.521-0.714-2.94-2.159-4.461-2.894
			c-1.332-1.457-2.81-1.864-4.168-3.113c-5.842-4.014-11.694-7.932-17.684-10.787c0.127-1.345,3.379-2.269,3.546-3.606
			c3.042-1.784,6.12-3.801,9.036-4.652c3.697-2.821,7.391-5.642,11.085-8.461c2.14-1.853,3.319-4.857,5.386-5.91
			c1.967,1.826,2.675,5.382,3.284,7.839c0.834,2.749,1.703,5.502,3.215,8.341c1.482,10.823,5.838,22.036,10.079,33.233
			C95.262,95.099,93.549,93.915,91.773,93.204z M98.883,80.131c-1.221,0.146-0.989-1.639-1.733-2.271
			c-0.096-0.779-0.659-1.624-0.95-2.426c-0.655-1.617-1.269-3.232-1.399-4.777c-3.26-9.876-2.628-19.228-9.045-29.529
			c0.649-4.246,3.843-8.153,4.973-12.338c0.095-0.072,0.188-0.145,0.283-0.217c1.084-1.243,2.501,1.328,2.521,2.122
			c0.345,1.151,0.188,2.236,0.817,3.426c0.154,1.128,0.321,2.256,0.812,3.425c1.014,5.494,1.396,10.9,2.644,16.424
			c-0.216,4.309,1.324,8.85,0.539,13.083c0.735,2.309,0.414,4.478,0.63,6.713C98.66,75.851,99.337,78.064,98.883,80.131z"/>
	</g>
</g>
</svg>
