<?xml version="1.0" encoding="utf-8"?>
<!-- Generator: Adobe Illustrator 16.0.0, SVG Export Plug-In . SVG Version: 6.00 Build 0)  -->
<!DOCTYPE svg PUBLIC "-//W3C//DTD SVG 1.1//EN" "http://www.w3.org/Graphics/SVG/1.1/DTD/svg11.dtd">
<svg version="1.1" id="Layer_1" xmlns="http://www.w3.org/2000/svg" xmlns:xlink="http://www.w3.org/1999/xlink" x="0px" y="0px"
	 width="120px" height="120px" viewBox="0 0 120 120" style="enable-background:new 0 0 120 120;" xml:space="preserve">
<g id="google">
	<g>
		<path style="fill-rule:evenodd;clip-rule:evenodd;" d="M93.349,7.492c-1.162-0.143-2.348-0.145-3.521-0.17
			c-3.52-0.08-7.061,0.277-10.535-0.604c-0.203-0.049-0.424-0.037-0.639-0.041c-3.848-0.066-7.699-0.256-11.529,0.312
			c-0.408,0.061-0.855,0.07-1.252-0.027c-2.041-0.496-4.01-0.191-6.012,0.311c-3.639,0.91-7.244,1.91-10.506,3.807
			c-1.75,1.016-3.361,2.268-5.045,3.396c-3.965,2.652-7.201,6.037-9.857,9.973c-1.934,2.867-3.113,6.07-3.83,9.441
			c-0.652,3.055-0.611,6.162-0.602,9.264c0.004,0.744-0.004,1.512,0.156,2.234c1.092,4.926,3.938,8.459,8.562,10.512
			c4.816,2.137,9.898,2.512,15.076,2.152c0.314-0.021,0.619-0.145,0.93-0.219c2.363-0.559,3.012-0.018,2.684,2.24
			c-0.334,2.311-0.547,2.535-2.945,2.971c-0.525,0.096-1.07,0.082-1.592,0.188c-1.777,0.352-3.605,0.562-5.309,1.141
			c-2.928,0.996-5.717,2.334-8.465,3.785c-1.846,0.975-3.27,2.395-4.822,3.686c-1.721,1.436-3.395,2.934-5.016,4.48
			c-1.408,1.344-2.42,2.988-3.137,4.801c-2.613,6.594-2.291,3.998-2.59,11.418c-0.018,0.428-0.02,0.857-0.061,1.283
			c-0.291,3.023,0.666,5.666,2.344,8.139c2.393,3.529,5.582,6.166,9.203,8.307c3.666,2.164,7.607,3.354,11.922,3.102
			c1.172-0.066,2.352-0.01,3.529-0.01v-0.102c2.033,0,4.068,0.07,6.096-0.021c1.49-0.068,2.963-0.406,4.451-0.521
			c3.098-0.238,6.152-0.715,9.166-1.451c6.004-1.469,11.027-4.592,15.068-9.229c1.254-1.443,2.406-2.982,3.689-4.414
			c1.451-1.615,2.451-3.539,2.664-5.729c0.422-4.311,0.033-8.541-1.648-12.586c-0.576-1.391-1.334-2.662-2.352-3.797
			c-1.213-1.35-2.436-2.709-3.482-4.188c-1.586-2.234-3.541-3.955-5.982-5.201c-0.932-0.475-1.756-1.205-2.525-1.93
			c-0.35-0.332-0.623-0.93-0.623-1.41c0-1.811,0.086-3.623,0.213-5.432c0.09-1.234,0.637-2.141,1.854-2.748
			c1.629-0.812,3.1-1.943,4.211-3.406c1.811-2.385,3.527-4.844,4.57-7.691c0.773-2.115,1.336-4.275,1.303-6.559
			c-0.02-1.498,0.008-2.996,0.018-4.494c0.016-3.713-0.83-7.199-2.711-10.418c-0.162-0.277-0.314-0.559-0.453-0.848
			c-0.193-0.408,0.051-0.922,0.502-0.953c1.502-0.105,2.992-0.344,4.369-0.939c1.477-0.641,2.902-1.25,4.588-1.211
			c1.322,0.031,2.164-0.914,2.432-2.176c0.312-1.457,0.637-2.943,0.674-4.424C96.646,8.949,95.507,7.756,93.349,7.492z
			 M40.276,98.996c-0.775,1.277-1.494,2.586-2.27,3.859c-0.152,0.248-0.447,0.408-0.779,0.699c-0.303-0.357-0.604-0.645-0.801-0.99
			c-0.076-0.131,0.055-0.414,0.146-0.6c0.799-1.631,1.607-3.256,2.418-4.881c0.195-0.395,0.564-0.369,1.002,0.053
			C40.796,97.904,40.804,98.131,40.276,98.996z M46.005,103.486c-0.496,1.389-1.115,2.73-1.193,4.246
			c-0.047,0.85-0.449,1.125-1.619,0.979c-0.205-0.062-0.816-0.221-1.41-0.428c-0.754-0.266-1.027-0.762-0.744-1.455
			c0.639-1.562,1.297-3.119,2.002-4.652c0.178-0.383,0.602-0.594,1.074-0.395c0.486,0.203,0.977,0.402,1.443,0.65
			C45.962,102.65,46.167,103.031,46.005,103.486z M45.903,93.189c-1.547-1.557-1.42-3.475-1.117-5.402
			c0.061-0.389,0.324-0.803,0.609-1.09c2.715-2.738,5.604-5.309,9.068-7.025c2.08-1.031,4.391-1.611,6.623-2.316
			c0.312-0.1,0.871,0.121,1.135,0.379c1.551,1.508,3.395,2.562,5.246,3.633c2.316,1.336,4.457,2.926,6.354,4.828
			c0.369,0.373,0.324,0.771-0.059,1.084c-3.963,3.236-7.787,6.664-12.424,8.973c-0.381,0.189-0.795,0.357-1.107,0.635
			c-1.135,1.008-2.449,1.221-3.811,0.986c-3.443,0.139-6.33-1.109-8.93-3.129C46.909,94.293,46.425,93.715,45.903,93.189z
			 M87.86,14.383c-1.59,0.191-3.178,0.381-4.762,0.602c-1.586,0.219-3.166,0.467-4.748,0.719c-0.311,0.049-0.621,0.148-0.918,0.26
			c-0.934,0.35-1.471,1.432-1.074,2.357c0.334,0.781,0.742,1.549,1.232,2.242c2.006,2.844,3.141,6.039,4,9.371
			c0.736,2.859,0.795,5.67,0.012,8.539c-0.504,1.857-0.955,3.717-1.75,5.482c-1.131,2.516-2.936,4.457-5.127,6.053
			c-4.646,3.383-4.221,3.055-4.957,9.244c-0.299,2.531,0.318,4.807,1.754,6.975c0.662,0.998,1.188,1.754,2.359,2.314
			c1.795,0.861,3.461,2.039,4.275,4.125c0.367,0.941,1.236,1.734,2.004,2.461c2.098,1.988,3.33,4.41,3.895,7.211
			c0.148,0.734,0.316,1.465,0.539,2.178c1.203,3.885,0.016,7.33-1.842,10.699c-1.67,3.027-4.271,5.098-7.188,6.662
			c-2.711,1.451-5.619,2.605-8.547,3.562c-3.24,1.059-6.596,1.748-9.906,2.58c-0.836,0.211-1.125,0.01-1.377-0.832
			c-0.117-0.4-0.125-0.895-0.375-1.182c-0.234-0.273-0.734-0.48-1.09-0.447c-0.355,0.035-0.684,0.4-1.006,0.643
			c-0.068,0.049-0.061,0.197-0.088,0.301c-0.189,0.693,0.246,1.666-0.562,2.035c-0.637,0.293-1.451,0.213-2.189,0.258
			c-0.531,0.033-1.07,0.035-1.6-0.016c-0.281-0.029-0.68-0.117-0.541-0.562c0.412-1.324,0.809-2.656,1.314-3.943
			c0.121-0.309,0.623-0.572,0.994-0.648c0.512-0.105,1.064-0.012,1.6-0.008c3.434,0.016,6.82-0.393,10.156-1.188
			c1.027-0.244,2.123-0.498,2.992-1.053c1.914-1.213,3.979-2.057,6.064-2.871c2.346-0.916,4.213-2.504,5.963-4.244
			c1.111-1.102,1.586-2.457,1.574-4.055c-0.02-3.049-0.379-6.029-2.24-8.531c-1.721-2.318-3.719-4.41-6.195-5.984
			c-0.986-0.629-1.947-1.312-2.84-2.064c-1.205-1.016-2.559-1.523-4.115-1.514c-2.133,0.014-4.266-0.018-6.393,0.105
			c-0.941,0.055-1.902,0.338-2.785,0.693c-2.277,0.92-4.531,1.9-6.764,2.928c-2.338,1.078-4.426,2.584-6.484,4.113
			c-0.506,0.375-1.023,0.826-1.336,1.359c-0.975,1.656-1.9,3.344-2.754,5.066c-0.691,1.398-0.635,2.912-0.275,4.393
			c0.223,0.93,0.574,1.83,0.881,2.74c0.168,0.498,0.592,1.051,0.479,1.463c-0.109,0.406-0.779,0.637-1.16,0.992
			c-1.172,1.088-2.318,2.205-3.488,3.297c-0.221,0.207-0.49,0.365-0.754,0.516c-0.061,0.035-0.205-0.029-0.287-0.086
			c-0.084-0.057-0.211-0.182-0.195-0.236c0.291-0.906,0.549-1.828,0.924-2.701c0.467-1.076,1.072-2.096,1.543-3.17
			c0.252-0.574,0.414-1.207,0.496-1.83c0.105-0.783-0.611-1.365-1.438-1.242c-0.395,0.06-0.782,0.152-1.173,0.233
			c0.006,0.03,0.005,0.058,0.013,0.089c-0.053,0.011-0.109,0.018-0.164,0.027c-0.069,0.082-0.139,0.164-0.209,0.246
			c0.025-0.072,0.033-0.174,0.082-0.205c0.037-0.022,0.082-0.032,0.127-0.041c0.029-0.034,0.059-0.069,0.088-0.104
			c0.021-0.004,0.042-0.008,0.063-0.013c-0.182-0.92,0.521-1.521,0.878-2.237c0.479-0.955,1.066-1.854,1.527-2.816
			c0.174-0.359,0.143-0.826,0.164-1.244c0.018-0.35-0.598-0.811-0.918-0.68c-0.488,0.197-0.945,0.471-1.436,0.67
			c-0.43,0.172-0.826,0.91-1.322,0.277c-0.174-0.223-0.018-0.793,0.117-1.154c1.035-2.793,2.924-4.945,5.234-6.744
			c1.695-1.322,3.578-2.334,5.596-3.09c2.398-0.902,4.732-1.936,7.033-3.082c2.494-1.24,5.232-1.826,8.07-1.703
			c1.279,0.057,2.559,0.049,3.838,0.104c1.111,0.049,1.867-0.525,2.299-1.438c0.449-0.945,0.795-1.908,0.488-3.068
			c-0.24-0.9-0.061-1.91-0.1-2.871c-0.086-2.125-0.174-4.252-0.309-6.377c-0.018-0.279-0.242-0.709-0.469-0.789
			c-1.848-0.65-3.363-2.326-5.613-1.762c-0.916,0.229-1.564-0.332-2.227-0.965c-0.955-0.918-1.383-0.832-2.277,0.375
			c-0.34,0.455-0.627,0.898-1.207,0.877c-0.834-0.029-1.666-0.146-2.488-0.271c-0.094-0.014-0.234-0.373-0.186-0.512
			c0.213-0.6,0.51-1.17,0.732-1.768c0.184-0.494,0.369-1.004,0.438-1.523c0.092-0.662-0.1-1.266-0.717-1.658
			c-0.516-0.328-1.24-0.273-1.764,0.227c-0.852,0.814-1.658,1.672-2.486,2.508c-0.428,0.432-0.967,0.482-1.471,0.248
			c-0.225-0.104-0.516-0.551-0.451-0.701c0.293-0.678,0.688-1.312,1.074-1.947c0.557-0.91,1.164-1.791,1.701-2.715
			c0.346-0.598,0.219-1.223-0.295-1.756c-0.309-0.324-0.723-0.527-1.145-0.264c-0.445,0.281-0.871,0.615-1.24,0.992
			c-1.121,1.146-2.207,2.326-3.314,3.488c-0.357,0.373-0.785,0.365-1.117,0.041c-0.359-0.352-0.395-0.768-0.145-1.148
			c0.289-0.443,0.648-0.85,1.016-1.234c0.891-0.926,1.838-1.797,2.691-2.752c0.561-0.631,1.041-1.346,1.484-2.066
			c0.377-0.619,0.248-1.367-0.227-1.75c-0.457-0.363-1-0.434-1.5-0.148c-0.83,0.473-1.658,0.973-2.43,1.539
			c-1.031,0.76-2.006,1.598-3.023,2.377c-0.102,0.078-0.414,0.037-0.504-0.062c-0.129-0.139-0.24-0.418-0.188-0.578
			c0.205-0.596,0.373-1.252,0.75-1.732c0.852-1.094,1.816-2.102,2.744-3.135c0.357-0.396,0.768-0.748,1.111-1.158
			c1.076-1.277,0.695-2.256-1.014-2.65c-0.742-0.172-0.844-0.426-0.316-0.965c1.195-1.223,2.422-2.416,3.625-3.633
			c0.375-0.379,0.742-0.77,1.059-1.195c0.281-0.383,0.244-0.865-0.094-1.16c-0.291-0.252-0.764-0.518-1.09-0.449
			c-0.613,0.129-1.172,0.496-1.762,0.75c-0.07,0.031-0.234,0.012-0.254-0.029c-0.08-0.174-0.227-0.443-0.158-0.533
			c0.904-1.182,1.711-2.488,2.807-3.471c2.061-1.854,4.24-3.582,6.623-5.043c1.65-1.012,3.338-1.902,5.17-2.527
			c2.928-1,5.816-2.137,8.914-2.531c0.949-0.119,1.902-0.285,2.855-0.291c5.775-0.025,11.553-0.031,17.33,0.006
			c1.166,0.008,2.332,0.207,3.492,0.365c0.48,0.066,1.17,0.006,1.115,0.791C89.251,13.873,88.767,14.275,87.86,14.383z
			 M71.147,31.256c-0.025-3.248-0.797-6.348-1.975-9.346c-0.387-0.984-0.867-1.959-1.471-2.824
			c-1.633-2.344-3.967-3.225-6.727-2.664c-1.762,0.359-3.566,0.738-5.139,1.713c-1.904,1.18-3.799,2.375-5.672,3.598
			c-0.338,0.221-0.645,0.57-0.826,0.932c-1.268,2.502-2.178,5.092-1.953,7.975c0.1,1.277,0.021,2.566,0.078,3.848
			c0.09,2.049,0.521,4.023,1.561,5.818c1.914,3.299,4.453,6.037,7.785,7.898c2.34,1.305,4.885,2.217,7.643,2.033
			c2.131-0.141,3.877-1.01,5.043-2.924c0.971-1.598,1.424-3.344,1.562-5.156c0.166-2.131,0.172-4.271,0.246-6.408
			c-0.053-0.002-0.104-0.002-0.152-0.002C71.151,34.25,71.159,32.752,71.147,31.256z M66.722,35.576H66.63
			c0,1.49,0.072,2.986-0.023,4.469c-0.066,1.049-0.283,2.105-0.564,3.121c-0.537,1.936-1.326,2.373-3.297,1.902
			c-1.264-0.303-2.33-0.867-3.127-2.018c-2.43-3.498-3.928-7.281-3.922-11.59c0.002-1.066,0.029-2.133-0.008-3.195
			c-0.059-1.643,0.689-2.891,1.922-3.842c1.721-1.324,3.748-1.99,5.85-2.398c0.324-0.062,0.842,0.209,1.074,0.49
			c0.326,0.396,0.533,0.926,0.686,1.432c0.775,2.543,1.541,5.092,1.504,7.795C66.706,33.02,66.722,34.297,66.722,35.576z"/>
	</g>
</g>
</svg>
