<?xml version="1.0" encoding="utf-8"?>
<!-- Generator: Adobe Illustrator 16.0.0, SVG Export Plug-In . SVG Version: 6.00 Build 0)  -->
<!DOCTYPE svg PUBLIC "-//W3C//DTD SVG 1.1//EN" "http://www.w3.org/Graphics/SVG/1.1/DTD/svg11.dtd">
<svg version="1.1" id="Layer_1" xmlns="http://www.w3.org/2000/svg" xmlns:xlink="http://www.w3.org/1999/xlink" x="0px" y="0px"
	 width="120px" height="120px" viewBox="0 0 120 120" style="enable-background:new 0 0 120 120;" xml:space="preserve">
<g id="yahoo">
	<g>
		<path style="fill-rule:evenodd;clip-rule:evenodd;" d="M85.4,89.641c-0.223-1.236-0.732-1.883-1.977-2.014
			c-0.842-0.09-1.67-0.334-2.514-0.414c-2.02-0.189-4.041-0.359-6.064-0.465c-1.258-0.066-1.961-0.742-2.34-1.842
			c-0.455-1.32-0.781-2.666-0.693-4.084c0.211-3.518,0.438-7.035,0.619-10.557c0.164-3.154,1.316-5.809,3.812-7.812
			c1.584-1.271,3.156-2.559,4.764-3.799c5.416-4.178,11.166-7.936,15.979-12.863c1.01-1.035,2.354-1.461,3.775-1.547
			c1.174-0.072,2.354-0.074,3.529-0.07c1.293,0.004,2.541-0.225,3.797-0.527c2.529-0.609,3.861-2.234,4.041-4.736
			c0.119-1.646,0.666-3.115,1.291-4.596c0.33-0.779,0.635-1.596,0.777-2.424c0.242-1.41-0.521-2.557-1.91-2.91
			c-0.717-0.182-1.482-0.24-2.225-0.24c-1.713,0-3.424,0.109-5.135,0.104c-5.025-0.014-10.053,0.021-15.074-0.131
			c-3.305-0.1-6.582-0.607-9.908-0.648c-3.938-0.049-7.895,0.406-11.83-0.424c-1.885-0.398-3.838,1.152-3.912,2.938
			c-0.1,2.455-0.061,4.92,0,7.375c0.018,0.732,0.307,1.459,0.475,2.188c0.139,0.6,0.543,0.846,1.129,0.943
			c0.734,0.119,1.494,0.213,2.176,0.486c1.941,0.777,3.922,0.932,5.98,0.691c0.834-0.096,1.693-0.012,2.535,0.072
			c0.131,0.014,0.377,0.564,0.295,0.711c-0.258,0.457-0.617,0.869-0.994,1.244c-1.889,1.895-3.795,3.771-5.697,5.65
			c-1.598,1.574-3.225,3.094-4.404,5.062c-0.969,1.621-2.088,1.66-3.398,0.398c-0.307-0.295-0.578-0.633-0.832-0.973
			c-0.969-1.297-2.127-2.377-3.422-3.355c-1.018-0.77-1.949-1.678-2.809-2.627c-1.721-1.902-3.424-3.828-5.027-5.83
			c-2.354-2.939-5.158-5.424-7.85-8.021c-0.457-0.441-1.01-0.793-1.541-1.148c-0.801-0.537-1.668-1.188-2.631-0.537
			c-0.807,0.545-0.713,1.512-0.572,2.359c0.125,0.75-0.049,1.184-0.811,1.453c-0.988,0.35-1.48,1.158-1.707,2.164
			c-0.164,0.729-0.381,1.447-0.586,2.166c-0.143,0.494-0.592,0.662-0.938,0.332c-0.541-0.514-1.004-1.125-1.596-1.568
			c-1.699-1.27-2.514-2.834-2.008-4.992c0.09-0.375-0.031-0.879-0.232-1.221c-0.193-0.332-0.594-0.693-0.943-0.738
			c-0.336-0.041-0.871,0.211-1.055,0.5c-0.396,0.623-0.713,1.328-0.896,2.043c-0.244,0.947-0.895,1.098-1.688,1.105
			c-0.294,0.005-0.59-0.017-0.885-0.029c0,0.018-0.001,0.037-0.002,0.055c-0.039,0.014-0.081,0.023-0.121,0.035
			c-0.057,0.083-0.114,0.167-0.17,0.25c0.014-0.066,0.004-0.16,0.045-0.191c0.035-0.028,0.079-0.044,0.125-0.059
			c0.021-0.03,0.042-0.062,0.062-0.092c0.02,0.001,0.04,0.001,0.061,0.002c0.024-0.937,0.085-1.877,0.049-2.812
			c-0.02-0.518-0.113-1.084-0.361-1.523c-0.178-0.314-0.662-0.609-1.02-0.623c-0.35-0.016-0.814,0.256-1.049,0.547
			c-0.326,0.404-0.555,0.924-0.701,1.432c-0.385,1.326-0.678,2.68-1.072,4.004c-0.074,0.25-0.496,0.617-0.666,0.572
			c-0.359-0.094-0.9-0.387-0.938-0.658c-0.117-0.834-0.051-1.693-0.02-2.543c0.037-0.994-0.146-1.877-0.834-2.672
			c-0.426-0.492-0.312-0.635,0.379-0.777c4.189-0.863,8.285-2.088,12.307-3.508c4.732-1.67,9.455-3.406,13.76-6.068
			c0.451-0.279,0.941-0.516,1.441-0.691c1.479-0.525,2.443-0.205,3.311,1.092c0.355,0.531,0.672,1.094,0.959,1.666
			c0.379,0.762,0.193,1.441-0.582,1.92c-1.543,0.961-3.104,1.893-4.68,2.795c-1.219,0.695-2.354,1.479-3.229,2.594
			c-0.395,0.504-0.238,1.371,0.377,1.629c0.471,0.199,1.029,0.379,1.516,0.314c0.73-0.096,1.482-0.312,2.137-0.648
			c2.943-1.516,5.859-3.092,8.779-4.654c0.186-0.098,0.35-0.248,0.504-0.395c0.93-0.873,1.156-2,0.625-3.207
			c-0.215-0.486-0.451-0.971-0.74-1.416c-1.223-1.883-2.447-3.766-3.715-5.619c-0.42-0.613-0.936-1.174-1.473-1.689
			c-1.086-1.047-2.105-1.174-3.514-0.484c-0.48,0.232-0.916,0.555-1.391,0.799c-1.23,0.631-2.443,1.311-3.717,1.844
			c-1.672,0.697-3.379,1.334-5.104,1.895c-4.873,1.586-9.744,3.182-14.65,4.664c-5.516,1.668-10.824,3.99-16.48,5.211
			c-0.203,0.045-0.406,0.143-0.578,0.26c-0.469,0.324-0.725,0.791-0.699,1.357c0.016,0.312,0.154,0.617,0.242,0.926
			c1.023,3.592,2.033,7.186,3.084,10.77c0.268,0.918,0.621,1.816,1.008,2.691c0.43,0.969,1.254,1.424,2.295,1.488
			c1.639,0.1,3.209-0.26,4.678-0.924c2.545-1.15,5.256-1.76,7.893-2.605c1.773-0.57,3.135-0.201,4.393,0.998
			c1.318,1.254,2.582,2.564,3.922,3.795c3.227,2.967,6.432,5.959,9.744,8.828c2.342,2.025,4.812,3.914,7.287,5.779
			c1.975,1.49,3.264,3.377,3.699,5.799c0.395,2.201,0.715,4.418,1.025,6.633c0.162,1.162,0.26,2.336,0.336,3.508
			c0.143,2.131,0.277,4.264,0.352,6.396c0.051,1.467-0.828,2.375-2.088,2.916c-0.58,0.25-1.221,0.389-1.848,0.49
			c-1.156,0.184-2.324,0.295-3.484,0.451c-1.428,0.189-1.838,1.727-3.018,2.279c-0.727,0.34-1.043,1.008-1.002,1.854
			c0.023,0.527-0.002,1.09-0.16,1.588c-0.738,2.33-0.25,4.66-0.076,6.994c0.076,1.051,0.57,1.791,1.465,2.332
			c1.215,0.736,2.508,1.088,3.93,1.221c3.564,0.326,7.027-0.428,10.514-0.855c4.057-0.498,8.086-0.453,12.139-0.025
			c1.693,0.178,3.463,0.322,5.117,0.025c2.73-0.488,5.418-1.207,8.223-1.156c0.107,0.004,0.213-0.025,0.318-0.045
			c1.121-0.229,1.967-0.834,2.422-1.895c0.338-0.781,0.557-1.617,0.91-2.391c0.607-1.328,0.691-2.65,0.271-4.053
			C86.271,93.162,85.721,91.42,85.4,89.641z M14.574,37.889c-0.018,0.148-0.258,0.359-0.416,0.383
			c-0.174,0.025-0.432-0.086-0.555-0.227c-1.111-1.252-1.162-2.912-1.615-4.416c-0.059-0.195,0.236-0.672,0.463-0.754
			c1.086-0.395,2.137-0.99,3.361-0.816c0.098,0.137,0.303,0.359,0.273,0.396C14.832,34.062,14.785,35.996,14.574,37.889z
			 M48.08,98.879c-0.121,0.223-0.598,0.461-0.799,0.387c-0.35-0.127-0.746-0.438-0.885-0.768c-0.197-0.473-0.18-1.035-0.209-1.238
			c0-0.436-0.004-0.543,0-0.648c0.145-3.211,1.348-3.248,3.672-2.912c0.098,0.014,0.223,0.064,0.273,0.141
			c0.105,0.152,0.285,0.391,0.234,0.496C49.631,95.863,48.883,97.387,48.08,98.879z M58.486,93.594
			c-0.295,0.256-0.674,0.641-0.99,0.613c-1.723-0.141-2.453,0.924-3.029,2.271c-0.326,0.768-0.703,1.514-1.074,2.26
			c-0.027,0.055-0.217,0.088-0.285,0.049c-0.17-0.094-0.461-0.27-0.441-0.352c0.365-1.645,0.871-3.273,0.156-4.959
			c-0.027-0.064,0.236-0.359,0.385-0.377c1.465-0.193,2.934-0.348,4.553-0.531c0.059,0.004,0.289-0.031,0.475,0.047
			c0.168,0.07,0.363,0.24,0.4,0.404C58.678,93.193,58.615,93.48,58.486,93.594z M59.686,78.891c-0.258-1.398-0.07-2.672,0.533-4.025
			c1.523-3.414,2.84-6.918,4.232-10.387c0.08-0.197,0.131-0.41,0.156-0.621c0.104-0.801-0.113-1.488-0.801-1.963
			c-0.682-0.469-1.459-0.521-2.117-0.084c-0.793,0.525-1.488,1.201-2.211,1.83c-0.705,0.615-0.709,0.646-1.646,0.061
			c-0.625-0.391-1.154-1.068-1.824-1.234c-2.002-0.5-2.467-1.75-2.197-3.602c0.121-0.836,0.037-1.709-0.016-2.561
			c-0.033-0.568-0.354-1.002-0.912-1.201c-0.615-0.217-1.387-0.041-1.729,0.48c-0.285,0.438-0.441,0.957-0.67,1.436
			c-0.197,0.412-0.623,0.469-1.002,0.125c-0.314-0.289-0.637-0.578-0.904-0.91c-0.27-0.33-0.34-0.686-0.238-1.166
			c0.328-1.564,0.629-3.143,0.773-4.73c0.062-0.699-0.215-1.457-0.465-2.143c-0.244-0.67-0.865-0.914-1.561-0.883
			c-0.629,0.025-1.248,0.539-1.344,1.18c-0.174,1.16-0.279,2.33-0.434,3.492c-0.053,0.396-0.627,0.514-1.039,0.287
			c-0.52-0.283-0.818-0.701-0.816-1.273c0-1.285,0.049-2.566,0.068-3.85c0.014-0.963,0.023-1.926,0.016-2.889
			c-0.002-0.209-0.055-0.43-0.131-0.623c-0.215-0.539-0.656-0.918-1.197-0.928c-0.346-0.004-0.852,0.258-1.018,0.551
			c-0.576,1.02-1.008,2.121-1.564,3.152c-0.088,0.162-0.535,0.199-0.801,0.168c-0.133-0.014-0.342-0.328-0.326-0.488
			c0.207-2.119,0.412-4.24,0.705-6.348c0.09-0.65,0.152-1.254-0.016-1.893c-0.029-0.115,0.162-0.303,0.277-0.434
			c0.016-0.02,0.186,0.08,0.271,0.141c0.176,0.119,0.367,0.23,0.516,0.381c4.018,4.137,8.518,7.824,11.865,12.59
			c2.52,3.586,6.111,5.939,9.588,8.43c1.369,0.982,2.842,0.969,4.213,0.088c1.162-0.746,2.285-1.596,3.27-2.559
			c1.689-1.648,3.432-3.209,5.373-4.564c3.449-2.41,6.275-5.469,8.861-8.76c0.391-0.498,0.725-1.064,0.98-1.645
			c1.139-2.566,0.738-3.158-2.135-3.221c-0.963-0.02-1.926-0.002-2.889-0.002c0,0.045-0.002,0.092-0.002,0.139
			c-0.748,0-1.502-0.059-2.244,0.012c-2.041,0.191-3.766-0.611-5.395-1.676c-0.312-0.203-0.57-0.666-0.627-1.041
			c-0.094-0.613,0.418-0.877,0.914-1.137c1.281-0.672,2.561-0.867,4.01-0.502c2.508,0.633,5.031,0.709,7.588,0.027
			c0.889-0.236,1.908-0.08,2.855,0.018c2.588,0.266,5.082,0.176,7.434-1.168c0.602-0.344,1.434-0.385,2.16-0.385
			c2.141,0,4.281,0.102,6.42,0.141c1.605,0.031,3.211,0.016,4.814,0.041c0.729,0.012,1.217,0.51,1.137,1.242
			c-0.545,4.949-0.746,5.293-5.469,5.619c-1.066,0.072-2.143,0.111-3.209,0.066c-2.396-0.098-4.387,0.855-6.146,2.34
			c-1.225,1.033-2.4,2.139-3.498,3.307c-2.357,2.506-4.934,4.738-7.775,6.678c-2.471,1.689-5.025,3.279-7.348,5.152
			c-2.156,1.738-4.076,3.77-6.041,5.732c-0.326,0.326-0.471,0.955-0.482,1.449c-0.043,1.604,0.088,3.213,0.012,4.812
			c-0.061,1.273-0.318,2.539-0.51,3.805c-0.078,0.523-0.404,0.697-0.896,0.475c-0.775-0.352-1.438-0.104-2.109,0.314
			c-1.496,0.926-2.52,2.297-3.547,3.668c-0.383,0.51-0.701,1.068-1.09,1.574c-0.094,0.123-0.342,0.139-0.525,0.168
			C59.785,79.174,59.703,78.994,59.686,78.891z M60.288,89.762c-0.015,0.039-0.029,0.078-0.043,0.117
			c-0.026,0.017-0.058,0.031-0.087,0.046c-0.002,0.152-0.001,0.305-0.042,0.444c-0.037,0.123-0.174,0.217-0.266,0.322
			c-0.02-0.176-0.105-0.385-0.041-0.52c0.057-0.111,0.211-0.175,0.349-0.247c0-0.043,0.001-0.087,0.003-0.13
			C60.194,89.778,60.24,89.77,60.288,89.762c0.05-0.133,0.1-0.266,0.148-0.398C60.759,89.735,60.494,89.729,60.288,89.762z
			 M61.411,87.978c0.019-0.041,0.036-0.082,0.054-0.124c0.041-0.018,0.062-0.045,0.099-0.065c0.003-0.456-0.067-0.945,0.538-1.11
			c0.001-0.031,0.006-0.062,0.006-0.094c0.02-0.015,0.042-0.028,0.062-0.042c-0.027-0.181-0.075-0.37-0.014-0.513
			c1.266-2.92,2.883-5.641,4.693-8.248c0.115-0.166,0.316-0.275,0.482-0.4c0.244-0.186,0.424-0.135,0.461,0.152
			c0.219,1.674,0.438,3.346,0.639,5.021c0.113,0.949-0.135,1.303-1.227,1.316c-1.596,0.02-2.863,0.568-3.885,1.799
			c-0.299,0.36-0.754,0.592-1.15,0.872c0.005,0.037,0.012,0.074,0.014,0.11c-0.032,0.006-0.053,0.018-0.082,0.025
			c-0.013,0.454-0.104,0.869-0.538,1.11c0,0.055-0.001,0.108-0.005,0.161C61.521,87.967,61.467,87.974,61.411,87.978
			c-0.052,0.123-0.104,0.245-0.157,0.366C60.998,87.985,61.22,87.993,61.411,87.978z M80.566,97.918
			c-1.443,0.346-2.91,0.625-4.383,0.797c-1.055,0.123-2.135,0.025-3.176,0.025c-3.133-0.463-6.178,0.127-9.242,0.473
			c-0.736,0.082-1.484,0.09-2.229,0.086c-0.107,0-0.238-0.254-0.311-0.414c-0.033-0.074,0.023-0.211,0.074-0.303
			c1.795-3.273,3.588-6.551,5.4-9.814c0.146-0.264,0.414-0.482,0.672-0.65c0.1-0.066,0.395,0.016,0.484,0.125
			c0.119,0.146,0.119,0.389,0.184,0.586c0.633,1.883,1.062,2.234,2.961,2.219c0.848-0.006,1.695-0.139,2.539-0.244
			c1.482-0.186,2.957-0.436,4.441-0.574c0.621-0.061,1.27,0.045,1.891,0.158c0.822,0.152,1.316,0.744,1.471,1.518
			c0.268,1.352,0.465,2.721,0.646,4.09C82.088,96.732,81.424,97.711,80.566,97.918z M115.057,54.484
			c-2.568-0.764-5.232-0.936-7.873-1.217c-1.637-0.137-3.211,0.178-4.727,0.715c-1.922,0.684-3.191,2.004-3.795,4.018
			c-0.568,1.898-0.48,3.795-0.318,5.711c0.127,1.488,0.322,2.971,0.381,4.459c0.104,2.561,0.238,5.127,0.148,7.684
			c-0.102,2.934,1.082,4.914,3.783,6.016c0.395,0.16,0.766,0.416,1.174,0.502c1.857,0.381,3.67,1.121,5.639,0.566
			c1.727-0.488,2.281-0.957,2.119-2.633c-0.297-3.084,0.463-5.914,1.682-8.686c1.203-2.742,2.057-5.609,2.598-8.543
			c0.385-2.088,1.023-4.146,0.949-6.311C116.766,55.365,116.469,54.902,115.057,54.484z M110.625,67.852
			c-0.742,2.66-1.473,5.324-2.238,7.977c-0.203,0.709-0.445,1.424-0.805,2.061c-0.377,0.668-1.014,1.059-1.828,1.119
			c-0.545,0.039-1.162-0.455-1.02-0.92c0.279-0.906,0.541-1.826,0.926-2.688c0.568-1.275,0.611-1.256-0.428-2.246
			c-0.801-0.764-1.061-2.74-0.441-3.471c0.133-0.156,0.303-0.297,0.482-0.395c1.766-0.963,3.727-1.586,5.25-2.982
			c0.033-0.033,0.17-0.008,0.213,0.035c0.07,0.072,0.105,0.184,0.201,0.367C110.848,67.043,110.738,67.447,110.625,67.852z
			 M111.928,63.475c-0.096,0.514-0.299,1.012-0.496,1.498c-0.033,0.08-0.402,0.133-0.434,0.084
			c-0.755-1.188-1.925-1.492-3.202-1.585c-0.006,0.019-0.012,0.039-0.019,0.056c-0.026-0.001-0.053-0.001-0.079-0.002
			c-0.188,0.595-0.692,0.523-1.15,0.549c-0.011,0.032-0.025,0.059-0.034,0.096c-0.08,0.023-0.161,0.043-0.235,0.075
			c-0.048,0.054-0.097,0.107-0.146,0.161c0.037-0.051,0.062-0.123,0.111-0.15c0.011-0.006,0.023-0.006,0.034-0.011
			c0.05-0.055,0.099-0.109,0.147-0.163c0.04-0.005,0.081-0.006,0.122-0.008c0.188-0.565,0.665-0.562,1.15-0.549
			c0.007-0.021,0.017-0.037,0.022-0.061c0.025,0.002,0.05,0.005,0.075,0.007c0.06-0.176,0.094-0.402,0.216-0.472
			c0.736-0.414,1.469-0.869,2.262-1.131c0.615-0.205,1.059-1.133,1.898-0.535C112.094,62.049,112.059,62.77,111.928,63.475z
			 M113.049,58.383c-0.215,0.248-0.453,0.352-0.756,0.031c-1.223-1.291-2.713-0.922-4.145-0.553
			c-0.807,0.211-1.553,0.645-2.342,0.936c-0.096,0.035-0.428-0.215-0.426-0.326c0.031-1.373,1.033-2.525,2.354-2.461
			c1.572,0.074,3.143,0.332,4.697,0.604c0.547,0.096,0.805,0.633,0.861,1.189C113.209,58.008,113.174,58.234,113.049,58.383z
			 M104.98,86.416c-2.557-0.715-4.857,0-7.135,0.992c-0.473,0.205-0.871,0.613-1.26,0.977c-0.74,0.693-1.123,1.559-1.059,2.584
			c0.033,0.531,0.035,1.092,0.211,1.582c0.377,1.055,0.346,2.074,0.117,3.152c-0.346,1.645,0.307,2.904,1.666,3.85
			c1.908,1.33,4.018,1.938,6.342,1.861c1.453-0.049,2.705-0.559,3.795-1.506c1.998-1.734,2.85-3.953,2.773-6.078
			C110.393,89.662,108.562,87.416,104.98,86.416z M106.359,95.229c-0.746,0.574-1.572,1.07-2.42,1.48
			c-1,0.482-1.975-0.088-2.064-1.18c-0.072-0.836-0.016-1.684-0.016-2.527h-0.041c0-0.213,0.006-0.424,0-0.635
			c-0.09-3.021,0.527-2.738,2.863-1.529c0.727,0.377,1.389,0.959,1.943,1.57C107.381,93.24,107.25,94.541,106.359,95.229z"/>
	</g>
</g>
</svg>
