<?xml version="1.0" encoding="utf-8"?>
<!-- Generator: Adobe Illustrator 16.0.0, SVG Export Plug-In . SVG Version: 6.00 Build 0)  -->
<!DOCTYPE svg PUBLIC "-//W3C//DTD SVG 1.1//EN" "http://www.w3.org/Graphics/SVG/1.1/DTD/svg11.dtd">
<svg version="1.1" id="Layer_1" xmlns="http://www.w3.org/2000/svg" xmlns:xlink="http://www.w3.org/1999/xlink" x="0px" y="0px"
	 width="120px" height="120px" viewBox="0 0 120 120" style="enable-background:new 0 0 120 120;" xml:space="preserve">
<g id="bing">
	<g>
		<path style="fill-rule:evenodd;clip-rule:evenodd;" d="M113.003,60.851c-0.361-1.453-0.877-2.84-1.775-4.084
			c-0.494-0.684-0.936-1.471-1.146-2.277c-0.799-3.027-2.643-5.309-4.867-7.387c-1.729-1.615-3.721-2.879-5.531-4.363
			c-2.012-1.648-4.178-2.949-6.506-4.047c-0.863-0.408-1.742-0.873-2.447-1.498c-1.426-1.26-3.119-1.934-4.912-2.195
			c-3.291-0.482-6.465-1.393-9.664-2.238c-2.693-0.713-5.416-1.229-8.213-1.23c-3.316-0.002-6.631,0.025-9.947,0.002
			c-2.723-0.02-5.285,0.652-7.787,1.65c-2.281,0.91-4.578,1.775-6.842,2.729c-1.965,0.828-3.934,1.664-5.816,2.66
			c-1.695,0.898-3.268,2.027-4.906,3.035c-1.273,0.783-1.777,1.406-1.93-1.055c-0.117-1.912-0.367-3.82-0.555-5.73
			c-0.33-3.402-0.604-6.809-0.646-10.23c-0.006-0.533-0.127-1.061-0.176-1.592c-0.137-1.488-0.287-2.975-0.387-4.463
			c-0.059-0.854,0.006-1.715-0.043-2.566c-0.148-2.559-2.219-4.422-4.684-4.125c-2.857,0.342-5.729,0.631-8.438,1.754
			c-0.877,0.365-1.84,0.576-2.783,0.703c-2.162,0.293-4.076,1.215-5.979,2.188c-0.834,0.426-1.367,1.092-1.33,2.027
			c0.074,1.809,0.098,3.637,0.408,5.412c0.424,2.412,1.125,4.773,1.652,7.17c0.691,3.133,1.178,6.293,1.447,9.494
			c0.303,3.615,0.779,7.217,1.016,10.836c0.203,3.092,0.002,6.215,0.289,9.297c0.357,3.846,0.328,7.688,0.338,11.533
			c0.004,1.734-0.217,3.422,1.158,4.799c0.205,0.205,0.205,0.6,0.336,0.893c1.357,3.027,2.871,5.967,4.684,8.754
			c0.756,1.16,1.494,2.355,2.047,3.619c1.5,3.436,3.918,6.037,6.852,8.307c3.258,2.52,6.881,4.311,10.668,5.789
			c4.287,1.672,8.629,3.17,13.359,2.896c0.945-0.055,1.908,0.197,2.865,0.305c1.482,0.17,2.963,0.41,4.449,0.479
			c1.816,0.084,3.635,0.021,5.455,0.021v0.066c0.748,0,1.498-0.002,2.246,0c5.488,0.018,10.885-0.482,16.01-2.672
			c0.68-0.291,1.426-0.449,2.154-0.609c6.58-1.453,12.488-4.367,17.867-8.354c1.709-1.266,3.258-2.766,4.768-4.271
			c2.707-2.697,3.578-6.523,5.717-9.588c0.719-1.027,0.988-2.354,1.535-3.51c0.682-1.438,1.098-7.717,1.285-10.141
			C114.517,66.216,113.671,63.542,113.003,60.851z M17.138,22.563c0.031-0.104,0.084-0.203,0.092-0.307
			c0.164-1.811,1.354-2.508,2.967-2.791c0.732-0.129,1.447-0.354,2.172-0.523c0.969-0.223,1.33,0.061,1.465,1.119
			c0.111,0.906-0.152,1.375-0.895,1.281c-2.076-0.266-3.771,0.396-5.211,1.869c-0.162,0.164-0.486,0.17-0.736,0.25
			c-0.02-0.098-0.068-0.203-0.049-0.293C16.989,22.962,17.069,22.765,17.138,22.563z M16.964,69.235l0.1-0.178l0.049,0.199
			L16.964,69.235z M33.146,93.608c-0.029,0.092-0.434,0.195-0.533,0.119c-1.102-0.832-2.193-1.68-3.244-2.572
			c-0.188-0.158-0.34-0.67-0.232-0.816c0.916-1.256,0.912-2.816,1.471-4.182c0.08-0.195,0.619-0.428,0.68-0.369
			c0.99,0.961,1.945,1.957,2.885,2.969c0.123,0.133,0.123,0.383,0.223,0.732C34.009,90.778,33.597,92.2,33.146,93.608z
			 M40.354,96.573c-0.072,0.188-0.551,0.395-0.756,0.326c-0.6-0.195-1.172-0.498-1.725-0.809c-0.5-0.279-0.74-0.736-0.658-1.326
			c0.029-0.213,0.051-0.424,0.096-0.631c0.42-1.988,0.697-2.109,2.346-1.012c0.352,0.234,0.709,0.465,1.02,0.746
			c0.143,0.127,0.178,0.369,0.27,0.574C40.759,95.149,40.616,95.884,40.354,96.573z M52.206,100.819
			c-2.076-0.48-4.156-0.961-6.223-1.488c-2.564-0.654-2.004-0.879-1.582-2.857c0.186-0.869,0.504-1.029,1.354-0.891
			c1.895,0.309,3.787,0.619,5.686,0.916c0.818,0.129,1.15,0.406,1.271,1.168c0.066,0.422,0.088,0.85,0.15,1.488
			c0.023,0.104,0.111,0.412,0.162,0.729C53.128,100.546,52.786,100.954,52.206,100.819z M40.034,82.335
			c-2.467-4.289-2.797-8.859-2.562-13.623c0.164-3.342,1.438-6.186,3.352-8.83c2.334-3.225,4.992-6.129,8.344-8.326
			c0.797-0.523,1.645-1.041,2.545-1.316c3.367-1.029,6.787-1.859,10.336-1.93c1.922-0.039,3.848,0.082,5.77,0.021
			c2.289-0.076,4.443,0.461,6.561,1.217c1.105,0.395,2.197,0.834,3.27,1.311c3.688,1.639,6.711,4.109,9.102,7.359
			c1.146,1.561,2.072,3.23,2.557,5.125c0.023,0.104,0.027,0.217,0.072,0.312c1.529,3.211,1.338,6.641,1.312,10.057
			c-0.01,1.225-0.383,2.289-1.053,3.299c-0.943,1.422-1.875,2.857-2.736,4.33c-1.07,1.832-2.766,3.01-4.473,4.047
			c-2.824,1.715-5.781,3.221-8.74,4.699c-1.727,0.863-3.605,1.26-5.574,1.217c-2.242-0.049-4.488-0.01-6.732-0.01H55.29
			C48.952,91.302,43.161,87.776,40.034,82.335z M105.431,72.968c-0.701,2.232-1.074,4.568-1.689,6.832
			c-0.66,2.426-2.01,4.475-3.758,6.258c-0.748,0.764-1.506,1.531-2.336,2.199c-3.504,2.818-7.145,5.49-11.111,7.586
			c-5.689,3.002-11.715,5.189-18.115,6.18c-0.514,0.08-1.1,0.111-1.574-0.057c-2.479-0.873-5.045-0.84-7.613-0.863
			c-0.748-0.01-1.498-0.031-2.244-0.072c-0.658-0.035-0.865-0.322-0.559-1.027c0.461-1.057,0.107-2.602,1.182-3.16
			c0.85-0.443,2.076-0.184,3.135-0.201c1.285-0.02,2.568-0.004,3.854-0.004c0,0,0,0.002,0,0.004c1.604,0,3.209-0.016,4.814,0.004
			c2.293,0.029,4.48-0.48,6.5-1.506c3.146-1.596,6.236-3.303,9.33-4.996c0.652-0.355,1.232-0.846,1.828-1.295
			c1.023-0.771,1.967-1.686,3.07-2.316c2.145-1.23,3.523-3.02,4.488-5.252c1.201-2.781,2.094-5.605,1.92-8.682
			c-0.102-1.805,0.387-3.594-0.01-5.424c-1.227-5.613-3.051-10.963-7.246-15.09c-2.275-2.236-4.75-4.303-7.688-5.719
			c-3.191-1.537-6.516-2.678-9.949-3.52c-0.412-0.104-0.838-0.174-1.26-0.201c-9.053-0.586-17.684,0.809-25.646,5.414
			c-1.385,0.803-2.867,1.447-4.232,2.281c-1.457,0.889-2.846,1.891-4.225,2.9c-1.047,0.768-1.904,1.76-2.363,2.977
			c-0.541,1.428-1.404,2.645-2.307,3.826c-1.855,2.43-2.961,5.18-3.658,8.119c-0.318,1.35-0.629,2.705-0.842,4.076
			c-0.336,2.162,0.037,4.27,0.799,6.295c0.289,0.766,0.262,1.395-0.082,2.131c-0.678,1.449-1.213,2.967-1.887,4.418
			c-0.23,0.504,0.102,1.473-0.797,1.432c-0.404-0.018-0.801-0.629-1.166-1.004c-0.672-0.695-0.695-1.436-0.342-2.35
			c0.773-1.99,1.426-4.025,2.111-6.047c0.207-0.604,0.438-1.209,0.535-1.832c0.119-0.789-0.184-1.473-0.838-1.963
			c-0.365-0.273-0.799-0.391-1.164-0.068c-0.395,0.346-0.801,0.73-1.041,1.184c-0.807,1.506-1.537,3.057-2.316,4.578
			c-0.088,0.17-0.367,0.412-0.463,0.377c-0.24-0.096-0.473-0.297-0.631-0.514c-0.637-0.867-0.691-1.713-0.025-2.652
			c0.422-0.598,0.611-1.357,0.939-2.027c0.705-1.436,1.432-2.859,2.15-4.287c0.527-1.051,1.037-2.109,1.598-3.145
			c0.525-0.975,0.266-1.865-0.221-2.734c-0.641-1.141-2.154-1.332-2.965-0.355c-0.953,1.15-1.861,2.338-2.795,3.506
			c-0.041,0.051-0.186,0.092-0.219,0.064c-0.072-0.064-0.154-0.178-0.146-0.266c0.014-0.209,0.059-0.422,0.125-0.621
			c1.379-4.191,3.299-8.111,5.834-11.727c0.486-0.697,0.961-1.408,1.363-2.158c0.309-0.568,0.09-1.281-0.41-1.748
			c-0.43-0.4-0.961-0.533-1.48-0.309c-0.979,0.424-1.922,0.934-2.885,1.398c-0.506,0.246-0.623,0.141-0.777-0.523
			c-0.141-0.605-0.24-1.248-0.525-1.789c-0.338-0.641-1.52-0.705-1.975-0.172c-0.271,0.322-0.459,0.715-0.721,1.049
			c-0.432,0.551-0.475,1.482-1.455,1.498c-0.141-0.717-0.297-1.428-0.416-2.148c-0.203-1.244,0.232-2.309,0.971-3.283
			c2.004-2.639,4.004-5.281,6.012-7.918c0.324-0.426,0.715-0.803,1.004-1.25c0.488-0.75,0.594-1.586,0.379-2.461
			c-0.219-0.891-1.271-1.398-1.996-0.861c-1.457,1.082-2.867,2.227-4.273,3.373c-0.578,0.471-1.088,1.021-1.656,1.502
			c-0.061,0.053-0.418-0.082-0.451-0.188c-0.295-0.955-0.271-1.924,0.225-2.795c2.008-3.539,4.105-7.025,6.871-10.035
			c0.477-0.516,1.238-0.773,1.891-1.109c0.088-0.045,0.422,0.152,0.447,0.275c0.107,0.514,0.16,1.043,0.189,1.57
			c0.254,4.268,0.418,8.541,0.77,12.801c0.199,2.439,0.697,4.855,1.062,7.279c0.049,0.318,0.072,0.645,0.164,0.949
			c0.502,1.717,2.08,2.559,3.785,1.928c0.791-0.293,1.52-0.775,2.238-1.236c0.627-0.402,1.197-0.893,1.797-1.34
			c2.939-2.189,6.162-3.832,9.615-5.051c4.242-1.494,8.596-2.572,12.977-3.539c1.139-0.25,2.334-0.316,3.504-0.324
			c3.744-0.029,7.494-0.092,11.232,0.061c2.229,0.09,4.443,0.551,6.662,0.852c0.846,0.117,1.695,0.227,2.533,0.387
			c0.832,0.162,1.689,0.287,2.475,0.592c5.307,2.057,10.334,4.611,14.807,8.197c1.451,1.162,2.625,2.404,3.229,4.227
			c0.467,1.408,1.26,2.705,1.887,4.061c1.035,2.25,1.473,4.682,2.051,7.064c0.277,1.141,0.475,2.312,0.553,3.48
			C105.929,68.952,106.062,70.954,105.431,72.968z M70.835,68.085c0.242-4.07-1.961-6.289-4.658-7.217
			c-2.158-0.738-4.428-0.732-6.594,0.037c-2.713,0.963-4.797,2.775-6.223,5.262c-1.346,2.348-1.666,4.873-0.443,7.354
			c0.604,1.223,1.494,2.332,2.395,3.375c2.727,3.166,8.385,2.908,10.818,0.842C69.142,75.183,70.972,72.112,70.835,68.085z
			 M65.208,71.538c0.062-0.201,0.141-0.414,0.131-0.617c-0.018-0.311-0.053-0.639-0.168-0.924c-0.199-0.494-0.475-0.965-1.074-1.061
			c-0.615-0.098-0.922,0.301-1.273,0.732c-0.432,0.534-0.285,1.463-1.124,1.702c0.005,0.029,0.004,0.058,0.011,0.087
			c-0.031,0.015-0.051,0.032-0.079,0.048c-0.015,0.578-0.02,1.159-0.062,1.737c-0.01,0.125-0.186,0.238-0.283,0.355
			c-0.055-0.084-0.162-0.174-0.156-0.258c0.03-0.652-0.283-1.415,0.501-1.835c0.001-0.037,0.002-0.073,0.003-0.11
			c0.025-0.006,0.041-0.018,0.065-0.024c-0.2-1.099,0.435-1.981,0.812-2.927c0.195-0.49,0.502-0.934,0.727-1.416
			c0.373-0.799,0.334-1.389-0.094-1.756c-0.471-0.406-0.965-0.273-1.48-0.078c-0.131,0.049-0.33-0.082-0.496-0.131
			c0.066-0.193,0.088-0.424,0.209-0.576c0.191-0.242,0.414-0.547,0.684-0.625c2.988-0.879,5.666,1.078,5.549,3.838
			c-0.07,1.627-0.238,3.18-1.385,4.438c-0.197,0.217-0.584,0.496-0.781,0.432C64.933,72.401,65.083,71.938,65.208,71.538z"/>
	</g>
</g>
</svg>
