<?xml version="1.0" encoding="utf-8"?>
<!-- Generator: Adobe Illustrator 16.0.0, SVG Export Plug-In . SVG Version: 6.00 Build 0)  -->
<!DOCTYPE svg PUBLIC "-//W3C//DTD SVG 1.1//EN" "http://www.w3.org/Graphics/SVG/1.1/DTD/svg11.dtd">
<svg version="1.1" id="Layer_1" xmlns="http://www.w3.org/2000/svg" xmlns:xlink="http://www.w3.org/1999/xlink" x="0px" y="0px"
	 width="120px" height="120px" viewBox="0 0 120 120" style="enable-background:new 0 0 120 120;" xml:space="preserve">
<g id="baidu">
	<g>
		<path style="fill-rule:evenodd;clip-rule:evenodd;" d="M88.316,85.383c-1.488-2.34-2.906-4.738-4.555-6.963
			c-2.039-2.748-4.463-5.18-6.943-7.539c-1.863-1.772-3.6-3.648-4.979-5.838c-0.455-0.719-1.031-1.361-1.535-2.051
			c-2.77-3.797-6.469-5.987-11.076-7.018C54.865,54.998,51.104,55.949,48,58.93c-4.465,4.288-8.955,8.579-12.711,13.547
			c-0.838,1.107-1.986,2.039-2.59,3.251c-1.469,2.95-4.623,4.414-6.158,7.274c-0.178,0.33-0.664,0.533-1.047,0.702
			c-1.301,0.571-1.879,1.648-2.254,2.938c-0.656,2.261-1.014,4.556-1.289,6.897c-0.383,3.239,0.373,6.133,1.904,8.895
			c1.25,2.253,2.838,4.258,4.615,6.132c2.023,2.135,4.518,3.222,7.385,3.353c6.334,0.287,12.357-0.672,17.484-4.828
			c0.662-0.537,1.355-1.037,2.057-1.527c1.049-0.735,2.09-1.488,3.18-2.161c2.236-1.386,4.707-1.153,7.164-0.917
			c0.301,0.029,0.611,0.21,0.865,0.392c1.998,1.421,4.285,2.382,6.143,4.05c1.096,0.983,2.371,1.941,3.736,2.418
			c4.795,1.672,9.203,1.021,13.047-2.584c2.234-2.097,3.568-4.488,3.398-7.637c-0.32-3.832-0.879-7.605-3.014-10.963
			C89.346,87.259,88.889,86.282,88.316,85.383z M81.26,92.146c-0.035,0.245-0.1,0.773-0.186,1.298
			c-0.047,0.301-0.223,0.363-0.479,0.197c-0.801-0.528-1.59-1.076-2.408-1.58c-1.633-1.011-3.24-2.076-4.938-2.971
			c-1.701-0.896-3.486-1.637-5.025-2.816c-2.197-1.683-4.586-1.455-7.016-0.693c-0.502,0.158-0.998,0.41-1.434,0.709
			c-1.27,0.877-2.506,1.168-4.148,0.881c-2.574-0.453-4.406,2.137-3.506,4.598c0.107,0.3,0.248,0.595,0.42,0.864
			c0.262,0.417,0.238,0.792-0.088,1.146c-1.617,1.767-3.602,3.01-5.756,3.996c-0.379,0.173-0.846,0.317-1.242,0.26
			c-1.512-0.218-2.961-0.056-4.402,0.429c-0.455,0.152-1.135-0.58-0.916-1.002c1.096-2.123,0.15-3.445-1.652-4.475
			c-0.182-0.103-0.375-0.209-0.502-0.363c-0.039-0.049,0.094-0.352,0.195-0.383c0.811-0.243,1.688-0.335,2.441-0.691
			c1.658-0.782,1.959-3.071,0.58-4.312c-0.453-0.41-1.107-0.594-1.654-0.91c-0.152-0.089-0.363-0.325-0.332-0.428
			c0.09-0.289,0.229-0.67,0.461-0.788c0.561-0.282,1.18-0.455,1.787-0.636c1.021-0.307,2.09-0.495,3.066-0.902
			c0.771-0.324,1.512-0.821,2.139-1.383c1.484-1.329,1.273-3.282-0.428-4.301c-0.73-0.436-1.521-0.76-2.273-1.16
			c-0.111-0.06-0.15-0.258-0.223-0.393c0.104-0.027,0.205-0.076,0.307-0.08c1.393-0.051,2.781-0.117,4.172-0.134
			c1.051-0.013,1.82-0.518,2.498-1.255c1.102-1.203,1.072-2.217-0.176-3.305c-0.555-0.483-1.201-0.863-1.777-1.329
			c-0.076-0.063-0.039-0.429,0.062-0.519c0.312-0.275,0.654-0.619,1.033-0.694c1.461-0.287,2.939-0.489,4.416-0.7
			c0.312-0.045,0.639,0.025,0.959,0.002c0.779-0.059,1.451-0.644,1.48-1.421c0.029-0.735-0.027-1.491-0.176-2.21
			c-0.096-0.465,0.115-0.65,0.416-0.568c1.025,0.28,2.045,0.605,3.033,0.996c1.111,0.438,2.037,1.117,2.725,2.146
			c0.951,1.42,2.018,2.763,2.99,4.168c1.283,1.852,2.738,3.524,4.412,5.049c3.006,2.736,5.982,5.513,8.445,8.773
			c0.576,0.766,1.141,1.549,1.625,2.375C81.379,89.659,81.357,89.671,81.26,92.146z M33.285,65.434
			c2.334-1.529,3.787-3.691,4.848-6.207c1.635-3.877,1.586-7.924,1.277-11.992c-0.107-1.395-0.701-2.661-1.428-3.867
			c-1.188-1.982-2.855-3.472-4.799-4.632c-4.469-2.665-9.16-4.041-14.359-2.278c-1.594,0.54-2.885,1.414-3.701,2.872
			c-0.518,0.925-0.928,1.92-1.301,2.915c-0.805,2.149-0.668,4.418-0.732,6.118c0,1.181-0.004,1.821,0,2.463
			c0.045,4.263,1.533,7.917,4.602,10.903c0.688,0.672,1.4,1.322,2.076,2.006c1.631,1.653,3.639,2.646,5.867,3.102
			C28.34,67.389,30.912,66.986,33.285,65.434z M23.529,44.844c-0.182,0.046-0.436,0.064-0.57-0.029
			c-0.141-0.098-0.275-0.368-0.24-0.523c0.279-1.191,1-1.773,2.002-1.555c2.938,0.643,5.279,2.248,6.881,4.765
			c0.535,0.843,0.584,1.995,0.789,2.761c-0.262,1.768-0.461,3.239-0.713,4.701c-0.049,0.286-0.242,0.636-0.479,0.784
			c-0.594,0.374-0.605-0.28-0.826-0.56c-0.197-0.248-0.35-0.629-0.604-0.719c-1.711-0.601-2.033-1.871-1.869-3.482
			c0.07-0.672-0.332-1.266-0.922-1.568c-0.736-0.379-0.734-0.827-0.51-1.535c0.271-0.854,0.045-1.672-0.627-2.338
			C25.188,44.895,24.449,44.609,23.529,44.844z M106.926,53.536c-0.004-2.444-0.848-4.603-2.111-6.614
			c-2.078-3.306-5.33-4.647-9.008-4.535c-4.395,0.137-8.012,2.204-10.547,5.82c-1.488,2.122-2.543,4.57-1.93,7.228
			c0.443,1.923,0.402,3.799,0.395,5.713c0,1.388-0.115,2.788,0.023,4.161c0.311,3.012,1.65,5.443,4.227,7.19
			c1.455,0.985,2.992,1.524,4.705,1.864c4.5,0.894,7.902-0.7,10.566-4.271c1.562-2.098,2.363-4.498,3.006-7
			C107.062,59.936,106.93,56.739,106.926,53.536z M98.355,63.732c-0.186,0.401-0.723,0.527-1,0.241
			c-0.146-0.15-0.215-0.407-0.385-0.499c-2.18-1.18-2.629-3.111-2.391-5.368c0.055-0.525,0.008-1.062,0.008-1.669
			c0.053-1.195,0.109-2.469,0.164-3.74c0.027-0.715,0.418-1.159,1.033-1.469c0.967-0.485,1.91-0.816,2.959-0.189
			c0.592,0.354,1.002,0.833,1.068,1.488C100.209,56.373,100.012,60.15,98.355,63.732z M37.477,26.564
			c-0.213,3.466,1.008,6.54,2.822,9.34c1.979,3.048,4.648,5.186,8.482,5.672c1.418,0.18,2.746,0.047,4.105-0.094
			c3.113-0.32,5.332-1.991,6.83-4.667c1.236-2.206,1.562-4.62,1.432-7.109c0-0.96,0.113-1.936-0.018-2.878
			c-0.709-5.086-2.67-9.648-6.057-13.523c-1.91-2.186-4.109-4.045-6.99-4.884c-2.92-0.851-5.48-0.341-7.551,2.011
			c-1.518,1.723-2.5,3.756-2.9,5.972c-0.473,2.608-0.963,5.251-0.229,7.93C37.594,25.031,37.52,25.822,37.477,26.564z
			 M50.301,29.062c-0.035-0.785-0.459-1.393-1.252-1.694c-0.377-0.144-0.916-0.286-1.035-0.571
			c-0.133-0.318,0.125-0.803,0.223-1.211c0.207-0.827,0.477-1.644,0.611-2.481c0.082-0.504,0.148-1.183-0.111-1.539
			c-1.059-1.451-0.396-2.849-0.041-4.265c0.045-0.182,0.236-0.354,0.4-0.471c0.396-0.284,0.559,0.09,0.74,0.318
			c1.963,2.451,3.344,5.207,4.084,8.248c0.326,1.334,0.379,2.733,0.498,3.674c-0.08,1.404-0.053,2.377-0.209,3.318
			c-0.275,1.675-1.381,2.639-3.084,2.674c-0.945,0.021-1.906-0.102-2.836-0.291c-0.338-0.068-0.594-0.52-0.889-0.796
			c0.285-0.127,0.559-0.3,0.855-0.374c1.068-0.266,1.625-1.051,1.855-2.01C50.307,30.778,50.336,29.904,50.301,29.062z
			 M45.584,31.405l-0.021,0.171l-0.139-0.102L45.584,31.405z M68.676,40.717c2.604,2.305,5.697,3.257,9.18,2.029
			c2-0.704,3.426-2.1,4.609-3.789c2.596-3.713,3.363-7.982,3.818-12.57c-0.139-0.854-0.273-1.908-0.48-2.947
			c-0.861-4.293-3.531-6.988-7.666-8.084c-2.924-0.775-5.727-0.188-8.061,1.888c-1.559,1.385-2.424,3.202-2.996,5.174
			c-0.441,1.53-0.898,3.056-1.318,4.593c-0.279,1.023-0.537,2.053-0.752,3.091C64.133,34.359,65.525,37.93,68.676,40.717z
			 M74.068,24.263c0.098-0.3,0.197-0.605,0.344-0.882c0.553-1.042,1.672-1.305,2.699-0.715c0.9,0.52,1.416,1.277,1.531,2.279
			c0.072,0.627,0.014,1.27,0.014,1.906c-0.006,3.064-1.01,5.808-2.758,8.295c-0.109,0.152-0.363,0.32-0.521,0.296
			c-0.402-0.062-0.338-0.307-0.166-0.61c0.277-0.494,0.369-1.158-0.066-1.475c-1.338-0.969-1.082-2.461-1.363-3.757
			C73.393,27.814,73.512,26.017,74.068,24.263z"/>
	</g>
</g>
</svg>
