<?xml version="1.0" encoding="utf-8"?>
<!-- Generator: Adobe Illustrator 16.0.0, SVG Export Plug-In . SVG Version: 6.00 Build 0)  -->
<!DOCTYPE svg PUBLIC "-//W3C//DTD SVG 1.1//EN" "http://www.w3.org/Graphics/SVG/1.1/DTD/svg11.dtd">
<svg version="1.1" id="Layer_1" xmlns="http://www.w3.org/2000/svg" xmlns:xlink="http://www.w3.org/1999/xlink" x="0px" y="0px"
	 width="120px" height="120px" viewBox="0 0 120 120" style="enable-background:new 0 0 120 120;" xml:space="preserve">
<g id="chrome">
	<g>
		<path style="fill-rule:evenodd;clip-rule:evenodd;" d="M113.011,62.948c-0.094-0.52-0.012-1.068-0.066-1.6
			c-0.279-2.758-0.498-5.525-0.887-8.27c-0.664-4.678-2.189-9.102-4.025-13.453c-2.018-4.783-4.709-9.092-8.254-12.883
			c-1.238-1.326-2.365-2.756-3.623-4.062c-1.105-1.152-2.25-2.293-3.506-3.275c-2.607-2.041-5.334-3.928-7.945-5.961
			c-3.422-2.666-7.248-4.479-11.361-5.777c-2.523-0.799-5.121-0.867-7.605-0.316c-1.922,0.43-3.791,0.508-5.707,0.496
			C55.194,7.813,50.454,8.478,45.8,9.79c-1.436,0.406-2.875,0.854-4.344,1.062c-2.574,0.369-4.99,1.197-7.277,2.361
			c-8.049,4.1-14.715,9.811-19.895,17.234c-2.779,3.98-4.951,8.156-5.564,13.117c-0.523,4.227-1.396,8.4-1.816,12.662
			c-0.371,3.795,0.109,7.459,0.602,11.15c0.225,1.684,0.598,3.377,1.158,4.977c1.982,5.656,4.352,11.15,7.533,16.252
			c2.447,3.926,5.34,7.484,9.137,10.213c1.217,0.873,2.504,1.648,3.686,2.562c3.67,2.844,7.742,4.916,12.09,6.494
			c1.805,0.656,3.566,1.436,5.373,2.092c1.602,0.582,3.219,1.152,4.867,1.578c1.023,0.264,2.139,0.154,3.176,0.383
			c3.354,0.736,6.738,1.092,10.367,1.059c3.789,0.143,7.658-0.471,11.479-1.627c2.855-0.863,5.693-1.818,8.672-2.24
			c1.277-0.182,2.562-0.621,3.494-1.506c1.418-1.346,3.131-2.223,4.695-3.33c3.963-2.807,7.367-6.117,9.932-10.318
			c2.523-4.133,4.379-8.543,6.035-13.061c0.736-2.004,1.398-4.033,2.109-6.047C112.667,71.001,113.755,67.11,113.011,62.948z
			 M26.144,24.522c1.639-1.188,3.393-2.223,5.109-3.301c0.248-0.156,0.639-0.32,0.871-0.234c1.238,0.463,2.004-0.264,2.855-0.949
			c0.66-0.531,1.389-1.008,2.152-1.373c3.961-1.891,8.045-3.379,12.432-4.016c2.732-0.396,5.477-0.795,8.139-1.629
			c2.199-0.688,4.461-0.207,6.678,0.053c2.432,0.283,4.848,0.705,7.264,1.119c0.941,0.16,1.893,0.367,2.781,0.705
			c2.594,0.984,5.145,2.076,7.738,3.062c2.447,0.934,4.484,2.469,6.342,4.246c2.701,2.588,5.361,5.219,7.998,7.871
			c0.75,0.752,1.375,1.633,2.021,2.48c0.176,0.23,0.346,0.58,0.305,0.84c-0.082,0.516-0.584,0.559-1,0.564
			c-3.527,0.066-7.053,0.107-10.58,0.17c-2.881,0.049-5.764-0.074-8.629,0.434c-1.146,0.203-2.348,0.152-3.521,0.139
			c-2.148-0.027-4.285,0.166-6.346,0.717c-2.092,0.559-4.174,0.848-5.682,0.676c-4.227-0.143-7.656,0.438-10.83,2.207
			c-0.557,0.309-1.172,0.516-1.768,0.746c-2.953,1.139-5.461,2.877-7.396,5.408c-1.814,2.371-3.592,4.758-4.568,7.635
			c-0.17,0.498-0.455,0.963-0.732,1.412c-0.051,0.082-0.369,0.08-0.506,0.006c-0.174-0.096-0.322-0.281-0.428-0.461
			c-3.221-5.547-6.08-11.273-8.475-17.229c-1.033-2.574-2.025-5.164-3.104-7.719C24.351,25.935,24.263,25.888,26.144,24.522z
			 M63.571,69.069c-0.326-0.658-1.064-1.045-1.887-0.885c-0.619,0.123-1.24,0.311-1.818,0.568c-1.072,0.473-2.105,1.039-3.174,1.525
			c-0.906,0.414-1.639,0.936-1.973,1.955c-0.148,0.459-0.635,0.521-1.055,0.248c-0.441-0.289-0.877-0.598-1.27-0.947
			c-0.092-0.082-0.082-0.443,0.016-0.537c0.219-0.213,0.514-0.359,0.795-0.5c1.812-0.908,3.623-1.824,5.449-2.707
			c0.98-0.473,1.828-1.088,2.504-1.947c0.736-0.941,0.168-2.549-1.006-2.783c-1.176-0.236-2.336-0.158-3.484,0.191
			c-0.619,0.189-0.688-0.238-0.695-0.682c-0.002-0.213,0.074-0.426,0.068-0.637c-0.045-1.605-0.914-2.402-2.43-2.076
			c-0.818,0.176-1.617,0.539-2.359,0.938c-0.938,0.504-1.801,1.145-2.713,1.693c-0.229,0.139-0.545,0.438-0.791,0.006
			c-0.104-0.178-0.17-0.391-0.193-0.594c-0.082-0.719,0.242-1.229,0.865-1.566c1.873-1.018,3.723-2.086,5.635-3.027
			c0.777-0.383,1.539-0.721,2.107-1.395c0.768-0.906,0.508-2.146-0.523-2.707c-1.125-0.607-2.279-0.592-3.398-0.119
			c-1.375,0.58-2.697,1.283-4.055,1.904c-0.088,0.041-0.305-0.143-0.43-0.256c-0.033-0.031,0.021-0.229,0.09-0.289
			c1.449-1.291,3.129-2.211,4.869-3.035c0.965-0.457,1.957-0.871,2.855-1.438c1.389-0.873,1.258-2.592-0.207-3.346
			c-0.279-0.145-0.602-0.205-0.898-0.318c-0.533-0.209-1.457,0.186-1.514-0.703c-0.025-0.404,0.51-0.879,0.859-1.262
			c1.363-1.506,3.014-2.334,5.113-2.102c0.633,0.068,1.281,0.012,2.023,0.012c0.539,0.041,1.18,0.066,1.814,0.145
			c0.754,0.094,1.486,0.145,2.188-0.225c1.438-0.758,2.713-0.195,3.908,0.57c2.029,1.299,3.443,3.174,4.59,5.248
			c2.07,3.754,2.791,7.809,2.518,12.055c-0.041,0.627-0.207,1.264-0.42,1.859c-0.752,2.109-1.527,4.211-2.338,6.299
			c-0.725,1.871-2.125,3.182-3.764,4.246c-0.889,0.578-1.842,1.061-2.77,1.58c-0.512,0.285-0.945,0.258-1.41-0.189
			c-1.096-1.053-2.342-0.732-3.584-0.277c-0.984,0.359-1.805,1.201-2.975,1.008c-0.1-0.018-0.191-0.074-0.285-0.121
			c-0.268-0.131-0.256-0.287,0.053-0.416c0.193-0.082,0.42-0.092,0.609-0.182c0.963-0.455,1.947-0.873,2.863-1.408
			c0.539-0.318,1.027-0.781,1.424-1.27C63.876,70.556,63.94,69.813,63.571,69.069z M49.968,67.187
			c-0.102,0.246-0.186,0.506-0.33,0.725c-0.021,0.029-0.482-0.121-0.49-0.211c-0.023-0.246,0.086-0.502,0.148-0.771
			C49.597,67.044,49.782,67.116,49.968,67.187z M56.692,102.237c-0.24,0.594-0.412,1.227-0.738,1.768
			c-0.191,0.318-0.652,0.727-0.947,0.691c-1.473-0.174-2.934-0.453-4.387-0.77c-0.217-0.047-0.381-0.467-0.52-0.74
			c-0.236-0.467-0.373-0.996-0.662-1.424c-0.443-0.66-1.408-0.975-1.961-0.475c-1.617,1.463-3.129,0.76-4.686-0.002
			c-0.096-0.049-0.188-0.105-0.281-0.154c-1.109-0.592-1.43-1.172-1.158-2.332c0.242-1.037,0.609-2.047,0.826-3.09
			c0.129-0.611,0.16-1.271,0.08-1.891c-0.102-0.791-0.982-1.492-1.809-1.6c-0.582-0.078-1.398,0.469-1.703,1.229
			c-0.318,0.793-0.547,1.619-0.832,2.424c-0.18,0.502-0.342,1.023-0.623,1.465c-0.123,0.191-0.57,0.334-0.801,0.266
			c-1.08-0.32-1.461-0.842-1.248-1.77c0.527-2.285,1.119-4.553,1.664-6.834c0.146-0.615,0.279-1.248,0.299-1.877
			c0.018-0.555-0.295-1.014-0.805-1.293c-0.574-0.312-1.072-0.055-1.43,0.34c-0.568,0.629-1.121,1.297-1.547,2.027
			c-0.535,0.918-0.949,1.908-1.391,2.881c-0.307,0.674-0.57,1.367-0.854,2.051c-0.955,0.152-1.551-0.588-2.287-0.959
			c-0.539-0.271-0.633-0.742-0.404-1.348c0.869-2.295,1.691-4.607,2.529-6.912c0.182-0.5,0.455-0.988,0.521-1.504
			c0.066-0.508,0.004-1.066-0.139-1.564c-0.252-0.883-1.504-1.232-2.057-0.557c-0.811,0.988-1.576,2.021-2.24,3.111
			c-0.607,1-1.031,2.109-1.59,3.143c-0.123,0.23-0.473,0.34-0.719,0.504c-0.174-0.262-0.373-0.512-0.514-0.791
			c-0.092-0.18-0.156-0.41-0.131-0.602c0.043-0.314,0.17-0.617,0.264-0.924c0.586-1.939,1.174-3.877,1.762-5.816
			c0.248-0.816,0.553-1.621,0.723-2.453c0.078-0.387,0.01-0.891-0.189-1.225c-0.193-0.324-0.615-0.65-0.975-0.697
			c-0.348-0.045-0.92,0.158-1.084,0.438c-0.93,1.557-1.766,3.168-2.629,4.764c-0.15,0.277-0.264,0.574-0.412,0.852
			c-0.141,0.266-0.637,0.248-0.801-0.037c-0.373-0.645-0.717-1.307-1.094-1.951c-0.469-0.801-0.477-1.617-0.156-2.463
			c1.059-2.795,2.1-5.596,3.178-8.381c0.463-1.195,1.021-2.354,1.484-3.547c0.15-0.383,0.207-0.832,0.184-1.246
			c-0.031-0.572-0.4-0.967-0.93-1.189c-0.479-0.201-1.123-0.023-1.398,0.455c-1.225,2.127-2.434,4.262-3.625,6.408
			c-0.414,0.746-0.758,1.527-1.143,2.289c-0.045,0.088-0.15,0.205-0.227,0.205c-0.082,0-0.17-0.117-0.238-0.199
			c-0.066-0.08-0.135-0.17-0.164-0.268c-0.744-2.51-1.021-5.02,0.139-7.492c0.908-1.934,1.85-3.85,2.754-5.787
			c0.361-0.77,0.744-1.545,0.975-2.359c0.199-0.709,0.303-1.504-0.385-2.076c-0.41-0.34-1.305-0.037-1.947,0.705
			c-0.697,0.805-1.32,1.674-2.002,2.492c-0.094,0.111-0.346,0.109-0.523,0.113c-0.045,0.002-0.121-0.176-0.133-0.275
			c-0.035-0.316-0.061-0.637-0.064-0.955c-0.01-0.641-0.004-1.283-0.004-2.1c0.576-5.23,0.695-10.699,2.555-15.896
			c0.178-0.502,0.365-1.002,0.588-1.482c0.08-0.176,0.277-0.301,0.422-0.447c0.066,0.084,0.152,0.156,0.201,0.252
			c3.137,6.191,6.217,12.416,9.428,18.57c1.977,3.787,4.082,7.512,6.262,11.188c2.682,4.52,5.973,8.594,9.572,12.414
			c1.951,2.07,4.348,3.398,7.061,4.24c1.48,0.457,2.918,0.549,4.414,0.205c0.725-0.168,1.471-0.375,2.197-0.348
			c2.91,0.109,5.752-0.309,8.574-0.945c0.174-0.039,0.51-0.02,0.541,0.061c0.104,0.268,0.223,0.629,0.123,0.861
			c-1.59,3.732-3.205,7.457-4.838,11.172c-0.777,1.771-1.787,3.43-3.115,4.828C58.187,98.956,57.38,100.55,56.692,102.237z
			 M107.056,67.534c-1.006,4.166-2.555,8.145-3.977,12.168c-0.533,1.508-1.193,2.969-1.791,4.453
			c-0.117,0.293-0.34,0.627-0.285,0.893c0.326,1.584-0.705,2.648-1.439,3.785c-1.861,2.883-3.955,5.584-6.484,7.926
			c-0.664,0.617-1.27,1.064-2.256,0.529c-0.486-0.262-1.178,0.09-1.299,0.631c-0.531,2.385-2.348,3.447-4.295,4.422
			c-0.67,0.334-1.311,0.725-1.986,1.043c-0.139,0.064-0.434-0.021-0.551-0.141c-0.098-0.102-0.104-0.383-0.037-0.533
			c0.775-1.76,1.574-3.51,2.359-5.264c0.131-0.289,0.25-0.588,0.338-0.891c0.115-0.4-0.254-1.117-0.77-1.27
			c-0.363-0.107-0.988-0.141-1.168,0.07c-1.164,1.381-2.586,2.557-3.426,4.211c-0.727,1.428-1.523,2.82-2.254,4.248
			c-0.43,0.836-1.078,1.328-2.004,1.391c-0.957,0.066-1.922,0.076-2.885,0.076c-0.623,0-0.881-0.504-0.541-1.119
			c1.086-1.963,2.201-3.91,3.305-5.863c0.262-0.461,0.574-0.9,0.781-1.387c0.281-0.666,0.006-1.633-0.529-2.047
			c-0.654-0.502-1.414-0.592-2.113-0.229c-0.551,0.287-1.094,0.711-1.467,1.207c-1.865,2.482-3.4,5.176-4.697,7.994
			c-0.682,1.48-0.598,1.52-1.896,1.545c-0.322,0.006-0.645,0.021-0.963-0.006c-0.727-0.061-1.635,0.295-2.119-0.377
			c-0.609-0.842,0.186-1.604,0.521-2.336c0.217-0.471,0.629-0.857,0.98-1.26c1.994-2.279,3.459-4.879,4.611-7.66
			c2.17-5.23,4.334-10.463,6.461-15.709c0.49-1.207,1.133-2.256,2.014-3.23c2.807-3.105,3.852-6.814,3.527-10.951
			c-0.041-0.516-0.146-1.125,0.068-1.541c1.061-2.055,0.873-4.381,1.525-6.52c0.287-0.947,0.135-1.889-0.607-2.689
			c-0.348-0.377-0.592-0.887-0.764-1.379c-0.818-2.355-2.229-4.352-3.637-6.379c-1.018-1.465-1.729-3.145-2.545-4.746
			c-0.039-0.08,0.189-0.418,0.334-0.449c0.514-0.107,1.045-0.174,1.572-0.191c2.672-0.09,5.348-0.16,7.668-0.227
			c0.781,0,1.211-0.016,1.637,0.002c4.498,0.191,8.969-0.309,13.451-0.492c0.748-0.033,1.498-0.049,2.246-0.076
			c0.59-0.021,1.004,0.217,1.275,0.76c1.111,2.205,1.854,4.541,2.494,6.918c0.691,2.57,1.041,5.236,2.209,7.678
			c0.264,0.553,0.293,1.244,0.334,1.877C108.229,60.155,107.942,63.858,107.056,67.534z"/>
	</g>
</g>
</svg>
