<?xml version="1.0" encoding="utf-8"?>
<!-- Generator: Adobe Illustrator 16.0.0, SVG Export Plug-In . SVG Version: 6.00 Build 0)  -->
<!DOCTYPE svg PUBLIC "-//W3C//DTD SVG 1.1//EN" "http://www.w3.org/Graphics/SVG/1.1/DTD/svg11.dtd">
<svg version="1.1" id="Layer_1" xmlns="http://www.w3.org/2000/svg" xmlns:xlink="http://www.w3.org/1999/xlink" x="0px" y="0px"
	 width="120px" height="120px" viewBox="0 0 120 120" style="enable-background:new 0 0 120 120;" xml:space="preserve">
<g id="safari">
	<g>
		<path style="fill-rule:evenodd;clip-rule:evenodd;" d="M109.641,59.012c-0.816-1.08-1.928-1.604-3.221-1.934
			c-3.102-0.791-6.184-1.668-9.271-2.516c-2.264-0.623-4.523-1.262-6.791-1.875c-1.219-0.328-2.451-0.619-3.678-0.928
			c-0.455-1.188-0.865-2.4-1.387-3.561c-0.385-0.859-0.377-1.602,0.092-2.426c1.055-1.861,2.021-3.77,3.066-5.633
			c2.51-4.482,5.117-8.891,8.582-12.742c1.857-2.062,3.611-4.229,5.303-6.434c1.883-2.453,3.725-4.949,5.408-7.541
			c0.672-1.033,0.865-2.375,1.09-3.033c0.053-1.939-1.527-2.953-2.703-2.26c-1.004,0.592-1.938,1.32-2.85,2.059
			c-0.832,0.674-1.609,1.41-2.705,1.648c-1.225,0.266-2.039,1.115-2.838,1.99c-0.865,0.945-1.75,1.842-2.83,2.584
			c-6.873,4.727-13.689,9.535-20.566,14.256c-0.949,0.65-1.658,1.891-2.904,1.854c-1.256-0.041-2.504-0.473-3.748-0.766
			c-0.676-0.16-1.08-0.586-1.213-1.314c-0.648-3.568-1.266-7.146-2.014-10.697c-0.57-2.715-1.273-5.4-2.004-8.076
			c-0.453-1.662-2.418-2.051-3.502-0.684c-0.584,0.734-1.004,1.637-1.33,2.525c-0.367,0.996-0.555,2.061-0.809,3.096
			c-1.303,5.297-3.043,10.457-4.861,15.592c-0.305,0.859-0.754,1.451-1.611,1.848c-1.16,0.535-2.281,1.174-3.355,1.867
			c-1.164,0.75-2.256,1.613-3.379,2.426c-1.541-0.305-2.471-1.611-3.773-2.311c-0.469-0.252-0.875-0.613-1.316-0.916
			c-2.551-1.752-5.096-3.512-7.666-5.236c-0.211-0.143-0.689-0.172-0.861-0.031c-0.297,0.24-0.59,0.645-0.621,1.004
			c-0.035,0.385,0.199,0.811,0.373,1.193c0.98,2.156,2.381,4.047,3.744,5.967c1.299,1.83,2.543,3.699,3.791,5.566
			c0.393,0.584,0.348,1.176-0.02,1.797c-0.873,1.471-1.799,2.92-2.514,4.467c-0.629,1.359-1.297,2.346-3.016,2.303
			c-0.682-0.018-1.398,0.49-2.062,0.828c-2.205,1.127-4.551,1.793-6.957,2.352c-3.531,0.82-7.033,1.781-10.543,2.699
			c-0.408,0.107-0.799,0.303-1.184,0.49c-0.766,0.375-1.156,1.104-0.982,1.82c0.172,0.697,0.654,1.182,1.34,1.174
			c1.666-0.014,3.104,0.699,4.6,1.256c1.102,0.41,2.207,0.812,3.326,1.17c3.053,0.969,6.125,1.879,9.168,2.877
			c1.623,0.535,3.191,1.23,4.803,1.797c0.682,0.24,1,0.682,1.242,1.33c1.752,4.693,1.643,5.48-1.436,9.307
			c-0.066,0.082-0.141,0.162-0.211,0.244c-3.277,3.82-6.25,7.863-9.002,12.078c-1.109,1.699-2.248,3.406-3.58,4.93
			c-2.547,2.92-4.648,6.141-6.617,9.447c-0.922,1.549-1.553,3.273-2.258,4.941c-0.088,0.209,0.121,0.77,0.291,0.816
			c1.102,0.303,2.168,0.752,3.326-0.111c1.883-1.404,3.949-2.564,5.6-4.277c2.91-3.023,6.188-5.584,9.789-7.73
			c1.66-0.992,3.16-2.18,4.609-3.461c2.564-2.268,5.176-4.484,7.82-6.654c1.322-1.084,2.762-2.018,4.154-3.014
			c0.674-0.484,1.373-0.525,2.1-0.102c0.463,0.268,0.914,0.596,1.418,0.746c1.098,0.33,1.445,1.188,1.676,2.15
			c1.365,5.707,2.705,11.422,4.098,17.123c0.199,0.812,0.551,1.619,0.982,2.34c0.324,0.541,0.912,0.969,1.613,0.871
			c0.787-0.105,1.377-0.59,1.663-1.34c0.15-0.391,0.162-0.834,0.246-1.252c0.498-2.518,1.082-5.02,2.135-7.367
			c1.707-3.805,3.367-7.623,4.557-11.625c0.271-0.906,0.812-1.518,1.701-1.754c1.787-0.475,3.34-1.41,4.871-2.393
			c1.17-0.75,2.324-1.525,3.496-2.271c1.354-0.861,1.395-0.887,2.369,0.207c1.08,1.211,2.301,2.229,3.674,3.082
			c2.361,1.467,4.705,2.957,7.084,4.398c0.631,0.383,1.334,0.678,2.039,0.902c0.916,0.293,1.947-0.479,2.098-1.457
			c0.172-1.104-0.283-1.893-1.246-2.363c-2.945-1.443-4.461-4.172-6.266-6.697c-1.141-1.594-1.328-3.584-2.494-5.131
			c-0.135-0.18-0.074-0.623,0.053-0.863c1.002-1.902,1.736-3.898,2.236-5.988c0.146-0.605,0.588-0.832,1.17-0.891
			c1.158-0.119,2.371,0.102,3.443-0.555c3.385-2.078,7.062-3.023,11.02-2.688c2.381,0.203,4.326-1,6.395-1.787
			C110.17,61.338,110.346,59.945,109.641,59.012z M87.281,30.471l0.176,0.023c-0.039,0.242-0.082,0.484-0.121,0.725
			c-0.053-0.078-0.15-0.158-0.148-0.236C87.191,30.811,87.246,30.641,87.281,30.471z M85.527,27.584
			c0.279-0.262,0.66-0.432,1.025-0.574c0.082-0.033,0.33,0.189,0.406,0.344c0.086,0.174,0.061,0.402,0.084,0.604
			c-0.018,0.674-0.334,0.822-0.98,0.461c-0.09-0.051-0.189-0.09-0.268-0.154C85.58,28.084,85.168,27.92,85.527,27.584z
			 M85.391,36.094l0.084,0.252l-0.209-0.021L85.391,36.094z M25.689,60.158l-0.158-0.123l0.184-0.088L25.689,60.158z
			 M21.351,101.176c-0.22,0.461-0.578,0.793-1.109,0.868c0.005,0.033,0.002,0.064,0.009,0.099c-0.057,0.01-0.116,0.015-0.173,0.023
			c-0.073,0.082-0.146,0.164-0.219,0.248c0.027-0.072,0.035-0.182,0.088-0.211c0.039-0.021,0.084-0.03,0.131-0.037
			c0.031-0.035,0.062-0.07,0.093-0.105c0.026-0.002,0.046-0.013,0.071-0.017c-0.079-0.513,0.068-0.956,0.49-1.282
			c0.125-0.098,0.328-0.094,0.496-0.135C21.275,100.811,21.416,101.041,21.351,101.176z M25.291,98.064
			c-0.162-0.072-0.307-0.199-0.432-0.33c-0.061-0.062-0.074-0.186-0.078-0.285c-0.012-0.205-0.004-0.41-0.004-0.617
			c0.023-0.514,0.033-1.029,0.076-1.541c0.014-0.166,0.119-0.324,0.182-0.486c0.062,0.189,0.133,0.377,0.182,0.568
			c0.178,0.688,0.348,1.375,0.521,2.064C25.808,97.717,25.501,98.156,25.291,98.064z M31.22,94.533
			c-0.477,0.416-1.043,0.748-1.619,1.012c-0.18,0.084-0.736-0.148-0.742-0.26c-0.117-1.801-0.186-3.602-0.227-5.406
			c-0.002-0.146,0.266-0.297,0.404-0.443c0.191,0.084,0.498,0.141,0.512,0.238c0.043,0.303-0.059,0.621-0.047,0.932
			c0.041,1.018,0.387,1.877,1.387,2.318c0.383,0.17,0.795,0.277,1.191,0.412C31.798,93.74,31.582,94.221,31.22,94.533z
			 M38.664,87.154c-0.332,0.244-0.58,0.076-0.795-0.18c-0.066-0.078-0.145-0.184-0.146-0.277c-0.066-2.439-0.148-4.879-0.158-7.316
			c-0.002-0.371,0.33-0.748,0.529-1.111c0.043-0.08,0.189-0.176,0.254-0.156c0.156,0.047,0.412,0.154,0.418,0.248
			c0.033,0.738,0.018,1.48,0.018,2.678c0.002-0.033,0.031,0.4-0.051,0.812c-0.293,1.492-0.244,2.92,0.482,4.311
			C39.439,86.594,39.003,86.906,38.664,87.154z M69.869,40.242c0.059-0.139,0.322-0.279,0.471-0.258
			c0.168,0.023,0.438,0.223,0.441,0.354c0.037,1.055,0.021,2.111,0.021,3.168c0.023,0,0.049,0.002,0.074,0.002
			c0,0.639,0.039,1.279-0.012,1.914c-0.045,0.561,0.219,1.197-0.324,1.664c-0.1-0.51-0.221-1.018-0.293-1.531
			c-0.201-1.467-0.398-2.934-0.559-4.404C69.656,40.854,69.75,40.521,69.869,40.242z M65.264,42.68
			c0.146-0.123,0.389-0.131,0.586-0.195c0.07,0.264,0.242,0.547,0.197,0.785c-0.334,1.764-1.037,2.18-2.895,1.766
			c-0.16-0.036-0.319-0.081-0.479-0.124c-0.018,0.015-0.034,0.029-0.051,0.043c-0.052,0.038-0.103,0.077-0.154,0.114
			c-0.101,0.314-0.198,0.631-0.338,0.929c-0.023,0.051-0.34-0.031-0.518-0.068c-0.012-0.004-0.023-0.213,0.025-0.25
			c0.269-0.214,0.551-0.411,0.83-0.611c0.021-0.064,0.041-0.129,0.062-0.194c0.048,0.012,0.095,0.024,0.143,0.037
			C63.533,44.164,64.388,43.41,65.264,42.68z M57.917,28.77c0.131-0.16,0.273-0.381,0.445-0.422c1.059-0.246,2.1-0.262,3.04,0.406
			c0.078,0.055,0.172,0.188,0.154,0.254c-0.047,0.162-0.137,0.418-0.244,0.436c-0.518,0.09-1.051,0.115-0.829,0.096
			c-1.281,0-1.814,0.027-2.34-0.021c-0.117-0.01-0.23-0.283-0.303-0.453C57.81,28.988,57.857,28.844,57.917,28.77z M46.798,79.68
			c-0.867,0.787-1.752,1.555-2.643,2.314c-0.328,0.279-0.902,0.025-0.943-0.4c-0.039-0.424-0.072-0.85-0.074-1.275
			c-0.016-1.701,0-3.398-0.348-5.086c-0.148-0.721-0.061-1.486-0.111-2.23c-0.137-2.076,0.973-3.631,2.141-5.162
			c0.043-0.057,0.191-0.096,0.25-0.064c0.082,0.045,0.182,0.162,0.184,0.248c0.012,1.381,0.008,2.76,0.008,4.139
			c0.023,0,0.049,0,0.072,0.002c0,1.172,0.006,2.344-0.002,3.516c-0.006,1.057,0.463,1.824,1.359,2.365
			c0.334,0.201,0.633,0.457,0.947,0.689C47.361,79.051,47.109,79.398,46.798,79.68z M49.782,76.984
			c0.004,0.034,0.009,0.069,0.013,0.104c-0.055,0.011-0.111,0.018-0.165,0.027c-0.065,0.071-0.129,0.143-0.194,0.213
			c0.029-0.062,0.043-0.154,0.092-0.182c0.031-0.018,0.066-0.024,0.103-0.031c0.031-0.034,0.062-0.067,0.093-0.102
			C49.745,77.003,49.76,76.995,49.782,76.984c-0.054-0.489-0.146-0.979-0.122-1.465c0.021-0.457-0.16-1.051,0.424-1.277
			c0.059-0.023,0.426,0.654,0.598,1.029C51.143,76.274,51.116,76.337,49.782,76.984z M47.158,54.643
			c-1.734,3.305-3.855,6.406-5.824,9.586c-0.08,0.129-0.348,0.25-0.486,0.213c-0.18-0.047-0.4-0.227-0.459-0.398
			c-0.131-0.4-0.236-0.828-0.244-1.248c-0.031-1.283-0.012-2.568-0.012-3.852h-0.09c0-0.535,0.047-1.076-0.01-1.604
			c-0.291-2.809,0.717-5.24,2.15-7.549c0.51-0.818,1.084-1.594,1.578-2.416c1.934-3.219,4.551-5.596,8.062-7.053
			c1.605-0.666,3.137-1.178,4.916-1.127c1.588,0.043,3.186-0.287,4.778-0.457c0.424-0.043,0.85-0.15,1.271-0.137
			c0.271,0.01,0.539,0.186,0.809,0.289c-0.09,0.189-0.135,0.43-0.279,0.562c-0.553,0.502-1.117,0.994-1.713,1.445
			c-2.557,1.938-5.127,3.855-7.688,5.789c-0.596,0.449-1.162,0.938-1.746,1.402C49.945,49.852,48.474,52.131,47.158,54.643z
			 M56.751,52.256c2.197-1.652,4.706-1.986,7.282-1.377c2.555,0.605,4.279,3.402,4.031,6.162c-0.084,0.951-0.219,1.902-0.355,2.85
			c-0.188,1.293-0.734,2.451-1.508,3.48c-1.422,1.893-3.402,2.436-5.946,2.164c-0.254,0-0.787,0.021-1.318-0.006
			c-1.6-0.076-2.883-0.809-3.746-2.121C52.996,60.074,52.888,55.162,56.751,52.256z M60.298,68.492
			c-0.141-0.076-0.289-0.355-0.252-0.494c0.061-0.227,0.27-0.412,0.408-0.607c0.268,0.154,0.518,0.211,0.584,0.354
			C61.164,68.012,60.551,68.627,60.298,68.492z M60.3,94.18c-0.014,0.111-0.541,0.152-0.965,0.262
			c-0.48-0.209-1.031-0.439-1.572-0.693c-0.074-0.033-0.154-0.24-0.133-0.26c0.133-0.123,0.324-0.328,0.439-0.297
			c0.496,0.131,0.982,0.309,1.449,0.518C59.804,93.838,60.384,93.566,60.3,94.18z M61.869,90.449
			c-1.076-0.434-2.145-0.889-3.213-1.344c-0.088-0.039-0.15-0.139-0.225-0.209c0.092-0.055,0.188-0.164,0.273-0.156
			c1.236,0.111,2.446,0.525,3.713,0.357c0.051-0.006,0.148,0.35,0.223,0.537C62.604,90.105,62.18,90.574,61.869,90.449z
			 M81.885,65.969c-0.072,0.408-0.273,0.816-0.5,1.168c-0.916,1.426-0.975,3.266-2.338,4.494c-2.699,2.43-5.381,4.848-8.75,6.371
			c-4.215,1.904-8.639,2.979-13.206,3.543c-0.316,0.037-0.639,0.041-0.928,0.059c-0.238-0.033-0.451-0.049-0.654-0.098
			c-0.098-0.025-0.221-0.1-0.25-0.182c-0.023-0.059,0.068-0.203,0.145-0.25c4.107-2.479,7.659-5.771,11.891-8.072
			c1.213-0.66,2.318-1.518,3.49-2.254c1.311-0.822,2.096-2.105,2.98-3.303c0.182-0.246,0.363-0.596,0.334-0.875
			c-0.176-1.75,0.949-3.002,1.625-4.424c0.865-1.826,1.717-3.662,2.617-5.471c0.328-0.656,0.746-1.277,1.199-1.854
			c0.1-0.123,0.682-0.096,0.787,0.049c0.965,1.324,1.33,2.881,1.57,4.463c0.178,1.158,0.379,2.326,0.383,3.49
			C82.285,63.873,82.07,64.928,81.885,65.969z M75.377,46.832c0.08-0.66,0.107-0.975,0.162-1.283
			c0.016-0.096,0.104-0.182,0.16-0.271c0.076,0.068,0.176,0.123,0.225,0.209c0.4,0.729,0.713,1.52,1.201,2.186
			c1.148,1.562,1.18,1.676-0.105,3.152c-0.133,0.15-0.424,0.367-0.5,0.32c-0.215-0.129-0.463-0.359-0.506-0.588
			C75.752,49.211,75.547,47.857,75.377,46.832z M83.482,30.727c-0.24,0.449-0.5,0.977-0.904,1.236
			c-0.822,0.523-1.102,1.289-1.162,2.146c-0.096,1.379-0.102,2.762-0.137,4.145c-0.02,0.777,0.162,1.559,0.768,2.027
			c1.154,0.895,0.801,1.773,0.168,2.723c-0.295,0.441-0.557,0.904-0.875,1.324c-0.105,0.137-0.342,0.186-0.527,0.242
			c-0.025,0.008-0.143-0.162-0.158-0.26c-0.254-1.678-0.447-3.367-0.758-5.033c-0.232-1.242-0.543-2.484-0.973-3.67
			c-0.146-0.402-0.764-0.635-1.246-1.01c-0.408,0.338-0.859,0.535-1.004,0.867c-0.291,0.666-0.41,1.406-0.611,2.113
			c-0.059,0.199-0.158,0.389-0.238,0.582c-0.15-0.125-0.35-0.221-0.443-0.379c-0.264-0.457-0.506-0.93-0.717-1.412
			c-0.359-0.828-0.312-1.129,0.381-1.619c2.43-1.719,4.873-3.42,7.332-5.096c0.221-0.15,0.68-0.193,0.889-0.062
			C83.66,29.838,83.693,30.334,83.482,30.727z M88.887,61.922c-0.016,0.514-0.553,1.029-0.746,0.783
			c-0.176-0.225-0.359-0.514-0.373-0.783c-0.045-0.945-0.018-1.896-0.018-2.844h0.016c0-0.844-0.018-1.686,0.018-2.527
			c0.008-0.156,0.291-0.451,0.35-0.43c0.27,0.098,0.541,0.254,0.73,0.463c0.123,0.133,0.145,0.396,0.143,0.6
			C88.977,58.764,88.943,60.344,88.887,61.922z M93.713,59.969c-0.092,0.141-0.344,0.273-0.498,0.248
			c-0.143-0.021-0.299-0.238-0.365-0.402c-0.07-0.18-0.045-0.398-0.07-0.725c0.037-0.176,0.088-0.471,0.162-0.758
			c0.025-0.092,0.137-0.244,0.17-0.236c0.189,0.053,0.412,0.102,0.543,0.234C94.162,58.844,94.068,59.422,93.713,59.969z"/>
	</g>
</g>
</svg>
