<?xml version="1.0" encoding="utf-8"?>
<!-- Generator: Adobe Illustrator 16.0.0, SVG Export Plug-In . SVG Version: 6.00 Build 0)  -->
<!DOCTYPE svg PUBLIC "-//W3C//DTD SVG 1.1//EN" "http://www.w3.org/Graphics/SVG/1.1/DTD/svg11.dtd">
<svg version="1.1" id="Layer_1" xmlns="http://www.w3.org/2000/svg" xmlns:xlink="http://www.w3.org/1999/xlink" x="0px" y="0px"
	 width="120px" height="120px" viewBox="0 0 120 120" style="enable-background:new 0 0 120 120;" xml:space="preserve">
<g id="firefox">
	<g>
		<path style="fill-rule:evenodd;clip-rule:evenodd;" d="M114.422,46.834c-0.414-0.67-0.615-1.352-0.568-2.123
			c0.227-3.65-0.324-7.26-0.635-10.875c-0.412-4.756-1.941-9.15-4.656-13.141c-1.314-1.928-2.82-2.352-3.838,0.232
			c-0.053,0.133-0.352,0.271-0.502,0.24c-0.16-0.033-0.359-0.246-0.4-0.416c-0.551-2.273-1.92-4.023-3.527-5.633
			c-2.117-2.121-4.166-4.314-6.355-6.355c-1.32-1.23-2.836-2.258-4.297-3.332c-0.896-0.66-1.936-0.873-3.047-0.719
			c-0.623,0.088-1.23,0.574-1.389,1.172c-0.148,0.562-0.027,1.119,0.416,1.461c2.117,1.627,3.152,4.018,4.432,6.227
			c0.803,1.385,1.488,2.84,2.211,4.27c0.088,0.172,0.088,0.389,0.129,0.584c-0.289,0.004-0.6,0.076-0.863-0.002
			c-0.922-0.268-1.844-0.553-2.738-0.898c-2.057-0.797-4.191-0.775-6.33-0.615c-0.729,0.053-1.48,0.244-2.148,0.537
			c-1.68,0.732-2.088,2.557-0.932,3.984c0.262,0.326,0.609,0.596,0.959,0.832c1.951,1.311,3.912,2.598,6.186,3.32
			c1.846,0.584,3.5,1.561,5.15,2.562c3.434,2.084,5.172,5.291,6.168,9.016c0.143,0.527,0.117,1.143-0.387,1.455
			c-1.461,0.91-1.422,2.137-1.098,3.635c0.85,3.896,0.873,7.832,0.133,11.76c-0.037,0.191-0.174,0.439-0.33,0.51
			c-0.148,0.064-0.455-0.004-0.57-0.127c-0.879-0.947-1.795-1.824-3.018-2.328c-0.539-0.223-1.014-0.244-1.498,0.102
			c-0.559,0.402-0.957,0.939-0.842,1.617c0.102,0.617,0.354,1.232,0.654,1.783c1.014,1.854,1.326,3.846,1.111,5.898
			c-0.201,1.904-0.514,3.805-0.881,5.686c-0.594,3.057-1.865,5.898-2.92,8.811c-0.047,0.129-0.246,0.201-0.373,0.301
			c-0.066-0.084-0.166-0.158-0.191-0.252c-0.326-1.238-0.6-2.492-0.979-3.715c-0.348-1.125-0.736-2.293-2.121-2.566
			c-0.842-0.164-1.705,0.725-2.336,2.287c-0.316,0.785-0.365,1.686-1.047,2.311c-1.102,1.01-2.121,2.123-3.295,3.041
			c-4.479,3.5-9.621,3.754-14.953,2.879c-1.207-0.197-2.141-0.92-2.922-1.85C59,77.23,58.991,75.373,60.1,74.33
			c0.933-0.873,2.029-1.572,2.976-2.434c1.529-1.395,3.326-1.824,5.33-1.746c0.896,0.035,1.67,0.236,2.314,0.902
			c0.441,0.457,0.916,0.895,1.434,1.262c0.484,0.344,1.014,0.215,1.488-0.117c0.551-0.383,0.996-0.883,0.979-1.566
			c-0.025-0.943,0.375-1.58,1.041-2.213c0.926-0.885,1.094-2.035,0.746-3.266c-0.201-0.719-0.293-1.48-0.572-2.166
			c-0.729-1.799-1.598-3.537-3.365-4.555c-3.941-2.27-7.691-2.352-11.266,0.721c-0.324,0.277-0.615,0.602-0.958,0.855
			c-1.886,1.404-3.76,2.824-5.683,4.178c-1.399,0.986-2.995,1.15-4.599,0.631c-3.191-1.037-5.662-2.971-7.029-6.1
			c-0.287-0.654-0.307-1.445-0.352-2.178c-0.045-0.729,0.447-1.256,1.121-1.279c0.855-0.031,1.715,0.018,2.568-0.035
			c0.632-0.037,1.286-0.098,1.883-0.293c1.645-0.537,2.365-1.846,1.955-3.514c-0.203-0.828-0.547-1.623-0.744-2.455
			c-0.059-0.246,0.078-0.668,0.273-0.826c0.658-0.535,1.373-1.006,2.086-1.469c1.432-0.934,2.939-1.764,4.295-2.797
			c1.183-0.898,2.303-1.93,3.256-3.066c0.74-0.879,1.333-1.957,1.717-3.045c0.695-1.959-0.434-3.693-2.467-4.02
			c-0.525-0.084-1.067-0.08-1.602-0.082c-1.498-0.01-2.996-0.004-4.494-0.004v-0.119c-2.032,0-4.064,0.027-6.096-0.012
			c-0.834-0.018-1.194-0.502-0.998-1.256c0.617-2.377,1.176-4.771,2.307-6.982c0.438-0.854,0.863-1.736,1.115-2.654
			c0.248-0.912,0.381-1.887,0.37-2.832c-0.017-1.531-1.237-2.41-2.604-1.842c-1.47,0.611-2.973,1.258-4.26,2.172
			c-1.471,1.041-2.744,2.369-4.053,3.625c-0.587,0.562-1.113,0.803-1.979,0.617c-3.664-0.781-7.373-1.225-11.131-1.148
			c-0.643,0.014-1.284,0.023-1.926,0.041c-0.718,0.02-1.275-0.299-1.535-0.939c-0.561-1.381-1.056-2.789-1.562-4.191
			c-0.289-0.803-0.457-1.66-0.835-2.414c-0.847-1.686-2.446-1.713-3.487-0.1c-0.23,0.357-0.401,0.754-0.604,1.131
			c-2.82,5.273-4.092,10.992-4.627,16.875c-0.151,1.65-0.549,3.105-1.289,4.551c-1.562,3.041-3.039,6.127-4.582,9.18
			c-1.643,3.25-1.934,6.732-1.82,10.283c0.02,0.586,0.438,0.947,1.016,1.068c0.209,0.041,0.427,0.045,0.641,0.049
			c0.529,0.008,0.826,0.316,0.709,0.791c-0.356,1.451-0.767,2.889-1.191,4.32c-0.305,1.023-0.716,2.016-0.986,3.047
			c-0.295,1.119,0.598,2.148,1.783,2.08c0.52-0.029,1.034-0.207,1.545-0.34c0.805-0.209,1.006-0.115,0.975,0.547
			c-0.043,0.961,0.005,1.949-0.207,2.875c-0.66,2.895-0.208,5.736,0.221,8.592c0.17,1.131,0.868,1.939,1.642,2.676
			c0.6,0.572,1.388,0.447,2.135,0.344c0.606-0.082,1.054,0.127,1.216,0.732c0.687,2.578,1.35,5.158,2.034,7.736
			c0.191,0.719,0.436,1.426,0.649,2.141c0.225,0.756,0.645,1.379,1.381,1.676c1.138,0.457,1.897,1.289,2.655,2.219
			c1.554,1.9,3.216,3.711,5.424,4.9c0.265,0.143,0.571,0.389,0.813,0.344c0.248-0.045,0.456-0.377,0.648-0.609
			c0.223-0.268,0.5-0.441,0.766-0.174c0.677,0.68,1.32,1.396,1.951,2.121c1.637,1.875,3.499,3.502,5.766,4.523
			c2.26,1.018,4.242,2.383,6.254,3.814c4.67,3.318,9.912,4.885,15.715,4.131c0.846-0.111,1.709-0.148,2.563-0.133
			c2.263,0.041,4.482-0.338,6.673-0.785c2.293-0.467,4.604-1.014,6.365-2.779c0.623-0.625,1.451-0.844,2.309-1.018
			c2.938-0.594,5.789-1.496,8.592-2.545c1.812-0.682,3.523-1.504,4.814-3.051c0.539-0.645,1.264-1.146,1.939-1.664
			c1.953-1.492,3.961-2.914,5.871-4.455c0.906-0.73,1.74-1.6,2.439-2.531c2.625-3.51,5.178-7.072,7.764-10.611
			c0.564-0.773,1.055-1.643,1.754-2.271c1.725-1.547,2.842-3.457,3.662-5.572c0.617-1.594,1.234-3.189,1.76-4.814
			c0.525-1.633,1.135-3.213,1.967-4.723c0.773-1.4,1.295-2.902,1.738-4.461c0.756-2.639,0.539-5.303,0.6-7.965
			C117.293,53.93,116.51,50.211,114.422,46.834z M89.676,23.172c-0.188,0.066-0.42,0.176-0.58,0.119
			c-1.695-0.621-3.279-1.457-4.721-2.547c-0.082-0.062-0.162-0.141-0.209-0.23c-0.029-0.051-0.02-0.17,0.02-0.203
			c0.076-0.062,0.191-0.135,0.279-0.123c1.58,0.211,3.092,0.666,4.453,1.492c0.416,0.252,0.66,0.793,0.961,1.174
			C89.775,23.023,89.744,23.148,89.676,23.172z M49.243,110.412c-0.271-0.014-0.591,0.012-0.794-0.125
			c-0.194-0.131-0.275-0.439-0.38-0.682c-0.014-0.031,0.124-0.184,0.204-0.193c0.479-0.07,1.06,0.352,1.117,0.787
			C49.341,110.273,49.288,110.416,49.243,110.412z M54.486,111.139l-0.068-0.172l0.174,0.021L54.486,111.139z M97.404,88.081
			c0.13-0.129,0.259-0.257,0.388-0.386C97.727,87.891,97.598,88.021,97.404,88.081z M110.314,56.732
			c-0.309,1.881-0.154,3.842-0.188,5.77c-0.02,1.193-0.23,2.279-0.945,3.318c-1.049,1.523-1.256,3.381-1.678,5.145
			c-0.445,1.869-0.797,3.764-1.34,5.604c-0.641,2.168-1.67,4.119-3.312,5.77c-1.352,1.359-2.459,2.959-3.699,4.428
			c-0.316,0.375-0.647,0.807-1.241,0.719c-0.062-0.848-0.358-1.568-1.114-2.055c-0.867-0.557-1.816-0.443-2.752-0.316
			c-0.746,0.1-1.348,0.77-1.424,1.482c-0.082,0.764,0.326,1.439,1.023,1.783c1.202,0.593,2.361,0.453,3.504-0.106
			c-0.023,0.267-0.029,0.542-0.133,0.772c-0.127,0.279-0.367,0.527-0.604,0.74c-1.191,1.072-2.301,2.277-3.629,3.146
			c-1.312,0.857-2.922,0.137-4.396,0.293c-1.486,0.158-2.992,0.115-4.49,0.119c-1.098,0.004-2.111,0.236-3.029,0.852
			c-0.412,0.275-0.389,1.164,0.07,1.375c0.377,0.176,0.781,0.373,1.184,0.398c1.174,0.076,2.354,0.049,3.527,0.104
			c0.633,0.027,1.268,0.107,1.891,0.227c0.16,0.029,0.289,0.281,0.4,0.453c0.027,0.039-0.053,0.195-0.121,0.24
			c-1.42,0.949-2.855,1.875-4.266,2.838c-0.771,0.527-1.598,0.451-2.463,0.406c-1.293-0.068-2.246,0.326-2.588,1.803
			c-0.297,1.281-1.504,1.676-2.615,2.043c-0.143,0.047-0.434-0.115-0.543-0.264c-0.441-0.6-0.811-1.25-1.256-1.848
			c-0.441-0.594-1.182-0.852-1.668-0.652c-0.797,0.326-1.449,1.242-1.33,2.002c0.08,0.52,0.293,1.021,0.451,1.527
			c0.148,0.477,0.701,0.951,0.229,1.443c-0.43,0.449-0.969,0.859-1.539,1.088c-0.469,0.188-1.057,0.062-1.588,0.111
			c-1.113,0.105-1.818-0.346-2.199-1.42c-0.281-0.799-0.615-1.6-1.057-2.316c-0.43-0.697-1.178-0.877-1.98-0.725
			c-0.736,0.139-1.326,0.758-1.449,1.521c-0.033,0.209-0.043,0.424-0.059,0.637c-0.178,2.332-0.176,2.305-2.301,2.219
			c-0.824-0.031-1.445-0.291-1.834-1.033c-0.05-0.094-0.117-0.182-0.191-0.258c-0.855-0.867-1.596-0.967-2.552-0.348
			c-2.177,1.408-2.202,1.404-4.187-0.475c-0.15-0.143-0.336-0.311-0.523-0.338c-0.299-0.045-0.652-0.062-0.91,0.061
			c-0.264,0.125-0.505,0.4-0.643,0.668c-0.387,0.76-0.744,1.807-1.684,1.646c-0.84-0.146-0.977-1.281-1.293-2.045
			c-0.326-0.787-0.542-1.619-0.867-2.408c-0.199-0.486-0.475-0.953-0.782-1.379c-0.438-0.605-1.657-0.465-1.874,0.23
			c-0.187,0.605-0.225,1.252-0.34,1.881c-0.018,0.1-0.094,0.189-0.143,0.285c-0.143-0.096-0.345-0.16-0.42-0.293
			c-1.059-1.887-1.629-3.934-1.963-6.061c-0.113-0.73-0.28-1.461-0.502-2.168c-0.199-0.635-0.623-1.16-1.316-1.264
			c-0.752-0.113-1.16,0.391-1.426,1.027c-0.042,0.096-0.061,0.227-0.135,0.281c-0.146,0.109-0.351,0.277-0.484,0.24
			c-0.17-0.045-0.376-0.24-0.427-0.414c-0.51-1.748-0.884-3.518-0.899-5.357c-0.006-0.615-0.197-1.25-0.422-1.83
			c-0.081-0.207-0.502-0.338-0.788-0.391c-0.153-0.027-0.397,0.143-0.521,0.291c-0.88,1.059-0.687,2.43-1.052,3.639
			c-0.041,0.139-0.301,0.229-0.477,0.299c-0.054,0.021-0.192-0.078-0.245-0.154c-0.179-0.26-0.377-0.518-0.497-0.807
			c-0.578-1.377-1.139-2.762-1.687-4.152c-0.116-0.293-0.11-0.637-0.233-0.928c-0.304-0.719-0.771-1.291-1.613-1.383
			c-0.699-0.076-1.555,0.719-1.77,1.602c-0.211,0.867-0.017,1.68,0.236,2.516c1.243,4.1,2.724,8.092,4.884,11.816
			c0.443,0.766,1.261,1.438,1.028,2.489c0.019,0.01,0.035,0.022,0.053,0.032c0.022,0.042,0.046,0.083,0.069,0.125
			c0.117,0.044,0.233,0.088,0.351,0.133c-0.054,0.072-0.105,0.145-0.159,0.217c-0.064-0.116-0.128-0.233-0.192-0.35
			c-0.046-0.018-0.093-0.035-0.139-0.053c0.01-0.036,0.009-0.068,0.017-0.104c-2.271-1.21-3.442-3.343-4.537-5.511
			c-1.981-3.926-3.135-8.156-4.352-12.355c-0.324-1.121-0.459-2.297-0.691-3.447c-0.063-0.311-0.084-0.686-0.272-0.904
			c-0.257-0.295-0.653-0.637-0.995-0.643c-0.341-0.008-0.801,0.303-1.002,0.609c-0.213,0.328-0.221,0.811-0.254,1.23
			c-0.236,2.916,0.305,5.736,1.068,8.531c0.049,0.178-0.074,0.404-0.118,0.607c-0.115-0.131-0.254-0.246-0.341-0.395
			c-0.162-0.275-0.351-0.553-0.433-0.855c-0.53-1.953-1.05-3.91-1.546-5.871c-0.854-3.365-0.545-6.805-0.617-10.219
			c-0.016-0.746,0.027-1.496-0.014-2.242c-0.039-0.721-0.543-1.227-1.176-1.299c-0.714-0.08-1.295,0.195-1.623,0.791
			c-0.248,0.453-0.361,0.996-0.457,1.514c-0.175,0.941-0.24,1.908-0.458,2.84c-0.088,0.377-0.45,0.693-0.706,1.023
			c-0.055,0.072-0.213,0.139-0.285,0.111c-0.158-0.062-0.418-0.188-0.415-0.283c0.034-1.598-0.046-3.217,0.196-4.787
			c0.496-3.189,0.367-6.402,0.551-9.602c0.018-0.312-0.068-0.635-0.129-0.949c-0.16-0.836-1.414-1.311-2.029-0.723
			c-0.451,0.432-0.773,0.998-1.168,1.49C9.187,61.627,9,61.686,8.953,61.648c-0.146-0.111-0.371-0.289-0.355-0.414
			c0.076-0.629,0.193-1.26,0.343-1.877c0.675-2.799,1.374-5.594,2.04-8.396c0.068-0.291,0.051-0.658-0.069-0.93
			c-0.118-0.266-0.388-0.5-0.648-0.65c-0.123-0.072-0.456,0.025-0.562,0.154c-0.531,0.656-1.025,1.344-1.521,2.029
			c-0.318,0.439-0.658,0.574-0.674,0.254c-0.01-0.197-0.035-0.426,0.049-0.59c1.787-3.533,3.646-7.025,6.087-10.164
			c0.392-0.504,0.772-1.217,1.298-1.379c1.572-0.488,1.514-1.547,1.244-2.766c-0.115-0.521-0.276-1.033-0.402-1.551
			c-0.297-1.232-0.164-2.328,0.958-3.143c0.249-0.182,0.423-0.479,0.602-0.742c0.353-0.521,0.403-1.316-0.173-1.74
			c-1.307-0.965-1.09-2.498-1.449-3.74c-0.377-1.303,0.282-2.711,0.914-3.965c0.133-0.262,0.695-0.379,0.806-0.16
			c0.614,1.219,1.63,2.279,1.52,3.791c-0.108,1.48,0.989,2.285,1.868,3.172c0.252,0.254,0.801,0.314,1.207,0.299
			c2.883-0.113,5.778-0.143,8.641-0.461c1.779-0.199,3.388,0.262,5.051,0.602c0.615,0.125,1.206,0.502,1.801-0.041
			c0.747-0.682,2.068-0.838,2.014-2.25c-0.026-0.701,0.366-1.174,0.884-1.615c0.562-0.479,1.024-1.076,1.58-1.564
			c0.192-0.17,0.538-0.164,0.813-0.238c0.027,0.184,0.117,0.385,0.076,0.553c-0.399,1.66-0.77,3.33-1.248,4.969
			c-0.596,2.041-0.363,3.994,0.309,5.967c0.234,0.688,0.674,1.072,1.255,1.354c1.366,0.66,2.823,0.908,4.339,1.002
			c2.123,0.129,4.239,0.371,6.355,0.598c0.837,0.09,1.354,1.244,0.902,2.018c-0.209,0.357-0.488,0.744-0.836,0.936
			c-1.122,0.613-2.273,1.18-3.444,1.695c-2.25,0.986-4.536,1.891-6.778,2.895c-1.261,0.562-1.404,0.971-1.051,2.262
			c0.084,0.307,0.275,0.582,0.379,0.883c0.156,0.455,0.044,0.826-0.421,1.037c-0.39,0.178-0.78,0.354-1.171,0.525
			c-0.834,0.369-1.338,1.039-1.695,1.846c-0.889,2.002-1.227,4.121-0.943,6.264c0.529,4.023,2.013,7.621,5.109,10.418
			c1.711,1.547,3.715,2.506,5.918,3.068c0.494,0.127,1.066,0.102,1.572,0c1.259-0.254,1.58-1.139,0.924-2.377
			c-0.05-0.094-0.137-0.166-0.188-0.26c-0.326-0.594-0.277-0.822,0.256-0.848c2.117-0.107,3.922-0.99,5.579-2.219
			c1.802-1.338,3.599-2.684,5.353-4.084c2.346-1.869,5.078-1.885,7.26,0.072c0.303,0.27,0.512,0.693,0.65,1.084
			c0.18,0.508-0.307,0.715-0.6,0.994c-0.078,0.072-0.172,0.131-0.24,0.213c-0.209,0.24-0.514,0.457-0.598,0.738
			c-0.396,1.357-1.273,1.832-2.65,1.721c-2.371-0.195-4.387,0.709-6.189,2.184c-0.745,0.609-1.473,1.25-2.272,1.781
			c-1.824,1.217-2.714,2.965-3.051,5.061c-0.067,0.42-0.078,0.852-0.146,1.273c-0.078,0.463-0.533,0.754-0.926,0.586
			c-1.473-0.633-2.925-1.316-4.412-1.912c-0.577-0.23-1.224-0.359-1.844-0.387c-0.805-0.035-1.365,0.934-0.949,1.605
			c0.332,0.535,0.716,1.059,1.17,1.492c2.134,2.029,4.754,3.295,7.447,4.326c4.725,1.811,9.637,2.746,14.729,2.658
			c1.979-0.033,3.703-0.541,5.426-1.596c2.379-1.457,4.773-2.84,6.752-4.84c0.404-0.408,0.713-0.266,0.936,0.24
			c0.127,0.289,0.297,0.572,0.498,0.818c1.129,1.4,2.043,1.381,3.35-0.041c0.281-0.305,0.588-0.771,0.922-0.809
			c1.283-0.141,1.766-1.047,2.246-2.027c1.795-3.666,3.188-7.461,3.832-11.508c0.152-0.949,0.34-1.891,0.506-2.838
			c0.107-0.611,0.328-0.979,1.053-0.668c0.277,0.119,0.639,0.129,0.941,0.078c1.117-0.197,1.971-1.291,1.607-2.324
			c-0.465-1.32-0.279-2.471,0.203-3.723c0.617-1.602,0.869-3.301,0.885-5.029c0.01-0.854,0.074-1.711,0.148-2.562
			c0.086-0.963,0.27-1.082,1.57-1.168c0.846-0.057,1.537-0.637,1.412-1.418c-0.32-1.998,0.242-4.068-0.527-6.027
			c-0.115-0.289-0.133-0.627-0.152-0.945c-0.262-4.189-1.963-7.836-4.23-11.268c-0.412-0.625-0.785-1.289-1.279-1.844
			c-0.836-0.936-1.102-1.705,0.109-2.592c0.279-0.205,0.369-1.121,0.156-1.469c-1.461-2.375-1.912-5.215-3.52-7.514
			c-0.082-0.119,0.037-0.379,0.062-0.572c0.172,0.041,0.4,0.025,0.506,0.133c1.576,1.6,3.217,3.148,4.67,4.855
			c0.889,1.043,1.461,2.35,2.219,3.51c0.342,0.523,0.742,1.34,1.193,1.395c1.357,0.164,1.545,0.881,1.369,1.98
			c-0.033,0.211-0.012,0.428-0.008,0.643c0.012,0.557,0.139,1.059,0.719,1.297c0.547,0.223,1.174-0.057,1.645-0.664
			c0.42-0.539,0.35-1.484,1.303-1.588c0.271,0.576,0.617,1.131,0.801,1.732c0.68,2.246,1.215,4.514,1.521,6.861
			c0.393,2.984,0.506,5.961,0.561,8.951c0.025,1.389-0.008,2.779,0.469,4.127c0.174,0.488,0.213,1.059,0.172,1.58
			C110.582,51.393,110.75,54.066,110.314,56.732z M24.23,19.424c0.721,0.73,1.656,0.717,2.152-0.166
			c0.592-1.051,1.35-1.918,2.27-2.662c2.17-1.752,4.463-3.348,7.022-4.449c6.286-2.705,12.652-5.168,19.668-5.08
			c0.319,0.004,0.64-0.041,0.96-0.066c2.129-0.16,4.256-0.355,6.389-0.473c3.117-0.17,6.197-0.027,9.117,1.281
			c0.383,0.172,0.828,0.201,1.242,0.307c3.135,0.785,6.072,2.021,8.779,3.799c0.342,0.223,0.758,0.338,1.148,0.482
			c0.076,0.027,0.238-0.023,0.279-0.09c0.098-0.158,0.256-0.412,0.195-0.51c-0.387-0.629-0.754-1.297-1.268-1.812
			c-0.748-0.756-1.646-1.359-2.424-2.092c-2.656-2.5-5.879-3.771-9.383-4.559c-2.85-0.641-5.725-0.617-9.709-0.721
			c-2.985-0.244-6.983,0.65-11.024,0.986c-0.736,0.062-1.547,0.164-2.166,0.52c-0.983,0.566-2.033,0.639-3.084,0.773
			c-2.986,0.383-5.822,1.324-8.611,2.385c-1.488,0.566-2.987,1.221-4.303,2.102c-1.68,1.125-3.219,2.473-4.746,3.809
			c-1.291,1.127-2.388,2.443-3.195,3.98c-0.278,0.531-0.205,1.029,0.096,1.506C23.805,18.943,24.005,19.199,24.23,19.424z
			 M49.811,91.742c-0.311-0.473-1.013-0.689-1.312-0.879c-1.122-0.088-1.968,0.639-2.071,1.498c-0.243,2.004,0.875,3.75,2.848,4.48
			c0.562,0.209,1.068,0.104,1.492-0.26c0.512-0.441,0.854-1.057,0.594-1.705C50.929,93.795,50.447,92.711,49.811,91.742z
			 M32.453,53.512c-0.746-0.217-1.523-0.209-2.061,0.402c-1.213,1.383-1.53,3.191-0.082,4.852c0.566,0.648,1.666,0.617,2.246-0.033
			c0.816-0.918,1.099-2.016,1.111-3.584C33.675,54.506,33.234,53.742,32.453,53.512z M29.025,72.633
			c-0.307-0.475-0.852-0.605-1.399-0.535c-0.582,0.072-0.948,0.443-1.024,1.02c-0.082,0.627-0.097,1.26-0.145,1.959
			c0.031,0.564,0.042,1.197,0.115,1.826c0.035,0.305,0.147,0.617,0.299,0.887c0.277,0.49,0.754,0.82,1.295,0.705
			c0.351-0.074,0.762-0.402,0.924-0.729c0.577-1.156,0.758-2.416,0.535-3.691C29.539,73.57,29.302,73.066,29.025,72.633z
			 M21.927,63.578c-0.201-0.262-0.738-0.363-1.117-0.348c-0.219,0.008-0.602,0.385-0.607,0.604
			c-0.057,2.236-0.057,4.473-0.053,6.709c0,0.201,0.096,0.426,0.211,0.596c0.23,0.346,0.498,0.758,0.988,0.568
			c0.265-0.102,0.613-0.383,0.645-0.621c0.166-1.264,0.244-2.539,0.354-3.809c-0.041-0.004-0.082-0.01-0.123-0.014
			c0.086-0.74,0.256-1.484,0.228-2.219C22.432,64.541,22.233,63.973,21.927,63.578z"/>
	</g>
</g>
</svg>
