<?xml version="1.0" encoding="utf-8"?>
<!-- Generator: Adobe Illustrator 16.0.0, SVG Export Plug-In . SVG Version: 6.00 Build 0)  -->
<!DOCTYPE svg PUBLIC "-//W3C//DTD SVG 1.1//EN" "http://www.w3.org/Graphics/SVG/1.1/DTD/svg11.dtd">
<svg version="1.1" id="Layer_1" xmlns="http://www.w3.org/2000/svg" xmlns:xlink="http://www.w3.org/1999/xlink" x="0px" y="0px"
	 width="120px" height="120px" viewBox="0 0 120 120" style="enable-background:new 0 0 120 120;" xml:space="preserve">
<g id="ie">
	<g>
		<path style="fill-rule:evenodd;clip-rule:evenodd;" d="M110.621,54.116c-0.453-1.299-0.561-2.715-0.891-4.059
			c-0.354-1.449-0.611-2.957-1.213-4.303c-2.1-4.689-4.438-9.271-7.723-13.266c-2.238-2.723-4.549-5.398-6.99-7.938
			c-1.773-1.842-3.729-3.537-5.979-4.812c-0.729-0.414-1.545-0.697-2.35-0.943c-0.584-0.18-1.525,0.168-1.709-0.52
			c-0.268-1,0.875-1.033,1.447-1.334c1.125-0.592,2.309-1.127,3.529-1.475c2.254-0.641,4.545-1.15,6.83-1.666
			c0.51-0.115,1.07-0.086,1.598-0.027c1.273,0.137,2.559,0.25,3.809,0.514c2.258,0.477,4.352,2.938,4.4,5.279
			c0.066,3.191,0.512,6.414-0.508,9.553c-0.031,0.098-0.021,0.211-0.027,0.318c-0.059,0.971,1.141,1.785,2.029,1.35
			c0.57-0.283,1.07-0.779,1.666-0.932c1.246-0.318,1.67-1.227,1.947-2.299c0.969-3.732,0.592-7.412-0.469-11.059
			c-0.822-2.828-2.619-4.854-5.162-6.26c-0.654-0.363-1.363-0.643-1.975-1.061c-2.537-1.736-5.443-1.893-8.309-1.684
			c-2.646,0.193-5.291,0.715-7.779,1.758c-1.588,0.666-3.25,0.982-4.953,1.244c-3.488,0.531-6.939,1.311-10.105,2.93
			c-1.59,0.812-3.193,1.084-4.939,1.057c-2.99-0.043-5.973-0.027-8.959,0.367c-2.482,0.326-4.824,1.021-7.014,2.131
			c-4.096,2.074-7.996,4.568-12.191,6.395c-3.9,1.699-6.6,4.615-9.383,7.561c-1.256,1.328-2.293,2.797-3.242,4.365
			c-2.066,3.41-3.314,7.162-4.754,10.842c-1.463,3.734-2.402,7.527-2.002,11.566c0.01,0.107,0.01,0.217,0.002,0.322
			c-0.143,2.039-0.504,3.982-1.777,5.701c-1.08,1.457-2.039,3.012-2.949,4.584c-1.824,3.146-3.492,6.377-4.611,9.855
			c-1.998,6.186-2.529,12.551-2.098,18.998c0.18,2.693,0.99,5.273,2.654,7.447c1.361,1.781,2.902,3.426,4.381,5.117
			c1.242,1.416,2.846,2.41,4.652,2.654c1.992,0.268,4.064,0.227,6.07,0.016c1.455-0.152,2.881-0.744,4.279-1.252
			c1.039-0.377,1.807-1.119,2.139-2.236c0.193-0.658-0.223-1.34-0.887-1.406c-2.23-0.223-4.471-0.359-6.68-0.703
			c-3.279-0.514-5.381-2.449-6.234-5.676c-0.137-0.512-0.174-1.053-0.234-1.582c-0.152-1.273-0.387-2.547-0.408-3.82
			c-0.033-1.918,0.072-3.838,0.148-5.756c0.033-0.854,0.191-1.701,0.199-2.555c0.033-3.816,1.277-7.336,2.656-10.818
			c0.088-0.217,0.424-0.389,0.678-0.463c0.109-0.031,0.381,0.209,0.451,0.379c0.895,2.172,1.824,4.332,2.629,6.539
			c1.664,4.551,4.141,8.66,6.715,12.73c0.949,1.5,2.111,2.674,3.736,3.381c1.191,0.521,2.193,1.291,3.125,2.201
			c1.842,1.809,3.969,3.27,6.205,4.527c2.988,1.682,6.145,2.91,9.541,3.617c2.984,0.621,5.961,0.426,8.945,0.486
			c1.289,0.025,2.555-0.141,3.777-0.602c1.211-0.455,2.469-0.619,3.773-0.545c2.068,0.117,4.014-0.385,5.891-1.27
			c1.25-0.592,2.545-1.137,3.877-1.488c5.07-1.336,9.383-4.127,13.518-7.16c2.578-1.889,4.896-4.141,7.26-6.305
			c0.996-0.91,1.926-1.523,3.395-1.346c1.324,0.158,2.486-0.506,3.297-1.627c0.34-0.469,0.412-0.975,0.125-1.498
			c-0.104-0.186-0.197-0.396-0.354-0.531c-1.838-1.623-3.684-3.24-5.545-4.836c-0.23-0.195-0.57-0.279-0.871-0.381
			c-2.227-0.744-4.418-1.629-6.689-2.178c-2.793-0.674-5.646-1.115-8.488-1.555c-1.275-0.195-2.549-0.029-3.693,0.74
			c-1.242,0.832-2.586,1.518-3.803,2.385c-2.857,2.035-6.264,2.648-9.475,3.777c-0.195,0.07-0.42,0.064-0.633,0.086
			c-3.26,0.338-6.402-0.182-9.408-1.441c-1.285-0.537-2.463-1.242-3.064-2.65c-0.242-0.57-0.686-1.104-1.158-1.518
			c-2.383-2.096-3.23-4.986-4.074-7.859c-0.232-0.793-0.154-1.691-0.119-2.535c0.01-0.209,0.389-0.533,0.635-0.57
			c0.402-0.061,0.836,0.076,1.256,0.117c2.014,0.197,4.055,0.674,6.035,0.496c1.812-0.162,3.609-0.271,5.424-0.246
			c4.166,0.059,8.314,0.135,12.479,0.562c4.346,0.449,8.748,0.443,13.115,0.811c1.277,0.107,2.547,0.291,3.826,0.367
			c4.152,0.248,8.252,1.295,12.451,0.924c1.711,0,3.424-0.008,5.135,0c1.611,0.008,1.746-0.117,1.787-1.857
			c0.029-1.176,0.002-2.355,0.049-3.531C112.486,62.429,112.049,58.218,110.621,54.116z M24.598,50.731
			c0.645-2.035,1.311-4.062,1.988-6.086c0.346-1.027,0.865-1.936,1.779-2.594c0.43-0.309,0.789-0.721,1.168-1.1
			c0.58-0.578,0.873-1.277,0.418-2.021c-0.475-0.775-0.213-1.4,0.141-2.096c1.434-2.795,3.148-5.324,5.943-6.979
			c0.811-0.48,1.461-1.244,2.15-1.912c2.014-1.949,4.213-3.607,6.82-4.701c0.775-0.326,1.514-0.775,2.199-1.264
			c3.383-2.4,7.195-3.742,11.229-4.414c2.52-0.418,5.059-0.922,7.645-0.66c0.146,0.016,0.277,0.193,0.416,0.293
			c-0.072,0.1-0.113,0.221-0.197,0.268c-1.752,1.006-3.402,2.223-5.451,2.621c-0.41,0.082-0.814,0.262-1.184,0.467
			c-2.141,1.201-4.254,2.455-6.406,3.633c-3.311,1.812-6.275,4.096-8.98,6.686c-3.859,3.697-7.672,7.443-11.146,11.525
			c-2.562,3.008-5.363,5.809-8.061,8.699c-0.072,0.074-0.178,0.117-0.27,0.176C24.727,51.091,24.553,50.876,24.598,50.731z
			 M107.205,64.735c-0.291,0.266-0.447,0.701-0.611,1.082c-0.189,0.441-0.52,0.668-0.965,0.686
			c-0.639,0.029-1.281,0.018-1.922-0.006c-0.637-0.023-0.801-0.412-0.516-1.064c0.299-0.678,0.615-1.354,0.812-2.062
			c0.064-0.229-0.148-0.66-0.365-0.805c-0.217-0.148-0.666-0.176-0.889-0.045c-1.152,0.67-1.885,1.746-2.406,2.918
			c-0.383,0.855-0.955,1.064-1.775,0.973c-0.848-0.096-1.705-0.145-2.545-0.301c-1.398-0.264-1.504-0.684-0.533-1.803
			c0.699-0.807,1.426-1.598,2.064-2.451c0.309-0.412,0.51-0.938,0.641-1.443c0.145-0.562-0.146-1.055-0.58-1.404
			c-0.443-0.359-0.979-0.422-1.5-0.164c-0.283,0.143-0.557,0.328-0.781,0.549c-1.754,1.715-3.717,3.252-4.703,5.611
			c-0.074,0.178-0.242,0.348-0.41,0.451c-0.605,0.369-2.361,0.08-3.018-0.512c-0.09-0.08-0.092-0.422,0-0.52
			c1.24-1.328,2.514-2.629,3.762-3.951c0.438-0.465,0.949-0.912,1.215-1.469c0.205-0.422,0.189-1.035,0.064-1.508
			c-0.162-0.602-0.916-0.986-1.553-0.857c-0.506,0.104-1.098,0.236-1.447,0.568c-1.789,1.689-3.518,3.439-5.248,5.188
			c-0.215,0.217-0.34,0.539-0.459,0.83c-0.234,0.564,0.084,1.426-0.646,1.688c-0.578,0.207-1.266,0.16-1.9,0.143
			c-1.92-0.059-3.834-0.043-5.748-0.416c-1.352-0.264-2.771-0.217-4.16-0.209c-5.135,0.027-10.273,0.084-15.408,0.162
			c-0.955,0.014-1.906,0.24-2.861,0.262c-1.275,0.029-2.57,0.088-3.818-0.109c-1.605-0.254-3.113-0.393-4.701,0.232
			c-0.85,0.334-1.896,0.148-2.854,0.213c-0.496,0.033-0.779,0.342-0.795,0.818c-0.031,0.855-0.105,1.723,0.01,2.562
			c0.287,2.113,0.676,4.213,1.012,6.32c0.459,2.875,1.732,5.211,4.209,6.887c0.861,0.582,1.635,1.416,2.199,2.293
			c2.248,3.492,5.688,5.039,9.494,6.021c1.977,0.51,3.99,0.729,6.047,0.662c5.93-0.084,11.363-1.641,16.057-5.426
			c0.992-0.801,2.059-1.508,3.092-2.256c1.223,0.621,2.508,1.143,3.652,1.885c2.725,1.762,5.697,2.906,8.77,3.854
			c0.713,0.219,1.43,0.436,2.104,0.746c0.172,0.08,0.34,0.648,0.24,0.764c-1.314,1.545-2.596,3.168-4.984,2.912
			c-0.799-0.086-1.588,0.188-1.842,0.98c-0.445,1.379-1.482,2.029-2.676,2.576c-0.873,0.402-1.729,0.84-2.602,1.24
			c-0.479,0.221-0.561-0.207-0.578-0.48c-0.062-0.957-0.02-1.92-0.109-2.875c-0.055-0.576-0.514-0.951-1.049-1.092
			c-0.568-0.148-1.092,0.127-1.389,0.588c-0.271,0.428-0.465,0.953-0.527,1.455c-0.047,0.398,0.146,0.83,0.25,1.244
			c0.174,0.707,0.658,1.502,0.479,2.1c-0.301,1.006-1.518,1.021-2.371,1.395c-0.684,0.299-1.4,0.557-2.127,0.701
			c-0.58,0.113-1.205,0.846-1.725,0.205c-0.18-0.223,0.328-0.932,0.389-1.436c0.16-1.373,0.293-2.754,0.35-4.135
			c0.025-0.67-0.375-1.203-0.957-1.57c-0.92-0.576-2.088-0.229-2.33,0.777c-0.529,2.199-0.92,4.414,0.398,6.51
			c0.297,0.475,0.189,0.781-0.361,0.895c-1.984,0.406-3.967,0.822-5.959,1.191c-0.562,0.105-1.043-0.365-1.012-0.951
			c0.07-1.279,0.176-2.557,0.293-3.832c0.068-0.742,0.281-1.484,0.254-2.219c-0.023-0.613-0.238-1.248-0.488-1.82
			c-0.318-0.734-1.24-1.199-1.811-1c-0.656,0.229-1.043,0.732-1.201,1.391c-0.074,0.307-0.072,0.635-0.09,0.953
			c-0.07,1.283-0.072,2.572-0.223,3.844c-0.135,1.148,0.334,2.355-0.326,3.447c-1.365-0.148-2.734-0.287-4.096-0.465
			c-0.104-0.014-0.285-0.344-0.24-0.443c1.008-2.301,0.682-4.859,1.395-7.221c0.178-0.594,0.109-1.273,0.104-1.912
			c-0.008-0.719-0.488-1.252-1.127-1.33c-0.693-0.082-1.361,0.215-1.648,0.742c-0.105,0.188-0.215,0.375-0.279,0.576
			c-0.775,2.443-1.406,4.928-1.789,7.465c-0.057,0.391,0.164,0.82,0.24,1.236c0.062,0.352-0.08,0.676-0.449,0.609
			c-4.641-0.822-5.176-0.16-4.049-5.506c0.33-1.564,0.633-3.139,0.854-4.721c0.086-0.609-0.008-1.277-0.166-1.879
			c-0.145-0.541-0.645-0.914-1.215-0.842c-0.369,0.049-0.857,0.307-1.021,0.615c-0.959,1.793-1.738,3.67-2.146,5.674
			c-0.256,1.254-0.426,2.523-0.684,3.775c-0.055,0.275-0.266,0.658-0.656,0.482c-0.254-0.113-0.604-0.416-0.598-0.623
			c0.039-1.381,0.152-2.758,0.27-4.135c0.07-0.846,0.309-1.695,0.246-2.523c-0.035-0.438-0.508-0.881-0.867-1.236
			c-0.264-0.266-0.998-0.074-1.117,0.262c-0.207,0.592-0.275,1.236-0.521,1.809c-0.598,1.395-0.613,3.021-1.689,4.221
			c-0.578-1.455-0.037-2.945-0.117-4.418c-0.039-0.734,0.107-1.49,0.252-2.221c0.18-0.92-0.117-1.711-0.65-2.387
			c-0.227-0.289-0.748-0.541-1.088-0.492c-0.336,0.049-0.766,0.445-0.889,0.785c-0.357,1-0.572,2.049-0.863,3.072
			c-0.145,0.512-0.305,1.027-0.523,1.512c-0.119,0.271-0.477,0.715-0.553,0.682c-0.467-0.201-0.906-0.494-1.305-0.816
			c-0.104-0.08-0.113-0.502-0.031-0.555c1.152-0.732,1.279-1.965,1.389-3.098c0.229-2.338,0.309-4.689,0.393-7.039
			c0.014-0.391-0.178-0.869-0.438-1.162c-0.25-0.285-0.732-0.559-1.076-0.52c-0.332,0.039-0.805,0.432-0.893,0.756
			c-0.734,2.773-1.676,5.498-2.023,8.365c-0.021,0.191-0.156,0.42-0.311,0.518c-0.08,0.053-0.361-0.105-0.475-0.234
			c-0.355-0.4-0.721-0.805-0.986-1.262c-0.137-0.238-0.205-0.682-0.076-0.885c1.258-1.969,1.1-4.328,1.828-6.439
			c0.766-2.217,1.457-4.461,2.166-6.697c0.129-0.404,0.268-0.83,0.258-1.242c-0.01-0.406-0.139-0.84-0.32-1.207
			c-0.369-0.732-1.449-0.795-1.842-0.105c-1.43,2.512-2.727,5.086-3.453,7.906c-0.293,1.137-0.551,2.281-0.854,3.416
			c-0.039,0.148-0.254,0.365-0.363,0.352c-0.188-0.02-0.424-0.158-0.525-0.318c-0.717-1.127-0.98-2.244-0.49-3.623
			c0.928-2.611,1.631-5.301,2.465-7.947c0.264-0.834,0.438-1.646,0.209-2.512c-0.115-0.428-1.057-0.756-1.328-0.412
			c-0.457,0.578-0.941,1.17-1.244,1.832c-0.707,1.547-1.307,3.145-1.98,4.709c-0.055,0.125-0.359,0.23-0.516,0.197
			c-0.176-0.037-0.355-0.219-0.457-0.383c-0.107-0.174-0.152-0.396-0.174-0.604c-0.033-0.318-0.031-0.643-0.027-0.963
			c0.01-1.178-0.041-2.359,0.057-3.529c0.098-1.156,0.182-2.355,0.562-3.434c0.709-2.002,1.635-3.926,2.469-5.883
			c2.709-3.299,5.41-6.607,8.135-9.896c0.408-0.49,0.887-0.938,1.391-1.328c2.631-2.039,4.904-4.455,7.268-6.777
			c0.609-0.6,1.27-1.189,1.721-1.9c1.938-3.066,4.838-5.117,7.635-7.248c1.688-1.289,3.375-2.607,5.355-3.502
			c0.943-0.428,1.662-1.326,2.559-1.889c2.627-1.646,5.291-3.229,7.939-4.838c0.988-0.602,1.992-1.127,2.891-1.938
			c1.27-1.152,3.059-1.451,4.713-1.865c0.371-0.092,0.846,0.041,1.223,0.195c2.566,1.053,5.162,2.047,7.664,3.242
			c1.816,0.871,3.52,1.99,5.238,3.057c0.754,0.467,0.822,1.193,0.318,1.922c-0.428,0.611-0.984,1.166-1.27,1.836
			c-0.234,0.547-0.219,1.232-0.182,1.848c0.012,0.234,0.359,0.559,0.615,0.639c0.242,0.074,0.682-0.027,0.836-0.215
			c0.531-0.658,0.979-1.387,1.457-2.084c0.467-0.676,1.037-0.713,1.531-0.029c1.312,1.818,2.6,3.656,3.873,5.502
			c0.232,0.338,0.422,0.822-0.211,0.955c-0.709,0.146-1.098,0.572-1.402,1.178c-0.398,0.785-0.604,1.586-0.443,2.471
			c0.129,0.707,1.209,1.199,1.775,0.713c0.551-0.473,0.996-1.076,1.455-1.648c0.398-0.498,0.785-0.484,1.133,0.119
			c1.66,2.877,3.082,5.871,3.967,9.076c0.738,2.67,1.48,5.354,1.432,8.178c-0.01,0.729,0.211,1.471,0.387,2.189
			c0.203,0.828,0.51,1.631,0.711,2.463C108.076,63.058,108.045,63.976,107.205,64.735z M80.668,42.276
			c-1.156-1.932-2.643-3.617-4.674-4.729c-0.557-0.307-1.35-0.533-1.562-1.008c-0.166-0.369,0.457-1.051,0.619-1.625
			c0.139-0.5,0.172-1.047,0.156-1.57c-0.018-0.598-0.918-1.162-1.438-0.887c-0.553,0.295-1.115,0.643-1.537,1.094
			c-0.424,0.453-0.566,1.332-1.039,1.537c-0.592,0.256-1.424-0.127-2.105,0.004c-2.926,0.559-5.854,1.129-8.742,1.848
			c-2.186,0.541-4.168,1.559-5.994,2.934c-2.854,2.146-5.07,4.881-7.287,7.609c-0.721,0.885-1.115,2.045-1.598,3.107
			c-0.309,0.678-0.504,1.354-1.229,1.791c-0.908,0.549-0.76,2.023,0.699,2.375c1.135,0.273,2.299,0.521,3.463,0.588
			c4.365,0.248,8.736,0.406,13.105,0.613c3.09,0.146,6.176,0.207,9.264,0.549c3.598,0.398,7.23,0.451,11.443,0.686
			c0.031-0.01,0.658-0.146,1.219-0.418c1.012-0.488,1.363-1.129,1.096-2.348c-0.148-0.672-0.219-1.223,0.176-1.803
			c0.689-1.02,0.428-2.076-0.066-3.033C83.365,47.126,82.09,44.655,80.668,42.276z M78.959,52.005
			c-1.174-0.006-2.348-0.012-3.52-0.072c-0.637-0.031-1.266-0.221-1.9-0.258c-4.375-0.258-8.75-0.492-13.125-0.734
			c0,0.023,0,0.047-0.002,0.068c-1.393,0-2.781,0.016-4.172-0.008c-0.746-0.012-1.15-0.633-0.844-1.332
			c1.168-2.668,2.738-5.08,4.848-7.094c0.598-0.568,1.402-1.066,2.193-1.26c1.965-0.484,3.977-1.059,5.969-1.066
			c2.623-0.012,5.068,0.992,6.805,3.072c1.93,2.311,3.215,5.031,4.412,7.783C79.771,51.446,79.365,52.009,78.959,52.005z
			 M36.623,34.567c1.342-0.701,2.408-1.711,3.111-3.047c0.176-0.33,0.094-0.818,0.062-1.229c-0.031-0.381-0.707-0.684-0.996-0.459
			c-1.332,1.043-2.604,2.158-3.291,3.748c-0.109,0.252,0.219,0.693,0.326,0.996C36.229,34.577,36.467,34.649,36.623,34.567z"/>
	</g>
</g>
</svg>
