<?xml version="1.0" encoding="utf-8"?>
<!-- Generator: Adobe Illustrator 16.0.0, SVG Export Plug-In . SVG Version: 6.00 Build 0)  -->
<!DOCTYPE svg PUBLIC "-//W3C//DTD SVG 1.1//EN" "http://www.w3.org/Graphics/SVG/1.1/DTD/svg11.dtd">
<svg version="1.1" id="Layer_1" xmlns="http://www.w3.org/2000/svg" xmlns:xlink="http://www.w3.org/1999/xlink" x="0px" y="0px"
	 width="120px" height="120px" viewBox="0 0 120 120" style="enable-background:new 0 0 120 120;" xml:space="preserve">
<g id="dropbox">
	<g>
		<path style="fill-rule:evenodd;clip-rule:evenodd;" d="M117.379,65.705c-0.465-1.08-1.107-2.004-1.966-2.809
			c-0.919-0.861-1.796-1.766-2.659-2.68c-2.811-2.972-5.734-5.824-8.834-8.504c-1.82-1.575-3.498-3.32-5.217-5.011
			c-0.316-0.312-0.377-0.754-0.03-1.12c0.43-0.458,0.866-0.915,1.344-1.321c2.643-2.242,5.03-4.735,7.386-7.275
			c1.488-1.605,3.129-3.139,4.938-4.36c1.452-0.983,2.443-2.255,3.426-3.597c0.566-0.773,0.435-1.631-0.355-2.207
			c-1.186-0.863-2.414-1.665-3.648-2.456c-3.971-2.54-8.076-4.893-11.893-7.643c-4.254-3.066-8.631-5.939-12.945-8.908
			c-1.336-0.917-2.657-1.697-4.372-1.106c-0.255,0.088-0.606-0.065-0.905-0.138c-1.031-0.248-1.878,0.189-2.605,0.8
			c-0.721,0.601-1.412,1.273-1.975,2.02c-2.158,2.857-4.706,5.352-7.229,7.873c-1.777,1.78-3.582,3.535-5.4,5.275
			c-1.79,1.714-4.156,2.812-5.451,5.074c-0.057,0.102-0.638,0.067-0.809-0.087c-0.457-0.42-0.9-0.893-1.217-1.425
			c-2.425-4.073-5.459-7.679-8.575-11.226c-2.622-2.988-5.642-5.624-7.786-9.042c-0.72-1.149-3.048-1.479-4.252-0.819
			c-1.012,0.553-2.013,1.129-2.976,1.757c-4.652,3.028-9.303,6.06-13.929,9.126c-2.446,1.621-4.835,3.323-7.259,4.975
			c-2.421,1.65-4.771,3.445-7.78,3.93c-0.103,0.015-0.2,0.065-0.298,0.1c-1.25,0.427-1.801,1.351-1.866,2.626
			c-0.073,1.355,0.429,2.446,1.479,3.296c0.892,0.718,1.797,1.424,2.658,2.18c0.943,0.831,1.798,1.765,2.767,2.563
			c4.616,3.801,9.113,7.729,13.425,11.869c0.619,0.591,1.231,1.118,2.114,1.269c0.288,0.05,0.571,0.255,0.807,0.45
			c0.126,0.104,0.249,0.379,0.198,0.496c-0.129,0.278-0.34,0.528-0.556,0.75c-2.792,2.867-5.953,5.271-9.283,7.484
			c-2.528,1.681-4.983,3.472-7.471,5.218c-1.658,1.163-2.884,2.736-4.034,4.365c-0.803,1.137-0.67,2.391,0.33,3.426
			c0.579,0.598,1.212,1.171,1.904,1.629c1.572,1.04,3.159,2.066,4.803,2.982c3.203,1.784,6.45,3.486,9.675,5.229
			c0.553,0.298,1.108,0.598,1.63,0.946c0.462,0.309,0.636,0.737,0.569,1.344c-0.128,1.14-0.176,2.293-0.205,3.441
			c-0.065,2.508,0.149,5.034-0.724,7.471c-0.169,0.477-0.111,1.036-0.136,1.313c0.025,2.435,1,3.763,3.118,4.396
			c0.8,0.237,1.631,0.38,2.452,0.539c3.512,0.686,6.975,1.595,10.033,3.488c4.097,2.541,8.142,5.16,12.556,7.137
			c0.19,0.084,0.376,0.188,0.547,0.309c2.865,2.039,6.191,3.005,9.476,4.06c1.056,0.337,1.962,0.065,2.958-0.511
			c3.166-1.83,6.443-3.471,9.645-5.24c1.738-0.961,3.459-1.977,5.109-3.078c3.668-2.451,7.469-4.639,11.559-6.314
			c0.865-0.354,1.658-0.891,2.472-1.363c0.991-0.574,1.924-1.273,2.963-1.732c1.389-0.611,2.132-1.652,2.444-3.049
			c0.155-0.708,0.225-1.449,0.231-2.176c0.016-1.572,0.077-3.156-0.076-4.717c-0.239-2.396,0.263-4.338,2.646-5.405
			c4.91-3.751,9.539-7.872,14.83-11.12c0.445-0.272,0.843-0.623,1.248-0.953C117.917,68.279,118.112,67.419,117.379,65.705z
			 M66.164,26.441c0.65-0.528,1.285-1.094,2-1.518c3.732-2.211,6.812-5.212,9.959-8.133c1.305-1.211,2.578-2.459,3.89-3.669
			c0.743-0.689,1.222-0.68,1.838,0.09c2.241,2.812,4.995,5.051,7.837,7.214c2.931,2.231,6.079,4.084,9.343,5.765
			c1.304,0.67,2.614,1.338,3.851,2.117c1.479,0.93,1.507,1.466,0.299,2.64c-1.278,1.241-2.6,2.439-3.86,3.696
			c-0.589,0.588-1.11,1.25-1.604,1.92c-0.242,0.325-0.588,0.837-0.482,1.113c0.504,1.336-0.47,1.863-1.209,2.569
			c-1.208,1.155-2.377,2.353-3.584,3.512c-0.212,0.203-0.52,0.31-0.788,0.465c-0.313-0.146-0.626-0.233-0.873-0.414
			c-1.108-0.804-2.279-1.462-3.61-1.853c-0.587-0.172-1.156-0.507-1.651-0.879c-3.944-2.97-8.311-5.271-12.468-7.901
			c-2.919-1.847-5.869-3.645-8.803-5.473C65.7,27.362,65.663,26.847,66.164,26.441z M20.375,35.594
			c-2.004-2.282-4.238-4.347-6.693-6.154c-0.338-0.247-0.644-0.534-0.956-0.812c-1.629-1.453-1.625-1.629,0.312-2.892
			c5.077-3.317,10.162-6.623,15.254-9.919c2.809-1.82,5.596-3.669,8.175-5.817c0.51-0.429,0.837-0.371,1.302,0.168
			c3.736,4.372,7.518,8.705,11.177,13.142c1.39,1.685,2.492,3.606,3.719,5.424c0.115,0.171,0.172,0.38,0.257,0.569
			c-0.097,0.18-0.173,0.375-0.297,0.531c-0.127,0.161-0.293,0.301-0.461,0.423c-4.063,2.961-8.295,5.632-12.871,7.757
			c-3.126,1.455-6.199,3.028-9.272,4.598c-0.859,0.438-1.524,0.421-2.271-0.222C25.209,40.214,22.602,38.125,20.375,35.594z
			 M26.742,74.734c-0.569-0.301-0.581-0.708-0.107-1.188c0.735-0.743,1.487-1.472,2.167-2.265c0.431-0.503,0.394-1.25,0.035-1.759
			c-0.396-0.564-0.96-0.831-1.627-0.704c-0.504,0.095-1.051,0.231-1.456,0.521c-1.103,0.79-2.147,1.661-3.201,2.519
			c-0.705,0.576-1.176,0.574-1.91-0.07c-0.36-0.314-0.421-0.789-0.091-1.086c0.778-0.7,1.601-1.348,2.365-2.062
			c0.682-0.64,1.373-1.291,1.945-2.023c0.627-0.804,0.615-1.717,0.134-2.33c-0.508-0.648-1.218-0.754-2.438-0.683
			c-0.454,0.212-1.384,0.488-2.12,1.028c-1.348,0.985-2.587,2.123-3.869,3.199c-0.318,0.269-0.591,0.627-0.951,0.797
			c-0.393,0.182-0.863,0.064-1.074-0.355c-0.108-0.223-0.12-0.653,0.02-0.811c0.559-0.619,1.171-1.199,1.811-1.738
			c3.207-2.696,6.433-5.368,9.639-8.065c0.723-0.606,1.393-1.276,2.078-1.923c0.627-0.593,0.985-1.279,1.083-2.185
			c0.106-1.002,0.216-1.002,1.133-0.395c4.806,3.181,9.827,5.999,14.866,8.793c2.833,1.57,5.538,3.378,8.286,5.104
			c0.439,0.275,0.808,0.665,1.183,1.028c0.298,0.287,0.125,0.597-0.134,0.748c-0.44,0.256-0.912,0.519-1.402,0.608
			c-0.502,0.09-1.042-0.036-1.567-0.051c-0.771-0.021-1.422,0.271-1.992,0.784c-2.335,2.102-4.771,4.098-6.983,6.322
			c-1.839,1.851-3.409,3.967-5.101,5.962c-0.199,0.234-0.383,0.558-0.642,0.646c-0.228,0.08-0.776-0.074-0.794-0.184
			c-0.301-1.995-1.778-2.938-3.318-3.84c-0.36-0.213-0.828-0.397-1.012-0.726C30.585,76.378,28.567,75.699,26.742,74.734z
			 M34.603,94.719c-0.09,0.107-0.203,0.197-0.313,0.287c-0.009,0.062-0.017,0.125-0.026,0.188c-0.073,0.029-0.153,0.054-0.22,0.095
			c-0.036,0.051-0.073,0.104-0.108,0.156c0.026-0.053,0.045-0.119,0.09-0.148c0.005-0.004,0.013-0.006,0.018-0.008
			c0.044-0.062,0.087-0.125,0.129-0.188c0.038-0.031,0.078-0.064,0.117-0.096c0.019-0.135,0.038-0.268,0.055-0.401
			c0.042-0.315,0.151-0.379,0.286-0.163C34.67,94.507,34.654,94.66,34.603,94.719z M38.684,97.612
			c-0.016,0.036-0.032,0.073-0.048,0.109c-0.029,0.028-0.061,0.057-0.091,0.084c-0.01,0.228-0.015,0.454-0.043,0.678
			c-0.008,0.083-0.11,0.154-0.169,0.23c-0.083-0.149-0.277-0.361-0.233-0.433c0.109-0.181,0.284-0.325,0.446-0.476
			c0.002-0.056,0.008-0.11,0.011-0.167C38.589,97.623,38.635,97.617,38.684,97.612c0.052-0.118,0.104-0.236,0.157-0.354
			C39.089,97.604,38.869,97.594,38.684,97.612z M55.41,82.535c-0.404,3.969-0.271,7.945-0.495,11.91
			c-0.2,3.549-0.392,7.096-0.598,10.645c-0.036,0.633-0.519,0.896-1.091,0.607c-0.548-0.277-1.143-0.494-1.267-1.243
			c-0.082-0.489-0.142-1.101-0.453-1.411c-0.546-0.541-1.352-0.459-2.078-0.318c-0.296,0.057-0.564,0.277-0.865,0.342
			c-0.134,0.029-0.328-0.126-0.461-0.237c-0.047-0.04-0.035-0.222,0.014-0.298c0.719-1.15,1.463-2.284,2.169-3.439
			c0.433-0.711,0.829-1.445,1.214-2.183c0.268-0.515,0.108-1.013-0.14-1.493c-0.548-1.068-1.772-1.379-2.609-0.611
			c-0.692,0.637-1.302,1.363-1.994,1.999c-0.344,0.312-0.772,0.529-1.173,0.777c0.002,0.045-0.012,0.083-0.005,0.13
			c-0.031,0.02-0.077,0.027-0.125,0.035c-0.05,0.126-0.098,0.251-0.148,0.377c-0.313-0.366-0.049-0.349,0.148-0.377
			c0.015-0.038,0.03-0.076,0.045-0.113c0.027-0.019,0.057-0.033,0.085-0.052c-0.029-0.63,0.384-1.07,0.717-1.541
			c0.668-0.938,1.363-1.857,2.006-2.81c0.498-0.737,0.53-1.568,0.321-2.414c-0.212-0.865-1.174-1.33-1.956-0.963
			c-1.458,0.686-2.52,1.852-3.635,2.953c-0.665,0.659-1.318,1.333-1.987,1.991c-0.044,0.044-0.186,0.048-0.238,0.01
			c-0.071-0.053-0.163-0.193-0.139-0.244c0.223-0.468,0.516-0.906,0.696-1.389c0.291-0.78-0.444-1.778-1.263-1.741
			c-0.412,0.017-0.837,0.063-1.227,0.193c-0.692,0.229-1.347,0.581-2.048,0.784c-0.488,0.144-1.065,0.187-1.31-0.462
			c-0.324-0.863-1.005-1.307-1.805-1.627c-0.715-0.287-1.515-0.445-2.04,0.199c-0.729,0.895-2.042,0.238-2.712,1.156
			c-0.01,0.014-0.379-0.142-0.389-0.24c-0.199-1.654-0.375-3.312-0.53-4.972c-0.014-0.181,0.097-0.499,0.219-0.54
			c0.257-0.086,0.624-0.137,0.837-0.015c1.82,1.029,3.614,2.106,5.421,3.159c2.83,1.646,4.219,1.307,6.046-1.251
			c1.399-1.952,2.885-3.849,4.445-5.673c1.013-1.188,2.158-2.295,3.381-3.268c2.298-1.829,4.487-3.76,6.408-5.983
			c0.121-0.142,0.363-0.179,0.547-0.263c0.113,0.268,0.324,0.538,0.321,0.805C55.619,76.471,55.718,79.525,55.41,82.535z
			 M61.145,65.479c-1,0.818-1.616,0.176-2.248-0.461c-0.062,0-0.125-0.002-0.187,0c-0.205-0.227-0.409-0.452-0.613-0.68v-0.045
			c-0.965,0.216-1.518-0.422-2.018-1.074c-0.133-0.176-0.108-0.605,0.015-0.82c1.118-1.949,0.685-4.069,0.717-6.136
			c0.001-0.1-0.045-0.205-0.086-0.297c-0.228-0.5-0.569-0.873-1.146-0.949c-0.465-0.063-1.038,0.35-1.139,0.882
			c-0.23,1.23-0.418,2.469-0.623,3.705c-0.065,0.407-0.065,0.847-0.234,1.208c-0.08,0.174-0.533,0.338-0.729,0.266
			c-0.771-0.287-1.083-0.733-1-1.407c0.266-2.176,0.636-4.345,0.831-6.527c0.224-2.498,0.321-5.009,0.44-7.515
			c0.018-0.296-0.062-0.655-0.23-0.888c-0.163-0.222-0.484-0.371-0.765-0.446c-0.159-0.043-0.45,0.071-0.554,0.21
			c-0.304,0.416-0.617,0.85-0.8,1.327c-0.756,1.962-1.075,4.035-1.413,6.096c-0.283,1.753-0.494,3.52-0.746,5.279
			c-0.123,0.867-0.819,1.131-1.62,0.657c-0.596-0.358-0.928-0.848-0.812-1.548c0.288-1.753,0.678-3.493,0.886-5.252
			c0.209-1.762,0.277-3.541,0.347-5.315c0.014-0.387-0.203-0.791-0.347-1.171c-0.129-0.325-0.91-0.425-1.088-0.123
			c-0.413,0.714-0.85,1.43-1.158,2.193c-1.022,2.542-1.375,5.249-1.861,7.921c-0.05,0.269-0.24,0.601-0.468,0.731
			c-0.511,0.295-1.887-0.634-1.877-1.255c0.011-0.517,0.122-1.031,0.174-1.549c0.165-1.665,0.364-3.331,0.454-5
			c0.025-0.479-0.218-0.999-0.438-1.453c-0.203-0.423-1.003-0.528-1.396-0.289c-0.879,0.534-1.257,1.34-1.392,2.332
			c-0.169,1.242-0.392,2.477-0.616,3.711c-0.083,0.448-0.574,0.718-0.925,0.498c-1.858-1.164-3.708-2.341-5.542-3.539
			c-0.384-0.248-0.345-0.823,0.047-1.021c2.242-1.127,4.457-2.32,6.749-3.333c6.056-2.67,11.888-5.715,17.143-9.784
			c0.493-0.38,1.074-0.645,1.624-0.946c0.391-0.214,0.849,0.065,0.887,0.537c0.048,0.626,0.1,1.254,0.107,1.882
			c0.06,3.981,0.081,7.964,0.166,11.946c0.03,1.458,0.211,2.914,0.3,4.374c0.061,1.045,0.109,2.092,0.115,3.139
			c0.022,2.916,0.015,5.831,0.022,8.745c0.017-0.004,0.032-0.004,0.049-0.008c0.221,0.213,0.441,0.426,0.658,0.639
			c0.031,0.029,0.062,0.062,0.093,0.094c0.358-0.002,0.714,0.01,1.063-0.037c0.702-0.094,1.097-0.545,1.257-1.217
			c0.023-0.102,0.036-0.209,0.032-0.314c-0.176-4.073,0.234-8.165-0.414-12.226c-0.117-0.719-0.104-1.461-0.118-2.192
			c-0.055-2.62-0.087-5.239-0.145-7.857c-0.055-2.404,0.052-4.816-0.467-7.195c-0.085-0.392-0.011-0.829,0.052-1.234
			c0.014-0.096,0.397-0.241,0.423-0.209c0.6,0.722,1.469,0.549,2.236,0.745c1.643,0.417,3.121,1.208,4.422,2.307
			c0.559,0.473,1.08,0.99,1.622,1.483c2.575,2.331,5.357,4.354,8.53,5.819c1.233,0.568,2.447,1.187,3.654,1.812
			c1.777,0.922,3.406,2.06,4.795,3.511c0.306,0.321,0.393,0.696-0.059,1.037c-0.922,0.687-1.792,1.449-2.743,2.09
			c-3.643,2.459-7.3,4.896-10.972,7.314c-2.887,1.9-5.79,3.773-8.35,6.115c-0.504,0.462-1.022,0.625-1.707,0.447
			C61.76,65.146,61.367,65.299,61.145,65.479z M92.512,90.725c-0.994,1.275-2.039,2.279-3.556,2.919
			c-4.558,1.922-8.669,4.649-12.769,7.377c-1.917,1.276-3.842,2.542-5.75,3.832c-1.042,0.703-2.082,1.415-3.072,2.186
			c-1.016,0.792-2.16,1.262-3.374,1.627c-0.482,0.146-0.825,0.034-0.953-0.452c-0.239-0.902-0.538-1.811-0.624-2.734
			c-0.107-1.143-0.025-2.303-0.025-3.455c-0.037-0.006-0.076-0.01-0.115-0.014c0.213-1.765,0.562-3.526,0.608-5.296
			c0.083-3.241-0.004-6.487-0.039-9.731c-0.001-0.308-0.151-0.614-0.169-0.924c-0.221-4.289-0.438-8.577-0.637-12.867
			c-0.016-0.3,0.084-0.609,0.152-0.908c0.019-0.079,0.109-0.171,0.191-0.199c0.09-0.033,0.248-0.043,0.299,0.012
			c0.281,0.302,0.57,0.606,0.797,0.951c3.041,4.57,6.807,8.5,10.812,12.215c2.15,1.996,4.305,3.991,5.932,6.478
			c0.59,0.898,0.828,0.927,1.822,0.568c1.383-0.497,2.768-0.97,4.27-0.878c0.809,0.049,1.377-0.374,1.906-0.924
			c1.238-1.283,2.5-2.543,4.132-3.351c0.547-0.272,0.957,0.001,1.008,0.681C93.439,88.909,93.242,89.789,92.512,90.725z
			 M84.137,88.438l0.15,0.033l-0.105,0.139L84.137,88.438z M111.471,66.695c-0.662,0.697-1.459,1.315-2.428,1.268
			c-1.473-0.074-2.659,0.522-3.783,1.303c-4.301,2.988-8.594,5.992-12.867,9.016c-2.402,1.699-4.637,3.598-6.607,5.794
			c-0.313,0.353-0.793,0.341-1.1-0.022c-0.809-0.961-1.641-1.914-2.334-2.957c-1.008-1.511-2.28-2.703-3.729-3.777
			c-2.616-1.935-5.07-4.064-7.306-6.438c-0.574-0.609-1.153-1.219-1.675-1.873c-0.81-1.021-0.749-1.221,0.479-2.111
			c0.252-0.182,0.605-0.299,0.749-0.541c1.437-2.447,3.822-3.852,6.046-5.369c3.4-2.318,6.551-4.883,9.272-7.969
			c0.347-0.392,0.708-0.771,1.088-1.135c0.535-0.521,1.132-0.967,1.929-0.913c1.44,0.096,2.402-0.526,2.932-1.855
			c0.344-0.855,0.924-0.791,1.76-0.712c1.383,0.128,2.418,0.672,3.168,1.757c1.502,2.18,3.52,3.868,5.328,5.759
			c3.04,3.181,6.006,6.433,8.996,9.663c0.131,0.143,0.176,0.367,0.261,0.555C111.593,66.326,111.59,66.567,111.471,66.695z"/>
	</g>
</g>
</svg>
