<?xml version="1.0" encoding="utf-8"?>
<!-- Generator: Adobe Illustrator 16.0.0, SVG Export Plug-In . SVG Version: 6.00 Build 0)  -->
<!DOCTYPE svg PUBLIC "-//W3C//DTD SVG 1.1//EN" "http://www.w3.org/Graphics/SVG/1.1/DTD/svg11.dtd">
<svg version="1.1" id="Layer_1" xmlns="http://www.w3.org/2000/svg" xmlns:xlink="http://www.w3.org/1999/xlink" x="0px" y="0px"
	 width="120px" height="120px" viewBox="0 0 120 120" style="enable-background:new 0 0 120 120;" xml:space="preserve">
<g id="google_drive">
	<g>
		<path style="fill-rule:evenodd;clip-rule:evenodd;" d="M40.919,75.256c1.569-2.613,2.845-5.402,4.439-7.998
			c3.686-5.995,6.806-12.327,10.866-18.096c0.339-0.479,0.563-1.031,0.881-1.523c0.68-1.058,0.793-2.046,0.213-3.268
			c-2.022-4.231-3.836-8.563-5.898-12.775c-1.91-3.895-4.022-7.69-6.087-11.51c-0.439-0.816-0.992-1.591-1.6-2.3
			c-0.825-0.968-2.103-1.118-3.177-0.448c-1.012,0.629-1.779,1.474-2.414,2.504c-1.106,1.797-2.342,3.514-3.517,5.269
			c-2.547,3.8-5.199,7.535-7.608,11.42c-4.08,6.579-8.025,13.243-11.989,19.892c-3.006,5.036-6.096,10.026-8.456,15.419
			c-0.558,1.28-0.902,2.657-1.831,3.783c-0.339,0.415-0.375,1.081-0.589,1.755c0.237,0.834,0.443,1.747,0.756,2.622
			c2.406,6.736,5.12,13.353,7.961,19.917c0.604,1.397,1.293,2.766,2.057,4.084c0.583,1.005,1.256,1.99,2.047,2.838
			c1.293,1.393,3.079,1.418,4.342,0.047c1.743-1.892,3.437-3.816,4.59-6.182c2.112-4.322,4.473-8.514,7.043-12.588
			C35.634,83.85,38.326,79.582,40.919,75.256z M14.501,80.261c-0.021,0.015-0.046,0.021-0.069,0.032
			c-0.041,0.061-0.082,0.121-0.124,0.182c-0.041,0.014-0.072,0.032-0.108,0.048c-0.023,0.485-0.042,0.975-0.581,1.208
			c0.001,0.045,0.002,0.089,0.004,0.134c-0.032,0.014-0.068,0.025-0.104,0.038c-0.009,0.187-0.01,0.376-0.072,0.541
			c-0.05,0.123-0.251,0.186-0.384,0.277c-0.007-0.201-0.086-0.457,0.006-0.592c0.082-0.122,0.276-0.168,0.45-0.227
			c0.002-0.043,0.003-0.087,0.007-0.129c0.036-0.012,0.061-0.029,0.093-0.043c-0.013-0.504,0.046-0.975,0.581-1.208
			c0.002-0.049,0.005-0.099,0.008-0.147c0.076-0.026,0.153-0.05,0.225-0.082c0.052-0.076,0.104-0.153,0.157-0.229
			C14.561,80.132,14.55,80.227,14.501,80.261z M24.961,84.195c-1.871,3.528-3.957,6.918-6.511,10.005
			c-0.219,0.265-0.41,0.237-0.527-0.062c-0.039-0.1-0.107-0.23-0.073-0.309c0.185-0.426,0.36-0.862,0.606-1.25
			c1.074-1.682,2.181-3.341,3.259-5.019c0.317-0.489,0.615-0.998,0.855-1.527c0.277-0.615,0.028-1.611-0.416-1.946
			c-0.486-0.368-1.449-0.337-1.982,0.085c-0.271,0.218-0.538,0.452-0.77,0.712c-0.312,0.352-0.588,0.733-0.869,1.106
			c-2.441,3.205-3.059,3.729-3.184,3.135c-0.354-1.675,0.963-2.764,1.632-4.042c1.254-2.385,2.719-4.66,4.078-6.991
			c0.409-0.708,0.784-1.439,1.132-2.182c0.312-0.665,0.131-1.289-0.472-1.886c-0.534-0.527-1.083-0.585-1.897-0.157
			c-0.414,0.216-0.798,0.483-1.207,0.705c-0.068,0.038-0.219-0.009-0.294-0.066c-0.064-0.05-0.135-0.208-0.103-0.254
			c0.707-1.077,1.434-2.143,2.142-3.22c0.319-0.486,0.682-0.965,0.894-1.498c0.506-1.272,0.111-2.227-1.239-3.256
			c-1.042-0.795-1.123-0.963-0.572-1.963c1.357-2.465,2.702-4.942,4.146-7.356c5.249-8.755,10.522-17.493,15.822-26.216
			c0.725-1.192,1.653-2.263,2.487-3.389c0.183-0.248,0.358-0.221,0.51,0.088c0.611,1.268,1.264,2.52,1.827,3.81
			c1.784,4.089,3.729,8.096,6.042,11.917c0.182,0.301,0.371,0.601,0.531,0.913c0.354,0.702,0.324,1.677-0.156,1.937
			c-0.35,0.188-0.825,0.143-0.909,0.154c-2.125-0.688-3.321,0.119-4.191,1.55c-1.282,2.105-2.521,4.233-3.754,6.368
			c-3.81,6.607-7.647,13.199-11.394,19.842C28.503,77.304,26.779,80.776,24.961,84.195z M115.035,84.224
			c-0.596-0.585-1.098-1.142-1.265-2.026c-0.339-1.789-1.585-2.472-3.325-2.473c-1.878-0.001-3.759-0.007-5.637-0.088
			c-3.514-0.149-7.023-0.472-10.537-0.513c-7.05-0.083-14.099-0.024-21.146-0.024v-0.191c-5.053,0-10.104-0.003-15.155,0
			c-4.337,0.003-8.675-0.003-12.988,0.634c-1.171,0.174-1.964,0.66-2.489,1.675c-0.377,0.729-0.793,1.439-1.141,2.185
			c-2.122,4.607-4.783,8.877-7.945,12.843c-1.396,1.746-2.534,3.655-3.555,5.652c-0.789,1.543-0.99,3.104-0.753,4.775
			c0.206,1.43,1.063,2.32,2.507,2.532c0.465,0.068,0.938,0.093,1.406,0.089c5.519-0.047,11.039-0.1,16.56-0.165
			c0.468-0.006,0.931-0.122,1.398-0.165c1.399-0.129,2.804-0.377,4.2-0.347c11.26,0.249,22.541-0.66,33.782,0.653
			c1.514,0.177,3.06,0.053,4.573,0.217c3.017,0.323,6.016,0.989,9.023-0.031c2.183,0.547,3.225-0.848,4.095-2.456
			c0.613-1.134,1.158-2.311,1.698-3.481c1.964-4.263,3.915-8.53,5.866-12.799c0.488-1.068,1.037-2.115,1.426-3.219
			C116.041,86.339,115.98,85.15,115.035,84.224z M104.927,87.231c-1.522,3.685-3.047,7.368-4.595,11.042
			c-0.452,1.078-1.029,2.107-1.462,3.193c-0.523,1.305-1.486,1.681-2.785,1.561c-0.931-0.087-1.87-0.104-2.798-0.201
			c-0.113-0.012-0.319-0.371-0.272-0.482c0.409-0.97,0.888-1.911,1.308-2.879c0.401-0.93,0.283-1.818-0.262-2.68
			c-0.546-0.859-1.756-1.116-2.388-0.365c-0.599,0.705-1.121,1.502-1.522,2.333c-0.405,0.837-0.606,1.772-0.924,2.653
			c-0.309,0.852-0.572,0.992-1.61,0.956c-1.28-0.047-1.562-0.389-1.188-1.426c0.398-1.1,0.894-2.176,1.159-3.308
			c0.344-1.46-0.242-2.639-1.26-2.938c-0.92-0.272-1.853,0.17-2.561,1.422c-0.859,1.519-1.852,2.986-1.833,4.875
			c0.011,0.943-0.339,1.213-1.353,1.163c-1.353-0.064-2.781,0.437-4.048-0.438c0.081-1.351,0.976-2.349,1.546-3.482
			c0.579-1.152,1.25-2.258,1.908-3.367c0.504-0.844,0.669-1.742,0.583-2.705c-0.095-1.073-1.394-1.895-2.326-1.396
			c-0.719,0.381-1.462,0.804-2.011,1.382c-2.371,2.48-4.37,5.208-5.348,8.57c-0.418,1.435-0.775,1.657-2.18,1.479
			c-0.65-0.082-0.984-0.633-0.729-1.278c0.3-0.762,0.654-1.503,0.974-2.26c0.502-1.188,1.082-2.354,1.462-3.58
			c0.233-0.753,0.257-1.609,0.185-2.401c-0.071-0.773-0.744-1.166-1.445-1.364c-0.647-0.184-1.232,0.189-1.516,0.659
			c-1.82,2.994-4.048,5.779-4.848,9.313c-0.214,0.948-1.256,1.294-2.244,0.826c-0.152-0.073-0.339-0.397-0.29-0.514
			c0.493-1.188,1.036-2.356,1.561-3.53c0.45-1.002,0.57-2.022,0.185-3.076c-0.388-1.059-1.955-1.504-2.592-0.649
			c-1.469,1.965-3.008,3.903-3.506,6.417c-0.304,1.549-0.563,1.718-2.011,1.606c-0.716-0.055-0.992-0.522-0.684-1.22
			c0.904-2.037,1.826-4.066,2.735-6.101c0.384-0.856,0.825-1.697,1.103-2.589c0.165-0.531,0.144-1.162,0.054-1.725
			c-0.172-1.105-1.689-1.602-2.494-0.822c-0.502,0.485-1.014,1.009-1.357,1.607c-1.571,2.749-3.085,5.528-4.615,8.299
			c-0.354,0.64-0.403,1.3-0.307,2.037c0.126,0.988-0.079,1.138-1.051,1.121c-0.854-0.017-1.137-0.314-0.855-1
			c0.938-2.276,1.904-4.539,2.866-6.806c0.229-0.54,0.523-1.055,0.721-1.605c0.697-1.931-0.233-3.108-2.36-3.021
			c-0.78,0.033-1.098-0.276-0.854-0.88c0.66-1.616,1.349-3.222,2.026-4.833c1.706-0.657,3.483-0.251,5.221-0.299
			c3.638-0.097,7.28-0.029,10.921-0.029v0.24c4.229,0,8.456-0.033,12.686,0.017c1.637,0.021,3.272,0.331,4.908,0.336
			c2.341,0.004,4.682-0.161,7.025-0.237c1.989-0.062,3.964-0.119,5.967,0.139c2.199,0.284,4.451,0.197,6.679,0.284
			c0.818,0.032,1.644,0.048,2.446,0.189c0.223,0.039,0.488,0.487,0.525,0.774C105.235,86.555,105.06,86.913,104.927,87.231z
			 M49.557,16.364c1.928,4.279,3.732,8.616,5.821,12.815c3.503,7.041,7.188,13.991,10.788,20.984
			c0.643,1.25,1.076,2.645,1.891,3.766c3.195,4.408,5.474,9.288,7.62,14.25c0.465,1.077,0.986,2.129,1.485,3.19
			c0.367,0.786,0.918,1.236,1.822,1.459c3.782,0.937,7.588,1.529,11.496,1.04c1.996,0,4.039,0.274,5.979-0.059
			c3.741-0.644,7.491-0.496,11.241-0.574c1.528-0.03,3.055-0.007,4.581-0.055c0.766-0.025,1.298-0.595,1.392-1.338
			c0.125-0.959,0.045-1.865-0.536-2.691c-0.538-0.766-1.162-1.503-1.528-2.348c-3.761-8.631-8.578-16.695-13.236-24.849
			c-2.444-4.279-4.893-8.559-7.279-12.872c-1.704-3.081-3.235-6.26-4.982-9.315c-1.454-2.542-3.088-4.987-4.691-7.44
			c-0.908-1.393-2.225-1.857-3.928-1.814c-4.811,0.125-9.628,0.161-14.441,0.083c-2.453-0.038-4.927,0.111-7.364-0.461
			c-1.662-0.39-3.343,0.129-4.828,0.688c-2.014,0.761-2.487,1.854-1.947,3.906C49.06,15.292,49.316,15.83,49.557,16.364z
			 M78.695,58.246l0.118-0.227l0.066,0.249L78.695,58.246z M56.79,15.048c0.324-0.24,0.875-0.304,1.3-0.25
			c2.092,0.261,4.204,0.463,6.252,0.927c1.745,0.398,3.483,0.435,5.241,0.443c2.351,0.011,4.7,0.041,7.048,0
			c1.085-0.02,1.672,0.389,2.116,1.417c1.86,4.304,3.638,8.658,5.775,12.824c3.214,6.259,6.708,12.372,10.079,18.552
			c2.472,4.531,4.938,9.066,7.407,13.599c0.285,0.524,0.12,0.892-0.407,1.067c-1.221,0.407-2.43,0.959-3.686,1.129
			c-2.903,0.394-5.83,0.592-8.748,0.879c-0.915,0.089-1.627-0.091-1.805-1.155c-0.036-0.222-0.17-0.437-0.289-0.636
			c-0.766-1.265-2.236-1.466-3.246-0.422c-0.236,0.244-0.348,0.604-0.536,0.898c-0.276,0.423-0.649,0.787-1.096,0.303
			c-0.278-0.301-0.568-0.837-0.484-1.175c0.283-1.133,0.778-2.21,1.102-3.335c0.253-0.887,0.5-1.813,0.513-2.725
			c0.018-1.457-1.501-2.181-2.778-1.39c-0.292,0.181-0.509,0.48-0.766,0.721c-0.081,0.075-0.176,0.135-0.262,0.201
			c-0.07-0.208-0.246-0.454-0.188-0.621c0.9-2.661,1.812-5.319,2.774-7.96c0.368-1.018,0.615-2.049,0.413-3.1
			c-0.101-0.532-0.447-1.062-0.808-1.487c-0.3-0.352-0.793-0.463-1.268-0.171c-0.924,0.575-1.604,1.379-2.064,2.348
			c-0.656,1.375-1.267,2.772-1.882,4.166c-0.283,0.641-0.518,1.303-0.812,1.939c-0.084,0.18-0.301,0.301-0.457,0.449
			c-0.14-0.185-0.303-0.355-0.414-0.557c-0.227-0.409-0.416-0.84-0.641-1.252c-0.644-1.188-0.791-2.342-0.322-3.699
			c1.036-2.985,1.938-6.021,2.799-9.064c0.443-1.566,1.168-3.082,1.05-4.78c-0.043-0.618-0.429-1.185-0.967-1.31
			c-0.611-0.145-1.164-0.011-1.618,0.424c-0.168,0.16-0.303,0.361-0.421,0.562c-0.405,0.71-0.861,1.399-1.181,2.148
			c-0.549,1.293-0.903,2.68-1.542,3.923c-0.45,0.879-0.171,2.185-1.424,2.624c-0.896-0.657-1.098-1.73-1.593-2.627
			c-0.705-1.278-0.967-2.535-0.515-4.02c0.545-1.783,0.862-3.643,1.19-5.484c0.227-1.265,0.379-2.552,0.416-3.833
			c0.015-0.532-0.281-1.121-0.57-1.602c-0.432-0.713-1.745-0.741-2.118-0.05c-0.558,1.027-1.019,2.107-1.512,3.17
			c-0.294,0.633-0.562,1.277-0.855,1.911c-0.048,0.1-0.161,0.166-0.247,0.246c-0.083-0.171-0.264-0.355-0.24-0.511
			c0.193-1.27,0.423-2.533,0.642-3.8c-0.041-0.007-0.079-0.015-0.116-0.022c0.208-0.914,0.48-1.818,0.605-2.743
			c0.103-0.803,0.126-1.644,0.019-2.444c-0.144-1.059-1.645-1.557-2.534-0.947c-0.911,0.625-1.402,1.548-1.921,2.472
			c-0.285,0.51-0.811,0.54-1.087,0.107c-1.07-1.683-2.136-3.369-3.178-5.069C56.709,15.893,56.314,15.401,56.79,15.048z"/>
	</g>
</g>
</svg>
