<?xml version="1.0" encoding="utf-8"?>
<!-- Generator: Adobe Illustrator 16.0.0, SVG Export Plug-In . SVG Version: 6.00 Build 0)  -->
<!DOCTYPE svg PUBLIC "-//W3C//DTD SVG 1.1//EN" "http://www.w3.org/Graphics/SVG/1.1/DTD/svg11.dtd">
<svg version="1.1" id="Layer_1" xmlns="http://www.w3.org/2000/svg" xmlns:xlink="http://www.w3.org/1999/xlink" x="0px" y="0px"
	 width="120px" height="120px" viewBox="0 0 120 120" style="enable-background:new 0 0 120 120;" xml:space="preserve">
<g id="skydrive">
	<g>
		<path style="fill-rule:evenodd;clip-rule:evenodd;" d="M116.172,78.242c-0.325-0.276-0.89-0.322-1.062,0.009
			c-0.373,0.718-0.778,1.436-1.02,2.2c-0.32,1.004-0.717,1.966-1.537,2.617c-2.773,2.203-5.76,3.965-9.453,4.012
			c-1.645,0.021-3.289,0.002-4.934,0.002v-0.018c-1.646,0-3.287,0.023-4.934-0.011c-0.817-0.018-1.677-0.01-2.444-0.249
			c-2.247-0.699-4.493-1.438-6.683-2.304c-3.434-1.358-6.825-2.831-10.229-4.265c-1.131-0.475-2.275-0.938-3.378-1.479
			c-2.398-1.175-4.78-2.381-7.155-3.6c-2.193-1.123-4.434-2.173-6.537-3.445c-4.658-2.814-9.195-5.823-13.868-8.607
			c-3.722-2.217-7.128-4.846-10.518-7.513c-0.356-0.282-0.46-0.679-0.191-1.083c1.891-2.841,4.443-4.833,7.717-5.813
			c1.675-0.501,3.262-0.245,4.569,1.042c1.703,1.674,3.275,3.418,3.594,5.94c0.111,0.868,0.628,1.489,1.39,1.925
			c0.732,0.417,1.825,0.087,2.047-0.708c0.163-0.582,0.244-1.206,0.246-1.811c0.011-2.359,0.838-4.382,2.268-6.243
			c2.112-2.747,4.775-4.785,7.794-6.403c1.877-1.004,3.906-1.224,5.984-1.046c2.812,0.243,5.722,2.656,6.463,5.388
			c0.428,1.583,0.707,3.205,1.098,4.8c0.582,2.402,0.957,4.828,0.945,7.307c-0.006,1.541,0.006,3.083,0.035,4.625
			c0.012,0.615,0.041,1.238,0.148,1.841c0.186,1.039,1.224,1.52,2.076,0.939c1.701-1.161,3.447-2.226,5.398-2.928
			c2.65-0.954,5.213-1.065,7.604,0.717c0.244,0.185,0.492,0.377,0.764,0.516c1.851,0.936,2.965,2.51,3.705,4.367
			c1.067,2.677,2.017,5.391,2.021,8.329c0,0.941,0.094,1.919,0.747,2.612c0.781,0.831,1.412,1.728,1.957,2.725
			c0.375,0.683,1.578,0.766,2.201,0.223c0.303-0.266,0.588-0.591,0.762-0.947c0.174-0.357,0.227-0.782,0.283-1.185
			c0.744-5.248,0.137-10.19-2.912-14.73c-2.355-3.503-5.357-6.195-9.058-8.145c-1.743-0.917-3.634-1.405-5.587-1.609
			c-0.59-0.062-1.199,0.03-1.801,0.051c-0.191-0.673-0.413-1.34-0.569-2.022c-0.133-0.599-0.223-1.212-0.274-1.824
			c-0.174-2.091-0.885-4.005-1.964-5.778c-1.671-2.746-3.824-5.083-6.272-7.154c-2.812-2.376-6.075-3.453-9.714-3.04
			c-3.878,0.441-7.721,1.128-11.223,3.025c-0.271,0.146-0.546,0.285-0.825,0.416c-0.381,0.179-0.869-0.099-0.873-0.536
			c-0.011-1.537-0.055-3.08,0.036-4.613c0.058-0.943,0.542-1.798,1.295-2.375c0.97-0.743,1.972-1.388,3.215-1.74
			c2.431-0.687,4.883-0.532,7.342-0.606c1.828-0.053,3.445,0.426,4.842,1.624c0.312,0.267,0.631,0.53,0.981,0.74
			c0.593,0.36,1.462,0.243,2.01-0.223c0.578-0.491,0.726-1.234,0.375-1.951c-0.09-0.182-0.206-0.36-0.343-0.51
			c-0.533-0.586-0.721-1.197-0.332-1.961c0.117-0.233,0.057-0.594-0.012-0.876c-0.42-1.764,0.354-3.002,1.784-3.866
			c1.317-0.792,2.657-1.542,4.253-1.709c0.913-0.097,1.831-0.316,2.701-0.606c1.515-0.506,2.86-0.069,4.106,0.694
			c3.021,1.849,5.058,4.501,5.95,7.934c0.812,3.11,1.119,6.261,0.188,9.42c-0.029,0.099-0.043,0.201-0.068,0.301
			c-0.18,0.708,0.326,1.161,0.66,1.651c0.373,0.547,0.88,0.283,1.365,0.102c0.865-0.324,1.734-0.644,2.615-0.91
			c1.968-0.594,3.961-1.027,6.03-1.088c1.321-0.038,2.396,0.48,3.331,1.348c1.091,1.013,1.757,2.27,1.991,3.735
			c0.178,1.115,0.347,2.235,0.432,3.36c0.241,3.239-0.203,6.351-1.849,9.219c-0.668,1.158-1.32,2.32-1.959,3.493
			c-0.441,0.812-0.882,1.626-1.25,2.473c-0.281,0.646,0.124,1.644,0.781,2.172c0.686,0.551,1.666,0.639,2.279,0.131
			c1.264-1.044,2.556-2.059,3.724-3.203c1.713-1.673,2.955-3.637,3.517-6.031c0.736-3.159,0.674-6.311,0.131-9.465
			c-0.42-2.455-1.283-4.763-2.84-6.747c-2.071-2.64-4.705-4.25-8.156-4.248c-1.232,0.001-2.469,0.001-3.697,0.086
			c-1.285,0.089-1.705-0.106-1.67-1.469c0.063-2.471-0.043-4.929-0.601-7.347c-0.561-2.433-1.353-4.783-3.332-6.454
			c-2.167-1.827-4.703-3.025-7.526-3.225c-2.656-0.188-5.381-0.306-7.998,0.079c-4.701,0.69-8.631,2.695-10.143,7.727
			c-0.244,0.812-0.545,0.89-1.373,0.49c-0.74-0.356-1.461-0.756-2.213-1.085c-4.922-2.163-8.976-0.423-11.6,2.223
			c-1.465,1.474-2.643,3.161-3.491,5.042c-1.758,3.904-2.039,7.72,1.034,11.184c0.493,0.557,0.182,0.906-0.118,1.313
			c-0.313,0.424-0.647,0.791-1.27,0.544c-1.33-0.528-2.634-1.325-4.013-1.497c-4.789-0.596-9.418-0.117-13.599,2.656
			c-1.9,1.26-3.699,2.588-5.006,4.493c-0.251,0.364-0.657,0.499-1.071,0.251c-2.206-1.322-4.624-1.55-7.13-1.475
			c-1.262,0.038-2.429,0.28-3.555,0.843c-2.862,1.425-5.484,3.245-8.034,5.134c-1.687,1.249-2.527,3.153-2.709,5.323
			c-0.145,1.718,0.608,3.192,1.075,4.742c0.104,0.344,0.516,0.623,0.832,0.871c0.559,0.439,1.728,0.076,1.72-0.604
			c-0.015-1.629,0.902-2.918,1.403-4.35c0.641-1.833,1.97-3.093,3.776-3.826c1.711-0.695,3.416-1.404,5.14-2.062
			c0.467-0.178,1.022-0.339,1.485-0.25c1.203,0.228,2.392,0.556,3.559,0.93c0.735,0.234,0.951,0.677,0.752,1.447
			c-0.33,1.298-0.615,2.587-0.553,3.944c0.068,1.424,0.628,2.623,1.685,3.505c0.508,0.425,1.289,0.747,1.934,0.729
			c1.06-0.025,1.844-0.83,2.621-1.502c0.508-0.438,0.547-1.078,0.57-1.697c0.06-1.441,0.574-1.622,1.681-0.854
			c1.011,0.703,2.068,1.349,3.033,2.113c2.646,2.102,5.174,4.355,8.152,6.018c0.706,0.395,1.318,0.981,1.915,1.543
			c4.138,3.889,9.236,6.093,14.443,8.011c1.729,0.638,3.475,1.202,5.109,2.059c3.907,2.044,7.81,4.07,11.931,5.7
			c4.572,1.81,9.022,3.938,13.764,5.306c1.275,0.367,2.592,0.595,3.884,0.905c0.167,0.039,0.312,0.179,0.465,0.272
			c-0.108,0.171-0.176,0.425-0.33,0.501c-1.104,0.539-2.208,1.068-3.49,1.043c-0.606-0.014-1.265-0.052-1.811,0.154
			c-1.097,0.412-2.212,0.438-3.339,0.434c-2.363-0.009-4.729-0.025-7.093-0.075c-0.817-0.017-1.634-0.129-2.45-0.212
			c-1.324-0.133-2.645-0.311-3.972-0.406c-1.019-0.074-2.032,0.017-3.011-0.465c-0.4-0.195-1.039-0.149-1.467,0.03
			c-1.01,0.425-1.513-0.003-1.971-0.829c-0.844-1.527-2.475-1.605-3.908-2.035c-1.113,0.525-1.086,1.648-1.368,2.605
			c-0.03,0.1-0.034,0.205-0.071,0.301c-0.33,0.867-1.792,1.336-2.626,0.821c-0.154-0.094-0.334-0.325-0.321-0.479
			c0.069-0.805,0.186-1.608,0.31-2.409c0.094-0.604,0.315-1.201,0.31-1.8c-0.006-0.349-0.267-0.835-0.557-1.001
			s-0.835-0.142-1.149,0.025c-1.137,0.603-1.811,1.637-2.326,2.783c-0.417,0.925-0.836,1.849-1.255,2.773
			c-0.531-1.122,0.094-2.182,0.199-3.264c0.088-0.912,0.369-1.801,0.529-2.706c0.117-0.662-0.443-1.431-1.129-1.632
			c-0.706-0.207-1.602-0.012-1.93,0.59c-0.435,0.797-0.848,1.646-1.045,2.522c-0.315,1.397-0.434,2.837-0.655,4.253
			c-0.062,0.398-0.094,0.874-0.33,1.148c-0.223,0.259-0.692,0.356-1.067,0.397c-0.086,0.009-0.401-0.562-0.324-0.752
			c0.823-2.065-0.1-4.262,0.518-6.343c0.171-0.582-0.446-1.164-1.09-1.238c-0.799-0.092-1.416,0.219-1.844,0.868
			c-1.086,1.655-1.707,3.494-2.069,5.427c-0.133,0.705-0.266,1.411-0.431,2.107c-0.137,0.582-0.568,0.811-1.131,0.818
			c-0.514,0.006-1.03,0.012-1.542-0.01c-0.807-0.033-1.195-0.371-1.152-1.096c0.056-0.918,0.145-1.841,0.304-2.744
			c0.15-0.828,0.174-1.615-0.131-2.42c-0.294-0.775-0.69-1.189-1.249-1.163c-0.564,0.026-0.985,0.321-1.212,0.812
			c-0.473,1.023-1.017,2.035-1.322,3.11c-1.197,4.212-0.479,3.036-4.562,3.007c-0.754-0.004-1.12-0.419-1.12-1.147
			c0-1.231,0.038-2.464,0.036-3.696c0-0.957-0.578-1.488-1.408-1.812c-0.413-0.161-1.174,0.106-1.321,0.507
			c-0.137,0.379-0.197,0.787-0.312,1.176c-0.339,1.178-0.657,2.363-1.048,3.523c-0.126,0.379-0.48,0.752-0.942,0.572
			c-0.347-0.134-0.642-0.447-0.902-0.732c-0.12-0.129-0.143-0.387-0.139-0.582c0.051-2.153,0.084-4.307,0.191-6.457
			c0.056-1.125,0.274-2.24,0.371-3.365c0.034-0.398,0.016-0.854-0.151-1.201c-0.164-0.333-0.512-0.714-0.844-0.785
			c-0.317-0.07-0.834,0.131-1.05,0.389c-0.385,0.462-0.674,1.033-0.891,1.601c-0.511,1.342-0.968,2.704-1.42,4.066
			c-0.159,0.483-0.216,0.998-0.72,1.291c-0.365,0.208-0.555-0.214-0.428-1.475c0.291-2.853,0.46-5.739,1.854-8.353
			c0.141-0.264,0.238-0.568,0.279-0.863c0.026-0.184-0.054-0.409-0.153-0.578c-0.672-1.129-2.202-1.368-3.18-0.555
			c-0.91,0.756-1.45,1.75-1.825,2.814c-0.784,2.229-1.452,4.492-1.499,6.889c-0.002,0.086-0.216,0.188-0.347,0.236
			c-0.038,0.014-0.171-0.115-0.201-0.201c-0.174-0.477-0.43-0.951-0.48-1.444c-0.261-2.484,0.278-4.909,0.679-7.336
			c0.11-0.679,0.531-1.329,0.912-1.933c1.058-1.688,2.536-2.957,4.215-3.994c1.439-0.887,2.857-0.992,4.299,0.092
			c0.73,0.549,1.551,1.017,2.397,1.357c0.877,0.354,1.802,0.344,2.609-0.334c0.523-0.438,0.7-1.207,0.213-1.599
			c-1.756-1.409-3.433-2.978-5.371-4.085c-2.294-1.31-4.83-1.484-7.418-0.5c-3.05,1.158-5.668,2.875-7.758,5.377
			c-1.435,1.721-2.232,3.693-2.137,5.947c0.079,1.844,0.304,3.678,0.403,5.521c0.062,1.154,0.384,2.215,0.865,3.25
			c2.951,6.364,7.989,10.299,14.539,12.428c3.127,1.017,6.398,1.422,9.615,2.045c1.106,0.211,2.217,0.499,3.333,0.537
			c3.59,0.123,7.175,0.289,10.765,0.475c5.435,0.283,10.891,0.159,16.338,0.195c1.232,0.01,2.437-0.17,3.661-0.365
			c2.726-0.439,5.457-0.909,8.255-0.812c1.944,0.066,3.897-0.145,5.842-0.285c1.228-0.088,2.441-0.332,3.666-0.404
			c3.593-0.211,7.145-0.592,10.553-1.847c1.059-0.392,2.12-0.892,3.217-1.026c2.242-0.272,3.711-1.623,5.084-3.191
			c0.406-0.463,0.781-0.954,1.143-1.453c0.632-0.884,1.463-1.463,2.546-1.565c2.077-0.198,3.948-1.049,5.872-1.762
			c2.852-1.058,4.842-2.983,6.169-5.695c0.785-1.599,1.064-3.312,1.376-5.021C117.168,79.35,116.752,78.74,116.172,78.242z
			 M16.751,92.805c-0.013-0.164-0.051-0.33-0.032-0.494c0.006-0.072,0.118-0.137,0.183-0.205c0.063,0.168,0.127,0.334,0.193,0.503
			C16.98,92.676,16.866,92.74,16.751,92.805z"/>
	</g>
</g>
</svg>
