<?xml version="1.0" encoding="utf-8"?>
<!-- Generator: Adobe Illustrator 16.0.0, SVG Export Plug-In . SVG Version: 6.00 Build 0)  -->
<!DOCTYPE svg PUBLIC "-//W3C//DTD SVG 1.1//EN" "http://www.w3.org/Graphics/SVG/1.1/DTD/svg11.dtd">
<svg version="1.1" id="Layer_1" xmlns="http://www.w3.org/2000/svg" xmlns:xlink="http://www.w3.org/1999/xlink" x="0px" y="0px"
	 width="120px" height="120px" viewBox="0 0 120 120" style="enable-background:new 0 0 120 120;" xml:space="preserve">
<g id="cloud_app">
	<g>
		<path style="fill-rule:evenodd;clip-rule:evenodd;" d="M114.827,73.824c-1.969-2.637-4.178-4.9-7.753-5.082
			c-0.104-0.006-0.21-0.031-0.313-0.055c-0.475-0.115-0.73-0.436-0.746-0.902c-0.047-1.391-0.039-2.781-0.102-4.17
			c-0.154-3.412-1.318-6.465-3.344-9.193c-1.387-1.871-3.225-3.086-5.482-3.672c-1.928-0.504-1.929-0.512-2.029-2.227
			c-0.025-0.426-0.025-0.855-0.042-1.281c-0.319-7.9-3.46-14.473-9.41-19.654c-3.294-2.867-7.088-4.848-11.512-5.121
			c-7.071-0.439-13.817,0.941-20.187,4.086c-5.84,2.883-9.924,7.32-12.005,13.527c-0.42,1.254-0.413,1.893-1.702,0.434
			c-0.426-0.48-0.877-0.939-1.351-1.373c-4.855-4.432-12.837-4.471-17.491,0.166c-2.074,2.066-3.771,4.379-4.985,7.021
			c-0.845,1.838-1.663,3.727-1.741,5.795c-0.096,2.561-0.295,5.131,0.521,7.637c0.2,0.615-0.146,1.033-0.765,1.1
			c-1.164,0.129-2.398,0.057-3.474,0.439c-2.384,0.844-4.257,2.402-5.49,4.674c-2.588,4.764-3.349,9.879-2.883,15.207
			c0.12,1.385,0.606,2.725,1.56,3.801c2.26,2.553,5.016,4.359,8.406,4.904c3.156,0.506,6.346,0.844,9.533,1.096
			c1.903,0.152,3.844,0.387,5.742-0.184c1.039-0.312,1.881,0.01,2.545,0.865c1.633,2.104,3.789,3.393,6.326,4.148
			c1.955,0.58,3.936,0.967,5.965,1.031c2.566,0.08,5.135,0.084,7.703,0.125c1.813,0.027,3.61,0.061,5.42,0.422
			c1.662,0.33,3.395,0.289,5.102-0.07c1.036-0.219,2.111-0.336,3.171-0.342c5.349-0.033,10.699-0.016,16.049-0.016v-0.014
			c4.494,0,8.987,0.018,13.481-0.008c1.604-0.012,3.213-0.047,4.807-0.209c2.76-0.279,5.51-0.676,8.266-1.004
			c2.512-0.299,4.814-1.055,6.514-3.047c1.176-1.381,2.345-2.777,3.382-4.26c0.47-0.674,0.772-1.553,0.878-2.375
			C117.948,81.688,117.575,77.502,114.827,73.824z M30.114,71.699c-2.367,3.215-3.467,6.781-2.871,10.846
			c0.52,3.535,0.879,3.676-3.588,4.037c-0.213,0.016-0.432,0.008-0.642-0.023c-0.558-0.084-1.017-0.344-1.244-0.883
			c-0.331-0.783-0.581-1.605-0.963-2.361c-0.204-0.404-0.71-0.529-1.114-0.311c-0.234,0.129-0.488,0.5-0.473,0.746
			c0.034,0.52,0.256,1.023,0.369,1.541c0.095,0.432-0.256,0.896-0.672,0.873c-0.85-0.049-1.703-0.096-2.543-0.221
			c-0.647-0.096-1.064-0.65-1.09-1.389c-0.031-0.963-0.008-1.926-0.008-2.889h0.029c0-0.961,0.064-1.928-0.035-2.879
			c-0.035-0.338-0.414-0.723-0.738-0.924c-0.405-0.252-1.151,0.027-1.4,0.457c-0.318,0.553-0.615,1.125-0.857,1.715
			c-0.239,0.59-0.36,1.23-0.612,1.816c-0.102,0.238-0.411,0.385-0.626,0.572c-0.091-0.193-0.219-0.375-0.267-0.576
			c-0.28-1.188,0.059-2.324,0.28-3.479c0.221-1.146,0.412-2.311,0.47-3.475c0.046-0.939-0.583-1.438-1.647-1.537
			c-0.285-0.025-0.684,0.066-0.829-0.086c-0.183-0.191-0.214-0.58-0.215-0.885c-0.005-1.51,0.593-2.664,1.978-3.398
			c1.035-0.549,1.994-1.238,3.032-1.779c1.538-0.801,3.076-0.793,4.556,0.209c0.708,0.48,1.412,0.971,2.156,1.391
			c2.234,1.266,4.107,0.336,4.291-2.178c0.056-0.758,0.068-1.473,0.483-2.143c0.162-0.264,0.226-0.598,0.296-0.906
			c0.254-1.117-0.332-1.924-1.445-2.006c-1.077-0.076-2.134-0.035-3.137,0.451c-0.496,0.238-0.787-0.109-1.016-0.477
			c-0.263-0.426-0.147-0.863,0.192-1.152c0.896-0.758,1.861-1.434,2.743-2.205c0.545-0.477,0.574-1.238,0.219-1.742
			c-0.418-0.588-1.039-0.854-1.675-0.676C20.69,56,19.937,56.43,19.155,56.76c-0.074,0.031-0.25,0.006-0.254-0.018
			c-0.033-0.178-0.121-0.449-0.035-0.535c1.123-1.133,2.258-2.258,3.422-3.35c0.792-0.74,1.494-1.531,1.896-2.551
			c0.312-0.795-0.236-1.867-1.086-2.002c-0.628-0.098-1.277-0.053-1.918-0.09c-0.468-0.029-0.806-0.488-0.631-0.854
			c1.494-3.127,3.74-5.488,7.086-6.572c2.352-0.764,4.656-0.588,6.689,1.004c1.008,0.791,2.031,1.562,2.77,2.65
			c0.42,0.615,0.937,1.17,1.44,1.723c1.515,1.664,1.669,1.682,3.79,0.674c0.383-0.184,0.783-0.359,1.195-0.449
			c0.844-0.184,1.272-0.684,1.404-1.523c0.115-0.738,0.299-1.465,0.45-2.199c0.862-4.176,3.042-7.553,6.53-9.938
			c6.088-4.16,12.783-6.414,20.258-5.686c4.035,0.393,7.615,1.812,10.674,4.629c3.52,3.242,5.69,7.182,6.758,11.771
			c0.516,2.207,0.409,4.469,0.204,6.709c-0.032,0.352-0.392,0.799-0.722,0.973c-1.037,0.547-2.129,0.99-3.204,1.463
			c-0.46,0.201-0.874,0.027-1.106-0.354c-0.332-0.543-0.555-1.156-0.845-1.729c-1.318-2.598-3.126-4.865-5.062-6.998
			c-1.778-1.961-4.076-3.086-6.816-3.061c-10.756,0.1-19.486,4.188-25.809,13.062c-1.855,2.605-2.754,5.545-3.043,8.666
			c-0.105,1.146,0.222,2.328,0.32,3.498c0.05,0.594-0.4,1.055-1.004,0.93c-1.944-0.404-3.842,0.01-5.699,0.406
			C33.964,67.619,31.8,69.41,30.114,71.699z M112.224,83.797c-0.117,0.805-0.544,1.631-1.035,2.297
			c-0.76,1.025-1.648,1.971-2.568,2.861c-1.42,1.375-3.1,2.004-5.131,2.279c-5.537,0.756-11.088,0.676-16.643,0.779
			c-3.091,0.057-6.178,0.322-9.268,0.496c-0.002-0.045-0.004-0.09-0.008-0.135c-1.818,0-3.637,0.006-5.454-0.002
			c-0.864-0.002-1.394-0.383-1.521-1.297c-0.059-0.41-0.205-0.838-0.43-1.184c-0.306-0.469-0.822-0.775-1.369-0.537
			c-0.332,0.146-0.658,0.533-0.773,0.883c-0.125,0.377,0.02,0.836,0.008,1.26c-0.014,0.484-0.303,0.822-0.768,0.838
			c-1.174,0.041-2.352,0.035-3.526,0.006c-0.702-0.02-1.17-0.438-1.487-1.049c-0.39-0.752-0.759-1.52-1.224-2.221
			c-0.117-0.176-0.573-0.191-0.86-0.162c-0.146,0.014-0.359,0.281-0.381,0.455c-0.087,0.738-0.089,1.486-0.172,2.227
			c-0.056,0.498-0.444,0.764-0.895,0.721c-0.74-0.068-1.474-0.229-2.201-0.391c-0.734-0.162-1.082-0.555-1.17-1.314
			c-0.121-1.061-0.142-2.137-0.334-3.184c-0.143-0.779-0.689-1.307-1.51-1.477c-0.652-0.135-1.424,0.252-1.521,0.85
			c-0.224,1.369-0.39,2.744-0.584,4.117c-0.044,0.314-0.054,0.654-0.188,0.93c-0.2,0.416-0.609,0.629-1.054,0.479
			c-0.26-0.088-0.621-0.357-0.642-0.574c-0.091-0.953-0.089-1.918-0.091-2.879c-0.004-1.283,0.06-2.568,0.016-3.85
			c-0.019-0.514-0.181-1.049-0.391-1.523c-0.304-0.68-1.459-0.846-1.934-0.307c-0.781,0.887-1.391,1.848-1.711,3.029
			c-0.396,1.459-0.572,2.93-0.681,4.422c-0.012,0.162-0.321,0.453-0.351,0.438c-0.242-0.141-0.586-0.303-0.645-0.525
			c-0.105-0.398-0.068-0.85-0.028-1.273c0.05-0.529,0.196-1.051,0.243-1.58c0.084-0.959,0.2-1.92,0.16-2.877
			c-0.025-0.615-0.227-1.258-0.492-1.82c-0.514-1.09-2.035-1.189-2.584-0.152c-0.598,1.125-0.99,2.357-1.58,3.488
			c-0.31,0.594-0.068,1.438-0.831,1.811c-0.068-0.732-0.229-1.471-0.183-2.197c0.061-0.953,0.341-1.891,0.422-2.846
			c0.088-1.053,0.095-2.117,0.064-3.176c-0.016-0.49-0.688-1.012-1.148-0.893c-0.376,0.1-0.915,0.344-1.004,0.637
			c-0.398,1.32-0.668,2.68-0.971,4.029c-0.092,0.414-0.126,0.84-0.232,1.248c-0.012,0.043-0.412,0.084-0.506-0.006
			c-1.555-1.49-2.027-3.461-2.291-5.482c-0.062-0.484,0.168-1.064,0.414-1.518c0.662-1.219,1.389-2.402,2.119-3.58
			c0.668-1.078,1.695-1.576,2.928-1.734c2.221-0.285,4.256,0.307,6.125,1.424c0.606,0.363,1.055,1.035,1.49,1.627
			c0.375,0.508,0.591,1.131,0.949,1.652c0.303,0.443,1.16,0.562,1.782,0.322c0.564-0.221,0.804-0.686,0.816-1.252
			c0.026-1.162-0.005-2.326,0.028-3.486c0.018-0.615-0.793-1.227-0.194-1.756c0.442-0.391,1.157-0.463,1.742-0.699
			c0.294-0.123,0.571-0.289,0.845-0.453c0.582-0.35,0.898-1.018,0.771-1.633c-0.12-0.58-0.556-0.852-1.044-1.119
			c-0.76-0.414-1.439-0.084-2.161,0.092c-0.784,0.193-1.2,0.018-1.318-0.443c-0.173-0.682,0.056-1.232,0.751-1.537
			c1.074-0.469,2.166-0.896,3.267-1.297c0.601-0.219,1.233-0.34,1.851-0.514c0.306-0.086,0.629-0.15,0.906-0.299
			c0.672-0.357,1.289-0.803,1.389-1.635c0.086-0.727-0.934-1.721-1.928-1.854c-1.394-0.186-2.77-0.115-4.094,0.443
			c-0.148,0.062-0.382-0.072-0.576-0.115c0.061-0.172,0.072-0.391,0.186-0.512c1.643-1.742,3.713-2.855,5.802-3.943
			c0.946-0.494,1.913-0.963,2.798-1.551c0.52-0.346,0.918-0.885,1.329-1.371c0.332-0.395,0.194-0.873-0.143-1.127
			c-0.495-0.377-1.093-0.619-1.646-0.916c-0.183-0.096-0.369-0.188-0.554-0.279c0.185-0.254,0.314-0.598,0.562-0.746
			c2.771-1.67,5.777-2.742,8.939-3.393c0.94-0.193,1.889-0.363,2.842-0.48c2.535-0.305,4.647,0.387,6.085,2.645
			c1.72,2.703,3.489,5.375,5.165,8.105c0.496,0.807,0.76,1.76,1.104,2.654c0.152,0.398,0.227,0.824,0.365,1.229
			c0.464,1.352,1.088,1.941,1.895,1.811c1.124-0.182,2.154-1.271,2.234-2.41c0.029-0.424,0.047-0.873-0.059-1.275
			c-0.354-1.35,0.416-1.898,1.473-2.432c2.73-1.377,5.6-1.164,8.477-0.867c0.779,0.08,1.288,0.678,1.754,1.297
			c1.597,2.127,2.316,4.574,2.469,7.166c0.131,2.229,0.246,4.469-0.35,6.695c-0.404,1.512,0.642,2.645,2.289,2.744
			c1.066,0.064,2.139,0.061,3.205,0.133c1.349,0.092,2.484,0.656,3.283,1.758c0.752,1.035,1.443,2.117,2.137,3.195
			C112.372,79.943,112.504,81.869,112.224,83.797z"/>
	</g>
</g>
</svg>
