<?xml version="1.0" encoding="utf-8"?>
<!-- Generator: Adobe Illustrator 16.0.0, SVG Export Plug-In . SVG Version: 6.00 Build 0)  -->
<!DOCTYPE svg PUBLIC "-//W3C//DTD SVG 1.1//EN" "http://www.w3.org/Graphics/SVG/1.1/DTD/svg11.dtd">
<svg version="1.1" id="Layer_1" xmlns="http://www.w3.org/2000/svg" xmlns:xlink="http://www.w3.org/1999/xlink" x="0px" y="0px"
	 width="120px" height="120px" viewBox="0 0 120 120" style="enable-background:new 0 0 120 120;" xml:space="preserve">
<g id="apple">
	<g>
		<path style="fill-rule:evenodd;clip-rule:evenodd;" d="M104.797,79.578c-0.631-1.026-1.449-1.54-2.758-1.452
			c-2.109,0.143-4.232,0.087-6.349,0.094c-1.49,0.006-2.847-0.53-4.11-1.238c-1.961-1.1-3.662-2.552-5.128-4.25
			c-0.953-1.104-1.515-2.372-1.82-3.864c-1.466-7.213,3.771-15.201,9.503-17.012c1.059-0.334,2.062-0.832,3.1-1.242
			c2.24-0.883,3.091-2.619,2.584-5.023c-0.351-1.657-0.984-3.18-1.75-4.675c-1.781-3.474-4.543-6.011-7.66-8.234
			c-2.427-1.731-5.133-2.657-8.1-2.775c-1.561-0.063-3.122-0.015-4.684-0.037c-2.509-0.032-4.846,0.593-7.058,1.751
			c-1.085,0.569-2.22,1.049-3.278,1.662c-1.537,0.894-3.066,1.812-4.519,2.834c-1.089,0.766-2.053,1.709-3.067,2.578
			c-0.401,0.342-0.768,0.338-1.161-0.028c-0.894-0.839-1.745-1.735-2.712-2.476c-2.68-2.052-5.848-2.642-9.112-2.789
			c-2.562-0.116-5.107,0.113-7.667,0.352c-4.767,0.444-8.813,2.286-12.195,5.602c-4.193,4.107-7.327,8.935-9.662,14.314
			c-1.983,4.572-3.061,9.296-2.792,14.296c0.022,0.444,0.002,0.893,0.002,1.339c-0.012,0-0.026,0-0.041,0.002
			c0.073,2.006,0.096,4.016,0.234,6.018c0.093,1.327,0.362,2.641,0.545,3.962c1.362,9.822,5.309,18.336,12.676,25.132
			c0.981,0.904,2.067,1.773,2.796,2.865c2.525,3.785,6.742,4.939,10.419,6.939c2.206,0.281,4.368,0.859,6.628,0.77
			c1.261-0.051,2.409-0.319,3.527-0.88c2.918-1.459,5.616-3.187,7.687-5.778c0.713-0.891,1.016-0.9,1.94-0.212
			c2.894,2.158,6.168,3.579,9.542,4.72c2.969,1.005,6.099,1.385,9.229,1.18c4.676-0.306,8.827-2.136,12.715-4.678
			c2.893-1.894,4.943-4.459,6.41-7.54c1.195-2.515,2.331-5.059,3.575-7.547c1.562-3.119,2.493-6.435,3.188-9.821
			C105.818,82.767,105.738,81.095,104.797,79.578z M96.252,86.631c-1.064,3.758-2.469,7.391-4.078,10.943
			c-1.291,2.849-3.51,4.759-6.119,6.431c-3.714,2.378-7.713,2.788-11.883,2.183c-1.737-0.252-3.447-0.877-5.096-1.528
			c-2.17-0.859-4.266-1.912-6.396-2.876c-0.511-0.231-1.01-0.494-1.54-0.656c-1.333-0.406-2.74-0.494-3.817,0.46
			c-1.256,1.108-2.784,1.304-4.262,1.722c-0.529,0.148-0.918-0.157-0.748-0.683c0.434-1.333-0.053-2.426-0.796-3.427
			c-0.312-0.418-0.831-0.766-1.326-0.945c-1.089-0.395-2.389,0.159-2.784,1.227c-0.342,0.928-0.501,1.928-0.705,2.905
			c-0.216,1.036-0.511,1.284-1.578,1.22c-1.191-0.07-1.574-0.492-1.37-1.708c0.35-2.083,0.782-4.154,1.146-6.237
			c0.171-0.978,0.35-1.969,0.366-2.957c0.008-0.515-0.242-1.091-0.527-1.545c-0.859-1.374-2.834-1.42-3.592-0.011
			c-0.733,1.36-1.265,2.839-1.812,4.291c-0.352,0.933-0.558,1.918-0.87,2.866c-0.03,0.091-0.421,0.186-0.511,0.114
			c-0.687-0.563-1.344-1.158-1.998-1.759c-0.53-0.486-0.717-1.118-0.67-1.816c0.077-1.224,0.108-2.454,0.275-3.666
			c0.271-1.982,0.627-3.956,0.961-5.932c0.216-1.268-0.004-2.434-0.723-3.508c-0.746-1.115-2.33-1.236-3.126-0.148
			c-0.45,0.612-0.739,1.355-1.03,2.068c-0.538,1.336-1.01,2.696-1.547,4.03c-0.051,0.128-0.367,0.167-0.566,0.205
			c-0.042,0.007-0.145-0.167-0.173-0.269c-0.09-0.318-0.21-0.64-0.224-0.965c-0.022-0.442,0.039-0.889,0.071-1.331
			c0.334-4.236,1.301-8.352,2.431-12.431c0.24-0.859,0.53-1.704,0.743-2.567c0.104-0.424,0.208-0.908,0.098-1.306
			c-0.104-0.379-0.434-0.766-0.772-0.979c-0.202-0.129-0.682-0.029-0.908,0.14c-0.531,0.397-1.024,0.864-1.464,1.362
			c-0.735,0.833-1.409,1.721-2.134,2.564c-0.083,0.1-0.419,0.15-0.462,0.091c-0.125-0.167-0.218-0.401-0.214-0.606
			c0.008-0.328,0.051-0.676,0.171-0.978c0.823-2.064,1.745-4.097,2.488-6.19c0.902-2.531,1.89-5.001,3.458-7.206
			c0.257-0.36,0.473-0.756,0.65-1.163c0.45-1.032-0.202-2.086-1.299-2.183c-0.933-0.083-1.775,0.088-2.472,0.751
			c-0.564,0.538-1.114,1.088-1.678,1.623c-0.238,0.226-0.428,0.153-0.432-0.188c-0.012-1.014-0.122-1.965-0.814-2.804
			c-0.574-0.698-0.346-1.511,0.059-2.196c0.334-0.568,0.808-1.06,1.26-1.548c0.757-0.819,1.588-1.572,2.307-2.419
			c1.035-1.219,2.187-2.205,3.771-2.627c0.532-0.143,1.08-0.361,1.519-0.683c2.091-1.522,4.474-1.907,6.968-1.901
			c0.56,0.001,1.118,0,1.674,0c2.232-0.125,4.398-0.086,6.581,0.717c2.008,0.736,2.486,2.395,3.197,3.988
			c0.1,0.229-0.088,0.636-0.234,0.91c-0.362,0.69-0.845,1.322-1.157,2.03c-0.721,1.642-0.68,3.244,0.471,4.718
			c0.432,0.555,1.309,0.577,1.716,0.015c0.591-0.811,1.193-1.614,1.725-2.464c1.244-1.989,2.508-3.929,4.455-5.363
			c0.78-0.575,1.171-1.668,1.938-2.27c3.146-2.461,6.184-5.139,10.393-5.713c1.206-0.164,2.358-0.676,3.556-0.912
			c2.776-0.548,5.532-0.573,8.204,0.55c0.717,0.302,1.424,0.655,2.165,0.882c2.057,0.635,3.466,1.946,4.302,3.91
			c0.176,0.41,0.369,0.812,0.562,1.213c0.227,0.473,0.131,0.91-0.31,1.143c-2.4,1.272-4.268,3.213-6.259,4.993
			c-2.188,1.952-3.861,4.307-5.197,6.913c-2.018,3.938-2.466,8.008-1.366,12.317c1.116,4.365,3.445,7.968,6.646,11.016
			c1.993,1.897,4.437,2.959,7.249,2.997c1.115,0.015,2.23-0.004,3.344,0.013c0.471,0.006,0.832,0.452,0.725,0.89
			C96.674,85.133,96.465,85.883,96.252,86.631z M59.154,28.344c2.891,1.288,5.822,1.452,8.709,0.038
			c1.195-0.583,2.354-1.273,3.436-2.05c5.338-3.835,8.721-9.091,11.006-15.172c0.959-2.549,0.327-3.74-1.54-5.197
			c-0.822-0.644-1.712-1.005-2.769-0.959c-1.444,0.061-2.854,0.169-4.279,0.567c-4.29,1.195-7.939,3.47-11.242,6.354
			c-3.465,3.026-5.223,6.858-5.117,11.485c0,0.779-0.016,1.559,0.006,2.339C57.396,26.993,58.048,27.851,59.154,28.344z
			 M62.715,22.375c0.247-0.729,0.426-1.529,0.865-2.132c0.713-0.981,1.549-1.897,2.439-2.724c1.974-1.832,4.256-3.199,6.755-4.193
			c0.143-0.056,0.377,0.119,0.568,0.189c-0.015,0.203,0.042,0.449-0.052,0.604c-2.223,3.695-5.271,6.566-8.91,8.838
			c-0.182,0.114-0.415,0.226-0.619,0.217c-0.299-0.012-0.625-0.079-0.877-0.226C62.752,22.872,62.66,22.537,62.715,22.375z"/>
	</g>
</g>
</svg>
