<?xml version="1.0" encoding="utf-8"?>
<!-- Generator: Adobe Illustrator 16.0.0, SVG Export Plug-In . SVG Version: 6.00 Build 0)  -->
<!DOCTYPE svg PUBLIC "-//W3C//DTD SVG 1.1//EN" "http://www.w3.org/Graphics/SVG/1.1/DTD/svg11.dtd">
<svg version="1.1" id="Layer_1" xmlns="http://www.w3.org/2000/svg" xmlns:xlink="http://www.w3.org/1999/xlink" x="0px" y="0px"
	 width="120px" height="120px" viewBox="0 0 120 120" style="enable-background:new 0 0 120 120;" xml:space="preserve">
<g id="android">
	<g>
		<path style="fill-rule:evenodd;clip-rule:evenodd;" d="M89.523,45.734c-0.22-1.646-1.342-2.846-2.954-2.525
			c-2.751,0.546-5.405-0.188-8.104-0.188H67.264v-0.033c-3.51,0-7.018-0.011-10.525,0.008c-1.133,0.004-2.286-0.041-3.39,0.155
			c-3.144,0.563-6.311,0.459-9.473,0.476c-2.491,0.012-4.984-0.04-7.47,0.037c-1.232,0.039-2.456,0.306-3.684,0.459
			c-1.043,0.128-1.527,0.688-1.72,1.748c-0.798,4.385-0.79,8.783-0.287,13.18c0.424,3.729,0.416,7.47,0.114,11.176
			c-0.24,2.945-0.277,5.879-0.18,8.808c0.103,3.153,0.614,6.267,1.643,9.299c0.519,1.528,1.389,2.526,2.764,3.225
			c1.335,0.681,2.757,0.974,4.227,1.149c0.769,0.093,1.252,0.646,1.229,1.389c-0.047,1.579-0.132,3.158-0.272,4.731
			c-0.346,3.895,0.146,7.656,1.645,11.279c0.525,1.271,1.228,2.415,2.296,3.312c2.714,2.282,6.495,2.108,8.427-0.604
			c1.641-2.305,2.964-4.82,3.001-7.788c0.019-1.472,0.104-2.941,0.095-4.413c-0.008-1.812,0.167-3.599,0.401-5.399
			c0.273-2.102,0.626-2.174,2.615-2.075c0.901,0.044,1.809,0.068,2.708,0.146c0.502,0.046,0.845,0.387,0.831,0.894
			c-0.033,1.013-0.081,2.03-0.226,3.03c-0.489,3.398-0.368,6.77,0.479,10.089c0.511,1.995,1.461,3.791,2.999,5.229
			c2.73,2.551,6.681,2.266,8.944-0.649c0.99-1.272,1.75-2.703,1.988-4.264c0.457-3.006,1.015-6.02,0.504-9.099
			c-0.202-1.218-0.186-2.479-0.188-3.721c0-1.691,0.297-2.082,1.893-2.127c1.273-0.037,2.441-0.399,3.643-0.713
			c3.189-0.84,4.948-3.239,5.822-6.086c0.924-2.997,1.394-6.135,1.354-9.349c-0.089-7.129-0.015-14.261,0.052-21.39
			c0.014-1.687,0.287-3.371,0.402-5.058c0.046-0.669,0.027-1.348-0.039-2.015C89.811,47.279,89.627,46.51,89.523,45.734z
			 M84.515,49.47c-0.742,3.584-0.438,7.222-0.511,10.837c-0.095,4.754-0.049,9.513-0.041,14.271c0.004,3.295-0.436,6.54-1.125,9.753
			c-0.141,0.65-0.398,1.285-0.686,1.889c-0.561,1.185-0.612,1.12-2.045,1.085c-2.263-0.054-4.526-0.021-6.787,0.011
			c-0.49,0.008-0.877,0.352-0.945,0.826c-0.176,1.227-0.277,2.46-0.409,3.691c0.997,2.41,0.478,4.92,0.433,7.388
			c-0.037,1.917-0.305,3.828-0.447,5.744c-0.105,1.386-0.438,2.673-1.422,3.717c-0.354,0.374-1.329,0.347-1.484-0.095
			c-0.443-1.271-0.88-2.551-1.205-3.854c-0.095-0.382,0.129-0.885,0.312-1.283c0.379-0.822,0.85-1.602,1.24-2.418
			c0.643-1.348,0.506-1.791-0.798-2.847c-0.841-0.683-0.858-0.746-0.285-1.538c0.729-1.009,1.49-1.996,2.185-3.028
			c0.311-0.458,0.548-0.987,0.713-1.519c0.172-0.557,0.085-1.139-0.361-1.571c-0.434-0.419-0.937-0.485-1.557-0.345
			c-0.705,0.158-1.324,1.229-2.031,0.519c-0.37-0.372-0.207-1.275-0.292-1.937c-0.089-0.697-0.428-1.073-1.066-1.025
			c-3.268,0.242-6.561-0.048-9.814,0.602c-1.43,0.285-2.935,0.169-4.398,0.31c-1.135,0.105-1.569,0.618-1.573,1.798
			c-0.012,4.076,0.077,8.157-0.031,12.23c-0.054,2.021-0.42,4.039-0.713,6.051c-0.058,0.407-0.353,0.837-0.659,1.135
			c-0.192,0.186-0.645,0.265-0.91,0.176c-0.271-0.09-0.562-0.407-0.649-0.687c-0.089-0.287,0.056-0.647,0.105-0.974
			c0.114-0.754-0.052-1.354-0.88-1.573c-0.666-0.178-0.937-0.526-0.633-1.222c0.316-0.723,0.68-1.446,0.862-2.207
			c0.153-0.641,0.318-1.461,0.047-1.98c-0.61-1.178-0.761-2.316-0.533-3.586c0.077-0.422,0.058-1.027-0.19-1.303
			c-0.959-1.072-0.535-2.092-0.076-3.158c0.223-0.517,0.413-1.05,0.604-1.581c0.517-1.446,0.297-1.885-1.242-2.499
			c-0.922-0.37-0.992-0.461-0.548-1.076c0.926-1.284,1.875-2.549,2.85-3.793c0.614-0.781,0.728-1.629,0.529-2.56
			c-0.225-1.044-1.445-1.664-2.383-1.165c-1.941,1.026-3.588,2.346-4.458,4.471c-0.272,0.669-0.818,0.626-1.283-0.011
			c-0.606-0.823-0.639-1.183-0.068-1.771c1.178-1.222,2.424-2.386,3.557-3.646c0.672-0.747,1.238-1.606,1.747-2.475
			c0.296-0.507,0.157-1.108-0.205-1.598c-0.374-0.505-1.3-0.823-1.833-0.525c-0.88,0.494-1.744,1.038-2.538,1.658
			c-0.709,0.556-1.302,1.256-1.976,1.862c-0.114,0.101-0.382,0.063-0.57,0.035c-0.077-0.015-0.169-0.168-0.186-0.271
			c-0.24-1.396-0.132-2.634,1.031-3.711c1.073-0.992,1.982-2.168,2.906-3.312c0.343-0.426,0.61-0.959,0.767-1.483
			c0.196-0.664,0.149-1.356-0.368-1.906c-0.527-0.558-1.203-0.633-1.875-0.393c-0.636,0.226-1.228,0.57-1.846,0.854
			c-0.074,0.033-0.25,0.025-0.26-0.006c-0.068-0.19-0.207-0.447-0.134-0.585c1.29-2.516,2.66-4.992,3.898-7.53
			c0.641-1.314,1.094-2.725,1.565-4.111c0.275-0.809-0.064-1.695-0.667-2.086c-0.701-0.458-1.904-0.308-2.464,0.422
			c-0.616,0.807-1.121,1.695-1.685,2.543c-0.246,0.367-0.504,0.729-0.779,1.076c-0.058,0.072-0.217,0.098-0.32,0.083
			c-0.073-0.011-0.174-0.116-0.186-0.19c-0.215-1.244-0.25-2.255,0.951-3.29c1.517-1.309,2.736-3.006,3.898-4.667
			c0.868-1.242,1.825-1.784,3.363-1.745c3.619,0.093,7.224-0.163,10.839-0.498c3.369-0.314,6.79-0.068,10.186-0.068
			c0.002-0.026,0.002-0.052,0.002-0.08c2.377,0,4.757-0.011,7.136,0.006c1.807,0.011,3.599,0.035,5.401,0.401
			c1.422,0.289,2.931,0.143,4.4,0.209C84.246,48.37,84.641,48.848,84.515,49.47z M78.885,16.436c-1.164-0.905-1.147-1.12-0.299-2.17
			c1.208-1.498,2.434-2.979,3.628-4.486c0.631-0.801,1.179-1.642,1.257-2.725c0.105-1.459-1.02-2.398-2.375-1.936
			c-1.109,0.377-1.976,1.084-2.723,1.955c-1.554,1.815-2.922,3.746-3.693,6.043c-0.172,0.512-0.591,0.688-1.059,0.571
			c-0.764-0.191-1.519-0.441-2.261-0.71c-4.942-1.803-9.969-1.623-15.043-0.726c-2.35,0.415-4.611,1.066-6.792,2.048
			c-1.123,0.506-1.571,0.301-2.255-0.717c-1.263-1.877-2.511-3.763-3.789-5.629c-0.314-0.463-0.657-0.938-1.091-1.277
			c-0.666-0.522-1.459-0.584-2.236-0.215c-0.688,0.327-1.015,0.964-0.938,1.661c0.084,0.764,0.254,1.567,0.602,2.243
			c0.721,1.406,1.587,2.737,2.383,4.106c0.397,0.683,0.817,1.358,1.127,2.079c0.107,0.246,0.021,0.711-0.159,0.918
			c-0.364,0.418-0.848,0.73-1.292,1.075c-2.772,2.153-5.426,4.404-7.629,7.192c-2.185,2.762-3.381,5.809-3.669,9.296
			c-0.227,2.77-0.645,3.876,3.638,3.96c1.699,0.035,3.396,0.007,5.091,0.087c1.348,0.064,2.691,0.341,4.039,0.362
			c7.017,0.105,14.035,0.161,21.052,0.233c-0.002-0.044-0.002-0.085-0.002-0.128c2.717,0,5.434,0.021,8.15-0.005
			c4.752-0.041,9.506-0.109,14.258-0.171c0.453-0.004,0.91,0.012,1.355-0.05c1.684-0.231,2.658-1.268,2.607-2.989
			c-0.114-3.89-0.727-7.608-3.287-10.812C84.861,22.246,82.221,19.027,78.885,16.436z M83.115,34.246
			c-2.131,0.195-4.266,0.455-6.401,0.479c-5.872,0.065-11.747,0.022-17.619,0.022c0-0.021-0.002-0.042-0.002-0.062
			c-6.548,0.07-13.096,0.143-19.645,0.213c-0.225,0.005-0.451-0.006-0.676-0.015c-0.591-0.022-0.999-0.572-0.858-1.15
			c0.566-2.34,1.61-4.478,3.072-6.356c1.453-1.866,3.065-3.615,4.675-5.35c1.637-1.763,3.644-2.912,5.937-3.749
			c3.77-1.377,7.596-2.158,11.595-1.832c6.497,0.529,12.353,2.5,16.751,7.667c2.179,2.559,3.497,5.5,4.169,8.76
			C84.287,33.703,83.967,34.17,83.115,34.246z M26.176,53.424c-0.019-2.908-0.922-5.498-2.594-7.896
			c-1.306-1.871-2.993-2.612-5.205-2.491c-1.587,0.087-2.871,0.683-3.642,2.078c-0.924,1.666-1.924,3.309-2.071,5.306
			c-0.122,1.683-0.36,3.356-0.573,5.03c-0.114,0.89-0.295,1.768-0.416,2.652c-0.103,0.77-0.225,1.544-0.231,2.315
			c-0.01,1.237,0.109,2.476,0.095,3.714c-0.043,4.302,0.543,8.541,1.267,12.764c0.149,0.868,0.479,1.755,0.928,2.516
			c1.561,2.646,5.643,4.475,8.882,0.994c0.534-0.576,1.102-1.185,1.412-1.885c0.775-1.749,1.5-3.537,1.612-5.488
			c0.248-4.388,0.488-8.774,0.732-13.164c-0.064-0.004-0.13-0.007-0.194-0.009C26.178,57.715,26.188,55.569,26.176,53.424z
			 M16.325,55.006c0.409-0.792,0.804-1.596,1.267-2.357c0.409-0.672,0.465-1.198-0.248-1.715c-0.164-0.118-0.217-0.74-0.112-0.811
			c0.341-0.221,0.823-0.463,1.17-0.378c0.374,0.095,0.808,0.493,0.944,0.859c0.308,0.833,0.492,1.72,0.631,2.599
			c0.043,0.276-0.143,0.748-0.368,0.876c-0.969,0.55-1.99,1.003-2.979,1.486c-0.109-0.104-0.211-0.163-0.258-0.252
			S16.286,55.082,16.325,55.006z M20.256,73.62c-0.292,0.96-0.674,1.902-1.128,2.795c-0.182,0.357-0.63,0.718-1.019,0.806
			c-0.786,0.176-0.713-0.678-1.009-1.078c-0.194-0.263-0.325-0.602-0.393-0.927c-0.147-0.684-0.107-1.343,0.475-1.855
			c0.678-0.594,1.41-1.144,1.993-1.817c0.228-0.262,0.271-0.895,0.112-1.219c-0.157-0.325-0.655-0.52-1.04-0.683
			c-0.167-0.07-0.428,0.072-0.645,0.122c-1.472,0.335-1.835,0.104-1.995-1.176c-0.134-1.098,0.159-1.973,1.023-2.702
			c0.687-0.577,1.314-1.233,1.892-1.918c0.161-0.192,0.178-0.7,0.033-0.899c-0.151-0.211-0.587-0.33-0.876-0.297
			c-0.543,0.065-1.066,0.295-1.61,0.388c-0.099,0.017-0.275-0.291-0.375-0.469c-0.045-0.081-0.026-0.233,0.021-0.325
			c0.862-1.653,2.23-2.79,3.824-3.677c0.112-0.06,0.498,0.1,0.525,0.211c0.279,1.194,0.618,2.394,0.73,3.606
			c0.124,1.344,0.029,2.706,0.029,4.062C20.829,68.935,20.953,71.318,20.256,73.62z M108.367,66.411
			c0-1.015,0.081-2.038-0.014-3.043c-0.335-3.586-0.701-7.17-1.114-10.748c-0.244-2.121-0.536-4.243-0.925-6.344
			c-0.345-1.858-1.556-2.962-3.431-3.262c-0.887-0.143-1.831-0.044-2.683-0.289c-1.795-0.517-3.074,0.271-4.2,1.47
			c-0.951,1.008-1.392,2.279-1.685,3.629c-0.651,3.004-0.587,6.051-0.674,9.091c-0.115,3.944-0.296,7.886-0.442,11.829
			c-0.068,1.819,0.22,3.611,0.771,5.325c0.484,1.507,1.327,2.838,2.502,3.968c2.011,1.936,6.539,2.654,9.113-0.413
			c1.111-1.327,1.953-2.794,2.215-4.493c0.346-2.221,0.527-4.467,0.779-6.701C108.51,66.424,108.439,66.417,108.367,66.411z
			 M100.714,48.102c0.052-0.148,0.353-0.298,0.541-0.3c0.183,0,0.461,0.149,0.531,0.306c0.229,0.507,0.435,1.038,0.552,1.58
			c0.577,2.653,0.395,2.98-2.127,3.995c-0.193,0.08-0.545,0.167-0.626,0.076c-0.194-0.224-0.274-0.548-0.413-0.855
			C99.688,51.278,100.18,49.683,100.714,48.102z M103.099,72.281c-0.13,0.726-0.645,1.399-1.066,2.044
			c-0.274,0.418-0.707,0.461-1.147,0.114c-0.436-0.344-0.911-0.637-1.361-0.964c-0.465-0.339-0.424-0.655,0.152-1.302
			c0.715-0.809,0.794-1.23-0.019-1.549c-1.22-0.479-1.427-1.281-1.304-2.383c0.037-0.337,0.047-0.678,0.018-1.015
			c-0.101-1.253,0.292-2.156,1.547-2.667c0.715-0.291,1.366-0.774,1.988-1.25c0.478-0.368,0.587-0.947,0.426-1.529
			c-0.168-0.616-0.903-1.106-1.566-1.034c-0.331,0.035-0.649,0.17-0.974,0.259c-0.409,0.111-0.827,0.411-1.192-0.107
			c-0.268-0.381-0.121-1.218,0.324-1.494c1.05-0.656,2.11-1.29,3.175-1.923c0.444-0.263,0.989-0.054,1.044,0.405
			c0.299,2.562,0.584,5.128,0.878,7.734C103.725,67.846,103.494,70.078,103.099,72.281z M74.69,21.393
			c-1.493-0.685-3.45,0.039-3.905,1.572c-0.485,1.635-0.514,3.322,0.336,4.909c0.578,1.079,1.374,1.573,2.42,1.472
			c1.077-0.104,2.197-1.013,2.408-2.053c0.13-0.657,0.128-1.339,0.186-1.998c-0.084-0.799-0.139-1.586-0.258-2.361
			C75.766,22.221,75.331,21.688,74.69,21.393z M50.685,21.595c-0.812-0.147-2.073,0.537-2.487,1.438
			c-0.273,0.598-0.486,1.29-0.469,1.933c0.023,1.009,0.229,2.018,0.424,3.012c0.176,0.893,1.348,1.767,2.255,1.771
			c1.04,0.002,2.262-1.005,2.41-2.03c0.081-0.556,0.079-1.124,0.135-2.018c-0.089-0.572-0.143-1.485-0.393-2.34
			C52.294,22.461,51.677,21.774,50.685,21.595z"/>
	</g>
</g>
</svg>
