<?xml version="1.0" encoding="utf-8"?>
<!-- Generator: Adobe Illustrator 16.0.0, SVG Export Plug-In . SVG Version: 6.00 Build 0)  -->
<!DOCTYPE svg PUBLIC "-//W3C//DTD SVG 1.1//EN" "http://www.w3.org/Graphics/SVG/1.1/DTD/svg11.dtd">
<svg version="1.1" id="Layer_1" xmlns="http://www.w3.org/2000/svg" xmlns:xlink="http://www.w3.org/1999/xlink" x="0px" y="0px"
	 width="120px" height="120px" viewBox="0 0 120 120" style="enable-background:new 0 0 120 120;" xml:space="preserve">
<g id="windows_1">
	<g>
		<path style="fill-rule:evenodd;clip-rule:evenodd;" d="M106.916,13.635c-0.6-1.644-1.786-2.613-3.469-2.984
			c-0.961-0.212-1.93-0.393-2.896-0.557c-1.244-0.21-2.428-0.067-3.609,0.443c-1.346,0.58-2.737,1.078-4.14,1.518
			c-2.343,0.734-4.714,1.389-7.068,2.088c-3.536,1.057-7.019,2.331-10.608,3.139c-7.07,1.594-14.166,3.113-21.312,4.329
			c-7.023,1.196-14.137,1.841-21.167,3.059c-5.446,0.943-10.926,1.663-16.282,3.108c-1.506,0.406-2.719,1.035-3.766,2.135
			c-1.322,1.385-1.605,2.289-0.612,3.938c0.75,1.247,0.92,2.491,0.916,3.867c-0.019,7.025-0.009,14.051-0.009,21.076h0.117
			c0,5.669-0.011,11.34,0.008,17.008c0.006,1.969,0.033,3.938,0.148,5.901c0.146,2.456,0.368,4.908,0.603,7.354
			c0.151,1.592,0.382,3.174,0.582,4.762c0.064,0.511,0.253,0.982,0.8,1.098c3.505,0.734,6.693,2.389,10.096,3.448
			c7.334,2.283,14.814,3.49,22.438,4.032c0.614,0.043,1.267-0.016,1.833,0.174c1.787,0.604,3.632,0.572,5.47,0.704
			c3.066,0.224,6.141,0.415,9.189,0.797c5.24,0.657,10.472,1.423,15.696,2.216c1.694,0.254,3.388,0.618,5.025,1.12
			c4.458,1.37,8.891,2.803,13.669,2.02c0.458-0.073,0.962,0.137,1.445,0.212c0.732,0.112,1.459,0.259,2.193,0.326
			c2.338,0.219,3.438-0.553,4.037-2.812c0.606-2.277,0.784-4.592,0.787-6.948c0.014-13.311,0.067-26.624,0.131-39.937
			c0.005-1.349,0.16-2.696,0.252-4.045c0.343-5.035,0.832-10.064,0.994-15.105c0.205-6.282,0.074-12.571,0.22-18.855
			C108.696,19.229,107.932,16.422,106.916,13.635z M45.462,94.905c-0.039,0.728-0.997,1.188-1.688,0.801
			c-0.421-0.235-0.798-0.563-1.166-0.88c-0.62-0.536-1.308-0.644-2.058-0.367c-0.564,0.205-0.923,0.122-0.972-0.555
			c-0.036-0.486-0.03-0.989-0.153-1.455c-0.233-0.894-1.303-1.204-2.06-0.588c-0.667,0.541-1.292,1.138-1.905,1.738
			c-0.59,0.583-1.1,0.193-1.647-0.054c-0.66-0.295-0.934-0.741-0.657-1.45c0.09-0.229,0.281-0.485,0.234-0.682
			c-0.11-0.444-0.246-0.943-0.542-1.257c-0.381-0.4-0.945-0.254-1.331,0.081c-0.833,0.721-1.605,1.513-2.438,2.233
			c-0.113,0.099-0.475,0.022-0.644-0.093c-0.182-0.125-0.413-0.418-0.376-0.58c0.106-0.462,0.358-0.888,0.511-1.342
			c0.193-0.561,0.61-1.225,0.458-1.691c-0.34-1.043,0.164-1.604,0.771-2.25c0.842-0.892,1.713-1.776,2.424-2.77
			c0.404-0.566,0.591-1.328,0.736-2.027c0.151-0.736-0.559-1.488-1.299-1.462c-0.484,0.019-0.984,0.073-1.438,0.224
			c-0.46,0.153-0.953,0.362-1.294,0.691c-1.854,1.773-4.131,2.89-6.31,4.16c0.008,0.048,0.01,0.094,0.023,0.143
			c-0.073,0.013-0.148,0.021-0.221,0.034c-0.076,0.083-0.152,0.165-0.229,0.249c0.037-0.075,0.057-0.186,0.118-0.22
			c0.033-0.017,0.072-0.021,0.11-0.029c0.042-0.045,0.083-0.09,0.124-0.135c0.024-0.015,0.049-0.028,0.074-0.042
			c-0.159-0.885,0.419-1.544,0.796-2.243c0.76-1.407,1.594-2.771,2.388-4.16c0.331-0.576,0.36-1.165-0.045-1.724
			c-0.491-0.68-1.23-0.907-1.956-0.689c-0.677,0.205-1.271,0.683-1.899,1.047c-0.526,0.307-0.882,0.097-0.957-0.504
			c-0.204-1.657,0.139-3.176,1.032-4.58c0.63-0.994,0.408-1.841-0.376-2.65c-0.414-0.432-0.986-0.932-1.04-1.447
			c-0.243-2.254-0.426-3.598,2.625-3.588c0.248,0,0.494-0.008,0.74-0.019c5.895-0.306,11.786-0.621,17.681-0.914
			c4.023-0.2,3.949-0.264,3.669,3.761c-0.239,3.445-0.461,6.898-0.2,10.317c0.367,4.798,0.216,9.592,0.417,14.385
			C45.526,93.184,45.504,94.045,45.462,94.905z M45.64,35.763c-0.11,5.904-0.163,11.809-0.238,17.714
			c-0.013,0.982,0,1.969-0.061,2.951c-0.065,1.055-0.583,1.598-1.576,1.679c-3.427,0.272-6.857,0.509-10.283,0.793
			c-1.956,0.159-3.904,0.4-5.859,0.564c-0.51,0.044-1.025-0.188-1.108-0.744c-0.257-1.695-1.32-2.223-2.877-2.146
			c-0.327,0.015-0.657-0.03-0.985-0.059c-0.011,0.028-0.026,0.05-0.035,0.081c-0.034,0.003-0.067,0.004-0.101,0.007
			c-0.1,0.66-0.731,0.703-1.194,0.938c-0.332,0.17-0.666,0.178-0.735-0.258c-0.027-0.16,0.185-0.497,0.331-0.525
			c0.523-0.098,1.063-0.114,1.599-0.155c0.005-0.034,0.015-0.062,0.018-0.099c0.04,0.003,0.079,0.007,0.118,0.011
			c0.247-0.646,0.935-0.576,1.427-0.835c0.54-0.285,1.073-0.605,1.546-0.988c1.071-0.873,1.333-1.888,0.817-2.912
			c-0.673-1.344-2.003-2.024-3.325-1.623c-0.703,0.212-1.362,0.572-2.058,0.808c-0.153,0.052-0.467-0.072-0.557-0.213
			c-0.115-0.178-0.17-0.498-0.087-0.683c0.14-0.318,0.348-0.695,0.633-0.836c0.876-0.436,1.822-0.733,2.706-1.158
			c1.216-0.583,2.436-1.173,3.583-1.875c0.755-0.465,1.241-1.212,1.081-2.185c-0.18-1.101-0.941-1.722-1.92-2.025
			c-1.076-0.333-2.184-0.286-3.26,0.114c-0.914,0.342-1.83,0.686-2.761,0.977c-0.125,0.039-0.357-0.205-0.503-0.35
			c-0.032-0.032,0.056-0.26,0.142-0.318c0.601-0.413,1.215-0.807,1.827-1.204c0.821-0.535,1.708-0.991,2.45-1.62
			c1.553-1.315,1.477-2.837-0.122-4.341c-0.738-0.693-0.738-0.723,0.09-1.047c3.214-1.253,6.547-2.104,9.925-2.733
			c3.253-0.605,6.544-0.998,9.821-1.471c0.36-0.053,0.734-0.021,1.101-0.015c0.511,0.008,0.831,0.431,0.784,1.012
			C45.87,32.582,45.669,34.171,45.64,35.763z M53.073,30.925c0.132-1.666,0.829-2.203,2.674-2.469
			c6.325-0.91,12.583-2.173,18.791-3.672c4.173-1.008,8.276-2.31,12.43-3.41c3.323-0.882,6.671-1.668,10.014-2.472
			c0.471-0.113,0.975-0.104,1.465-0.124c0.463-0.021,0.966,0.486,0.928,0.938c-0.908,11.059-0.338,22.142-0.576,33.213
			c-0.023,1.104-0.018,2.213-0.073,3.318c-0.028,0.547-0.389,0.916-0.936,0.949c-0.981,0.061-1.968,0.079-2.951,0.079
			c-6.526,0.007-13.052,0.002-19.578,0.002c-0.001-0.046-0.002-0.092-0.002-0.138c-6.401,0.088-12.805,0.176-19.208,0.264
			c-0.739,0.011-1.478,0.038-2.216,0.025c-1.23-0.021-1.6-0.342-1.645-1.454c-0.036-0.862-0.024-1.727-0.031-2.587
			c-0.019-3.079,0.087-6.166-0.082-9.234C51.829,39.69,52.722,35.332,53.073,30.925z M98.778,103.683
			c-1.107,0.047-2.233,0.141-3.322,0c-2.802-0.364-5.593-0.82-8.378-1.298c-1.223-0.211-1.293-0.459-0.933-2.055
			c0.081-0.36,0.167-0.721,0.2-1.086c0.074-0.838-0.326-1.593-0.959-1.82c-0.74-0.266-1.473-0.212-2.092,0.284
			c-0.377,0.302-0.824,0.666-0.967,1.092c-0.748,2.225-2.233,2.233-4.074,1.54c-0.562-0.212-1.218-0.165-1.816-0.298
			c-1.262-0.278-1.396-0.557-1.355-2.263c0.014-0.481-0.043-0.98-0.168-1.445c-0.22-0.821-1.479-1.325-2.086-0.803
			c-0.93,0.797-1.756,1.717-2.686,2.515c-0.346,0.299-0.879,0.609-1.287,0.562c-1.209-0.14-2.404-0.435-3.592-0.72
			c-0.15-0.035-0.363-0.402-0.32-0.543c0.223-0.699,0.504-1.378,0.797-2.051c0.283-0.648,0.053-1.189-0.296-1.721
			c-0.378-0.575-1.169-0.671-1.562-0.144c-0.513,0.686-0.977,1.406-1.462,2.114c-1.367,1.98-2.303,2.302-4.62,1.539
			c-0.141-0.048-0.303-0.402-0.26-0.562c0.093-0.342,0.285-0.671,0.492-0.969c0.351-0.501,0.776-0.957,1.112-1.469
			c0.197-0.302,0.307-0.666,0.41-1.018c0.206-0.703-0.074-1.623-0.608-2.004c-0.664-0.473-1.411-0.51-2.084-0.112
			c-0.626,0.371-1.18,0.876-1.731,1.359c-0.551,0.484-1.053,1.026-1.592,1.528c-0.255,0.236-0.469,0.16-0.551-0.187
			c-0.083-0.353-0.184-0.711-0.2-1.071c-0.241-5.529-0.468-11.058-0.698-16.588c0.052-0.003,0.106-0.005,0.16-0.007
			c0-3.448-0.007-6.896,0.007-10.345c0.002-0.561,0.358-0.944,0.906-0.959c3.192-0.079,6.396-0.4,9.555,0.39
			c0.476,0.117,0.964,0.203,1.451,0.245c3.674,0.329,7.353,0.604,11.021,0.98c2.811,0.287,5.6,0.799,8.412,1.023
			c3.434,0.269,6.881,0.347,10.322,0.495c1.229,0.052,2.459,0.045,3.687,0.115c0.619,0.036,1.132,0.594,1.173,1.218
			c0.049,0.738,0.055,1.479,0.064,2.218c0.048,3.324,0.027,6.651,0.149,9.974c0.208,5.775,0.485,11.555,0.774,17.326
			c0.054,1.102,0.321,2.188,0.424,3.287C100.298,103.038,99.802,103.637,98.778,103.683z"/>
	</g>
</g>
</svg>
