<?xml version="1.0" encoding="utf-8"?>
<!-- Generator: Adobe Illustrator 16.0.0, SVG Export Plug-In . SVG Version: 6.00 Build 0)  -->
<!DOCTYPE svg PUBLIC "-//W3C//DTD SVG 1.1//EN" "http://www.w3.org/Graphics/SVG/1.1/DTD/svg11.dtd">
<svg version="1.1" id="Layer_1" xmlns="http://www.w3.org/2000/svg" xmlns:xlink="http://www.w3.org/1999/xlink" x="0px" y="0px"
	 width="120px" height="120px" viewBox="0 0 120 120" style="enable-background:new 0 0 120 120;" xml:space="preserve">
<g id="windows_2">
	<g>
		<path style="fill-rule:evenodd;clip-rule:evenodd;" d="M18.106,53.935c0.922,0.502,1.792,0.417,2.734-0.078
			c1.964-1.03,3.831-2.365,6.214-2.271c0.098,0.004,0.197-0.08,0.298-0.111c2.341-0.727,4.667-1.506,7.026-2.165
			c3.971-1.11,7.958-1.339,12.001-0.218c1.523,0.42,3.153,0.668,4.728,0.641c1.582-0.027,2.933,0.432,4.271,1.107
			c0.57,0.289,1.087,0.68,1.647,0.989c1.049,0.579,1.631,0.344,1.898-0.741c0.279-1.139,0.463-2.307,0.848-3.407
			c0.773-2.214,1.459-4.448,1.947-6.743c0.865-4.068,1.702-8.141,2.604-12.201c0.463-2.08,1.08-4.127,1.547-6.205
			c0.209-0.93,0.352-1.912,0.293-2.855c-0.084-1.311-0.564-2.582-1.787-3.232c-5.028-2.684-10.186-4.979-16.087-4.697
			c-0.641,0.03-1.284,0.004-1.926,0.004V11.8c-0.534,0-1.071-0.027-1.604,0.004c-2.124,0.125-4.243,0.02-6.363,0.562
			c-3.865,0.988-7.383,2.799-10.982,4.398c-1.884,0.837-3.209,2.439-3.682,4.594c-0.344,1.562-0.821,3.094-1.178,4.654
			c-1.494,6.549-2.965,13.105-4.447,19.66c-0.423,1.872-0.877,3.738-1.271,5.616C16.572,52.536,16.977,53.317,18.106,53.935z
			 M30.089,22.548c0.192-0.23,0.494-0.4,0.78-0.52c2.068-0.855,4.152-1.674,6.217-2.539c2.619-1.096,5.328-1.498,8.225-1.117
			c3.977-0.422,7.744,0.686,11.43,2.197c0.59,0.242,1.146,0.57,1.719,0.855c0.565,0.281,0.678,0.771,0.618,1.338
			c-0.022,0.212-0.038,0.428-0.091,0.633c-1.484,5.779-2.969,11.557-4.473,17.33c-0.116,0.448-0.508,0.703-0.981,0.607
			c-0.52-0.105-1.035-0.264-1.526-0.465c-1.816-0.746-3.706-0.941-5.648-0.857c-0.959,0.041-1.925,0.064-2.883,0.019
			c-2.484-0.12-4.881,0.396-7.273,0.944c-0.52,0.117-1.027,0.286-1.549,0.391c-0.921,0.182-0.919,0.158-1.547-1.156
			c-0.133-0.281-0.331-0.553-0.56-0.764c-0.474-0.438-0.501-0.877-0.152-1.396c0.593-0.885,1.216-1.754,1.743-2.678
			c0.576-1.006,0.574-1.582-0.318-2.248c-0.898-0.67-1.234-1.357-1.01-2.43c0.084-0.395,0.004-0.858-0.123-1.25
			c-0.631-1.951-0.66-1.951-0.276-3.364c0.241-0.886-0.226-1.692-1.128-1.966c-0.301-0.092-0.662-0.012-0.943-0.133
			c-0.244-0.104-0.555-0.361-0.582-0.582C29.723,23.126,29.898,22.776,30.089,22.548z M26.646,43.371
			c0.065-0.009,0.159,0.114,0.228,0.188c0.376,0.396,0.148,0.74-0.133,1.035c-0.131,0.137-0.355,0.184-0.626,0.312
			c-0.092-0.262-0.259-0.514-0.25-0.76C25.883,43.692,26.199,43.433,26.646,43.371z M99.364,61.196
			c-0.423-0.012-0.869-0.014-1.267,0.106c-2.962,0.899-5.932,1.782-8.635,3.354c-1.387,0.805-2.779,1.604-4.189,2.367
			c-3.795,2.056-7.631,2.688-11.564,0.316c-0.633-0.383-1.37-0.59-2.059-0.88c-1.478-0.62-2.896-1.325-4.254-2.205
			c-1.274-0.827-2.42-1.743-3.41-2.883c-0.397-0.458-0.857-0.425-1.425-0.201c-0.874,0.347-1.442,0.845-1.585,1.815
			c-0.094,0.631-0.32,1.24-0.455,1.867c-0.967,4.48-1.752,9.012-2.93,13.438c-1.65,6.195-2.704,12.517-4.204,18.74
			c-0.299,1.242-0.456,2.52-0.694,3.777c-0.18,0.942,0.149,1.648,0.885,2.246c4.023,3.266,8.451,5.414,13.809,5.209
			c2.656-0.26,5.316-0.484,7.965-0.805c0.725-0.088,1.441-0.408,2.114-0.723c2.642-1.227,5.026-2.844,7.067-4.932
			c1.348-1.376,2.658-2.789,3.971-4.198c0.523-0.562,1.061-1.04,1.902-1.022c1.332,0.027,2.152-0.828,2.888-1.775
			c0.673-0.865,0.954-1.871,1.138-2.953c0.445-2.629,0.75-5.316,1.539-7.846c1.912-6.127,3.107-12.424,4.683-18.629
			c0.207-0.818,0.224-1.693,0.249-2.545C100.934,61.8,100.371,61.222,99.364,61.196z M91.621,75.876
			c-0.578,2.82-1.218,5.631-1.67,8.471c-0.514,3.221-1.985,5.872-4.457,7.918c-3.059,2.535-6.389,4.684-10.08,6.193
			c-2.911,1.191-5.906,1.895-9.055,0.922c-2.591,0.145-4.365-1.463-6.203-2.916c-0.125-0.1-0.179-0.387-0.145-0.562
			c0.055-0.275,0.252-0.277,0.477-0.062c0.152,0.146,0.318,0.291,0.504,0.391c0.145,0.077,0.326,0.104,0.492,0.105
			c0.042,0.002,0.143-0.188,0.123-0.266c-0.106-0.412-0.242-0.816-0.448-1.48c-0.206-1.117-0.274-2.477,0.198-3.85
			c0.558-1.611,1.012-3.244,1.849-4.766c1.194-2.168,1.698-4.601,2.302-6.979c0.525-2.07,0.937-4.168,1.406-6.252
			c0.084-0.373,0.641-0.709,0.983-0.582c1.3,0.484,2.618,0.932,3.884,1.496c1.795,0.799,3.661,1.073,5.607,1.17
			c4.346,0.213,8.494-0.623,12.547-2.103c0.594-0.217,1.201-0.423,1.82-0.522c0.164-0.025,0.592,0.397,0.564,0.555
			C92.137,73.806,91.834,74.832,91.621,75.876z M54.189,69.278c0.52-2.064,1.15-4.102,1.708-6.158c0.278-1.027,0.425-2.096,0.77-3.1
			c0.28-0.814,0.093-1.425-0.374-2.071c-0.449-0.62-0.953-1.134-1.678-1.427c-0.588-0.238-1.283-0.406-1.698-0.832
			c-0.987-1.014-2.241-1.156-3.497-1.354c-0.631-0.099-1.332,0.022-1.902-0.204c-2.379-0.941-4.848-0.6-7.29-0.52
			c-1.175,0-2.355-0.078-3.521,0.021c-1.159,0.1-2.34,0.256-3.443,0.602c-2.745,0.859-5.468,1.793-7.905,3.398
			c-0.703,0.463-1.48,0.963-2.283,1.101c-2.113,0.362-3.697,1.556-5.223,2.911c-1.034,0.922-2.057,1.859-3.126,2.738
			c-0.709,0.582-0.994,1.299-1.177,2.18c-0.432,2.084-0.928,4.158-1.512,6.205c-0.994,3.483-2.109,6.938-2.704,10.518
			c-0.487,2.941-1.087,5.875-0.983,8.891c0.053,1.584,0.749,2.617,2.25,3.121c0.402,0.135,0.798,0.299,1.189,0.465
			c1.473,0.623,2.715,0.238,3.766-0.885c0.287-0.309,0.44-0.746,0.74-1.034c1.944-1.861,4.002-3.483,6.842-3.793
			c2.116-0.229,4.203-0.718,6.316-0.979c3.377-0.417,6.615-0.126,9.379,2.183c0.654,0.545,1.381,1.002,2.051,1.531
			c1.239,0.975,2.659,1.299,4.202,1.257c0.958-0.026,1.66-0.495,2.04-1.313c0.4-0.865,0.699-1.787,0.953-2.709
			c0.453-1.643,0.904-3.291,1.229-4.963c0.228-1.17,0.627-2.227,1.158-3.292c0.998-1.999,1.959-4.017,2.354-6.268
			C53.184,73.409,53.674,71.337,54.189,69.278z M18.936,84.221c-0.027,0.05-0.194,0.051-0.284,0.026
			c-0.088-0.022-0.233-0.115-0.228-0.16c0.05-0.369,0.094-0.746,0.214-1.094c0.053-0.152,0.284-0.24,0.435-0.358
			c0.083,0.175,0.166,0.351,0.318,0.671C19.271,83.552,19.118,83.895,18.936,84.221z M50.412,63.815
			c-0.681,2.242-1.357,4.486-2.034,6.729c-0.771,2.55-1.485,5.078-1.53,7.807c-0.025,1.658-0.706,3.313-1.144,4.957
			c-0.28,1.053-0.48,1.089-1.601,0.605c-1.858-0.804-3.721-1.596-5.589-2.377c-2.12-0.887-4.325-1.105-6.588-0.763
			c-2.208,0.335-4.411,0.687-6.618,1.03c-0.477,0.074-0.672-0.203-0.519-0.787c0.107-0.41,0.314-0.822,0.303-1.227
			c-0.011-0.393-0.133-0.973-0.403-1.131c-0.922-0.535-1.268-1.027-0.957-2.227c0.416-1.609-0.426-2.184-2.225-1.84
			c-0.247,0.048-0.5,0.07-0.752,0.095c-0.035,0.037-0.069,0.073-0.104,0.11c-0.079,0.038-0.161,0.068-0.233,0.115l-0.107,0.158
			c0.029-0.051,0.049-0.119,0.092-0.15c0.004-0.003,0.011-0.005,0.015-0.008l0.139-0.205c0.065-0.008,0.131-0.014,0.197-0.021
			c1.057-1.121,2.115-2.241,3.168-3.366c0.654-0.703,1.371-1.362,1.924-2.139c0.352-0.494,0.527-1.152,0.648-1.763
			c0.154-0.79-0.368-1.461-1.174-1.616c-0.417-0.078-0.854-0.047-1.274-0.109c-0.147-0.021-0.275-0.176-0.413-0.27
			c0.066-0.08,0.117-0.186,0.201-0.24c1.333-0.879,2.656-1.774,4.012-2.617c0.631-0.394,1.352-0.643,1.986-1.031
			c4.363-2.672,8.967-2.912,13.86-1.734c2.353,0.566,4.38,1.588,6.329,2.899C50.391,62.948,50.555,63.343,50.412,63.815z
			 M111.094,20.272c-0.63-1.43-1.866-1.883-3.072-0.975c-2.753,2.076-5.98,3.297-8.906,5.063c-0.889,0.536-1.979,0.76-2.996,1.062
			c-1.943,0.578-3.924,1.039-5.846,1.678c-2.164,0.719-4.357,0.963-6.627,0.917c-1.766-0.036-3.383-0.448-4.853-1.399
			c-1.522-0.984-3.149-1.811-4.423-3.166c-0.322-0.344-0.924-0.6-1.398-0.6c-1.412,0.003-2.455,0.801-2.848,2.109
			c-0.645,2.145-1.223,4.288-1.35,6.562c-0.131,2.338-0.441,4.684-0.889,6.984c-0.896,4.607-1.969,9.182-2.904,13.781
			c-0.207,1.011-0.6,1.812-1.436,2.393c-0.412,0.287-0.621,0.666-0.111,0.959c2.393,1.373,3.99,3.928,6.86,4.596
			c0.288,0.066,0.517,0.371,0.788,0.539c1.627,1.019,3.266,2.02,4.888,3.046c0.946,0.599,1.972,0.788,3.112,0.866
			c1.02-0.27,2.098-0.412,3.051-0.834c4.388-1.943,8.893-3.611,13.127-5.916c2.925-1.592,5.617-3.496,8.305-5.428
			c0.629-0.451,1.021-1.035,1.221-1.812c0.582-2.274,1.312-4.513,1.846-6.797c1.088-4.678,2.125-9.362,3.54-13.959
			c0.563-1.83,0.931-3.723,1.356-5.596C111.847,22.948,111.674,21.583,111.094,20.272z M100.793,32.214
			c-0.85,3.744-1.67,7.5-2.635,11.215c-0.414,1.588-0.491,3.16-0.459,4.764c0.01,0.559-0.082,1.092-0.549,1.434
			c-2.932,2.143-5.646,4.578-8.924,6.243c-1.389,0.706-2.751,1.128-4.3,0.937c-0.421-0.053-0.854-0.008-1.283-0.008v-0.021
			c-0.428,0-0.856-0.019-1.284,0.003c-1.523,0.078-2.904-0.254-4.324-0.904c-1.656-0.76-3.316-1.402-4.705-2.652
			c-1.723-1.552-2.529-3.211-1.94-5.652c1.101-4.561,1.95-9.183,2.854-13.789c0.259-1.321,0.519-1.643,1.856-0.672
			c0.516,0.375,1.084,0.686,1.649,0.986c1.719,0.913,3.53,1.516,5.501,1.533c1.605,0.014,3.211,0.062,4.814,0.018
			c2.727-0.077,5.225-1.062,7.676-2.13c1.664-0.724,3.25-1.628,4.894-2.401c0.317-0.149,0.771-0.643,1.085-0.117
			C100.905,31.311,100.879,31.825,100.793,32.214z"/>
	</g>
</g>
</svg>
