<?xml version="1.0" encoding="utf-8"?>
<!-- Generator: Adobe Illustrator 16.0.0, SVG Export Plug-In . SVG Version: 6.00 Build 0)  -->
<!DOCTYPE svg PUBLIC "-//W3C//DTD SVG 1.1//EN" "http://www.w3.org/Graphics/SVG/1.1/DTD/svg11.dtd">
<svg version="1.1" id="Layer_1" xmlns="http://www.w3.org/2000/svg" xmlns:xlink="http://www.w3.org/1999/xlink" x="0px" y="0px"
	 width="120px" height="120px" viewBox="0 0 120 120" style="enable-background:new 0 0 120 120;" xml:space="preserve">
<g id="blackberry">
	<g>
		<path style="fill-rule:evenodd;clip-rule:evenodd;" d="M52.536,42.497c0.752,0.629,1.537,1.049,2.627,0.809
			c0.92-0.201,1.957-0.365,2.846-0.148c3.469,0.84,7.061-0.066,10.51,0.844c0.195,0.051,0.422-0.012,0.631-0.039
			c4.605-0.617,8.199-2.826,10.789-6.711c1.945-2.918,1.525-5.859,0.248-8.834c-0.391-0.906-1.113-1.549-1.932-2.09
			c-1.453-0.965-3.076-1.549-4.76-1.805c-3.053-0.463-6.09-1.207-9.564-0.723c-0.939,0-2.229-0.076-3.502,0.021
			c-1.271,0.096-2.562,0.25-3.785,0.59c-1.82,0.506-3.336,1.453-3.717,3.541c-0.096,0.521-0.291,1.025-0.391,1.547
			c-0.541,2.826-0.982,5.674-1.627,8.475C50.464,39.913,51.122,41.312,52.536,42.497z M62.577,28.347
			c0.164-0.016,0.344,0.148,0.516,0.232l-0.562,0.193l-0.551-0.141C62.179,28.528,62.372,28.364,62.577,28.347z M59.534,35.975
			c0.017-0.031,0.034-0.063,0.051-0.095c0.022,0.006,0.047,0.007,0.07,0.012c-0.033-0.611,0.457-0.886,0.842-1.195
			c1.336-1.068,2.674-2.135,4.055-3.146c0.928-0.68,1.158-1.5,0.695-2.508c-0.254-0.557-0.037-0.764,0.473-0.783
			c2.926-0.113,5.732,0.541,8.461,1.482c1.916,0.662,2.586,2.594,1.736,4.457c-0.643,1.412-1.75,2.412-2.996,3.264
			c-0.123,0.086-0.59-0.129-0.74-0.324c-0.256-0.328-0.34-0.783-0.574-1.133c-0.404-0.6-1.107-0.734-1.676-0.332
			c-0.611,0.432-1.18,0.922-1.787,1.357c-0.385,0.277-0.83,0.287-1.143-0.092c-0.764-0.926-1.633-0.805-2.576-0.357
			c-0.387,0.184-0.783,0.371-1.195,0.455c-0.266,0.055-0.754,0.016-0.826-0.135c-0.606-1.257-1.793-0.801-2.748-1.01
			c0.001,0.018-0.008,0.03-0.006,0.049C59.625,35.963,59.582,35.971,59.534,35.975c-0.06,0.112-0.12,0.224-0.18,0.337
			C59.077,35.932,59.351,35.99,59.534,35.975z M109.03,45.415c-0.625-3.43-2.566-5.822-5.963-6.842
			c-1.422-0.428-2.875-0.785-4.402-0.736c-1.705,0.053-3.416,0.012-5.125,0.012v-0.143c-2.242,0.062-4.484,0.08-6.725,0.199
			c-2.35,0.125-4.064,1.125-4.516,3.648c-0.057,0.312-0.115,0.631-0.213,0.936c-1.164,3.668-1.643,7.484-2.412,11.238
			c-0.213,1.035-0.234,2.125-0.225,3.189c0.01,1.404,0.949,2.506,2.332,2.584c1.48,0.088,3.002,0.123,4.459-0.115
			c2.631-0.43,5.26-0.787,7.916-1.041c4.697-0.449,8.838-2.213,12.381-5.406C108.839,50.868,109.562,48.341,109.03,45.415z
			 M103.456,49.005c-1.695,1.713-3.676,2.859-5.967,3.523c-0.752,0.219-1.098-0.287-1.568-0.752
			c-0.736-0.727-1.822-0.783-2.215-0.037c-0.832,1.592-2.285,1.723-3.738,1.961c-0.16,0.027-0.361-0.137-0.527-0.24
			c-0.023-0.014,0.041-0.199,0.09-0.291c0.152-0.279,0.293-0.57,0.484-0.82c0.262-0.336,0.615-0.604,0.84-0.959
			c0.275-0.432,0.596-0.914,0.631-1.395c0.025-0.334-0.439-0.682-0.607-1.057c-0.109-0.244-0.199-0.621-0.086-0.814
			c0.373-0.641,0.877-1.203,1.258-1.84c0.35-0.578,0.377-1.225-0.031-1.803c-0.404-0.574-0.949-0.832-1.654-0.551
			c-0.1,0.037-0.225,0.125-0.297,0.094c-0.258-0.107-0.709-0.268-0.701-0.389c0.018-0.385,0.131-0.824,0.363-1.117
			c0.154-0.193,0.58-0.225,0.885-0.23c1.277-0.023,2.555-0.012,3.832-0.012c0.002-0.027,0.004-0.057,0.006-0.084
			c1.801,0.137,3.605,0.23,5.398,0.428c0.729,0.08,1.439,0.363,2.15,0.578C104.13,43.841,105.147,47.298,103.456,49.005z
			 M65.237,77.575c-1.199-0.424-2.398-0.904-3.641-1.141c-1.982-0.377-4.027-0.443-5.994-0.879c-2.752-0.611-5.51-0.521-8.279-0.451
			c-2.496,0.062-4.219,1.338-5.207,3.586c-0.426,0.969-0.736,1.996-1.045,3.014c-1.072,3.553-1.59,7.266-3.191,10.672
			c-0.594,1.264,0.273,2.877,1.662,3.328c0.9,0.293,1.857,0.494,2.801,0.557c1.381,0.094,2.771,0.023,4.111,0.023
			c4.949,0.4,9.553-0.869,14.062-2.582c2.422-0.92,4.572-2.289,6.332-4.217c2.178-2.389,2.572-7.189,0.773-9.846
			C67.024,78.757,66.288,77.946,65.237,77.575z M63.331,85.735c-0.549,0.758-1.301,1.426-2.086,1.939
			c-2.35,1.537-4.994,2.348-7.738,2.824c-1.15,0.199-2.318,0.297-3.48,0.406c-0.176,0.016-0.441-0.111-0.535-0.256
			c-0.09-0.139-0.078-0.42,0.004-0.582c0.283-0.568,0.66-1.094,0.918-1.674c0.398-0.889-0.027-1.582-1.084-1.832
			c-0.305-0.072-0.717,0.035-0.922-0.131c-0.387-0.314-0.738-0.73-0.955-1.178c-0.217-0.445,0.156-0.797,0.506-1.039
			c0.957-0.668,1.947-1.297,2.9-1.971c0.484-0.344,0.336-1.014-0.244-1.242c-0.475-0.184-0.951-0.361-1.418-0.564
			c-0.072-0.031-0.156-0.211-0.127-0.27c0.072-0.145,0.189-0.279,0.32-0.375c0.072-0.053,0.207-0.02,0.143-0.016
			c3.227,0.391,6.289,0.74,9.346,1.143c0.943,0.123,1.877,0.359,2.805,0.592C63.538,81.972,64.446,84.192,63.331,85.735z
			 M17.876,42.897c0.742,0.074,1.492,0.1,2.24,0.104c1.818,0.016,3.637,0.006,5.455,0.006v-0.014c1.82,0,3.643-0.076,5.457,0.016
			c3.383,0.178,6.348-0.902,8.898-3.006c4.412-3.641,5.107-7.205,3.172-11.254c-0.092-0.191-0.164-0.393-0.232-0.598
			c-0.635-1.906-2.055-3.018-3.91-3.451c-1.965-0.461-3.98-0.893-5.986-0.957c-3.738-0.121-7.486,0.047-11.23,0.059
			c-0.914,0.002-1.357,0.535-1.666,1.244c-0.211,0.486-0.338,1.012-0.459,1.533c-0.99,4.258-1.988,8.516-2.93,12.785
			c-0.156,0.713-0.086,1.488-0.037,2.23C16.688,42.245,17.259,42.833,17.876,42.897z M27.237,29.009
			c1.98-0.205,3.84-1.334,5.77-0.742c0.891-0.041,1.646-0.18,2.371-0.082c0.824,0.107,1.678,0.314,2.416,0.682
			c1.32,0.656,1.391,2.523,0.17,3.336c-2.119,1.408-4.203,2.896-6.773,3.41c-0.619,0.123-1.246,0.221-1.873,0.305
			c-0.205,0.027-0.473,0.049-0.621-0.055c-0.244-0.17-0.559-0.428-0.588-0.68c-0.135-1.158-2.061-0.799-1.842-2.303
			c0.121-0.814-0.135-1.678-0.154-2.52C26.099,29.702,26.577,29.075,27.237,29.009z M40.243,57.542
			c0.363-4.201-3.674-8.264-7.311-8.15c-4.053,0.125-8.111,0.041-12.164,0.148c-1.375,0.035-2.744,0.348-4.109,0.576
			c-1.145,0.191-1.947,0.895-2.361,1.943c-0.352,0.887-0.648,1.816-0.799,2.756c-0.391,2.428-1.023,4.781-1.787,7.117
			c-0.396,1.207-0.668,2.469-0.865,3.725c-0.072,0.471,0.064,1.18,0.385,1.465c1.031,0.922,2.16,1.779,3.709,1.566
			c1.797-0.199,3.594-0.451,5.396-0.582c1.809-0.131,3.645-0.002,5.434-0.238c2.422-0.316,4.836-0.744,7.115-1.73
			c2.207-0.957,4.072-2.336,5.508-4.246C39.356,60.61,40.101,59.204,40.243,57.542z M34.95,58.288
			c-1.043,1.855-2.656,3.059-4.633,3.713c-1.814,0.602-3.682,1.037-5.629,1.008c-1.359-0.02-1.361-0.014-2.02-1.504
			c-0.211-0.477-0.16-0.799,0.219-1.09c0.336-0.258,0.738-0.439,1.031-0.734c0.4-0.4,0.52-0.939,0.309-1.473
			c-0.189-0.479-0.473-0.857-0.436-1.467c0.076-1.285-0.158-1.473-1.32-1.582c-0.52-0.049-1.043-0.061-1.562-0.107
			c-0.059-0.004-0.158-0.131-0.15-0.189c0.016-0.096,0.078-0.217,0.158-0.27c0.738-0.48,1.564-0.635,2.432-0.635
			c1.387,0.002,2.77,0.002,4.156,0.002v0.002c1.279,0,2.559-0.045,3.834,0.016c0.732,0.037,1.49,0.143,2.176,0.389
			C35.173,54.96,35.808,56.759,34.95,58.288z M102.688,71.386c-0.193-2.838-1.971-5.135-4.682-5.834
			c-1.332-0.344-2.732-0.492-4.109-0.574c-1.6-0.098-3.207-0.023-4.812-0.023v-0.062c-2.139,0-4.287-0.141-6.412,0.033
			c-3.178,0.26-4.809,1.811-5.504,4.867c-0.07,0.312-0.102,0.635-0.152,0.949c-0.408,2.527-0.842,5.053-1.217,7.584
			c-0.236,1.582-0.453,3.172-0.553,4.768c-0.109,1.77,0.531,2.547,2.174,3.043c1.68,0.506,3.373,0.461,5.082,0.234
			c0.846-0.111,1.688-0.281,2.537-0.342c2.678-0.184,5.289-0.768,7.854-1.479c3.295-0.91,5.965-2.871,8.033-5.574
			c1.188-1.551,1.977-3.299,1.818-5.346C102.687,72.884,102.739,72.132,102.688,71.386z M95.931,77.628
			c-1.361,1.057-2.809,1.936-4.484,2.414c-1.162,0.334-2.252,0.504-3.34-0.328c-0.521-0.4-1.41-0.396-1.734,0.205
			c-0.9,1.652-2.346,1.646-3.877,1.547c-0.199-0.014-0.457-0.078-0.572-0.217c-0.084-0.098-0.035-0.404,0.062-0.537
			c0.689-0.949,1.408-1.881,2.121-2.812c0.455-0.592,0.967-1.146,1.363-1.777c0.773-1.232,0.594-1.982-0.736-2.889
			c-0.42-0.287-0.643-0.48-0.34-0.953c0.232-0.359,0.623-0.707,0.66-1.086c0.176-1.801,1.182-2.311,2.83-2.031
			c0.521,0.088,1.066,0.053,1.602,0.062c0.428,0.01,0.855,0.002,1.283,0.002v0.125c1.496,0,2.998-0.045,4.492,0.023
			c0.619,0.029,1.254,0.234,1.828,0.484c0.607,0.266,0.996,0.795,1.102,1.479C98.581,73.843,98.022,76.001,95.931,77.628z
			 M66.915,50.526c-2.426-0.732-4.943-1.477-7.539-0.947c-2.117,0.434-4.252,0.355-6.381,0.469
			c-1.064,0.057-2.137-0.072-3.203-0.031c-1.137,0.043-1.709,0.596-1.857,1.785c-0.477,3.809-0.967,7.611-1.664,11.389
			c-0.391,2.113-0.186,2.553,1.137,4.797c0.475,0.809,1.107,1.297,2.043,1.314c1.281,0.023,2.564,0.006,3.082,0.006
			c4.877,0.105,9.611-0.809,12.699-1.973c1.822-0.686,3.451-1.631,4.879-2.982c1.746-1.654,2.449-3.588,2.447-6.006
			C72.556,54.917,69.972,51.446,66.915,50.526z M66.563,61.265c-1.418,1.174-3.068,1.881-4.875,2.207
			c-0.521,0.092-1.057,0.107-1.586,0.148c-0.572,0.045-1.061-0.074-1.217-0.721c-0.329-1.36-1.374-1.354-2.428-1.346
			c-0.002,0.027-0.002,0.055-0.005,0.082c-0.225,0.219-0.451,0.438-0.676,0.656c-0.217,0.213-0.432,0.426-0.648,0.639
			c-0.029,0.025-0.056,0.052-0.085,0.076c0.002,0.14,0.005,0.28-0.03,0.41c-0.037,0.139-0.168,0.254-0.258,0.379
			c-0.045-0.072-0.121-0.141-0.129-0.217c-0.008-0.09,0.02-0.205,0.076-0.27c0.102-0.11,0.223-0.205,0.34-0.303
			c-0.001-0.056-0.002-0.111,0-0.166c0.215-0.215,0.43-0.428,0.645-0.643c0.227-0.215,0.455-0.43,0.682-0.645h0.089
			c0.025-0.291,0.012-0.595,0.116-0.852c0.217-0.541,0.26-1.062-0.17-1.467c-0.615-0.578-1.369-0.992-0.83-2.1
			c0.129-0.26-0.385-0.906-0.703-1.293c-0.467-0.566-0.475-1.174-0.281-1.791c0.082-0.262,0.342-0.533,0.592-0.658
			c0.268-0.137,0.619-0.139,0.934-0.141c1.701-0.016,3.402-0.014,5.102-0.018c2.854-0.01,4.762,1.613,6.271,3.777
			C68.415,58.343,67.974,60.097,66.563,61.265z"/>
	</g>
</g>
</svg>
