<?xml version="1.0" encoding="utf-8"?>
<!-- Generator: Adobe Illustrator 16.0.0, SVG Export Plug-In . SVG Version: 6.00 Build 0)  -->
<!DOCTYPE svg PUBLIC "-//W3C//DTD SVG 1.1//EN" "http://www.w3.org/Graphics/SVG/1.1/DTD/svg11.dtd">
<svg version="1.1" id="Layer_1" xmlns="http://www.w3.org/2000/svg" xmlns:xlink="http://www.w3.org/1999/xlink" x="0px" y="0px"
	 width="120px" height="120px" viewBox="0 0 120 120" style="enable-background:new 0 0 120 120;" xml:space="preserve">
<g id="linux">
	<g>
		<path style="fill-rule:evenodd;clip-rule:evenodd;" d="M106.939,96.778c-0.529-1.611-1.352-2.891-2.855-3.67
			c-1.326-0.688-2.678-1.328-4.035-1.951c-0.568-0.261-1.369-0.26-1.73-0.67c-0.518-0.59-0.137-1.434,0.041-2.152
			c0.15-0.621,0.316-1.252,0.584-1.828c0.592-1.281,0.49-2.564-0.18-3.703c-1.029-1.752-1.131-3.629-1.164-5.566
			c-0.025-1.492-0.016-3.014-0.287-4.473c-0.838-4.516-1.906-8.99-3.762-13.209c-1.844-4.197-3.514-8.521-6.904-11.828
			c-0.225-0.221-0.412-0.498-0.562-0.778c-1.404-2.638-2.863-5.251-4.174-7.935c-1.039-2.127-1.4-4.448-1.701-6.798
			c-0.389-3.063-0.711-6.138-1.348-9.175c-0.904-4.31-3.268-7.846-5.715-11.354c-0.547-0.785-1.23-1.479-1.893-2.176
			c-1.049-1.104-2.309-2.063-3.748-2.378c-2.482-0.543-5.012-1.173-7.594-0.399c-1.84,0.55-3.732,0.941-5.529,1.6
			c-3.236,1.184-5.746,3.42-7.406,6.354c-1.736,3.074-2.871,6.43-2.773,10.078c0.088,3.315,0.088,6.633,0.172,9.947
			c0.02,0.846,0.156,1.699,0.334,2.527c0.795,3.723,0.521,7.215-2.027,10.279c-0.613,0.738-1.131,1.555-1.719,2.314
			c-0.785,1.016-1.656,1.969-2.383,3.022c-1.641,2.38-3.152,4.835-3.887,7.679c-0.613,2.375-1.336,4.729-1.842,7.125
			c-0.303,1.432-0.93,2.531-1.938,3.578c-1.023,1.067-1.857,2.335-2.678,3.578c-0.613,0.928-0.918,2.148-0.332,3.056
			c1.031,1.604,0.34,2.673-0.535,3.972c-0.639,0.947-1.096,2.119-1.285,3.25c-0.348,2.061-1.758,2.529-3.443,2.6
			c-0.941,0.038-1.902-0.178-2.842-0.344c-3.393-0.6-4.125,0.031-3.643,3.441c0.268,1.896,0.59,3.806,1.469,5.555
			c0.297,0.592,0.523,1.285,0.172,1.846c-0.957,1.525-1.389,3.356-2.834,4.611c-0.711,0.617-1.279,1.437-1.787,2.243
			c-0.6,0.95-0.176,2.257,0.867,2.702c0.672,0.287,1.428,0.533,2.145,0.535c2.924,0.004,5.746,0.588,8.5,1.445
			c5.006,1.559,10.188,2.342,15.25,3.637c0.818,0.207,1.697,0.189,2.549,0.248c1.361,0.093,2.527-0.381,3.494-1.318
			c0.613-0.594,1.447-1.145,1.705-1.881c0.488-1.393,1.504-1.645,2.693-1.773c0.848-0.09,1.703-0.18,2.555-0.191
			c4.812-0.064,9.627-0.1,14.441-0.156c2.029-0.025,4.062-0.035,6.088-0.154c0.641-0.038,0.932,0.17,1.289,0.63
			c1.805,2.321,4.17,3.577,6.076,3.624c3.891-0.076,6.205-0.743,8.648-2.193c3.492-2.07,6.994-4.121,10.471-6.213
			c1.74-1.047,3.441-2.158,5.145-3.264c0.443-0.287,0.879-0.621,1.23-1.011C107.078,98.869,107.334,97.977,106.939,96.778z
			 M84.703,74.302c0.021-0.018,0.043-0.034,0.063-0.052c-0.234-1.192,0.445-2.193,0.788-3.243c0.826-2.527,1.75-5.023,2.668-7.52
			c0.293-0.803,0.213-1.443-0.494-1.977c-0.621-0.465-0.43-1.135-0.418-1.764c0.021-1.059-0.006-1.049-1.422-1.22
			c-0.162-0.019-0.434-0.155-0.441-0.253c-0.076-1.047,0.029-2.121-0.564-3.072c0.328-0.645,0.643-1.301,1.008-1.924
			c0.041-0.07,0.422-0.037,0.559,0.064c0.244,0.188,0.469,0.438,0.621,0.707c2.236,3.938,3.549,8.188,4.16,12.655
			c0.232,1.683,0.354,3.384,0.445,5.081c0.051,0.945-0.24,1.127-1.436,1.186c-0.756,0.037-1.033-0.23-0.883-0.846
			c0.199-0.824,0.451-1.641,0.584-2.476c0.135-0.839-0.234-1.53-0.73-1.562c-0.629-0.039-0.936,0.393-1.199,0.869
			c-0.877,1.584-1.744,3.172-2.645,4.74c-0.13,0.226-0.386,0.377-0.601,0.552c0.009,0.044,0.01,0.085,0.021,0.129
			c-0.028,0.016-0.062,0.028-0.093,0.043c-0.01,0.16-0.014,0.322-0.065,0.469c-0.039,0.118-0.193,0.198-0.295,0.295
			c-0.01-0.18-0.086-0.397-0.01-0.528c0.064-0.112,0.226-0.17,0.37-0.235C84.697,74.382,84.699,74.341,84.703,74.302z
			 M91.562,77.726c-0.145,0.127-0.32,0.229-0.5,0.297c-0.047,0.018-0.152-0.124-0.23-0.193c0.201-0.219,0.402-0.438,0.605-0.658
			c0.051,0.086,0.104,0.172,0.154,0.258C91.586,77.53,91.617,77.679,91.562,77.726z M88.994,73.976l-0.098,0.193l-0.043-0.214
			L88.994,73.976z M82.166,49.2c0.074-0.312,0.52-0.492,0.715-0.27c0.49,0.553,0.963,1.121,1.432,1.693
			c0.062,0.074,0.061,0.199,0.088,0.302c-0.178,0.108-0.357,0.308-0.535,0.308C82.611,51.235,81.891,50.354,82.166,49.2z
			 M81.809,79.483c0.229-0.166,0.531-0.293,0.809-0.303c0.152-0.006,0.32,0.25,0.467,0.404c1.105,1.164,1.602,1.119,2.963-0.006
			c0.115-0.096,0.264-0.152,0.396-0.227c0.031,0.098,0.062,0.197,0.102,0.322c-0.068,0.498-0.217,1.023-0.201,1.545
			c0.029,0.926,0.908,1.773,1.703,1.376c1.285-0.642,1.707,0.536,2.529,0.821c0.295,0.104,0.314,0.33,0.061,0.436
			c-1.178,0.486-2.348,1.006-3.559,1.391c-0.305,0.096-0.818-0.19-1.127-0.438c-1.684-1.343-2.998-3.027-4.227-4.779
			C81.645,79.911,81.701,79.563,81.809,79.483z M75.594,48.438c0.004,0.101,0.031,0.208,0.004,0.299
			c-0.021,0.062-0.117,0.101-0.18,0.149c-0.043-0.09-0.141-0.221-0.113-0.26C75.367,48.538,75.494,48.497,75.594,48.438z
			 M60.824,10.798c0.141-0.004,0.287,0.201,0.43,0.311c-0.088,0.059-0.17,0.133-0.266,0.17c-0.096,0.039-0.207,0.043-0.311,0.061
			c-0.195-0.039-0.396-0.064-0.584-0.129c-0.062-0.021-0.09-0.139-0.133-0.213C60.248,10.924,60.535,10.805,60.824,10.798z
			 M40.131,65.689c0.059,0.066,0.178,0.151,0.164,0.194c-0.049,0.159-0.143,0.305-0.221,0.455c-0.057-0.07-0.172-0.156-0.158-0.205
			C39.963,65.978,40.057,65.837,40.131,65.689z M41.795,103.03c-1.006-0.002-1.404,0.332-1.422,1.23
			c-0.011,0.717,0.007,1.432,0.015,2.148c0.024,0.005,0.042,0.014,0.067,0.017c0.001,0.034,0,0.068,0,0.103
			c0.15,0.097,0.33,0.181,0.391,0.316c0.066,0.152-0.031,0.378-0.057,0.572c-0.105-0.119-0.262-0.223-0.301-0.359
			c-0.048-0.166-0.035-0.349-0.034-0.529c-0.022-0.015-0.045-0.028-0.066-0.043c0-0.025,0-0.051,0-0.076
			c-0.734-0.131-0.754-0.877-1.082-1.346c-0.543-0.779-0.975-1.637-1.537-2.4c-0.455-0.617-1.193-0.742-1.686-0.4
			c-0.475,0.33-0.676,0.785-0.574,1.367c0.146,0.836,0.357,1.67,0.395,2.512c0.021,0.528,0.867,1.295-0.117,1.574
			c-0.682,0.193-1.043-0.623-1.32-1.162c-0.68-1.316-1.254-2.686-1.924-4.006c-0.279-0.557-0.65-1.084-1.059-1.556
			c-0.395-0.458-1.453-0.196-1.582,0.392c-0.133,0.609-0.25,1.264-0.164,1.867c0.152,1.047,0.473,2.068,0.699,3.104
			c0.035,0.161-0.068,0.353-0.107,0.528c-0.26-0.104-0.648-0.135-0.76-0.324c-0.479-0.824-0.885-1.689-1.299-2.549
			c-0.09-0.188-0.096-0.413-0.148-0.619c-0.193-0.762-0.637-1.305-1.332-1.695c-0.671-0.378-1.168,0.242-1.761,0.23
			c0.005,0.025,0.014,0.048,0.019,0.072c-0.027,0.02-0.054,0.039-0.081,0.059c-0.018,0.378-0.042,0.757-0.042,1.135
			c0.008,2.137-0.215,2.33-2.408,1.889c-0.195-0.039-0.531-0.211-0.521-0.287c0.035-0.271,0.115-0.625,0.311-0.779
			c0.863-0.683,1.769-1.312,2.661-1.957c0.002-0.043,0.003-0.085,0.005-0.128c0.02,0.002,0.038-0.003,0.057-0.003
			c-0.292-1.465-0.991-2.742-1.821-3.969c-1.389-2.053-2.328-4.305-2.906-6.711c-0.135-0.561,0.023-0.807,0.598-0.771
			c0.951,0.061,1.898,0.176,2.848,0.275c0.74,0.078,1.477,0.186,2.217,0.246c1.064,0.084,1.873-0.316,2.324-1.322
			c0.564-1.264,1.145-2.52,1.686-3.793c0.291-0.685,0.496-1.404,0.777-2.094c0.203-0.505,0.889-0.535,1.303-0.086
			c0.07,0.079,0.154,0.15,0.215,0.236c2.541,3.55,5.4,6.876,7.428,10.783c1.127,2.175,2.383,4.283,3.516,6.454
			C43.816,102.33,43.24,103.03,41.795,103.03z M51.979,102.053c-0.057,1.202-0.1,2.159-0.15,3.116
			c-0.006,0.095-0.08,0.186-0.121,0.279c-0.084-0.065-0.199-0.113-0.246-0.199c-0.154-0.277-0.344-0.557-0.41-0.857
			c-0.344-1.555-0.678-3.111-0.965-4.676c-0.078-0.42,0.088-0.836,0.6-0.945c0.545-0.117,1.266,0.229,1.281,0.662
			C52.004,100.387,51.979,101.343,51.979,102.053z M55.658,104.472c0.129,0.411-0.207,0.619-0.508,0.541
			c-0.221-0.057-0.492-0.389-0.52-0.623c-0.072-0.623-0.023-1.262-0.023-1.895c-0.025,0-0.049-0.002-0.074-0.002
			c0.043-0.629,0.061-1.262,0.146-1.883c0.021-0.15,0.262-0.285,0.422-0.395c0.186-0.127,0.654,0.237,0.65,0.516
			c-0.01,0.631,0.041,1.277-0.082,1.887C55.541,103.251,55.461,103.843,55.658,104.472z M61.527,103.601
			c-0.01,0.191-0.148,0.377-0.229,0.564c-0.09-0.162-0.232-0.314-0.26-0.486c-0.062-0.41-0.068-0.829-0.1-1.27
			c0.027-0.287,0.023-0.605,0.102-0.904c0.033-0.131,0.225-0.221,0.346-0.33c0.061,0.086,0.174,0.17,0.174,0.254
			C61.564,102.153,61.564,102.878,61.527,103.601z M63.832,102.888c-0.164-0.252-0.355-0.492-0.482-0.764
			c-0.084-0.176-0.094-0.395-0.104-0.596c-0.004-0.092,0.064-0.195,0.125-0.275c0.059-0.08,0.166-0.201,0.227-0.188
			c0.17,0.037,0.426,0.096,0.471,0.214c0.107,0.282,0.115,0.603,0.168,0.952C64.105,102.444,63.969,102.667,63.832,102.888z
			 M67.352,104.703c-0.059,0.14-0.344,0.257-0.518,0.253c-0.168-0.006-0.469-0.178-0.475-0.287c-0.053-1.135-0.072-2.27-0.062-3.403
			c0.002-0.358,0.693-0.503,1.033-0.272c0.592,0.4,0.719,0.979,0.734,1.747C67.854,103.337,67.633,104.033,67.352,104.703z
			 M72.268,102.587c-0.176,0.604-0.314,1.236-0.605,1.783c-0.17,0.318-0.609,0.492-0.877,0.693
			c-0.307-0.162-0.604-0.223-0.639-0.353c-0.236-0.903-0.436-1.817-0.604-2.737c-0.029-0.162,0.115-0.393,0.242-0.537
			c0.135-0.152,0.336-0.25,0.52-0.35c0.623-0.338,1.242-1.211,1.912-0.795C73.127,100.858,72.498,101.808,72.268,102.587z
			 M75.213,84.182c-0.07,2.03,0.025,4.065,0.025,6.097c0,2.793-0.004,2.799-2.314,4.338c-0.623,0.415-1.389,0.672-1.896,1.189
			c-1.732,1.766-3.988,1.987-6.213,2.127c-3.324,0.209-6.617-0.156-9.811-1.162c-2.746-0.863-5.58-1.471-8.156-2.828
			c-0.59-0.311-1.229-0.396-1.84-0.041c-0.591,0.345-0.659,0.951-0.756,1.539c0.021,0.02,0.043,0.037,0.063,0.057
			c0.006,0.045,0.019,0.087,0.026,0.131c0.435,0.203,0.875,0.393,1.296,0.619c2.035,1.104,2.277,1.662,1.783,4.029
			c-0.02,0.09-0.098,0.219-0.168,0.234c-0.086,0.018-0.229-0.039-0.285-0.111c-1.122-1.456-2.32-2.873-2.626-4.771
			c-0.037-0.018-0.075-0.034-0.112-0.052c0.008-0.045,0.015-0.09,0.023-0.136c-0.274-0.251-0.601-0.473-0.779-0.779
			c-0.9-1.556-1.705-3.168-2.633-4.707c-2.276-3.773-4.854-7.321-8.021-10.411c-0.054,0.003-0.106,0.01-0.161,0.011
			c-0.019-0.035-0.028-0.068-0.046-0.104c-0.169-0.017-0.34-0.027-0.495-0.083c-0.682-0.246-1.586-0.251-1.857-1.051
			c-0.34-1.015-0.408-2.096,0.205-3.073c0.279-0.447,0.68-0.82,0.953-1.271c0.799-1.321,1.888-1.46,3.177-0.897
			c0-0.015,0.003-0.027,0.003-0.042c0.051-0.012,0.106-0.019,0.159-0.029c0.073-0.08,0.146-0.161,0.218-0.24
			c-0.027,0.067-0.035,0.168-0.084,0.195c-0.04,0.023-0.086,0.035-0.134,0.045c-0.03,0.033-0.06,0.066-0.09,0.1
			c-0.024-0.011-0.047-0.018-0.071-0.028c0.012,0.926-0.79,1.389-1.271,1.97c-1.149,1.386-1.517,2.783-0.712,4.406
			c0.044,0.004,0.089,0.007,0.132,0.014c0.026,0.025,0.049,0.054,0.075,0.079c1.414-0.064,2.568-0.606,3.341-1.87
			c0.109-0.182,0.262-0.338,0.387-0.51c0.492-0.668,1.031-1.008,1.9-0.564c0.68,0.348,1.459,0.398,2.158,0.021
			c0.234-0.126,0.398-0.471,0.482-0.75c0.045-0.143-0.113-0.446-0.262-0.529c-0.363-0.201-0.816-0.258-1.15-0.49
			c-0.197-0.137-0.402-0.59-0.318-0.748c0.453-0.852,0.975-1.664,2.09-1.779c0.42-0.043,0.83-0.193,1.236-0.319
			c0.951-0.295,1.574-0.813,1.348-1.097c-0.389-0.484-0.957-0.348-1.475-0.405c-0.602-0.067-0.701-0.327-0.357-0.841
			c0.418-0.621,0.869-1.221,1.277-1.848c0.605-0.932,1.365-1.629,2.502-1.852c0.305-0.06,0.666-0.164,0.863-0.375
			c0.266-0.287,0.584-0.725,0.537-1.047c-0.049-0.328-0.465-0.694-0.809-0.861c-0.363-0.174-0.83-0.137-1.25-0.184
			c-0.451-0.051-0.834-0.209-0.916-0.705c-0.115-0.675,0.02-1.35,0.625-1.69c0.641-0.36,1.379-0.555,2.088-0.78
			c0.506-0.16,1.084-0.16,1.529-0.408c0.311-0.172,0.633-0.652,0.623-0.984c-0.012-0.338-0.375-0.723-0.678-0.971
			c-0.223-0.182-0.602-0.25-0.904-0.238c-0.529,0.021-1.051,0.19-1.578,0.203c-0.271,0.008-0.686-0.113-0.787-0.309
			c-0.121-0.226,0-0.602,0.064-0.9c0.123-0.561,0.486-0.924,1.006-1.16c0.777-0.355,1.555-0.716,2.311-1.109
			c0.375-0.194,0.807-0.4,1.029-0.726c0.207-0.308,0.271-0.794,0.215-1.173c-0.037-0.231-0.391-0.508-0.654-0.588
			c-0.398-0.125-0.842-0.092-1.266-0.129c-1.248-0.109-1.422-0.379-1.033-1.625c0.16-0.51,0.371-1.004,0.51-1.52
			c0.348-1.283,1.291-2.379,0.711-3.941c-0.422-1.133,0.258-2.527-0.586-3.701c-0.205-0.285-0.082-0.832-0.045-1.254
			c0.014-0.152,0.199-0.309,0.338-0.424c0.045-0.038,0.23,0.016,0.291,0.083c0.572,0.628,1.146,1.255,1.688,1.909
			c1.018,1.234,1.961,2.535,3.033,3.723c1.031,1.146,2.119,1.365,3.467,0.648c3.867-2.057,7.963-3.668,11.68-6.02
			c0.826-0.522,1.602-1.059,2.131-1.896c0.273-0.432,0.207-1.135-0.191-1.464c-0.324-0.27-0.67-0.524-1.033-0.74
			c-0.916-0.549-1.857-1.06-2.773-1.608c-1.037-0.623-0.982-0.629-0.82-1.961c0.115-0.947,0.125-1.914,0.094-2.869
			c-0.023-0.676-0.396-1.217-1.043-1.494c-0.537-0.23-1.387,0.227-1.795,1.031c-0.287,0.564-0.412,1.211-0.697,1.777
			c-0.188,0.369-0.504,0.682-1.025,0.426c-0.383-0.188-0.789-0.33-1.189-0.482c-0.945-0.361-1.889-0.33-2.809,0.08
			c-0.779,0.348-1.549,0.725-2.316,1.099c-0.363,0.177-0.623,0.015-0.74-0.29c-0.268-0.693-0.42-1.438-0.732-2.106
			c-0.336-0.72-1.27-1.11-1.879-0.909c-0.666,0.219-1.186,0.916-1.15,1.752c0.033,0.734,0.195,1.469,0.338,2.195
			c0.266,1.338,0.115,1.717-1.088,2.273c-0.471,0.219-0.99,0.334-1.494,0.472c-0.059,0.017-0.182-0.112-0.236-0.198
			c-0.043-0.072-0.051-0.186-0.031-0.271c0.021-0.096,0.07-0.219,0.146-0.266c1.379-0.85,1.324-2.123,0.852-3.375
			c-0.35-0.926-0.516-1.828-0.506-2.805c0.014-1.271,0.518-2.27,1.482-3.061c0.9-0.738,1.844-0.953,2.971-0.444
			c1.221,0.554,2.25,1.214,2.537,2.646c0.062,0.307,0.217,0.604,0.373,0.882c0.518,0.921,1.65,0.863,2.27-0.104
			c1.348-2.097,3.971-4.158,6.15-4.828c1.076-0.332,2.273,0.127,2.668,1.184c0.52,1.393,1.061,2.818,0.582,4.361
			c-0.096,0.307-0.201,0.611-0.26,0.926c-0.311,1.682-0.037,2.25,1.484,3.145c1.043,0.614,2.258,0.033,2.279-1.234
			c0.037-2.025,0.018-4.068-0.215-6.076c-0.143-1.247-0.592-2.504-1.133-3.648c-0.961-2.025-2.928-3.023-4.979-2.732
			c-0.316,0.045-0.66,0.07-0.932,0.217c-2.252,1.211-4.654,2.248-5.633,4.935c-0.229,0.624-0.812,0.708-1.195,0.249
			c-0.549-0.652-1.096-1.309-1.604-1.994c-0.574-0.784-0.535-1.844,0.064-2.628c0.125-0.165,0.398-0.253,0.461-0.429
			c0.275-0.771,0.338-1.676,0.787-2.314c0.393-0.561,1.211-0.812,1.811-1.242c0.145-0.105,0.232-0.377,0.238-0.576
			c0.033-0.967,0.656-1.103,1.457-1.318c1.953-0.527,3.879-1.117,5.906-1.314c0.838-0.081,0.904-0.381,0.619-1.562
			c-0.057-0.236,0.072-0.564,0.219-0.779c0.068-0.1,0.414-0.1,0.58-0.027c0.895,0.387,1.629,0.965,2.277,1.717
			c2.289,2.664,3.559,5.818,4.461,9.141c0.758,2.791,1.104,5.658,1.232,8.541c0.104,2.244,0.031,4.496,0.146,6.738
			c0.109,2.085-0.312,4.033-1.164,5.91c-0.15,0.328-0.121,0.922-0.697,0.834c-0.281-0.043-0.52-0.354-0.783-0.533
			c-0.443-0.299-0.812-0.078-1.135,0.212c-0.812,0.733-0.904,1.706-0.656,2.665c0.451,1.754,0.873,3.525,1.746,5.143
			c0.764,1.41,1.496,2.836,2.271,4.24c0.738,1.338,1.266,2.701,0.967,4.281c-0.141,0.738-0.07,1.457,0.266,2.182
			c0.688,1.482,0.691,3.066,0.535,4.666c-0.104,1.064-0.168,2.133-0.18,3.201c-0.006,0.523-0.002,1.138,0.252,1.561
			c1.158,1.939,1.326,4.281,2.627,6.168c0.672,0.977,0.475,1.385-0.654,1.873C76.244,79.86,75.295,81.78,75.213,84.182z
			 M55.967,38.913c0.027,0.232,0.361,0.51,0.621,0.621c0.449,0.195,0.855-0.045,1.057-0.443c0.238-0.473,0.375-0.996,0.539-1.504
			c0.297-0.912,0.553-1.84,0.871-2.744c0.492-1.391,0.941-1.58,2.064-0.817c1.145,0.776,2.221,1.638,3.529,2.175
			c0.525,0.217,1.279,0.621,1.117,1.312c-0.09,0.387-0.758,0.699-1.225,0.926c-2.879,1.398-5.773,2.764-8.666,4.131
			c-0.186,0.088-0.402,0.111-0.68,0.186c-0.217-0.138-0.553-0.246-0.73-0.477c-1.232-1.609-2.445-3.234-3.637-4.875
			c-0.307-0.422-0.078-0.797,0.314-1.058c0.268-0.177,0.545-0.337,0.824-0.495c1.301-0.736,2.596-1.48,3.91-2.192
			c0.256-0.138,0.66-0.298,0.854-0.19c0.5,0.276,0.188,0.73,0.062,1.115c-0.264,0.812-0.604,1.607-0.781,2.437
			C55.881,37.628,55.895,38.289,55.967,38.913z M99.965,98.627c-0.992,0.622-2.016,1.192-3.012,1.81
			c-1.809,1.125-3.609,2.266-5.41,3.406c-1.637,1.037-3.42,1.709-5.297,2.166c-3.984,0.973-7.094-1.326-7.17-5.356
			c-0.039-2.132-0.006-4.265-0.006-6.397h-0.023c0-2.133-0.008-4.266,0.008-6.399c0.002-0.31,0.117-0.616,0.18-0.925
			c0.357,0.16,0.744,0.277,1.068,0.49c0.531,0.352,1.082,0.707,1.523,1.162c1.576,1.63,3.402,1.51,5.316,0.839
			c2.006-0.702,4-1.437,6.006-2.138c0.293-0.102,0.646-0.18,0.932-0.105c0.221,0.059,0.559,0.395,0.533,0.562
			c-0.172,1.154-0.426,2.297-0.656,3.441c-0.277,1.387,0.096,2.339,1.285,2.932c0.658,0.326,1.385,0.605,2.107,0.689
			c0.988,0.113,1.879,0.428,2.674,0.965c0.652,0.44,1.781,0.612,1.684,1.607C101.625,98.174,100.582,98.241,99.965,98.627z"/>
	</g>
</g>
</svg>
