<?xml version="1.0" encoding="utf-8"?>
<!-- Generator: Adobe Illustrator 16.0.0, SVG Export Plug-In . SVG Version: 6.00 Build 0)  -->
<!DOCTYPE svg PUBLIC "-//W3C//DTD SVG 1.1//EN" "http://www.w3.org/Graphics/SVG/1.1/DTD/svg11.dtd">
<svg version="1.1" id="Layer_1" xmlns="http://www.w3.org/2000/svg" xmlns:xlink="http://www.w3.org/1999/xlink" x="0px" y="0px"
	 width="120px" height="120px" viewBox="0 0 120 120" style="enable-background:new 0 0 120 120;" xml:space="preserve">
<g id="ubuntu">
	<g>
		<path style="fill-rule:evenodd;clip-rule:evenodd;" d="M51.875,85.763c1.004-2.268,1.99-4.544,3.028-6.796
			c0.348-0.753,0.348-1.376-0.275-1.959c-3.162-2.949-4.695-6.739-5.587-10.859c-0.109-0.505-0.24-1.006-0.328-1.514
			c-0.301-1.729-0.733-3.451-0.847-5.192c-0.281-4.347,0.638-8.412,3.153-12.062c1.337-1.939,2.888-3.828,2.469-6.453
			c0.81-1.291,0.12-2.35-0.49-3.453c-1.199-2.176-2.41-4.347-3.504-6.571c-1.093-2.221-2.811-4.085-3.608-6.47
			c-0.159-0.475-0.481-0.936-0.841-1.289c-0.254-0.248-0.69-0.352-1.064-0.422c-0.287-0.055-0.603,0.048-0.894,0.078
			c-1.134-0.576-1.95-0.157-2.772,0.659c-0.953,0.945-2.014,1.786-3.068,2.618c-2.454,1.938-4.696,4.078-6.339,6.759
			c-1.566,2.557-3.091,5.143-4.534,7.77c-0.645,1.17-1.074,2.461-1.547,3.718c-0.268,0.711-0.205,1.376,0.393,1.992
			c1.077,1.111,2.131,2.257,3.108,3.455c2.889,3.542,4.798,7.454,4.523,12.192c-0.233,3.999-1.418,7.496-4.878,9.889
			c-0.256,0.176-0.478,0.398-0.719,0.593c-1.476,1.174-1.854,2.66-1.248,4.414c0.507,1.467,0.963,2.954,1.567,4.377
			c1.422,3.342,2.952,6.621,5.745,9.111c0.448,0.399,0.721,1,1.064,1.515c0.75,1.114,1.414,2.302,2.264,3.337
			c0.979,1.193,2.099,2.276,3.198,3.365c0.397,0.393,0.943,0.439,1.407,0.057c1.827-1.518,3.702-2.988,5.444-4.599
			c2.216-2.049,4.237-4.266,4.827-7.401C51.579,86.322,51.75,86.045,51.875,85.763z M31.037,75.795
			c-0.011,0.026-0.022,0.054-0.033,0.081c-0.017,0.004-0.036,0.006-0.054,0.009c0.005,0.165,0.03,0.339-0.022,0.482
			c-0.051,0.137-0.217,0.23-0.332,0.343c-0.064-0.068-0.182-0.136-0.182-0.202c0.001-0.17,0-0.39,0.102-0.496
			c0.089-0.095,0.275-0.099,0.435-0.127c-0.001-0.021-0.003-0.043-0.003-0.063C30.971,75.809,31.003,75.801,31.037,75.795
			c0.052-0.13,0.105-0.26,0.157-0.39C31.562,75.783,31.242,75.755,31.037,75.795z M31.877,45.789
			c0.133-1.117,1.148-1.598,1.79-2.344c0.941-1.098,1.977-2.119,2.885-3.241c0.441-0.548,0.73-1.24,1.003-1.899
			c0.264-0.637-0.331-1.499-1.043-1.614c-0.842-0.14-1.646-0.064-2.388,0.404c-0.387,0.243-0.786,0.47-1.181,0.703
			c-0.016,0.055-0.031,0.11-0.049,0.163c-0.068,0.021-0.138,0.039-0.204,0.064c-0.05,0.061-0.1,0.122-0.15,0.183
			c0.03-0.059,0.047-0.138,0.095-0.166c0.016-0.009,0.037-0.01,0.055-0.017c0.04-0.049,0.08-0.099,0.121-0.148
			c0.044-0.026,0.088-0.053,0.132-0.079c0.131-0.432,0.21-0.907,0.47-1.237c2.588-3.272,5.653-6.031,9.114-8.356
			c0.506-0.338,1.187-0.249,1.335,0.2c1.211,3.678,3.276,6.894,5.423,10.062c0.42,0.618,0.354,1.137-0.069,1.687
			c-0.504,0.655-0.998,1.317-1.493,1.979c-1.878,2.52-3.268,5.245-3.803,8.388c-0.258,1.521-0.717,3.013-1.136,4.502
			c-0.655,2.321-0.728,4.693-0.675,7.074c0.022,1.016-0.05,1.777-1.336,2.026c-0.762,0.147-1.42,0.81-2.142,1.204
			c-0.344,0.188-0.73,0.293-1.099,0.437c-0.069-0.386-0.288-0.814-0.187-1.146c0.407-1.313,0.454-2.655,0.408-3.997
			c-0.046-1.31,0.052-2.429,1.483-3.06c0.529-0.234,0.834-0.929,0.69-1.605c-0.184-0.855-0.617-1.542-1.548-1.738
			c-0.301-0.064-0.647,0.024-0.92-0.085c-0.351-0.14-0.672-0.388-0.963-0.636c-0.148-0.124-0.242-0.344-0.297-0.54
			c-0.32-1.172-1.812-2.067-1.295-3.308c0.402-0.968,1.488-1.675,2.335-2.425c0.795-0.701,1.481-1.457,1.755-2.491
			c0.165-0.622,0.09-1.268-0.468-1.689c-0.492-0.371-1.033-0.688-1.717-0.455c-1,0.342-1.833,0.918-2.592,1.649
			C32.395,45.997,31.816,46.288,31.877,45.789z M40.493,93.111c-0.011,0.007-0.026,0.006-0.039,0.011l-0.11,0.146
			c-0.069,0.031-0.139,0.059-0.204,0.094c-0.039,0.065-0.078,0.131-0.118,0.195c0.02-0.057,0.023-0.138,0.065-0.171
			c0.015-0.011,0.036-0.015,0.052-0.024c0.036-0.06,0.072-0.12,0.109-0.181c0.07-0.02,0.141-0.033,0.205-0.06
			c0.042-0.056,0.085-0.112,0.127-0.169C40.554,93.008,40.539,93.085,40.493,93.111z M50.329,81.147
			c-1.293,1.603-2.601,3.194-3.899,4.793c-1.104,1.361-2.184,2.741-3.317,4.075c-0.427,0.501-0.739,1.185-1.502,1.291
			c-0.009,0.032-0.018,0.063-0.026,0.096c-0.061,0.028-0.121,0.059-0.179,0.09c-0.042,0.073-0.084,0.146-0.126,0.219
			c0.017-0.062,0.016-0.149,0.056-0.184c0.02-0.017,0.048-0.022,0.071-0.035c0.032-0.056,0.064-0.112,0.096-0.167
			c0.039-0.002,0.072-0.013,0.109-0.019c0.256-0.958,0.542-1.911,0.755-2.879c0.262-1.194-0.289-2.356-1.287-2.879
			c-1.227-0.639-2.534-0.411-3.317,0.681c-0.533,0.745-0.935,1.584-1.404,2.376c-0.024,0.04-0.169,0.059-0.216,0.026
			c-0.081-0.055-0.191-0.164-0.183-0.238c0.045-0.396,0.033-0.837,0.206-1.179c0.745-1.473,1.585-2.901,2.32-4.38
			c0.92-1.849,1.814-3.712,2.626-5.609c0.273-0.639,0.327-1.396,0.358-2.105c0.039-0.862-0.945-1.497-1.762-1.146
			c-0.459,0.197-0.954,0.467-1.255,0.846c-0.895,1.128-1.698,2.328-2.543,3.496c-0.332,0.461-0.468,1.123-1.169,1.21
			c-0.002,0.022-0.008,0.043-0.01,0.065c-0.021,0.004-0.034,0.012-0.053,0.017c0.057,0.511,0.077,1.003-0.569,1.166
			c0.003,0.024,0.006,0.049,0.01,0.074c-0.027,0.002-0.041,0.017-0.066,0.021c0.066,0.609-0.176,1.102-0.62,1.511
			c-0.073,0.067-0.164,0.115-0.245,0.17c-0.066-0.166-0.232-0.374-0.183-0.491c0.212-0.51,0.377-1.091,1.048-1.189
			c-0.003-0.026,0.002-0.05-0.002-0.077c0.022-0.005,0.038-0.013,0.059-0.018c-0.07-0.517-0.087-1.005,0.569-1.166
			c-0.002-0.023-0.004-0.046-0.007-0.069c0.026-0.002,0.046-0.01,0.07-0.013c0.197-1.854,1.146-3.436,1.867-5.098
			c0.078-0.182,0.236-0.347,0.396-0.467c2.086-1.577,3.57-3.684,5.102-5.75c0.282-0.382,0.754-0.306,0.947,0.163
			c0.194,0.473,0.335,0.968,0.523,1.443c1.523,3.869,3.43,7.492,6.66,10.254C50.615,80.396,50.624,80.781,50.329,81.147z
			 M114.777,65.912c-0.117-0.681-0.535-1.096-1.224-1.217c-2.228-0.397-4.467-0.683-6.733-0.664
			c-2.693,0.025-5.389,0.149-8.076,0.055c-1.438-0.051-2.614,0.21-3.633,1.252c-0.35,0.356-0.862,0.564-1.323,0.799
			c-1.187,0.607-1.782,1.491-2.052,2.871c-0.682,3.473-1.003,3.91-3.779,6.08c-1.382,1.079-2.841,2.102-4.385,2.924
			c-2.551,1.361-5.194,2.55-7.807,3.795c-3.614,1.725-7.34,1.961-11.172,0.83c-0.789-0.232-1.592-0.431-2.4-0.586
			c-0.672-0.131-1.224,0.144-1.578,0.729c-1.016,1.681-2.151,3.304-2.992,5.067c-1.51,3.168-2.687,6.494-4.465,9.539
			c-0.204,0.35-0.268,0.778-0.402,1.168c-0.57,1.661-1.144,3.32-1.717,4.98c-0.273,0.791-0.098,1.229,0.637,1.406
			c1.004,0.239,2.023,0.408,3.025,0.651c0.696,0.169,1.43,0.307,2.051,0.638c3.24,1.738,6.792,1.748,10.277,1.644
			c2.004-0.059,4.171-0.077,5.983-1.348c0.232-0.162,0.594-0.138,0.893-0.213c1.298-0.325,2.61-0.605,3.888-0.994
			c1.993-0.61,2.102-0.605,2.695-2.548c0.689-2.253,1.99-4.065,3.509-5.78c0.481-0.542,0.976-1.071,1.449-1.621
			c1.574-1.826,3.423-3.312,5.622-4.302c1.883-0.849,3.814-1.592,5.715-2.402c0.898-0.382,1.799-0.369,2.737-0.198
			c1.212,0.221,2.433,0.388,3.65,0.576c0.013-0.081,0.025-0.166,0.039-0.249c0.811,0.124,1.643,0.178,2.427,0.398
			c0.634,0.176,0.991-0.045,1.28-0.521c0.963-1.588,1.944-3.168,2.854-4.785c0.454-0.808,0.748-1.705,1.158-2.539
			c1.698-3.451,2.788-7.112,3.769-10.812C115.104,69.002,115.04,67.456,114.777,65.912z M109.264,70.628
			c-0.981,3.152-1.919,6.318-3,9.437c-0.571,1.65-1.369,3.225-2.129,4.805c-0.301,0.621-0.942,0.811-1.565,0.556
			c-3.982-1.624-7.909-1.051-11.784,0.35c-4.744,1.714-8.327,4.902-11.147,9.017c-0.35,0.511-0.655,1.053-1.004,1.565
			c-0.31,0.458-0.741,0.69-1.314,0.637c-0.753-0.067-1.479,0.026-1.921,0.724c-0.501,0.791-0.938,1.622-0.656,2.618
			c0.083,0.297,0.267,0.592,0.262,0.883c-0.005,0.257-0.168,0.695-0.333,0.735c-1.004,0.227-2.025,0.382-3.045,0.523
			c-0.47,0.064-0.796-0.299-0.724-0.725c0.155-0.908,0.395-1.815,0.429-2.73c0.021-0.586-0.172-1.225-0.429-1.766
			c-0.587-1.238-2.331-1.304-3.026-0.127c-0.937,1.586-1.309,3.246-0.481,5.017c0.128,0.278,0.217,0.636-0.182,0.773
			c-0.274,0.097-0.631,0.168-0.878,0.067c-0.231-0.092-0.49-0.408-0.52-0.651c-0.073-0.608-0.024-1.234-0.024-1.887
			c0.112-0.998,0.24-2.022,0.336-3.048c0.029-0.299,0.027-0.628-0.067-0.906c-0.196-0.584-0.414-1.188-1.142-1.33
			c-0.552-0.107-1.1,0.247-1.425,0.945c-0.087,0.187-0.103,0.402-0.186,0.591c-0.746,1.685-1.037,1.718-2.194,0.299
			c-0.281-0.346-0.434-0.71-0.289-1.134c0.809-2.34,1.596-4.691,2.463-7.01c0.538-1.44,1.421-1.844,2.941-1.518
			c0.302,0.063,0.603,0.15,0.896,0.249c3.377,1.134,6.721,0.879,10.025-0.276c2.631-0.92,5.275-1.82,7.85-2.886
			c4.171-1.726,7.727-4.347,10.738-7.719c1.143-1.278,1.761-2.784,2.224-4.383c0.171-0.592,0.202-1.236,0.456-1.788
			c0.144-0.312,0.575-0.552,0.931-0.691c0.262-0.103,0.611-0.012,0.917,0.031c2.777,0.381,5.553,0.515,8.327-0.031
			C108.979,69.766,109.389,70.229,109.264,70.628z M53.247,23.536c1.69,2.958,3.28,5.974,4.918,8.964
			c0.492,0.898,1.019,1.777,1.529,2.663c1.425,0.226,1.264,1.772,2.079,2.479c0.439,0.384,1.075,0.755,1.629,0.764
			c2.58,0.04,5.162-0.015,7.742-0.104c1.646-0.059,3.286-0.265,4.933-0.354c1.71-0.093,3.321,0.437,4.707,1.334
			c2.339,1.514,4.519,3.223,6.225,5.521c1.754,2.36,2.942,4.985,3.964,7.683c1.267,3.358,0.908,3.16,5.09,3.929
			c0.201,0.038,0.413,0.031,0.619,0.036c2.786,0.087,5.572,0.176,8.359,0.263c0-0.029,0.001-0.062,0.002-0.094
			c2.172,0,4.349-0.097,6.515,0.031c1.549,0.093,2.151-0.532,2.705-1.992c0.323-0.852,0.404-1.812,0.484-2.734
			c0.126-1.447,0.12-2.875-0.8-4.16c-0.345-0.479-0.43-1.143-0.665-1.71c-0.671-1.618-1.274-3.273-2.061-4.835
			c-1.913-3.803-4.391-7.229-7.167-10.451c-1.766-2.047-1.734-2.101-4.46-1.331c-4.432,1.249-8.316-0.218-12.068-2.372
			c-0.265-0.153-0.47-0.406-0.712-0.598c-2.887-2.286-4.529-5.386-5.344-8.859c-0.648-2.771-0.393-2.248-3.148-3.061
			c-1.07-0.315-2.255-0.24-3.386-0.352c-1.229-0.119-2.458-0.244-3.685-0.38c-1.847-0.204-3.689-0.573-5.538-0.597
			c-2.362-0.029-4.685,0.54-7.019,0.892c-1.87,0.283-3.528,1.126-5.212,1.92c-0.797,0.374-1.347,0.953-1.718,1.711
			c-0.272,0.556-0.466,1.149-0.719,1.714c-0.338,0.764-0.124,1.406,0.393,1.992C52.048,22.141,52.799,22.752,53.247,23.536z
			 M89.446,33.479c-0.104-0.291-0.66-0.685-0.041-0.954c0.224-0.099,0.582,0.128,0.882,0.199c0.805,0.188,1.604,0.416,2.418,0.541
			c0.708,0.111,1.531,0.344,2.135,0.102c1.886-0.752,3.672,0.22,5.507,0.133c0.328-0.017,0.797,0.307,1,0.608
			c2.769,4.114,5.729,8.118,7.65,12.739c0.156,0.374,0.246,0.776,0.353,1.119c-0.188,0.223-0.287,0.451-0.453,0.516
			c-0.478,0.189-0.975,0.357-1.481,0.451c-3.549,0.658-7.101,1.301-10.655,1.938c-0.61,0.107-0.954-0.246-1.15-0.782
			c-0.965-2.629-2.23-5.116-3.632-7.537c-0.519-0.895-1.03-1.798-1.626-2.637c-0.536-0.757-1.377-1.348-1.734-2.164
			c-0.411-0.936,0.889-1.487,0.958-2.476C89.619,34.644,89.662,34.084,89.446,33.479z M57.388,20.043
			c2.354-1.102,4.804-1.879,7.417-2.005c1.236-0.061,2.478-0.01,3.463-0.01c3.069-0.337,5.804,0.24,8.549,0.715
			c0.882,0.151,1.461,0.568,1.679,1.54c1.167,5.173,4.452,8.719,8.875,11.366c0.554,0.329,0.574,0.409-0.072,0.665
			c-0.714,0.282-1.189,0.713-1.57,1.384c-0.636,1.119-0.682,1.093-1.826,0.519c-0.554-0.28-1.111-0.549-1.653-0.848
			c-0.445-0.247-0.97-0.449-1.275-0.821c-0.386-0.468,0.141-0.941,0.252-1.42c0.094-0.398,0.158-0.809,0.191-1.217
			c0.075-0.915-0.766-1.681-1.587-1.339c-0.938,0.392-1.938,0.826-2.653,1.509c-0.951,0.911-1.852,0.622-2.828,0.31
			c-0.117-0.035-0.271-0.368-0.221-0.449c0.429-0.699,0.857-1.406,1.369-2.043c0.604-0.749,0.949-1.588,1.145-2.509
			c0.092-0.433-0.379-1.138-0.832-1.14c-0.605-0.002-1.25,0.006-1.81,0.201c-0.996,0.344-1.759,1.073-2.411,1.886
			c-0.839,1.049-1.733,2.069-2.431,3.207c-0.683,1.115-1.63,1.11-2.678,0.97c-0.125-0.017-0.339-0.325-0.304-0.418
			c0.145-0.379,0.346-0.744,0.572-1.084c0.967-1.463,1.969-2.903,2.918-4.378c0.454-0.703,0.374-1.237-0.093-1.68
			c-0.507-0.48-1.119-0.612-1.702-0.293c-0.806,0.438-1.65,0.896-2.292,1.532c-1.169,1.16-2.208,2.451-3.286,3.699
			c-0.605,0.699-1.021,0.733-1.438,0.034c-1.323-2.216-2.632-4.44-3.938-6.667C56.621,20.756,56.782,20.328,57.388,20.043z
			 M87.261,21.831c2.644,2.293,5.594,3.867,9.035,3.693c3.39,0.065,5.912-1.315,8.201-3.449c3.706-3.457,3.636-9.545,1.424-12.818
			c-0.938-1.386-1.992-2.645-3.313-3.646c-2.858-2.162-6.108-3.158-9.615-2.311c-4.224,1.023-6.401,4.387-7.838,8.1
			c-1.168,3.021-0.398,6.101,1.014,8.962C86.436,20.903,86.808,21.441,87.261,21.831z M93.319,9.232
			c0.149-0.236,0.445-0.44,0.718-0.529c0.384-0.125,0.808-0.129,0.727-0.119c3.27-0.195,6.087,2.404,6.856,4.604
			c0.671,1.915,0.117,3.974-1.429,5.342c-0.479,0.422-0.966,0.418-1.586,0.004c-0.425-0.285-0.861-0.554-1.293-0.832
			c-0.902-0.582-0.906-0.586-0.425-1.36c0.271-0.438,0.583-0.853,0.835-1.301c0.44-0.778,0.335-1.124-0.609-1.722
			c-0.339-0.215-0.872-0.293-0.88-0.742c-0.025-1.673-0.956-2.111-2.436-1.99c-0.208,0.017-0.569-0.266-0.635-0.477
			C93.085,9.851,93.17,9.473,93.319,9.232z M26.95,61.601c0.254-1.512-0.097-2.896-0.848-4.159c-0.843-1.42-1.755-2.803-2.725-4.14
			c-1.04-1.435-2.35-2.604-3.885-3.512c-4.068-2.402-8.562-1.776-11.47,2.336c-3.438,4.863-3.754,10.14-1.74,15.612
			c0.384,1.041,1.084,1.997,1.774,2.89c0.914,1.177,2.128,1.924,3.68,2.035c0.607,0.046,1.207,0.222,1.81,0.337
			c1.108,0.215,2.216,0.429,3.323,0.645c5.371-0.104,9.485-3.93,9.851-9.27C26.784,63.449,26.796,62.512,26.95,61.601z
			 M21.367,61.053c-1.768,1.093-3.596,2.028-5.911,1.899c-1.287,0.18-2.146-0.487-2.771-1.756c-0.696-1.419-1.039-2.88-1.152-4.441
			c-0.104-1.455,0.396-2.597,1.378-3.621c0.981-1.021,2.131-1.166,3.399-0.768c0.387,0.121,0.771,0.319,1.097,0.562
			c2.117,1.568,3.681,3.583,4.681,6.02C22.459,59.856,22.209,60.531,21.367,61.053z M96.746,95.973
			c-2.857-0.707-5.47-0.374-7.825,1.631c-2.309,1.964-3.746,4.395-4.271,7.322c-0.5,2.788-0.311,5.568,1.047,8.135
			c1.114,2.111,2.641,3.672,5.276,3.665c1.027-0.004,2.056,0.164,3.083,0.253c2.729,0.168,5.058-0.662,7.017-2.612
			c2.317-2.31,3.368-5.025,3.423-8.323C104.565,101.846,101.11,97.05,96.746,95.973z M100.386,105.354
			c-0.324,1.5-0.572,3.031-1.61,4.284c-1.126,1.36-1.371,1.325-3.112,0.845c-2.5-0.688-3.281-2.584-3.763-4.769
			c-0.109-0.497-0.074-1.026-0.107-1.599c-0.53-2.518,2.57-4.653,5.307-3.281c1.401,0.705,2.491,1.828,3.077,3.334
			C100.322,104.538,100.464,104.988,100.386,105.354z M36.227,50.16c-0.074,0.174,0.175,0.543,0.354,0.751
			c0.113,0.128,0.379,0.128,0.576,0.183c1.577,0.048,2.722-0.293,3.771-1.122c0.447-0.355,0.692-1.123,0.533-1.681
			c-0.192-0.672-0.945-1.241-1.655-1.117c-0.595,0.104-1.198,0.297-1.729,0.581C37.118,48.265,36.633,49.21,36.227,50.16z"/>
	</g>
</g>
</svg>
