<?xml version="1.0" encoding="utf-8"?>
<!-- Generator: Adobe Illustrator 16.0.0, SVG Export Plug-In . SVG Version: 6.00 Build 0)  -->
<!DOCTYPE svg PUBLIC "-//W3C//DTD SVG 1.1//EN" "http://www.w3.org/Graphics/SVG/1.1/DTD/svg11.dtd">
<svg version="1.1" id="Layer_1" xmlns="http://www.w3.org/2000/svg" xmlns:xlink="http://www.w3.org/1999/xlink" x="0px" y="0px"
	 width="120px" height="120px" viewBox="0 0 120 120" style="enable-background:new 0 0 120 120;" xml:space="preserve">
<g id="appstore">
	<g>
		<path style="fill-rule:evenodd;clip-rule:evenodd;" d="M115.795,99.131c-0.1-0.831-0.264-1.656-0.441-2.474
			c-0.644-2.905-1.976-5.517-3.586-7.98c-1.137-1.74-2.859-2.347-4.898-2.081c-0.521,0.067-1.033,0.174-1.557,0.227
			c-1.061,0.106-1.569-0.249-1.816-1.266c-0.074-0.305-0.064-0.63-0.138-0.935c-0.789-3.26-1.704-6.487-3.011-9.573
			c-0.437-1.029-1.237-1.862-0.739-3.128c0.107-0.27-0.215-0.786-0.454-1.101c-0.352-0.459-0.453-0.865-0.237-1.422
			c0.147-0.377,0.117-0.823,0.165-1.238c0.058-0.533,0.337-0.64,0.842-0.544c3.389,0.643,6.865,0.634,10.244,1.42
			c1.297,0.305,2.48-0.752,2.598-2.104c0.055-0.626,0.005-1.26,0.03-1.888c0.132-3.449-0.083-6.912,0.568-10.347
			c0.249-1.318,0.151-2.722,0.075-4.077c-0.069-1.236-1.078-2.105-2.286-2.169c-0.211-0.012-0.419,0.008-0.628,0.016
			c-5.879,0.197-11.723-0.228-17.548-0.965c-0.688-0.087-1.218,0.108-1.796,0.356c-0.861,0.367-1.027,0.317-1.422-0.402
			c-2.163-3.953-4.294-7.922-6.484-11.857c-3.998-7.18-8.943-13.672-14.478-19.725c-2.121-2.322-4.314-4.575-6.46-6.874
			c-0.57-0.61-1.191-1.216-1.599-1.93c-0.827-1.454-2.129-1.93-3.658-2.063c-0.899-0.078-1.736,0.438-1.838,1.33
			c-0.105,0.921-0.165,1.905,0.05,2.791c0.797,3.268,1.16,6.604,1.453,9.93c0.417,4.725,1.38,9.311,2.755,13.827
			c0.12,0.399,0.271,0.794,0.333,1.204c0.013,0.096-0.33,0.371-0.428,0.336c-1.274-0.455-2.578-0.867-3.792-1.454
			c-2.467-1.198-5.058-2.005-7.72-2.588c-1.924-0.421-3.541,0.136-4.6,1.88c-0.542,0.896-1.04,1.824-1.465,2.779
			c-1.664,3.742-3.706,7.281-5.785,10.8c-0.524,0.885-1.219,1.669-1.834,2.502c-0.812-0.142-1.619-0.313-2.437-0.413
			c-0.517-0.062-1.047-0.014-1.569-0.018c-1.05-0.01-2.099-0.016-3.146-0.034c-4.93-0.09-9.856-0.216-14.786-0.265
			c-1.99-0.019-3.985,0.098-5.973,0.209c-1.34,0.074-2.042,0.833-2.172,2.211c-0.041,0.418-0.045,0.841-0.031,1.258
			c0.159,4.5,0.324,9.001,0.49,13.502c0.008,0.208,0.025,0.42,0.069,0.623c0.423,1.873,1.585,2.902,3.478,3.065
			c0.521,0.044,1.047,0.056,1.572,0.058c4.573,0.017,9.148,0.028,13.721,0.042c0.01-0.028,0.024-0.054,0.033-0.081
			c0.066-0.031,0.135-0.059,0.197-0.096c0.039-0.061,0.079-0.121,0.118-0.182c-0.024,0.056-0.034,0.129-0.076,0.161
			c-0.012,0.01-0.029,0.013-0.042,0.021c-0.039,0.059-0.077,0.118-0.115,0.177h-0.115c-0.791,2.266-2.121,4.241-3.415,6.234
			c-1.655,2.552-3.198,5.167-4.456,7.942c-0.777,1.717-1.573,3.423-2.334,5.147c-0.206,0.469-0.367,0.973-0.453,1.474
			c-0.997,5.875-2.012,11.746-2.935,17.631c-0.224,1.438-0.228,2.929-0.161,4.386c0.081,1.811,0.622,2.169,2.43,1.818
			c0.501-0.098,1.015-0.271,1.459-0.521c1.194-0.676,2.235-1.527,3.033-2.682c2.217-3.205,4.846-6.05,7.645-8.751
			c0.901-0.87,1.717-1.839,2.517-2.808c1.074-1.304,2.261-2.472,3.628-3.467c0.846-0.618,1.625-1.327,2.482-1.926
			c0.651-0.454,1.116-1.053,1.136-1.792c0.044-1.751,0.788-3.258,1.537-4.745c2.919-5.809,5.945-11.555,9.663-16.909
			c0.654-0.941,1.152-1.428,2.469-1.263c1.85,0.228,3.762,0.011,5.644-0.085c1.25-0.065,2.49-0.299,3.74-0.377
			c1.57-0.1,3.163,0.016,4.714-0.203c2.104-0.298,4.146-0.114,6.238,0.121c2.178,0.245,4.396,0.159,6.597,0.12
			c0.934-0.018,1.56,0.232,2.104,1.021c1.187,1.725,2.416,3.429,3.726,5.062c0.855,1.066,1.669,2.133,2.341,3.332
			c0.608,1.088,1.267,2.256,2.201,3.029c1.242,1.031,2.102,2.264,2.954,3.585c0.848,1.315,1.78,2.609,2.867,3.729
			c1.97,2.023,4.073,3.92,6.145,5.846c0.33,0.305,0.584,0.54,0.414,1.024c-0.207,0.593-0.438,1.19-0.542,1.805
			c-0.354,2.179-0.599,4.355,0.249,6.499c0.941,2.383,2.618,4.095,4.969,4.966c2.723,1.009,4.652,2.753,5.918,5.315
			c0.18,0.372,0.429,0.729,0.718,1.021c1.358,1.371,3.371,1.015,4.127-0.758c0.49-1.148,0.923-2.331,1.274-3.528
			c0.5-1.703,0.835-3.457,1.367-5.149C116.018,102.877,116.02,101.014,115.795,99.131z M105.309,55.348
			c0.117-3.612,0.031-3.339,3.323-3.289c0.576,0.008,0.809,0.363,0.722,1.022c-0.053,0.409-0.11,0.821-0.166,1.23
			c-0.147,1.082-0.147,1.082-1.415,0.993c-1.005-0.068-1.302,0.141-1.792,1.297c-0.118,0.277-0.212,0.566-0.317,0.85
			c-0.113-0.333-0.247-0.66-0.331-1.001c-0.05-0.195-0.02-0.413-0.021-0.62C105.307,55.623,105.309,55.416,105.309,55.348z
			 M104.838,62.679c0.006-0.098,0-0.202,0.035-0.29c0.047-0.121,0.128-0.23,0.193-0.346c0.044,0.089,0.112,0.171,0.122,0.263
			c0.03,0.291,0.04,0.588,0.063,0.965c-0.071,0.14-0.177,0.341-0.28,0.542c-0.052-0.182-0.13-0.36-0.15-0.546
			C104.798,63.073,104.828,62.874,104.838,62.679z M101.323,52.357c0.016-0.084,0.343-0.117,0.526-0.174
			c0.117,0.166,0.356,0.357,0.326,0.489c-0.139,0.598-0.336,1.184-0.546,1.762c-0.065,0.182-0.235,0.325-0.358,0.487
			c-0.07-0.148-0.21-0.302-0.201-0.443C101.126,53.768,101.203,53.058,101.323,52.357z M9.018,52.122
			c-0.146,0.708-0.325,1.413-0.524,2.111c-0.125,0.433-0.312,0.848-0.471,1.271C7.917,55.003,7.792,54.505,7.712,54
			c-0.05-0.305-0.034-0.622-0.048-0.935h0.038c0-0.415-0.017-0.831,0.002-1.246c0.021-0.479,0.471-0.873,0.789-0.708
			C8.902,51.322,9.107,51.676,9.018,52.122z M97.332,60.936c0.624-0.686,0.502-1.557,0.504-2.386
			c0.004-1.565-0.048-3.134,0.012-4.697c0.022-0.602,0.258-1.202,0.455-1.784c0.05-0.147,0.329-0.316,0.484-0.299
			c0.138,0.014,0.295,0.257,0.356,0.429c0.068,0.189,0.04,0.412,0.078,0.991c-0.115,0.669-0.231,1.708-0.482,2.713
			c-0.566,2.269-0.417,4.561-0.259,6.848c0.035,0.494,0.37,0.961,0.5,1.457c0.03,0.116-0.174,0.381-0.319,0.432
			c-0.159,0.055-0.474,0.002-0.552-0.116c-0.347-0.511-0.632-1.064-0.938-1.604C96.773,62.22,96.756,61.57,97.332,60.936z
			 M91.844,50.643c0.245-0.219,0.95,0.08,1.197,0.112c0.656,0.109,1.091,0.115,1.468,0.269c0.231,0.094,0.555,0.438,0.524,0.622
			c-0.178,1.118-0.444,2.218-0.693,3.325c-0.017,0.08-0.134,0.201-0.197,0.195c-0.182-0.018-0.463-0.029-0.525-0.145
			c-0.51-0.901-1.036-1.803-1.431-2.754C91.975,51.754,91.226,51.195,91.844,50.643z M16.37,53.875
			c-0.155,0.605-0.308,1.21-0.482,1.81c-0.056,0.195-0.174,0.369-0.264,0.553c-0.085-0.17-0.219-0.335-0.241-0.513
			c-0.052-0.416-0.052-0.835-0.045-0.662c0-0.803-0.019-1.013,0.004-1.222c0.079-0.694-0.162-1.507,0.676-1.934
			c0.089-0.048,0.255-0.103,0.297-0.065C16.998,52.495,16.546,53.189,16.37,53.875z M20.802,53.655
			c-0.794,2.494-1.172,5.048-1.139,7.671c0.011,0.822-0.1,1.649-0.195,2.471c-0.006,0.067-0.301,0.131-0.466,0.14
			c-0.064,0.004-0.201-0.146-0.197-0.218c0.113-1.861,0.243-3.722,0.326-4.939c0-2.419-0.012-4.188,0.008-5.957
			c0.005-0.505,0.557-0.789,1.175-0.664c0.494,0.1,0.659,0.438,0.632,0.893C20.934,53.253,20.865,53.456,20.802,53.655z
			 M23.103,64.226c-0.044-0.923,0.265-1.86,0.291-2.793c0.077-2.618,0.088-5.239,0.122-7.858c0.018-1.221,0.215-1.406,1.509-1.402
			h1.015c1.074,0.116,2.217,0.307,3.361,0.344c0.701,0.025,1.519-0.562,2.087,0.045c0.742,0.794-0.084,1.562-0.383,2.271
			c-0.649,1.533-1.413,3.02-2.139,4.52c-0.034,0.071-0.184,0.151-0.241,0.129c-0.082-0.035-0.178-0.151-0.184-0.241
			c-0.058-0.827-0.076-1.66-0.144-2.487c-0.058-0.723-0.109-1.454-0.261-2.164c-0.154-0.725-0.75-1.189-1.294-1.146
			c-0.63,0.05-0.897,0.517-1.047,1.019c-0.355,1.202-0.676,2.414-0.965,3.634c-0.191,0.812-0.319,1.64-0.449,2.467
			c-0.267,1.679-0.395,3.335,0.734,4.814c0.376,0.492,0.171,0.973-0.218,1.397c-0.233,0.259-0.66,0.259-0.651-0.022
			C24.287,65.69,23.146,65.162,23.103,64.226z M25.842,93.324c-0.704,0.77-1.428,1.521-2.142,2.28
			c-1.503,1.597-3.008,3.189-4.505,4.788c-0.969,1.035-1.402,1.079-2.695,0.234c-0.088-0.055-0.172-0.116-0.256-0.178
			c-0.437-0.327-0.775-0.698-0.51-1.426c0.063-0.498,0.042-1.15,0.235-1.734c0.602-1.82,0.644-3.69,0.647-5.572
			c0-0.414,0.02-0.855,0.174-1.226c0.1-0.235,0.516-0.557,0.697-0.507c2.703,0.74,5.393,1.529,8.08,2.329
			C25.981,92.437,26.121,93.021,25.842,93.324z M40.838,68.738c-3.95,5.687-7.285,11.727-9.895,18.152
			c-0.305,0.75-0.666,0.903-1.443,0.67c-2.504-0.748-5.01-1.485-7.51-2.243c-1.847-0.558-1.962-0.737-1.07-2.318
			c1.541-2.733,3.117-5.45,4.758-8.126c2.074-3.391,4.236-6.727,6.342-10.096c0.666-1.064,1.334-2.135,1.9-3.251
			c3.421-6.739,7.617-12.999,11.899-19.202c0.77-1.113,1.746-2.084,2.636-3.114c0.06-0.069,0.189-0.076,0.287-0.108
			c0.044,0.162,0.175,0.363,0.123,0.485c-1.854,4.323-3.107,8.894-5.437,13.02c-0.249,0.44-0.416,0.974-0.44,1.474
			c-0.018,0.361,0.16,0.889,0.433,1.07c0.275,0.184,0.79,0.1,1.167,0.006c0.282-0.067,0.514-0.337,0.916-0.622
			c0.385-0.686,0.88-1.487,1.297-2.324c1.734-3.485,2.774-7.211,3.699-10.973c0.15-0.606,0.302-1.218,0.395-1.836
			c0.074-0.507,0.194-1.066,0.055-1.527c-0.216-0.706-0.672-1.397,0.146-1.945c0.618-0.413,1.189,0.058,1.75,0.312
			c1.332,0.606,2.676,1.188,4.001,1.809c0.783,0.368,0.961,1.04,0.497,1.815c-0.535,0.897-1.15,1.753-1.651,2.67
			c-2.562,4.681-5.142,9.355-7.631,14.074C45.861,60.78,43.531,64.859,40.838,68.738z M50.396,64.209
			c-0.356,0.178-0.762,0.277-1.158,0.334c-0.102,0.016-0.245-0.246-0.475-0.495c0.291-0.368,0.555-0.796,0.915-1.122
			c0.268-0.243,1.133,0.257,1.158,0.697C50.848,63.814,50.6,64.105,50.396,64.209z M59.637,63.062
			c-0.016,0.011-0.207-0.131-0.207-0.201c0.004-0.609,0.027-1.216,0.062-1.82c0.006-0.093,0.098-0.177,0.149-0.267
			c0.082,0.128,0.212,0.249,0.239,0.389c0.094,0.503,0.153,1.013,0.22,1.474C59.9,62.828,59.78,62.959,59.637,63.062z
			 M60.688,54.748c-0.056,0.351-0.111,0.758-0.189,1.162c-0.02,0.092-0.117,0.166-0.176,0.251c-0.087-0.151-0.251-0.307-0.247-0.458
			c0.013-0.608,0.058-1.221,0.147-1.822c0.017-0.116,0.295-0.211,0.465-0.273c0.042-0.016,0.215,0.14,0.207,0.201
			C60.852,54.105,60.768,54.398,60.688,54.748z M63.459,62.633c-0.059-0.08-0.182-0.174-0.166-0.239
			c0.038-0.184,0.134-0.354,0.205-0.53c0.055,0.182,0.134,0.362,0.154,0.55C63.658,62.479,63.528,62.559,63.459,62.633z
			 M64.298,57.126c-0.021,0.098-0.082,0.188-0.126,0.281c-0.093-0.144-0.255-0.279-0.265-0.427c-0.032-0.51-0.012-1.026-0.012-2.187
			c-0.019,0.138,0.02-0.373,0.132-0.865c0.035-0.149,0.267-0.27,0.43-0.367c0.204-0.122,0.545,0.293,0.484,0.574
			C64.727,55.133,64.516,56.131,64.298,57.126z M66.049,49.357c-0.186,0.182-0.572,0.267-0.848,0.227
			c-0.4-0.054-0.771-0.281-1.172-0.391c-0.289-0.077-0.708-0.229-0.882-0.096c-1.222,0.92-2.634,0.473-3.955,0.641
			c-0.411,0.054-0.819,0.165-1.218,0.289c-0.978,0.307-1.342,0.965-1.068,1.918c0.056,0.197,0.155,0.391,0.265,0.567
			c0.367,0.581,0.301,1.173,0.132,1.807c-0.724,2.726-1.504,5.44-1.713,8.277c-0.052,0.7-0.429,0.937-1.342,0.977
			c-0.854,0.036-1.258-0.339-1.08-1.057c0.477-1.926,0.99-3.846,1.459-5.775c0.195-0.81,0.542-1.675,0.413-2.448
			c-0.206-1.256,0.203-2.232,0.761-3.262c1.787-3.318,3.535-6.658,5.306-9.983c0.144-0.272,0.318-0.546,0.546-0.745
			c0.088-0.076,0.475-0.008,0.526,0.096c1.37,2.703,2.726,5.414,4.041,8.144C66.321,48.749,66.218,49.189,66.049,49.357z
			 M69.23,56.016c-0.333,2.155-0.768,4.292-1.175,6.434c-0.018,0.086-0.13,0.153-0.199,0.229c-0.073-0.077-0.199-0.148-0.205-0.23
			c-0.088-0.921-0.157-1.844-0.251-3.017c0.213-1.529,0.45-3.285,0.713-5.036c0.026-0.186,0.197-0.351,0.302-0.525
			c0.161,0.217,0.387,0.41,0.47,0.653C69.051,55.009,69.304,55.545,69.23,56.016z M72.647,63.295
			c-0.162,0.081-0.397,0.073-0.582,0.031c-0.475-0.109-0.576-0.504-0.622-0.919c-0.011-0.1-0.002-0.203-0.002-0.305
			c0.033-0.196,0.021-0.421,0.115-0.583c0.063-0.107,0.371-0.213,0.413-0.169c0.272,0.279,0.576,0.57,0.718,0.919
			C72.814,62.574,73.228,63.006,72.647,63.295z M90.255,75.162c-0.622,0.459-1.146,0.317-1.627-0.309
			c-0.764-0.997-1.485-2.029-2.257-3.021c-0.437-0.561-0.536-1.108-0.151-1.721c0.054-0.088,0.094-0.191,0.113-0.291
			c0.335-1.818-0.396-2.872-2.305-2.817c-0.929,0.026-1.323-0.278-1.74-0.923c-0.735-1.138-1.145-1.425,0.012-2.713
			c0.467-0.522,0.758-1.246,0.993-1.924c0.249-0.714-0.119-1.537-0.722-1.928c-0.576-0.373-1.179-0.383-1.78-0.05
			c-0.182,0.102-0.341,0.245-0.522,0.347c-1.061,0.588-1.78,0.339-2.02-0.779c-0.079-0.362,0.008-0.859,0.216-1.16
			c0.592-0.857,1.346-1.604,1.918-2.47c0.533-0.802,0.41-1.757-0.122-2.337c-0.686-0.746-1.725-1.026-2.571-0.588
			c-0.645,0.335-1.223,0.801-1.835,1.2c-0.381,0.251-0.761,0.123-1.015-0.293c-0.466-0.762-0.674-1.525-0.153-2.354
			c0.279-0.443,0.578-0.881,0.788-1.357c0.676-1.519-0.325-2.996-2.03-3.023c-0.203-0.004-0.417,0.06-0.609,0.139
			c-0.429,0.178-0.796,0.164-1.104-0.225c-0.354-0.441-0.503-0.963-0.25-1.459c0.329-0.65,0.78-1.24,1.158-1.867
			c0.39-0.647,0.688-1.307,0.164-2.039c-0.546-0.758-1.061-0.931-2.169-0.662c-0.1,0.022-0.188,0.094-0.285,0.134
			c-0.431,0.184-0.806,0.104-1.101-0.267c-0.356-0.445-0.465-0.936-0.155-1.443c0.6-0.979,1.242-1.936,1.822-2.929
			c0.293-0.499,0.091-1.267-0.389-1.702c-0.427-0.387-0.93-0.443-1.456-0.216c-0.189,0.08-0.36,0.209-0.54,0.313
			c-0.419,0.248-0.743,0.757-1.348,0.527c-0.433-0.163-0.465-1.266-0.014-2.018c0.433-0.719,0.919-1.403,1.384-2.103
			c0.23-0.351,0.498-0.678,0.686-1.049c0.416-0.817,0.312-1.82-0.203-2.358c-0.511-0.536-1.468-0.582-2.317-0.023
			c-0.518,0.342-0.95,0.809-1.431,1.207c-0.379,0.312-0.779,0.206-1.015-0.25c-0.048-0.094-0.118-0.176-0.156-0.273
			c-1.591-4.016-2.581-8.174-2.88-11.922c0-0.984-0.009-1.403,0.008-1.822c0.004-0.09,0.09-0.237,0.163-0.255
			c0.165-0.036,0.351-0.032,0.519,0c0.088,0.018,0.163,0.127,0.233,0.203c4.646,5.124,9.37,10.188,12.974,16.152
			c0.867,1.435,1.784,2.843,2.559,4.327c3.877,7.433,8.071,14.701,11.54,22.343c1.3,2.86,2.596,5.726,3.966,8.553
			c0.728,1.503,1.595,2.937,2.434,4.384c0.254,0.442,0.233,0.797-0.147,1.093C93.751,72.495,92.022,73.856,90.255,75.162z
			 M98.917,88.27c-0.144,0.024-0.357-0.079-0.469-0.191c-0.285-0.291-0.469-0.749-0.804-0.91c-0.768-0.365-1.248-0.734-0.62-1.587
			c0.212-1.248,0.059-1.864-1.126-2.224c-1.143-0.347-1.637-1.216-2.316-1.967c-0.355-0.391-0.158-0.773,0.215-1.035
			c0.597-0.418,1.202-0.829,1.838-1.186c0.857-0.482,1.474-1.422,2.602-1.406c0.11,0.921,0.184,1.849,0.342,2.762
			c0.335,1.943,0.536,3.919,1.377,5.749C100.225,86.864,99.517,88.168,98.917,88.27z M111.323,100.289
			c-0.162-0.067-0.339-0.119-0.489-0.207c-0.271-0.153-0.508-0.373-0.793-0.477c-0.151-0.054-0.509,0.04-0.54,0.14
			c-0.333,1.071-0.923,1.355-2.012,0.939c-0.475-0.18-0.997,0.231-1.242,0.743c-0.134,0.277-0.175,0.598-0.283,0.889
			c-0.071,0.184-0.193,0.346-0.291,0.521c-0.163-0.127-0.368-0.223-0.482-0.384c-0.688-0.964-0.967-2.066-1.019-3.23
			c-0.028-0.624-0.004-1.252-0.004-1.878c-0.056-0.008-0.111-0.016-0.166-0.023c0.262-1.642,0.513-3.286,0.796-4.925
			c0.052-0.299,0.209-0.592,0.367-0.855c0.739-1.22,2.567-1.245,3.404-0.021c1.252,1.832,2.012,3.876,2.484,6.033
			c0.155,0.711,0.277,1.431,0.383,2.152C111.463,99.891,111.365,100.092,111.323,100.289z M39.805,59.124
			c-0.57-0.3-1.388-0.159-1.723,0.295c-0.433,0.584-0.821,1.208-1.166,1.85c-1.38,2.578-2.72,5.178-4.106,7.755
			c-1.434,2.67-2.848,5.348-3.856,8.218c-0.484,1.376-1.028,2.743-1.008,4.239c0.002,0.105-0.002,0.211,0.002,0.314
			c0.004,0.105-0.017,0.221,0.021,0.312c0.115,0.27,0.195,0.681,0.395,0.754c0.218,0.078,0.686-0.071,0.812-0.27
			c0.666-1.055,1.313-2.129,1.868-3.245c1.533-3.084,3.026-6.188,4.518-9.296c1.537-3.2,3.056-6.411,4.573-9.619
			c0.086-0.184,0.201-0.425,0.147-0.588C40.193,59.574,40.032,59.243,39.805,59.124z"/>
	</g>
</g>
</svg>
