<?xml version="1.0" encoding="utf-8"?>
<!-- Generator: Adobe Illustrator 16.0.0, SVG Export Plug-In . SVG Version: 6.00 Build 0)  -->
<!DOCTYPE svg PUBLIC "-//W3C//DTD SVG 1.1//EN" "http://www.w3.org/Graphics/SVG/1.1/DTD/svg11.dtd">
<svg version="1.1" id="Layer_1" xmlns="http://www.w3.org/2000/svg" xmlns:xlink="http://www.w3.org/1999/xlink" x="0px" y="0px"
	 width="120px" height="120px" viewBox="0 0 120 120" style="enable-background:new 0 0 120 120;" xml:space="preserve">
<g id="google_play">
	<g>
		<path style="fill-rule:evenodd;clip-rule:evenodd;" d="M105.969,59.495c-0.166-0.395-0.383-0.766-0.543-1.162
			c-0.74-1.846-1.959-3.244-3.637-4.348c-1.867-1.23-3.604-2.664-5.428-3.967c-0.514-0.363-1.135-0.572-1.703-0.859
			c-2.002-1.012-4.049-1.943-5.992-3.061c-2.961-1.703-5.822-3.574-8.943-5.002c-1.062-0.486-2.049-1.143-3.062-1.736
			c-3.41-2.004-6.814-4.01-10.439-5.621c-1.357-0.604-2.631-1.414-3.896-2.207c-3.168-1.988-6.293-4.035-9.736-5.557
			c-2.055-0.906-3.887-2.211-5.676-3.592c-1.857-1.434-3.852-2.688-5.793-4.01c-2.119-1.443-4.27-2.841-6.365-4.317
			c-2.457-1.728-4.969-3.355-7.873-4.225c-3.312-0.992-6.529-0.865-9.545,1.049c-1.316,0.836-2.277,1.962-2.773,3.424
			c-0.445,1.314-0.709,2.667-0.684,4.085c0.053,2.996-0.029,5.982-0.49,8.959c-0.162,1.035,0.004,2.129,0.064,3.193
			c0.041,0.744,0.188,1.484,0.229,2.229c0.33,6.084,0.365,12.178,0.59,18.266c0.291,8.012,0.07,16.043,0.07,24.066h0.223
			c0,7.811,0.117,15.623-0.055,23.428c-0.072,3.273,0.645,6.346,1.393,9.445c0.139,0.576,0.549,1.279,1.041,1.543
			c1.693,0.904,3.447,1.682,5.477,1.002c3.145-1.055,6.248-2.217,9.148-3.828c2.428-1.348,4.768-2.854,7.143-4.293
			c4.572-2.768,9.125-5.562,14.004-7.783c1.846-0.84,3.596-1.887,5.406-2.807c2-1.014,4.027-1.969,6.025-2.986
			c1.709-0.875,3.416-1.764,5.082-2.721c3.986-2.287,7.91-4.684,11.928-6.91c2.99-1.658,6.027-3.256,9.154-4.631
			c3.141-1.379,5.58-3.988,8.957-4.918c0.385-0.105,0.729-0.443,1.039-0.734c1.023-0.959,2.186-1.695,3.432-2.332
			c1.52-0.779,2.25-2.148,2.801-3.732C106.994,61.538,106.416,60.563,105.969,59.495z M29.744,19.073
			c0.299,0.031,0.59,0.227,0.867,0.379c2.152,1.188,4.303,2.377,6.447,3.576c1.678,0.938,3.377,1.84,5.016,2.846
			c1.539,0.945,3.014,2.004,4.512,3.02c0.969,0.658,1.863,1.467,2.908,1.963c2.912,1.387,5.559,3.189,8.17,5.041
			c2.189,1.553,4.504,2.836,6.904,4.031c3.15,1.568,6.193,3.359,9.27,5.076c1.303,0.727,2.59,1.492,3.855,2.285
			c0.225,0.141,0.309,0.51,0.41,0.691c-0.041,0.225-0.037,0.34-0.084,0.43c-0.148,0.281-0.25,0.639-0.482,0.814
			c-3.023,2.256-5.16,5.393-7.896,7.932c-0.6,0.557-1.043,0.545-1.646-0.07c-2.771-2.822-5.498-5.689-8.311-8.473
			c-1.896-1.875-3.941-3.602-5.861-5.455c-2.152-2.08-4.322-4.15-6.33-6.365c-2.301-2.537-4.66-4.992-7.26-7.229
			c-3.729-3.203-7.389-6.484-11.068-9.742c-0.139-0.123-0.189-0.348-0.279-0.525C29.172,19.216,29.467,19.046,29.744,19.073z
			 M37.539,88.981c-0.896,0.758-1.717,1.609-2.529,2.459c-1.715,1.787-3.734,3.195-5.734,4.621
			c-1.375,0.979-2.896,0.469-3.561-1.129c-0.082-0.199-0.221-0.391-0.238-0.594c-0.186-2.268-1.139-4.324-1.74-6.477
			c-0.115-0.41-0.207-0.828-0.281-1.248c-0.121-0.686,0.08-1.26,0.648-1.689c0.682-0.516,1.395-0.996,2.025-1.566
			c0.383-0.35,0.693-0.811,0.943-1.275c0.408-0.75-0.217-1.875-1.082-1.941c-0.52-0.041-1.057,0.027-1.58,0.102
			c-1.17,0.162-1.432,0.033-1.523-0.875c-0.053-0.531-0.037-1.07-0.1-1.6c-0.141-1.189,0.082-2.012,1.459-2.396
			c0.879-0.244,1.664-0.928,2.414-1.512c0.629-0.486,0.721-1.383,0.365-2.045c-0.439-0.816-1.211-1.148-2.135-0.883
			c-0.512,0.148-1.012,0.338-1.506,0.539c-0.43,0.172-0.652-0.141-0.68-0.404c-0.195-1.695-0.322-3.396-0.496-5.096
			c-0.117-1.152,0.166-2,1.238-2.693c1.061-0.688,1.934-1.672,2.871-2.545c0.23-0.215,0.436-0.479,0.588-0.754
			c0.391-0.701,0.406-1.426,0.01-2.137c-0.414-0.744-1.123-0.939-1.904-0.947c-0.783-0.008-1.42,0.367-2.061,0.783
			c-0.559,0.363-0.93,0.117-0.965-0.59c-0.041-0.748-0.031-1.498-0.064-2.246c-0.037-0.82,0.301-1.402,0.965-1.893
			c0.771-0.57,1.488-1.221,2.197-1.869c0.393-0.357,0.75-0.762,1.082-1.18c0.43-0.539,0.451-1.277,0.094-1.789
			c-0.41-0.588-1.025-0.842-1.672-0.674c-0.707,0.184-1.365,0.555-2.037,0.857c-0.609,0.277-0.986,0.047-1.01-0.678
			c-0.027-0.748-0.008-1.496-0.008-2.332c-0.48-2.084,0.377-3.578,2.23-4.723c0.982-0.605,1.871-1.428,2.402-2.529
			c0.24-0.5,0.406-0.984,0.09-1.512c-0.379-0.623-0.961-0.814-1.641-0.754c-0.314,0.025-0.646,0.078-0.932,0.207
			c-0.484,0.219-0.934,0.514-1.406,0.76c-0.789,0.412-1.238,0.18-1.291-0.625c-0.109-1.645,0.197-3.188,1.07-4.604
			c0.559-0.908,1.156-1.801,1.658-2.74c0.771-1.447,0.238-2.373-1.453-2.635c-1.238-0.189-1.309-0.234-1.314-1.283
			c-0.006-1.277-0.104-2.562,0.375-3.805c0.281-0.727,0.914-0.979,1.475-0.48c1.357,1.205,2.693,2.439,4.051,3.643
			c3.281,2.904,6.627,5.74,9.842,8.717c2.43,2.248,4.775,4.604,7.02,7.035c2.322,2.516,4.764,4.893,7.256,7.238
			c4.588,4.326,8.977,8.863,13.426,13.334c0.867,0.871,0.824,1.145-0.143,2.119c-1.654,1.672-3.264,3.402-5.021,4.959
			c-3.049,2.699-5.713,5.768-8.555,8.664C46.404,80.622,42.199,85.034,37.539,88.981z M73.672,76.499
			c-5.295,2.771-10.746,5.203-16.219,7.598c-2.828,1.238-5.547,2.723-8.328,4.07c-1.533,0.74-3.092,1.43-4.594,2.121
			c-0.166-0.107-0.279-0.148-0.336-0.229c-0.035-0.053-0.025-0.189,0.02-0.242c0.42-0.48,0.832-0.969,1.281-1.422
			c3.371-3.42,6.771-6.818,10.127-10.254c3.65-3.74,7.268-7.52,10.904-11.275c0.371-0.383,0.748-0.779,1.191-1.062
			c0.188-0.121,0.662-0.08,0.818,0.076c2.178,2.189,4.352,4.395,6.014,7.025c0.482,0.768,1.479,1.26,1.348,2.377
			C75.158,75.688,74.42,76.108,73.672,76.499z M96.727,62.896c-0.412,1.613-1.252,2.859-2.818,3.662
			c-3.604,1.85-7.152,3.814-10.732,5.717c-0.271,0.145-0.617,0.148-0.902,0.213c-0.225-0.098-0.447-0.148-0.607-0.275
			c-0.418-0.332-0.838-0.67-1.201-1.057c-2.783-2.953-5.553-5.918-8.322-8.883c-0.35-0.375-0.309-0.775,0.025-1.125
			c1.988-2.086,3.932-4.219,5.998-6.225c1.225-1.193,2.516-2.293,3.496-3.721c0.625-0.906,1.514-0.979,2.547-0.381
			c1.016,0.59,2.041,1.168,3.01,1.83c1.869,1.277,3.904,2.184,6.055,2.859c0.605,0.189,1.213,0.42,1.754,0.744
			c0.748,0.447,1.303,1.109,1.525,1.982c0.211,0.826,0.502,1.654,0.543,2.492C97.133,61.444,96.908,62.185,96.727,62.896z"/>
	</g>
</g>
</svg>
