<?xml version="1.0" encoding="utf-8"?>
<!-- Generator: Adobe Illustrator 16.0.0, SVG Export Plug-In . SVG Version: 6.00 Build 0)  -->
<!DOCTYPE svg PUBLIC "-//W3C//DTD SVG 1.1//EN" "http://www.w3.org/Graphics/SVG/1.1/DTD/svg11.dtd">
<svg version="1.1" id="Layer_1" xmlns="http://www.w3.org/2000/svg" xmlns:xlink="http://www.w3.org/1999/xlink" x="0px" y="0px"
	 width="120px" height="120px" viewBox="0 0 120 120" style="enable-background:new 0 0 120 120;" xml:space="preserve">
<g id="gamecenter">
	<g>
		<path style="fill-rule:evenodd;clip-rule:evenodd;" d="M107.13,72.122c-0.109-1.732-0.226-3.466-0.371-5.194
			c-0.094-1.111,0.438-2.135,0.487-3.159c0.053-1.123-0.605-2.265-0.841-3.421c-0.128-0.625-0.073-1.305-0.011-1.949
			c0.742-7.594,0.804-15.173-0.143-22.762c-0.551-4.43-1.779-8.702-2.697-13.047c-0.106-0.508-0.446-0.982-0.731-1.437
			c-1.003-1.596-2.353-2.86-3.958-3.814c-2.536-1.509-5.297-2.521-8.146-3.233c-2.628-0.656-5.291-1.183-7.954-1.681
			c-2.13-0.397-4.275-0.738-6.427-0.977c-3.017-0.335-6.084-0.345-9.061-0.875c-3.355-0.6-6.701-0.598-10.066-0.56
			c-0.756,0.01-1.573,0.012-2.247,0.291c-1.598,0.663-3.233,0.542-4.825,0.314c-3.794-0.542-7.597-0.312-11.393-0.296
			c-1.838,0.006-3.698,0.224-5.501,0.583c-2.694,0.534-5.286,1.553-7.241,3.507c-2.218,2.219-4.73,4.093-6.8,6.506
			c-3.464,4.038-5.517,8.532-5.707,13.847c-0.099,2.717-0.103,5.436-0.19,8.152c-0.083,2.594,0.328,5.218-0.454,7.774
			c-0.062,0.2-0.03,0.431-0.03,0.646c-0.001,4.347-0.001,8.692-0.001,12.827C12.35,71.455,13.18,78.484,13.58,85.53
			c0.021,0.325,0.061,0.65,0.109,0.972c0.364,2.358,0.604,4.742,1.133,7.062c0.673,2.955,1.498,5.883,2.41,8.774
			c0.738,2.34,2.468,3.66,4.828,4.414c4.047,1.292,8.163,2.143,12.357,2.79c4.044,0.621,8.003,0.635,11.917-0.594
			c0.869-0.271,1.717-0.383,2.552-0.089c2.297,0.808,4.714,0.802,7.076,0.965c6.193,0.426,12.391,0.025,18.545-0.659
			c4.757-0.528,9.506-1.038,14.287-0.909c3.486,0.096,6.643-0.869,9.699-2.373c0.605-0.3,1.147-0.738,1.161-1.457
			c0.019-0.947,0.475-1.607,1.04-2.305c1.659-2.046,2.888-4.34,3.579-6.891c0.823-3.032,1.706-6.053,1.91-9.221
			c0.047-0.748,0.227-1.498,0.418-2.229C107.611,79.93,107.376,76.025,107.13,72.122z M20.12,41.438
			c-1.338,0.062-1.328,0.06-1.35-0.777c-0.058-2.193,0.49-4.307,0.907-6.429c0.161-0.817,0.661-1.583,1.083-2.334
			c0.478-0.849,1.074-1.631,1.552-2.48c0.392-0.69,0.532-1.482,0.03-2.159c-0.634-0.854-0.485-1.657,0.056-2.397
			c1.143-1.569,2.28-3.153,3.562-4.604c1.037-1.173,2.562-1.623,4.045-1.971c3.909-0.915,7.831-1.776,11.879-1.78
			c1.739-0.002,3.481,0.044,5.216-0.052c3.354-0.18,6.702-0.442,10.052-0.681c0.477-0.035,0.803,0.194,0.782,0.696
			c-0.076,1.844-0.151,3.689-0.277,5.531c-0.104,1.513-0.315,3.018-0.42,4.529c-0.743,10.74-0.549,21.495-0.572,32.248
			c-0.007,3.062,0.151,3.061-3.019,3.059c-5.977-0.004-11.953-0.028-17.929-0.067c-0.638-0.005-1.374,0.008-1.888-0.292
			c-0.901-0.523-1.624-0.407-2.41,0.127c-0.166,0.113-0.41,0.115-0.623,0.154c-0.713,0.134-1.146-0.131-1.454-0.893
			c-0.161-0.396-0.261-0.826-0.477-1.188c-0.325-0.55-1.288-0.582-1.69-0.088c-0.205,0.25-0.441,0.503-0.557,0.796
			c-0.764,1.917-2.342,2.045-4.045,1.828c-0.148-0.018-0.4-0.548-0.327-0.725c0.253-0.594,0.644-1.127,0.956-1.699
			c0.26-0.474,0.541-0.948,0.713-1.456c0.256-0.748,0.256-1.522-0.333-2.132c-0.627-0.648-1.357-0.52-2.086-0.139
			c-0.255,0.133-0.527,0.233-0.793,0.344c0.003,0.033,0,0.063,0.005,0.096c-0.031,0.007-0.051,0.019-0.078,0.027
			c0.005,0.463-0.114,0.867-0.538,1.117c-0.003,0.056-0.006,0.112-0.014,0.166c-0.077,0.033-0.159,0.057-0.23,0.103
			c-0.035,0.05-0.069,0.099-0.104,0.149c0.029-0.049,0.05-0.115,0.095-0.145c0.003-0.002,0.006-0.002,0.009-0.004
			c0.046-0.065,0.091-0.13,0.137-0.196c0.044-0.02,0.068-0.05,0.107-0.073c0.023-0.448-0.052-0.943,0.538-1.117
			c0-0.032,0.004-0.062,0.003-0.094c0.023-0.01,0.047-0.019,0.07-0.029c-0.114-1.131,0.607-1.979,1.041-2.92
			c0.409-0.887,0.907-1.732,1.3-2.625c0.29-0.655,0.091-1.283-0.379-1.805c-0.404-0.448-0.949-0.563-1.482-0.359
			c-0.393,0.151-0.698,0.51-1.08,0.703c-0.406,0.206-0.654,1.102-1.196,0.541c-0.284-0.291-0.232-1.049-0.118-1.55
			c0.143-0.617,0.525-1.177,0.772-1.774c0.538-1.3,1.091-2.596,1.57-3.917C21.378,42.023,20.83,41.406,20.12,41.438z
			 M47.196,103.945c-0.134-0.052-0.309-0.379-0.267-0.44c0.36-0.511,0.763-0.99,1.163-1.471c0.063-0.075,0.266-0.147,0.272-0.137
			c0.102,0.16,0.216,0.327,0.261,0.51c0.049,0.204,0.028,0.425,0.038,0.638C48.671,103.928,48.104,104.293,47.196,103.945z
			 M56.855,104.138c-0.637-0.06-0.961-0.385-0.963-1.034c0-0.216-0.012-0.44-0.069-0.645c-0.266-0.931-1.052-1.205-1.705-0.598
			c-0.631,0.59-1.233,1.211-1.881,1.782c-0.632,0.558-1.411,0.488-2.171,0.369c-0.115-0.018-0.305-0.317-0.279-0.351
			c0.261-0.346,0.578-0.646,0.842-0.989c0.795-1.029,1.634-2.034,2.326-3.132c0.252-0.395,0.214-1.025,0.175-1.541
			c-0.038-0.515-0.763-0.84-1.239-0.584c-0.505,0.273-0.783,0.891-1.553,0.143c-0.902-0.873-1.712-0.789-2.562,0.078
			c-1.52,1.548-3.035,3.119-4.358,4.834c-0.802,1.038-1.556,1.629-2.933,1.617c-2.166-0.014-4.348-0.016-6.485,0.517
			c-0.507,0.127-1.088,0.067-1.616-0.021c-2.142-0.357-4.277-0.742-6.408-1.154c-0.635-0.123-1.247-0.361-1.861-0.57
			c-1.896-0.643-2.967-1.877-3.478-3.901c-1.115-4.434-1.848-8.923-2.426-13.446c-0.069-0.535-0.06-1.085-0.062-1.629
			c-0.031-5.11-0.057-10.223-0.079-15.335c-0.002-0.435,0.01-0.869,0.041-1.302c0.042-0.58,0.455-0.945,1.086-0.947
			c2.826-0.004,5.654,0,8.48,0.002h4.242v0.056c2.61,0,5.222-0.014,7.832,0.004c2.171,0.017,4.334,0.109,6.506,0.267
			c2.692,0.194,5.424-0.052,8.135-0.181c2.156-0.102,2.38-0.038,2.302,1.994c-0.204,5.335,0.421,10.634,0.573,15.952
			c0.133,4.662,0.486,9.322,1.157,13.948c0.187,1.288,0.206,2.602,0.29,3.903C58.833,104.124,58.647,104.307,56.855,104.138z
			 M61.77,48.43c0.04-3.146-0.116-6.305,0.506-9.423c0.085-0.421,0.049-0.867,0.071-1.302c0.268-5.097,0.502-10.195,0.819-15.29
			c0.129-2.052,0.409-4.099,0.707-6.136c0.045-0.305,0.526-0.68,0.875-0.776c0.622-0.175,1.358-0.212,1.827,0.337
			c0.629,0.742,1.403,0.975,2.309,0.949c7.649-0.227,15.121,1.19,22.597,2.502c1.594,0.28,3.157,0.794,4.691,1.324
			c1.844,0.641,2.926,1.894,3.553,3.87c0.856,2.701,1.732,5.333,1.432,8.208c0.613,3.664,0.51,7.363,0.553,11.057
			c0.009,0.76-0.066,1.542,0.083,2.276c0.618,3.011,0.561,6.051,0.481,9.094c0,2.063,0.008,4.128-0.006,6.193
			c-0.002,0.542-0.413,0.844-0.85,0.562c-1.475-0.954-3.11-0.854-4.739-0.831c-3.912,0.054-7.823,0.095-11.735,0.188
			c-4.886,0.115-9.77,0.306-14.657,0.404c-2.391,0.05-4.782-0.018-7.173-0.061c-1.047-0.021-1.295-0.3-1.326-1.405
			c-0.027-0.979-0.02-1.959-0.021-2.936C61.764,54.3,61.731,51.365,61.77,48.43z M102.436,80.106c-0.17,1.177-0.126,2.386-0.2,3.576
			c-0.198,3.14-0.516,6.265-1.288,9.323c-0.158,0.629-0.402,1.236-0.59,1.857c-0.333,1.096-1.033,1.814-2.02,2.422
			c-1.473,0.902-2.896,1.915-4.215,3.03c-1.204,1.019-2.51,1.563-4.047,1.905c-2.682,0.598-5.391,0.562-8.095,0.713
			c-0.422,0.023-0.897,0.002-1.269-0.171c-0.659-0.31-1.207-0.317-1.818,0.108c-0.968,0.68-2.094,0.636-3.123,0.294
			c-1.514-0.502-2.938-0.56-4.412,0.1c-0.472,0.21-1.049,0.248-1.578,0.262c-1.411,0.038-2.824,0.042-4.235,0.015
			c-1.617-0.03-1.821-0.14-2.09-1.85c-0.387-2.463-0.681-4.942-0.915-7.423c-0.275-2.913-0.535-5.837-0.637-8.761
			c-0.108-3.147-0.023-6.299-0.023-9.448h-0.148c0-2.934-0.009-5.866,0.007-8.8c0.004-0.657,0.363-1.021,0.976-1.046
			c0.757-0.032,1.52-0.028,2.279-0.026c2.715,0.006,5.432,0.013,8.146,0.034c0.869,0.006,1.761-0.062,2.6,0.107
			c2.801,0.565,5.639,0.542,8.441,0.337c3.45-0.252,6.932-0.232,10.35-0.927c0.948-0.192,1.943-0.19,2.918-0.214
			c1.19-0.032,2.359,0.002,3.531-0.399c1.007-0.343,1.716,0.219,1.707,1.32C102.653,70.999,103.095,75.56,102.436,80.106z
			 M68.586,57.708c1.051,0.762,2.174,1.425,3.247,2.155c0.882,0.6,1.651,0.254,2.401-0.238c0.69-0.453,1.014-1.08,0.545-1.979
			c-0.916-1.757-0.237-2.82,1.188-3.751c0.451-0.296,0.859-0.659,1.301-0.973c2.023-1.444,4.076-2.853,6.071-4.339
			c1.214-0.902,2.304-1.971,3.512-2.879c1.294-0.977,2.62-1.928,4.007-2.767c3.197-1.934,4.464-5.194,5.869-8.359
			c0.21-0.473,0.17-1.058,0.256-1.659c-0.102-0.584-0.157-1.236-0.336-1.852c-0.514-1.782-1.41-2.473-3.25-2.664
			c-2.013-0.206-3.822,0.229-5.56,1.326c-2.348,1.482-4.106,3.515-5.691,5.72c-3.857,5.366-7.546,10.838-10.244,16.911
			c-0.347,0.779-0.947,0.954-1.892,0.692c-0.615-0.169-1.234-0.407-1.86-0.438c-1.192-0.06-1.984,1.104-1.605,2.223
			C66.938,56.001,67.6,56.991,68.586,57.708z M76.328,49.203c0.322-0.412,0.605-0.946,1.038-1.16
			c0.855-0.423,1.401-0.945,1.465-1.941c0.017-0.258,0.288-0.694,0.476-0.713c1.109-0.108,1.753-0.728,2.148-1.7
			c1.432-0.51,1.375-1.668,1.272-2.845c-0.026,0-0.052,0-0.078,0.001c-0.024-0.024-0.034-0.069-0.041-0.12
			c-0.115-0.045-0.231-0.09-0.347-0.135c0.348-0.31,0.321-0.047,0.347,0.135c0.038,0.015,0.075,0.029,0.113,0.044
			c0.002,0.025,0.004,0.049,0.006,0.074c0.512-0.018,1.032,0.015,1.525-0.087c0.721-0.15,0.964-0.865,0.544-1.46
			c-0.185-0.265-0.453-0.471-0.621-0.742c-0.097-0.155-0.139-0.415-0.074-0.574c0.044-0.105,0.334-0.187,0.488-0.156
			c0.521,0.101,1.022,0.337,1.543,0.371c0.688,0.043,1.2-0.738,0.934-1.35c-0.129-0.294-0.348-0.546-0.493-0.832
			c-0.134-0.262-0.386-0.615-0.302-0.806c0.181-0.417,0.535-0.131,0.814-0.006c0.197,0.089,0.39,0.278,0.58,0.27
			c0.401-0.014,0.924-0.004,1.163-0.239c0.234-0.232,0.224-0.757,0.233-1.155c0.005-0.187-0.18-0.388-0.305-0.562
			c-0.317-0.449-0.168-0.852,0.207-1.113c0.712-0.496,1.488-0.842,2.392-0.903c2.018-0.142,2.758,0.319,2.246,2.683
			c-0.179,0.824-0.486,1.759-1.052,2.332c-1.352,1.373-2.221,3.189-4.005,4.18c-0.727,0.405-1.215,1.219-1.864,1.788
			c-0.892,0.784-1.85,1.495-2.75,2.269c-1.146,0.982-2.253,2.011-3.4,2.993c-0.815,0.7-1.637,1.401-2.521,2.002
			c-0.311,0.213-0.818,0.147-1.239,0.173C76.525,49.934,76.188,49.385,76.328,49.203z M73.062,38.298
			c2.322,0.111,3.925-0.881,4.843-3.028c0.168-0.395,0.262-0.821,0.381-1.236c0.57-1.99,0.037-3.649-1.561-4.854
			c-1.518-1.144-5.561-1.185-7.104-0.058c-0.256,0.187-0.519,0.413-0.679,0.679c-0.852,1.423-1.352,2.943-0.938,4.614
			C68.489,36.373,70.9,38.195,73.062,38.298z M74.546,32.501c0.073-0.083,0.486-0.036,0.509,0.03
			c0.092,0.27,0.178,0.593,0.104,0.852c-0.077,0.273-0.339,0.492-0.512,0.724c-0.149-0.073-0.256-0.091-0.29-0.15
			C74.055,33.428,74.177,32.93,74.546,32.501z M29.375,40.144c0.422-0.083,0.824-0.264,1.238-0.391
			c0.623-0.19,1.242-0.397,1.874-0.546c0.154-0.035,0.424,0.079,0.518,0.213c0.108,0.15,0.173,0.444,0.098,0.599
			c-0.332,0.677-0.66,1.372-1.101,1.977c-1.171,1.618-1.882,3.41-2.247,5.356c-0.14,0.746-0.374,1.482-0.449,2.233
			c-0.086,0.856-0.374,1.399-1.291,1.613c-0.32,0.075-0.673,0.544-0.778,0.903c-0.315,1.058-0.264,2.146,0.048,3.213
			c0.183,0.627,0.772,1.086,1.457,1.088c2.605,0.01,5.212,0.004,7.819,0.004v0.079c1.738,0,3.475,0.006,5.214-0.002
			c0.976-0.004,1.954,0,2.929-0.056c0.651-0.038,1.232-0.734,1.151-1.34c-0.102-0.75-0.185-1.518-0.421-2.23
			c-0.114-0.344-0.52-0.752-0.861-0.826c-0.927-0.2-1.251-0.724-1.209-1.604c0.064-1.302,0.149-2.605,0.151-3.909
			c0.004-1.024,0.173-1.897,1.079-2.564c0.644-0.474,0.828-1.274,0.865-2.044c0.068-1.407,0.096-2.818,0.1-4.229
			c0.008-3.983-1.965-7.075-4.707-9.669c-2.188-2.072-4.864-3.238-7.994-3.015c-0.752,0.054-1.23,0.59-1.061,1.278
			c0.132,0.523,0.311,1.036,0.501,1.54c0.376,1.004,0.231,1.896-0.44,2.743c-1.013,1.275-2.029,2.554-2.953,3.894
			c-0.475,0.688-1.041,0.962-1.834,1.131c-0.842,0.181-1.201,0.871-1.178,1.711C25.951,39.269,27.461,40.515,29.375,40.144z
			 M43.89,38.377l0.075,0.213l-0.2-0.027L43.89,38.377z M43.249,35.037c0.161,0.004,0.323,0.063,0.512,0.107
			c-0.098,0.111-0.196,0.304-0.274,0.296c-0.153-0.017-0.295-0.144-0.442-0.223C43.111,35.154,43.182,35.035,43.249,35.037z
			 M40.336,29.826c0.047-0.01,0.129,0.135,0.193,0.208c-0.178,0.079-0.353,0.175-0.54,0.222c-0.043,0.013-0.128-0.143-0.194-0.222
			C39.975,29.959,40.15,29.869,40.336,29.826z M29.868,36.283c1.087-1.188,2.149-2.402,3.295-3.532
			c0.318-0.315,0.425,0.269,0.639,0.431c0.238,0.181,0.536,0.336,0.825,0.379c0.271,0.042,0.568-0.688,0.445-1.069
			c-0.065-0.202-0.129-0.417-0.245-0.59c-0.233-0.349-0.674-0.744-0.154-1.063c0.255-0.154,0.821,0.002,1.147,0.188
			c3.361,1.929,5.222,4.765,5.172,8.73c-0.02,1.623-0.003,3.249-0.003,4.874c0.034,0,0.069,0,0.104,0.002
			c-0.108,2.053-0.204,4.106-0.334,6.158c-0.033,0.534-0.592,0.988-1.143,0.934c-0.64-0.068-1.297-0.142-1.897-0.352
			c-0.905-0.32-1.78-0.736-2.645-1.159c-0.43-0.212-0.585-0.604-0.345-1.069c0.149-0.29,0.315-0.568,0.467-0.855
			c0.236-0.445,0.109-0.814-0.229-1.157c-0.277-0.28-0.527-0.588-0.79-0.884c0.314-0.059,0.628-0.133,0.944-0.174
			c0.428-0.056,0.857-0.078,1.283-0.133c0.099-0.015,0.271-0.125,0.265-0.159c-0.043-0.188-0.079-0.45-0.212-0.528
			c-0.363-0.216-0.781-0.341-1.165-0.527c-0.177-0.088-0.323-0.236-0.481-0.357c0.198-0.075,0.393-0.194,0.597-0.219
			c0.538-0.059,1.084-0.045,1.616-0.125c0.172-0.023,0.412-0.218,0.446-0.373c0.033-0.16-0.1-0.44-0.244-0.533
			c-0.261-0.171-0.59-0.234-0.884-0.357c-0.313-0.135-0.545-0.354-0.335-0.711c0.377-0.645,0.756-1.292,1.196-1.893
			c0.623-0.854,0.634-1.551-0.297-2.201c-0.234-0.165-0.312-0.558-0.452-0.852c-0.396-0.838-1.119-0.996-1.908-0.804
			c-1.363,0.329-2.703,0.75-4.061,1.102c-0.154,0.04-0.419-0.09-0.532-0.223c-0.118-0.143-0.135-0.383-0.164-0.585
			C29.777,36.496,29.805,36.355,29.868,36.283z M88.058,75.283c-2.33-0.867-4.696-0.738-7.065-0.422
			c-1,0.133-1.772,0.809-2.309,1.662c-0.141,0.225-0.176,0.649-0.053,0.865c0.127,0.223,0.578,0.488,0.762,0.415
			c1.453-0.569,2.969-0.518,4.482-0.613c1.977-0.121,3.674,0.58,5.096,1.79c1.677,1.432,3.045,3.09,2.25,5.617
			c-0.323,1.021-0.433,2.121-0.573,3.193c-0.25,1.893-1.199,3.443-2.224,4.999c-1.186,1.8-2.898,2.569-4.923,2.717
			c-2.465,0.179-4.749-0.388-6.65-2.068c-0.731-0.646-1.431-1.331-2.118-2.024c-1.407-1.419-1.965-3.144-1.418-5.061
			c0.431-1.51-0.215-2.734-0.688-4.035c-0.03-0.079-0.167-0.189-0.233-0.176c-0.198,0.037-0.394,0.115-0.575,0.208
			c-0.085,0.044-0.155,0.151-0.198,0.244c-2.17,4.712-1.68,9.263,0.843,13.685c0.725,1.271,1.845,2.073,3.144,2.719
			c1.534,0.764,3.156,0.692,5.404,0.777c1.957,0.236,4.29-0.712,6.635-1.56c2.924-1.054,4.953-3.08,6.07-5.966
			c1.656-4.279,1.372-8.469-0.675-12.572C91.963,77.522,90.305,76.119,88.058,75.283z M70.994,79.217
			c1.529-0.339,2.44,0.425,3.227,1.584c0.665,0.98,1.414,1.903,2.117,2.857c0.644,0.869,1.236,1.778,1.928,2.608
			c0.406,0.488,0.934,0.893,1.457,1.264c0.708,0.501,1.454-0.095,2.179-0.014c0.75,0.085,1.06,1.142,1.958,0.938
			c0.098-0.02,0.197-0.087,0.264-0.16c0.057-0.062,0.109-0.179,0.091-0.248c-0.229-0.804-1.401-1.119-1.083-2.355
			c0.486-0.711-0.1-1.269-0.643-1.818c-0.531-0.536-1.073-1.066-1.65-1.552c-1.656-1.392-3.311-2.782-5.004-4.124
			c-0.994-0.788-1.667-1.73-1.627-3.015c0.035-1.195-0.513-2.062-1.299-2.853c-0.304-0.308-0.593-0.631-0.905-0.929
			c-0.971-0.921-1.813-0.73-2.157,0.482c-0.059,0.206-0.076,0.425-0.126,0.635c-0.357,1.485-0.357,1.485-2.082,1.688
			c-0.214,0.025-0.432,0.044-0.642,0.089c-0.67,0.145-0.963,0.994-0.475,1.542c0.789,0.888,1.646,1.709,2.461,2.574
			C69.535,78.997,70.189,79.396,70.994,79.217z M84.719,89.443c-1.335,0.836-2.749,1.332-4.27,0.367
			c-0.506-0.318-0.94-0.854-1.638-0.669c0.71,2.443,1.961,3.422,4.34,3.39c2.741-0.035,5.019-2.152,5.229-4.857
			c0.135-1.765-1.62-4.364-3.487-5.097c-0.278-0.109-0.681-0.121-0.94,0.004c-0.225,0.106-0.496,0.51-0.448,0.71
			c0.095,0.397,0.385,0.753,0.618,1.109c0.469,0.721,1.033,1.394,1.415,2.158C86.02,87.521,85.643,88.868,84.719,89.443z
			 M78.52,88.807c0.053,0.055,0.104,0.108,0.157,0.162c-0.004-0.017-0.003-0.036-0.01-0.051
			C78.645,88.868,78.57,88.842,78.52,88.807z M78.677,88.969c0.018,0.062,0.026,0.129,0.039,0.195
			c0.033-0.012,0.063-0.014,0.096-0.022c-0.006-0.019-0.013-0.034-0.019-0.054C78.755,89.049,78.716,89.008,78.677,88.969z
			 M50.193,72.223c-0.623-0.16-1.285-0.22-1.931-0.237c-3.412-0.096-6.665,0.694-9.767,2.032c-1.172,0.504-2.279,1.27-3.242,2.113
			c-1.466,1.282-2.848,2.676-4.131,4.138c-0.649,0.742-1.272,1.124-2.225,0.925c-1.469-0.303-2.478,0.336-3.322,1.49
			c-1.216,1.664-2.568,3.203-4.299,4.383c-0.453,0.308-0.63,0.885-0.45,1.461c0.174,0.551,0.569,0.976,1.135,1.039
			c1.183,0.135,2.377,0.173,3.566,0.256c0.603,0.042,0.891,0.48,1.251,0.903c0.753,0.887,0.068,1.531-0.233,2.246
			c0.031-0.003,0.062-0.004,0.092-0.007c-0.04,0.025-0.082,0.051-0.122,0.075c-0.002,0.006-0.006,0.012-0.008,0.018
			c0.432,0.006,0.868-0.014,1.297,0.038c0.123,0.016,0.337,0.325,0.314,0.357c-0.387,0.518-0.809,1.01-1.21,1.52
			c-0.343,0.435-0.602,0.909-0.365,1.484c0.185,0.451,0.902,0.642,1.747,0.425c0.414-0.104,0.791-0.351,1.203-0.466
			c0.164-0.046,0.449,0.027,0.549,0.15c0.092,0.115,0.051,0.383-0.004,0.562c-0.389,1.286-1.621,1.675-2.57,2.356
			c-0.789,0.567-0.881,0.575-1.446-0.35c-0.313-0.512-0.628-0.816-1.209-0.901c-0.424-0.06-0.844-0.173-1.25-0.308
			c-0.428-0.141-0.647-0.7-0.407-1.004c0.6-0.756,1.299-1.425,1.533-2.443c0.076-0.329,0.566-0.583,0.896-0.833
			c0.294-0.224,0.616-0.41,0.93-0.605c0.009-0.022,0.021-0.046,0.03-0.068c-0.826,0.072-1.682,0.05-2.465,0.276
			c-1.036,0.298-0.629,1.517-1.139,2.189c-0.326,0.431-0.665,0.857-0.931,1.325c-0.305,0.536-0.036,1.378,0.494,1.725
			c0.18,0.119,0.356,0.304,0.551,0.33c1.326,0.173,2.152,0.806,2.404,2.198c0.071,0.396,0.621,0.568,1.093,0.401
			c0.203-0.069,0.396-0.173,0.578-0.284c2.232-1.387,4.33-2.889,4.878-5.722c0.021-0.104,0.344-0.148,0.525-0.222
			c0.066,0.176,0.201,0.359,0.186,0.527c-0.08,0.967-0.227,1.928-0.285,2.896c-0.031,0.506,0.55,1.073,1.055,1.029
			c0.746-0.063,1.527-0.107,2.219-0.363c1.216-0.448,2.339-1.161,3.567-1.563c1.796-0.59,2.444-2.019,2.904-3.601
			c0.178-0.609,0.151-1.287,0.166-1.935c0.017-0.732,0.356-1.286,0.985-1.556c2.207-0.943,3.572-2.749,4.917-4.604
			c2.363-3.265,3.15-7.085,3.821-10.928C52.366,73.402,51.791,72.636,50.193,72.223z M42.411,78.959
			c0.075-0.16,0.305-0.248,0.468-0.365c0.723-0.058,1.245,0.234,1.471,0.893c0.045,0.128-0.089,0.428-0.214,0.48
			c-0.627,0.282-1.234,0.117-1.672-0.448C42.362,79.39,42.34,79.107,42.411,78.959z M29.729,94.423
			c-0.362,0.34-0.736,0.665-1.121,0.979c-0.053,0.042-0.193,0.013-0.274-0.027c-0.066-0.032-0.151-0.177-0.144-0.187
			c0.435-0.431,0.877-0.854,1.319-1.274c0.067,0.077,0.136,0.155,0.203,0.232C29.72,94.24,29.771,94.382,29.729,94.423z
			 M47.947,78.83c-2.387,3.598-4.419,7.496-8.184,9.959c-0.492,0.323-0.715,0.785-0.762,1.357c-0.036,0.433-0.057,0.871-0.147,1.294
			c-0.226,1.05-0.221,2.282-0.798,3.094c-0.812,1.146-2.284,1.578-3.626,2.021c-0.116,0.037-0.423-0.139-0.445-0.254
			c-0.036-0.188,0.099-0.407,0.138-0.617c0.35-1.792,0.23-2.13-1.419-2.6c-0.843-0.24-1.119-0.542-0.736-1.32
			c0.296-0.602-0.006-1.088-0.36-1.461c-0.961-1.016-1.844-2.143-3.23-2.657c-0.094-0.034-0.187-0.4-0.118-0.492
			c0.384-0.52,0.784-1.036,1.25-1.48c0.196-0.19,0.576-0.306,0.85-0.27c0.419,0.05,0.815,0.26,1.179,0.389
			c0.711,0,1.367,0.05,2.007-0.03c0.193-0.023,0.48-0.404,0.484-0.627c0.006-0.424,0.222-0.587,0.544-0.674
			c0.416-0.115,0.852-0.261,1.268-0.23c0.154,0.012,0.29,0.47,0.411,0.736c0.593,1.298,1.261,1.704,2.482,1.496
			c0.878-0.15,1.501-0.867,1.568-1.812c0.062-0.837-0.308-1.548-1.043-1.837c-0.394-0.155-0.837-0.181-1.258-0.271
			c-0.204-0.043-0.407-0.097-0.61-0.146c0.089-0.133,0.156-0.296,0.275-0.395c0.323-0.272,0.678-0.507,1.004-0.776
			c0.863-0.713,0.859-0.717,1.717,0.212c1.443,1.566,3.293,1.572,4.78,0.016c0.887-0.926,0.97-1.565,0.376-2.913
			c-0.042-0.099-0.113-0.187-0.154-0.286c-0.08-0.184-0.146-0.373-0.217-0.561c0.206-0.048,0.429-0.169,0.619-0.13
			c0.627,0.126,1.266,0.255,1.852,0.497C47.829,78.138,48.041,78.689,47.947,78.83z M37.762,84.319
			c0.254-0.15,0.496-0.347,0.771-0.427c0.082-0.023,0.396,0.322,0.363,0.421c-0.081,0.258-0.295,0.473-0.557,0.846
			C38.081,84.782,37.921,84.552,37.762,84.319z"/>
	</g>
</g>
</svg>
