<?xml version="1.0" encoding="utf-8"?>
<!-- Generator: Adobe Illustrator 16.0.0, SVG Export Plug-In . SVG Version: 6.00 Build 0)  -->
<!DOCTYPE svg PUBLIC "-//W3C//DTD SVG 1.1//EN" "http://www.w3.org/Graphics/SVG/1.1/DTD/svg11.dtd">
<svg version="1.1" id="Layer_1" xmlns="http://www.w3.org/2000/svg" xmlns:xlink="http://www.w3.org/1999/xlink" x="0px" y="0px"
	 width="120px" height="120px" viewBox="0 0 120 120" style="enable-background:new 0 0 120 120;" xml:space="preserve">
<g id="steam">
	<g>
		<path style="fill-rule:evenodd;clip-rule:evenodd;" d="M116.734,45.401c0-1.212-0.002-1.936,0.002-2.663
			c0.025-4.376-1.338-8.363-3.641-12.004c-2.361-3.733-5.613-6.565-9.412-8.837c-4.066-2.431-8.582-2.808-13.113-3.217
			c-0.303-0.027-0.617,0.046-0.924,0.086c-3.383,0.457-6.291,1.876-8.827,4.171c-2.419,2.188-4.083,4.925-5.826,7.612
			c-0.625,0.967-0.919,2.061-1.021,3.225c-0.1,1.128-0.412,2.243-0.461,3.371c-0.086,2.065-0.309,4.177,0.021,6.19
			c0.27,1.652-0.143,2.804-1.146,3.937c-0.548,0.614-1.15,1.188-1.627,1.854c-1.802,2.526-3.561,5.084-5.337,7.628
			c-0.356,0.508-0.67,1.063-1.104,1.497c-1.767,1.764-3.313,3.685-4.623,5.817c-0.915,1.489-2.169,2.464-4.108,2.194
			c-0.81-0.113-1.653,0.035-2.48,0.031c-1.979-0.007-3.917,0.162-5.787,0.899c-0.992,0.392-1.138,0.308-1.813-0.563
			c-4.322-5.566-8.945-10.864-14.054-15.728c-0.149-0.144-0.284-0.303-0.438-0.44c-0.605-0.537-0.833-1.223-0.563-1.963
			c0.735-2.007,0.625-4.084,0.531-6.145c-0.312-6.874-5.578-11.984-12.459-12.123c-1.448-0.03-2.905-0.026-4.346,0.102
			C7.702,30.905,3.875,36.028,3.631,41.07c-0.04,0.824-0.122,1.652-0.28,2.459c-1.002,5.127,2.233,11.848,9.17,13.548
			c1.7,0.416,3.402,0.83,5.083,1.318c0.805,0.232,1.627,0.583,2.419,0.278c1.281-0.494,1.887,0.167,2.535,1.094
			c1.068,1.525,2.211,2.998,3.352,4.469c0.634,0.814,1.287,1.624,2.009,2.361c2.681,2.733,5.399,5.431,8.089,8.158
			c0.278,0.284,0.599,0.648,0.648,1.01c0.182,1.322,0.365,2.66,0.337,3.988c-0.023,1.124-0.235,2.273-0.541,3.361
			c-0.723,2.58-0.13,4.916,1.189,7.115c0.849,1.415,1.782,2.785,2.747,4.125c2.544,3.539,6.206,5.465,10.269,6.52
			c2.488,0.646,5.147,0.592,7.683-0.115c5.172-1.441,8.578-4.858,10.41-9.812c0.637-1.727,1.182-3.608,1.182-5.421
			c0-2.169,0.839-3.459,2.625-4.433c0.81-0.443,1.481-1.127,2.249-1.653c1.364-0.937,2.737-1.861,4.136-2.743
			c1.312-0.826,2.812-1.417,3.953-2.425c1.254-1.107,2.766-1.757,4.07-2.761c2.703-2.074,5.412-4.167,8.492-5.684
			c0.635-0.313,1.308-0.676,1.99-0.744c2.283-0.229,4.445-0.883,6.602-1.607c4.074-1.373,7.182-3.869,9.572-7.485
			C115.879,52.578,117.277,49.05,116.734,45.401z M24.235,42.179c-0.011,0.091-0.123,0.245-0.173,0.24
			c-0.176-0.019-0.412-0.042-0.507-0.157c-0.722-0.879-1.356-1.838-2.13-2.667c-1.637-1.748-3.753-2.105-5.98-1.652
			c-1.445,0.293-2.833,2.186-2.985,3.634c-0.333,3.174,1.105,5.38,3.799,6.845c0.829,0.451,1.667,0.833,2.149,1.693
			c0.244,0.433,0.708,0.921,0.643,1.312c-0.128,0.768-0.949,0.606-1.525,0.687c-0.614,0.084-1.239,0.093-1.474,0.108
			c-0.799,0-1.213,0.011-1.627-0.002c-2.309-0.081-3.886-1.244-4.822-3.313c-1.153-2.547-1.243-5.191-0.624-7.878
			c0.162-0.702,0.471-1.371,0.635-2.072c0.459-1.954,1.731-3.26,3.369-4.258c0.792-0.481,1.648-0.861,2.479-1.28
			c2.841-1.427,4.714-0.439,6.207,1.098C23.708,36.618,24.628,39.208,24.235,42.179z M62.875,87.299
			c-0.892,1.523-1.877,2.971-3.197,4.152c-2.326,2.086-4.945,2.895-7.989,1.746c-0.481-0.182-1.008-0.252-1.47-0.467
			c-1.908-0.888-3.603-2.01-4.391-4.11c-0.217-0.578-0.52-1.122-0.775-1.687c-0.576-1.285-0.574-1.287-0.377-3.179
			c0-0.063-0.038-0.38,0.016-0.679c0.027-0.147,0.209-0.284,0.35-0.384c0.042-0.03,0.216,0.047,0.268,0.118
			c0.652,0.926,1.377,1.812,1.917,2.801c1.093,1.996,2.991,3.074,4.747,4.289c1.715,1.189,5.253-0.369,5.181-2.609
			c-0.042-1.326,0.332-2.658,0.366-3.992c0.042-1.67-0.367-3.284-1.23-4.725c-0.848-1.414-1.837-2.744-2.696-4.154
			c-0.329-0.539-1.259-0.799-0.873-1.707c0.71-0.029,1.441-0.174,2.129-0.057c0.691,0.12,1.36,0.458,2,0.781
			c0.455,0.227,0.802,0.734,1.267,0.865c2.936,0.824,3.752,3.334,4.546,5.771c0.439,1.354,0.47,2.841,0.736,4.257
			C63.603,85.402,63.426,86.359,62.875,87.299z M87.119,63.771c-1.606,1.096-3.32,2.035-4.682,3.472
			c-0.439,0.46-0.92,0.269-1.131-0.351c-0.1-0.291-0.131-0.606-0.239-0.894c-0.293-0.779-0.578-1.576-1.625-1.61
			c-0.812-0.027-1.327,0.504-1.689,1.89c-0.261,0.995-0.534,2-0.64,3.02c-0.104,0.981-0.7,1.438-1.467,1.804
			c-0.172,0.084-0.488,0.163-0.569,0.08c-0.187-0.193-0.392-0.499-0.373-0.739c0.082-1.026,0.273-2.04,0.369-3.062
			c0.069-0.731-0.082-1.426-0.511-2.059c-0.381-0.561-1.078-0.674-1.572-0.267c-0.752,0.621-1.151,1.453-1.463,2.329
			c-0.596,1.668-0.814,3.4-0.789,5.171c0.008,0.713-0.01,1.437-0.123,2.139c-0.038,0.232-0.387,0.523-0.641,0.581
			c-0.234,0.053-0.662-0.093-0.781-0.288c-0.702-1.135-1.402-2.281-1.982-3.482c-0.623-1.299-2.23-1.874-2.445-3.441
			c0.809-1.068,1.65-2.109,2.41-3.207c0.654-0.945,1.477-1.695,2.303-2.479c2.471-2.342,4.853-4.777,7.283-7.16
			c0.192-0.191,0.49-0.271,0.695-0.38c0.258,0.165,0.497,0.234,0.595,0.392c2.083,3.361,5.315,5.389,8.552,7.414
			c0.174,0.108,0.361,0.215,0.485,0.369C87.273,63.238,87.496,63.514,87.119,63.771z M109.793,49.636
			c-0.898,1.124-1.555,2.438-2.434,3.582c-1.456,1.898-3.521,2.841-5.813,3.225c-1.829,0.304-3.692,0.413-6.116,0.669
			c-1.259,0.285-2.902-0.252-4.479-1.117c-0.904-0.497-1.832-0.957-2.695-1.517c-0.688-0.448-1.458-0.909-1.904-1.56
			c-2.036-2.95-4.43-5.702-5.127-9.407c-0.383-2.021-1.047-3.988-1.486-6.001c-0.723-3.323-0.251-6.354,2.331-8.843
			c0.509-0.491,0.855-1.156,1.261-1.75c0.732-1.068,1.725-1.849,2.961-2.121c2.091-0.463,4.188-1.228,6.365-0.208
			c0.526,0.247,1.228,0.094,1.832,0.215c1.814,0.368,3.637,0.719,5.425,1.195c1.209,0.321,2.2,1.097,3.144,1.923
			c2.506,2.193,4.65,4.72,6.577,7.406C112.68,39.569,112.467,46.285,109.793,49.636z M103.566,34.961
			c-1.15-2.037-2.918-3.437-4.84-4.675c-0.627-0.403-1.311-0.538-2.055-0.555c-1.271-0.027-2.444,0.338-3.605,0.768
			c-0.77,0.285-1.482,0.782-2.27,0.956c-1.215,0.266-2.008,1.034-2.698,1.934c-1.229,1.597-1.931,3.396-1.794,5.525
			c-0.346,2.441,0.841,4.29,2.592,5.899c0.906,0.833,1.771,1.712,2.686,2.534c1.388,1.248,2.863,2.313,4.814,2.543
			c1.325,0.157,2.624,0.533,3.949,0.681c0.439,0.049,1.027-0.19,1.367-0.499c0.758-0.688,1.45-1.466,2.081-2.274
			c0.437-0.561,0.827-1.199,1.064-1.866c0.411-1.158,0.653-2.377,1.033-3.549c0.482-1.492,0.062-2.868-0.534-4.186
			C104.852,37.078,104.172,36.036,103.566,34.961z M100.728,41.103c-0.021,2.532-0.267,3.357-3.094,2.628
			c-2.127-0.548-2.822-1.814-3.031-3.675c-0.165-1.466-0.009-2.873,1.054-4.038c0.555-0.61,1.291-0.775,1.914-0.322
			C99.473,37.085,100.939,38.73,100.728,41.103z"/>
	</g>
</g>
</svg>
