<?xml version="1.0" encoding="utf-8"?>
<!-- Generator: Adobe Illustrator 16.0.0, SVG Export Plug-In . SVG Version: 6.00 Build 0)  -->
<!DOCTYPE svg PUBLIC "-//W3C//DTD SVG 1.1//EN" "http://www.w3.org/Graphics/SVG/1.1/DTD/svg11.dtd">
<svg version="1.1" id="Layer_1" xmlns="http://www.w3.org/2000/svg" xmlns:xlink="http://www.w3.org/1999/xlink" x="0px" y="0px"
	 width="120px" height="120px" viewBox="0 0 120 120" style="enable-background:new 0 0 120 120;" xml:space="preserve">
<g id="xbox">
	<g>
		<path style="fill-rule:evenodd;clip-rule:evenodd;" d="M93.674,81.101c-0.307-0.828-0.703-1.623-1.086-2.421
			c-1.532-3.188-3.342-6.25-4.337-9.683c-0.151-0.521-0.495-0.983-0.767-1.465c-2.653-4.739-5.525-9.337-9.082-13.466
			c-1.083-1.258-2.072-2.691-3.402-3.618c-1.943-1.354-3.607-2.907-5.045-4.759c-0.33-0.424-0.795-0.781-1.267-1.045
			c-2.542-1.429-4.786-3.148-6.059-5.879c-0.047-0.099-0.134-0.178-0.202-0.265c-0.76-0.951-2.006-1.151-2.947-0.411
			c-0.605,0.479-1.146,1.043-1.703,1.578c-5.692,5.499-10.312,11.849-14.661,18.418c-0.915,1.382-1.886,2.729-2.881,4.055
			c-1.206,1.607-2.189,3.338-2.916,5.201c-0.601,1.54-1.046,3.141-1.639,4.687c-2.105,5.49-3.572,11.156-4.639,16.922
			c-0.562,3.037-0.872,6.124-1.218,9.197c-0.161,1.429-0.148,2.876-0.193,4.314c-0.022,0.708,0.269,1.312,0.832,1.727
			c1.333,0.989,2.618,2.074,4.053,2.888c5.67,3.213,11.696,5.241,18.312,5.123c0.996-0.018,1.994-0.004,2.991-0.004
			c0.004,0.045,0.008,0.088,0.012,0.13c4.298-0.376,8.611-0.636,12.893-1.153c4.837-0.589,9.582-1.649,14.083-3.623
			c2.431-1.064,4.864-2.15,7.366-3.022c2.135-0.745,3.973-1.951,5.751-3.246c1.056-0.771,1.938-1.813,2.792-2.821
			c0.66-0.781,0.834-1.621,0.395-2.746C97.22,90.873,95.486,85.972,93.674,81.101z M92.287,94.295
			c-1.409,1.246-2.867,2.436-4.322,3.63c-0.342,0.281-0.815,0.429-1.09,0.753c-1.555,1.848-3.68,2.323-5.915,2.537
			c-2.75,0.262-5.545-0.02-8.266,0.703c-0.323,0.085-0.802-0.256-1.154-0.484c-1.694-1.101-1.951-1.153-2.892,0.342
			c-0.501,0.796-1.105,0.956-1.887,1.075c-1.568,0.241-1.561,0.259-1.914-1.194c-0.104-0.427-0.211-0.857-0.383-1.261
			c-0.443-1.038-1.904-1.366-2.812-0.646c-0.829,0.66-1.179,1.532-1.314,2.584c-0.119,0.921-0.419,1.092-1.319,1.111
			c-0.664,0.015-1.333,0.017-1.99-0.068c-0.475-0.061-0.77-0.438-0.709-0.932c0.096-0.767,0.281-1.52,0.394-2.282
			c0.145-0.983,0.316-1.967,0.361-2.956c0.042-0.953-1.068-1.605-1.896-1.098c-0.54,0.33-1.089,0.798-1.395,1.338
			c-0.757,1.35-1.365,2.783-2.058,4.169c-0.354,0.708-1.708,0.812-2.297,0.149c-0.188-0.21-0.312-0.619-0.247-0.882
			c0.241-0.966,0.575-1.904,0.872-2.855c0.297-0.949,0.658-1.886,0.866-2.855c0.138-0.634,0.114-1.319,0.056-1.971
			c-0.067-0.737-1.071-1.312-1.782-1.038c-0.401,0.155-0.805,0.382-1.113,0.676c-0.474,0.453-0.87,0.506-1.412,0.109
			c-0.464-0.338-0.926-0.6-0.698-1.3c0.1-0.31,0.279-0.732,0.157-0.957c-0.871-1.589-0.253-3.005,0.434-4.413
			c0.317-0.654,0.364-1.257-0.051-1.876c-0.425-0.636-1.144-0.798-1.674-0.33c-0.498,0.438-0.953,0.931-1.463,1.354
			c-0.191,0.156-0.393,0.607-0.73,0.229c-0.109-0.126-0.103-0.426-0.044-0.611c0.232-0.741,0.513-1.463,0.758-2.2
			c0.14-0.417,0.29-0.838,0.358-1.271c0.221-1.362-0.794-2.453-2.145-2.225c-0.596,0.101-1.154,0.422-1.727,0.665
			c-0.007,0.047-0.011,0.095-0.02,0.141c-0.074,0.012-0.149,0.021-0.219,0.042c-0.054,0.057-0.108,0.111-0.163,0.169
			c0.039-0.057,0.066-0.134,0.118-0.16c0.014-0.006,0.031-0.005,0.045-0.009c0.043-0.045,0.087-0.091,0.13-0.135
			c0.036-0.015,0.072-0.032,0.108-0.048c0.071-0.49,0.078-1.012,0.287-1.434c1.244-2.478,2.545-4.917,4.368-7.044
			c0.858-1,0.723-1.362-0.676-2.174c-0.458-0.268-0.671-0.549-0.416-1.038c1.537-2.96,3.443-5.685,5.465-8.323
			c2.843-3.711,6.229-6.904,9.76-9.946c1.188-1.026,2.4-0.967,3.516,0.179c0.461,0.473,0.916,0.977,1.271,1.531
			c0.731,1.134,1.521,2.159,2.84,2.684c0.391,0.154,0.691,0.542,1.024,0.836c7.713,6.828,14.052,14.752,18.937,23.822
			c1.943,3.604,3.834,7.24,5.66,10.905c0.482,0.968,0.707,2.082,0.913,3.155C92.859,93.506,92.578,94.037,92.287,94.295z
			 M29.966,66.943c1.214-2.361,2.469-4.707,3.567-7.123c1.755-3.857,3.934-7.419,6.7-10.639c1.003-1.168,2.05-2.359,2.758-3.709
			c1.011-1.925,2.452-3.429,4.072-4.758c2.052-1.682,4.238-3.197,6.361-4.792c0.441-0.334,0.868-0.688,1.286-1.05
			c0.367-0.318,0.335-0.881-0.097-1.081c-2.188-1.014-3.809-2.985-6.22-3.641c-0.498-0.136-0.907-0.617-1.344-0.955
			c-3.341-2.586-7.016-4.652-10.723-6.628c-2.621-1.394-5.438-2.432-8.2-3.549c-1.157-0.468-2.51-0.611-3.485,0.257
			c-1.647,1.47-3.276,3.013-4.622,4.751c-1.756,2.27-3.303,4.709-4.809,7.156c-5.201,8.442-8.733,17.399-8.132,27.926
			c0,1.068,0.016,2.51-0.004,3.948c-0.042,3.147,0.783,6.122,1.73,9.082c0.48,1.497,1.143,2.927,2.187,4.062
			c1.757,1.91,2.788,4.239,4.022,6.449c0.421,0.757,0.713,1.629,0.862,2.483c0.567,3.262,2.445,5.905,4.017,8.688
			c0.577,1.018,1.732,1.297,2.924,0.927c1.182-0.366,1.771-1.213,1.746-2.497c-0.02-1.101-0.18-2.225-0.016-3.297
			c0.247-1.633,0.749-3.224,1.091-4.845c0.542-2.576,1.39-5.111,1.036-7.812c-0.042-0.311,0.072-0.656,0.176-0.966
			C27.805,72.506,28.592,69.616,29.966,66.943z M21.01,74.061c-0.091,0.267-0.408,0.657-0.609,0.651
			c-0.378-0.013-0.895-0.166-1.097-0.445c-1.969-2.731-2.397-3.133,0.836-4.962c0.666-0.377,1.341-0.732,2.019-1.087
			c0.086-0.044,0.215-0.004,0.32-0.004c0.075,0.187,0.243,0.391,0.201,0.532C22.147,70.525,21.598,72.298,21.01,74.061z
			 M25.65,62.08c-0.164,0.346-0.673,0.81-0.955,0.77c-1.467-0.217-2.859-0.033-4.241,0.431c-0.074,0.024-0.208-0.062-0.279-0.134
			c-0.03-0.03-0.003-0.178,0.044-0.221c0.667-0.578,1.349-1.139,2.012-1.724c0.602-0.534,0.952-1.198,1.027-2.018
			c0.091-0.991-0.492-1.81-1.466-1.817c-0.989-0.012-1.978,0.127-2.968,0.164c-0.193,0.008-0.393-0.156-0.59-0.241
			c0.104-0.168,0.171-0.384,0.318-0.493c1.419-1.061,2.833-2.127,4.285-3.137c0.841-0.587,1.513-1.279,1.949-2.21
			c0.394-0.844-0.126-1.91-1.059-2.001c-0.654-0.065-1.319,0.01-1.979,0.018c-0.423,0.004-0.847,0-1.27,0
			c0.001,0.017-0.002,0.03,0,0.047c-0.023,0.009-0.053,0.014-0.083,0.018c-0.083,0.141-0.166,0.281-0.25,0.424
			c-0.383-0.495,0.013-0.399,0.25-0.424c0.012-0.021,0.025-0.043,0.038-0.064h0.046c-0.049-0.77,0.603-1.093,1.041-1.525
			c1.18-1.168,2.438-2.257,3.585-3.457c0.52-0.544,0.927-1.236,1.242-1.926c0.423-0.928-0.21-1.819-1.188-1.857
			c-1.144-0.045-2.227,0.153-3.13,0.878c-1.551,1.242-3.066,2.531-4.592,3.808c-0.339,0.282-0.659,0.592-0.991,0.883
			c-0.082,0.071-0.179,0.125-0.27,0.187c-0.066-0.196-0.239-0.434-0.182-0.583c1.487-3.948,3.452-7.655,5.654-11.247
			c0.281-0.458,0.557-0.978,0.619-1.496c0.085-0.698-0.913-1.333-0.166-2.129c0.453-0.483,0.979-0.94,1.286-1.511
			c0.865-1.605,2.28-2.7,3.52-3.951c0.917-0.926,1.249-0.946,2.311-0.297c2.365,1.442,4.689,2.95,6.701,4.871
			c1.319,1.258,2.678,2.311,4.681,2.023c0.373-0.053,0.87,0.198,1.198,0.455c1.131,0.887,2.214,1.836,3.314,2.763
			c0.42,0.354,0.436,0.769,0.058,1.125c-1.05,0.983-2.056,2.033-3.209,2.878c-4.104,2.998-7.168,6.869-9.714,11.211
			C30.009,54.385,27.564,58.078,25.65,62.08z M113.004,58.039c0.086-3.02-0.52-5.943-1.225-8.848
			c-1.771-7.293-5.066-13.886-9.084-20.193c-1.486-2.336-3.42-3.26-5.976-3.375c-0.774-0.035-1.552-0.005-2.009-0.005
			c-3.447-0.099-6.467,0.587-9.489,1.271c-1.073,0.243-2.151,0.535-3.239,0.604c-1.497,0.098-2.812,0.555-4.004,1.433
			c-1.873,1.378-3.754,2.742-5.618,4.133c-2.288,1.706-2.562,1.305-0.397,3.541c0.847,0.874,1.74,1.706,2.568,2.599
			c1.056,1.133,2.146,2.248,3.084,3.477c2.965,3.883,5.247,8.199,7.73,12.389c1.127,1.9,2.137,3.873,3.281,5.764
			c2.301,3.792,4.498,7.646,6.17,11.759c1.295,3.181,2.7,6.306,4.205,9.392c1.113,2.287,2.152,4.616,3.099,6.978
			c0.665,1.661,1.692,3.095,2.589,4.608c0.38,0.645,1.545,0.645,2.055,0.059c1.107-1.271,1.818-2.725,2.306-4.357
			c1.185-3.962,1.4-8.054,1.871-12.115c0.356-3.076,0.776-6.146,1.1-9.226c0.323-3.074,0.444-6.169,0.974-9.22
			C113.031,58.488,112.997,58.26,113.004,58.039z M105.748,65.199c-0.199,0.756-0.282,0.78-1.069,0.348
			c-1.376-0.761-2.359-0.472-2.831,0.921c-0.423,1.248-0.734,2.533-1.104,3.8c-0.021,0.073-0.122,0.126-0.187,0.188
			c-0.062-0.091-0.184-0.185-0.18-0.273c0.044-0.989,0.005-1.995,0.186-2.958c0.676-3.586,1.465-7.147,2.123-10.735
			c0.218-1.183,0.287-2.425,0.203-3.622c-0.088-1.255-1.037-2.087-2.133-2.186c-0.905-0.084-1.566,0.279-1.826,1.074
			c-0.481,1.469-0.927,2.95-1.396,4.426c-0.031,0.101-0.126,0.178-0.192,0.267c-0.097-0.136-0.283-0.276-0.273-0.402
			c0.059-0.88,0.119-1.761,0.252-2.631c0.301-1.967,0.687-3.922,0.949-5.893c0.132-0.981,0.104-1.989,0.084-2.981
			c-0.015-0.661-0.648-1.369-1.196-1.424c-0.636-0.067-0.991,0.372-1.353,0.801c-0.452,0.538-0.516,1.462-1.448,1.524
			c-0.001,0.024-0.002,0.048-0.002,0.073c-0.022,0.02-0.05,0.038-0.074,0.057c-0.004,0.162-0.003,0.325-0.042,0.478
			c-0.035,0.144-0.155,0.264-0.238,0.393c-0.023-0.184-0.115-0.395-0.057-0.546c0.053-0.131,0.203-0.225,0.337-0.324
			c0.001-0.04,0.001-0.08,0.003-0.119c0.027,0,0.047-0.008,0.073-0.01c0.024-1.301,0.075-2.6,0.064-3.899
			c-0.007-1.087-0.526-1.838-1.337-2.079c-1.185-0.352-2.32,0.019-2.923,0.955c-0.732,1.138-1.121,2.396-1.333,3.724
			c-0.027,0.174-0.232,0.407-0.398,0.453c-0.434,0.126-0.522-0.269-0.654-0.557c-0.045-0.099-0.053-0.214-0.066-0.323
			c-0.081-0.676-0.184-1.238-1.045-1.461c-0.447-0.115-0.821-0.685-1.137-1.113c-0.785-1.072-1.557-2.157-2.259-3.282
			c-0.624-1.004-1.303-1.772-2.635-1.398c-0.052,0.017-0.188-0.129-0.225-0.223c-0.036-0.095-0.04-0.271,0.017-0.319
			c0.248-0.206,0.508-0.409,0.793-0.559c2.367-1.269,4.96-1.895,7.547-2.467c1.72-0.383,3.498-0.547,5.26-0.688
			c2.432-0.194,2.504-0.144,3.768,1.866c2.066,3.294,3.775,6.771,5.03,10.452c1.034,3.035,1.967,6.104,2.942,9.156
			c0.102,0.316,0.262,0.628,0.291,0.951C106.371,58.164,106.664,61.7,105.748,65.199z M38.502,18.256
			c2.727,0.555,5.284,1.666,7.667,3.08c2.801,1.662,5.865,2.58,8.97,3.34c1.421,0.348,2.737,0.848,4.028,1.477
			c0.696,0.338,1.381,0.698,2.055,1.083c0.843,0.481,1.638,0.427,2.526,0.049c2.847-1.206,5.632-2.576,8.643-3.37
			c1.281-0.338,2.55-0.72,3.811-1.129c4.733-1.538,9.491-2.961,14.493-3.333c0.605-0.046,0.968-0.508,0.946-1.312
			c-0.038-0.129-0.092-0.457-0.235-0.74c-0.092-0.18-0.304-0.31-0.48-0.438c-5.225-3.82-10.83-6.878-17.19-8.333
			c-1.708-0.391-3.502-0.772-5.219-0.647c-1.78,0.129-3.495,0.315-5.253-0.138c-0.736-0.19-1.539-0.142-2.312-0.159
			c-5.473-0.124-10.779,0.835-15.964,2.525c-3.271,1.064-6.424,2.399-9.217,4.457c-0.2,0.15-0.391,0.626-0.3,0.812
			C36.11,16.787,36.851,17.92,38.502,18.256z M44.53,14.814c3.796-1.536,7.729-2.611,11.759-3.301
			c1.517-0.257,3.058-0.408,4.593-0.516c3.344-0.233,6.582,0.42,9.807,1.226c2.043,0.509,4.025,1.075,5.619,2.585
			c0.635,0.599,1.433,1.023,2.148,1.535c0.078,0.059,0.107,0.185,0.159,0.277c-0.09,0.062-0.172,0.164-0.271,0.187
			c-0.645,0.147-1.291,0.289-1.939,0.407c-2.95,0.529-5.723,1.643-8.511,2.679c-1.227,0.455-2.321,1.259-3.497,1.868
			c-0.926,0.478-1.781,0.457-2.811-0.024c-2.582-1.206-5.242-2.289-8.052-2.85c-3.161-0.634-6.062-2.016-9.103-2.987
			c-0.178-0.057-0.444-0.363-0.409-0.459C44.111,15.199,44.306,14.903,44.53,14.814z"/>
	</g>
</g>
</svg>
