<?xml version="1.0" encoding="utf-8"?>
<!-- Generator: Adobe Illustrator 16.0.0, SVG Export Plug-In . SVG Version: 6.00 Build 0)  -->
<!DOCTYPE svg PUBLIC "-//W3C//DTD SVG 1.1//EN" "http://www.w3.org/Graphics/SVG/1.1/DTD/svg11.dtd">
<svg version="1.1" id="Layer_1" xmlns="http://www.w3.org/2000/svg" xmlns:xlink="http://www.w3.org/1999/xlink" x="0px" y="0px"
	 width="120px" height="120px" viewBox="0 0 120 120" style="enable-background:new 0 0 120 120;" xml:space="preserve">
<g id="playstation">
	<g>
		<path style="fill-rule:evenodd;clip-rule:evenodd;" d="M116.408,76.156c-0.446-0.686-0.889-1.377-1.309-2.082
			c-1.196-1.998-2.887-3.441-4.961-4.46c-1.01-0.497-2.016-0.969-2.822-1.823c-0.398-0.421-1.025-0.71-1.602-0.863
			c-1.779-0.474-3.578-0.888-5.385-1.257c-1.022-0.21-2.043-0.132-2.943,0.522c-0.531,0.384-0.803,1.376-0.46,1.932
			c0.212,0.343,0.491,0.652,0.772,0.942c1.172,1.206,2.672,1.867,4.185,2.523c1.22,0.528,2.386,1.182,3.615,1.683
			c1.3,0.527,2.13,1.577,3.065,2.516c1.613,1.622,1.524,6.734,0.398,8.203c-0.249,0.322-0.53,0.63-0.834,0.901
			c-1.53,1.371-3.106,2.683-4.93,3.66c-2.258,1.21-4.526,2.403-6.773,3.639c-0.615,0.338-1.042,0.302-1.645-0.124
			c-1.33-0.938-2.246-0.668-2.925,0.735c-0.22,0.455-0.312,0.972-0.509,1.439c-0.152,0.364-0.294,0.812-0.586,1.025
			c-0.82,0.599-1.713,1.107-2.59,1.63c-0.305,0.182-0.896-0.135-0.959-0.506c-0.103-0.605-0.087-1.246-0.283-1.815
			c-0.109-0.321-0.513-0.683-0.841-0.751c-0.341-0.072-0.872,0.076-1.101,0.329c-0.4,0.44-0.733,1.001-0.911,1.568
			c-0.337,1.069-0.457,2.212-0.83,3.265c-0.417,1.181-1.587,1.509-2.629,1.928c-0.823-0.457-0.344-1.276-0.532-1.91
			c-0.059-0.195-0.097-0.397-0.172-0.587c-0.205-0.511-0.582-0.833-1.136-0.91c-0.536-0.074-1.063,0.039-1.383,0.478
			c-0.293,0.404-0.566,0.889-0.647,1.371c-0.184,1.1-0.423,2.229,0.115,3.318c0.015,0.027-0.145,0.205-0.207,0.196
			c-0.164-0.025-0.439-0.09-0.459-0.182c-0.101-0.494-0.108-1.01-0.2-1.506c-0.137-0.738-0.548-1.148-1.181-1.222
			c-0.747-0.088-1.49-0.018-1.895,0.697c-0.293,0.521-0.5,1.122-0.6,1.712c-0.121,0.702-0.04,1.438-0.137,2.147
			c-0.053,0.378-0.201,0.906-0.477,1.058c-0.791,0.433-1.664,0.726-2.52,1.026c-0.104,0.037-0.4-0.172-0.438-0.312
			c-0.104-0.386-0.158-0.796-0.16-1.197c-0.013-2.668-0.007-5.337-0.007-8.007h0.139c0-3.079-0.008-6.157,0.006-9.235
			c0.002-0.52,0.381-0.861,0.783-0.633c1.304,0.739,2.366,0.099,3.466-0.459c3.108-1.574,6.243-3.1,9.317-4.738
			c3.131-1.669,6.576-2.224,9.969-2.96c0.557-0.122,1.186,0.087,1.781,0.143c0.188,0.74-0.441,1.055-0.807,1.475
			c-1.373,1.573-3.094,2.729-4.973,3.556c-4.025,1.77-7.984,3.726-12.286,4.805c-0.79,0.197-1.577,0.479-2.3,0.849
			c-1.314,0.671-1.763,2.104-1.159,3.406c0.565,1.216,1.716,1.791,3.032,1.36c1.945-0.64,3.907-1.262,5.771-2.097
			c3.181-1.425,6.314-2.96,9.415-4.549c1.454-0.743,2.837-1.652,4.163-2.609c1.973-1.423,3.211-3.429,4.087-5.665
			c0.516-1.315,0.436-2.597-0.231-3.857c-0.367-0.693-0.907-1.158-1.672-1.188c-2.356-0.092-4.699-0.098-7.04,0.4
			c-4.323,0.92-8.436,2.503-12.641,3.794c-1.295,0.397-2.43,1.055-3.554,1.785c-1.285,0.835-2.638,1.573-3.971,2.336
			c-0.132,0.075-0.417,0.099-0.486,0.021c-0.118-0.135-0.184-0.376-0.165-0.562c0.121-1.222,0.342-2.436,0.398-3.659
			c0.303-6.451,0.566-12.907,0.846-19.361c0.014-0.307-0.016-0.623,0.049-0.922c0.564-2.634,0.422-5.309,0.504-7.971
			c0.045-1.438,0.022-2.876,0.096-4.311c0.035-0.708,0.191-1.412,0.337-2.109c0.101-0.477,0.479-0.633,0.914-0.489
			c1.306,0.438,2.329,1.261,3.231,2.276c1.762,1.985,2.031,4.447,2.052,6.909c0.019,2.255-0.743,4.238-2.931,5.369
			c-0.271,0.14-0.534,0.307-0.773,0.5c-1.075,0.861-1.341,2.068-0.695,3.293c0.978,1.849,2.293,3.337,4.223,4.296
			c2.137,1.061,4.371,1.781,6.707,2.13c1.834,0.273,3.689,0.208,5.448-0.549c2.561-1.102,4.951-2.503,6.985-4.411
			c0.804-0.756,1.6-1.69,1.973-2.7c0.777-2.104,1.272-4.311,1.883-6.475c0.174-5.229,0.432-10.453-1.167-15.558
			c-1.157-3.7-2.917-7.027-5.877-9.566c-2.411-2.069-4.962-3.995-7.838-5.396c-4.79-2.332-9.464-4.906-14.363-7.014
			c-0.563-0.244-1.118-0.52-1.656-0.815c-1.896-1.044-3.854-1.877-6.006-2.28c-1.198-0.225-2.273-0.77-3.235-1.648
			c-1.839-1.68-3.977-2.858-6.527-3.164c-0.703-0.083-1.425-0.274-2.061-0.578c-2.029-0.969-4.017-0.362-6.002,0.076
			c-0.637,0.141-1.04,0.682-1.129,1.332c-0.111,0.811-0.129,1.634-0.186,2.452c-0.105,1.532-0.199,3.063-0.311,4.596
			c-0.24,3.269-0.626,6.535-0.703,9.809c-0.167,7.074-0.125,14.147,0.326,21.22c0.352,5.525,0.584,11.061,0.712,16.595
			c0.137,5.952,0.088,11.906,0.129,17.86c0.01,1.438-0.093,2.895,0.113,4.306c0.373,2.557,0.268,5.116,0.294,7.676
			c0.015,1.437-0.026,2.875,0.022,4.31c0.017,0.496,0.09,1.098,0.38,1.452c0.44,0.538,1.218,0.812,1.621,1.364
			c0.457,0.627,0.627,1.458,0.993,2.164c0.129,0.25,0.463,0.393,0.699,0.588c2.488,2.057,5.39,3.342,8.357,4.503
			c1.24,0.485,2.536,0.834,3.743,1.389c1.851,0.853,3.595,1.981,5.747,1.921c0.954,0.568,1.978,0.358,3.001,0.305
			c2.207-0.116,4.186-0.982,6.127-1.898c3.156-1.487,6.363-2.838,9.695-3.868c1.098-0.339,2.127-0.754,2.9-1.638
			c0.765-0.875,1.743-1.408,2.799-1.841c3.133-1.287,6.199-2.707,9.065-4.528c0.343-0.217,0.745-0.341,1.11-0.527
			c2.099-1.074,4.21-2.129,6.289-3.24c2.998-1.604,5.734-3.581,8.232-5.894c1.004-0.931,1.865-1.977,2.022-3.354
			C118.16,82.197,118.276,79.022,116.408,76.156z M66.661,40.751c-0.457,1.566-0.788,3.172-1.138,4.768
			c-0.086,0.394-0.124,0.842-0.024,1.224c0.749,2.874-0.112,5.667-0.382,8.486c-0.225,2.344-0.604,4.674-0.758,7.021
			c-0.365,5.621-0.923,11.236-0.807,16.883c0.017,0.82,0.008,1.641-0.024,2.462c-0.179,4.606-0.335,9.215-0.565,13.819
			c-0.098,1.939-0.397,3.869-0.524,5.807c-0.124,1.908-0.197,1.971-1.945,1.348c-0.612-0.217-1.064-0.524-1.434-1.062
			c-0.404-0.587-0.871-1.146-1.388-1.636c-0.675-0.639-0.992-1.252-0.436-2.146c0.201-0.322,0.206-0.787,0.238-1.191
			c0.083-1.021-0.314-1.811-1.253-2.256c-0.366-0.174-0.792-0.208-1.166-0.367c-0.298-0.127-0.423-0.385-0.263-0.727
			c0.391-0.836,0.837-1.654,1.138-2.521c0.466-1.344,0.502-2.641-0.912-3.521c-0.456-0.285-0.389-0.63-0.182-1.032
			c0.469-0.91,0.935-1.816,0.908-2.898c-0.03-1.214-0.496-1.863-1.717-2.18c-0.294-0.076-0.654,0.016-0.902-0.119
			c-0.203-0.11-0.458-0.521-0.394-0.666c0.373-0.84,0.856-1.629,1.255-2.457c0.489-1.013,1.018-2.021,1.364-3.085
			c0.247-0.755,0.277-1.6,0.297-2.407c0.016-0.65-0.484-1.15-1.134-1.248c-0.401-0.06-0.819-0.004-1.226-0.039
			c-0.533-0.047-0.903-0.522-0.765-1.067c0.147-0.583,0.325-1.181,0.616-1.701c0.895-1.614,1.86-3.188,2.776-4.788
			c0.512-0.893,0.926-1.817,0.991-2.88c0.114-1.854-0.936-2.724-2.663-2.14c-0.29,0.098-0.552,0.279-0.842,0.378
			c-0.241,0.081-0.563,0.452-0.736-0.018c-0.096-0.255-0.067-0.618,0.041-0.873c0.401-0.942,0.895-1.846,1.291-2.79
			c0.833-1.98,1.639-3.973,2.424-5.973c0.145-0.366,0.252-0.812,0.182-1.188c-0.129-0.704-0.413-1.373-1.084-1.781
			c-0.507-0.309-0.968-0.062-1.462,0.055c-0.697,0.162-0.965-0.158-0.739-0.777c1.047-2.886,2.125-5.76,3.111-8.666
			c0.256-0.752,0.308-1.606,0.294-2.412c-0.022-1.168-1.173-1.839-2.19-1.311c-0.631,0.327-1.199,0.776-1.798,1.164
			c-0.454,0.293-0.724,0.132-0.731-0.459c-0.019-1.641-0.022-3.283-0.028-4.924c-0.004-1.025,0-2.052,0-3.077h-0.006
			c0-2.667-0.011-5.335,0.006-8.001c0.005-0.79,0.459-1.086,1.24-0.805c3.653,1.316,7.392,2.385,10.943,4.009
			c3.443,1.574,6.99,2.917,10.459,4.443c4.938,2.173,9.225,5.324,13.001,9.14c2.677,2.707,5.024,5.679,6.315,9.354
			c0.277,0.786,0.504,1.549,0.464,2.387c-0.116,2.454,0.073,4.914-0.336,7.365c-0.2,1.202-0.14,2.458-0.081,3.686
			c0.066,1.45-0.463,2.454-1.584,3.433c-3.057,2.665-6.447,2.789-10.086,1.721c-0.654-0.19-0.783-0.657-0.221-1.086
			c2.373-1.812,2.746-4.408,2.943-7.111c0.17-2.379-0.186-4.723-0.63-7.022c-0.476-2.468-1.78-4.621-3.755-6.198
			c-1.43-1.143-3.047-2.062-4.633-2.992c-1.565-0.92-3.326-1.035-5.077-0.801C68.851,37.581,67.275,38.646,66.661,40.751z
			 M41.404,92.007c-1.006-0.017-2.022,0.204-3.024,0.374c-1.612,0.275-3.213,0.617-4.825,0.893c-0.711,0.121-1.41,0.113-2.049-0.375
			c-0.624-0.478-1.182-0.189-1.553,0.379c-1.042,1.59-2.681,1.792-4.322,1.781c-0.912-0.007-1.799-0.42-2.059-1.527
			c-0.092-0.389-0.268-0.771-0.477-1.115c-0.503-0.829-1.507-0.904-1.993-0.121c-0.315,0.512-0.469,1.121-0.738,1.664
			c-0.206,0.416-0.529,0.6-0.962,0.251c-0.438-0.353-0.901-0.454-1.408-0.148c-0.566,0.343-0.979,0.216-1.112-0.444
			c-0.279-1.373-0.24-2.82-1.774-3.677c-0.5-0.279-0.575-1.263-0.933-1.872c-0.125-0.209-0.526-0.369-0.789-0.353
			c-0.264,0.016-0.643,0.22-0.746,0.444c-0.338,0.74-0.571,1.529-0.85,2.297c-0.068,0.186-0.16,0.363-0.241,0.545
			c-0.065-0.163-0.197-0.329-0.189-0.49c0.034-0.713,0.101-1.424,0.165-2.136c0.109-1.224,0.234-2.444,0.332-3.668
			c0.065-0.839-0.267-1.368-1.173-1.456c-0.495-0.049-0.73-0.459-0.631-0.863c0.24-0.989,0.602-1.946,0.882-2.926
			c0.509-1.789,1.695-3.104,3.249-3.935c2.702-1.444,5.36-2.973,8.273-4.037c4.045-1.478,8.137-2.75,12.339-3.683
			c1.596-0.354,3.197-0.697,4.807-0.986c0.88-0.158,1.48-0.653,1.985-1.328c0.325-0.434,0.517-0.967,0.202-1.414
			c-0.195-0.277-0.675-0.488-1.032-0.496c-1.538-0.037-3.076,0.035-4.614,0.027c-2.808-0.013-5.466,0.583-8.057,1.678
			c-1.692,0.715-3.442,1.4-5.234,1.746c-3.345,0.643-6.574,1.522-9.542,3.229c-1.903,0.397-3.279,1.601-4.562,2.959
			c-0.633,0.672-1.289,1.324-1.965,1.951c-0.995,0.918-1.721,2.02-2.351,3.208c-0.967,1.823-1.701,3.743-2.099,5.755
			c-0.674,3.426-0.376,6.699,1.675,9.708c2.522,3.701,6.066,6.021,10.066,7.78c0.275,0.119,0.596,0.141,0.894,0.213
			c3.5,0.847,7.037,1.344,10.433,1.136c2.778,0.062,5.333,0.067,7.855-0.53c2.597-0.613,5.12-1.434,7.576-2.469
			c0.787-0.332,1.407-0.852,1.744-1.646c0.398-0.937,0.779-1.881,1.13-2.836C44.332,93.788,43.22,92.039,41.404,92.007z
			 M30.504,81.499c1.909-0.999,3.857-1.874,5.919-2.519c1.062-0.331,2.076-0.841,3.063-1.361c0.599-0.316,0.813-1.023,0.652-1.585
			c-0.188-0.653-0.66-1.095-1.289-1.159c-0.909-0.094-1.856-0.154-2.748,0.004c-3.141,0.552-6.152,1.567-8.955,3.084
			c-2.096,1.135-3.876,2.729-5.129,4.763c-1.849,3.001-0.652,5.104,1.996,6.626c0.258,0.15,0.575,0.22,0.875,0.273
			c1.301,0.228,2.604,0.436,3.907,0.65c3.386,0.064,6.499-0.961,9.57-2.118c0.639-0.24,1.216-0.751,1.71-1.248
			c0.819-0.822,0.834-1.785,0.174-2.799c-0.656-1.006-1.774-1.503-2.911-1.21c-0.588,0.151-1.154,0.414-1.713,0.661
			c-2.399,1.061-4.92,1.349-7.506,1.183c-0.247-0.016-0.509-0.234-0.698-0.424c-0.051-0.053,0.108-0.379,0.234-0.524
			C28.469,82.864,29.392,82.08,30.504,81.499z M78.717,69.451c-2.446,0.435-4.619,1.568-6.842,2.568
			c-0.904,0.408-1.235,1.635-0.867,2.672c0.29,0.816,1.305,1.361,2.252,1.169c0.396-0.081,0.775-0.242,1.156-0.383
			c1.436-0.53,2.842-1.151,4.307-1.575c1.587-0.457,2.613-1.527,3.531-2.772c0.098-0.132,0.045-0.371,0.062-0.561
			c-0.055-0.086-0.088-0.208-0.165-0.253C81.095,69.688,80.021,69.221,78.717,69.451z"/>
	</g>
</g>
</svg>
