<?xml version="1.0" encoding="utf-8"?>
<!-- Generator: Adobe Illustrator 16.0.0, SVG Export Plug-In . SVG Version: 6.00 Build 0)  -->
<!DOCTYPE svg PUBLIC "-//W3C//DTD SVG 1.1//EN" "http://www.w3.org/Graphics/SVG/1.1/DTD/svg11.dtd">
<svg version="1.1" id="Layer_1" xmlns="http://www.w3.org/2000/svg" xmlns:xlink="http://www.w3.org/1999/xlink" x="0px" y="0px"
	 width="120px" height="120px" viewBox="0 0 120 120" style="enable-background:new 0 0 120 120;" xml:space="preserve">
<g id="wii">
	<g>
		<path style="fill-rule:evenodd;clip-rule:evenodd;" d="M77.404,34.502c0.782-2.062-0.064-3.694-2.234-4.201
			c-1.172-0.273-2.367-0.443-3.538-0.718c-2.264-0.531-4.56-0.677-6.868-0.606c-1.512,0.043-2.434,0.859-2.766,2.318
			c-0.439,1.921-0.836,3.854-1.316,5.765c-1.448,5.735-2.794,11.505-4.951,17.036c-0.395,1.013-0.854,1.998-1.284,2.995
			c-1.22-0.688-1.113-2.056-1.566-3.126c-0.336-0.801-0.481-1.684-0.706-2.533c-1.094-4.129-2.145-8.272-3.299-12.387
			c-0.501-1.788-1.208-3.521-1.845-5.268c-0.605-1.66-1.819-2.395-3.574-2.292c-1.205,0.071-2.417,0.059-3.616,0.181
			c-1.305,0.131-2.592,0.478-3.895,0.541c-1.623,0.079-2.654,0.938-3.42,2.218c-0.333,0.556-0.557,1.196-0.733,1.826
			c-1.449,5.203-3.873,10.015-6.006,14.941c-0.082,0.187-0.26,0.331-0.394,0.495c-0.239-0.204-0.618-0.365-0.697-0.619
			c-1.429-4.604-2.84-9.215-4.218-13.836c-0.657-2.202-1.18-4.449-1.871-6.643c-0.606-1.928-2.213-2.77-4.123-2.27
			c-0.633,0.165-1.244,0.43-1.85,0.684c-2.425,1.021-4.815,2.133-7.274,3.065c-2.377,0.903-3.58,2.441-3.31,5.031
			c0.05,0.767,0.01,1.55,0.162,2.296c0.742,3.649,1.488,7.301,2.318,10.93c1.81,7.9,3.605,15.805,5.55,23.674
			c0.734,2.97,1.683,5.92,2.881,8.731c0.688,1.616,1.368,3.194,1.82,4.897c0.333,1.259,0.871,2.476,1.426,3.66
			c0.135,0.288,0.732,0.581,1.059,0.525c3.468-0.569,6.946-0.975,10.462-1.04c0.325-0.005,0.662-0.043,0.974-0.131
			c1.203-0.335,2.223-0.862,2.678-2.179c0.245-0.71,0.602-1.455,1.115-1.985c1.35-1.391,2.021-3.101,2.648-4.869
			c0.952-2.686,1.907-5.374,2.977-8.014c0.525-1.295,0.932-2.701,2.01-3.698c0.318-0.298,0.476,0.002,1.62,3.711
			c0.323,1.045,0.794,2.046,1.135,3.086c0.954,2.914,1.843,5.85,2.834,8.75c0.239,0.698,0.682,1.382,1.191,1.922
			c1.417,1.504,3.268,1.769,5.167,1.35c1.626-0.358,3.25-0.487,4.898-0.507c0.659-0.007,1.322,0.004,1.976-0.071
			c1.419-0.157,2.481-0.86,2.995-2.229c0.269-0.714,0.361-1.48,0.996-2.026c0.792-0.682,0.967-1.656,1.227-2.626
			c1.163-4.34,2.32-8.684,3.633-12.979c1.473-4.821,3.199-9.565,4.656-14.394c1.709-5.658,3.539-11.298,4.223-17.217
			C76.766,35.928,77.135,35.216,77.404,34.502z M71.17,39.662c-1.609,5.233-3.026,10.523-4.62,15.762
			c-1.53,5.03-3.195,10.018-4.771,15.036c-1.018,3.236-2.045,6.474-2.927,9.749c-0.319,1.184-0.982,1.626-2.043,1.788
			c-0.433,0.066-0.862,0.188-1.295,0.209c-3.169,0.149-3.757,0.733-3.011-3.157c0.06-0.314,0.065-0.654,0.021-0.971
			c-0.133-0.959-0.956-1.569-2.137-1.443c-0.533,0.059-0.882,0.012-0.894-0.522c-0.028-1.095,0.03-2.189,0.052-3.284
			c0.021-0.986,0.121-1.98,0.024-2.955c-0.047-0.484-0.338-1.162-0.722-1.358c-1.062-0.547-1.288-1.331-1.223-2.422
			c0.072-1.203,0.014-2.413-0.038-3.62c-0.022-0.541-0.108-1.095-0.263-1.613c-0.35-1.186-1.333-1.562-2.55-1.025
			c-0.896,0.396-0.896,0.396-1.247-0.521c-1.07-2.8-2.432-3.295-5.023-1.84c-0.914,0.514-1.456,1.319-1.774,2.283
			c-0.792,2.392-1.688,4.758-2.311,7.192c-0.547,2.142-1.197,4.186-2.38,6.08c-1.342,2.146-2.156,4.549-3.03,6.917
			c-0.103,0.276-0.363,0.595-0.624,0.684c-0.246,0.084-0.596-0.079-0.882-0.186c-0.695-0.261-1.287-0.116-1.784,0.418
			c-0.413,0.44-0.808,0.895-1.209,1.345c0.009,0.05,0.013,0.101,0.023,0.151c-0.056,0.009-0.114,0.014-0.17,0.022
			c-0.062,0.076-0.124,0.152-0.187,0.229c0.026-0.069,0.032-0.172,0.08-0.199c0.032-0.018,0.069-0.023,0.106-0.029
			c0.03-0.036,0.059-0.072,0.088-0.108c0.02-0.021,0.04-0.044,0.059-0.065c-0.237-1.385,0.071-2.725,0.312-4.079
			c0.19-1.072,0.238-2.175,0.262-3.267c0.014-0.575-0.364-0.995-0.88-1.29c-0.434-0.246-0.872-0.284-1.196,0.069
			c-0.436,0.478-0.775,1.042-1.169,1.556c-0.059,0.079-0.189,0.131-0.289,0.137c-0.042,0.002-0.141-0.154-0.133-0.228
			c0.161-1.409,0.307-2.821,0.516-4.224c0.081-0.534,0.392-1.037,0.448-1.568c0.042-0.406-0.09-0.865-0.254-1.254
			c-0.319-0.757-1.412-0.952-1.905-0.348c-0.343,0.416-0.668,0.874-0.88,1.365c-0.343,0.802-0.577,1.649-0.878,2.471
			c-0.056,0.153-0.207,0.271-0.313,0.408c-0.05-0.212-0.154-0.427-0.14-0.635c0.054-0.761,0.153-1.521,0.219-2.282
			c0.104-1.2,0.22-2.399,0.29-3.603c0.087-1.538-0.318-2.853-1.886-3.486c-0.63-0.254-0.747-0.709-0.735-1.292
			c0.022-1.208,0.036-2.414,0.048-3.621c0.014-1.451-0.5-2.588-1.959-3.081c-0.649-0.219-0.803-0.663-0.779-1.25
			c0.048-1.208,0.106-2.412,0.158-3.619c0.029-0.657,0.103-1.318,0.075-1.973c-0.054-1.256-0.571-1.887-1.953-2.253
			c-0.536-0.142-1.185-0.12-1.337-0.729c-0.56-2.229-1.055-4.475-1.54-6.722c-0.122-0.569,0.054-1.074,0.663-1.337
			c0.706-0.303,1.397-0.635,2.101-0.942c2.097-0.918,2.041-0.901,2.678,1.443c1.179,4.333,2.424,8.646,3.652,12.966
			c0.658,2.315,1.513,4.593,1.968,6.95c0.53,2.74,2.529,4.233,4.38,5.896c0.59,0.531,1.807,0.32,2.367-0.418
			c0.593-0.779,1.138-1.619,1.553-2.503c1.255-2.681,2.587-5.339,3.612-8.109c1.561-4.211,3.643-8.22,4.875-12.558
			c0.197-0.694,0.694-1.113,1.427-1.163c1.534-0.108,3.067-0.218,4.602-0.276c0.905-0.032,1.39,0.36,1.621,1.301
			c0.703,2.872,1.425,5.741,2.05,8.632c0.787,3.644,1.71,7.24,3.009,10.745c0.682,1.842,1.154,3.764,1.7,5.658
			c0.28,0.979,0.788,1.798,1.555,2.463c1.812,1.572,3.681,0.66,4.541-0.637c0.419-0.631,0.785-1.347,0.96-2.078
			c0.519-2.152,1.47-4.119,2.365-6.121c1.982-4.416,3.232-9.07,4.406-13.751c0.64-2.548,1.34-5.081,2.049-7.613
			c0.205-0.736,0.758-1.051,1.531-0.882C72.51,35.992,72.58,35.076,71.17,39.662z M89.971,51.943c-3.076,0.3-6.09-0.5-9.135-0.769
			c-1.702-0.152-2.85,0.351-3.328,1.878c-0.225,0.719-0.283,1.506-0.312,2.265c-0.203,5.263-0.378,10.526-0.576,16.16
			c0,0.399-0.029,1.169,0.006,1.937c0.226,4.814,0.459,9.631,0.709,14.447c0.043,0.838,0.548,1.43,1.291,1.771
			c2.903,1.338,5.908,1.725,8.926,0.541c1.088-0.426,2.029-1.262,2.992-1.973c1.213-0.896,1.852-2.104,1.9-3.649
			c0.12-3.727,0.328-7.452,0.431-11.18c0.13-4.72,0.173-9.444,0.292-14.163c0.025-0.979,0.083-1.99,0.355-2.919
			C94.359,53.438,92.628,51.684,89.971,51.943z M87.767,60.785c-0.358,4.476-0.767,8.95-1.061,13.433
			c-0.173,2.626-0.163,5.263-0.243,7.895c-0.018,0.548-0.039,1.1-0.128,1.638c-0.03,0.174-0.278,0.438-0.437,0.447
			c-0.979,0.049-1.96,0.057-2.939,0.023c-0.15-0.004-0.402-0.282-0.418-0.452c-0.077-0.835-0.525-1.755,0.422-2.415
			c0.091-0.062,0.182-0.131,0.25-0.215c0.961-1.184,0.923-1.809-0.169-2.746c-0.329-0.281-0.694-0.523-1.009-0.82
			c-0.338-0.319-0.299-0.926,0.066-1.142c0.276-0.165,0.605-0.245,0.881-0.413c1.671-1.03,1.838-1.638,0.804-3.45
			c-0.255-0.448-0.339-0.772,0.003-1.138c0.637-0.68,1.067-1.475,0.748-2.383c-0.376-1.065-0.227-2.052-0.088-3.13
			c0.14-1.096,0.206-2.077,0.979-2.987c0.599-0.703,0.348-1.778-0.438-2.316c-0.611-0.422-1.364-0.636-2.039-0.971
			c-0.497-0.247-0.717-1.238-0.388-1.774c0.099-0.16,0.344-0.351,0.5-0.335c0.758,0.08,1.508,0.321,2.263,0.332
			C88.231,57.906,87.871,58.252,87.767,60.785z M115.692,56.359c-0.292-1.03-1.06-1.618-2.182-1.702
			c-2.402-0.184-4.804-0.401-7.208-0.584c-1.335-0.102-2.514,0.207-3.761,0.847c-1.358,0.697-2.005,1.586-2.128,3.004
			c-0.203,2.293-0.455,4.584-0.59,6.88c-0.082,1.421-0.033,2.854,0.038,4.277c0.106,2.077,0.328,4.15,0.419,6.228
			c0.096,2.192,0.052,4.392,0.154,6.583c0.115,2.525,0.427,5.024,1.485,7.365c0.644,1.422,1.697,2.28,3.31,2.282
			c1.864,0,3.734,0.043,5.591-0.098c0.962-0.072,1.931-0.409,2.831-0.783c1.059-0.444,1.806-1.266,1.961-2.463
			c0.141-1.082,0.289-2.173,0.298-3.26c0.035-4.17,0.014-8.34,0.014-12.511h0.226c0-4.388,0.025-8.777-0.019-13.167
			C116.121,58.289,115.957,57.293,115.692,56.359z M110.507,64.174c-0.667,4.992-1.118,10.021-1.113,15.077
			c0.003,1.636-0.222,3.276-0.417,4.905c-0.091,0.764-1.826,1.19-2.467,0.641c-0.152-0.132-0.316-0.342-0.331-0.525
			c-0.058-0.765-0.081-1.533-0.081-2.301c-0.002-1.315,0.025-2.634,0.036-3.95c0.005-0.657,0.001-1.317,0.001-1.976
			c0.03-0.002,0.062-0.004,0.092-0.007c-0.219-4.817-0.445-9.636-0.651-14.456c-0.06-1.378,0.181-1.685,1.374-1.611
			C110.877,60.215,111.168,59.213,110.507,64.174z M117.977,38.152c-0.488-2.868-1.787-5.3-4.602-6.339
			c-2.758-1.016-5.348-0.386-7.607,1.659c-2.621,2.368-3.679,5.404-3.91,8.765c-0.121,1.757,0.771,3.27,2.369,4.013
			c1.566,0.729,3.271,1.194,4.953,1.627c1.062,0.273,2.156,0.08,3.229-0.287c2.948-1.008,5.396-3.777,5.577-7.4
			C117.986,39.027,118.05,38.578,117.977,38.152z M112.224,40.881c-0.091,0.821-0.515,1.458-1.271,1.742
			c-0.878,0.331-1.76,0.141-2.359-0.584c-0.309-0.37-0.573-1.021-0.465-1.446c0.263-1.03,0.71-2.022,1.172-2.986
			c0.238-0.498,0.751-0.767,1.34-0.753c0.598,0.017,1.074,0.327,1.26,0.856c0.244,0.7,0.344,1.448,0.428,1.827
			C112.275,40.236,112.259,40.559,112.224,40.881z M88.053,30.98c-2.656,0.457-4.98,1.609-6.292,4.182
			c-0.101,0.195-0.232,0.385-0.278,0.594c-0.287,1.274-0.615,2.543-0.799,3.835c-0.089,0.625,0.017,1.316,0.188,1.936
			c1.007,3.649,5.404,5.733,8.443,5.457c4.162-0.377,7.317-4.193,7.188-8.005C96.785,33.918,91.641,30.365,88.053,30.98z
			 M91.038,38.012c-0.221,0.965-0.642,1.818-1.434,2.465c-0.421,0.345-1.188,0.264-1.403-0.195c-0.62-1.334-0.692-2.697-0.092-4.047
			c0.113-0.253,0.493-0.385,0.703-0.539C89.979,35.617,91.272,36.994,91.038,38.012z"/>
	</g>
</g>
</svg>
