<?xml version="1.0" encoding="utf-8"?>
<!-- Generator: Adobe Illustrator 16.0.0, SVG Export Plug-In . SVG Version: 6.00 Build 0)  -->
<!DOCTYPE svg PUBLIC "-//W3C//DTD SVG 1.1//EN" "http://www.w3.org/Graphics/SVG/1.1/DTD/svg11.dtd">
<svg version="1.1" id="Layer_1" xmlns="http://www.w3.org/2000/svg" xmlns:xlink="http://www.w3.org/1999/xlink" x="0px" y="0px"
	 width="120px" height="120px" viewBox="0 0 120 120" style="enable-background:new 0 0 120 120;" xml:space="preserve">
<g id="like">
	<g>
		<path style="fill-rule:evenodd;clip-rule:evenodd;" d="M116.268,58.448c0.111-0.389,0.186-0.85,0.086-1.227
			c-1.077-4.048-2.516-7.941-4.963-11.395c-0.385-0.545-0.872-0.884-1.459-1.189c-1.633-0.848-3.461-1.07-5.152-1.705
			c-1.436-0.537-2.894-0.684-4.4-0.674c-5.35,0.035-10.698,0.049-16.047,0.066c-0.748,0.002-1.5,0.031-2.238-0.053
			c-0.207-0.023-0.491-0.387-0.529-0.625c-0.045-0.288,0.133-0.611,0.217-0.918c1.389-4.999,1.697-10.104,1.381-15.25
			c-0.11-1.801-0.285-3.652-0.812-5.363c-0.85-2.748-1.928-5.438-3.075-8.078c-1.175-2.699-3.289-4.42-6.177-5.131
			c-0.408-0.101-0.842-0.287-1.234-0.232c-2.523,0.352-5.113,0.42-7.33,1.994c-0.623,0.441-1.189,0.863-1.602,1.506
			c-0.98,1.529-2.052,3.004-2.964,4.572c-1.38,2.377-3.177,4.576-3.295,7.533c-0.029,0.721-0.38,1.443-0.661,2.135
			c-0.734,1.795-1.177,3.646-1.273,5.586c-0.049,0.959-0.123,1.92-0.234,2.874c-0.366,3.187-0.951,6.315-2.057,9.353
			c-1.676,4.604-5.188,7.184-9.496,8.934c-0.322,0.131-0.846-0.01-1.186-0.192c-0.462-0.247-0.891-0.608-1.238-1.007
			c-1.65-1.891-3.801-2.682-6.219-2.902c-0.744-0.068-1.49-0.143-2.234-0.146c-2.889-0.013-5.777-0.009-8.666,0.009
			c-0.745,0.006-1.496,0.035-2.235,0.131c-2.858,0.369-5.671,0.955-8.474,1.639c-2.633,0.645-5.042,1.662-7.221,3.288
			c-1.025,0.764-1.58,1.72-1.732,2.931c-0.092,0.74-0.078,1.494-0.104,2.242c-0.154,4.505,0.717,8.944,0.858,13.43
			c0.003,0.105,0.05,0.209,0.062,0.314c0.348,3.074,0.717,6.146,1.031,9.225c0.304,2.973,0.533,5.955,0.823,8.93
			c0.351,3.609,0.731,7.218,1.099,10.826c0.24,2.337,0.439,4.68,0.738,7.008c0.137,1.053,0.405,2.1,0.725,3.113
			c0.83,2.637,2.977,3.795,5.742,3.17c0.516-0.115,1.071-0.361,1.555-0.268c1.805,0.35,3.357-0.223,4.904-1.041
			c0.748-0.396,1.571-0.674,2.389-0.91c3.072-0.889,6.155-1.74,9.236-2.601c1.744-0.487,3.508-0.917,5.232-1.47
			c1.035-0.333,1.929-0.938,2.264-2.09c0.221-0.761,0.668-1.271,1.432-1.6c1.125-0.481,1.85-1.4,2.383-2.496
			c0.252-0.518,0.543-0.506,0.98-0.133c1.785,1.524,3.564,3.057,5.368,4.559c1.077,0.896,2.272,1.623,3.657,1.928
			c2.5,0.549,5.006,1.07,7.518,1.557c1.044,0.201,2.107,0.365,3.168,0.398c3.527,0.109,7.057,0.152,11.27,0.234
			c2.525-0.077,5.732-0.26,8.939-0.246c2.266,0.011,4.486-0.33,6.678-0.73c3.457-0.633,6.844-1.652,10.301-2.285
			c2.346-0.431,4.148-1.65,5.78-3.207c1.978-1.887,2.872-4.217,2.427-6.971c-0.104-0.629-0.267-1.25-0.457-1.857
			c-0.212-0.686-0.08-1.229,0.441-1.734c0.766-0.744,1.502-1.521,2.225-2.309c1.207-1.314,1.777-2.866,1.838-4.662
			c0.076-2.283-0.166-4.479-1.25-6.529c-0.199-0.379-0.364-0.775-0.565-1.152c-0.397-0.745-0.31-1.377,0.248-2.047
			c0.816-0.982,1.651-1.979,2.278-3.082c1.521-2.678,1.676-5.579,0.374-8.305c-0.835-1.75-1.103-3.104,0.354-4.539
			C115.976,59.296,116.152,58.853,116.268,58.448z M34.818,99.464c-2.408,0.449-4.85,0.777-7.207,1.416
			c-2.463,0.666-4.86,1.595-7.253,2.496c-0.987,0.373-1.89,0.973-2.831,1.469c-0.78-1.081-0.668-2.414-0.852-3.611
			c-0.438-2.84-0.604-5.725-0.822-8.596c-0.062-0.824-0.166-1.802,0.201-2.455c0.284-0.504,1.303-0.559,1.94-0.912
			c0.931-0.516,1.851-1.07,2.708-1.701c1.168-0.861,1.471-2.859,0.594-4.031c-0.293-0.39-0.823-0.691-1.304-0.83
			c-0.954-0.274-1.906-0.131-2.776,0.391c-0.547,0.328-1.08,0.684-1.648,0.967c-0.124,0.062-0.437-0.064-0.551-0.199
			c-0.65-0.771-0.377-1.953,0.479-2.361c1.541-0.73,3.074-1.473,4.59-2.254c0.771-0.396,1.374-0.969,1.688-1.84
			c0.491-1.363-0.431-2.959-1.866-3.092c-0.975-0.092-1.93,0.004-2.775,0.553c-0.805,0.524-1.584,1.09-2.389,1.615
			c-0.253,0.164-0.606,0.333-0.747-0.105c-0.091-0.283-0.146-0.709,0.001-0.912c0.234-0.324,0.631-0.556,0.994-0.758
			c1.495-0.826,3.014-1.607,4.502-2.443c0.649-0.365,1.297-0.762,1.857-1.246c1.666-1.438,1.362-3.672-0.621-4.738
			c-0.275-0.146-0.616-0.165-0.92-0.266c-0.338-0.113-0.526-0.332-0.16-0.598c0.869-0.633,1.694-1.285,2.211-2.271
			c0.832-1.586-0.074-3.412-1.855-3.568c-1.391-0.121-2.775-0.043-4.062,0.625c-1.042,0.541-2.096,1.061-3.147,1.582
			c-0.375,0.186-0.827,0.455-1.109-0.04c-0.197-0.342-0.33-0.835-0.234-1.192c0.088-0.336,0.479-0.771,0.799-0.836
			c3.764-0.744,7.516-1.508,11.391-1.527c2.553-0.014,5.104-0.35,7.656-0.542c0.002,0.015,0.003,0.03,0.006,0.044
			c0.742-0.078,1.486-0.156,2.23-0.234c1.207-0.127,1.484,0.117,1.494,1.361c0.007,0.641,0.029,1.289-0.049,1.922
			c-0.678,5.43-0.357,10.885-0.451,16.328c-0.03,1.816,0.021,3.635,0.021,5.452c-0.001,4.917,0.418,9.799,1.153,14.657
			c0.047,0.316,0.057,0.639,0.079,0.957C35.846,99.034,35.621,99.313,34.818,99.464z M63.574,16.759
			c0.086-0.074,0.477,0.014,0.512,0.107c0.287,0.777,0.525,1.572,0.672,2.027c-0.053,0.703,0.02,1.077-0.127,1.322
			c-0.19,0.323-0.516,0.693-0.85,0.777c-0.494,0.123-1.061,0.078-1.566-0.029c-0.23-0.047-0.598-0.475-0.555-0.633
			C62.026,19.003,62.482,17.698,63.574,16.759z M111.945,51.555c-0.17-0.042-0.346-0.073-0.512-0.13
			c-0.158-0.055-0.312-0.126-0.467-0.194c0.001,0.025,0.002,0.051,0.002,0.077c-0.033-0.03-0.068-0.059-0.103-0.089
			c0.02,0.633,0.01,1.267,0.071,1.894c0.25,2.549-0.527,4.643-2.682,6.125c-0.819,0.564-1.342,1.342-1.842,2.178
			c-1,1.674,0.111,3.502,1.264,4.133c0.451,0.246,1.002,0.32,1.51,0.455c0.98,0.262,1.256,0.623,1.223,1.512
			c-0.029,0.779-0.205,1.508-0.766,2.053c-0.993,0.965-2.014,1.904-3.061,2.812c-0.479,0.416-1.098,0.672-1.561,1.103
			c-1.584,1.472-1.383,3.753,0.396,4.938c0.09,0.059,0.173,0.145,0.271,0.168c2.248,0.533,2.444,2.365,2.74,4.199
			c0.326,2.018-0.319,3.562-1.953,4.744c-0.778,0.562-1.578,1.106-2.299,1.737c-1.061,0.925-1.203,1.899-0.545,3.149
			c0.248,0.471,0.596,0.893,0.816,1.375c1.117,2.432,0.998,2.663-1.481,3.584c-1.2,0.447-2.364,0.99-3.554,1.467
			c-1.775,0.713-3.545,1.537-5.498,0.57c-2.673-0.049-5.334-0.086-8.002,0.285c-3.586,0.5-7.147,1.195-10.809,1.111
			c-4.49-0.105-8.986-0.042-13.479-0.035c-1.414,0.002-2.729-0.305-4.025-0.893c-2.819-1.279-5.686-2.455-8.521-3.697
			c-0.885-0.387-1.668-0.881-2.205-1.775c-0.432-0.72-0.981-1.527-1.688-1.89c-1.611-0.827-1.695-2.146-1.846-3.698
			c-0.794-8.219-0.318-16.463-0.606-24.688c-0.022-0.642-0.026-1.284-0.009-1.925c0.024-0.885,0.227-1.229,1.09-1.215
			c1.414,0.021,2.449-0.619,3.41-1.524c1.792-1.688,3.547-3.407,4.938-5.464c1.375-2.033,2.912-3.943,4.238-6.024
			c1.656-2.598,2.422-5.462,3.082-8.358c0.902-3.96,1.506-7.979,1.336-12.072c-0.027-0.637,0.047-1.281,0.13-1.916
			c0.017-0.129,0.292-0.33,0.433-0.317c1.273,0.108,2.547,0.382,3.817,0.368c3.091-0.031,4.966-1.87,5.188-4.941
			c0.154-2.146,0.043-4.264-0.591-6.346c-0.208-0.684,0.446-1.213,1.153-1.049c0.985,0.229,1.789,0.658,2.129,1.707
			c0.754,2.338,1.527,4.67,2.293,7.004c0.033,0.102,0.079,0.203,0.088,0.308c0.408,4.695,0.699,9.401-0.188,14.065
			c-0.436,2.299-1.146,4.551-1.818,6.799c-0.966,3.236,0.428,5.365,3.729,5.381c2.133,0.008,4.267-0.209,6.399-0.325
			c0.854-0.048,1.706-0.14,2.56-0.14c4.922-0.012,9.845,0.006,14.768,0c1.066-0.002,2.147,0.039,3.199-0.105
			c2.207-0.303,3.979,0.417,5.471,2.013c0.393,0.419,0.85,0.78,1.284,1.162c-0.001-0.01-0.001-0.02-0.001-0.03
			c0.034,0.015,0.068,0.027,0.102,0.042c-0.002-0.185-0.02-0.371,0.023-0.543c0.045-0.185,0.143-0.456,0.273-0.493
			c0.139-0.039,0.375,0.12,0.509,0.252c0.141,0.139,0.267,0.34,0.294,0.529C112.096,51.158,111.991,51.36,111.945,51.555z
			 M26.881,87.063c-0.669,0.322-1.399,0.527-2.034,0.9c-1.18,0.691-1.852,1.748-1.921,3.141c-0.021,0.426-0.003,0.854-0.003,1.281
			h-0.063c0,0.214-0.006,0.428,0.002,0.643c0.064,2.156,1.349,3.584,3.51,3.836c0.738,0.086,1.494,0.094,2.238,0.061
			c1.168-0.049,1.998-0.695,2.576-1.666c1.198-2.018,1.041-5.137-0.389-6.979C29.775,86.962,28.471,86.3,26.881,87.063z"/>
	</g>
</g>
</svg>
