<?xml version="1.0" encoding="utf-8"?>
<!-- Generator: Adobe Illustrator 16.0.0, SVG Export Plug-In . SVG Version: 6.00 Build 0)  -->
<!DOCTYPE svg PUBLIC "-//W3C//DTD SVG 1.1//EN" "http://www.w3.org/Graphics/SVG/1.1/DTD/svg11.dtd">
<svg version="1.1" id="Layer_1" xmlns="http://www.w3.org/2000/svg" xmlns:xlink="http://www.w3.org/1999/xlink" x="0px" y="0px"
	 width="120px" height="120px" viewBox="0 0 120 120" style="enable-background:new 0 0 120 120;" xml:space="preserve">
<g id="link">
	<g>
		<path style="fill-rule:evenodd;clip-rule:evenodd;" d="M111.479,31.303c-0.217-0.707-0.221-1.508-0.545-2.15
			c-2.677-5.273-5.861-10.174-10.264-14.23c-2.938-2.709-9.316-5.578-13.316-5.658c-2.141-0.041-4.284-0.039-6.421,0.053
			c-3.15,0.137-6.092,0.988-8.757,2.748c-1.875,1.242-3.734,2.488-5.327,4.096c-2.19,2.201-4.448,4.332-6.592,6.574
			c-2.302,2.4-4.239,5.096-5.96,7.938c-1.852,3.061-2.276,6.416-1.842,9.889c0.17,1.377,0.706,2.695,1.486,3.863
			c0.287,0.43,0.712,0.789,1.128,1.111c0.617,0.475,1.717,0.039,1.728-0.703c0.015-0.955,0.089-1.971-0.198-2.852
			c-0.475-1.449-0.206-2.797,0.327-4.061c0.79-1.865,1.775-3.625,3-5.281c2.963-4.014,7.161-6.729,10.577-10.254
			c0.29-0.301,0.698-0.49,1.06-0.717c2.357-1.473,4.732-2.916,7.073-4.416c1.747-1.119,3.714-1.627,5.677-2.129
			c1.143-0.293,2.33-0.268,3.451,0.279c1.265,0.621,2.589,1.004,4.02,0.914c0.566-0.037,1.054,0.166,1.422,0.598
			c2.702,3.164,5.706,6.09,7.706,9.812c1.062,1.977,2.001,4.076,3.393,5.799c1.125,1.398,1.401,2.787,1.397,4.422
			c-0.004,2.102-0.668,3.998-1.754,5.74c-1.301,2.088-2.676,4.127-4.051,6.166c-0.416,0.617-0.886,1.215-1.418,1.732
			c-3.134,3.057-6.287,6.098-9.45,9.121c-1.415,1.35-3.083,2.447-4.963,2.809c-2.081,0.4-4.239,0.363-6.324-0.408
			c-3.657-1.355-3.679-0.896-1.45-4.008c0.374-0.521,0.684-1.088,1.08-1.59c0.278-0.348,0.729-0.555,1.141-0.326
			c1.575,0.879,2.863,0.289,4.116-0.689c1.685-1.316,3.368-2.633,5.073-3.92c4.056-3.062,6.644-7.213,8.592-11.787
			c0.773-1.818,0.719-3.754-0.139-5.611c-0.854-1.855-1.896-3.592-3.243-5.133c-1.265-1.447-2.529-2.896-3.828-4.312
			c-2.042-2.225-4.421-3.596-7.609-3.404c-1.897,0.115-3.562,0.707-5.136,1.629c-2.305,1.352-4.543,2.816-6.846,4.174
			c-1.592,0.941-2.934,2.158-4.109,3.551c-1.454,1.727-2.67,3.613-3.24,5.84c-0.191,0.74-0.312,1.59,0.25,2.145
			c0.989,0.975,0.74,2.168,0.846,3.314c0.062,0.697-0.205,1.215-0.718,1.686c-2.212,2.021-4.396,4.068-6.588,6.107
			c-3.683,3.422-7.363,6.846-11.047,10.262c-0.315,0.291-0.637,0.584-0.993,0.816c-1.467,0.959-2.493,2.328-3.536,3.686
			c-0.956,1.242-1.526,2.539-0.883,4.152c0.188,0.467,0.052,1.059,0.104,1.588c0.38,3.857,2.741,6.369,5.752,8.432
			c0.173,0.119,0.371,0.256,0.57,0.283c2.262,0.322,4.474,1.623,6.815,0.34c0.079-0.043,0.213-0.018,0.312,0.014
			c0.097,0.031,0.209,0.092,0.259,0.174c0.037,0.061,0.018,0.195-0.026,0.266c-0.508,0.852-1.07,1.654-2.25,1.389
			c-1.589-0.354-2.895,0.199-4.221,1.035c-1.989,1.252-4.103,2.301-6.1,3.537c-1.729,1.066-3.578,1.293-5.54,1.195
			c-0.805-0.041-1.456-0.279-1.926-0.947c-1.475-2.102-2.963-4.191-4.413-6.311c-0.625-0.912-0.854-1.906-0.608-3.045
			c0.201-0.932,0.301-1.914,0.245-2.861c-0.099-1.629,0.497-2.914,1.613-4.025c2.743-2.73,5.754-5.096,9.242-6.822
			c0.57-0.281,1.134-0.6,1.633-0.99c0.445-0.35,0.574-0.91,0.43-1.459c-0.143-0.549-0.551-0.957-1.101-1.051
			c-0.62-0.105-1.295-0.182-1.902-0.059c-1.566,0.32-3.102,0.781-4.662,1.139c-1.511,0.344-2.706,1.18-3.871,2.162
			c-2.709,2.285-4.927,5.039-7.368,7.578c-2.437,2.537-2.888,5.594-1.73,8.93c0.78,2.258,2.029,4.23,3.409,6.143
			c0.502,0.693,1.013,1.381,1.513,2.074c0.325,0.455,0.508,0.975,0.275,1.504c-0.759,1.723-0.639,3.557-0.771,5.365
			c-0.092,1.271-0.272,2.539-0.449,3.803c-0.014,0.088-0.394,0.246-0.475,0.188c-1.54-1.09-2.727-2.404-2.688-4.455
			c0.048-2.662-0.289-5.342,0.481-7.973c0.242-0.818-0.221-1.613-0.878-1.865c-0.588-0.227-1.029,0.09-1.401,0.49
			c-0.983,1.053-1.518,2.301-1.675,3.738c-0.023,0.227-0.358,0.449-0.597,0.602c-0.056,0.035-0.361-0.195-0.449-0.357
			c-1.479-2.809-2.212-5.76-1.702-8.947c0.103-0.633,0.218-1.27,0.239-1.906c0.063-1.85,0.606-3.559,1.313-5.254
			c0.57-1.371,1.033-2.797,1.426-4.23c0.211-0.777,0.674-1.309,1.188-1.854c1.174-1.244,2.482-2.398,3.461-3.783
			c1.088-1.541,2.469-2.641,4.034-3.586c3.02-1.826,6.062-3.613,9.06-5.477c1.408-0.877,2.878-1.373,4.537-1.309
			c2.44,0.096,4.93-0.182,7.11,1.387c0.521,0.377,1.29,0.176,1.761-0.336c0.515-0.557,0.949-1.248,0.541-2.025
			c-0.338-0.648-0.73-1.338-1.283-1.787c-2.28-1.865-4.755-3.289-7.89-2.924c-0.633,0.074-1.283,0.033-1.924,0
			c-1.975-0.102-3.845,0.344-5.579,1.223c-1.517,0.773-3.071,1.562-4.384,2.625c-2.323,1.883-4.474,3.975-6.688,5.988
			c-1.896,1.725-3.6,3.645-5.687,5.182c-1.83,1.352-5.868,7.486-6.644,9.721c-0.49,1.414-0.975,2.83-1.394,4.266
			c-0.239,0.812-0.426,1.658-0.489,2.5c-0.278,3.725,0.6,7.221,2.334,10.494c1.101,2.076,2.368,4.064,3.517,6.115
			c2.587,4.613,6.312,8.359,9.588,12.434c1.98,2.465,4.812,3.811,8.164,3.812c3,0.002,5.939-0.119,8.887-0.879
			c3.416-0.877,6.342-2.455,8.899-4.842c1.954-1.824,3.872-3.715,6.004-5.314c3.626-2.723,6.496-6.197,9.695-9.34
			c0.364-0.359,0.579-0.881,0.831-1.344c0.412-0.75,0.791-1.518,1.195-2.271c2.673-5.012,2.899-9.977-0.268-14.883
			c-0.117-0.178-0.246-0.35-0.358-0.531c-0.528-0.881-0.528-0.881,0.074-1.674c0.452-0.596,0.875-1.219,1.376-1.771
			c0.639-0.705,1.341-1.354,2.014-2.025c0.64,0.391,1.266,0.795,1.915,1.164c0.368,0.211,0.754,0.424,1.159,0.537
			c2.67,0.738,5.308,1.52,8.162,1.436c2.396-0.07,4.679-0.143,6.654-1.729c0.576-0.461,1.337-0.682,1.951-1.105
			c0.965-0.666,2.023-1.281,2.786-2.143c2.283-2.58,4.975-4.688,7.56-6.93c1.365-1.182,2.619-2.525,3.758-3.93
			c1.415-1.74,2.676-3.605,3.966-5.443c2.262-3.229,3.618-6.76,3.533-10.77c-0.021-0.854,0.05-1.713,0.151-2.559
			c0.033-0.273,0.299-0.518,0.456-0.773v-1.285C111.85,32.008,111.595,31.678,111.479,31.303z M33.266,95.998
			c-0.24,1.234-0.153,2.531-0.244,3.799c-0.006,0.098-0.356,0.293-0.422,0.25c-0.713-0.457-1.365-0.994-2.309-0.939
			c-0.146,0.01-0.449-0.449-0.467-0.705c-0.057-0.951-0.021-1.906-0.021-2.861c-0.04-0.002-0.08-0.002-0.117-0.002
			c0.059-0.949,0.104-1.898,0.196-2.844c0.008-0.1,0.35-0.285,0.421-0.242c0.721,0.443,1.408,0.939,2.121,1.395
			C33.237,94.369,33.462,94.992,33.266,95.998z M42.838,101.904c-0.202,0.137-0.64,0.162-0.83,0.027
			c-0.424-0.297-0.854-0.67-1.1-1.115c-0.295-0.533-0.262-1.289-0.629-1.734c-0.36-0.439-1.109-0.535-1.571-0.92
			c-0.388-0.322-0.675-0.814-0.884-1.285c-0.375-0.848,0.017-1.777,0.841-2.105c0.885-0.352,1.786-0.656,2.68-0.984
			c1.033-0.379,1.294-0.178,1.263,1.062c0,0.023,0.024,0.135-0.002,0.234c-0.543,2.098-0.646,4.139,0.611,6.066
			C43.301,101.279,43.051,101.762,42.838,101.904z M49.216,93.582c-0.008-0.013-0.01-0.029-0.018-0.043
			c-0.053-0.04-0.106-0.081-0.158-0.121c0-0.035,0.001-0.071,0.002-0.106c-1.519-0.414-1.5-1.769-1.646-2.948
			c-0.033-0.273,0.487-0.639,0.791-0.922c0.144-0.137,0.383-0.258,0.562-0.236c0.133,0.014,0.338,0.268,0.339,0.416
			c0.007,1.23-0.024,2.46-0.046,3.69c0.027,0.007,0.046,0.02,0.074,0.026c0.025,0.067,0.049,0.138,0.082,0.201
			c0.056,0.043,0.111,0.084,0.165,0.127C49.312,93.639,49.242,93.623,49.216,93.582z M61.257,84.809
			c-0.404,0.492-0.739,1.043-1.116,1.559c-0.582,0.795-1.189,1.316-2.357,1.283c-1.365-0.039-1.74,0.684-1.537,2.135
			c0.055,0.398,0.232,0.879,0.074,1.174c-0.152,0.291-0.876,0.633-0.979,0.539c-1.253-1.115-2.771-1.949-3.7-3.41
			c-0.348-0.551-0.267-0.881,0.271-1.305c1.337-1.053,2.721-2.047,3.98-3.182c1.641-1.48,2.661-3.363,2.647-5.609
			c-0.011-1.398,0.659-2.15,1.784-2.725c0.426-0.217,0.768-0.33,1.018,0.197c0.786,1.648,1.408,3.334,1.194,5.266
			C62.782,82.26,62.249,83.602,61.257,84.809z M70.745,52.936c-0.408,0.336-0.749,0.773-1.19,1.049
			c-0.185,0.117-0.701,0.043-0.813-0.121c-0.484-0.691-0.875-1.447-1.293-2.186c-0.262-0.461-0.466-0.961-0.773-1.389
			c-0.487-0.674-1.759-0.764-2.289-0.162c-0.739,0.83-1.145,1.762-0.836,2.926c0.337,1.273,1.12,2.291,1.791,3.377
			c0.673,1.092,0.658,1.227-0.268,2.186c-0.372,0.383-0.743,0.775-1.166,1.096c-0.374,0.285-0.812,0.258-1.125-0.133
			c-0.466-0.582-0.846-1.236-1.349-1.781c-0.354-0.379-0.817-0.688-1.287-0.914c-0.75-0.365-1.912,0.201-2.026,1.027
			c-0.103,0.721-0.073,1.48,0.03,2.205c0.081,0.57,0.318,1.117,0.502,1.672c0.041,0.022,0.082,0.044,0.123,0.066
			c0.019,0.062,0.041,0.125,0.059,0.188c0.257,0.212,0.519,0.419,0.753,0.654c0.029,0.029-0.11,0.26-0.206,0.369
			c-0.022,0.023-0.239-0.041-0.258-0.104c-0.113-0.302-0.198-0.611-0.29-0.92c-0.046-0.038-0.089-0.079-0.135-0.117
			c-0.014-0.046-0.031-0.091-0.046-0.137c-0.404-0.22-0.817-0.427-1.2-0.684c-0.469-0.314-0.953-0.518-1.482-0.238
			c-0.592,0.311-1.059,1.334-0.867,1.924c0.193,0.607,0.45,1.199,0.72,1.777c0.227,0.482,0.584,0.912,0.739,1.41
			c0.065,0.197-0.218,0.549-0.417,0.756c-0.088,0.094-0.44,0.088-0.54-0.01c-0.69-0.664-1.331-1.383-2.019-2.049
			c-0.3-0.293-0.65-0.551-1.021-0.748c-0.613-0.33-1.622-0.105-2.056,0.4c-0.523,0.613-0.653,1.445-0.312,2.076
			c0.612,1.143,1.459,2.08,2.433,2.934c0.404,0.354,0.147,0.773-0.19,1.076c-0.339,0.297-0.78,0.541-1.115,0.121
			c-0.859-1.08-1.66-2.213-2.464-3.336c-0.33-0.461-0.729-0.82-1.312-0.762c-0.772,0.076-1.008,0.67-1.11,1.344
			c-0.032,0.211-0.07,0.42-0.124,0.625c-0.025,0.098-0.093,0.184-0.142,0.275c-0.184-0.102-0.459-0.158-0.538-0.312
			c-0.854-1.738-0.758-2.756,0.546-3.994c2.394-2.283,4.854-4.496,7.271-6.758c2.26-2.115,4.521-4.23,6.745-6.391
			c2.38-2.314,4.951-4.381,7.735-6.188c0.529-0.344,0.97-0.271,1.396,0.174c0.82,0.854,1.633,1.684,1.566,3.02
			c-0.019,0.4,0.103,0.908,0.35,1.201C72.438,50.826,71.98,51.916,70.745,52.936z M70.433,40.061
			c-1.258-0.309-1.579-0.945-1.304-2.162c0.329-1.443,0.779-2.961,1.954-3.955c1.62-1.375,3.262-2.826,5.126-3.789
			c1.966-1.02,4.198-1.541,6.334-2.205c0.883-0.275,1.714,0,2.261,0.801c1.384,2.027,2.779,4.047,4.1,6.113
			c0.843,1.316,0.827,2.848,0.821,4.596c0.264,1.355-0.392,2.615-1.273,3.912c-1.276,1.883-2.765,3.471-4.564,4.881
			c-1.494,1.172-2.671,2.744-4.008,4.125c-0.13,0.137-0.45,0.291-0.542,0.229c-0.224-0.15-0.515-0.42-0.517-0.646
			c-0.053-3.533-1.805-6.301-3.968-8.877C73.665,41.672,72.3,40.52,70.433,40.061z"/>
	</g>
</g>
</svg>
