<?xml version="1.0" encoding="utf-8"?>
<!-- Generator: Adobe Illustrator 16.0.0, SVG Export Plug-In . SVG Version: 6.00 Build 0)  -->
<!DOCTYPE svg PUBLIC "-//W3C//DTD SVG 1.1//EN" "http://www.w3.org/Graphics/SVG/1.1/DTD/svg11.dtd">
<svg version="1.1" id="Layer_1" xmlns="http://www.w3.org/2000/svg" xmlns:xlink="http://www.w3.org/1999/xlink" x="0px" y="0px"
	 width="120px" height="120px" viewBox="0 0 120 120" style="enable-background:new 0 0 120 120;" xml:space="preserve">
<g id="share">
	<g>
		<path style="fill-rule:evenodd;clip-rule:evenodd;" d="M107.684,87.747c-0.227-2.943-1.131-5.686-2.764-8.104
			c-2.145-3.174-4.92-5.547-8.781-6.551c-2.223-0.578-4.432-0.605-6.672-0.6c-3.064,0.008-5.953,0.76-8.508,2.43
			c-1.625,1.062-3.107,1.238-4.746,0.193c-0.539-0.342-1.139-0.592-1.719-0.865c-4.541-2.145-9.047-4.369-13.637-6.402
			c-4.205-1.863-8.572-3.285-13.109-4.141c-1.938-0.365-1.938-0.373-1.803-2.41c0.035-0.535,0.072-1.066,0.139-2.027
			c0-0.43,0.039-1.287-0.012-2.141c-0.051-0.863,0.258-1.482,1.082-1.734c4.326-1.324,8.229-3.557,12.201-5.643
			c4.256-2.236,8.51-4.48,12.744-6.758c1.201-0.646,2.338-0.758,3.682-0.414c1.852,0.471,3.766,0.867,5.666,0.934
			c9.217,0.318,16.904-6.932,19.084-14.031c0.736-2.41,0.67-4.848,0.691-7.303c0.012-1.648-0.412-3.162-1.135-4.623
			c-2.109-4.26-5.555-6.969-9.961-8.531c-2.744-0.973-5.578-1.346-8.5-1.338c-5.266,0.014-9.172,2.324-12.096,6.619
			c-2.088,3.062-2.965,6.605-4.232,9.998c-0.146,0.387-0.125,0.844-0.152,1.27c-0.1,1.488-0.258,2.977-0.242,4.465
			c0.008,0.766-0.264,1.232-0.867,1.541c-1.141,0.582-2.289,1.154-3.461,1.67c-6.855,3.02-13.568,6.303-19.848,10.42
			c-0.893,0.584-1.736,1.33-2.717,1.672c-1.141,0.395-2.254-0.4-3.389-0.619c-2.979-0.574-5.994-0.746-8.914-0.068
			c-5.154,1.195-9.059,4.178-11.463,8.986c-1.867,3.734-2.539,7.713-2.215,11.824c0.285,3.621,1.594,6.797,4.436,9.299
			c2.639,2.322,5.502,3.873,9.039,4.451c4.068,0.666,7.604-0.281,10.9-2.541c0.791-0.541,1.516-1.184,2.26-1.795
			c0.479-0.396,0.961-0.367,1.473-0.092c0.754,0.404,1.541,0.756,2.262,1.209c7.178,4.529,14.924,7.854,22.83,10.848
			c1.598,0.604,3.195,1.213,4.799,1.807c0.568,0.213,0.85,0.607,0.842,1.205c-0.006,0.643-0.025,1.283-0.049,1.926
			c-0.156,4.07,0.826,7.828,3.055,11.262c0.398,0.615,0.713,1.316,0.926,2.021c0.268,0.885,0.748,1.613,1.586,1.893
			c1.682,0.559,2.873,1.814,4.279,2.764c0.436,0.293,0.875,0.652,1.365,0.781c2.27,0.602,4.527,1.369,6.842,1.646
			c7.1,0.85,12.85-1.57,16.418-8.506c1.955-3.797,2.537-7.906,2.77-12.078C108.133,90.304,107.783,89.022,107.684,87.747z
			 M78.855,16.665c0.131-0.406,0.242-0.846,0.488-1.176c0.232-0.305,0.611-0.65,0.961-0.693c3.59-0.438,7.037,0,10.113,2.049
			c2.953,1.967,4.211,4.766,3.535,8.271c-0.492,2.541-1.494,4.896-3.318,6.807c-0.408,0.428-0.959,0.721-1.443,1.076
			c-0.191-0.488-0.377-0.98-0.578-1.467c-0.121-0.295-0.199-0.65-0.414-0.857c-0.365-0.35-0.785-0.709-1.25-0.869
			c-0.457-0.16-1.125,0.436-1.305,1.172c-0.252,1.025-0.385,2.082-0.58,3.121c-0.018,0.096-0.121,0.174-0.186,0.258
			c-0.119-0.102-0.336-0.197-0.34-0.305c-0.129-2.338-0.354-4.67,0.371-6.979c0.213-0.68,0.168-1.479,0.074-2.199
			c-0.045-0.354-0.434-0.705-0.742-0.967c-0.404-0.344-1.186-0.203-1.418,0.215c-0.516,0.924-0.998,1.869-1.516,2.793
			c-0.096,0.172-0.297,0.285-0.449,0.426c-0.082-0.184-0.23-0.365-0.234-0.549c-0.021-1.172-0.01-2.344-0.01-3.516h-0.051
			c0.053-1.066,0.127-2.129,0.152-3.195c0.014-0.686-0.295-1.16-0.943-1.514C78.617,17.935,78.533,17.681,78.855,16.665z
			 M77.885,34.817c0.488-0.094,0.992-0.197,1.479-0.148c0.17,0.018,0.426,0.457,0.41,0.689c-0.016,0.201-0.355,0.381-0.633,0.65
			c-0.492-0.256-0.938-0.469-1.352-0.729C77.736,35.249,77.82,34.829,77.885,34.817z M99.91,98.565
			c-0.395,0.99-0.801,1.992-1.359,2.893c-1.17,1.883-2.684,3.324-5.096,3.408c-0.412,0.014-0.82,0.289-1.229,0.287
			c-0.225,0-0.641-0.334-0.637-0.508c0.027-0.844,0.102-1.699,0.289-2.521c0.172-0.764,0.182-1.457-0.141-2.182
			c-0.523-1.172-2-1.533-2.893-0.648c-0.301,0.297-0.518,0.674-0.781,1.01c-0.254,0.326-0.518,0.646-0.779,0.969
			c-0.461-0.416-0.287-0.957-0.289-1.465c0-0.213,0.008-0.428-0.01-0.639c-0.082-0.936-0.584-1.598-1.406-1.994
			c-0.791-0.379-1.443-0.051-2.008,0.529c-0.074,0.076-0.172,0.16-0.268,0.174c-0.164,0.021-0.342,0.018-0.5-0.029
			c-0.057-0.016-0.109-0.191-0.094-0.285c0.254-1.678,0.359-3.371,1.264-4.912c0.678-1.152,0.154-1.912-1.285-2.166
			c-0.207-0.037-0.461,0.057-0.631-0.029c-0.25-0.129-0.635-0.365-0.635-0.555c0.01-1.566-0.848-2.324-2.262-2.662
			c-0.139-0.033-0.342-0.365-0.299-0.479c0.451-1.227-0.521-1.486-1.262-1.75c-4.619-1.654-9.121-3.625-13.857-4.965
			c-1.629-0.461-3.188-1.232-4.721-1.982c-4.799-2.359-9.719-4.41-14.816-6.043c-1.418-0.455-2.768-1.111-4.146-1.684
			c-0.637-0.264-0.918-0.76-1.15-1.416c-0.287-0.807-1.029-1.078-1.801-0.871c-1.152,0.311-2.164,0.842-2.973,1.77
			c-1.076,1.232-2.439,2.068-3.986,2.592c-0.17,0.059-0.49,0.018-0.576-0.098c-0.174-0.232-0.367-0.58-0.314-0.826
			c0.184-0.828,0.537-1.621,0.695-2.451c0.096-0.504,0.016-1.068-0.115-1.574c-0.062-0.24-0.4-0.514-0.66-0.574
			c-0.264-0.061-0.689,0.025-0.859,0.213c-0.496,0.551-0.9,1.186-1.34,1.785c-0.189,0.258-0.373,0.52-0.568,0.771
			c-0.248,0.322-0.686,0.385-0.789,0.113c-0.07-0.182-0.193-0.426-0.127-0.562c0.557-1.152,1.17-2.279,1.73-3.432
			c0.275-0.57,0.594-1.166,0.666-1.777c0.057-0.477-0.15-1.045-0.4-1.48c-0.305-0.523-1.273-0.619-1.705-0.252
			c-0.811,0.695-1.604,1.408-2.412,2.107c-0.061,0.055-0.164,0.061-0.248,0.09c-0.037-0.188-0.172-0.434-0.098-0.555
			c0.445-0.729,0.986-1.402,1.406-2.145c0.689-1.223,0.469-2.182-0.699-3.023c-0.424-0.307-1.047-0.441-0.941-1.105
			c0.08-0.502,0.221-1.086,0.545-1.441c0.645-0.705,1.428-1.287,2.162-1.908c1.062-0.893,2.195-1.713,3.176-2.686
			c0.68-0.674,1.393-0.936,2.295-0.85c0.742,0.068,1.582-0.062,2.213,0.242c1.551,0.746,2.846,0.15,4.262-0.365
			c4.939-1.805,9.52-4.342,14.178-6.725c2.277-1.168,4.564-2.322,6.861-3.453c1.244-0.613,2.531-1.143,3.771-1.762
			c0.666-0.334,1.445-0.65,1.871-1.205c1.637-2.129,4.135-2.965,6.242-4.383c0.416-0.281,0.801-0.164,1.137,0.164
			c0.531,0.518,1.008,1.104,1.596,1.547c1.58,1.191,1.613,1.197-0.24,2.154c-3.416,1.762-6.828,3.531-10.477,4.809
			c-3.033,1.064-5.891,2.533-8.568,4.318c-4.109,2.738-8.51,4.9-13.1,6.693c-0.299,0.117-0.594,0.246-0.889,0.369
			c-1.086,0.453-1.324,0.764-0.83,1.969c0.553,1.354,0.607,2.711,0.461,4.094c-0.1,0.945-0.344,1.885-0.59,2.809
			c-0.42,1.58-0.449,1.588,1.094,2.369c2.383,1.205,4.766,2.418,7.174,3.574c1.057,0.506,2.146,1.008,3.275,1.281
			c2.318,0.562,4.4,1.617,6.473,2.734c0.939,0.504,1.9,0.971,2.863,1.43c3.664,1.75,7.35,3.455,10.99,5.246
			c2.506,1.232,5.141,2.088,7.789,2.93c1.016,0.322,2.07,0.957,3.047,0.855c0.971-0.104,1.848-0.982,2.791-1.477
			c3.326-1.738,6.791-2.49,10.51-1.439c3.736,1.057,5.59,3.742,6.273,7.346c0.217,1.133,0.035,2.344,0.035,3.52
			C101.273,93.194,100.953,95.944,99.91,98.565z"/>
	</g>
</g>
</svg>
