<?xml version="1.0" encoding="utf-8"?>
<!-- Generator: Adobe Illustrator 16.0.0, SVG Export Plug-In . SVG Version: 6.00 Build 0)  -->
<!DOCTYPE svg PUBLIC "-//W3C//DTD SVG 1.1//EN" "http://www.w3.org/Graphics/SVG/1.1/DTD/svg11.dtd">
<svg version="1.1" id="Layer_1" xmlns="http://www.w3.org/2000/svg" xmlns:xlink="http://www.w3.org/1999/xlink" x="0px" y="0px"
	 width="120px" height="120px" viewBox="0 0 120 120" style="enable-background:new 0 0 120 120;" xml:space="preserve">
<g id="retweet">
	<g>
		<path style="fill-rule:evenodd;clip-rule:evenodd;" d="M117.365,68.435c-1.787-0.309-3.574-0.654-5.406-0.525
			c-0.639,0.045-1.283,0.02-1.924-0.008c-0.74-0.031-1.188-0.395-1.322-1.141c-0.336-1.889-0.619-3.785-0.955-5.674
			c-0.148-0.839-0.436-1.656-0.539-2.498c-0.449-3.707-1.01-7.408-1.232-11.129c-0.24-3.982-1.164-7.824-2.223-11.604
			c-1.623-5.797-5.277-9.916-11.17-11.818c-2.562-0.826-5.148-1.328-7.857-1.303c-5.346,0.049-10.693,0.014-16.041,0.014v0.029
			H52.336c-0.535,0-1.084-0.088-1.602,0.002c-1.676,0.291-3.371,0.535-5,1.008c-1.373,0.396-1.785,1.475-1.176,2.797
			c0.531,1.156,1.143,2.301,1.881,3.334c1.363,1.91,2.818,3.758,4.295,5.582c0.613,0.757,1.098,1.518,1.424,2.457
			c0.791,2.283,2.645,3.842,4.125,5.652c0.189,0.23,0.537,0.334,0.811,0.494c1.197,0.703,2.445,0.689,3.709,0.246
			c2.766-0.971,5.619-1.194,8.523-1.097c0.955,0.032,1.941,0.011,2.873-0.179c3.723-0.756,7.465-0.178,11.197-0.239
			c0.66-0.011,1.098,0.454,1.242,1.249c0.322,1.785,0.662,3.557,0.666,5.395c0.018,5.666,0.119,11.332,0.184,16.998
			c0.008,0.748,0.004,1.496-0.035,2.244c-0.029,0.588-0.32,0.988-0.949,1.072c-2.852,0.385-5.703,0.773-8.559,1.156
			c-1.9,0.255-3.809,0.483-5.711,0.756c-1.855,0.268-2.648,1.954-1.74,3.562c0.445,0.785,1.061,1.342,1.867,1.684
			c1.801,0.766,3.254,2,4.658,3.324c1.086,1.025,2.219,2.002,3.354,2.978c3.168,2.726,6.721,4.921,10.189,7.224
			c1.254,0.832,2.447,1.697,3.525,2.758c0.752,0.742,1.633,1.379,2.535,1.941c1.305,0.816,3.592,0.58,4.744-0.459
			c1.508-1.359,3.049-2.695,4.422-4.184c1.152-1.247,1.99-2.781,3.131-4.039c1.215-1.338,2.727-2.406,3.926-3.758
			c2.479-2.795,4.658-5.854,7.455-8.37c0.535-0.481,0.947-1.165,1.246-1.833C120.377,70.677,119.357,68.778,117.365,68.435z
			 M81.324,77.398c-0.121,0.243-0.389,0.411-0.701,0.72c-0.17-0.376-0.414-0.664-0.352-0.854c0.068-0.218,0.408-0.473,0.637-0.479
			C81.168,76.778,81.51,77.03,81.324,77.398z M76.635,33.761c-0.633,1.396-1.559,1.938-3.008,1.818
			c-0.426-0.035-0.877,0.068-1.271-0.047c-0.219-0.061-0.516-0.473-0.48-0.676c0.104-0.619,0.391-1.207,0.537-1.822
			c0.158-0.662-0.143-1.262-0.73-1.636c-0.461-0.296-1.188-0.237-1.457,0.165c-0.588,0.889-1.252,1.75-1.691,2.713
			c-0.762,1.67-2.105,1.957-3.701,1.844c-0.553-0.038-0.906-0.621-0.664-1.174c0.338-0.783,0.762-1.535,1.053-2.334
			c0.453-1.238-0.621-2.436-1.92-2.131c-0.496,0.116-0.963,0.418-1.395,0.707c-0.256,0.17-0.412,0.486-0.613,0.734
			c-0.502,0.62-0.529,1.887-1.578,1.713c-0.588-0.098-1.053-0.959-1.564-1.484c-0.15-0.152-0.275-0.328-0.406-0.496
			c-0.959-1.234-2.305-2.223-2.506-3.939c1.443-0.635,2.959-0.049,4.424-0.158c6.734,0.115,13.469,0.229,20.203,0.355
			c0.201,0.004,0.436,0.082,0.582,0.209c0.068,0.059,0.025,0.391-0.074,0.477C78.717,30.024,77.52,31.81,76.635,33.761z
			 M108.48,76.579c-1.852,2.068-3.797,4.059-5.568,6.193c-0.961,1.159-1.945,2.266-3.164,3.125
			c-1.135,0.797-2.402,0.731-3.645,0.225c-0.133-0.053-0.285-0.401-0.229-0.521c0.361-0.772,0.795-1.509,1.172-2.274
			c0.33-0.667,0.652-1.344,0.912-2.039c0.211-0.564-0.145-1.293-0.713-1.639c-0.51-0.309-1.092-0.324-1.5,0.033
			c-0.717,0.625-1.381,1.328-1.963,2.08c-0.451,0.584-0.73,1.303-1.117,1.939c-0.541,0.883-1.189,1-2.17,0.438
			c-0.67-0.387-0.904-0.938-0.596-1.6c0.496-1.064,1.057-2.099,1.553-3.162c0.281-0.602,0.055-1.289-0.482-1.705
			c-0.426-0.332-1.182-0.312-1.451,0.088c-0.598,0.883-1.125,1.814-1.752,2.673c-0.352,0.479-0.477,1.487-1.209,1.268
			c-0.893-0.269-1.604-1.029-1.926-1.978c-0.09-0.266,0.004-0.646,0.131-0.922c0.695-1.529,1.684-2.742,3.541-2.766
			c0.91-0.012,1.639-0.388,2.35-0.889c1.008-0.707,1.719-1.6,1.875-2.854c0.131-1.054,0.346-2.11,0.352-3.166
			c0.027-5.239,0.055-10.479-0.031-15.718c-0.041-2.557-0.293-5.111-0.506-7.664c-0.119-1.422-0.068-2.768,0.844-3.957
			c0.127-0.163,0.178-0.387,0.248-0.588c0.193-0.556-0.229-1.352-0.859-1.498c-0.51-0.119-1.102-0.004-1.561-0.211
			c-0.898-0.406-1.32-1.395-0.838-2.083c0.432-0.61,0.848-1.241,1.168-1.913c0.221-0.463,0.354-1.008,0.369-1.52
			c0.033-1.178-1.34-2-2.258-1.313c-0.93,0.696-1.748,1.552-2.566,2.386c-0.494,0.502-1.021,0.711-1.715,0.614
			c-1.371-0.19-2.748-0.351-4.121-0.519c-0.541-0.064-0.822-0.449-0.547-0.834c0.74-1.041,1.488-2.08,2.299-3.066
			c0.521-0.639,0.654-1.291,0.5-2.08c-0.244-1.26-0.213-1.217,0.732-1.311c2.395-0.237,4.643,0.635,6.977,0.844
			c1.471,0.984,3.27,1.443,4.188,3.275c0.818,1.635,1.625,3.176,1.822,5.059c0.221,2.111,0.732,4.199,1.215,6.275
			c0.684,2.943,0.762,5.924,0.738,8.92c-0.008,1.068,0,2.137,0,3.207c0,1.389,0.111,2.79-0.02,4.168
			c-0.43,4.457,0.959,8.659,1.734,12.945c0.111,0.606,0.471,1.186,0.793,1.729c0.141,0.234,0.48,0.49,0.732,0.492
			c2.033,0.016,3.912,1.141,5.99,0.809c0.188-0.031,0.4,0.111,0.602,0.174C108.705,76.028,108.666,76.37,108.48,76.579z
			 M76.58,91.382c-0.957-0.854-1.92-1.709-2.812-2.627c-3.133-3.217-6.305-6.396-9.006-10.008c-0.764-1.02-1.803-1.95-3.064-2.172
			c-1.076-0.191-2.311-0.398-3.34-0.137c-3.791,0.965-7.629,0.854-11.475,0.914c-2.92,0.045-5.727-0.552-8.535-1.201
			c-0.412-0.096-0.816-0.252-1.205-0.42c-1.344-0.574-2.32-1.451-2.686-2.959c-0.326-1.346-0.871-2.639-1.182-3.988
			c-1.332-5.852-1.822-11.805-2.027-17.789c-0.006-0.213,0.008-0.428,0.023-0.641c0.049-0.756,0.41-1.103,1.234-1.127
			c2.244-0.065,4.488-0.143,6.732-0.164c1.205-0.01,2.328-0.319,3.412-0.783c0.633-0.271,0.967-0.809,0.996-1.518
			c0.061-1.488-0.547-2.728-1.555-3.746c-2.182-2.205-4.342-4.442-6.658-6.506c-1.199-1.072-2.363-2.152-3.402-3.379
			c-1.039-1.225-2.072-2.455-3.176-3.617c-1.18-1.24-2.363-2.494-3.678-3.578c-2.322-1.912-4.141-1.647-5.973,0.793
			c-1.994,2.654-4.023,5.263-6.463,7.539c-2.584,2.408-5.092,4.896-7.625,7.357c-0.922,0.895-1.836,1.797-2.727,2.723
			c-0.979,1.016-1.705,2.211-2.125,3.549c-0.145,0.455-0.08,1.067,0.105,1.518c0.494,1.193,1.4,1.808,2.766,1.738
			c1.281-0.066,2.568-0.014,3.854-0.012c1.711,0.004,3.426-0.008,5.137,0.023c0.695,0.012,1.152,0.624,1.086,1.307
			c-0.174,1.805-0.438,3.607-0.477,5.414c-0.078,3.424-0.025,6.852-0.025,10.275h0.027c0,3.96-0.002,7.92,0.002,11.879
			c0.004,2.156,0.543,4.23,0.975,6.32c0.316,1.531,1.072,2.789,2.34,3.701c0.688,0.496,1.396,0.986,2.158,1.352
			c3.566,1.715,7.229,3.135,11.166,3.813c3.896,0.673,7.799,1.269,11.754,1.407c1.818,0.062,3.639,0.055,5.459,0.105
			c3.52,0.096,7.061-0.279,10.557,0.443c0.309,0.064,0.639,0.031,0.961,0.031c2.676,0.004,5.357,0.127,8.025-0.021
			c2.873-0.16,5.725-0.672,8.615-0.572c0.105,0.004,0.217-0.018,0.318-0.047c1.211-0.354,2.1-1.09,2.451-2.316
			C77.844,93.124,77.463,92.168,76.58,91.382z M28.598,88.264c-0.627-0.113-1.242-0.308-1.852-0.499
			c-0.438-0.139-0.582-0.58-0.34-1.029c0.357-0.656,0.74-1.301,1.111-1.949c0.529-0.928,1.09-1.841,1.578-2.791
			c0.186-0.363,0.281-0.807,0.297-1.219c0.021-0.566-0.254-1.029-0.789-1.28c-0.537-0.253-1.098-0.199-1.463,0.242
			c-0.82,0.985-1.582,2.015-2.332,3.054c-0.625,0.865-1.172,1.79-1.816,2.639c-0.135,0.176-0.635,0.271-0.824,0.162
			c-0.223-0.129-0.445-0.557-0.395-0.799c0.121-0.615,0.361-1.219,0.619-1.797c0.875-1.947,1.787-3.879,2.67-5.824
			c0.219-0.484,0.457-0.98,0.545-1.496c0.066-0.377-0.035-0.822-0.186-1.186c-0.158-0.385-0.869-0.322-1.371,0.216
			c-1.086,1.167-2.102,2.401-3.17,3.591c-0.111,0.124-0.4,0.203-0.553,0.146c-0.16-0.059-0.326-0.284-0.367-0.465
			c-0.35-1.521-0.176-2.922,0.758-4.26c1.344-1.926,2.568-3.934,3.84-5.911c0.23-0.358,0.457-0.723,0.645-1.104
			c0.516-1.061,0.254-2.062-0.713-2.844c-0.738-0.596-1.955-0.711-2.701-0.232c-0.27,0.173-0.486,0.418-0.75,0.602
			c-0.562,0.392-0.732,1.316-1.65,1.229c-0.062-0.631-0.176-1.262-0.182-1.893c-0.021-2.138-0.008-4.277-0.008-6.416h0.076
			c-0.076-2.246-0.078-4.496-0.256-6.734c-0.107-1.367-0.412-2.733-0.768-4.064c-0.223-0.838-1.52-1.338-2.111-0.76
			c-1.234,1.209-2.715,1.052-4.189,1.082c-0.531,0.011-1.064-0.048-1.596-0.09c-0.096-0.008-0.266-0.094-0.266-0.143
			c0-0.162,0.006-0.389,0.109-0.479c4.174-3.695,7.916-7.799,11.42-12.125c0.355-0.436,0.6-0.363,1.051-0.137
			c3.234,1.629,6.227,3.576,8.771,6.192c1.041,1.069,2.234,1.988,3.336,3.001c0.516,0.476,1.311,0.711,1.414,1.561
			c-0.705,0.215-1.398,0.498-2.119,0.625c-0.73,0.13-1.486,0.111-2.232,0.15c-1.387,0.076-2.777,0.136-4.162,0.227
			c-0.484,0.032-0.807,0.369-0.805,0.825c0.01,4.487-0.752,8.943-0.398,13.447c0.387,4.925,1.477,9.694,2.865,14.411
			c0.182,0.609,0.336,1.237,0.611,1.803c0.664,1.355,1.498,2.578,2.9,3.309c0.566,0.295,1.098,0.662,1.633,1.014
			c0.4,0.264,0.506,0.754,0.205,1.061c-1.816,1.841-3.338,3.896-4.498,6.207C29.838,88.233,29.266,88.386,28.598,88.264z
			 M48.805,83.247c-0.256,0.182-0.512,0.436-0.801,0.488c-0.756,0.141-1.162,0.373-0.562,1.146
			c-0.424,1.457-1.273,2.693-2.268,3.783c-0.35,0.385-1.168,0.344-1.416,0.406c-1.043-0.024-1.268-0.391-0.979-1.004
			c0.23-0.48,0.559-0.93,0.695-1.432c0.133-0.498,0.133-1.049,0.084-1.568c-0.061-0.643-0.645-1.15-1.283-1.232
			c-0.574-0.072-1.084,0.105-1.393,0.582c-0.809,1.25-1.619,2.502-2.332,3.808c-0.361,0.663-0.826,0.925-1.52,0.874
			c-0.635-0.049-1.271-0.119-1.902-0.209c-0.373-0.053-0.693-0.656-0.516-1.004c0.479-0.946,0.965-1.893,1.502-2.807
			c0.596-1.012,1.191-2.008,1.303-3.217c0.014-0.124,0.334-0.342,0.469-0.314c3.553,0.746,7.152,0.996,10.773,1.047
			c0.105,0.002,0.232,0.244,0.299,0.395C48.982,83.044,48.883,83.191,48.805,83.247z M60.941,87.575
			c-0.609,0.125-1.43-0.137-1.766,0.498c-0.438,0.818-1.057,0.951-1.844,0.916c-0.959-0.043-1.953,0.064-2.867-0.152
			c-0.682-0.162-1.227-0.012-1.848,0.081c-0.84,0.124-1.707,0.091-2.562,0.083c-1.141-0.009-1.291-0.289-0.736-1.336
			c0.447-0.85,0.904-1.697,1.373-2.537c0.334-0.6,0.379-1.174,0.086-1.827c-0.229-0.517,0.18-0.786,0.629-0.805
			c0.959-0.042,1.922-0.013,2.885-0.013c4.455-0.021,3.324-0.414,6.143,2.871c0.346,0.404,0.668,0.828,0.977,1.258
			C61.654,86.95,61.398,87.481,60.941,87.575z"/>
	</g>
</g>
</svg>
