<?xml version="1.0" encoding="utf-8"?>
<!-- Generator: Adobe Illustrator 16.0.0, SVG Export Plug-In . SVG Version: 6.00 Build 0)  -->
<!DOCTYPE svg PUBLIC "-//W3C//DTD SVG 1.1//EN" "http://www.w3.org/Graphics/SVG/1.1/DTD/svg11.dtd">
<svg version="1.1" id="Layer_1" xmlns="http://www.w3.org/2000/svg" xmlns:xlink="http://www.w3.org/1999/xlink" x="0px" y="0px"
	 width="120px" height="120px" viewBox="0 0 120 120" style="enable-background:new 0 0 120 120;" xml:space="preserve">
<g id="plus">
	<g>
		<path style="fill-rule:evenodd;clip-rule:evenodd;" d="M105.258,49.471c-0.021-2.457-0.982-3.436-3.336-3.062
			c-2.035,0.322-4.02,0.426-6.045,0.01c-0.725-0.148-1.494-0.072-2.24-0.105c-5.014-0.23-10.027-0.459-15.041-0.697
			c-0.578-0.027-0.922-0.416-0.938-1.053c-0.018-0.641,0.01-1.283,0.01-1.926c-0.006-4.92,0.018-9.84-0.029-14.76
			c-0.025-2.443-0.498-4.881-0.094-7.338c0.047-0.283-0.023-0.715-0.213-0.891c-1.48-1.357-2.865-2.871-5.094-3.012
			c-1.719-0.111-3.416-0.072-5.111,0.234c-2.729,0.492-5.453,1.01-8.191,1.439c-2.742,0.432-5.525,0.422-8.281,0.861
			c-1.627,0.26-3.062,0.822-4.541,1.416c-0.691,0.275-1.055,0.758-1.062,1.439c-0.021,1.814-0.172,3.658,0.076,5.443
			c0.664,4.799,0.291,9.607,0.34,14.41c0.004,0.598-0.332,0.918-0.91,1.135c-0.578,0.219-1.199,0.52-1.604,0.965
			c-0.807,0.887-1.768,1.129-2.887,1.088c-1.281-0.045-2.561-0.115-3.812,0.312c-2.684,0.916-5.463,0.887-8.25,0.793
			c-0.854-0.027-1.709-0.004-2.564-0.004v0.117c-1.068,0-2.137,0.002-3.205,0c-1.285-0.002-2.572,0.061-3.85-0.025
			c-1.332-0.09-2.201,0.762-3.137,1.42c-0.68,0.482-0.428,1.377-0.461,2.105c-0.277,6.43,0.484,12.811,0.867,19.209
			c0.102,1.703,0.18,3.408,0.258,5.113c0.088,1.955,0.791,2.805,2.59,3.004c0.633,0.068,1.281,0,1.92,0.006
			c3.529,0.029,7.072-0.135,10.58,0.152c3.523,0.287,7.037,0.455,10.564,0.432c2.158-0.014,2.307,0.098,2.299,2.348
			c-0.004,0.947,0.219,1.904,0.428,2.836c0.834,3.705,0.711,7.418,0.291,11.158c-0.213,1.908-0.205,3.842-0.322,5.762
			c-0.074,1.219,0.555,2.08,1.496,2.65c0.709,0.43,1.553,0.715,2.373,0.865c0.83,0.148,1.705,0.092,2.559,0.057
			c2.988-0.117,5.977-0.365,8.967-0.367c2.988-0.002,5.977,0.234,8.965,0.363c0.32,0.014,0.643-0.008,0.963,0.014
			c2.824,0.199,4.857-1.336,6.742-3.133c0.355-0.34,0.547-0.92,0.666-1.426c0.146-0.617,0.178-1.273,0.188-1.912
			c0.094-5.455,0.162-10.908-0.494-16.34c-0.127-1.057-0.1-2.135-0.074-3.203c0.025-1.162,0.424-1.572,1.521-1.611
			c1.176-0.041,2.354-0.01,3.529-0.047c3.631-0.115,7.262-0.346,10.893-0.332c1.988,0.008,4.049-0.105,5.91,0.986
			c0.992,0.584,2.064,0.4,3.051-0.18c0.869-0.508,1.475-1.258,1.775-2.197c0.291-0.912,0.578-1.854,0.668-2.799
			c0.254-2.654,0.834-5.277,0.76-7.969c-0.027-0.953,0.184-1.912,0.26-2.871c0.115-1.488,0.268-2.979,0.299-4.473
			C105.322,53.746,105.277,51.609,105.258,49.471z M96.838,54.971c-0.59,4.043-0.469,8.111-0.475,12.178
			c0,0.516-0.129,1.039-0.273,1.539c-0.039,0.137-0.346,0.268-0.531,0.27c-0.156,0-0.439-0.182-0.447-0.301
			c-0.039-0.529,0.051-1.068,0.004-1.596c-0.131-1.531-0.977-2.309-2.549-2.223c-0.949,0.051-1.949,0.152-2.818,0.5
			c-3.371,1.342-6.766,1.635-10.369,1.072c-1.953-0.305-4.047-0.512-6.043,0.195c-0.279,0.1-0.66,0.078-0.939-0.027
			c-1.209-0.459-1.809,0.229-2.264,1.162c-0.469,0.969-0.748,1.988-0.803,3.082c-0.068,1.375,0.252,2.789-0.357,4.125
			c-0.08,0.174-0.07,0.436-0.006,0.623c0.793,2.293,0.328,4.672,0.492,7.004c0.186,2.666,0.354,5.334,0.516,8.002
			c0.026,0.404-0.002,0.814-0.01,1.219c0.021,0.001,0.043,0.001,0.064,0.002c0,0.025-0.001,0.05-0.001,0.075
			c0.093,0.025,0.197,0.044,0.226,0.101c0.57,1.146,0.785,2.371,0.639,3.633c-0.023,0.213-0.426,0.383-0.652,0.574
			c-0.084-0.186-0.207-0.363-0.246-0.557c-0.041-0.203,0-0.424,0.002-0.637c0.012-1.037,0.021-2.077,0.032-3.114
			c-0.022-0.006-0.046-0.011-0.065-0.019c0-0.02,0.001-0.039,0.002-0.059c-0.961-0.033-1.87,0.049-2.531,0.908
			c-1.068,1.391-2.521,1.816-4.234,1.826c-1.486,0.008-2.971,0.271-4.459,0.4c-0.193,0.016-0.465-0.061-0.578-0.195
			c-0.082-0.1-0.021-0.41,0.08-0.553c0.5-0.689,1.016-1.371,1.561-2.025c1.506-1.809,3.055-3.582,4.537-5.408
			c0.889-1.096,0.779-2.25-0.211-3.137c-0.416-0.373-0.889-0.555-1.461-0.297c-2.068,0.934-3.977,2.094-5.48,3.828
			c-0.771,0.889-1.516,1.799-2.305,2.672c-0.17,0.188-0.48,0.25-0.727,0.369c-0.004-0.287-0.127-0.66,0.008-0.846
			c1.881-2.596,3.811-5.154,5.691-7.75c0.434-0.598,0.801-1.27,1.066-1.959c0.238-0.615,0.141-1.295-0.324-1.809
			c-0.539-0.596-1.242-0.834-2.039-0.623c-1.607,0.424-2.842,1.449-4.008,2.568c-0.221,0.209-0.357,0.23-0.471-0.072
			c-0.033-0.084,0-0.227,0.055-0.309c0.238-0.354,0.49-0.699,0.748-1.039c1.291-1.707,2.598-3.402,3.873-5.119
			c0.639-0.859,1.246-1.742,1.818-2.645c0.223-0.35,0.354-0.773,0.449-1.182c0.238-1.014-0.691-1.961-1.691-1.721
			c-1.047,0.25-2.057,0.59-2.852,1.377c-0.99,0.979-1.994,1.943-3.002,2.902c-0.148,0.141-0.357,0.219-0.537,0.328
			c-0.131-0.254-0.373-0.506-0.377-0.762c-0.021-1.713,0.025-3.402,1-4.941c0.49-0.771,0.369-1.648-0.17-2.42
			c-0.326-0.465-0.752-0.748-1.346-0.666c-0.502,0.068-0.689,0.438-0.781,0.877c-0.064,0.312-0.08,0.641-0.182,0.938
			c-0.148,0.432-0.504,0.826-0.939,0.66c-1.158-0.441-2.309-0.148-3.465-0.152c-0.102,0-0.332-0.395-0.283-0.475
			c0.82-1.367,1.646-2.734,2.537-4.057c0.445-0.664,0.697-1.336,0.5-2.104c-0.068-0.264-0.314-0.521-0.547-0.688
			c-0.111-0.078-0.463-0.004-0.562,0.119c-0.76,0.92-1.75,1.535-2.699,2.229c-1.477,1.078-2.693,2.438-3.697,3.977
			c-0.504,0.773-1.203,1.174-2.135,1.211c-1.176,0.047-2.35,0.148-3.525,0.195c-0.188,0.008-0.523-0.102-0.547-0.213
			c-0.057-0.256-0.055-0.602,0.082-0.809c0.525-0.805,1.129-1.559,1.67-2.352c0.506-0.742,0.639-1.568,0.443-2.451
			c-0.143-0.637-0.83-1.105-1.426-0.98c-1.092,0.229-1.996,0.777-2.701,1.621c-0.891,1.068-1.906,2.08-2.564,3.281
			c-0.842,1.543-2.018,2.094-3.662,1.99c-0.205-0.012-0.42,0.131-0.625,0.115c-0.176-0.014-0.457-0.123-0.484-0.238
			c-0.041-0.17,0.051-0.432,0.176-0.574c1.826-2.094,3.66-4.18,5.508-6.258c0.701-0.787,0.883-1.678,0.424-2.307
			c-0.363-0.494-1.271-0.674-2.068-0.41c-1.146,0.377-2.086,1.055-2.918,1.92c-1.41,1.465-2.84,2.91-4.273,4.35
			c-0.133,0.133-0.369,0.164-0.557,0.244c-0.064-0.201-0.178-0.4-0.186-0.604c-0.084-2.674-0.17-5.348-0.219-8.023
			c-0.016-0.84,0.248-1.135,1.121-1.262c1.373-0.201,2.754-0.357,4.135-0.482c0.744-0.068,1.498-0.045,2.248-0.045
			c3.434-0.008,6.791-0.477,10.152-1.229c1.834-0.408,3.531-1.301,5.547-1.24c1.773,0.055,3.562-0.607,5.355-0.881
			c0.746-0.113,1.123-0.436,1.268-1.17c0.279-1.395,1.016-2.586,1.842-3.711c1.33-1.807,2.682-3.6,4.086-5.352
			c0.541-0.674,1.092-1.307,1.332-2.158c0.234-0.822-0.639-1.828-1.463-1.604c-1.455,0.398-2.822,0.992-3.975,2.002
			c-0.562,0.49-1.113,0.998-1.701,1.457c-0.1,0.08-0.371-0.025-0.545-0.092c-0.076-0.029-0.168-0.18-0.156-0.26
			c0.088-0.512,0.057-1.123,0.334-1.512c0.742-1.041,1.625-1.98,2.441-2.971c0.816-0.988,1.662-1.957,2.404-3
			c0.289-0.404,0.42-0.977,0.471-1.488c0.07-0.711-0.355-1.166-0.99-1.488c-0.559-0.281-1.016-0.207-1.455,0.188
			c-0.16,0.143-0.273,0.344-0.445,0.461c-0.92,0.625-1.584,1.678-2.854,1.727c-0.246-1.137-0.516-2.268-0.723-3.41
			c-0.076-0.412-0.072-0.871,0.041-1.27c0.066-0.24,0.383-0.451,0.633-0.592c0.166-0.094,0.422-0.072,0.631-0.043
			c2.219,0.307,4.43,0.668,6.654,0.93c3.182,0.375,6.373,0.686,9.561,1.002c0.744,0.072,1.5,0.041,2.246,0.094
			c0.721,0.051,1.229,0.586,1.121,1.271c-0.367,2.352-0.258,4.688,0.047,7.031c0.109,0.844,0.17,1.729,0.043,2.562
			c-0.639,4.273,0.441,8.514,0.182,12.777c-0.062,1.006,0.258,1.359,1.234,1.514c1.574,0.25,3.107,0.395,4.744-0.016
			c1.408-0.355,2.996-0.305,4.453-0.096c3.727,0.535,7.473,0.416,11.207,0.609c0.848,0.045,1.693,0.176,2.531,0.328
			c0.449,0.08,0.729,0.42,0.76,0.895C96.881,54.328,96.883,54.654,96.838,54.971z"/>
	</g>
</g>
</svg>
