<?xml version="1.0" encoding="utf-8"?>
<!-- Generator: Adobe Illustrator 16.0.0, SVG Export Plug-In . SVG Version: 6.00 Build 0)  -->
<!DOCTYPE svg PUBLIC "-//W3C//DTD SVG 1.1//EN" "http://www.w3.org/Graphics/SVG/1.1/DTD/svg11.dtd">
<svg version="1.1" id="Layer_1" xmlns="http://www.w3.org/2000/svg" xmlns:xlink="http://www.w3.org/1999/xlink" x="0px" y="0px"
	 width="120px" height="120px" viewBox="0 0 120 120" style="enable-background:new 0 0 120 120;" xml:space="preserve">
<g id="heart">
	<g>
		<path style="fill-rule:evenodd;clip-rule:evenodd;" d="M109.45,36.25c-0.275-0.91-0.102-1.916-0.721-2.762
			c-0.77-1.053-1.072-2.32-1.395-3.562c-0.492-1.908-1.406-3.557-2.83-4.939c-0.988-0.963-1.908-1.967-2.705-3.137
			c-0.947-1.395-2.211-2.584-4.064-2.9c-0.824-0.143-1.596-0.594-2.393-0.906c-1.512-0.588-3.07-0.771-4.699-0.816
			c-3.133-0.092-6.188,0.09-9.086,1.416c-0.289,0.135-0.611,0.195-0.912,0.311c-2.389,0.916-4.518,2.371-6.871,3.369
			c-0.367,0.156-0.623,0.576-0.941,0.861c-0.477,0.43-0.934,0.887-1.451,1.264c-2.703,1.967-5.027,4.312-7.049,6.969
			c-0.322,0.424-0.678,0.824-1.035,1.223c-0.332,0.371-0.734,0.379-1.02-0.049c-0.605-0.91-1.297-1.73-2.332-2.127
			c-1.947-0.748-3.467-2.055-4.941-3.477c-0.996-0.959-2.117-1.795-3.221-2.635c-2.922-2.221-6.182-3.809-9.652-4.939
			c-1.199-0.391-2.539-0.74-3.752-0.596c-1.498,0.176-2.982,0.164-4.473,0.238c-4.465,0.225-8.59,1.42-12.311,4.021
			c-1.963,1.375-3.576,3.047-5.023,4.895c-1.826,2.336-3.547,4.701-4.691,7.531c-1.512,3.738-2.373,7.521-2.268,11.732
			c-0.438,3.051,0.277,6.23,0.961,9.332c0.611,2.785,1.908,5.453,3.566,7.832c1.523,2.184,2.91,4.471,4.787,6.41
			c1.109,1.145,1.99,2.508,2.986,3.766c0.264,0.332,0.521,0.689,0.855,0.939c1.969,1.467,3.969,2.895,5.941,4.355
			c1.717,1.27,3.408,2.57,5.121,3.846c0.422,0.316,0.844,0.67,1.324,0.865c2,0.805,3.793,1.955,5.508,3.232
			c1.543,1.146,3.039,2.355,4.58,3.504c2.664,1.986,5.213,4.113,7.477,6.537c2.178,2.336,4.914,3.666,7.82,4.727
			c1.035,0.379,2.129,0.246,3.088-0.354c0.816-0.51,1.602-1.07,2.369-1.648c4.111-3.094,7.924-6.529,11.559-10.162
			c6.359-6.35,12.637-12.779,18.461-19.635c0.273-0.322,0.584-0.631,0.928-0.873c2.301-1.629,4.148-3.688,5.721-6.006
			c0.604-0.889,1.293-1.648,2.244-2.225c1.113-0.676,1.85-1.762,2.41-2.939c1.58-3.303,2.732-6.762,3.041-10.402
			C110.708,44.279,110.642,40.209,109.45,36.25z M28.604,67.227c-0.045-0.07-0.135-0.146-0.125-0.211
			c0.008-0.064,0.107-0.119,0.168-0.178c0.045,0.07,0.092,0.143,0.129,0.201C28.718,67.104,28.661,67.164,28.604,67.227z
			 M102.991,40.471c-0.438,0.34-0.693,1.08-0.783,1.676c-0.281,1.9-0.502,3.812-0.643,5.727c-0.289,3.93-1.684,7.512-3.617,10.852
			c-0.836,1.441-2.244,2.564-3.443,3.781c-1.123,1.139-2.201,2.293-3.193,3.568c-1.168,1.504-2.693,2.736-4.082,4.066
			c-1.699,1.625-3.473,3.178-5.119,4.854c-2.938,2.986-6.158,5.613-9.586,8.01c-0.861,0.604-1.633,1.363-2.352,2.141
			c-1.16,1.254-2.227,2.6-3.363,3.877c-0.904,1.016-0.926,0.998-2.111,0.377c-0.189-0.1-0.375-0.209-0.553-0.326
			c-1.453-0.951-2.693,0.246-2.947,1.344c-0.189,0.826-0.129,1.707-0.27,2.547c-0.041,0.242-0.377,0.562-0.619,0.605
			c-0.24,0.043-0.662-0.152-0.775-0.365c-0.242-0.449-0.445-0.975-0.471-1.479c-0.082-1.604-0.031-3.211-0.117-4.812
			c-0.057-1.062-0.25-2.117-0.408-3.172c-0.047-0.312-0.156-0.623-0.283-0.914c-0.297-0.689-1.137-1.258-1.742-1.207
			c-0.639,0.049-1.125,0.719-1.209,1.654c-0.115,1.273-0.219,2.547-0.371,3.816c-0.018,0.143-0.305,0.322-0.486,0.352
			c-0.123,0.018-0.373-0.172-0.414-0.314c-0.238-0.818-0.543-1.639-0.617-2.479c-0.412-4.68-1.371-9.305-1.355-14.031
			c0.004-1.385-0.422-2.035-1.098-1.996c-1.072,0.064-1.436,0.912-1.623,1.732c-0.426,1.865-0.814,3.748-1.053,5.645
			c-0.199,1.588-0.15,3.205-0.244,4.807c-0.01,0.152-0.225,0.383-0.379,0.416c-0.176,0.039-0.461-0.045-0.574-0.182
			c-0.332-0.396-0.879-0.869-0.844-1.27c0.119-1.361-0.428-2.516-0.865-3.709c-0.705-1.924-1.09-3.895-1.152-5.949
			c-0.055-1.812-0.277-3.621-0.334-5.434c-0.029-0.844,0.164-1.691,0.238-2.539c0.074-0.836-0.322-1.604-0.949-1.871
			c-0.738-0.318-1.781-0.031-2.309,0.646c-0.752,0.963-1.109,2.062-1.104,3.279c0.018,3.102,0.033,6.203,0.057,9.305
			c0.004,0.535,0.053,1.068,0.07,1.602c0.006,0.225-0.514,0.537-0.713,0.445c-1.299-0.604-2.34-1.438-2.828-2.869
			c-0.896-2.629-1.85-5.211-1.777-8.082c0.043-1.691-0.324-3.395-0.479-5.096c-0.215-2.355-0.232-4.699,0.553-6.979
			c0.104-0.301,0.15-0.625,0.189-0.943c0.121-0.973-0.318-1.842-1.064-2.121c-0.781-0.295-1.525-0.154-2.057,0.449
			c-0.557,0.631-1.105,1.324-1.428,2.088c-0.367,0.873-0.594,1.842-0.682,2.787c-0.275,2.977-0.795,5.936-0.652,8.945
			c0.025,0.529-0.064,1.064-0.119,1.596c-0.01,0.094-0.109,0.18-0.168,0.268c-0.105-0.121-0.295-0.238-0.305-0.365
			c-0.361-4.91-0.52-9.82,0.221-14.713c0.127-0.842,0.408-1.658,0.594-2.492c0.17-0.775-0.545-1.42-1.355-1.283
			c-0.684,0.115-1.221,0.473-1.537,1.045c-0.508,0.916-0.752,2.037-1.424,2.787c-0.605,0.674-1.615,0.988-2.115,1.865
			c-0.027,0.05-0.13,0.059-0.224,0.072c0.001,0.026,0.001,0.053,0.003,0.08c-0.036,0.017-0.057,0.038-0.089,0.056
			c-0.039,0.562-0.069,1.124-0.124,1.685c-0.014,0.135-0.129,0.26-0.197,0.389c-0.039-0.094-0.119-0.189-0.109-0.275
			c0.077-0.617-0.324-1.372,0.43-1.798c0.003-0.042,0.006-0.083,0.009-0.124c0.022-0.005,0.051-0.008,0.077-0.012
			c-0.197-3.425,0.239-6.734,1.716-9.879c0.76-1.617-0.346-3.248-2.217-3.33c-0.295-0.014-0.67,0.104-0.883,0.299
			c-0.467,0.424-0.842,0.945-1.277,1.406c-0.109,0.115-0.297,0.166-0.461,0.209c-0.029,0.008-0.15-0.164-0.156-0.258
			c-0.123-1.928-0.236-3.859,1.008-5.541c0.064-0.086,0.121-0.182,0.152-0.281c0.957-3.096,3.303-4.861,5.971-6.377
			c4.209-2.389,8.689-3.52,13.527-3.176c2.537,0.182,4.771,1.234,6.752,2.717c4.449,3.334,8.881,6.715,12.262,11.223
			c0.672,0.896,1.611,1.4,2.527,1.928c1.012,0.582,2.193,0.238,2.711-0.885c1.236-2.68,3.332-4.691,5.145-6.926
			c0.336-0.414,0.748-0.766,1.092-1.176c3.031-3.654,7.07-5.416,11.633-6.162c3.275-0.535,6.576-0.674,9.895-0.789
			c3.326-0.115,5.51,1.523,7.215,3.986c1.455,2.104,2.664,4.383,3.924,6.617c0.305,0.539,0.361,1.211,0.568,1.811
			C103.976,38.916,103.948,39.727,102.991,40.471z"/>
	</g>
</g>
</svg>
