<?xml version="1.0" encoding="utf-8"?>
<!-- Generator: Adobe Illustrator 16.0.0, SVG Export Plug-In . SVG Version: 6.00 Build 0)  -->
<!DOCTYPE svg PUBLIC "-//W3C//DTD SVG 1.1//EN" "http://www.w3.org/Graphics/SVG/1.1/DTD/svg11.dtd">
<svg version="1.1" id="Layer_1" xmlns="http://www.w3.org/2000/svg" xmlns:xlink="http://www.w3.org/1999/xlink" x="0px" y="0px"
	 width="120px" height="120px" viewBox="0 0 120 120" style="enable-background:new 0 0 120 120;" xml:space="preserve">
<g id="star">
	<g>
		<path style="fill-rule:evenodd;clip-rule:evenodd;" d="M105.726,49.153c-0.134-0.647-0.33-1.288-0.421-1.942
			c-0.176-1.279-0.958-2.006-2.135-2.232c-1.184-0.228-2.4-0.341-3.605-0.38c-3.65-0.11-7.312-0.021-10.949-0.276
			c-3.21-0.226-6.392-0.352-9.591,0.057c-1.204,0.151-2.427,0.151-3.644,0.215c-1.154,0.06-1.85-0.494-2.227-1.58
			c-0.79-2.292-1.62-4.571-2.441-6.854c-1.793-4.984-3.555-9.984-5.406-14.948c-0.965-2.585-2.068-5.12-2.533-7.863
			c-0.039-0.218-0.052-0.473-0.178-0.632c-0.189-0.243-0.447-0.557-0.711-0.595c-0.97-0.133-1.965-0.343-2.78,0.544
			c-0.278,0.303-0.733,0.518-1.143,0.612c-0.858,0.196-1.301,0.82-1.671,1.496c-0.425,0.773-0.813,1.576-1.13,2.397
			c-1.232,3.195-2.495,6.381-3.626,9.613c-1.677,4.796-3.258,9.624-4.865,14.444c-0.243,0.728-0.417,1.481-0.598,2.229
			c-0.229,0.946-0.36,1.097-1.289,1.112c-0.996,0.021-1.993,0.025-2.987-0.016c-6.294-0.255-12.605,0.028-18.273-0.684
			c-2.161,0-3.712-0.062-5.255,0.031c-0.746,0.042-1.531,0.263-2.199,0.602c-2.029,1.029-2.36,2.163-1.118,3.978
			c0.808,1.184,1.745,2.288,2.719,3.34c1.654,1.791,3.397,3.473,5.647,4.558c0.771,0.374,1.464,0.993,2.058,1.623
			c1.821,1.934,3.549,3.952,5.362,5.889c2.041,2.179,4.049,4.402,6.53,6.113c0.815,0.562,1.22,1.256,0.878,2.257
			c-0.215,0.628-0.422,1.256-0.646,1.881c-1.939,5.406-3.642,10.888-5.04,16.46c-0.858,3.426-1.711,6.852-2.521,10.289
			c-0.147,0.621-0.229,1.333-0.073,1.934c0.595,2.284,3.06,3.387,5.267,2.386c1.106-0.502,2.182-1.079,3.235-1.683
			c3.56-2.042,6.78-4.566,10.05-7.029c4.063-3.058,8.187-6.035,12.296-9.028c0.974-0.712,1.384-0.641,2.338,0.146
			c1.789,1.477,3.546,2.997,5.398,4.389c4.426,3.321,8.758,6.748,12.777,10.564c1.684,1.598,3.545,3.011,5.201,4.631
			c1.096,1.07,2.131,0.959,3.279,0.305c0.27-0.15,0.635-0.432,0.652-0.674c0.09-1.312,0.086-2.631,0.113-3.945
			c-1.172-1.194-1.082-2.832-1.522-4.288c-1.505-4.973-2.739-10.004-3.452-15.154c-0.469-3.392-0.957-6.781-1.345-10.181
			c-0.149-1.311-0.08-2.647-0.049-3.973c0.03-1.244,0.304-2.49,1.353-3.246c3.314-2.383,6.439-5.055,10.107-6.92
			c2.479-1.256,4.713-2.863,6.891-4.574c1.064-0.836,1.854-1.881,2.695-2.904C105.763,50.898,105.914,50.068,105.726,49.153z
			 M28.58,50.858c-0.153,0.4-0.407,0.862-0.91,0.61c-0.466-0.232-0.843-0.65-1.246-1.002c-0.072-0.061-0.136-0.257-0.104-0.289
			c0.14-0.14,0.301-0.289,0.482-0.341c0.198-0.06,0.428-0.015,0.856-0.015c0.102,0.03,0.418,0.094,0.71,0.216
			C28.766,50.206,28.693,50.563,28.58,50.858z M36.99,50.699c-0.888,1.522-1.78,3.041-2.671,4.562
			c-0.25,0.428-0.609,0.616-1.086,0.414c-0.582-0.245-1.026-0.863-0.883-1.242c0.309-0.824,0.719-1.615,0.967-2.457
			c0.628-2.135,1.024-2.154,3.455-1.979c0.128,0.01,0.242,0.25,0.353,0.374C37.073,50.496,37.044,50.606,36.99,50.699z
			 M97.254,51.313c-0.994,0.694-1.968,1.439-3.028,2.018c-4.09,2.228-7.835,4.967-11.575,7.712c-0.609,0.445-1.244,0.989-1.59,1.636
			c-0.664,1.238-1.613,2.024-2.844,2.647c-2.117,1.079-2.6,1.287-1.925,4.45c0.972,4.546,2.622,8.872,3.862,13.328
			c0.953,3.424,1.461,6.9,1.868,10.408c0.022,0.19-0.075,0.46-0.214,0.584c-0.095,0.085-0.423,0.042-0.54-0.062
			c-4.273-3.844-8.536-7.702-12.8-11.556c-0.41-0.369-0.775-0.836-1.254-1.07c-1.99-0.979-3.916-2.041-5.686-3.392
			c-0.257-0.195-0.957-0.166-1.204,0.047c-1.26,1.089-3.072,1.153-4.223,2.517c-0.988,1.169-2.321,2.038-3.464,3.08
			c-3.592,3.279-7.158,6.586-10.754,9.861c-0.979,0.891-2.028,1.704-3.049,2.548c-0.081,0.065-0.204,0.081-0.307,0.122
			c-0.067-0.196-0.232-0.42-0.187-0.582c0.21-0.744,0.473-1.473,0.728-2.201c0.301-0.865,0.81-1.525,1.656-1.972
			c0.976-0.515,1.901-1.129,2.819-1.741c0.36-0.24,0.689-0.562,0.951-0.904c0.799-1.057,0.389-2.499-0.841-2.996
			c-0.402-0.162-0.851-0.204-1.247-0.375c-0.149-0.065-0.304-0.348-0.294-0.521c0.08-1.505,0.542-2.753,2.026-3.509
			c1.472-0.75,2.884-1.628,4.28-2.516c0.677-0.432,1.018-1.132,1.109-1.956c0.111-0.99-0.473-1.735-1.466-1.804
			c-0.22-0.014-0.44-0.022-0.869-0.042c-0.45,0.093-1.095,0.248-1.748,0.341c-0.141,0.022-0.43-0.162-0.443-0.271
			c-0.02-0.189,0.066-0.48,0.21-0.581c0.723-0.499,1.464-0.977,2.225-1.417c1.053-0.607,2.15-1.139,3.185-1.777
			c0.457-0.28,0.882-0.687,1.18-1.133c0.45-0.673,0.531-1.45,0.109-2.193c-0.36-0.635-0.98-0.943-1.66-0.908
			c-0.758,0.035-1.514,0.229-2.262,0.394c-0.983,0.218-1.437-0.217-1.175-1.227c0.25-0.962,0.621-1.891,0.847-2.855
			c0.225-0.96,0.37-1.939,0.479-2.919c0.033-0.293-0.13-0.641-0.282-0.917c-0.091-0.166-0.338-0.352-0.509-0.347
			c-0.296,0.009-0.756,0.075-0.853,0.27c-0.496,0.977-0.878,2.012-1.339,3.008c-0.279,0.608-0.826,0.768-1.343,0.458
			c-0.824-0.494-1.095-0.971-0.837-1.562c0.264-0.61,0.625-1.183,0.839-1.804c0.214-0.619,0.354-1.277,0.418-1.928
			c0.059-0.574-0.165-1.156-0.746-1.339c-0.364-0.113-0.911-0.061-1.218,0.147c-0.632,0.429-1.188,0.979-1.719,1.533
			c-0.455,0.475-0.812,1.04-1.254,1.525c-0.117,0.127-0.464,0.209-0.587,0.129c-0.251-0.164-0.603-0.461-0.59-0.685
			c0.034-0.64,0.124-1.321,0.385-1.896c0.906-2.016,1.891-3.995,2.853-5.987c0.093-0.193,0.195-0.479,0.355-0.529
			c1.556-0.494,2.913-1.632,4.679-1.448c0.46,0.049,0.891,0.182,0.987,0.686c0.156,0.808,0.5,1.477,1.253,1.842
			c0.939,0.456,1.958,0.448,2.916,0.159c0.481-0.143,0.918-0.581,1.266-0.983c0.48-0.552,0.48-1.271,0.044-1.83
			c-0.335-0.43-0.777-0.774-1.143-1.184c-0.357-0.401-0.325-1.118,0.109-1.484c0.501-0.423,1.037-0.816,1.606-1.137
			c1.155-0.651,2.363-1.211,3.508-1.877c0.562-0.327,1.087-0.763,1.532-1.242c0.395-0.424,0.485-1.052,0.173-1.54
			c-0.207-0.324-0.646-0.597-1.03-0.688c-0.524-0.126-1.095-0.049-1.645-0.073c-0.103-0.004-0.204-0.081-0.305-0.123
			c0.081-0.186,0.116-0.422,0.254-0.546c0.243-0.215,0.555-0.354,0.826-0.541c1.731-1.206,1.882-2.032,0.696-3.789
			c-0.061-0.091-0.178-0.142-0.238-0.232c-0.375-0.558-0.324-1.114,0.179-1.419c0.659-0.4,1.337-0.771,2.026-1.116
			c0.732-0.367,1.199-0.937,1.527-1.674c0.303-0.678,0.234-1.271-0.377-1.766c-0.506-0.408-1.401-0.66-1.526-1.139
			c-0.176-0.665,0.18-1.484,0.359-2.224c0.337-1.395,0.695-2.782,1.084-4.161c0.084-0.297,0.34-0.545,0.516-0.818
			c0.154,0.227,0.385,0.431,0.456,0.679c1.099,3.819,2.179,7.641,3.262,11.465c0.722,2.551,1.384,5.118,2.179,7.644
			c0.425,1.346,0.799,2.705,1.809,3.852c0.958,1.084,1.172,2.589,1.492,3.997c0.213,0.933,0.671,1.233,1.671,1.264
			c0.885,0.029,1.769,0.019,2.655,0.011c0.896-0.006,1.773,0.059,2.561,0.543c1.199,0.739,2.531,0.676,3.861,0.681
			c4.869,0.024,9.736,0.063,14.607,0.105c0.549,0.003,1.101,0.07,1.65,0.127c0.099,0.008,0.277,0.125,0.27,0.159
			C97.421,50.967,97.387,51.218,97.254,51.313z"/>
	</g>
</g>
</svg>
