<?xml version="1.0" encoding="utf-8"?>
<!-- Generator: Adobe Illustrator 16.0.0, SVG Export Plug-In . SVG Version: 6.00 Build 0)  -->
<!DOCTYPE svg PUBLIC "-//W3C//DTD SVG 1.1//EN" "http://www.w3.org/Graphics/SVG/1.1/DTD/svg11.dtd">
<svg version="1.1" id="Layer_1" xmlns="http://www.w3.org/2000/svg" xmlns:xlink="http://www.w3.org/1999/xlink" x="0px" y="0px"
	 width="120px" height="120px" viewBox="0 0 120 120" style="enable-background:new 0 0 120 120;" xml:space="preserve">
<g id="email1">
	<g>
		<path style="fill-rule:evenodd;clip-rule:evenodd;" d="M110.721,23.777c-2.098-0.085-4.178-1.438-6.343-0.137
			c-0.409,0.246-1.118,0.013-1.687-0.028c-3.305-0.237-6.604-0.552-9.91-0.712c-6.185-0.301-12.371-0.514-18.25-0.752
			c-7.65,0.272-14.984,0.529-22.319,0.796c-0.685,0.025-1.376,0.075-2.057,0.169c-4.541,0.619-9.083,1.197-13.674,1.29
			c-5.158,0.104-10.314,0.243-15.473,0.374c-2.063,0.054-4.13,0.086-6.193,0.212c-1.137,0.07-2.26,0.362-3.395,0.464
			c-1.026,0.092-1.692,0.613-2.169,1.467c-0.89,1.584-2.199,2.984-2.208,4.957c-0.017,3.324-0.061,6.65-0.004,9.974
			c0.021,1.251,0.354,2.495,0.45,3.749c0.467,6.054,0.928,12.108,1.347,18.165c0.325,4.688,0.595,9.38,0.874,14.07
			c0.134,2.29,0.314,4.548,1.361,6.672c0.396,0.796,0.419,1.773,0.62,2.667c0.205,0.891,0.454,1.773,0.622,2.67
			c0.136,0.736,0.488,1.31,1.158,1.599c0.922,0.396,1.481,0.855,1.368,2.044c-0.073,0.761,0.482,1.498,1.202,1.976
			c0.572,0.38,1.131,0.781,1.68,1.197c0.792,0.603,1.709,0.783,2.607,0.512c2.605-0.787,5.186-0.481,7.81-0.132
			c2.719,0.362,5.462,0.722,8.199,0.756c7.917,0.099,15.837,0.043,23.754,0.027c1.026-0.002,2.057-0.101,3.081-0.197
			c1.252-0.119,2.503-0.42,3.751-0.401c3.22,0.046,6.364-0.615,9.546-0.919c5.82-0.555,11.63-1.143,17.483-1.167
			c1.833-0.01,3.688,0.043,5.493-0.206c1.764-0.244,3.391,0.102,5.006,0.607c0.582,0.185,1.039,0.3,1.605,0.033
			c2.316-1.09,3.553-2.809,3.306-5.451c-0.053-0.568-0.017-1.147-0.017-1.721c0-2.867-0.086-5.74,0.019-8.604
			c0.289-7.907,0.655-15.811,1.001-23.714c0.141-3.206,0.304-6.411,0.455-9.615c0.1-2.178,0.019-4.381,0.341-6.525
			c0.641-4.301,0.733-8.669,1.755-12.924C113.328,25.308,112.378,23.845,110.721,23.777z M22.976,30.604
			c1.948-0.022,3.896-0.025,5.846-0.029c1.374-0.004,2.75-0.002,4.125-0.002c0,0.029,0.002,0.057,0.002,0.086
			c3.206-0.1,6.419-0.1,9.615-0.32c3.764-0.264,7.512-0.728,11.27-1.08c0.911-0.086,1.831-0.116,2.748-0.116
			c10.769,0.003,21.54-0.085,32.308,0.085c3.869,0.06,7.773,0.287,11.602,1.066c0.329,0.067,0.67,0.146,0.966,0.298
			c0.097,0.05,0.157,0.452,0.081,0.517c-1.3,1.112-2.553,2.303-3.955,3.271c-4.993,3.446-10.039,6.812-15.061,10.211
			c-2.082,1.409-4.201,2.764-6.219,4.26c-3.124,2.318-6.176,4.735-9.256,7.114c-0.924,0.716-1.129,0.723-2.049-0.089
			c-0.858-0.759-1.68-1.562-2.549-2.307c-3.587-3.062-7.524-5.624-11.701-7.782c-4.576-2.365-9.271-4.499-13.873-6.818
			c-4.292-2.166-8.53-4.441-12.788-6.672c-0.406-0.212-0.838-0.397-1.189-0.682c-0.245-0.197-0.369-0.542-0.544-0.821
			C22.561,30.727,22.769,30.605,22.976,30.604z M104.531,39.883c-0.585,4.427-1.203,8.849-1.777,13.276
			c-0.279,2.158-0.515,4.322-0.727,6.488c-0.646,6.613-1.474,13.212-1.623,19.87c-0.052,2.286-0.291,4.57-0.449,6.856
			c-0.049,0.696-0.4,1.137-0.964,1.202c-2.384,0.275-4.79,0.428-7.147,0.854c-3.081,0.554-6.17,0.445-9.017,0.49
			c-1.969,0-3.688,0.014-5.409-0.004c-1.395-0.014-1.363-0.036-1.684-1.47c-0.147-0.652-0.359-1.325-0.702-1.891
			c-0.553-0.909-2.005-1.051-2.708-0.286c-0.848,0.928-1.645,1.904-2.412,2.9c-0.463,0.597-1.027,0.899-1.758,0.89
			c-1.488-0.021-2.982-0.014-4.467-0.112c-0.752-0.05-1.604,0.345-2.252-0.377c0.304-0.607,0.629-1.204,0.902-1.824
			c0.501-1.12,0.323-2.205-0.434-2.842c-0.938-0.791-2.54-0.812-3.476,0.074c-0.743,0.704-1.391,1.518-2.025,2.327
			c-0.421,0.54-0.798,1.131-1.096,1.748c-0.408,0.848-1.076,1.172-1.943,1.088c-1.566-0.149-3.202,0.39-4.697-0.461
			c0.634-1.33,1.294-2.648,1.897-3.991c0.571-1.27,1.359-2.344,2.385-3.303c0.748-0.697,0.651-1.659,0.01-2.489
			c-0.66-0.858-1.405-1.093-2.419-0.726c-1.424,0.514-2.727,1.183-3.543,2.565c-0.991,1.673-2.042,3.313-3.049,4.978
			c-0.476,0.783-0.858,1.632-1.399,2.363c-0.226,0.305-0.796,0.594-1.148,0.533c-1.545-0.261-3.177-0.063-4.595-1.135
			c-0.643-0.49-1.724-0.776-2.448,0.191c-0.218,0.295-0.339,0.343-0.444-0.021c-0.143-0.503-0.806-0.874-0.385-1.526
			c1.987-3.074,3.441-6.481,5.82-9.312c0.216-0.26,0.392-0.557,0.553-0.855c0.316-0.576-0.216-1.44-0.896-1.533
			c-1.6-0.221-2.968,0.318-4.08,1.396c-0.819,0.792-1.55,1.696-2.201,2.634c-1.437,2.072-2.8,4.197-4.19,6.303
			c-0.697,1.056-1.414,2.096-2.503,2.794c-0.255,0.165-0.578,0.226-0.871,0.334c0.004-0.315,0.048-0.638-0.002-0.944
			c-0.046-0.299-0.115-0.709-0.318-0.834c-0.201-0.123-0.597,0.016-0.88,0.114c-0.209,0.071-0.368,0.269-0.555,0.399
			c-0.094,0.065-0.203,0.108-0.304,0.16c-0.08-0.188-0.18-0.369-0.229-0.564c-0.025-0.099,0.027-0.228,0.076-0.329
			c2.285-4.875,4.205-9.929,7.137-14.485c0.362-0.565,0.641-1.226,0.79-1.88c0.341-1.509-0.869-2.707-2.419-2.492
			c-1.214,0.169-2.18,0.785-2.833,1.769c-1.079,1.621-2.086,3.291-3.07,4.972c-0.578,0.989-1.026,2.052-1.581,3.055
			c-0.18,0.327-0.243,0.956-0.812,0.759c-0.191-0.066-0.243-0.598-0.314-0.925c-0.125-0.56-0.195-1.13-0.32-1.688
			c-0.283-1.265-0.187-2.464,0.276-3.703c1.678-4.506,2.819-9.211,5.068-13.502c0.209-0.401,0.369-0.845,0.461-1.287
			c0.194-0.941-0.49-2.185-1.357-2.547c-1.028-0.433-2.006-0.126-2.628,0.881c-0.785,1.266-1.503,2.572-2.308,3.826
			c-0.266,0.411-0.274,1.297-0.917,1.092c-0.352-0.113-0.601-0.947-0.666-1.483c-0.193-1.591-0.364-3.197-0.373-4.798
			c-0.015-2.766-0.515-5.461-0.974-8.17c-0.517-3.046-0.995-6.1-1.468-9.154c-0.029-0.189,0.082-0.473,0.224-0.602
			c0.134-0.118,0.446-0.179,0.601-0.104c0.515,0.243,1.022,0.522,1.489,0.853c4.872,3.461,10.067,6.404,15.322,9.203
			c6.989,3.723,13.841,7.639,20.319,12.2c2.249,1.585,4.549,3.099,6.769,4.723c1.323,0.969,2.735,1.651,4.321,2.026
			c1.235,0.292,2.429,0.064,3.076-0.959c0.856-1.354,2.184-1.994,3.387-2.844c6.553-4.631,13.107-9.252,19.678-13.859
			c1.879-1.317,3.799-2.568,5.69-3.866c2.741-1.882,5.47-3.779,8.214-5.663c0.182-0.127,0.408-0.192,0.613-0.287
			c0.113,0.295,0.314,0.589,0.316,0.885C104.669,38.51,104.621,39.203,104.531,39.883z"/>
	</g>
</g>
</svg>
