<?xml version="1.0" encoding="utf-8"?>
<!-- Generator: Adobe Illustrator 16.0.0, SVG Export Plug-In . SVG Version: 6.00 Build 0)  -->
<!DOCTYPE svg PUBLIC "-//W3C//DTD SVG 1.1//EN" "http://www.w3.org/Graphics/SVG/1.1/DTD/svg11.dtd">
<svg version="1.1" id="Layer_1" xmlns="http://www.w3.org/2000/svg" xmlns:xlink="http://www.w3.org/1999/xlink" x="0px" y="0px"
	 width="120px" height="120px" viewBox="0 0 120 120" style="enable-background:new 0 0 120 120;" xml:space="preserve">
<g id="email2">
	<g>
		<path style="fill-rule:evenodd;clip-rule:evenodd;" d="M107.227,56.069c-0.525-3.582-1.441-7.104-2.102-10.67
			c-1.207-6.518-2.648-12.92-5.783-18.891c-2.053-3.914-4.254-7.666-7.293-10.863c-3.549-3.734-7.732-6.387-13.006-6.957
			c-1.492-0.16-2.926-0.525-4.324-1.115c-1.383-0.588-2.857-0.814-4.377-0.865c-5.463-0.184-10.913-0.002-16.307,0.875
			c-2.729,0.445-5.434,1.029-7.986,2.258c-2.008,0.969-4.129,1.707-6.336,2.221c-1.311,0.305-2.584,1.025-3.715,1.795
			c-1.316,0.898-2.461,2.049-3.67,3.1c-4.01,3.477-6.998,7.77-9.848,12.184c-5.998,9.289-9.393,19.367-9.344,30.506
			c0.004,0.641,0.074,1.307-0.062,1.922c-0.693,3.061-0.459,6.176-0.617,9.121c0,1.109,0.01,2.072,0,3.035
			c-0.076,6.461,1.586,12.488,4.762,18.068c1.689,2.967,3.672,5.77,5.549,8.629c0.348,0.531,0.756,1.059,1.252,1.447
			c1.93,1.52,3.869,3.031,5.871,4.451c3.447,2.441,7.424,3.744,11.355,5.133c2.846,1.006,5.775,1.541,8.805,1.463
			c1.711-0.043,3.424-0.098,5.137-0.082c0.953,0.01,1.92,0.082,2.857,0.252c2.029,0.369,4.032,0.418,6.018-0.201
			c2.039-0.637,4.051-1.381,6.123-1.869c2.629-0.619,5.148-1.406,7.342-3.045c0.25-0.188,0.562-0.318,0.869-0.391
			c1.291-0.305,2.289-1.117,3.342-1.848c2.055-1.426,2.432-2.74,1.357-4.871c-1.057-2.098-2.117-4.197-3.168-6.299
			c-1.068-2.143-2.535-2.922-4.695-2.043c-2.99,1.215-6.193,1.621-9.209,2.713c-2.424,0.877-5.049,0.816-7.557,1.346
			c-0.4,0.084-0.846-0.031-1.271-0.064c-1.383-0.109-2.764-0.307-4.146-0.316c-2.271-0.018-4.457-0.418-6.602-1.131
			c-1.316-0.441-2.646-0.76-4.049-0.9c-3.389-0.344-6.406-1.645-8.867-4.057c-0.836-0.82-1.561-1.758-2.348-2.633
			c-1.611-1.797-2.555-3.939-3.143-6.24c-1.383-5.416-1.803-10.953-1.82-16.512c-0.008-3.092,0.309-6.189,0.582-9.275
			c0.152-1.695,0.357-3.414,0.82-5.045c1.512-5.322,4.207-10.033,7.869-14.166c1.773-2.002,3.67-3.895,5.557-5.791
			c0.748-0.752,1.559-1.48,2.451-2.049c1.709-1.092,3.49-2.072,5.252-3.082c2.148-1.229,4.447-2.031,6.844-2.666
			c3.621-0.961,7.305-1.572,10.985-2.17c2.314-0.377,4.686-0.367,6.971,0.477c0.898,0.33,1.854,0.502,2.766,0.797
			c0.811,0.26,1.658,0.488,2.387,0.908c4.16,2.398,7.578,5.525,9.721,9.926c1.473,3.029,2.141,6.246,2.52,9.549
			c0.174,1.484,0.285,2.975,0.449,4.459c0.234,2.121,0.525,4.236,0.719,6.361c0.086,0.953,0.051,1.928-0.037,2.885
			c-0.129,1.381-0.336,2.756-0.541,4.127c-0.211,1.398-0.645,2.689-1.727,3.701c-0.547,0.508-0.953,1.162-1.502,1.666
			c-1.02,0.936-2.07,1.848-3.162,2.695c-0.807,0.623-1.811,0.836-2.732,0.393c-1.174-0.568-2.152-1.461-2.455-2.801
			c-0.662-2.943-1.049-5.908-0.084-8.867c0.527-1.621,1.01-3.268,1.693-4.824c1.826-4.148,2.643-8.545,3.375-12.969
			c0.066-0.396-0.064-0.844-0.174-1.248c-0.547-2.035-2.072-2.902-4-3.174c-1.057-0.148-2.141-0.084-3.203-0.193
			c-1.953-0.205-3.658,0.27-4.816,1.908c-0.783,1.107-1.695,0.902-2.76,0.695c-0.889-0.172-1.584-0.59-2.246-1.148
			c-0.922-0.783-2.014-1.277-3.203-1.309c-1.916-0.051-3.842-0.23-5.749,0.268c-0.818,0.213-1.682,0.334-2.529,0.348
			c-2.904,0.045-5.379,1.189-7.695,2.828c-2.207,1.561-3.922,3.594-5.725,5.574c-3.959,4.346-6.859,9.26-8.619,14.855
			c-0.354,1.119-0.881,2.229-0.979,3.373c-0.357,4.195-0.018,8.328,1.682,12.254c0.424,0.98,0.98,1.91,1.324,2.918
			c0.748,2.213,2.219,3.875,3.879,5.42c1.955,1.82,4.27,2.787,6.945,2.885c0.748,0.029,1.506,0.02,2.238,0.141
			c4.273,0.711,8.047-0.463,11.379-3.096c1.252-0.988,2.32-2.209,3.471-3.328c0.381-0.371,0.732-0.775,1.135-1.121
			c0.078-0.068,0.43,0.006,0.479,0.104c0.727,1.428,1.379,2.895,2.154,4.295c0.293,0.531,0.768,1.09,1.301,1.34
			c4.424,2.088,9.084,3.076,13.988,2.73c1.059-0.074,2.105-0.373,3.166-0.447c3.52-0.25,6.672-1.404,9.381-3.684
			c1.553-1.307,3.158-2.568,4.58-4.012C106.418,71.979,108.463,64.493,107.227,56.069z M70.617,102.2
			c0.066-0.201,0.117-0.404,0.242-0.832c-0.039-0.301-0.146-0.809-0.162-1.322c-0.008-0.262,0.082-0.713,0.234-0.766
			c1.387-0.475,2.783-0.928,4.203-1.277c0.375-0.094,0.807,0.279,0.84,0.758c0.02,0.277-0.062,0.754-0.227,0.82
			c-1.072,0.426-1.775,1.039-1.699,2.314c0.012,0.221-0.305,0.566-0.549,0.678c-0.568,0.256-1.178,0.432-1.785,0.584
			C71.041,103.329,70.354,102.991,70.617,102.2z M64.523,103.821c0.318-0.977,0.67-1.943,1.023-2.908
			c0.025-0.068,0.195-0.154,0.248-0.131c0.148,0.07,0.398,0.225,0.383,0.293c-0.119,0.502-0.293,0.99-0.449,1.484
			c0.025,0.01,0.049,0.018,0.074,0.025c-0.254,0.668-0.502,1.336-0.768,1.998c-0.018,0.045-0.168,0.076-0.23,0.051
			c-0.088-0.037-0.199-0.121-0.221-0.207C64.533,104.229,64.467,104.001,64.523,103.821z M55.324,101.817
			c1.129-0.266,2.27-0.484,2.789-0.59c0.857,0,1.068-0.006,1.281,0.002c0.436,0.016,0.799,0.438,0.699,0.848
			c-0.225,0.926-0.49,1.84-0.709,2.766c-0.23,0.969-0.863,1.42-1.814,1.471c-0.424,0.021-0.865,0.07-1.264-0.029
			c-0.246-0.064-0.594-0.371-0.611-0.59c-0.09-1.17-0.186-2.322-0.699-3.404C54.953,102.198,55.179,101.851,55.324,101.817z
			 M48.417,103.044c0.574-1.699,1.836-2.145,3.406-1.184c0.105,0.064,0.176,0.424,0.105,0.508c-0.854,0.98-1.469,2.041-1.594,3.385
			c-0.023,0.264-0.562,0.598-0.918,0.684c-0.492,0.117-1.09,0.127-1.434-0.377c-0.158-0.232-0.148-0.58-0.227-0.93
			C47.972,104.45,48.181,103.743,48.417,103.044z M41.023,104.323c0.129-0.625,0.299-1.242,0.49-1.85
			c0.182-0.576,0.688-0.811,1.268-0.629c0.461,0.143,0.656,0.479,0.645,0.945c-0.004,0.105-0.021,0.213-0.033,0.318
			c-0.092,0.896-0.354,1.701-1.344,1.947c-0.256,0.064-0.598-0.051-0.846-0.184C41.076,104.802,40.986,104.493,41.023,104.323z
			 M35.16,99.007c0.08-0.145,0.33-0.195,0.537-0.309c0.865,0.314,1.711,0.709,2.324,1.459c0.119,0.143,0.188,0.396,0.16,0.58
			c-0.066,0.408-0.16,0.826-0.33,1.201c-0.279,0.621,0.008,1.635-0.945,1.791c-0.863,0.145-1.594-0.406-2.246-0.926
			c-0.211-0.17-0.361-0.535-0.367-0.816C34.269,100.913,34.65,99.933,35.16,99.007z M28.386,95.802
			c0.377-0.76,0.619-1.584,0.961-2.361c0.047-0.105,0.424-0.205,0.49-0.143c0.84,0.811,1.672,1.631,2.453,2.496
			c0.191,0.209,0.193,0.584,0.303,0.959c-0.426,1.043-0.678,2.203-1.578,3.033c-0.115,0.105-0.443,0.133-0.566,0.045
			c-0.518-0.369-0.99-0.801-1.486-1.199C27.984,97.845,27.83,96.925,28.386,95.802z M20.343,46.675
			c0.104-0.184,0.17-0.451,0.326-0.531c1.52-0.76,3.051-1.488,3.9-1.9c1.023-0.242,1.318,0.125,1.223,0.42
			c-0.367,1.113-0.717,2.234-1.117,3.338c-0.16,0.438-0.555,0.711-1,0.447c-0.881-0.525-1.834-0.484-2.793-0.527
			C20.394,47.899,20.091,47.144,20.343,46.675z M18.685,54.317c0.027-0.172,0.23-0.389,0.402-0.449
			c1.281-0.453,2.57-0.883,3.867-1.283c0.109-0.031,0.359,0.189,0.439,0.346c0.086,0.17,0.047,0.404,0.076,0.771
			c-0.176,0.664-0.396,1.473-0.6,2.287c-0.125,0.504-0.391,0.592-0.896,0.498c-0.609-0.113-1.244-0.107-1.865-0.08
			c-0.557,0.023-1.262,0.85-1.604,0.02C18.267,55.843,18.572,55.022,18.685,54.317z M17.666,70.343
			c-0.27-0.4-0.072-0.848,0.277-1.121c0.5-0.387,1.109-0.643,1.574-1.062c0.379-0.344,0.635-0.836,0.902-1.285
			c0.324-0.543,0.1-1.033-0.262-1.453c-0.203-0.234-0.471-0.561-0.729-0.582c-2.117-0.176-1.801-1.699-1.762-3.074
			c0.02-0.58,0.264-1.004,0.861-1.17c4.035-1.113,3.803-2.404,3.678,2.676c-0.016,0.637,0,1.277,0,1.916h-0.084
			c0,1.598,0,3.195,0.002,4.793c0,0.516-0.23,0.684-0.766,0.713c-0.617,0.031-1.221,0.256-1.836,0.369
			c-0.307,0.057-0.674,0.154-0.93,0.043C18.238,70.948,17.882,70.665,17.666,70.343z M26.865,88.974
			c0.312,0.504,0.365,0.945-0.055,1.438c-0.482,0.562-0.926,1.166-1.334,1.785c-0.281,0.428-0.492,1.123-1.068,0.863
			c-0.395-0.176-0.654-0.826-0.803-1.316c-0.109-0.367-0.008-0.834,0.105-1.227c0.234-0.818,0.629-1.6,0.775-2.428
			c0.084-0.469-0.121-1.033-0.322-1.5c-0.285-0.664-0.947-0.9-1.59-0.607c-0.383,0.172-0.701,0.482-1.076,0.672
			c-0.127,0.062-0.43,0.002-0.508-0.105c-0.721-0.994-1.156-2.037-0.451-3.246c0.535-0.916,1.082-1.83,1.539-2.785
			c0.344-0.713-0.008-1.525-0.707-1.883c-0.186-0.096-0.396-0.145-0.721-0.258c-0.287,0.15-0.643,0.365-1.021,0.529
			c-0.342,0.146-0.748,0.697-1.047,0.107c-0.125-0.244,0.139-0.773,0.352-1.088c0.826-1.238,1.699-2.447,2.57-3.654
			c0.105-0.146,0.305-0.227,0.459-0.338c0.096,0.186,0.236,0.359,0.285,0.555c0.197,0.828,0.408,1.656,0.539,2.494
			C23.443,81.22,24.576,85.292,26.865,88.974z M32.062,34.294c-0.033,0.023-0.072,0.037-0.111,0.05
			c-0.03,0.042-0.059,0.083-0.09,0.125c-0.028,0.002-0.056,0.002-0.084,0.003c-0.027,0.186-0.028,0.389-0.123,0.53
			c-1.408,2.139-2.832,4.27-4.262,6.396c-0.164,0.244-0.426,0.549-0.654,0.098c-0.584-1.154-1.586-1.33-2.711-1.232
			c-0.422,0.037-0.834,0.164-1.256,0.225c-0.334,0.049-0.617-0.301-0.498-0.59c0.082-0.195,0.172-0.391,0.266-0.582
			c1.18-2.467,1.178-2.471,3.822-3.393c1.307-0.457,2.613-0.928,3.941-1.324c0.464-0.137,0.979-0.099,1.475-0.127
			c0.003-0.025,0.005-0.051,0.01-0.076c0.054-0.019,0.11-0.035,0.164-0.053c0.059-0.081,0.117-0.162,0.174-0.242
			C32.105,34.167,32.105,34.263,32.062,34.294z M44.353,21.806c-2.453,2.385-4.906,4.775-7.346,7.176
			c-0.988,0.977-1.928,2.002-2.916,2.979c-0.354,0.348-0.678,0.354-0.947-0.195c-0.791-1.613-2.162-1.912-3.789-1.592
			c-0.178,0.037-0.537-0.021-0.547-0.086c-0.053-0.273-0.045-0.576,0.021-0.848c0.049-0.195,0.221-0.363,0.355-0.529
			c0.27-0.33,0.57-0.639,0.826-0.979c0.904-1.203,2.061-1.74,3.598-1.621c1.059,0.082,2.137-0.061,3.205-0.127
			c1.102-0.068,2.074-0.469,2.889-1.23c0.646-0.604,0.51-1.855-0.322-2.172c-0.785-0.295-1.643-0.402-2.467-0.598
			c-0.434-0.102-0.555-0.645-0.266-1.01c0.635-0.805,1.439-1.273,2.469-1.291c1.281-0.02,2.561-0.004,3.842-0.004v0.031
			c0.215,0,0.434-0.031,0.643,0.004c0.867,0.152,1.838-0.381,2.613,0.387C45.593,20.669,44.957,21.22,44.353,21.806z M44.791,52.446
			c0.279,0.018,0.551,0.141,1.041,0.279c-0.496,0.096-0.777,0.193-1.057,0.191c-0.166-0.002-0.33-0.162-0.496-0.252
			C44.451,52.587,44.626,52.437,44.791,52.446z M101.143,63.778c-1.654,4.186-3.609,8.217-6.355,11.824
			c-0.727,0.953-1.561,1.754-2.609,2.334c-1.184,0.658-1.594,0.605-2.787-0.355c-0.082-0.066-0.148-0.156-0.232-0.219
			c-0.984-0.732-2.129-0.504-2.664,0.613c-0.318,0.666-0.459,1.414-0.711,2.113c-0.312,0.873-1.871,1.492-2.689,1.064
			c-0.127-0.066-0.232-0.322-0.217-0.475c0.033-0.314,0.205-0.613,0.238-0.928c0.15-1.396-0.113-1.934-1.531-2.361
			c-0.814-0.248-1.32-0.576-1.512-1.41c-0.068-0.297-0.23-0.602-0.428-0.84c-0.646-0.789-1.783-0.939-2.588-0.375
			c-0.857,0.604-1.486,1.475-2.477,1.953c-0.406,0.197-0.623,0.832-0.865,1.301c-0.24,0.469-0.363,1-0.615,1.463
			c-0.139,0.254-0.42,0.564-0.766,0.256c-0.227-0.201-0.467-0.473-0.523-0.75c-0.061-0.285,0.078-0.619,0.154-0.926
			c0.252-1.037,0.533-2.066,0.764-3.107c0.092-0.41,0.121-0.846,0.102-1.268c-0.045-0.979-1.365-1.666-2.162-1.078
			c-0.586,0.432-1.053,1.033-1.547,1.58c-0.221,0.244-0.387,0.453-0.693,0.113c-0.43-0.473-0.867-0.939-1.318-1.393
			c-0.627-0.629-0.863-0.662-1.637-0.104c-1.387,1-2.744,2.041-4.125,3.051c-0.604,0.439-1.243,0.83-1.852,1.262
			c-0.633,0.447-1.172,0.377-1.666-0.221c-0.133-0.162-0.299-0.314-0.479-0.422c-0.705-0.422-1.516-0.301-2.041,0.268
			c-0.604,0.648-0.943,1.412-1.061,2.289c-0.098,0.754-0.607,1.068-1.301,1.189c-0.525,0.09-1.043,0.225-1.568,0.299
			c-0.562,0.078-1.082-0.533-0.857-1.014c0.359-0.773,0.777-1.52,1.148-2.287c0.324-0.67,0.615-1.355,0.926-2.033
			c0.26-0.566,0.02-1.023-0.295-1.48c-0.172-0.25-0.346-0.562,0.127-0.678c0.307-0.074,0.639-0.084,0.957-0.076
			c2.291,0.055,4.117-0.977,5.732-2.475c3.252-3.012,5.022-6.848,6.118-11.061c0.711-2.746,0.812-5.486-0.012-8.223
			c-0.748-2.479-2.186-4.35-4.68-5.324c-1.485-0.582-2.94-0.646-4.333,0.125c-0.924,0.51-1.924,1.053-2.582,1.84
			c-2.615,3.121-5.059,6.395-6.051,10.443c-0.982,4.002-1.373,8.012,0.752,11.846c0.133,0.241,0.121,0.563,0.159,0.857
			c0.025,0.007,0.051,0.011,0.075,0.018c-0.01,0.026-0.021,0.053-0.03,0.079c0.695,0.428,1.392,0.854,2.085,1.286
			c0.369,0.229,0.273,0.527,0.023,0.734c-0.809,0.678-1.643,1.324-2.475,1.973c-0.227,0.178-0.525,0.471-0.752,0.098
			c-0.141-0.23-0.168-0.625-0.08-0.891c0.366-1.077,0.793-2.135,1.198-3.2c-0.012-0.008-0.024-0.015-0.036-0.022
			c-0.004-0.024-0.005-0.05-0.009-0.074c-0.181-0.043-0.375-0.066-0.515-0.166c-0.723-0.523-1.463-0.51-2.014,0.145
			c-1.248,1.484-3.08,1.846-4.721,2.559c-0.414,0.18-0.791-0.178-1.002-0.588c-0.219-0.428-0.203-0.877,0.207-1.125
			c0.543-0.328,1.164-0.523,1.734-0.807c0.861-0.428,1.762-0.803,2.551-1.342c1.473-1.01,1.441-2.645-0.154-3.633
			c-0.645-0.398-1.055-0.568-0.645-1.355c0.143-0.271,0.166-0.621,0.184-0.936c0.055-1.002-0.453-1.617-1.455-1.738
			c-0.633-0.076-1.273-0.062-1.902-0.15c-0.139-0.02-0.361-0.316-0.34-0.453c0.219-1.404,0.572-2.717,2.188-3.193
			c0.922-0.271,1.85-0.566,2.705-0.986c0.752-0.369,1.447-0.883,2.098-1.418c0.438-0.357,0.629-0.996,0.312-1.453
			c-0.732-1.062-0.246-1.506,0.719-1.867c0.287-0.105,0.547-0.33,0.771-0.549c0.533-0.52,0.656-1.477,0.201-2.064
			c-0.318-0.41-0.719-0.801-1.164-1.059c-1.715-0.998-1.727-0.979-0.584-2.564c0.189-0.258,0.359-0.531,0.551-0.787
			c0.482-0.639,1.098-0.99,1.93-0.906c0.635,0.062,1.281,0.148,1.916,0.111c0.52-0.029,1.061-0.158,1.539-0.361
			c0.973-0.414,1.26-1.17,0.994-2.35c-0.238-1.059-0.117-1.359,0.75-1.719c0.994-0.414,1.994-0.832,3.064-0.227
			c2.348-0.061,4.307,0.873,6.137,2.264c0.666,0.506,1.502,0.807,2.293,1.123c0.701,0.283,0.971,0.736,0.926,1.473
			c-0.025,0.418,0.004,0.859,0.104,1.266c0.197,0.791,1.311,1.365,2.07,1.027c1.668-0.742,3.225-1.545,3.871-3.52
			c0.428-1.303,1.227-2.488,1.895-3.705c0.398-0.721,1.041-1.07,1.879-0.912c0.52,0.102,1.053,0.213,1.531,0.426
			c0.232,0.104,0.523,0.469,0.502,0.688c-0.209,2.121-0.461,4.221-1.346,6.223c-1.473,3.334-2.303,6.855-2.881,10.459
			c-0.373,2.338-0.553,4.664-0.496,7.018c0.014,0.637-0.025,1.346,0.23,1.895c0.857,1.834,1.746,3.668,2.793,5.398
			c1.545,2.553,5,3.484,7.609,2.506c3.979-1.49,7.064-3.982,8.736-7.943c0.953-2.254,1.656-4.617,2.451-6.938
			c0.457-1.324,0.662-2.693,0.65-4.096c-0.023-2.566,0.092-5.145-0.111-7.697c-0.16-2.004-0.643-3.994-1.109-5.963
			c-0.514-2.176-1.316-4.27-1.668-6.502c-0.408-2.594-1.693-4.809-3.469-6.744c-0.648-0.707-1.242-1.469-1.816-2.238
			c-3.457-4.645-8.256-7.352-13.539-9.328c-0.777-0.291-1.674-0.348-2.518-0.357c-3.102-0.039-6.205-0.062-9.305,0.006
			c-3.458,0.076-6.721,1.139-9.983,2.158c-1.018,0.318-2.01,0.717-3.033,1.006c-0.436,0.123-0.955-0.117-0.945-0.582
			c0.018-1.062-0.363-1.855-1.18-2.496c-0.068-0.057-0.01-0.465,0.098-0.527c1.68-0.992,3.488-1.602,5.449-1.586
			c0.496,0.004,0.984,0.357,1.486,0.523c0.705,0.236,1.408,0.506,2.133,0.65c0.746,0.15,1.477-0.469,1.426-1.289
			c-0.035-0.574-0.156-1.006,0.562-1.174c1.555-0.365,3.096-0.789,4.659-1.115c0.383-0.08,0.84,0.07,1.234,0.199
			c2.754,0.896,5.568,1.42,8.451,1.729c2.441,0.262,4.814,0.967,7.092,1.914c2.006,0.834,3.691,2.174,5.238,3.643
			c3.746,3.562,6.783,7.662,9.252,12.219c2.438,4.5,3.627,9.324,4.217,14.346c0.396,3.393,0.789,6.783,1.193,10.174
			c0.062,0.529,0.1,1.076,0.266,1.574C102.203,59.435,101.984,61.646,101.143,63.778z M53.078,56.632
			c1.016-1.744,2.182-3.402,3.312-5.078c0.232-0.348,0.57-0.635,0.9-0.902c1.424-1.154,2.668-0.838,3.364,1.178
			c0.234,0.682,0.156,1.473,0.23,2.33c-0.518,4.691-2.086,9.021-5.59,12.465c-1.875,1.848-2.945,1.473-3.762-1.119
			c-0.266-0.838-0.447-1.615-0.045-2.469c0.17-0.363,0.215-0.836,0.18-1.246C51.486,59.886,52.162,58.202,53.078,56.632z"/>
	</g>
</g>
</svg>
