<?xml version="1.0" encoding="utf-8"?>
<!-- Generator: Adobe Illustrator 16.0.0, SVG Export Plug-In . SVG Version: 6.00 Build 0)  -->
<!DOCTYPE svg PUBLIC "-//W3C//DTD SVG 1.1//EN" "http://www.w3.org/Graphics/SVG/1.1/DTD/svg11.dtd">
<svg version="1.1" id="Layer_1" xmlns="http://www.w3.org/2000/svg" xmlns:xlink="http://www.w3.org/1999/xlink" x="0px" y="0px"
	 width="120px" height="120px" viewBox="0 0 120 120" style="enable-background:new 0 0 120 120;" xml:space="preserve">
<g id="user">
	<g>
		<path style="fill-rule:evenodd;clip-rule:evenodd;" d="M106.461,80.41c-0.014-1.068-0.031-2.143-0.135-3.207
			c-0.312-3.188-0.748-6.365-0.992-9.557c-0.359-4.689-0.598-9.389-0.885-14.082c-0.033-0.535,0.023-1.088-0.096-1.602
			c-0.5-2.148-0.281-4.266,0.324-6.332c0.488-1.672,0.607-3.357,0.604-5.074c-0.008-3.854-0.027-7.707,0.004-11.561
			c0.029-3.543-0.529-7.031-0.949-10.531c-0.102-0.836-0.402-1.664-0.715-2.455c-0.41-1.039-1.102-1.742-2.297-2.006
			c-1.691-0.375-3.396-0.709-5.082-0.348c-1.703,0.367-3.396,0.346-5.104,0.354c-2.355,0.01-4.711-0.029-7.064,0.014
			c-1.711,0.031-3.422,0.139-5.129,0.258c-1.703,0.115-3.4,0.363-5.104,0.42c-2.783,0.096-5.566,0.104-8.348,0.105
			c-11.027,0.006-22.05-0.029-33.076,0c-3.525,0.01-7.059-0.109-10.576,0.373c-1.141,0.158-2.359,0.26-3.318-0.736
			c-0.16-0.168-0.738-0.221-0.865-0.084c-0.922,0.98-2.271,1.18-3.324,1.898c-1.25,0.855-1.336,2.551-0.189,3.59
			c0.158,0.143,0.328,0.354,0.51,0.373c1.283,0.146,1.439,0.979,1.434,2.059c-0.025,3.846,0.23,7.688,0.354,11.525
			c0.254,7.912,0.076,15.836,0.076,23.754c0.072,9.521-0.061,19.041,0.562,28.555c0.346,5.26,1.316,10.357,3.193,15.305
			c0.482,1.271,1.203,2.01,2.393,2.299c2.279,0.555,4.562,1.207,6.883,1.445c3.826,0.395,7.68,0.508,11.523,0.707
			c2.137,0.111,4.299,0.004,6.408,0.291c1.602,0.217,3.189,0.305,4.791,0.307c6.744,0.006,13.486-0.061,20.228,0.021
			c5.355,0.064,10.678-0.168,15.975-0.98c0.613-0.094,1.324-0.098,1.889,0.123c2.469,0.963,5.033,0.783,7.596,0.865
			c1.785,0.057,3.184-0.713,4.191-1.945c0.76-0.932,1.564-1.707,2.523-2.393c1.383-0.988,2.055-2.275,2.01-4.088
			C106.531,92.186,106.531,86.299,106.461,80.41z M96.934,97.025c-1.592,0.293-3.141,0.428-4.762,0.135
			c-1.252-0.229-2.557-0.193-3.838-0.209c-5.24-0.07-10.484-0.014-15.719-0.201c-5.012-0.176-10.016-0.645-15.025-0.891
			c-3.414-0.168-6.838-0.316-10.248,0.137c-0.527,0.07-1.082,0.215-1.584,0.117c-2.971-0.578-5.975-0.453-8.957-0.354
			c-4.078,0.135-8.1-0.4-12.145-0.693c-0.57-0.041-0.896-0.426-0.92-1.086c-0.031-0.854-0.033-1.709-0.037-2.564
			c-0.035-6.846-0.143-13.691-0.086-20.535c0.08-9.84-0.525-19.66-0.775-29.49c-0.105-4.047-0.645-8.084-0.99-12.123
			c-0.119-1.387-0.26-2.734,0.672-3.988c0.344-0.461,0.355-1.209,0.412-1.836c0.076-0.85,0.016-1.711,0.084-2.561
			c0.035-0.449,0.342-0.783,0.822-0.83c0.529-0.051,1.066-0.068,1.6-0.07c2.461-0.006,4.92-0.004,7.379-0.004
			c0.002-0.039,0.004-0.078,0.004-0.117c4.271,0.156,8.541,0.396,12.811,0.451c7.486,0.1,14.972,0.098,22.458,0.119
			c8.447,0.023,16.895,0.023,25.342,0.047c1.068,0.002,2.137,0.078,3.201,0.152c0.492,0.033,0.723,0.395,0.807,0.846
			c0.039,0.209,0.061,0.424,0.061,0.635c0.025,5.131,0.146,10.262-0.365,15.383c-0.115,1.162-0.09,2.35-0.041,3.52
			c0.072,1.707,0.283,3.408,0.33,5.113c0.158,5.557,0.58,11.09,1.221,16.607c0.049,0.426,0.053,0.854,0.078,1.281
			c0.283,4.477,0.416,8.971,0.891,13.426c0.559,5.23,0.467,10.463,0.471,15.697C100.086,96.275,100.723,96.324,96.934,97.025z
			 M91.049,77.572c0.15-0.369,0.053-0.844,0.053-1.271c0-0.447-0.117-0.893-0.572-1.035c-2.559-0.797-3.621-2.918-4.332-5.174
			c-0.357-1.129-0.934-2.137-1.293-3.215c-0.586-1.756-1.887-2.568-3.375-3.145c-1.584-0.613-3.236-1.166-4.906-1.396
			c-2.516-0.348-4.312-1.721-5.949-3.463c-1.27-1.35-1.799-2.936-1.17-4.713c0.516-1.451,0.574-2.922,0.57-4.42
			c-0.008-2.779-0.002-5.559-0.002-8.338c0-3.102-0.02-6.201,0.008-9.301c0.014-1.414-0.299-2.73-0.805-4.047
			c-0.287-0.738-0.697-1.279-1.293-1.766c-3.109-2.531-7.525-2.551-11.046-0.262c-0.895,0.58-1.707,1.285-2.551,1.941
			c-2.346,1.822-3.494,4.34-3.67,7.189c-0.295,4.729,0.139,9.438,2.057,13.814c1.215,2.77,1.951,5.627,2.592,8.543
			c0.113,0.518,0.213,1.045,0.254,1.572c0.076,0.934-0.262,1.744-1.119,2.131c-1.355,0.613-2.748,1.15-4.156,1.631
			c-1.311,0.447-2.646,0.832-3.992,1.15c-2.309,0.545-4.086,1.854-5.387,3.766c-0.795,1.172-1.732,2.127-2.881,2.941
			c-1.225,0.869-2.098,2.01-2.797,3.404c-1.07,2.137-1.652,4.359-2.035,6.684c-0.635,3.861-0.67,3.865,2.023,6.342
			c0.383,0.354,0.854,0.639,1.33,0.857c0.369,0.168,0.818,0.285,1.217,0.248c4.777-0.453,9.561-0.865,14.256-1.928
			c2.299-0.52,4.604-0.867,6.973-0.885c4.382-0.031,8.763-0.145,13.144-0.244c0.848-0.021,1.695-0.143,2.543-0.219
			c3.822-0.35,7.613-1.18,11.477-0.85c1.365,0.115,2.523-0.422,3.709-0.842c1.641-0.578,2.039-1.604,1.352-3.271
			C90.938,79.186,90.688,78.453,91.049,77.572z M40.145,82.281c-0.055,0.156-0.369,0.379-0.455,0.338
			c-0.234-0.111-0.57-0.342-0.578-0.535c-0.014-0.4,0.121-0.822,0.275-1.203c0.061-0.152,0.334-0.287,0.514-0.293
			c0.098-0.002,0.219,0.275,0.301,0.439c0.045,0.09,0.029,0.209,0.053,0.422C40.231,81.66,40.245,81.99,40.145,82.281z
			 M56.143,78.041c-0.178,0.328-0.439,0.609-0.684,0.932c-0.184-0.197-0.305-0.266-0.316-0.352c-0.072-0.508,0.26-1.045,0.74-1.209
			c0.061-0.021,0.207,0.023,0.215,0.057C56.135,77.66,56.219,77.898,56.143,78.041z M79.123,78.82
			c-2.775,0.102-5.559,0.029-8.338,0.029v0.262c-3.42,0-6.84,0.006-10.262-0.002c-1.914-0.004-1.91-0.012-1.783-1.898
			c0.029-0.426,0.041-0.855,0.037-1.281c-0.01-1.287-0.01-2.562,0.582-3.764c0.168-0.342-0.41-0.914-0.754-0.768
			c-0.58,0.246-1.217,0.455-1.686,0.85c-2.121,1.781-4.156,3.656-5.93,5.797c-0.264,0.32-0.59,0.6-0.932,0.832
			c-0.102,0.068-0.363-0.072-0.535-0.152c-0.064-0.029-0.145-0.188-0.119-0.236c0.338-0.656,0.697-1.301,1.035-1.957
			c0.031-0.062-0.035-0.199-0.094-0.277c-0.053-0.074-0.168-0.174-0.232-0.16c-1.396,0.318-2.584,1-3.514,2.094
			c-0.516,0.607-1.141,0.969-1.949,0.914c-0.197-0.012-0.434-0.102-0.562-0.24c-0.098-0.105-0.139-0.41-0.059-0.512
			c0.529-0.668,0.994-1.465,1.678-1.916c1.492-0.986,2.438-2.27,2.979-3.953c0.143-0.443,0.619-0.852,1.041-1.123
			c2.152-1.387,4.328-2.736,6.514-4.072c1.207-0.738,2.221-1.652,2.969-2.863c0.393-0.637,0.764-1.297,1.24-1.867
			c1.996-2.396,2.027-5.119,1.121-7.857c-1.345-4.062-1.904-8.297-2.947-12.422c-0.586-2.305-0.479-4.715-0.172-7.014
			c0.252-1.875,1.734-3.119,3.652-3.635c0.326-0.086,0.979,0.24,1.033,0.574c0.117,0.734,0.258,1.475,0.264,2.213
			c0.033,4.703,0.029,9.406,0.041,14.109c0.004,1.176-0.059,2.357,0.039,3.527c0.217,2.596,0.191,2.916-0.391,4.848
			c-0.141,0.473-0.176,1.127,0.045,1.531c0.859,1.582,1.73,3.145,3.094,4.422c1.736,1.627,3.793,2.307,6.057,2.602
			c0.947,0.123,1.916,0.15,2.838,0.375c2.02,0.49,3.775,1.449,5.018,3.193c0.061,0.086,0.137,0.164,0.215,0.236
			c1.365,1.275,2.289,2.729,2.52,4.678c0.172,1.443,0.932,2.799,0.883,4.312C82.318,79.268,80.67,78.764,79.123,78.82z"/>
	</g>
</g>
</svg>
