<?xml version="1.0" encoding="utf-8"?>
<!-- Generator: Adobe Illustrator 16.0.0, SVG Export Plug-In . SVG Version: 6.00 Build 0)  -->
<!DOCTYPE svg PUBLIC "-//W3C//DTD SVG 1.1//EN" "http://www.w3.org/Graphics/SVG/1.1/DTD/svg11.dtd">
<svg version="1.1" id="Layer_1" xmlns="http://www.w3.org/2000/svg" xmlns:xlink="http://www.w3.org/1999/xlink" x="0px" y="0px"
	 width="120px" height="120px" viewBox="0 0 120 120" style="enable-background:new 0 0 120 120;" xml:space="preserve">
<g id="profile">
	<g>
		<path style="fill-rule:evenodd;clip-rule:evenodd;" d="M109.725,66.258c0-3.103,0.062-6.205-0.021-9.304
			c-0.061-2.293-0.477-4.581-0.437-6.865c0.071-4.271-0.721-8.464-0.884-12.709c-0.044-1.14-0.267-2.271-0.373-3.411
			c-0.193-2.077-0.737-4.064-1.615-5.941c-1.389-2.971-3.59-5.018-6.877-5.719c-0.67-0.145-1.358-0.193-2.036-0.294
			c-2.955-0.44-5.935-0.573-8.907-0.8c-3.998-0.307-7.974-0.938-11.975-1.172c-5.961-0.346-11.925-0.771-17.904-0.663
			c-1.035,0.021-2.116-0.128-3.091,0.128c-2.042,0.535-4.101,0.441-6.159,0.458c-3.217,0.027-6.438-0.046-9.656-0.023
			c-1.837,0.013-3.676,0.101-5.508,0.221c-1.715,0.113-3.428,0.296-5.137,0.479c-2.167,0.233-4.331,0.479-6.49,0.754
			c-1.328,0.168-2.455,0.806-3.072,1.979c-0.605,1.15-1.366,2.06-2.399,2.851c-0.71,0.542-1.246,1.346-1.77,2.096
			c-2.897,4.144-4.537,8.774-4.795,13.799c-0.231,4.474-0.134,8.962-0.187,13.444c-0.018,1.492-0.015,2.987-0.085,4.479
			c-0.086,1.831-0.36,3.661-0.331,5.49c0.04,2.634,0.345,5.265,0.421,7.899c0.131,4.61,1.017,9.117,1.729,13.648
			c0.371,2.357,0.766,4.781,2.999,6.308c0.257,0.177,0.331,0.601,0.542,0.865c0.72,0.895,1.381,1.858,2.215,2.637
			c2.252,2.102,4.692,3.71,8.042,2.728c1.563-0.458,3.199-0.385,4.791-0.084c3.734,0.703,7.528,0.76,11.299,1.028
			c3.674,0.261,7.336-0.168,11.004-0.431c4.23-0.302,8.414-1.224,12.685-0.99c0.112,0.006,0.226-0.04,0.34-0.049
			c1.943-0.157,3.889-0.455,5.831-0.443c4.725,0.025,9.396-0.32,14.011-1.375c1.34-0.304,2.71-0.592,4.073-0.638
			c3.986-0.13,7.565-1.789,11.282-2.903c1.777-0.533,3.363-1.696,4.436-3.153c2.06-2.798,3.391-5.956,3.548-9.524
			c0.216-4.932,0.497-9.861,0.749-14.79C109.916,66.265,109.821,66.26,109.725,66.258z M101.968,74.164
			c-0.084,2.18-0.228,4.358-0.361,6.537c-0.042,0.685-0.091,1.375-0.231,2.041c-0.52,2.439-1.891,4.09-4.366,4.808
			c-3.749,1.087-7.501,1.948-11.43,2.296c-6.313,0.557-12.624,0.412-18.938,0.551c-3.782,0.082-7.565-0.059-11.342,0.524
			c-2.026,0.313-4.129,0.135-6.196,0.183c-3.211,0.076-6.415,0.164-9.626,0.42c-4.575,0.363-9.186,0.317-13.781,0.303
			c-3.175-0.009-5.052-1.793-5.431-4.996c-0.176-1.479-0.14-2.986-0.144-4.479c-0.013-5.975-0.004-11.951-0.004-17.931h-0.105
			c0.067-6.548,0.104-13.1,0.214-19.649c0.056-3.221,0.63-6.385,1.339-9.522c0.385-1.703,1.088-3.257,2.104-4.673
			c0.638-0.891,1.49-1.424,2.58-1.537c2.511-0.265,5.015-0.617,7.534-0.748c4.93-0.254,9.867-0.446,14.803-0.543
			c6.778-0.137,13.557-0.147,20.336-0.235c3.336-0.044,6.643,0.29,9.955,0.626c4.448,0.449,8.91,0.791,13.366,1.18
			c1.028,0.09,2.065,0.132,3.089,0.264c0.789,0.104,1.567,0.303,2.347,0.481c0.864,0.199,1.43,0.8,1.647,1.6
			c0.395,1.432,0.832,2.882,0.962,4.35c0.369,4.115,0.581,8.242,0.871,12.365c0.147,2.062,0.378,4.114,0.481,6.177
			c0.125,2.523,0.143,5.053,0.236,7.578c0.061,1.604,0.248,3.206,0.252,4.81C102.135,69.349,102.06,71.756,101.968,74.164z
			 M56.674,73.499c0.193-1.205-0.242-2.249-0.68-3.315c-0.349-0.846-0.714-1.698-0.937-2.582c-0.74-2.933-2.79-4.245-5.574-4.919
			c-3.459-0.833-6.846-0.101-10.26,0.188c-0.331,0.026-0.688,0.141-0.969,0.316c-2.631,1.642-5.24,3.309-7.293,5.7
			c-0.706,0.824-1.101,1.704-1.12,2.798c-0.024,1.489,0.014,3-0.245,4.457c-0.191,1.083,0.03,2.041,0.227,3.046
			c0.208,1.062,0.894,1.447,1.929,1.603c4.102,0.619,8.23,0.628,12.361,0.73c2.985-0.071,5.968-0.173,8.952-0.206
			c1.82-0.021,3.084-0.73,3.589-2.553c0.359-1.291,1.107-2.545,0.152-3.924C56.581,74.511,56.605,73.934,56.674,73.499z
			 M94.009,44.348c-0.338,0.041-0.659,0.205-0.995,0.274c-0.508,0.105-0.869-0.071-1.024-0.604c-0.159-0.548-0.298-1.11-0.521-1.638
			c-0.871-2.063-3.69-2.37-5.034-0.541c-0.475,0.645-0.804,1.404-1.32,2.007c-0.434,0.508-1.049,1.229-1.57,1.215
			c-0.947-0.019-0.911-1.102-1.153-1.822c-0.182-0.539-0.319-1.102-0.554-1.618c-0.462-1.01-1.458-1.406-2.556-1.214
			c-1.397,0.246-2.124,1.219-2.848,2.291c-0.374,0.55-0.891,1.121-1.475,1.383c-0.795,0.352-1.11-0.574-1.635-0.957
			c-0.367-0.267-0.781-0.477-1.188-0.684c-0.554-0.284-1.11-0.273-1.61,0.121c-0.358,0.283-0.674,0.621-1.026,0.913
			c-0.794,0.659-0.858,0.708-1.625-0.159c-0.645-0.729-1.317-1.297-2.323-1.247c-1.996,0.103-3.744,2.681-3.049,4.528
			c0.321,0.848,0.834,1.623,1.165,2.467c0.995,2.542,3.15,3.338,5.463,1.967c0.296-0.174,0.582-0.371,0.851-0.588
			c0.658-0.535,1.297-0.764,2.201-0.453c1.336,0.457,2.762,0.433,4.019-0.258c1.284-0.704,2.217-0.613,3.299,0.468
			c0.923,0.922,2.312,0.909,3.647,1.068c1.318-0.331,2.633-0.896,3.959-0.926c1.328-0.031,2.667,0.489,4.006,0.732
			c0.331,0.062,0.689-0.046,1.031-0.026c2.166,0.108,4.04-2.176,4.473-3.704C97.1,45.63,95.804,44.123,94.009,44.348z
			 M66.617,66.346c-0.208,1.359,0.211,2.108,1.51,2.744c1.091,0.535,1.809,0.365,2.729-0.643c0.625-0.684,1.15-1.414,1.344-2.357
			c0.139-0.672,0.336-1.333,0.548-1.983c0.21-0.646,0.745-0.79,1.354-0.776c0.626,0.012,1.052,0.266,1.313,0.877
			c0.312,0.725,0.664,1.446,1.102,2.1c0.352,0.524,1.348,0.692,1.887,0.384c0.493-0.283,0.969-0.612,1.399-0.982
			c0.607-0.522,1.159-1.11,1.749-1.654c0.388-0.354,0.896-0.305,1.157,0.124c0.237,0.389,0.365,0.85,0.634,1.211
			c0.969,1.302,2.359,1.531,3.569,0.584c0.447-0.351,0.808-0.809,1.225-1.201c0.413-0.389,0.811-0.992,1.278-1.06
			c0.399-0.06,0.881,0.524,1.342,0.798c0.394,0.232,0.801,0.444,1.217,0.629c0.691,0.303,1.297,0.127,1.864-0.455
			c0.591-0.606,0.894-1.318,0.866-2.775c-0.098-0.307-0.305-1.199-0.671-2.02c-0.579-1.297-2.079-1.954-3.427-1.505
			c-0.862,0.287-1.697,0.68-2.494,1.118c-0.689,0.379-1.284,0.477-1.817-0.182c-0.573-0.706-1.348-0.767-2.171-0.796
			c-1.199-0.042-2.236,0.292-3.191,1.034c-1.098,0.859-2.207,1.758-3.535,0.202c-0.303-0.354-1.054-0.397-1.609-0.445
			c-0.796-0.067-1.604-0.002-2.406-0.006c-0.639-0.003-1.077-0.29-1.275-0.92c-0.104-0.325-0.235-0.645-0.364-0.964
			c-0.882-2.193-3.69-3.564-6.259-1.614c-1.145,0.872-1.829,2.063-2.246,3.376c-0.397,1.258,0.791,3.254,1.983,3.548
			c0.633,0.157,1.563-0.193,1.812,0.601c0.186,0.594-0.082,1.337-0.176,2.009C66.808,65.683,66.669,66.008,66.617,66.346z
			 M37.35,49.936c-0.017,0-0.033,0-0.048,0.002c0.053,1.027,0.113,2.056,0.161,3.082c0.069,1.533,0.672,2.881,1.437,4.174
			c0.811,1.371,2.093,2.295,3.585,2.393c2.086,0.139,4.09-0.413,5.384-2.323c1.242-1.837,2.045-3.812,1.925-6.091
			c-0.134-2.513-0.278-5.038-1.189-7.404c-1.044-2.71-2.444-3.477-5.297-3.285c-1.469,0.097-2.62,0.695-3.512,1.855
			c-1.569,2.041-2.789,4.195-2.45,6.911C37.373,49.474,37.35,49.705,37.35,49.936z M92.703,76.538
			c-0.011,0.021-0.023,0.042-0.033,0.063c0.022,0.003,0.046,0.003,0.069,0.006c0.015-0.034,0.03-0.067,0.044-0.101
			C92.757,76.518,92.729,76.527,92.703,76.538z M91.558,72.59c-0.771-0.095-1.626-0.049-2.361,0.187
			c-1.664,0.533-3.3,0.772-5.026,0.367c-0.54-0.126-1.17-0.092-1.704,0.058c-0.874,0.241-1.707,0.9-2.558,0.9
			c-0.851-0.002-1.68-0.683-2.56-0.898c-0.651-0.162-1.378-0.141-2.054-0.055c-1.186,0.15-2.252,0.066-3.188-0.8
			c-0.317-0.292-0.796-0.509-1.224-0.565c-2.649-0.342-6.346,0.951-7.588,4.17c-0.322,0.842-0.176,1.582,0.494,2.177
			c0.754,0.672,1.794,0.776,2.514,0.188c0.441-0.36,0.773-0.852,1.215-1.211c0.214-0.174,0.564-0.235,0.855-0.239
			c0.082,0,0.248,0.378,0.243,0.579c-0.022,0.937,0.116,1.81,0.604,2.642c0.867,1.476,2.542,1.832,3.767,0.72
			c0.422-0.382,0.754-0.863,1.152-1.276c1.053-1.096,1.408-1.272,2.66-0.5c1.647,1.019,3.212,1.11,4.855,0.164
			c1.043-0.601,2.125-0.741,3.312-0.557c1.752,0.271,3.402-0.061,4.973-0.944c0.865-0.486,1.837-0.784,2.765-1.157
			c0.19-0.389,0.43-0.764,0.544-1.173C93.656,73.894,93.008,72.764,91.558,72.59z M94.007,76.764
			c-0.405-0.116-0.842-0.114-1.268-0.156c-0.206,0.479-0.456,0.949-0.567,1.447c-0.059,0.271,0.099,0.669,0.292,0.896
			c0.393,0.463,1.375,0.608,1.85,0.212c0.296-0.248,0.485-0.729,0.548-1.132C94.955,77.412,94.609,76.936,94.007,76.764z"/>
	</g>
</g>
</svg>
