<?xml version="1.0" encoding="utf-8"?>
<!-- Generator: Adobe Illustrator 16.0.0, SVG Export Plug-In . SVG Version: 6.00 Build 0)  -->
<!DOCTYPE svg PUBLIC "-//W3C//DTD SVG 1.1//EN" "http://www.w3.org/Graphics/SVG/1.1/DTD/svg11.dtd">
<svg version="1.1" id="Layer_1" xmlns="http://www.w3.org/2000/svg" xmlns:xlink="http://www.w3.org/1999/xlink" x="0px" y="0px"
	 width="120px" height="120px" viewBox="0 0 120 120" style="enable-background:new 0 0 120 120;" xml:space="preserve">
<g id="users">
	<g>
		<path style="fill-rule:evenodd;clip-rule:evenodd;" d="M115.429,79.537c-1.14-1.953-2.225-3.94-3.291-5.936
			c-1.026-1.92-2.317-3.617-3.876-5.141c-1.252-1.227-2.664-2.199-4.236-2.928c-0.934-0.433-1.244-1.08-1.145-2.055
			c0.277-2.678,0.354-5.389,0.83-8.028c0.755-4.185,0.552-8.381,0.476-12.578c-0.021-1.159-0.326-2.354-0.725-3.454
			c-1.083-2.998-3.59-4.356-6.666-3.63c-1.685,0.397-3.242,1.099-4.578,2.289c-2.214,1.975-3.865,4.31-5.04,7.034
			c-1.204,2.789-1.245,5.648-0.775,8.561c0.389,2.406,1.591,4.439,3.061,6.334c0.727,0.936,1.449,1.872,2.146,2.828
			c0.063,0.086-0.053,0.451-0.149,0.481c-0.923,0.279-1.872,0.474-2.792,0.769c-2.568,0.822-5.128,1.682-6.934,3.871
			c-0.354,0.432-0.677,0.384-1.086,0.085c-1.927-1.401-3.961-2.62-6.271-3.274c-1.238-0.35-2.517-0.553-3.772-0.846
			c-0.468-0.11-0.725-0.457-0.671-0.942c0.033-0.315,0.173-0.619,0.25-0.931c1.766-7.122,3.226-14.288,2.923-22.652
			c0-1.083,0.021-3.133-0.006-5.182c-0.033-2.403-0.614-4.717-1.571-6.889c-1.08-2.448-2.79-4.529-5.479-5.134
			c-3.703-0.833-7.319-0.392-10.415,2.099c-4.367,3.51-7.639,7.875-9.805,13.034c-0.707,1.686-1.063,3.473-1.154,5.333
			c-0.192,3.918,0.904,7.465,2.893,10.761c1.784,2.953,3.674,5.839,6.016,8.4c0.499,0.547,0.852,1.228,1.271,1.847
			c-0.475,0.867-1.354,0.27-1.991,0.551c-0.884,0.39-1.791,0.734-2.656,1.161c-1.159,0.57-2.273,1.23-3.433,1.798
			c-0.965,0.472-1.977,1.221-2.949,1.189c-0.967-0.029-1.9-0.892-2.86-1.361c-2.671-1.306-2.321-1.271-2.122-3.98
			c0.142-1.929,0.451-3.851,0.531-5.781c0.179-4.331-0.575-8.588-1.301-12.83c-0.195-1.135-0.729-2.268-1.333-3.266
			c-1.48-2.459-3.904-3.396-6.608-3.321c-3.019,0.083-5.354,1.524-6.641,4.374c-0.354,0.782-0.684,1.585-0.914,2.41
			c-0.49,1.762-0.879,3.551-1.363,5.315c-0.773,2.827-1.145,5.711-0.985,8.624c0.09,1.599,0.489,3.182,0.78,4.766
			c0.149,0.808,1.157,1.608,0.603,2.322c-0.459,0.588-1.501,0.729-2.294,1.047c-0.698,0.281-1.423,0.504-2.112,0.803
			c-3.612,1.571-6.847,3.643-9.17,6.926c-0.809,1.145-1.679,2.245-2.461,3.406c-0.419,0.621-0.784,1.299-1.043,2
			c-0.845,2.289-1.028,4.18,2.349,5.658c5.226,2.285,10.61,3.506,16.315,3.316c1.293-0.043,2.588,0.012,3.883,0.009
			c1.07-0.001,1.888,0.354,2.25,1.454c0.134,0.406,0.304,0.807,0.5,1.189c0.632,1.219,3.815,3.479,5.228,3.433
			c1.334-0.045,2.538,0.306,3.793,0.577c3.469,0.752,6.92,1.665,10.428,2.13c3.408,0.451,6.876,0.484,10.32,0.589
			c2.799,0.084,5.59-0.094,8.39-0.297c3.663-0.267,7.283-0.736,10.87-1.465c3.402-0.691,6.627-1.877,9.521-3.855
			c0.532-0.361,1.067-0.754,1.655-0.998c1.156-0.48,1.99-1.22,2.521-2.372c0.142-0.306,0.628-0.574,0.991-0.628
			c0.631-0.094,1.289-0.009,1.936,0.004c3.235,0.06,6.474,0.089,9.706,0.191c2.043,0.064,3.812-0.622,5.429-1.773
			c0.61-0.436,1.192-0.938,1.689-1.494c0.477-0.535,1.008-0.73,1.696-0.742c1.362-0.026,1.906-0.918,1.985-2.081
			C116.059,81.572,116.01,80.535,115.429,79.537z M37.856,72.162c-0.645,0.569-1.292,1.136-1.958,1.682
			c-2.286,1.874-3.998,4.205-5.399,6.779c-0.722,1.327-1.322,2.703-1.575,4.211c-0.025,0.154-0.279,0.35-0.449,0.374
			c-0.165,0.024-0.459-0.101-0.523-0.239c-1.023-2.229-3.1-2.586-5.144-2.659c-2.732-0.1-5.288-0.9-7.892-1.544
			c-0.412-0.101-0.607-0.639-0.396-1.036c1.176-2.192,2.418-4.322,4.659-5.653c0.541-0.321,1.174-0.761,1.395-1.298
			c0.569-1.393,1.729-1.79,2.975-2.206c1.932-0.646,3.847-1.342,5.755-2.06c1.477-0.557,2.19-1.93,1.618-3.381
			c-0.356-0.905-0.579-1.814-0.824-2.743c-0.267-1.009-0.839-1.979-1.452-2.842c-0.592-0.83-0.897-1.675-0.949-2.677
			c-0.127-2.486-0.099-4.945,0.671-7.353c0.557-1.738,0.991-3.517,1.557-5.253c0.112-0.347,0.527-0.732,0.878-0.835
			c0.553-0.157,1.081,0.188,1.337,0.68c0.345,0.657,0.708,1.36,0.814,2.08c0.394,2.656,0.686,5.328,1.017,7.993
			c0.018,2.161,0.1,4.31-0.181,6.447c-0.139,1.06-0.395,2.103-0.558,3.159c-0.114,0.734-0.174,1.48-0.232,2.223
			c-0.112,1.445,0.46,2.43,1.809,3.1c1.039,0.516,1.946,1.303,2.908,1.973C38.119,71.366,38.19,71.867,37.856,72.162z
			 M85.118,88.033c-1.427,0.986-2.963,1.75-4.649,2.189c-3.234,0.842-6.531,1.315-9.846,1.673c-1.549,0.167-2.065,0.048-1.945-1.624
			c0.021-0.311-0.062-0.646-0.157-0.949c-0.337-1.068-1.741-1.506-2.654-0.832c-0.893,0.659-1.564,1.479-1.803,2.591
			c-0.224,1.049-0.969,1.341-1.919,1.326c-0.646-0.008-1.302,0.021-1.932-0.088c-0.202-0.036-0.5-0.479-0.471-0.697
			c0.071-0.523,0.374-1.012,0.465-1.533c0.071-0.41,0.014-0.86-0.074-1.274c-0.209-0.971-1.631-1.444-2.29-0.727
			c-1.016,1.109-1.94,2.298-2.911,3.447c-0.474,0.562-1.1,0.601-1.769,0.498c-0.49-0.074-0.713-0.492-0.447-0.915
			c0.346-0.546,0.743-1.06,1.067-1.617c0.54-0.931,1.114-1.853,1.524-2.84c0.234-0.565,0.273-1.262,0.221-1.884
			c-0.092-1.103-1.606-1.898-2.464-1.207c-2.429,1.953-4.927,3.883-5.638,7.213c-0.235,1.101-1.403,1.463-2.488,0.843
			c-0.138-0.079-0.288-0.406-0.232-0.514c0.349-0.661,0.682-1.352,1.153-1.923c2.211-2.682,3.666-5.828,5.451-8.771
			c0.112-0.184,0.264-0.386,0.264-0.583c0.001-0.403,0.046-0.916-0.175-1.182c-0.219-0.263-0.744-0.39-1.122-0.367
			c-0.406,0.025-0.786,0.334-1.197,0.444c-0.375,0.101-0.773,0.119-1.164,0.168c0.003,0.025,0.006,0.051,0.009,0.076
			c-0.057,0.022-0.112,0.049-0.167,0.074c-0.05,0.075-0.099,0.15-0.149,0.226c0.019-0.063,0.016-0.152,0.058-0.186
			c0.025-0.02,0.061-0.026,0.091-0.04c0.031-0.048,0.063-0.096,0.094-0.144c0.021-0.003,0.042-0.004,0.064-0.007
			c-0.021-0.187-0.039-0.374-0.068-0.561c-0.192-1.202-0.294-1.314-1.308-1.365c-0.379-0.02-0.761-0.011-1.142-0.013
			c-0.019,0.026-0.037,0.055-0.056,0.08c-0.023,0.033-0.078,0.045-0.139,0.051c-0.046,0.109-0.093,0.219-0.14,0.328
			c-0.263-0.336-0.034-0.312,0.14-0.328l0.056-0.132c0.046,0,0.093,0.001,0.139,0.001c0.353-0.481,0.668-1,1.083-1.419
			c2.732-2.758,5.502-5.476,8.229-8.236c0.768-0.777,1.555-1.467,2.612-1.823c1.02-0.344,1.571-1.037,1.545-2.184
			c-0.032-1.481,0.449-3.012-0.488-4.401c-0.109-0.163-0.135-0.423-0.109-0.628c0.226-1.896-0.396-3.61-1.122-5.302
			c-0.282-0.657-0.182-1.244,0.22-1.821c0.983-1.413,1.948-2.841,2.926-4.26c0.576-0.836,0.825-1.76,0.644-2.758
			c-0.072-0.405-0.246-0.827-0.482-1.166c-0.427-0.61-1.496-0.708-2.004-0.21c-0.688,0.675-1.335,1.394-2.026,2.065
			c-0.101,0.098-0.357,0.066-0.534,0.043c-0.062-0.008-0.148-0.174-0.148-0.268c0.002-0.428-0.062-0.887,0.069-1.273
			c0.169-0.5,0.489-0.951,0.765-1.412c0.951-1.601,2.345-2.803,3.662-4.073c0.62-0.599,1.262-1.177,1.865-1.793
			c0.218-0.225,0.392-0.519,0.509-0.811c0.215-0.537,0.128-1.075-0.251-1.509c-0.374-0.425-0.84-0.656-1.43-0.376
			c-0.972,0.461-1.945,0.917-2.935,1.343c-0.058,0.025-0.381-0.287-0.356-0.39c0.62-2.604,1.807-4.835,4.287-6.131
			c1.604-0.835,2.828-0.486,3.932,1.002c1.012,1.362,1.321,3.009,1.391,4.573c0.228,5.158,0.422,10.312-0.345,15.478
			c-0.663,4.475-1.402,8.915-2.629,13.27c-0.117,0.413-0.182,0.846-0.223,1.271c-0.108,1.15,0.229,1.812,1.388,2.186
			c0.864,0.279,1.521,0.766,2.166,1.343c1.144,1.02,2.431,1.732,3.945,2.101c2.256,0.549,4.149,1.75,5.71,3.479
			c0.579,0.641,1.186,1.258,1.815,1.845c3.429,3.194,5.363,7.225,6.569,11.67C85.864,87.187,85.755,87.594,85.118,88.033z
			 M109.043,82.326c-1.372,0.229-2.761,0.529-4.139,0.521c-2.468-0.016-4.933-0.249-7.399-0.374
			c-1.396-0.072-2.792-0.103-4.188-0.167c-0.727-0.033-1.463,0.854-2.106,0.188c-0.494-0.515-0.779-1.276-1.023-1.975
			c-1.163-3.315-3.122-6.107-5.518-8.629c-0.514-0.539-0.442-0.998,0.139-1.306c0.761-0.402,1.508-0.854,2.313-1.14
			c1.649-0.586,2.983-1.655,4.345-2.686c0.342-0.26,0.628-0.588,0.938-0.888c0.603-0.585,1.75-0.622,1.905-1.606
			c0.234-1.48,0.372-2.984-0.346-4.419c-0.528-1.058-1.01-2.14-1.485-3.221c-0.878-2-1.326-4.098-1.173-6.276
			c0.244-3.514,1.803-6.372,4.558-8.55c0.491-0.388,1.125-0.669,1.736-0.799c0.303-0.065,0.852,0.238,1.023,0.529
			c0.258,0.438,0.37,1.012,0.386,1.534c0.048,1.504,0.017,3.012,0.017,4.518L99.28,47.6c-0.372,3.847-0.598,7.715-1.17,11.53
			c-0.355,2.368-0.185,4.723-0.346,7.077c-0.034,0.469,0.274,1.033,0.58,1.436c0.596,0.778,1.421,1.248,2.351,1.622
			c2.925,1.177,5.019,3.235,6.278,6.151c0.851,1.971,1.786,3.907,2.686,5.857C109.976,81.958,109.89,82.187,109.043,82.326z"/>
	</g>
</g>
</svg>
