<?xml version="1.0" encoding="utf-8"?>
<!-- Generator: Adobe Illustrator 16.0.0, SVG Export Plug-In . SVG Version: 6.00 Build 0)  -->
<!DOCTYPE svg PUBLIC "-//W3C//DTD SVG 1.1//EN" "http://www.w3.org/Graphics/SVG/1.1/DTD/svg11.dtd">
<svg version="1.1" id="Layer_1" xmlns="http://www.w3.org/2000/svg" xmlns:xlink="http://www.w3.org/1999/xlink" x="0px" y="0px"
	 width="120px" height="120px" viewBox="0 0 120 120" style="enable-background:new 0 0 120 120;" xml:space="preserve">
<g id="photo">
	<g>
		<path style="fill-rule:evenodd;clip-rule:evenodd;" d="M109.609,59.765c-0.072-4.562-0.092-9.122-0.168-13.684
			c-0.018-1.074-0.141-2.149-0.255-3.219c-0.127-1.187-0.419-2.37-0.414-3.554c0.005-1.363-0.351-2.61-0.822-3.838
			c-1.228-3.195-3.389-5.202-6.982-5.186c-3.838,0.016-7.678,0.092-11.516,0.192c-0.703,0.018-1.398,0.29-2.103,0.437
			c-1.174,0.25-1.624,0.065-1.887-1.002c-0.256-1.036-0.436-2.108-0.495-3.172c-0.094-1.556,0.013-3.125-0.077-4.679
			c-0.187-3.13-1.855-5.142-4.821-5.937c-0.23-0.062-0.474-0.073-0.711-0.119c-1.411-0.27-2.825-0.518-4.229-0.818
			c-4.107-0.876-8.232-1.564-12.461-1.394c-1.917,0.078-3.84,0.088-5.76,0.09c-2.531,0.005-4.932,0.495-7.388,1.196
			c-2.617,0.746-4.141,2.256-5.122,4.568c-0.562,1.321-1.007,2.691-1.525,4.033c-0.645,1.668-1.315,3.326-1.976,4.99
			c-1.692,0.851-3.535,0.193-5.29,0.518c-1.182,0.219-1.688-0.119-1.576-1.241c0.223-2.197-1.285-3.229-2.604-4.408
			c-0.325-0.291-0.882-0.485-1.315-0.462c-1.791,0.095-3.602,0.154-5.356,0.489c-1.805,0.342-2.58,1.554-2.532,3.398
			c0.016,0.477,0.077,0.956,0.153,1.43c0.114,0.704,0.59,1.618,0.307,2.052c-0.392,0.609-1.304,0.955-2.058,1.238
			c-1.002,0.377-2.05,0.666-3.105,0.844c-1.796,0.298-2.941,1.309-3.945,2.796c-1.677,2.478-2.402,5.226-2.596,8.107
			c-0.392,5.859-1.11,11.7-0.942,17.593c0.079,2.639,0.016,5.281,0.016,7.922h0.188c0,5.521-0.204,11.052,0.068,16.56
			c0.197,4.039,0.993,8.069,2.115,11.967c0.971,3.373,3.474,5.421,6.866,6.196c2.444,0.559,4.938,0.955,7.429,1.24
			c2.466,0.283,4.87,1.296,7.421,0.69c0.213-0.05,0.463,0.116,0.701,0.139c2.51,0.235,5.011,0.434,7.518-0.146
			c0.803-0.184,1.673-0.038,2.512-0.084c5.642-0.314,11.26,0.359,16.891,0.416c4.682,0.048,9.356,0.234,14.038,0.284
			c3.836,0.041,7.678,0.128,11.445-0.858c1.154-0.303,2.343-0.574,3.53-0.649c3.977-0.247,7.795-1.275,11.615-2.269
			c1.376-0.357,2.7-0.969,3.978-1.608c0.609-0.308,1.269-0.853,1.527-1.456c0.66-1.527,1.377-3.114,1.574-4.738
			c0.375-3.086,0.562-6.216,0.541-9.326C109.956,76.792,109.744,68.277,109.609,59.765z M28.302,28.52
			c0.077,0.006,0.153,0.01,0.23,0.012c-0.049,0.268-0.102,0.535-0.147,0.803c-0.068-0.086-0.19-0.171-0.19-0.257
			C28.196,28.891,28.26,28.705,28.302,28.52z M100.753,91.283c-0.611,2.34-2.175,4.256-4.213,5.657
			c-0.377,0.259-0.89,0.336-1.348,0.452c-2.323,0.583-4.728,0.938-6.952,1.773c-2.867,1.078-5.861,1.186-8.807,1.691
			c-1.398,0.239-2.562-0.024-3.235-1.553c-0.298-0.678-1.346-0.689-1.821,0.027c-1.249,1.89-3.042,1.618-4.833,1.418
			c-0.874-0.096-0.944-0.962-1.302-1.558c-0.478-0.792-1.138-0.853-1.786-0.32c-0.728,0.599-0.953,1.812-2.054,1.892
			c-0.819,0.057-1.659-0.213-2.49-0.239c-1.199-0.039-2.443-0.182-3.59,0.073c-1.494,0.328-2.521,0.065-3.362-1.248
			c-0.365-0.572-1.118-0.574-1.554-0.023c-0.981,1.234-2.15,1.812-3.748,1.659c-1.186-0.112-1.434-0.437-0.775-1.544
			c0.497-0.837,0.997-1.628,0.881-2.667c-0.086-0.751-0.818-1.298-1.51-1.083c-1.396,0.433-2.626,1.151-3.779,2.039
			c-0.546,0.418-1.146,0.067-1.229-0.686c-0.05-0.475,0.02-0.964-0.059-1.432c-0.161-0.988-1.183-1.655-2.118-1.379
			c-0.456,0.134-0.883,0.373-1.311,0.588c-0.4,0.199-0.64,0.048-0.791-0.32c-0.18-0.44-0.27-0.938-0.528-1.322
			c-0.565-0.83-1.819-1.045-2.54-0.367c-1.661,1.558-3.253,3.193-4.874,4.792c-0.086,0.082-0.202,0.128-0.305,0.191
			c-0.086-0.185-0.272-0.39-0.241-0.552c0.157-0.82,0.412-1.625,0.55-2.446c0.076-0.463,0.024-0.956-0.013-1.429
			c-0.056-0.717-0.963-1.289-1.592-0.956c-0.521,0.274-0.969,0.687-1.46,1.025c-0.057,0.038-0.203,0.021-0.249-0.028
			c-0.073-0.076-0.161-0.224-0.132-0.301c0.335-0.896,0.779-1.764,1.015-2.685c0.199-0.791,0.311-1.67,0.173-2.459
			c-0.085-0.479-0.655-0.984-1.133-1.256c-0.551-0.312-1.171-0.09-1.596,0.425c-0.228,0.274-0.389,0.608-0.616,0.884
			c-0.199,0.239-0.421,0.636-0.791,0.269c-0.136-0.135-0.199-0.461-0.14-0.654c0.312-1.03,0.714-2.036,1.005-3.073
			c0.121-0.436,0.156-0.955,0.042-1.385c-0.359-1.325-1.543-1.696-2.741-0.909c-0.197,0.129-0.357,0.317-0.556,0.447
			c-0.261,0.174-0.758-0.105-0.728-0.422c0.079-0.828,0.167-1.656,0.301-2.477c0.116-0.705,0.379-1.39,0.444-2.096
			c0.066-0.742-0.116-1.522-0.948-1.732c-1.282-0.322-1.359-1.24-1.175-2.221c0.155-0.813,0.484-1.601,0.793-2.374
			c0.359-0.89,0.822-1.738,1.162-2.635c0.366-0.973-0.099-2.237-1.083-2.282c-1.539-0.071-1.775-0.836-1.763-2.062
			c0.055-5.403,0.003-10.81,0.183-16.21c0.076-2.256,0.606-4.502,0.997-6.742c0.401-2.315,1.804-3.993,3.915-4.813
			c2.306-0.894,4.527-2.318,7.206-1.841c0.226,0.041,0.488,0.016,0.712-0.047c3.643-1.025,7.38-0.762,11.093-0.768
			c1.361-0.001,2.585-0.371,3.813-0.907c1.631-0.714,2.359-1.938,2.383-3.665c0.02-1.32,0.037-2.642,0.09-3.961
			c0.037-0.838,0.044-1.697,0.232-2.506c0.353-1.499,1.144-2.482,2.871-2.768c2.147-0.354,4.234-0.651,6.418-0.287
			c1.409,0.234,2.871,0.186,4.307,0.203c4.592,0.058,9.047,0.937,13.46,2.117c1.45,0.389,1.475,0.457,1.517,1.99
			c0.034,1.322-0.033,2.649,0.085,3.961c0.11,1.184,0.368,2.36,0.632,3.522c0.525,2.304,2.17,3.438,4.361,3.625
			c2.402,0.204,4.717,0.528,6.956,1.517c1.065,0.469,2.321,0.528,3.501,0.715c1.771,0.277,3.553,0.467,5.319,0.765
			c1.175,0.198,1.668,0.735,1.712,1.957c0.083,2.52,0.076,5.041,0.103,7.563c0.009,0.721,0.002,1.441,0.002,2.162h-0.052
			c0,2.282-0.037,4.564,0.013,6.846c0.03,1.432,0.197,2.861,0.298,4.293c0.053,0.717,0.132,1.436,0.141,2.154
			c0.083,6.845,0.107,13.691,0.255,20.537C101.827,86.383,101.38,88.874,100.753,91.283z M66.866,48.36
			c-1.557-0.018-3.139-0.018-4.658-0.302c-2.937-0.547-5.735,0.034-8.497,0.821c-1.238,0.354-2.374,1.103-3.518,1.743
			c-0.623,0.348-1.123,0.909-1.738,1.272c-4.576,2.705-6.584,6.904-6.568,12.011c0.013,3.207,0.376,6.457,1.008,9.603
			c0.995,4.948,4.203,8.232,8.765,10.223c2.214,0.964,4.555,1.341,6.964,1.62c4.234,0.49,8.085-0.352,11.655-2.594
			c0.914-0.574,1.797-1.131,2.856-1.464c1.397-0.442,2.45-1.402,3.281-2.665c2.432-3.704,3.923-7.669,3.83-12.195
			c-0.317-2.371-0.602-4.748-0.962-7.114C78.363,53.271,73.056,48.426,66.866,48.36z M73.612,64.028
			c-0.563,5.667-2.896,10.294-8.021,13.216c-0.606,0.346-1.325,0.524-2.018,0.67c-0.174,0.037-0.643-0.375-0.625-0.541
			c0.076-0.703,0.37-1.388,0.428-2.091c0.105-1.271-0.454-2.056-1.802-2.207c-1.192-0.132-1.955-0.449-2.462-1.65
			c-0.585-1.38-0.726-1.321-2.54-0.847c-0.224,0.06-0.495,0.174-0.678,0.1c-0.162-0.067-0.374-0.412-0.324-0.542
			c0.351-0.886,0.799-1.735,1.148-2.621c0.322-0.813,0.47-1.809-0.196-2.377c-1.016-0.862-1.23-1.651-0.533-2.771
			c0.173-0.278,0.158-0.689,0.192-1.044c0.073-0.767-0.578-1.398-1.341-1.277c-0.349,0.057-0.675,0.252-1.023,0.305
			c-0.313,0.048-0.643-0.009-0.965-0.02c0.053-0.312,0.007-0.704,0.178-0.921c1.3-1.633,2.975-2.812,4.91-3.522
			c3.222-1.181,6.583-1.267,9.939-0.83c1.427,0.186,2.792,0.71,3.382,2.316c0.241,0.664,0.695,1.258,1.103,1.85
			C73.357,60.67,73.789,62.248,73.612,64.028z M36.595,39.21c-0.587-0.06-1.191-0.024-1.783,0.021
			c-2.137,0.169-4.279,0.318-6.407,0.558c-1.773,0.2-3.542,0.467-5.295,0.804c-0.963,0.187-1.519,1.101-1.527,2.159
			c-0.01,1.209,0.844,2.371,2.047,2.584c0.934,0.166,1.898,0.145,2.277,0.169c3.544-0.282,6.516-0.493,9.483-0.776
			c0.694-0.066,1.393-0.32,2.04-0.595c1.127-0.477,1.62-1.397,1.498-2.572C38.801,40.371,37.812,39.335,36.595,39.21z"/>
	</g>
</g>
</svg>
