<?xml version="1.0" encoding="utf-8"?>
<!-- Generator: Adobe Illustrator 16.0.0, SVG Export Plug-In . SVG Version: 6.00 Build 0)  -->
<!DOCTYPE svg PUBLIC "-//W3C//DTD SVG 1.1//EN" "http://www.w3.org/Graphics/SVG/1.1/DTD/svg11.dtd">
<svg version="1.1" id="Layer_1" xmlns="http://www.w3.org/2000/svg" xmlns:xlink="http://www.w3.org/1999/xlink" x="0px" y="0px"
	 width="120px" height="120px" viewBox="0 0 120 120" style="enable-background:new 0 0 120 120;" xml:space="preserve">
<g id="video">
	<g>
		<path style="fill-rule:evenodd;clip-rule:evenodd;" d="M112.129,76.767c-0.311-2.221-0.52-4.544-0.584-7.01
			c-0.627-9.302-0.139-19.719-0.293-29.493c-0.793-2.108,0.613-4.664-0.875-6.135c0.393-0.88,0.393-2.327,0-3.209
			c-0.428-0.838-1.35-1.182-2.041-1.754c-1.566-0.251-3.055,0.443-3.508,0.875c-0.443,0.426-0.799,0.6-1.166,0.879
			c-0.896,0.668-1.656,1.132-2.338,1.752c-1.91,1.592-3.828,3.178-5.842,4.672c-0.889,0.862-2.029,1.475-2.92,2.336
			c-1.16,0.591-1.924,1.58-3.209,2.044c-0.578,1.174-2.096,1.411-2.631,2.627c-0.855,0.021-1.084,0.67-1.459,1.167
			c-0.492,0.121-1.314,1.378-1.752,0.586c-1.471-4.759-1.186-11.273-3.504-15.184c-0.799,0.213-0.59-0.58-1.168-0.586
			c-0.182-0.403-1.125-0.043-1.17-0.583c-1.467,0.204-2.037-0.495-3.504-0.291c-7.711,0.114-15.164-0.024-21.902-0.877
			c-10.174,0.146-19.895-0.155-29.785-0.29c-2.994,1.968-8.9,1.025-13.141,1.748c-1.291,1.341-2.078,3.182-1.752,6.135v40.299
			c0.08,2.646,0.312,5.141,0.584,7.59c-0.01,2.738-0.277,5.73,1.168,7.01c3.305,1.521,7.285-0.467,11.096-0.292
			c1.816-0.354,2.258,0.663,3.799,0.587c5.215-0.059,9.807,0.508,15.184,0.287c8.75-1.309,20.234-0.988,29.785-0.582
			c1.885,0.647,4.939,0.123,7.301,0.295c2.736,0.105,5.172-0.088,7.01-0.878c0.602-1.146,1.754-1.749,1.457-3.799
			c0.77-1.079,1.996-1.701,2.047-3.502v-4.087c-0.246-1.511-0.775-2.731-0.877-4.382c-0.434-0.444-0.473-1.283-0.586-2.044
			c-0.252-0.359-0.926-1.756-0.289-2.047c0.459,0.029,1.012-0.036,0.875,0.588c0.395-0.093,0.557-0.418,1.17-0.293
			c0.367,0.701,1.553,0.59,2.045,1.167c1.438,0.702,2.957,1.325,4.086,2.337c3.426,0.758,5.479,2.895,8.76,3.797
			c1.051,1.285,3.094,1.579,4.09,2.918c1.598,0.495,3.096,2.149,5.256,1.17C113.096,81.055,112.377,79.016,112.129,76.767z
			 M39.123,35.299h2.922c-4.406,6.985-7.945,14.833-11.391,22.777c-0.736-0.661,0.387-1.933,0.586-2.627
			c0.178-1.085,0.693-1.836,0.873-2.92c0.799-1.735,1.33-3.732,2.045-5.55c1.277-3.784,2.666-7.46,4.381-10.804
			C38.643,35.791,39.055,35.717,39.123,35.299z M12.842,35.883c1.395,0.105,2.775-0.237,3.795-0.584
			c0.432-0.145,0.811-0.342,0.877,0v0.584c-1.008,1.522-1.557,3.502-2.336,5.256c-0.514,0.753-0.42,2.109-1.168,2.629
			c0.211,0.895-0.502,0.859-0.291,1.75c-0.701-0.113,0.162,1.333-0.877,0.877V35.883z M13.133,61.581v-3.796
			c-0.129-0.561,0.258-0.467,0.586-0.584c0.617-0.222,1.064-0.291,1.75-0.878c1.566-7.681,4.104-14.391,6.135-21.607
			c2.236,0.114,3.613-0.562,5.547,0c-5.021,9.674-9.779,19.616-13.725,30.37C12.756,64.489,13.322,62.661,13.133,61.581z
			 M13.133,68.004c0.764,0.391,0.559,1.296,0.293,2.047C12.771,69.924,13.305,68.611,13.133,68.004z M23.354,84.943
			c-1.207,0.039-2.256-0.084-2.92-0.585c-0.541,0.043-0.18,0.989-0.582,1.169c-0.516,0.167-1.719-0.355-1.752,0.291
			c-1.146-1.165,0.83-1.681,1.752-1.754c1.682-1.04,2.547-2.902,2.92-5.256c0.646,0.233,0.729,1.025,1.166,1.461
			C23.365,81.912,22.275,83.116,23.354,84.943z M23.938,58.95c-0.82,2.196-1.9,4.139-2.629,6.426c-1.033,1.885-1.5,4.34-2.627,6.134
			c-1.381,4.555-2.828,9.045-4.963,12.849c-0.826-0.939,0.062-2.649,0-3.796c0.643-0.721,0.648-2.076,1.166-2.921
			c0.744-1.982,1.426-4.025,2.045-6.132c0.387-2.342,1.818-3.637,2.338-5.84c0.846-1.879,1.631-3.822,2.336-5.844
			c0.502-0.953,0.975-1.941,1.168-3.211c0.539-0.821,0.902-1.819,1.166-2.918c0.943-1.783,1.484-3.97,2.336-5.842
			c1.428-4.022,2.938-7.962,4.381-11.973c0.219-1.732,3.385-0.51,4.963-0.876c-0.959,2.056-2.164,3.87-3.209,5.839
			C29.375,46.676,26.564,52.719,23.938,58.95z M29.195,84.651c-1.244-0.172-1.932,0.206-2.922,0.292
			c-0.121-0.732,0.631-0.865,0.877-1.461c0.197-0.477,0.098-1.238,0.293-1.753c0.027-0.077,0.234-0.061,0.293-0.292
			c0.191-0.762,0.58-1.688,0.873-2.629c0.666-2.158,1.787-3.857,2.045-6.422c1.162-1.661,1.539-4.108,2.629-5.84
			c0.613-2.211,1.584-4.064,2.334-6.133c3.393-7.902,6.324-16.26,9.637-24.238c0.158-0.234,0.307-0.475,0.295-0.877h3.795
			c-1.803,3.065-2.953,6.781-4.09,10.514c-1.701,3.162-2.76,6.971-4.377,10.221c-1.506,3.361-2.865,6.869-4.674,9.928
			c-0.5,1.934-1.557,3.312-2.627,4.67c-0.184,1.086-0.822,1.712-1.168,2.629c-0.475,0.696-0.658,1.682-1.168,2.338
			C31.891,79.945,29,80.756,29.195,84.651z M38.248,83.775c-1.242,0.51-3.285,0.215-4.965,0.289c0.395-1.84,1.42-3.058,1.752-4.961
			c2.24-2.725,3.568-6.361,4.965-9.93c1.576-3.291,2.906-6.828,4.09-10.514c2.611-7.119,4.887-14.582,6.713-22.484v-0.877
			c2.334-0.188,4.025,0.258,6.133,0.291c-0.289,1.174-1.209,1.709-1.459,2.92c-0.443,0.92-0.871,1.856-1.168,2.922
			c-0.834,1.991-1.672,3.975-2.338,6.134c-0.812,2.007-1.393,4.25-2.334,6.132c-0.465,2.262-1.576,3.874-2.045,6.129
			c-0.994,1.83-1.604,4.044-2.338,6.135c-1.23,1.494-1.684,3.765-2.627,5.549C41.287,75.715,39.137,79.113,38.248,83.775z
			 M62.777,63.332c-0.725,1.711-1.203,3.665-1.752,5.551c-0.525,1.906-1.115,3.751-1.463,5.839c-0.752,1.58-0.617,4.052-1.459,5.548
			c-0.057,1.129-0.01,2.152,0.295,2.921c-4.623,0.048-9.523-0.179-13.727,0.292c0.469-2.062,1.273-3.789,2.043-5.549
			c0.756-1.679,1.031-3.834,2.047-5.256c0.943-4.018,2.203-7.724,3.502-11.389c2.186-7.646,4.434-15.229,6.424-23.07v-2.336
			c1.834-0.175,3.09,0.221,4.676,0.293c-2.172,7.953-4.811,15.438-7.01,23.361c-1.162,3.901-2.162,7.963-3.504,11.682
			c-0.363,2.172-1.369,3.689-1.461,6.132c-0.445,0.829-0.613,2.111-0.293,2.919c0.215,1.051,1.197,1.334,2.043,1.754
			c2.387-0.147,2.766-2.299,3.506-4.09c0.531-2,1.014-4.05,1.754-5.841c3.414-11.478,5.881-23.901,8.76-35.917h4.67
			c-2.492,7.143-5.193,14.076-7.299,21.609c-0.438,0.827-0.723,1.809-0.877,2.92C63.164,61.385,62.891,62.277,62.777,63.332z
			 M71.539,83.19c0.547-0.716,0.988-1.54,1.168-2.628c0.598,0.567,0.129,2.206,1.168,2.336
			C73.656,83.557,72.234,83.012,71.539,83.19z M67.449,79.978c0.041,1.128-0.23,2.565,0.584,2.921
			c-0.789,0.672-2.816,0.102-4.09,0.292c3.391-15.008,7.592-29.205,11.1-44.094c0.246-0.054,0.273,0.112,0.293,0.29
			c0.125,4.448,1.182,7.969,2.043,11.684C74.357,60.996,70.939,70.523,67.449,79.978z M79.129,80.27v3.795
			c-1.422,0.258-1.934-0.397-2.92-0.582c0.254-1.016,0.91-1.617,1.461-2.338c0.121-1.726,1.047-2.652,1.17-4.378
			C79.508,77.363,78.943,79.191,79.129,80.27z M80.008,59.826c-0.674,1.471-1.266,3.021-1.754,4.674
			c-0.76-0.408,0.213-1.51,0.293-2.043c0.07-0.902,0.295-1.65,0.582-2.337c0.414-1.436,0.656-3.042,1.17-4.38v-0.876h0.877
			C81.699,56.35,80.199,58.109,80.008,59.826z M85.264,62.457V64.5c0.363,0.12,0.598,0.378,0.584,0.876
			c-0.369-0.119-0.596-0.377-0.584-0.876c-0.605-0.562-1.416-0.922-2.047-1.457c0.77-3.324,1.789-6.392,2.631-9.639
			c0.891-0.275,0.912-1.422,2.043-1.461c0.166-0.422,0.455-0.711,0.875-0.873c0.086-0.263,0.791-1.28,0.877-0.586
			C87.955,54.248,86.631,58.373,85.264,62.457z M94.898,57.785c-0.211,1.152-0.361,2.363-0.873,3.213
			c-0.426,2.203-1.002,4.256-1.463,6.424c-2.941,0.012-1.174-3.037-0.875-4.673c0.516-1.819,1.125-3.551,1.461-5.548
			c0.99-3.681,2.244-7.1,2.627-11.389c0.305-0.958,1.252-1.275,2.047-1.754c0.557-0.703,1.369-1.159,2.041-1.751
			c0.332,0.055,0.162,0.293,0,0.293c-0.967,4.386-3.102,7.605-3.797,12.264C95.355,55.515,95.516,57.039,94.898,57.785z
			 M98.404,70.34c-0.748-0.131-1.342-0.408-1.752-0.874c0.434-0.444,0.467-1.283,0.584-2.044c0.264-1.391,0.66-2.65,0.875-4.09
			c1.262-3.896,2.131-8.186,3.213-12.262c0.139-1.52,0.658-2.655,0.582-4.381c0.662-0.996,0.691-2.621,1.17-3.799
			c0.121-1.531,0.52-2.788,0.875-4.086c0.422-0.166,0.711-0.457,0.877-0.877c0.34-0.049,0.518,0.063,0.584,0.291
			c-0.562,2.457-0.182,5.852-0.291,8.761c-2.197,6.369-4.799,12.333-6.424,19.274c0.127,1.003-0.117,1.637-0.293,2.336
			C97.996,69.428,99.199,70.072,98.404,70.34z M101.324,71.51c0.734-0.34,0.918-1.221,1.459-1.753
			c0.369-3.724,1.566-6.61,2.045-10.22c0.67,0.597,0.107,2.425,0.293,3.506v3.792c0.352,1.89,0.361,4.116,0.582,6.134
			C104.068,72.656,102.795,71.984,101.324,71.51z"/>
	</g>
</g>
</svg>
