<?xml version="1.0" encoding="utf-8"?>
<!-- Generator: Adobe Illustrator 16.0.0, SVG Export Plug-In . SVG Version: 6.00 Build 0)  -->
<!DOCTYPE svg PUBLIC "-//W3C//DTD SVG 1.1//EN" "http://www.w3.org/Graphics/SVG/1.1/DTD/svg11.dtd">
<svg version="1.1" id="Layer_1" xmlns="http://www.w3.org/2000/svg" xmlns:xlink="http://www.w3.org/1999/xlink" x="0px" y="0px"
	 width="120px" height="120px" viewBox="0 0 120 120" style="enable-background:new 0 0 120 120;" xml:space="preserve">
<g id="location">
	<g>
		<path style="fill-rule:evenodd;clip-rule:evenodd;" d="M91.127,38.188c-0.163-3.773-0.799-7.428-2.363-10.877
			c-1.104-2.432-2.244-4.852-3.488-7.215c-1.857-3.529-4.283-6.646-7.301-9.273c-3.343-2.906-7.163-4.549-11.677-4.482
			c-2.358,0.037-4.698,0.111-6.997,0.688c-4.055,1.018-8.002,2.293-11.492,4.705c-4.064,2.809-7.824,5.965-11.084,9.684
			c-1.973,2.254-3.912,4.58-5.088,7.357c-1.758,4.156-2.978,8.459-2.73,13.055c0.035,0.639,0.006,1.281,0.006,2.578
			c-0.189,3.75,0.275,8.088,1.308,12.369c0.903,3.752,2.204,7.357,3.966,10.795c1.366,2.664,2.686,5.35,4.045,8.016
			c0.533,1.045,1.105,2.074,1.689,3.092c2.297,4.002,5.125,7.625,8.065,11.156c1.251,1.502,2.176,3.133,2.994,4.891
			c2.165,4.65,4.419,9.258,7.347,13.504c1.291,1.873,2.851,3.463,4.547,4.938c0.793,0.689,1.47,0.646,2.286-0.049
			c1.503-1.275,2.632-2.785,2.984-4.787c0.372-2.117,1.178-4.084,2.011-6.061c1.286-3.047,2.551-6.117,3.574-9.26
			c1.729-5.301,3.959-10.371,6.487-15.326c0.923-1.807,1.807-3.637,2.634-5.488c3.15-7.047,5.326-14.412,6.908-21.947
			C90.59,46.281,91.305,42.289,91.127,38.188z M80.818,52.773c-1.546,6.342-3.562,12.529-6.236,18.496
			c-2.098,4.678-4.163,9.373-6.145,14.1c-1.031,2.461-1.834,5.014-2.77,7.516c-0.675,1.799-1.393,3.582-2.113,5.363
			c-0.057,0.137-0.318,0.289-0.463,0.27c-0.185-0.025-0.457-0.188-0.501-0.344c-0.315-1.125-0.587-2.264-0.864-3.4
			c-0.126-0.516-0.161-1.068-0.369-1.549c-0.352-0.816-0.925-1.492-1.895-1.516c-0.879-0.023-1.657-0.07-2.294-0.84
			c-0.829-1.002-1.674-1.977-1.776-3.334c-0.09-1.172-0.1-2.352-0.133-3.527c-0.025-0.855,0.006-1.715-0.06-2.566
			c-0.161-2.096-1.425-2.906-3.561-2.312c-0.202,0.057-0.372,0.219-0.574,0.283c-0.429,0.133-0.788-0.133-0.874-0.635
			c-0.217-1.262-0.504-2.518-0.621-3.789c-0.295-3.191-0.875-6.357-0.797-9.58c0.031-1.297-0.176-2.559-0.605-3.781
			c-0.511-1.457-2.221-1.795-3.369-0.654c-0.297,0.293-0.492,0.688-0.748,1.025c-0.051,0.064-0.201,0.135-0.25,0.105
			c-0.17-0.1-0.428-0.225-0.449-0.369c-0.109-0.732-0.166-1.475-0.221-2.215c-0.233-3.195-0.453-6.393-0.695-9.588
			c-0.023-0.312-0.137-0.623-0.245-0.922c-0.341-0.941-1.778-1.223-2.364-0.402c-0.484,0.68-0.889,1.457-1.152,2.25
			c-0.367,1.107-0.564,2.271-0.85,3.408c-0.042,0.164-0.176,0.307-0.266,0.457c-0.057-0.203-0.162-0.406-0.164-0.609
			c-0.012-1.818-0.007-3.637-0.007-5.455c-0.077-4.707,0.401-9.377,0.991-14.043c0.111-0.881,0.363-1.627,0.836-2.371
			c1.202-1.895,2.382-3.805,3.484-5.758c1.589-2.812,3.868-4.797,6.829-6.041c1.583-0.664,2.985-1.564,4.325-2.684
			c2.695-2.246,5.953-3.283,9.42-3.668c1.536-0.17,2.979,0.119,4.3,0.951c1.265,0.799,2.521,1.611,3.802,2.383
			c1.088,0.654,2.016,1.553,3.334,1.869c0.543,0.131,1.076,0.707,1.413,1.213c0.827,1.244,1.622,2.523,2.273,3.865
			c1.167,2.402,2.245,4.85,3.308,7.301c0.817,1.881,1.113,3.865,1.213,5.922C83.168,42.799,82.033,47.793,80.818,52.773z
			 M67.198,30.594c-2.306-1.213-4.733-1.803-7.356-1.822c-4.062-0.033-6.88,1.855-8.808,5.295c-1.343,2.395-1.788,4.992-1.665,7.885
			c-0.338,2.424,0.379,4.92,0.949,7.393c0.502,2.168,2.029,3.662,4.131,4.564c1.939,0.832,3.958,0.771,5.975,0.701
			c4.383-0.15,8.035-2.029,11.012-5.129c2.52-2.623,3.407-5.945,2.748-9.465C73.398,35.824,71.043,32.613,67.198,30.594z
			 M68.613,42.779c-0.523,2.514-2.178,4.102-4.66,4.725c-1.333,0.336-2.709,0.5-4.066,0.74c-1.512,0.201-2.418-0.59-3.199-1.725
			c-1.139-1.654-1.699-3.455-1.277-5.432c0.354-1.656,0.82-3.299,1.365-4.904c0.531-1.566,1.705-2.369,3.4-2.396
			c1.303-0.02,2.551,0.143,3.662,0.879c0.799,0.527,1.604,1.051,2.369,1.625C68.396,37.932,69.153,40.176,68.613,42.779z"/>
	</g>
</g>
</svg>
