<?xml version="1.0" encoding="utf-8"?>
<!-- Generator: Adobe Illustrator 16.0.0, SVG Export Plug-In . SVG Version: 6.00 Build 0)  -->
<!DOCTYPE svg PUBLIC "-//W3C//DTD SVG 1.1//EN" "http://www.w3.org/Graphics/SVG/1.1/DTD/svg11.dtd">
<svg version="1.1" id="Layer_1" xmlns="http://www.w3.org/2000/svg" xmlns:xlink="http://www.w3.org/1999/xlink" x="0px" y="0px"
	 width="120px" height="120px" viewBox="0 0 120 120" style="enable-background:new 0 0 120 120;" xml:space="preserve">
<g id="mic">
	<g>
		<path style="fill-rule:evenodd;clip-rule:evenodd;" d="M92.608,41.894c-0.755-0.733-1.63-1.122-2.738-1.235
			c-2.227-0.224-3.987,0.602-5.661,1.938c-1.495,1.189-2.126,2.653-1.777,4.514c0.121,0.667,0.207,1.457,0.613,1.936
			c1.089,1.288,0.97,2.699,0.823,4.198c-0.108,1.136-0.055,2.287-0.065,3.435c-0.022,2.864-0.119,5.729-0.039,8.59
			c0.088,3.17-1.357,5.482-3.746,7.332c-1.642,1.27-3.467,2.216-5.375,3.021c-6.779,2.855-13.86,2.57-20.967,2.002
			c-0.112-0.008-0.226-0.039-0.336-0.066c-2.553-0.621-5.149-1.112-7.649-1.896c-3.524-1.104-6.554-2.875-9.006-5.889
			c-3.795-4.668-4.312-9.933-3.845-15.535c0.023-0.282,0.313-0.631,0.574-0.79c0.381-0.232,0.852-0.308,1.277-0.469
			c2.043-0.773,3.137-2.197,3.049-4.44c-0.02-0.455,0.041-0.915,0.046-1.373c0.017-1.325-0.508-2.538-1.365-3.418
			c-1.024-1.05-2.237-2.018-3.55-2.657c-2.787-1.353-6.422,0.374-7.129,3.229c-0.684,2.774-0.103,4.955,1.858,6.878
			c0.322,0.313,0.761,0.504,1.114,0.79c0.37,0.302,0.504,0.661,0.396,1.188c-0.704,3.399-0.249,6.841-0.304,10.266
			c-0.008,0.547,0.27,1.102,0.402,1.655c0.639,2.701,2.096,5.062,3.15,7.589c1.02,2.449,2.713,4.193,4.883,5.577
			c1.936,1.229,3.912,2.386,6.117,3.075c2.072,0.646,4.142,1.297,6.217,1.928c0.967,0.293,1.18,0.519,1.169,1.373
			c-0.042,3.55-0.079,7.1-0.125,10.649c-0.021,1.631,0.008,1.858-1.895,2.265c-0.777,0.165-1.604,0.098-2.392,0.236
			c-1.683,0.297-3.495,0.355-5,1.058c-3.021,1.413-5.643,3.491-7.832,6.048c-0.942,1.102-1.325,2.331-0.836,3.815
			c0.24,0.729,0.264,1.582,0.182,2.355c-0.15,1.399,0.68,1.995,1.633,2.261c1.317,0.367,2.672,0.717,4.027,0.803
			c4.105,0.263,8.186,0.884,12.325,0.686c2.515-0.119,5.038-0.021,7.558-0.021c0.002,0.069,0.002,0.139,0.004,0.209
			c4.466-0.07,8.947,0.069,13.393-0.279c3.424-0.272,6.836-0.562,10.271-0.613c0.895-0.013,1.806-0.271,2.676-0.529
			c1.455-0.428,2.056-1.415,1.662-2.87c-0.234-0.871-0.751-1.67-0.522-2.634c0.297-1.261-0.209-2.371-1.092-3.094
			c-1.699-1.396-2.872-3.24-4.402-4.767c-0.479-0.479-1.045-0.872-1.591-1.275c-2.49-1.838-5.346-2.509-8.379-2.565
			c-2.062-0.039-4.123-0.006-6.187-0.031c-0.647-0.006-1.051-0.416-1.055-1.089c-0.02-2.978-0.02-5.956-0.003-8.933
			c0.003-0.692,0.357-1.039,1.012-1.125c2.377-0.31,4.775-0.522,7.131-0.949c4.341-0.786,8.25-2.727,11.978-4.986
			c2.678-1.622,4.897-3.849,6.114-6.773c1.138-2.74,1.892-5.608,1.807-8.663c-0.104-3.662-0.021-7.331-0.025-10.998
			c-0.002-0.821,0.13-1.48,0.927-2.036C95.849,48.174,94.716,43.946,92.608,41.894z M38.221,109.095
			c-0.019-0.159-0.113-0.364-0.046-0.469c0.099-0.154,0.31-0.236,0.473-0.349c0.094,0.158,0.186,0.317,0.341,0.581
			C38.714,108.941,38.468,109.02,38.221,109.095z M41.771,109.28c-0.176-0.004-0.347-0.178-0.521-0.275
			c0.182-0.093,0.366-0.255,0.548-0.255c0.165,0,0.33,0.178,0.497,0.275C42.119,109.117,41.944,109.285,41.771,109.28z
			 M57.011,84.829c0.526,0.17,0.621,0.592,0.618,1.056c-0.008,1.029-0.031,2.058-0.043,3.086c-0.007,0.57,0,1.144,0,1.715h0.006
			c0,1.371,0.011,2.742-0.006,4.113c-0.007,0.535,0.117,1.136-0.527,1.453c-0.422,0.209-0.731-0.437-0.74-1.629
			c-0.012-1.828,0.007-3.658-0.008-5.485c-0.011-1.028-0.073-2.053-0.101-3.081C56.188,85.245,56.562,84.686,57.011,84.829z
			 M68.135,102.643c0.825,0.117,2.306,0.251,3.748,0.557c1.242,0.262,2.381,0.826,3.163,1.902c0.207,0.284,0.315,0.648-0.069,0.84
			c-0.508,0.254-1.047,0.475-1.597,0.601c-3.002,0.689-5.996,1.438-9.022,1.979c-1.559,0.278-3.185,0.211-4.779,0.201
			c-0.469-0.002-0.753-0.502-0.661-1.002c0.145-0.781,0.435-1.545,0.511-2.331c0.037-0.395-0.185-0.878-0.434-1.219
			c-0.279-0.387-1.065-0.288-1.527,0.188c-0.793,0.815-1.556,1.666-2.287,2.538c-0.439,0.521-0.78,1.124-1.213,1.651
			c-0.088,0.111-0.391,0.082-0.59,0.061c-0.077-0.008-0.202-0.172-0.198-0.26c0.046-0.789,0.198-1.582,0.148-2.363
			c-0.033-0.533-0.299-1.07-0.539-1.568c-0.212-0.433-0.808-0.51-1.165-0.271c-1.204,0.801-1.762,2.062-2.423,3.266
			c-0.317,0.576-0.803,1.06-1.228,1.571c-0.056,0.067-0.235,0.09-0.325,0.055c-0.091-0.036-0.212-0.18-0.199-0.259
			c0.069-0.546,0.084-1.121,0.274-1.627c1.312-3.512,0.489-3.445,5.021-3.834c2.73-0.234,5.487-0.178,8.229-0.289
			C63.141,102.941,65.306,102.798,68.135,102.643z M43.029,37.313c-0.038,1.371,0.062,2.749-0.021,4.116
			c-0.299,4.941,0.636,9.796,1.008,14.69c0.086,1.133,0.343,2.26,0.606,3.37c0.642,2.715,1.864,5.145,3.717,7.243
			c0.619,0.7,1.301,1.269,2.302,1.343c5.043,0.374,10.064,0.355,14.947-1.148c2.545-0.781,4.844-2.153,6.519-4.223
			c3.322-4.107,5.193-8.837,5.267-14.176c0.048-3.661,0.008-7.321,0.008-10.982c0-2.174,0.006-4.346-0.002-6.52
			c-0.013-3.082,0.035-6.155-0.477-9.227c-0.525-3.158-1.164-6.275-2.126-9.332c-0.644-2.036-1.924-3.688-3.447-5.031
			c-2.223-1.957-4.849-2.965-7.923-2.158c-0.756,0.199-1.583,0.137-2.377,0.168c-1.484,0.059-2.981,0.008-4.457,0.165
			c-3.722,0.393-6.852,1.85-8.58,5.396c-1.6,3.28-3.389,6.487-4.484,9.982c-0.924,2.939-1.802,5.899-1.856,9.027
			c-0.017,1.037-0.044,2.065,0.521,2.993C42.979,34.343,43.073,35.809,43.029,37.313z M67.57,55.82
			c-0.59,1.33-1.518,2.219-2.754,2.908c-2.379,1.334-4.987,1.47-7.607,1.554c-0.675,0.022-1.367-0.226-2.038-0.178
			c-1.413,0.106-2.086-0.652-2.476-1.858c-0.102-0.324-0.286-0.636-0.33-0.964c-0.041-0.352,0.036-0.656,0.557-0.423
			c0.409,0.185,0.867,0.31,1.312,0.348c1.347,0.117,2.141-0.458,2.531-1.773c0.214-0.715,0.042-1.356-0.461-1.894
			c-0.5-0.531-1.129-0.771-1.855-0.608c-0.323,0.073-0.654,0.213-0.932,0.399c-0.377,0.253-0.703,0.579-1.05,0.874
			c-0.27-0.469-0.715-0.912-0.779-1.407c-0.306-2.366-0.542-4.743-0.726-7.124c-0.062-0.81,0.462-1.389,1.158-1.445
			c3.521-0.282,7.041-0.539,10.562-0.801c0.957-0.07,1.69,0.254,2.445,0.929c1.378,1.233,1.449,1.153,3.023-0.315
			c0.161-0.15,0.337-0.333,0.535-0.383c0.146-0.038,0.485,0.103,0.493,0.188c0.115,1.123,0.186,2.254,0.268,3.383
			C69.759,50.302,68.793,53.076,67.57,55.82z M50.705,20.076c1.174-1.826,2.415-3.612,3.665-5.389
			c0.709-1.006,1.781-1.486,2.956-1.52c2.743-0.082,5.488-0.063,8.232-0.065c0.634-0.002,1.022,0.425,1.359,0.916
			c1.139,1.666,1.225,3.658,1.664,5.533c0.073,0.308-0.316,0.832-0.627,1.096c-0.962,0.817-1.317,1.827-1.211,3.046
			c0.046,0.529,0.61,0.991,1.196,0.988c1.415-0.01,1.432-0.012,1.425,0.801c-0.008,1.031-0.016,2.06-0.045,3.09
			c-0.021,0.63-0.287,0.81-0.791,0.434c-0.803-0.604-1.599-0.879-2.531-0.379c-1.213,0.646-1.884,1.706-1.915,3.042
			c-0.021,0.83,0.531,1.492,1.292,1.892c0.943,0.496,2.133,0.343,2.837-0.387c0.226-0.238,0.337-0.592,0.522-0.876
			c0.194-0.292,0.385-0.288,0.439,0c0.086,0.445,0.178,0.899,0.188,1.349c0.021,1.03,0.013,2.063-0.015,3.092
			c-0.017,0.674-0.403,1.112-1.012,1.118c-1.714,0.017-3.433,0.011-5.148-0.015c-0.522-0.006-0.755-0.378-0.671-0.957
			c0.077-0.546,0.357-1.152,0.207-1.622c-0.272-0.835-0.58-1.796-1.656-1.997c-0.61-0.115-1.353,0.755-1.677,1.92
			c-0.123,0.437-0.173,0.895-0.261,1.342c-0.271,1.413-0.272,1.424-1.654,1.706c-0.559,0.114-1.129,0.257-1.693,0.257
			c-1.273,0-2.483,0.22-3.682,0.671c-0.785,0.295-1.336-0.152-1.348-1.022c-0.027-1.946-0.013-3.895-0.013-5.841v-2.021
			c-0.138-2.434,0.228-5.534-0.438-8.599C50.195,21.191,50.419,20.521,50.705,20.076z M55.345,35.149
			c0.688-0.953,0.953-2.025,0.942-3.462c-0.286-0.326-0.627-0.935-1.146-1.252c-0.698-0.431-1.725-0.134-2.161,0.418
			c-1.077,1.365-1.068,3.059,0.022,4.342C53.639,35.941,54.795,35.915,55.345,35.149z M62.285,19.115
			c0.648-0.372,1.06-0.989,0.914-1.679c-0.236-1.092-0.639-2.153-1.057-3.194c-0.092-0.23-0.547-0.443-0.825-0.436
			c-0.288,0.009-0.733,0.232-0.823,0.471c-0.394,1.043-0.685,2.126-1.017,3.218c0.335,0.57,0.517,1.146,0.905,1.478
			C60.916,19.429,61.62,19.495,62.285,19.115z M60.661,30.764c0.748-0.188,1.102-0.751,1.271-1.457
			c0.053-0.222,0.109-0.443,0.176-0.722c-0.09-0.391-0.196-0.834-0.289-1.277c-0.125-0.61-0.438-1.133-1.084-1.11
			c-0.529,0.02-1.18,0.166-1.541,0.506c-0.883,0.83-0.891,2.008-0.207,3.117C59.388,30.473,60.109,30.901,60.661,30.764z
			 M54.577,26.934c1.022-0.033,1.693-0.874,1.712-2.145c0.016-1.125-0.801-1.97-1.885-1.959c-0.912,0.01-1.68,0.799-1.723,1.769
			C52.621,25.966,53.434,26.971,54.577,26.934z M56.543,21.316c0.789-0.391,1.109-1.054,1.12-2.027
			c-0.029-0.207-0.053-0.544-0.132-0.866c-0.234-0.979-1.344-1.336-2.102-0.711c-0.627,0.519-1.137,1.136-1.155,1.957
			c-0.009,0.515,0.136,1.1,0.403,1.534C54.953,21.657,55.904,21.634,56.543,21.316z M66.253,50.866
			c-0.717-0.19-1.785,0.143-2.047,0.819c-0.278,0.711-0.433,1.512-0.431,2.272c0,0.579,0.521,0.977,1.104,1.142
			c0.684,0.194,1.505-0.068,1.769-0.65c0.271-0.6,0.418-1.256,0.508-1.541C67.158,51.705,66.777,51.004,66.253,50.866z
			 M59.199,47.307c-0.623-0.216-1.353,0.026-1.816,0.583c-0.557,0.669-0.66,1.434-0.477,2.253c0.136,0.619,1.039,1.224,1.854,1.27
			c0.589,0.031,1.319-0.566,1.459-1.228c0.071-0.332,0.092-0.677,0.112-0.838c0-0.295,0.003-0.408,0-0.522
			C60.301,48.027,59.958,47.569,59.199,47.307z"/>
	</g>
</g>
</svg>
